<?xml version="1.0" encoding="utf-8" standalone="no"?>
<!DOCTYPE svg PUBLIC "-//W3C//DTD SVG 1.1//EN"
  "http://www.w3.org/Graphics/SVG/1.1/DTD/svg11.dtd">
<svg xmlns:xlink="http://www.w3.org/1999/xlink" width="936pt" height="453.6pt" viewBox="0 0 936 453.6" xmlns="http://www.w3.org/2000/svg" version="1.1">
 <metadata>
  <rdf:RDF xmlns:dc="http://purl.org/dc/elements/1.1/" xmlns:cc="http://creativecommons.org/ns#" xmlns:rdf="http://www.w3.org/1999/02/22-rdf-syntax-ns#">
   <cc:Work>
    <dc:type rdf:resource="http://purl.org/dc/dcmitype/StillImage"/>
    <dc:date>2023-08-24T16:00:25.134890</dc:date>
    <dc:format>image/svg+xml</dc:format>
    <dc:creator>
     <cc:Agent>
      <dc:title>Matplotlib v3.5.1, https://matplotlib.org/</dc:title>
     </cc:Agent>
    </dc:creator>
   </cc:Work>
  </rdf:RDF>
 </metadata>
 <defs>
  <style type="text/css">*{stroke-linejoin: round; stroke-linecap: butt}</style>
 </defs>
 <g id="figure_1">
  <g id="patch_1">
   <path d="M 0 453.6 
L 936 453.6 
L 936 0 
L 0 0 
z
" style="fill: #ffffff"/>
  </g>
  <g id="axes_1">
   <g id="patch_2">
    <path d="M 117 396.9 
L 842.4 396.9 
L 842.4 54.432 
L 117 54.432 
z
" style="fill: #ffffff"/>
   </g>
   <g id="matplotlib.axis_1">
    <g id="xtick_1">
     <g id="line2d_1">
      <path d="M 220.628571 396.9 
L 220.628571 54.432 
" clip-path="url(#p20f7339129)" style="fill: none; stroke: #cccccc; stroke-linecap: round"/>
     </g>
     <g id="text_1">
      <!-- $\mathdefault{10^{0}}$ -->
      <g style="fill: #262626" transform="translate(208.308571 417.037812)scale(0.14 -0.14)">
       <defs>
        <path id="DejaVuSans-31" d="M 794 531 
L 1825 531 
L 1825 4091 
L 703 3866 
L 703 4441 
L 1819 4666 
L 2450 4666 
L 2450 531 
L 3481 531 
L 3481 0 
L 794 0 
L 794 531 
z
" transform="scale(0.015625)"/>
        <path id="DejaVuSans-30" d="M 2034 4250 
Q 1547 4250 1301 3770 
Q 1056 3291 1056 2328 
Q 1056 1369 1301 889 
Q 1547 409 2034 409 
Q 2525 409 2770 889 
Q 3016 1369 3016 2328 
Q 3016 3291 2770 3770 
Q 2525 4250 2034 4250 
z
M 2034 4750 
Q 2819 4750 3233 4129 
Q 3647 3509 3647 2328 
Q 3647 1150 3233 529 
Q 2819 -91 2034 -91 
Q 1250 -91 836 529 
Q 422 1150 422 2328 
Q 422 3509 836 4129 
Q 1250 4750 2034 4750 
z
" transform="scale(0.015625)"/>
       </defs>
       <use xlink:href="#DejaVuSans-31" transform="translate(0 0.765625)"/>
       <use xlink:href="#DejaVuSans-30" transform="translate(63.623047 0.765625)"/>
       <use xlink:href="#DejaVuSans-30" transform="translate(128.203125 39.046875)scale(0.7)"/>
      </g>
     </g>
    </g>
    <g id="xtick_2">
     <g id="line2d_2">
      <path d="M 427.885714 396.9 
L 427.885714 54.432 
" clip-path="url(#p20f7339129)" style="fill: none; stroke: #cccccc; stroke-linecap: round"/>
     </g>
     <g id="text_2">
      <!-- $\mathdefault{10^{1}}$ -->
      <g style="fill: #262626" transform="translate(415.565714 417.037812)scale(0.14 -0.14)">
       <use xlink:href="#DejaVuSans-31" transform="translate(0 0.684375)"/>
       <use xlink:href="#DejaVuSans-30" transform="translate(63.623047 0.684375)"/>
       <use xlink:href="#DejaVuSans-31" transform="translate(128.203125 38.965625)scale(0.7)"/>
      </g>
     </g>
    </g>
    <g id="xtick_3">
     <g id="line2d_3">
      <path d="M 635.142857 396.9 
L 635.142857 54.432 
" clip-path="url(#p20f7339129)" style="fill: none; stroke: #cccccc; stroke-linecap: round"/>
     </g>
     <g id="text_3">
      <!-- $\mathdefault{10^{2}}$ -->
      <g style="fill: #262626" transform="translate(622.822857 417.037812)scale(0.14 -0.14)">
       <defs>
        <path id="DejaVuSans-32" d="M 1228 531 
L 3431 531 
L 3431 0 
L 469 0 
L 469 531 
Q 828 903 1448 1529 
Q 2069 2156 2228 2338 
Q 2531 2678 2651 2914 
Q 2772 3150 2772 3378 
Q 2772 3750 2511 3984 
Q 2250 4219 1831 4219 
Q 1534 4219 1204 4116 
Q 875 4013 500 3803 
L 500 4441 
Q 881 4594 1212 4672 
Q 1544 4750 1819 4750 
Q 2544 4750 2975 4387 
Q 3406 4025 3406 3419 
Q 3406 3131 3298 2873 
Q 3191 2616 2906 2266 
Q 2828 2175 2409 1742 
Q 1991 1309 1228 531 
z
" transform="scale(0.015625)"/>
       </defs>
       <use xlink:href="#DejaVuSans-31" transform="translate(0 0.765625)"/>
       <use xlink:href="#DejaVuSans-30" transform="translate(63.623047 0.765625)"/>
       <use xlink:href="#DejaVuSans-32" transform="translate(128.203125 39.046875)scale(0.7)"/>
      </g>
     </g>
    </g>
    <g id="xtick_4">
     <g id="line2d_4">
      <path d="M 842.4 396.9 
L 842.4 54.432 
" clip-path="url(#p20f7339129)" style="fill: none; stroke: #cccccc; stroke-linecap: round"/>
     </g>
     <g id="text_4">
      <!-- $\mathdefault{10^{3}}$ -->
      <g style="fill: #262626" transform="translate(830.08 417.037812)scale(0.14 -0.14)">
       <defs>
        <path id="DejaVuSans-33" d="M 2597 2516 
Q 3050 2419 3304 2112 
Q 3559 1806 3559 1356 
Q 3559 666 3084 287 
Q 2609 -91 1734 -91 
Q 1441 -91 1130 -33 
Q 819 25 488 141 
L 488 750 
Q 750 597 1062 519 
Q 1375 441 1716 441 
Q 2309 441 2620 675 
Q 2931 909 2931 1356 
Q 2931 1769 2642 2001 
Q 2353 2234 1838 2234 
L 1294 2234 
L 1294 2753 
L 1863 2753 
Q 2328 2753 2575 2939 
Q 2822 3125 2822 3475 
Q 2822 3834 2567 4026 
Q 2313 4219 1838 4219 
Q 1578 4219 1281 4162 
Q 984 4106 628 3988 
L 628 4550 
Q 988 4650 1302 4700 
Q 1616 4750 1894 4750 
Q 2613 4750 3031 4423 
Q 3450 4097 3450 3541 
Q 3450 3153 3228 2886 
Q 3006 2619 2597 2516 
z
" transform="scale(0.015625)"/>
       </defs>
       <use xlink:href="#DejaVuSans-31" transform="translate(0 0.765625)"/>
       <use xlink:href="#DejaVuSans-30" transform="translate(63.623047 0.765625)"/>
       <use xlink:href="#DejaVuSans-33" transform="translate(128.203125 39.046875)scale(0.7)"/>
      </g>
     </g>
    </g>
    <g id="xtick_5"/>
    <g id="xtick_6"/>
    <g id="xtick_7"/>
    <g id="xtick_8"/>
    <g id="xtick_9"/>
    <g id="xtick_10"/>
    <g id="xtick_11"/>
    <g id="xtick_12"/>
    <g id="xtick_13"/>
    <g id="xtick_14"/>
    <g id="xtick_15"/>
    <g id="xtick_16"/>
    <g id="xtick_17"/>
    <g id="xtick_18"/>
    <g id="xtick_19"/>
    <g id="xtick_20"/>
    <g id="xtick_21"/>
    <g id="xtick_22"/>
    <g id="xtick_23"/>
    <g id="xtick_24"/>
    <g id="xtick_25"/>
    <g id="xtick_26"/>
    <g id="xtick_27"/>
    <g id="xtick_28"/>
    <g id="xtick_29"/>
    <g id="xtick_30"/>
    <g id="xtick_31"/>
    <g id="xtick_32"/>
    <g id="xtick_33"/>
    <g id="xtick_34"/>
    <g id="text_5">
     <!-- Depth ≥ X -->
     <g style="fill: #262626" transform="translate(427.654687 439.14625)scale(0.2 -0.2)">
      <defs>
       <path id="DejaVuSans-44" d="M 1259 4147 
L 1259 519 
L 2022 519 
Q 2988 519 3436 956 
Q 3884 1394 3884 2338 
Q 3884 3275 3436 3711 
Q 2988 4147 2022 4147 
L 1259 4147 
z
M 628 4666 
L 1925 4666 
Q 3281 4666 3915 4102 
Q 4550 3538 4550 2338 
Q 4550 1131 3912 565 
Q 3275 0 1925 0 
L 628 0 
L 628 4666 
z
" transform="scale(0.015625)"/>
       <path id="DejaVuSans-65" d="M 3597 1894 
L 3597 1613 
L 953 1613 
Q 991 1019 1311 708 
Q 1631 397 2203 397 
Q 2534 397 2845 478 
Q 3156 559 3463 722 
L 3463 178 
Q 3153 47 2828 -22 
Q 2503 -91 2169 -91 
Q 1331 -91 842 396 
Q 353 884 353 1716 
Q 353 2575 817 3079 
Q 1281 3584 2069 3584 
Q 2775 3584 3186 3129 
Q 3597 2675 3597 1894 
z
M 3022 2063 
Q 3016 2534 2758 2815 
Q 2500 3097 2075 3097 
Q 1594 3097 1305 2825 
Q 1016 2553 972 2059 
L 3022 2063 
z
" transform="scale(0.015625)"/>
       <path id="DejaVuSans-70" d="M 1159 525 
L 1159 -1331 
L 581 -1331 
L 581 3500 
L 1159 3500 
L 1159 2969 
Q 1341 3281 1617 3432 
Q 1894 3584 2278 3584 
Q 2916 3584 3314 3078 
Q 3713 2572 3713 1747 
Q 3713 922 3314 415 
Q 2916 -91 2278 -91 
Q 1894 -91 1617 61 
Q 1341 213 1159 525 
z
M 3116 1747 
Q 3116 2381 2855 2742 
Q 2594 3103 2138 3103 
Q 1681 3103 1420 2742 
Q 1159 2381 1159 1747 
Q 1159 1113 1420 752 
Q 1681 391 2138 391 
Q 2594 391 2855 752 
Q 3116 1113 3116 1747 
z
" transform="scale(0.015625)"/>
       <path id="DejaVuSans-74" d="M 1172 4494 
L 1172 3500 
L 2356 3500 
L 2356 3053 
L 1172 3053 
L 1172 1153 
Q 1172 725 1289 603 
Q 1406 481 1766 481 
L 2356 481 
L 2356 0 
L 1766 0 
Q 1100 0 847 248 
Q 594 497 594 1153 
L 594 3053 
L 172 3053 
L 172 3500 
L 594 3500 
L 594 4494 
L 1172 4494 
z
" transform="scale(0.015625)"/>
       <path id="DejaVuSans-68" d="M 3513 2113 
L 3513 0 
L 2938 0 
L 2938 2094 
Q 2938 2591 2744 2837 
Q 2550 3084 2163 3084 
Q 1697 3084 1428 2787 
Q 1159 2491 1159 1978 
L 1159 0 
L 581 0 
L 581 4863 
L 1159 4863 
L 1159 2956 
Q 1366 3272 1645 3428 
Q 1925 3584 2291 3584 
Q 2894 3584 3203 3211 
Q 3513 2838 3513 2113 
z
" transform="scale(0.015625)"/>
       <path id="DejaVuSans-20" transform="scale(0.015625)"/>
       <path id="DejaVuSans-2265" d="M 678 3175 
L 678 3725 
L 4684 2578 
L 4684 2047 
L 678 897 
L 678 1453 
L 3681 2309 
L 678 3175 
z
M 4684 531 
L 4684 0 
L 678 0 
L 678 531 
L 4684 531 
z
" transform="scale(0.015625)"/>
       <path id="DejaVuSans-58" d="M 403 4666 
L 1081 4666 
L 2241 2931 
L 3406 4666 
L 4084 4666 
L 2584 2425 
L 4184 0 
L 3506 0 
L 2194 1984 
L 872 0 
L 191 0 
L 1856 2491 
L 403 4666 
z
" transform="scale(0.015625)"/>
      </defs>
      <use xlink:href="#DejaVuSans-44"/>
      <use xlink:href="#DejaVuSans-65" x="77.001953"/>
      <use xlink:href="#DejaVuSans-70" x="138.525391"/>
      <use xlink:href="#DejaVuSans-74" x="202.001953"/>
      <use xlink:href="#DejaVuSans-68" x="241.210938"/>
      <use xlink:href="#DejaVuSans-20" x="304.589844"/>
      <use xlink:href="#DejaVuSans-2265" x="336.376953"/>
      <use xlink:href="#DejaVuSans-20" x="420.166016"/>
      <use xlink:href="#DejaVuSans-58" x="451.953125"/>
     </g>
    </g>
   </g>
   <g id="matplotlib.axis_2">
    <g id="ytick_1">
     <g id="line2d_5">
      <path d="M 117 347.976 
L 842.4 347.976 
" clip-path="url(#p20f7339129)" style="fill: none; stroke: #cccccc; stroke-linecap: round"/>
     </g>
     <g id="text_6">
      <!-- 0.4 -->
      <g style="fill: #262626" transform="translate(85.235625 353.294906)scale(0.14 -0.14)">
       <defs>
        <path id="DejaVuSans-2e" d="M 684 794 
L 1344 794 
L 1344 0 
L 684 0 
L 684 794 
z
" transform="scale(0.015625)"/>
        <path id="DejaVuSans-34" d="M 2419 4116 
L 825 1625 
L 2419 1625 
L 2419 4116 
z
M 2253 4666 
L 3047 4666 
L 3047 1625 
L 3713 1625 
L 3713 1100 
L 3047 1100 
L 3047 0 
L 2419 0 
L 2419 1100 
L 313 1100 
L 313 1709 
L 2253 4666 
z
" transform="scale(0.015625)"/>
       </defs>
       <use xlink:href="#DejaVuSans-30"/>
       <use xlink:href="#DejaVuSans-2e" x="63.623047"/>
       <use xlink:href="#DejaVuSans-34" x="95.410156"/>
      </g>
     </g>
    </g>
    <g id="ytick_2">
     <g id="line2d_6">
      <path d="M 117 250.128 
L 842.4 250.128 
" clip-path="url(#p20f7339129)" style="fill: none; stroke: #cccccc; stroke-linecap: round"/>
     </g>
     <g id="text_7">
      <!-- 0.6 -->
      <g style="fill: #262626" transform="translate(85.235625 255.446906)scale(0.14 -0.14)">
       <defs>
        <path id="DejaVuSans-36" d="M 2113 2584 
Q 1688 2584 1439 2293 
Q 1191 2003 1191 1497 
Q 1191 994 1439 701 
Q 1688 409 2113 409 
Q 2538 409 2786 701 
Q 3034 994 3034 1497 
Q 3034 2003 2786 2293 
Q 2538 2584 2113 2584 
z
M 3366 4563 
L 3366 3988 
Q 3128 4100 2886 4159 
Q 2644 4219 2406 4219 
Q 1781 4219 1451 3797 
Q 1122 3375 1075 2522 
Q 1259 2794 1537 2939 
Q 1816 3084 2150 3084 
Q 2853 3084 3261 2657 
Q 3669 2231 3669 1497 
Q 3669 778 3244 343 
Q 2819 -91 2113 -91 
Q 1303 -91 875 529 
Q 447 1150 447 2328 
Q 447 3434 972 4092 
Q 1497 4750 2381 4750 
Q 2619 4750 2861 4703 
Q 3103 4656 3366 4563 
z
" transform="scale(0.015625)"/>
       </defs>
       <use xlink:href="#DejaVuSans-30"/>
       <use xlink:href="#DejaVuSans-2e" x="63.623047"/>
       <use xlink:href="#DejaVuSans-36" x="95.410156"/>
      </g>
     </g>
    </g>
    <g id="ytick_3">
     <g id="line2d_7">
      <path d="M 117 152.28 
L 842.4 152.28 
" clip-path="url(#p20f7339129)" style="fill: none; stroke: #cccccc; stroke-linecap: round"/>
     </g>
     <g id="text_8">
      <!-- 0.8 -->
      <g style="fill: #262626" transform="translate(85.235625 157.598906)scale(0.14 -0.14)">
       <defs>
        <path id="DejaVuSans-38" d="M 2034 2216 
Q 1584 2216 1326 1975 
Q 1069 1734 1069 1313 
Q 1069 891 1326 650 
Q 1584 409 2034 409 
Q 2484 409 2743 651 
Q 3003 894 3003 1313 
Q 3003 1734 2745 1975 
Q 2488 2216 2034 2216 
z
M 1403 2484 
Q 997 2584 770 2862 
Q 544 3141 544 3541 
Q 544 4100 942 4425 
Q 1341 4750 2034 4750 
Q 2731 4750 3128 4425 
Q 3525 4100 3525 3541 
Q 3525 3141 3298 2862 
Q 3072 2584 2669 2484 
Q 3125 2378 3379 2068 
Q 3634 1759 3634 1313 
Q 3634 634 3220 271 
Q 2806 -91 2034 -91 
Q 1263 -91 848 271 
Q 434 634 434 1313 
Q 434 1759 690 2068 
Q 947 2378 1403 2484 
z
M 1172 3481 
Q 1172 3119 1398 2916 
Q 1625 2713 2034 2713 
Q 2441 2713 2670 2916 
Q 2900 3119 2900 3481 
Q 2900 3844 2670 4047 
Q 2441 4250 2034 4250 
Q 1625 4250 1398 4047 
Q 1172 3844 1172 3481 
z
" transform="scale(0.015625)"/>
       </defs>
       <use xlink:href="#DejaVuSans-30"/>
       <use xlink:href="#DejaVuSans-2e" x="63.623047"/>
       <use xlink:href="#DejaVuSans-38" x="95.410156"/>
      </g>
     </g>
    </g>
    <g id="ytick_4">
     <g id="line2d_8">
      <path d="M 117 54.432 
L 842.4 54.432 
" clip-path="url(#p20f7339129)" style="fill: none; stroke: #cccccc; stroke-linecap: round"/>
     </g>
     <g id="text_9">
      <!-- 1.0 -->
      <g style="fill: #262626" transform="translate(85.235625 59.750906)scale(0.14 -0.14)">
       <use xlink:href="#DejaVuSans-31"/>
       <use xlink:href="#DejaVuSans-2e" x="63.623047"/>
       <use xlink:href="#DejaVuSans-30" x="95.410156"/>
      </g>
     </g>
    </g>
    <g id="text_10">
     <!-- Harmonized F-score -->
     <g style="fill: #262626" transform="translate(77.07625 325.3785)rotate(-90)scale(0.2 -0.2)">
      <defs>
       <path id="DejaVuSans-48" d="M 628 4666 
L 1259 4666 
L 1259 2753 
L 3553 2753 
L 3553 4666 
L 4184 4666 
L 4184 0 
L 3553 0 
L 3553 2222 
L 1259 2222 
L 1259 0 
L 628 0 
L 628 4666 
z
" transform="scale(0.015625)"/>
       <path id="DejaVuSans-61" d="M 2194 1759 
Q 1497 1759 1228 1600 
Q 959 1441 959 1056 
Q 959 750 1161 570 
Q 1363 391 1709 391 
Q 2188 391 2477 730 
Q 2766 1069 2766 1631 
L 2766 1759 
L 2194 1759 
z
M 3341 1997 
L 3341 0 
L 2766 0 
L 2766 531 
Q 2569 213 2275 61 
Q 1981 -91 1556 -91 
Q 1019 -91 701 211 
Q 384 513 384 1019 
Q 384 1609 779 1909 
Q 1175 2209 1959 2209 
L 2766 2209 
L 2766 2266 
Q 2766 2663 2505 2880 
Q 2244 3097 1772 3097 
Q 1472 3097 1187 3025 
Q 903 2953 641 2809 
L 641 3341 
Q 956 3463 1253 3523 
Q 1550 3584 1831 3584 
Q 2591 3584 2966 3190 
Q 3341 2797 3341 1997 
z
" transform="scale(0.015625)"/>
       <path id="DejaVuSans-72" d="M 2631 2963 
Q 2534 3019 2420 3045 
Q 2306 3072 2169 3072 
Q 1681 3072 1420 2755 
Q 1159 2438 1159 1844 
L 1159 0 
L 581 0 
L 581 3500 
L 1159 3500 
L 1159 2956 
Q 1341 3275 1631 3429 
Q 1922 3584 2338 3584 
Q 2397 3584 2469 3576 
Q 2541 3569 2628 3553 
L 2631 2963 
z
" transform="scale(0.015625)"/>
       <path id="DejaVuSans-6d" d="M 3328 2828 
Q 3544 3216 3844 3400 
Q 4144 3584 4550 3584 
Q 5097 3584 5394 3201 
Q 5691 2819 5691 2113 
L 5691 0 
L 5113 0 
L 5113 2094 
Q 5113 2597 4934 2840 
Q 4756 3084 4391 3084 
Q 3944 3084 3684 2787 
Q 3425 2491 3425 1978 
L 3425 0 
L 2847 0 
L 2847 2094 
Q 2847 2600 2669 2842 
Q 2491 3084 2119 3084 
Q 1678 3084 1418 2786 
Q 1159 2488 1159 1978 
L 1159 0 
L 581 0 
L 581 3500 
L 1159 3500 
L 1159 2956 
Q 1356 3278 1631 3431 
Q 1906 3584 2284 3584 
Q 2666 3584 2933 3390 
Q 3200 3197 3328 2828 
z
" transform="scale(0.015625)"/>
       <path id="DejaVuSans-6f" d="M 1959 3097 
Q 1497 3097 1228 2736 
Q 959 2375 959 1747 
Q 959 1119 1226 758 
Q 1494 397 1959 397 
Q 2419 397 2687 759 
Q 2956 1122 2956 1747 
Q 2956 2369 2687 2733 
Q 2419 3097 1959 3097 
z
M 1959 3584 
Q 2709 3584 3137 3096 
Q 3566 2609 3566 1747 
Q 3566 888 3137 398 
Q 2709 -91 1959 -91 
Q 1206 -91 779 398 
Q 353 888 353 1747 
Q 353 2609 779 3096 
Q 1206 3584 1959 3584 
z
" transform="scale(0.015625)"/>
       <path id="DejaVuSans-6e" d="M 3513 2113 
L 3513 0 
L 2938 0 
L 2938 2094 
Q 2938 2591 2744 2837 
Q 2550 3084 2163 3084 
Q 1697 3084 1428 2787 
Q 1159 2491 1159 1978 
L 1159 0 
L 581 0 
L 581 3500 
L 1159 3500 
L 1159 2956 
Q 1366 3272 1645 3428 
Q 1925 3584 2291 3584 
Q 2894 3584 3203 3211 
Q 3513 2838 3513 2113 
z
" transform="scale(0.015625)"/>
       <path id="DejaVuSans-69" d="M 603 3500 
L 1178 3500 
L 1178 0 
L 603 0 
L 603 3500 
z
M 603 4863 
L 1178 4863 
L 1178 4134 
L 603 4134 
L 603 4863 
z
" transform="scale(0.015625)"/>
       <path id="DejaVuSans-7a" d="M 353 3500 
L 3084 3500 
L 3084 2975 
L 922 459 
L 3084 459 
L 3084 0 
L 275 0 
L 275 525 
L 2438 3041 
L 353 3041 
L 353 3500 
z
" transform="scale(0.015625)"/>
       <path id="DejaVuSans-64" d="M 2906 2969 
L 2906 4863 
L 3481 4863 
L 3481 0 
L 2906 0 
L 2906 525 
Q 2725 213 2448 61 
Q 2172 -91 1784 -91 
Q 1150 -91 751 415 
Q 353 922 353 1747 
Q 353 2572 751 3078 
Q 1150 3584 1784 3584 
Q 2172 3584 2448 3432 
Q 2725 3281 2906 2969 
z
M 947 1747 
Q 947 1113 1208 752 
Q 1469 391 1925 391 
Q 2381 391 2643 752 
Q 2906 1113 2906 1747 
Q 2906 2381 2643 2742 
Q 2381 3103 1925 3103 
Q 1469 3103 1208 2742 
Q 947 2381 947 1747 
z
" transform="scale(0.015625)"/>
       <path id="DejaVuSans-46" d="M 628 4666 
L 3309 4666 
L 3309 4134 
L 1259 4134 
L 1259 2759 
L 3109 2759 
L 3109 2228 
L 1259 2228 
L 1259 0 
L 628 0 
L 628 4666 
z
" transform="scale(0.015625)"/>
       <path id="DejaVuSans-2d" d="M 313 2009 
L 1997 2009 
L 1997 1497 
L 313 1497 
L 313 2009 
z
" transform="scale(0.015625)"/>
       <path id="DejaVuSans-73" d="M 2834 3397 
L 2834 2853 
Q 2591 2978 2328 3040 
Q 2066 3103 1784 3103 
Q 1356 3103 1142 2972 
Q 928 2841 928 2578 
Q 928 2378 1081 2264 
Q 1234 2150 1697 2047 
L 1894 2003 
Q 2506 1872 2764 1633 
Q 3022 1394 3022 966 
Q 3022 478 2636 193 
Q 2250 -91 1575 -91 
Q 1294 -91 989 -36 
Q 684 19 347 128 
L 347 722 
Q 666 556 975 473 
Q 1284 391 1588 391 
Q 1994 391 2212 530 
Q 2431 669 2431 922 
Q 2431 1156 2273 1281 
Q 2116 1406 1581 1522 
L 1381 1569 
Q 847 1681 609 1914 
Q 372 2147 372 2553 
Q 372 3047 722 3315 
Q 1072 3584 1716 3584 
Q 2034 3584 2315 3537 
Q 2597 3491 2834 3397 
z
" transform="scale(0.015625)"/>
       <path id="DejaVuSans-63" d="M 3122 3366 
L 3122 2828 
Q 2878 2963 2633 3030 
Q 2388 3097 2138 3097 
Q 1578 3097 1268 2742 
Q 959 2388 959 1747 
Q 959 1106 1268 751 
Q 1578 397 2138 397 
Q 2388 397 2633 464 
Q 2878 531 3122 666 
L 3122 134 
Q 2881 22 2623 -34 
Q 2366 -91 2075 -91 
Q 1284 -91 818 406 
Q 353 903 353 1747 
Q 353 2603 823 3093 
Q 1294 3584 2113 3584 
Q 2378 3584 2631 3529 
Q 2884 3475 3122 3366 
z
" transform="scale(0.015625)"/>
      </defs>
      <use xlink:href="#DejaVuSans-48"/>
      <use xlink:href="#DejaVuSans-61" x="75.195312"/>
      <use xlink:href="#DejaVuSans-72" x="136.474609"/>
      <use xlink:href="#DejaVuSans-6d" x="175.837891"/>
      <use xlink:href="#DejaVuSans-6f" x="273.25"/>
      <use xlink:href="#DejaVuSans-6e" x="334.431641"/>
      <use xlink:href="#DejaVuSans-69" x="397.810547"/>
      <use xlink:href="#DejaVuSans-7a" x="425.59375"/>
      <use xlink:href="#DejaVuSans-65" x="478.083984"/>
      <use xlink:href="#DejaVuSans-64" x="539.607422"/>
      <use xlink:href="#DejaVuSans-20" x="603.083984"/>
      <use xlink:href="#DejaVuSans-46" x="634.871094"/>
      <use xlink:href="#DejaVuSans-2d" x="692.390625"/>
      <use xlink:href="#DejaVuSans-73" x="728.474609"/>
      <use xlink:href="#DejaVuSans-63" x="780.574219"/>
      <use xlink:href="#DejaVuSans-6f" x="835.554688"/>
      <use xlink:href="#DejaVuSans-72" x="896.736328"/>
      <use xlink:href="#DejaVuSans-65" x="935.599609"/>
     </g>
    </g>
   </g>
   <g id="line2d_9">
    <path d="M 319.515359 153.74772 
L 345.409805 152.28 
L 365.495097 148.85532 
L 381.905976 149.34456 
L 395.781177 147.87684 
L 407.800422 147.3876 
L 427.885714 145.43064 
L 436.464644 145.91988 
L 444.296593 145.43064 
L 464.381886 142.98444 
L 470.191039 142.98444 
L 480.792764 142.98444 
L 485.659389 143.47368 
L 490.276331 143.96292 
L 494.667965 143.96292 
L 498.855261 144.45216 
L 502.856392 145.43064 
L 510.361624 143.47368 
L 520.56241 143.96292 
L 523.721002 143.96292 
L 526.772502 143.96292 
L 529.723935 144.45216 
L 535.351432 143.96292 
L 540.647703 144.45216 
L 543.183381 144.45216 
L 545.64958 144.45216 
L 550.388076 144.45216 
L 552.666948 145.43064 
L 554.889546 145.43064 
L 561.245878 144.9414 
L 563.268674 144.45216 
L 565.247009 142.00596 
L 567.182796 142.00596 
L 570.933782 142.4952 
L 572.75224 142.98444 
L 577.997062 141.51672 
L 579.679552 141.51672 
L 590.650932 140.53824 
L 592.114552 140.049 
L 594.972272 139.55976 
L 597.742049 140.049 
L 603.038319 138.58128 
L 612.778693 139.07052 
L 613.925341 138.09204 
L 618.371214 135.1566 
L 619.449198 135.1566 
L 620.514425 134.66736 
L 621.567193 134.66736 
L 622.60779 136.62432 
L 623.636494 135.1566 
L 625.65929 131.73192 
L 626.653893 127.32876 
L 627.637626 128.79648 
L 634.23822 125.86104 
L 635.142857 126.83952 
L 636.038493 126.83952 
L 636.925304 126.35028 
L 640.387678 132.22116 
L 642.899766 133.19964 
L 644.536368 134.66736 
L 645.343644 134.17812 
L 646.936794 134.66736 
L 647.722918 135.1566 
L 648.502236 136.62432 
L 658.758431 136.62432 
L 660.811994 137.6028 
L 664.783696 138.58128 
L 668.587528 136.62432 
L 669.20616 137.6028 
L 671.639028 137.11356 
L 674.590461 137.6028 
L 676.88385 140.049 
L 677.448182 143.47368 
L 686.537088 146.40912 
L 688.049907 148.36608 
L 689.04451 152.28 
L 690.516106 152.76924 
L 691.96403 149.8338 
L 701.063755 151.79076 
L 712.812129 156.19392 
L 715.432166 157.66164 
L 721.494578 161.08632 
L 730.667227 161.57556 
L 756.014969 159.6186 
L 761.264224 158.64012 
L 763.670484 156.68316 
L 767.05952 159.12936 
L 771.915203 158.64012 
L 772.111948 158.64012 
L 775.770638 165.00024 
L 800.525693 122.9256 
L 811.825425 119.50092 
L 836.830556 94.54968 
L 838.161255 66.17376 
" clip-path="url(#p20f7339129)" style="fill: none; stroke-dasharray: 3,4.95; stroke-dashoffset: 0; stroke: #4c72b0; stroke-width: 3"/>
   </g>
   <g id="line2d_10">
    <path d="M 319.515359 150.81228 
L 345.409805 149.8338 
L 365.495097 147.87684 
L 381.905976 148.36608 
L 395.781177 148.36608 
L 407.800422 148.36608 
L 427.885714 146.40912 
L 436.464644 146.89836 
L 444.296593 146.89836 
L 464.381886 144.45216 
L 470.191039 144.45216 
L 480.792764 144.45216 
L 485.659389 144.9414 
L 490.276331 145.43064 
L 494.667965 145.43064 
L 498.855261 146.89836 
L 502.856392 147.87684 
L 510.361624 144.9414 
L 520.56241 145.43064 
L 523.721002 145.91988 
L 526.772502 145.91988 
L 529.723935 145.91988 
L 535.351432 145.43064 
L 540.647703 146.40912 
L 543.183381 146.40912 
L 545.64958 146.40912 
L 550.388076 146.40912 
L 552.666948 146.89836 
L 554.889546 147.3876 
L 561.245878 146.89836 
L 563.268674 146.40912 
L 565.247009 143.96292 
L 567.182796 143.96292 
L 570.933782 144.45216 
L 572.75224 145.43064 
L 577.997062 144.45216 
L 579.679552 143.96292 
L 590.650932 142.98444 
L 592.114552 142.98444 
L 594.972272 142.00596 
L 597.742049 142.4952 
L 603.038319 141.02748 
L 612.778693 142.00596 
L 613.925341 141.02748 
L 618.371214 139.55976 
L 619.449198 139.07052 
L 620.514425 138.58128 
L 621.567193 137.6028 
L 622.60779 139.07052 
L 623.636494 138.58128 
L 625.65929 135.1566 
L 626.653893 132.22116 
L 627.637626 134.66736 
L 634.23822 131.73192 
L 635.142857 132.7104 
L 636.038493 133.68888 
L 636.925304 133.19964 
L 640.387678 141.51672 
L 642.899766 142.4952 
L 644.536368 143.96292 
L 645.343644 145.43064 
L 646.936794 146.40912 
L 647.722918 147.87684 
L 648.502236 149.34456 
L 658.758431 148.85532 
L 660.811994 147.87684 
L 664.783696 148.85532 
L 668.587528 147.87684 
L 669.20616 146.40912 
L 671.639028 147.87684 
L 674.590461 148.85532 
L 676.88385 151.79076 
L 677.448182 155.70468 
L 686.537088 156.19392 
L 688.049907 159.6186 
L 689.04451 160.59708 
L 690.516106 160.59708 
L 691.96403 158.15088 
L 701.063755 161.57556 
L 712.812129 167.44644 
L 715.432166 169.4034 
L 721.494578 173.80656 
L 730.667227 175.27428 
L 756.014969 174.2958 
L 761.264224 174.2958 
L 763.670484 174.2958 
L 767.05952 178.69896 
L 771.915203 180.16668 
L 772.111948 183.10212 
L 775.770638 199.24704 
L 800.525693 158.15088 
L 811.825425 158.64012 
L 836.830556 132.22116 
L 838.161255 66.17376 
" clip-path="url(#p20f7339129)" style="fill: none; stroke-dasharray: 3,4.95; stroke-dashoffset: 0; stroke: #dd8452; stroke-width: 3"/>
   </g>
   <g id="line2d_11">
    <path d="M 319.515359 190.92996 
L 345.409805 190.44072 
L 365.495097 188.973 
L 381.905976 187.50528 
L 395.781177 185.05908 
L 407.800422 183.10212 
L 427.885714 180.65592 
L 436.464644 181.6344 
L 444.296593 181.6344 
L 464.381886 178.20972 
L 470.191039 177.72048 
L 480.792764 177.72048 
L 485.659389 177.72048 
L 490.276331 178.20972 
L 494.667965 178.69896 
L 498.855261 178.20972 
L 502.856392 177.23124 
L 510.361624 175.76352 
L 520.56241 173.31732 
L 523.721002 173.80656 
L 526.772502 172.33884 
L 529.723935 171.8496 
L 535.351432 169.89264 
L 540.647703 170.87112 
L 543.183381 170.38188 
L 545.64958 170.38188 
L 550.388076 169.4034 
L 552.666948 169.89264 
L 554.889546 169.89264 
L 561.245878 169.4034 
L 563.268674 168.42492 
L 565.247009 167.44644 
L 567.182796 164.02176 
L 570.933782 164.511 
L 572.75224 165.48948 
L 577.997062 164.02176 
L 579.679552 165.00024 
L 590.650932 163.04328 
L 592.114552 161.57556 
L 594.972272 159.6186 
L 597.742049 160.10784 
L 603.038319 159.12936 
L 612.778693 160.59708 
L 613.925341 159.12936 
L 618.371214 157.66164 
L 619.449198 157.66164 
L 620.514425 157.66164 
L 621.567193 158.64012 
L 622.60779 160.59708 
L 623.636494 159.6186 
L 625.65929 151.30152 
L 626.653893 144.45216 
L 627.637626 143.96292 
L 634.23822 135.64584 
L 635.142857 135.64584 
L 636.038493 135.1566 
L 636.925304 134.66736 
L 640.387678 139.55976 
L 642.899766 139.55976 
L 644.536368 140.049 
L 645.343644 141.51672 
L 646.936794 141.51672 
L 647.722918 141.51672 
L 648.502236 142.4952 
L 658.758431 138.58128 
L 660.811994 139.07052 
L 664.783696 141.51672 
L 668.587528 141.02748 
L 669.20616 139.55976 
L 671.639028 131.73192 
L 674.590461 132.7104 
L 676.88385 135.64584 
L 677.448182 132.7104 
L 686.537088 134.17812 
L 688.049907 135.1566 
L 689.04451 136.13508 
L 690.516106 135.64584 
L 691.96403 135.1566 
L 701.063755 133.19964 
L 712.812129 134.17812 
L 715.432166 132.7104 
L 721.494578 136.62432 
L 730.667227 137.11356 
L 756.014969 134.17812 
L 761.264224 132.22116 
L 763.670484 134.66736 
L 767.05952 137.11356 
L 771.915203 135.64584 
L 772.111948 137.6028 
L 775.770638 149.34456 
L 800.525693 126.35028 
L 811.825425 120.96864 
L 836.830556 76.4478 
L 838.161255 65.68452 
" clip-path="url(#p20f7339129)" style="fill: none; stroke-dasharray: 11.1,4.8; stroke-dashoffset: 0; stroke: #55a868; stroke-width: 3"/>
   </g>
   <g id="line2d_12">
    <path d="M 319.515359 189.95148 
L 345.409805 189.46224 
L 365.495097 187.99452 
L 381.905976 186.5268 
L 395.781177 184.0806 
L 407.800422 182.12364 
L 427.885714 180.16668 
L 436.464644 180.65592 
L 444.296593 180.65592 
L 464.381886 176.25276 
L 470.191039 176.25276 
L 480.792764 175.76352 
L 485.659389 175.76352 
L 490.276331 176.742 
L 494.667965 177.23124 
L 498.855261 176.25276 
L 502.856392 175.27428 
L 510.361624 173.80656 
L 520.56241 171.36036 
L 523.721002 171.8496 
L 526.772502 170.38188 
L 529.723935 169.89264 
L 535.351432 167.93568 
L 540.647703 168.42492 
L 543.183381 167.93568 
L 545.64958 167.93568 
L 550.388076 167.44644 
L 552.666948 167.44644 
L 554.889546 167.44644 
L 561.245878 167.44644 
L 563.268674 167.44644 
L 565.247009 166.46796 
L 567.182796 163.53252 
L 570.933782 164.511 
L 572.75224 165.00024 
L 577.997062 163.53252 
L 579.679552 164.511 
L 590.650932 163.04328 
L 592.114552 162.0648 
L 594.972272 159.6186 
L 597.742049 160.10784 
L 603.038319 158.15088 
L 612.778693 160.10784 
L 613.925341 158.64012 
L 618.371214 156.68316 
L 619.449198 156.68316 
L 620.514425 157.1724 
L 621.567193 157.66164 
L 622.60779 159.6186 
L 623.636494 159.12936 
L 625.65929 150.81228 
L 626.653893 142.4952 
L 627.637626 141.51672 
L 634.23822 133.68888 
L 635.142857 133.68888 
L 636.038493 133.19964 
L 636.925304 132.22116 
L 640.387678 134.66736 
L 642.899766 134.66736 
L 644.536368 135.1566 
L 645.343644 136.13508 
L 646.936794 136.13508 
L 647.722918 136.13508 
L 648.502236 136.62432 
L 658.758431 133.19964 
L 660.811994 133.19964 
L 664.783696 135.64584 
L 668.587528 135.64584 
L 669.20616 134.66736 
L 671.639028 127.818 
L 674.590461 128.30724 
L 676.88385 130.2642 
L 677.448182 127.32876 
L 686.537088 128.79648 
L 688.049907 129.28572 
L 689.04451 126.83952 
L 690.516106 126.35028 
L 691.96403 127.818 
L 701.063755 125.3718 
L 712.812129 123.41484 
L 715.432166 121.45788 
L 721.494578 124.39332 
L 730.667227 123.90408 
L 756.014969 124.39332 
L 761.264224 121.45788 
L 763.670484 122.9256 
L 767.05952 124.39332 
L 771.915203 121.94712 
L 772.111948 125.86104 
L 775.770638 133.19964 
L 800.525693 117.05472 
L 811.825425 131.24268 
L 836.830556 96.0174 
L 838.161255 115.587 
" clip-path="url(#p20f7339129)" style="fill: none; stroke-dasharray: 11.1,4.8; stroke-dashoffset: 0; stroke: #c44e52; stroke-width: 3"/>
   </g>
   <g id="line2d_13">
    <path d="M 319.515359 178.20972 
L 345.409805 174.78504 
L 365.495097 172.33884 
L 381.905976 169.89264 
L 395.781177 168.42492 
L 407.800422 169.4034 
L 427.885714 169.89264 
L 436.464644 170.38188 
L 444.296593 170.38188 
L 464.381886 168.91416 
L 470.191039 169.4034 
L 480.792764 169.4034 
L 485.659389 169.4034 
L 490.276331 169.89264 
L 494.667965 170.38188 
L 498.855261 171.36036 
L 502.856392 172.82808 
L 510.361624 170.38188 
L 520.56241 169.89264 
L 523.721002 169.89264 
L 526.772502 170.38188 
L 529.723935 170.87112 
L 535.351432 171.36036 
L 540.647703 171.8496 
L 543.183381 171.36036 
L 545.64958 171.36036 
L 550.388076 172.33884 
L 552.666948 171.36036 
L 554.889546 171.36036 
L 561.245878 171.8496 
L 563.268674 171.36036 
L 565.247009 167.93568 
L 567.182796 165.00024 
L 570.933782 165.97872 
L 572.75224 166.46796 
L 577.997062 165.97872 
L 579.679552 166.46796 
L 590.650932 166.46796 
L 592.114552 166.46796 
L 594.972272 166.9572 
L 597.742049 167.93568 
L 603.038319 168.42492 
L 612.778693 170.38188 
L 613.925341 168.42492 
L 618.371214 166.9572 
L 619.449198 167.93568 
L 620.514425 168.42492 
L 621.567193 168.91416 
L 622.60779 165.97872 
L 623.636494 165.48948 
L 625.65929 159.6186 
L 626.653893 153.25848 
L 627.637626 148.36608 
L 634.23822 141.51672 
L 635.142857 136.62432 
L 636.038493 135.64584 
L 636.925304 135.64584 
L 640.387678 120.96864 
L 642.899766 120.96864 
L 644.536368 121.94712 
L 645.343644 122.9256 
L 646.936794 120.96864 
L 647.722918 119.50092 
L 648.502236 120.4794 
L 658.758431 120.96864 
L 660.811994 119.50092 
L 664.783696 119.99016 
L 668.587528 119.50092 
L 669.20616 118.0332 
L 671.639028 117.54396 
L 674.590461 118.52244 
L 676.88385 117.54396 
L 677.448182 117.05472 
L 686.537088 116.56548 
L 688.049907 117.05472 
L 689.04451 117.54396 
L 690.516106 117.54396 
L 691.96403 119.01168 
L 701.063755 109.22688 
L 712.812129 106.78068 
L 715.432166 105.8022 
L 721.494578 107.26992 
L 730.667227 105.8022 
L 756.014969 107.75916 
L 761.264224 107.26992 
L 763.670484 103.84524 
L 767.05952 101.39904 
L 771.915203 96.0174 
L 772.111948 98.95284 
L 775.770638 96.50664 
L 800.525693 97.48512 
L 811.825425 106.29144 
L 836.830556 70.08768 
L 838.161255 54.432 
" clip-path="url(#p20f7339129)" style="fill: none; stroke: #8172b3; stroke-width: 3; stroke-linecap: round"/>
   </g>
   <g id="line2d_14">
    <path d="M 319.515359 165.48948 
L 345.409805 162.55404 
L 365.495097 160.10784 
L 381.905976 157.66164 
L 395.781177 157.1724 
L 407.800422 157.66164 
L 427.885714 157.1724 
L 436.464644 157.66164 
L 444.296593 157.66164 
L 464.381886 155.70468 
L 470.191039 155.70468 
L 480.792764 155.70468 
L 485.659389 155.70468 
L 490.276331 156.19392 
L 494.667965 156.68316 
L 498.855261 157.66164 
L 502.856392 158.64012 
L 510.361624 155.70468 
L 520.56241 154.7262 
L 523.721002 154.7262 
L 526.772502 155.21544 
L 529.723935 155.21544 
L 535.351432 155.70468 
L 540.647703 156.19392 
L 543.183381 155.21544 
L 545.64958 155.21544 
L 550.388076 156.19392 
L 552.666948 154.7262 
L 554.889546 154.7262 
L 561.245878 155.21544 
L 563.268674 154.7262 
L 565.247009 152.28 
L 567.182796 150.81228 
L 570.933782 151.30152 
L 572.75224 151.30152 
L 577.997062 150.32304 
L 579.679552 150.81228 
L 590.650932 150.32304 
L 592.114552 150.32304 
L 594.972272 149.8338 
L 597.742049 150.81228 
L 603.038319 151.79076 
L 612.778693 154.23696 
L 613.925341 151.79076 
L 618.371214 150.32304 
L 619.449198 149.8338 
L 620.514425 149.8338 
L 621.567193 150.81228 
L 622.60779 150.32304 
L 623.636494 149.8338 
L 625.65929 145.91988 
L 626.653893 139.07052 
L 627.637626 138.09204 
L 634.23822 133.19964 
L 635.142857 129.77496 
L 636.038493 129.28572 
L 636.925304 129.28572 
L 640.387678 126.83952 
L 642.899766 126.83952 
L 644.536368 127.818 
L 645.343644 128.79648 
L 646.936794 128.30724 
L 647.722918 126.35028 
L 648.502236 126.83952 
L 658.758431 128.30724 
L 660.811994 127.818 
L 664.783696 127.818 
L 668.587528 128.30724 
L 669.20616 127.32876 
L 671.639028 126.35028 
L 674.590461 127.818 
L 676.88385 127.818 
L 677.448182 127.818 
L 686.537088 126.35028 
L 688.049907 125.86104 
L 689.04451 127.32876 
L 690.516106 127.32876 
L 691.96403 127.818 
L 701.063755 115.587 
L 712.812129 114.11928 
L 715.432166 111.67308 
L 721.494578 113.63004 
L 730.667227 111.67308 
L 756.014969 112.16232 
L 761.264224 112.65156 
L 763.670484 110.6946 
L 767.05952 108.73764 
L 771.915203 100.42056 
L 772.111948 103.84524 
L 775.770638 102.37752 
L 800.525693 103.356 
L 811.825425 110.6946 
L 836.830556 70.08768 
L 838.161255 54.432 
" clip-path="url(#p20f7339129)" style="fill: none; stroke: #937860; stroke-width: 3; stroke-linecap: round"/>
   </g>
   <g id="line2d_15">
    <path d="M 319.515359 171.8496 
L 345.409805 168.91416 
L 365.495097 166.46796 
L 381.905976 164.511 
L 395.781177 164.02176 
L 407.800422 164.511 
L 427.885714 165.00024 
L 436.464644 165.48948 
L 444.296593 165.48948 
L 464.381886 164.511 
L 470.191039 164.511 
L 480.792764 165.00024 
L 485.659389 165.00024 
L 490.276331 165.48948 
L 494.667965 165.97872 
L 498.855261 167.44644 
L 502.856392 168.42492 
L 510.361624 166.46796 
L 520.56241 165.48948 
L 523.721002 165.97872 
L 526.772502 166.46796 
L 529.723935 166.46796 
L 535.351432 166.9572 
L 540.647703 167.44644 
L 543.183381 166.9572 
L 545.64958 166.9572 
L 550.388076 167.93568 
L 552.666948 166.46796 
L 554.889546 166.46796 
L 561.245878 166.9572 
L 563.268674 166.46796 
L 565.247009 163.53252 
L 567.182796 161.08632 
L 570.933782 161.57556 
L 572.75224 162.55404 
L 577.997062 161.57556 
L 579.679552 162.0648 
L 590.650932 162.0648 
L 592.114552 162.0648 
L 594.972272 162.55404 
L 597.742049 163.53252 
L 603.038319 163.53252 
L 612.778693 166.46796 
L 613.925341 164.511 
L 618.371214 163.04328 
L 619.449198 163.53252 
L 620.514425 163.53252 
L 621.567193 164.02176 
L 622.60779 161.08632 
L 623.636494 160.59708 
L 625.65929 154.23696 
L 626.653893 148.36608 
L 627.637626 144.9414 
L 634.23822 137.6028 
L 635.142857 132.7104 
L 636.038493 132.22116 
L 636.925304 132.7104 
L 640.387678 119.01168 
L 642.899766 119.01168 
L 644.536368 119.99016 
L 645.343644 120.96864 
L 646.936794 118.0332 
L 647.722918 117.05472 
L 648.502236 117.54396 
L 658.758431 118.52244 
L 660.811994 118.52244 
L 664.783696 119.01168 
L 668.587528 118.0332 
L 669.20616 117.05472 
L 671.639028 117.05472 
L 674.590461 118.0332 
L 676.88385 117.05472 
L 677.448182 117.05472 
L 686.537088 116.07624 
L 688.049907 116.07624 
L 689.04451 117.05472 
L 690.516106 117.05472 
L 691.96403 117.05472 
L 701.063755 109.22688 
L 712.812129 107.75916 
L 715.432166 106.78068 
L 721.494578 108.2484 
L 730.667227 106.29144 
L 756.014969 107.26992 
L 761.264224 107.26992 
L 763.670484 105.31296 
L 767.05952 102.86676 
L 771.915203 95.52816 
L 772.111948 98.4636 
L 775.770638 96.50664 
L 800.525693 96.99588 
L 811.825425 110.20536 
L 836.830556 70.08768 
L 838.161255 54.432 
" clip-path="url(#p20f7339129)" style="fill: none; stroke: #da8bc3; stroke-width: 3; stroke-linecap: round"/>
   </g>
   <g id="line2d_16">
    <path d="M 319.515359 173.31732 
L 345.409805 170.38188 
L 365.495097 167.93568 
L 381.905976 163.53252 
L 395.781177 162.0648 
L 407.800422 162.55404 
L 427.885714 162.0648 
L 436.464644 163.04328 
L 444.296593 162.55404 
L 464.381886 161.08632 
L 470.191039 161.08632 
L 480.792764 161.08632 
L 485.659389 161.08632 
L 490.276331 161.57556 
L 494.667965 161.57556 
L 498.855261 162.55404 
L 502.856392 163.53252 
L 510.361624 160.59708 
L 520.56241 159.6186 
L 523.721002 160.10784 
L 526.772502 160.59708 
L 529.723935 160.59708 
L 535.351432 161.08632 
L 540.647703 161.57556 
L 543.183381 160.59708 
L 545.64958 160.59708 
L 550.388076 161.57556 
L 552.666948 160.10784 
L 554.889546 160.10784 
L 561.245878 161.08632 
L 563.268674 160.59708 
L 565.247009 157.66164 
L 567.182796 155.70468 
L 570.933782 156.19392 
L 572.75224 156.19392 
L 577.997062 155.21544 
L 579.679552 155.70468 
L 590.650932 155.21544 
L 592.114552 155.21544 
L 594.972272 154.7262 
L 597.742049 155.70468 
L 603.038319 157.1724 
L 612.778693 159.12936 
L 613.925341 157.1724 
L 618.371214 155.21544 
L 619.449198 155.70468 
L 620.514425 156.19392 
L 621.567193 156.68316 
L 622.60779 155.70468 
L 623.636494 155.70468 
L 625.65929 151.30152 
L 626.653893 144.9414 
L 627.637626 142.00596 
L 634.23822 137.11356 
L 635.142857 133.19964 
L 636.038493 132.22116 
L 636.925304 132.7104 
L 640.387678 127.818 
L 642.899766 127.32876 
L 644.536368 128.30724 
L 645.343644 129.28572 
L 646.936794 129.28572 
L 647.722918 127.32876 
L 648.502236 128.79648 
L 658.758431 129.77496 
L 660.811994 127.32876 
L 664.783696 127.32876 
L 668.587528 128.30724 
L 669.20616 126.35028 
L 671.639028 124.88256 
L 674.590461 126.35028 
L 676.88385 125.3718 
L 677.448182 125.3718 
L 686.537088 124.88256 
L 688.049907 124.39332 
L 689.04451 125.3718 
L 690.516106 125.3718 
L 691.96403 126.83952 
L 701.063755 114.60852 
L 712.812129 111.67308 
L 715.432166 108.73764 
L 721.494578 110.6946 
L 730.667227 108.73764 
L 756.014969 110.6946 
L 761.264224 110.6946 
L 763.670484 107.75916 
L 767.05952 105.8022 
L 771.915203 99.93132 
L 772.111948 103.356 
L 775.770638 102.37752 
L 800.525693 103.84524 
L 811.825425 107.26992 
L 836.830556 70.08768 
L 838.161255 54.432 
" clip-path="url(#p20f7339129)" style="fill: none; stroke: #8c8c8c; stroke-width: 3; stroke-linecap: round"/>
   </g>
   <g id="line2d_17">
    <path d="M 319.515359 173.80656 
L 345.409805 172.82808 
L 365.495097 170.87112 
L 381.905976 171.36036 
L 395.781177 170.87112 
L 407.800422 170.87112 
L 427.885714 168.91416 
L 436.464644 169.89264 
L 444.296593 169.89264 
L 464.381886 165.97872 
L 470.191039 165.97872 
L 480.792764 165.97872 
L 485.659389 166.9572 
L 490.276331 167.44644 
L 494.667965 167.93568 
L 498.855261 168.91416 
L 502.856392 169.89264 
L 510.361624 168.91416 
L 520.56241 169.4034 
L 523.721002 169.89264 
L 526.772502 170.38188 
L 529.723935 170.87112 
L 535.351432 170.87112 
L 540.647703 171.36036 
L 543.183381 172.33884 
L 545.64958 172.33884 
L 550.388076 173.80656 
L 552.666948 173.31732 
L 554.889546 172.82808 
L 561.245878 173.31732 
L 563.268674 173.31732 
L 565.247009 174.2958 
L 567.182796 172.33884 
L 570.933782 172.82808 
L 572.75224 173.31732 
L 577.997062 172.33884 
L 579.679552 173.31732 
L 590.650932 173.31732 
L 592.114552 172.82808 
L 594.972272 173.80656 
L 597.742049 174.78504 
L 603.038319 174.78504 
L 612.778693 174.78504 
L 613.925341 174.78504 
L 618.371214 173.31732 
L 619.449198 173.31732 
L 620.514425 173.80656 
L 621.567193 174.78504 
L 622.60779 176.25276 
L 623.636494 175.27428 
L 625.65929 173.80656 
L 626.653893 165.97872 
L 627.637626 167.44644 
L 634.23822 168.42492 
L 635.142857 166.9572 
L 636.038493 167.93568 
L 636.925304 167.44644 
L 640.387678 169.89264 
L 642.899766 167.93568 
L 644.536368 169.4034 
L 645.343644 171.36036 
L 646.936794 171.36036 
L 647.722918 167.44644 
L 648.502236 168.42492 
L 658.758431 167.44644 
L 660.811994 169.4034 
L 664.783696 171.8496 
L 668.587528 172.33884 
L 669.20616 175.27428 
L 671.639028 176.742 
L 674.590461 180.65592 
L 676.88385 186.03756 
L 677.448182 187.01604 
L 686.537088 192.88692 
L 688.049907 194.35464 
L 689.04451 197.77932 
L 690.516106 200.71476 
L 691.96403 199.73628 
L 701.063755 193.37616 
L 712.812129 200.22552 
L 715.432166 199.24704 
L 721.494578 206.58564 
L 730.667227 210.01032 
L 756.014969 212.94576 
L 761.264224 217.83816 
L 763.670484 220.7736 
L 767.05952 219.79512 
L 771.915203 217.83816 
L 772.111948 226.64448 
L 775.770638 218.81664 
L 800.525693 215.8812 
L 811.825425 222.24132 
L 836.830556 178.20972 
L 838.161255 136.13508 
" clip-path="url(#p20f7339129)" style="fill: none; stroke-dasharray: 3,4.95; stroke-dashoffset: 0; stroke: #ccb974; stroke-width: 3"/>
   </g>
   <g id="patch_3">
    <path d="M 117 396.9 
L 117 54.432 
" style="fill: none; stroke: #cccccc; stroke-width: 1.25; stroke-linejoin: miter; stroke-linecap: square"/>
   </g>
   <g id="patch_4">
    <path d="M 842.4 396.9 
L 842.4 54.432 
" style="fill: none; stroke: #cccccc; stroke-width: 1.25; stroke-linejoin: miter; stroke-linecap: square"/>
   </g>
   <g id="patch_5">
    <path d="M 117 396.9 
L 842.4 396.9 
" style="fill: none; stroke: #cccccc; stroke-width: 1.25; stroke-linejoin: miter; stroke-linecap: square"/>
   </g>
   <g id="patch_6">
    <path d="M 117 54.432 
L 842.4 54.432 
" style="fill: none; stroke: #cccccc; stroke-width: 1.25; stroke-linejoin: miter; stroke-linecap: square"/>
   </g>
   <g id="legend_1">
    <g id="patch_7">
     <path d="M 128.2 404.0125 
L 262.1525 404.0125 
Q 265.3525 404.0125 265.3525 400.8125 
L 265.3525 65.632 
Q 265.3525 62.432 262.1525 62.432 
L 128.2 62.432 
Q 125 62.432 125 65.632 
L 125 400.8125 
Q 125 404.0125 128.2 404.0125 
z
" style="fill: #ffffff; opacity: 0.8; stroke: #cccccc; stroke-linejoin: miter"/>
    </g>
    <g id="line2d_18">
     <path d="M 131.4 86.0115 
L 147.4 86.0115 
L 163.4 86.0115 
" style="fill: none; stroke-dasharray: 4,6.6; stroke-dashoffset: 0; stroke: #4c72b0; stroke-width: 4"/>
    </g>
    <g id="text_11">
     <!-- Centroid -->
     <g style="fill: #262626" transform="translate(176.2 80.9895)scale(0.16 -0.16)">
      <defs>
       <path id="DejaVuSans-43" d="M 4122 4306 
L 4122 3641 
Q 3803 3938 3442 4084 
Q 3081 4231 2675 4231 
Q 1875 4231 1450 3742 
Q 1025 3253 1025 2328 
Q 1025 1406 1450 917 
Q 1875 428 2675 428 
Q 3081 428 3442 575 
Q 3803 722 4122 1019 
L 4122 359 
Q 3791 134 3420 21 
Q 3050 -91 2638 -91 
Q 1578 -91 968 557 
Q 359 1206 359 2328 
Q 359 3453 968 4101 
Q 1578 4750 2638 4750 
Q 3056 4750 3426 4639 
Q 3797 4528 4122 4306 
z
" transform="scale(0.015625)"/>
      </defs>
      <use xlink:href="#DejaVuSans-43"/>
      <use xlink:href="#DejaVuSans-65" x="69.824219"/>
      <use xlink:href="#DejaVuSans-6e" x="131.347656"/>
      <use xlink:href="#DejaVuSans-74" x="194.726562"/>
      <use xlink:href="#DejaVuSans-72" x="233.935547"/>
      <use xlink:href="#DejaVuSans-6f" x="272.798828"/>
      <use xlink:href="#DejaVuSans-69" x="333.980469"/>
      <use xlink:href="#DejaVuSans-64" x="361.763672"/>
     </g>
     <!-- Alifold -->
     <g style="fill: #262626" transform="translate(176.2 98.906)scale(0.16 -0.16)">
      <defs>
       <path id="DejaVuSans-41" d="M 2188 4044 
L 1331 1722 
L 3047 1722 
L 2188 4044 
z
M 1831 4666 
L 2547 4666 
L 4325 0 
L 3669 0 
L 3244 1197 
L 1141 1197 
L 716 0 
L 50 0 
L 1831 4666 
z
" transform="scale(0.015625)"/>
       <path id="DejaVuSans-6c" d="M 603 4863 
L 1178 4863 
L 1178 0 
L 603 0 
L 603 4863 
z
" transform="scale(0.015625)"/>
       <path id="DejaVuSans-66" d="M 2375 4863 
L 2375 4384 
L 1825 4384 
Q 1516 4384 1395 4259 
Q 1275 4134 1275 3809 
L 1275 3500 
L 2222 3500 
L 2222 3053 
L 1275 3053 
L 1275 0 
L 697 0 
L 697 3053 
L 147 3053 
L 147 3500 
L 697 3500 
L 697 3744 
Q 697 4328 969 4595 
Q 1241 4863 1831 4863 
L 2375 4863 
z
" transform="scale(0.015625)"/>
      </defs>
      <use xlink:href="#DejaVuSans-41"/>
      <use xlink:href="#DejaVuSans-6c" x="68.408203"/>
      <use xlink:href="#DejaVuSans-69" x="96.191406"/>
      <use xlink:href="#DejaVuSans-66" x="123.974609"/>
      <use xlink:href="#DejaVuSans-6f" x="159.179688"/>
      <use xlink:href="#DejaVuSans-6c" x="220.361328"/>
      <use xlink:href="#DejaVuSans-64" x="248.144531"/>
     </g>
    </g>
    <g id="line2d_19">
     <path d="M 131.4 116.791 
L 147.4 116.791 
L 163.4 116.791 
" style="fill: none; stroke-dasharray: 4,6.6; stroke-dashoffset: 0; stroke: #dd8452; stroke-width: 4"/>
    </g>
    <g id="text_12">
     <!-- RNAalifold -->
     <g style="fill: #262626" transform="translate(176.2 122.391)scale(0.16 -0.16)">
      <defs>
       <path id="DejaVuSans-52" d="M 2841 2188 
Q 3044 2119 3236 1894 
Q 3428 1669 3622 1275 
L 4263 0 
L 3584 0 
L 2988 1197 
Q 2756 1666 2539 1819 
Q 2322 1972 1947 1972 
L 1259 1972 
L 1259 0 
L 628 0 
L 628 4666 
L 2053 4666 
Q 2853 4666 3247 4331 
Q 3641 3997 3641 3322 
Q 3641 2881 3436 2590 
Q 3231 2300 2841 2188 
z
M 1259 4147 
L 1259 2491 
L 2053 2491 
Q 2509 2491 2742 2702 
Q 2975 2913 2975 3322 
Q 2975 3731 2742 3939 
Q 2509 4147 2053 4147 
L 1259 4147 
z
" transform="scale(0.015625)"/>
       <path id="DejaVuSans-4e" d="M 628 4666 
L 1478 4666 
L 3547 763 
L 3547 4666 
L 4159 4666 
L 4159 0 
L 3309 0 
L 1241 3903 
L 1241 0 
L 628 0 
L 628 4666 
z
" transform="scale(0.015625)"/>
      </defs>
      <use xlink:href="#DejaVuSans-52"/>
      <use xlink:href="#DejaVuSans-4e" x="69.482422"/>
      <use xlink:href="#DejaVuSans-41" x="144.287109"/>
      <use xlink:href="#DejaVuSans-61" x="212.695312"/>
      <use xlink:href="#DejaVuSans-6c" x="273.974609"/>
      <use xlink:href="#DejaVuSans-69" x="301.757812"/>
      <use xlink:href="#DejaVuSans-66" x="329.541016"/>
      <use xlink:href="#DejaVuSans-6f" x="364.746094"/>
      <use xlink:href="#DejaVuSans-6c" x="425.927734"/>
      <use xlink:href="#DejaVuSans-64" x="453.710938"/>
     </g>
    </g>
    <g id="line2d_20">
     <path d="M 131.4 150.898 
L 147.4 150.898 
L 163.4 150.898 
" style="fill: none; stroke-dasharray: 14.8,6.4; stroke-dashoffset: 0; stroke: #55a868; stroke-width: 4"/>
    </g>
    <g id="text_13">
     <!-- Rscape -->
     <g style="fill: #262626" transform="translate(176.2 145.876)scale(0.16 -0.16)">
      <use xlink:href="#DejaVuSans-52"/>
      <use xlink:href="#DejaVuSans-73" x="69.482422"/>
      <use xlink:href="#DejaVuSans-63" x="121.582031"/>
      <use xlink:href="#DejaVuSans-61" x="176.5625"/>
      <use xlink:href="#DejaVuSans-70" x="237.841797"/>
      <use xlink:href="#DejaVuSans-65" x="301.318359"/>
     </g>
     <!-- nested -->
     <g style="fill: #262626" transform="translate(176.2 163.7925)scale(0.16 -0.16)">
      <use xlink:href="#DejaVuSans-6e"/>
      <use xlink:href="#DejaVuSans-65" x="63.378906"/>
      <use xlink:href="#DejaVuSans-73" x="124.902344"/>
      <use xlink:href="#DejaVuSans-74" x="177.001953"/>
      <use xlink:href="#DejaVuSans-65" x="216.210938"/>
      <use xlink:href="#DejaVuSans-64" x="277.734375"/>
     </g>
    </g>
    <g id="line2d_21">
     <path d="M 131.4 192.2995 
L 147.4 192.2995 
L 163.4 192.2995 
" style="fill: none; stroke-dasharray: 14.8,6.4; stroke-dashoffset: 0; stroke: #c44e52; stroke-width: 4"/>
    </g>
    <g id="text_14">
     <!-- Rscape -->
     <g style="fill: #262626" transform="translate(176.2 187.2775)scale(0.16 -0.16)">
      <use xlink:href="#DejaVuSans-52"/>
      <use xlink:href="#DejaVuSans-73" x="69.482422"/>
      <use xlink:href="#DejaVuSans-63" x="121.582031"/>
      <use xlink:href="#DejaVuSans-61" x="176.5625"/>
      <use xlink:href="#DejaVuSans-70" x="237.841797"/>
      <use xlink:href="#DejaVuSans-65" x="301.318359"/>
     </g>
     <!-- total -->
     <g style="fill: #262626" transform="translate(176.2 205.194)scale(0.16 -0.16)">
      <use xlink:href="#DejaVuSans-74"/>
      <use xlink:href="#DejaVuSans-6f" x="39.208984"/>
      <use xlink:href="#DejaVuSans-74" x="100.390625"/>
      <use xlink:href="#DejaVuSans-61" x="139.599609"/>
      <use xlink:href="#DejaVuSans-6c" x="200.878906"/>
     </g>
    </g>
    <g id="line2d_22">
     <path d="M 131.4 233.701 
L 147.4 233.701 
L 163.4 233.701 
" style="fill: none; stroke: #8172b3; stroke-width: 4; stroke-linecap: round"/>
    </g>
    <g id="text_15">
     <!-- SQUARNA -->
     <g style="fill: #262626" transform="translate(176.2 228.679)scale(0.16 -0.16)">
      <defs>
       <path id="DejaVuSans-53" d="M 3425 4513 
L 3425 3897 
Q 3066 4069 2747 4153 
Q 2428 4238 2131 4238 
Q 1616 4238 1336 4038 
Q 1056 3838 1056 3469 
Q 1056 3159 1242 3001 
Q 1428 2844 1947 2747 
L 2328 2669 
Q 3034 2534 3370 2195 
Q 3706 1856 3706 1288 
Q 3706 609 3251 259 
Q 2797 -91 1919 -91 
Q 1588 -91 1214 -16 
Q 841 59 441 206 
L 441 856 
Q 825 641 1194 531 
Q 1563 422 1919 422 
Q 2459 422 2753 634 
Q 3047 847 3047 1241 
Q 3047 1584 2836 1778 
Q 2625 1972 2144 2069 
L 1759 2144 
Q 1053 2284 737 2584 
Q 422 2884 422 3419 
Q 422 4038 858 4394 
Q 1294 4750 2059 4750 
Q 2388 4750 2728 4690 
Q 3069 4631 3425 4513 
z
" transform="scale(0.015625)"/>
       <path id="DejaVuSans-51" d="M 2522 4238 
Q 1834 4238 1429 3725 
Q 1025 3213 1025 2328 
Q 1025 1447 1429 934 
Q 1834 422 2522 422 
Q 3209 422 3611 934 
Q 4013 1447 4013 2328 
Q 4013 3213 3611 3725 
Q 3209 4238 2522 4238 
z
M 3406 84 
L 4238 -825 
L 3475 -825 
L 2784 -78 
Q 2681 -84 2626 -87 
Q 2572 -91 2522 -91 
Q 1538 -91 948 567 
Q 359 1225 359 2328 
Q 359 3434 948 4092 
Q 1538 4750 2522 4750 
Q 3503 4750 4090 4092 
Q 4678 3434 4678 2328 
Q 4678 1516 4351 937 
Q 4025 359 3406 84 
z
" transform="scale(0.015625)"/>
       <path id="DejaVuSans-55" d="M 556 4666 
L 1191 4666 
L 1191 1831 
Q 1191 1081 1462 751 
Q 1734 422 2344 422 
Q 2950 422 3222 751 
Q 3494 1081 3494 1831 
L 3494 4666 
L 4128 4666 
L 4128 1753 
Q 4128 841 3676 375 
Q 3225 -91 2344 -91 
Q 1459 -91 1007 375 
Q 556 841 556 1753 
L 556 4666 
z
" transform="scale(0.015625)"/>
      </defs>
      <use xlink:href="#DejaVuSans-53"/>
      <use xlink:href="#DejaVuSans-51" x="63.476562"/>
      <use xlink:href="#DejaVuSans-55" x="142.1875"/>
      <use xlink:href="#DejaVuSans-41" x="215.380859"/>
      <use xlink:href="#DejaVuSans-52" x="283.789062"/>
      <use xlink:href="#DejaVuSans-4e" x="353.271484"/>
      <use xlink:href="#DejaVuSans-41" x="428.076172"/>
     </g>
     <!-- step1 -->
     <g style="fill: #262626" transform="translate(176.2 246.5955)scale(0.16 -0.16)">
      <use xlink:href="#DejaVuSans-73"/>
      <use xlink:href="#DejaVuSans-74" x="52.099609"/>
      <use xlink:href="#DejaVuSans-65" x="91.308594"/>
      <use xlink:href="#DejaVuSans-70" x="152.832031"/>
      <use xlink:href="#DejaVuSans-31" x="216.308594"/>
     </g>
    </g>
    <g id="line2d_23">
     <path d="M 131.4 275.1025 
L 147.4 275.1025 
L 163.4 275.1025 
" style="fill: none; stroke: #937860; stroke-width: 4; stroke-linecap: round"/>
    </g>
    <g id="text_16">
     <!-- SQUARNA -->
     <g style="fill: #262626" transform="translate(176.2 270.0805)scale(0.16 -0.16)">
      <use xlink:href="#DejaVuSans-53"/>
      <use xlink:href="#DejaVuSans-51" x="63.476562"/>
      <use xlink:href="#DejaVuSans-55" x="142.1875"/>
      <use xlink:href="#DejaVuSans-41" x="215.380859"/>
      <use xlink:href="#DejaVuSans-52" x="283.789062"/>
      <use xlink:href="#DejaVuSans-4e" x="353.271484"/>
      <use xlink:href="#DejaVuSans-41" x="428.076172"/>
     </g>
     <!-- step2 -->
     <g style="fill: #262626" transform="translate(176.2 287.997)scale(0.16 -0.16)">
      <use xlink:href="#DejaVuSans-73"/>
      <use xlink:href="#DejaVuSans-74" x="52.099609"/>
      <use xlink:href="#DejaVuSans-65" x="91.308594"/>
      <use xlink:href="#DejaVuSans-70" x="152.832031"/>
      <use xlink:href="#DejaVuSans-32" x="216.308594"/>
     </g>
    </g>
    <g id="line2d_24">
     <path d="M 131.4 316.504 
L 147.4 316.504 
L 163.4 316.504 
" style="fill: none; stroke: #da8bc3; stroke-width: 4; stroke-linecap: round"/>
    </g>
    <g id="text_17">
     <!-- SQUARNA -->
     <g style="fill: #262626" transform="translate(176.2 311.482)scale(0.16 -0.16)">
      <use xlink:href="#DejaVuSans-53"/>
      <use xlink:href="#DejaVuSans-51" x="63.476562"/>
      <use xlink:href="#DejaVuSans-55" x="142.1875"/>
      <use xlink:href="#DejaVuSans-41" x="215.380859"/>
      <use xlink:href="#DejaVuSans-52" x="283.789062"/>
      <use xlink:href="#DejaVuSans-4e" x="353.271484"/>
      <use xlink:href="#DejaVuSans-41" x="428.076172"/>
     </g>
     <!-- step3i -->
     <g style="fill: #262626" transform="translate(176.2 329.3985)scale(0.16 -0.16)">
      <use xlink:href="#DejaVuSans-73"/>
      <use xlink:href="#DejaVuSans-74" x="52.099609"/>
      <use xlink:href="#DejaVuSans-65" x="91.308594"/>
      <use xlink:href="#DejaVuSans-70" x="152.832031"/>
      <use xlink:href="#DejaVuSans-33" x="216.308594"/>
      <use xlink:href="#DejaVuSans-69" x="279.931641"/>
     </g>
    </g>
    <g id="line2d_25">
     <path d="M 131.4 357.9055 
L 147.4 357.9055 
L 163.4 357.9055 
" style="fill: none; stroke: #8c8c8c; stroke-width: 4; stroke-linecap: round"/>
    </g>
    <g id="text_18">
     <!-- SQUARNA -->
     <g style="fill: #262626" transform="translate(176.2 352.8835)scale(0.16 -0.16)">
      <use xlink:href="#DejaVuSans-53"/>
      <use xlink:href="#DejaVuSans-51" x="63.476562"/>
      <use xlink:href="#DejaVuSans-55" x="142.1875"/>
      <use xlink:href="#DejaVuSans-41" x="215.380859"/>
      <use xlink:href="#DejaVuSans-52" x="283.789062"/>
      <use xlink:href="#DejaVuSans-4e" x="353.271484"/>
      <use xlink:href="#DejaVuSans-41" x="428.076172"/>
     </g>
     <!-- step3u -->
     <g style="fill: #262626" transform="translate(176.2 370.8)scale(0.16 -0.16)">
      <defs>
       <path id="DejaVuSans-75" d="M 544 1381 
L 544 3500 
L 1119 3500 
L 1119 1403 
Q 1119 906 1312 657 
Q 1506 409 1894 409 
Q 2359 409 2629 706 
Q 2900 1003 2900 1516 
L 2900 3500 
L 3475 3500 
L 3475 0 
L 2900 0 
L 2900 538 
Q 2691 219 2414 64 
Q 2138 -91 1772 -91 
Q 1169 -91 856 284 
Q 544 659 544 1381 
z
M 1991 3584 
L 1991 3584 
z
" transform="scale(0.015625)"/>
      </defs>
      <use xlink:href="#DejaVuSans-73"/>
      <use xlink:href="#DejaVuSans-74" x="52.099609"/>
      <use xlink:href="#DejaVuSans-65" x="91.308594"/>
      <use xlink:href="#DejaVuSans-70" x="152.832031"/>
      <use xlink:href="#DejaVuSans-33" x="216.308594"/>
      <use xlink:href="#DejaVuSans-75" x="279.931641"/>
     </g>
    </g>
    <g id="line2d_26">
     <path d="M 131.4 388.685 
L 147.4 388.685 
L 163.4 388.685 
" style="fill: none; stroke-dasharray: 4,6.6; stroke-dashoffset: 0; stroke: #ccb974; stroke-width: 4"/>
    </g>
    <g id="text_19">
     <!-- IPknot -->
     <g style="fill: #262626" transform="translate(176.2 394.285)scale(0.16 -0.16)">
      <defs>
       <path id="DejaVuSans-49" d="M 628 4666 
L 1259 4666 
L 1259 0 
L 628 0 
L 628 4666 
z
" transform="scale(0.015625)"/>
       <path id="DejaVuSans-50" d="M 1259 4147 
L 1259 2394 
L 2053 2394 
Q 2494 2394 2734 2622 
Q 2975 2850 2975 3272 
Q 2975 3691 2734 3919 
Q 2494 4147 2053 4147 
L 1259 4147 
z
M 628 4666 
L 2053 4666 
Q 2838 4666 3239 4311 
Q 3641 3956 3641 3272 
Q 3641 2581 3239 2228 
Q 2838 1875 2053 1875 
L 1259 1875 
L 1259 0 
L 628 0 
L 628 4666 
z
" transform="scale(0.015625)"/>
       <path id="DejaVuSans-6b" d="M 581 4863 
L 1159 4863 
L 1159 1991 
L 2875 3500 
L 3609 3500 
L 1753 1863 
L 3688 0 
L 2938 0 
L 1159 1709 
L 1159 0 
L 581 0 
L 581 4863 
z
" transform="scale(0.015625)"/>
      </defs>
      <use xlink:href="#DejaVuSans-49"/>
      <use xlink:href="#DejaVuSans-50" x="29.492188"/>
      <use xlink:href="#DejaVuSans-6b" x="89.794922"/>
      <use xlink:href="#DejaVuSans-6e" x="147.705078"/>
      <use xlink:href="#DejaVuSans-6f" x="211.083984"/>
      <use xlink:href="#DejaVuSans-74" x="272.265625"/>
     </g>
    </g>
   </g>
  </g>
  <g id="text_20">
   <!-- RfamPDB -->
   <g style="fill: #262626" transform="translate(420.775312 22.749188)scale(0.18 -0.18)">
    <defs>
     <path id="DejaVuSans-Bold-52" d="M 2297 2597 
Q 2675 2597 2839 2737 
Q 3003 2878 3003 3200 
Q 3003 3519 2839 3656 
Q 2675 3794 2297 3794 
L 1791 3794 
L 1791 2597 
L 2297 2597 
z
M 1791 1766 
L 1791 0 
L 588 0 
L 588 4666 
L 2425 4666 
Q 3347 4666 3776 4356 
Q 4206 4047 4206 3378 
Q 4206 2916 3982 2619 
Q 3759 2322 3309 2181 
Q 3556 2125 3751 1926 
Q 3947 1728 4147 1325 
L 4800 0 
L 3519 0 
L 2950 1159 
Q 2778 1509 2601 1637 
Q 2425 1766 2131 1766 
L 1791 1766 
z
" transform="scale(0.015625)"/>
     <path id="DejaVuSans-Bold-66" d="M 2841 4863 
L 2841 4128 
L 2222 4128 
Q 1984 4128 1890 4042 
Q 1797 3956 1797 3744 
L 1797 3500 
L 2753 3500 
L 2753 2700 
L 1797 2700 
L 1797 0 
L 678 0 
L 678 2700 
L 122 2700 
L 122 3500 
L 678 3500 
L 678 3744 
Q 678 4316 997 4589 
Q 1316 4863 1984 4863 
L 2841 4863 
z
" transform="scale(0.015625)"/>
     <path id="DejaVuSans-Bold-61" d="M 2106 1575 
Q 1756 1575 1579 1456 
Q 1403 1338 1403 1106 
Q 1403 894 1545 773 
Q 1688 653 1941 653 
Q 2256 653 2472 879 
Q 2688 1106 2688 1447 
L 2688 1575 
L 2106 1575 
z
M 3816 1997 
L 3816 0 
L 2688 0 
L 2688 519 
Q 2463 200 2181 54 
Q 1900 -91 1497 -91 
Q 953 -91 614 226 
Q 275 544 275 1050 
Q 275 1666 698 1953 
Q 1122 2241 2028 2241 
L 2688 2241 
L 2688 2328 
Q 2688 2594 2478 2717 
Q 2269 2841 1825 2841 
Q 1466 2841 1156 2769 
Q 847 2697 581 2553 
L 581 3406 
Q 941 3494 1303 3539 
Q 1666 3584 2028 3584 
Q 2975 3584 3395 3211 
Q 3816 2838 3816 1997 
z
" transform="scale(0.015625)"/>
     <path id="DejaVuSans-Bold-6d" d="M 3781 2919 
Q 3994 3244 4286 3414 
Q 4578 3584 4928 3584 
Q 5531 3584 5847 3212 
Q 6163 2841 6163 2131 
L 6163 0 
L 5038 0 
L 5038 1825 
Q 5041 1866 5042 1909 
Q 5044 1953 5044 2034 
Q 5044 2406 4934 2573 
Q 4825 2741 4581 2741 
Q 4263 2741 4089 2478 
Q 3916 2216 3909 1719 
L 3909 0 
L 2784 0 
L 2784 1825 
Q 2784 2406 2684 2573 
Q 2584 2741 2328 2741 
Q 2006 2741 1831 2477 
Q 1656 2213 1656 1722 
L 1656 0 
L 531 0 
L 531 3500 
L 1656 3500 
L 1656 2988 
Q 1863 3284 2130 3434 
Q 2397 3584 2719 3584 
Q 3081 3584 3359 3409 
Q 3638 3234 3781 2919 
z
" transform="scale(0.015625)"/>
     <path id="DejaVuSans-Bold-50" d="M 588 4666 
L 2584 4666 
Q 3475 4666 3951 4270 
Q 4428 3875 4428 3144 
Q 4428 2409 3951 2014 
Q 3475 1619 2584 1619 
L 1791 1619 
L 1791 0 
L 588 0 
L 588 4666 
z
M 1791 3794 
L 1791 2491 
L 2456 2491 
Q 2806 2491 2997 2661 
Q 3188 2831 3188 3144 
Q 3188 3456 2997 3625 
Q 2806 3794 2456 3794 
L 1791 3794 
z
" transform="scale(0.015625)"/>
     <path id="DejaVuSans-Bold-44" d="M 1791 3756 
L 1791 909 
L 2222 909 
Q 2959 909 3348 1275 
Q 3738 1641 3738 2338 
Q 3738 3031 3350 3393 
Q 2963 3756 2222 3756 
L 1791 3756 
z
M 588 4666 
L 1856 4666 
Q 2919 4666 3439 4514 
Q 3959 4363 4331 4000 
Q 4659 3684 4818 3271 
Q 4978 2859 4978 2338 
Q 4978 1809 4818 1395 
Q 4659 981 4331 666 
Q 3956 303 3431 151 
Q 2906 0 1856 0 
L 588 0 
L 588 4666 
z
" transform="scale(0.015625)"/>
     <path id="DejaVuSans-Bold-42" d="M 2456 2859 
Q 2741 2859 2887 2984 
Q 3034 3109 3034 3353 
Q 3034 3594 2887 3720 
Q 2741 3847 2456 3847 
L 1791 3847 
L 1791 2859 
L 2456 2859 
z
M 2497 819 
Q 2859 819 3042 972 
Q 3225 1125 3225 1434 
Q 3225 1738 3044 1889 
Q 2863 2041 2497 2041 
L 1791 2041 
L 1791 819 
L 2497 819 
z
M 3616 2497 
Q 4003 2384 4215 2081 
Q 4428 1778 4428 1338 
Q 4428 663 3972 331 
Q 3516 0 2584 0 
L 588 0 
L 588 4666 
L 2394 4666 
Q 3366 4666 3802 4372 
Q 4238 4078 4238 3431 
Q 4238 3091 4078 2852 
Q 3919 2613 3616 2497 
z
" transform="scale(0.015625)"/>
    </defs>
    <use xlink:href="#DejaVuSans-Bold-52"/>
    <use xlink:href="#DejaVuSans-Bold-66" x="77.001953"/>
    <use xlink:href="#DejaVuSans-Bold-61" x="120.507812"/>
    <use xlink:href="#DejaVuSans-Bold-6d" x="187.988281"/>
    <use xlink:href="#DejaVuSans-Bold-50" x="292.1875"/>
    <use xlink:href="#DejaVuSans-Bold-44" x="365.478516"/>
    <use xlink:href="#DejaVuSans-Bold-42" x="448.486328"/>
   </g>
  </g>
 </g>
 <defs>
  <clipPath id="p20f7339129">
   <rect x="117" y="54.432" width="725.4" height="342.468"/>
  </clipPath>
 </defs>
</svg>
