<?xml version="1.0" encoding="utf-8" standalone="no"?>
<!DOCTYPE svg PUBLIC "-//W3C//DTD SVG 1.1//EN"
  "http://www.w3.org/Graphics/SVG/1.1/DTD/svg11.dtd">
<svg xmlns:xlink="http://www.w3.org/1999/xlink" width="936pt" height="453.6pt" viewBox="0 0 936 453.6" xmlns="http://www.w3.org/2000/svg" version="1.1">
 <metadata>
  <rdf:RDF xmlns:dc="http://purl.org/dc/elements/1.1/" xmlns:cc="http://creativecommons.org/ns#" xmlns:rdf="http://www.w3.org/1999/02/22-rdf-syntax-ns#">
   <cc:Work>
    <dc:type rdf:resource="http://purl.org/dc/dcmitype/StillImage"/>
    <dc:date>2023-08-24T16:01:22.237111</dc:date>
    <dc:format>image/svg+xml</dc:format>
    <dc:creator>
     <cc:Agent>
      <dc:title>Matplotlib v3.5.1, https://matplotlib.org/</dc:title>
     </cc:Agent>
    </dc:creator>
   </cc:Work>
  </rdf:RDF>
 </metadata>
 <defs>
  <style type="text/css">*{stroke-linejoin: round; stroke-linecap: butt}</style>
 </defs>
 <g id="figure_1">
  <g id="patch_1">
   <path d="M 0 453.6 
L 936 453.6 
L 936 0 
L 0 0 
z
" style="fill: #ffffff"/>
  </g>
  <g id="axes_1">
   <g id="patch_2">
    <path d="M 117 396.9 
L 842.4 396.9 
L 842.4 54.432 
L 117 54.432 
z
" style="fill: #ffffff"/>
   </g>
   <g id="matplotlib.axis_1">
    <g id="xtick_1">
     <g id="line2d_1">
      <path d="M 220.628571 396.9 
L 220.628571 54.432 
" clip-path="url(#p00b380e12c)" style="fill: none; stroke: #cccccc; stroke-linecap: round"/>
     </g>
     <g id="text_1">
      <!-- $\mathdefault{10^{0}}$ -->
      <g style="fill: #262626" transform="translate(208.308571 417.037812)scale(0.14 -0.14)">
       <defs>
        <path id="DejaVuSans-31" d="M 794 531 
L 1825 531 
L 1825 4091 
L 703 3866 
L 703 4441 
L 1819 4666 
L 2450 4666 
L 2450 531 
L 3481 531 
L 3481 0 
L 794 0 
L 794 531 
z
" transform="scale(0.015625)"/>
        <path id="DejaVuSans-30" d="M 2034 4250 
Q 1547 4250 1301 3770 
Q 1056 3291 1056 2328 
Q 1056 1369 1301 889 
Q 1547 409 2034 409 
Q 2525 409 2770 889 
Q 3016 1369 3016 2328 
Q 3016 3291 2770 3770 
Q 2525 4250 2034 4250 
z
M 2034 4750 
Q 2819 4750 3233 4129 
Q 3647 3509 3647 2328 
Q 3647 1150 3233 529 
Q 2819 -91 2034 -91 
Q 1250 -91 836 529 
Q 422 1150 422 2328 
Q 422 3509 836 4129 
Q 1250 4750 2034 4750 
z
" transform="scale(0.015625)"/>
       </defs>
       <use xlink:href="#DejaVuSans-31" transform="translate(0 0.765625)"/>
       <use xlink:href="#DejaVuSans-30" transform="translate(63.623047 0.765625)"/>
       <use xlink:href="#DejaVuSans-30" transform="translate(128.203125 39.046875)scale(0.7)"/>
      </g>
     </g>
    </g>
    <g id="xtick_2">
     <g id="line2d_2">
      <path d="M 427.885714 396.9 
L 427.885714 54.432 
" clip-path="url(#p00b380e12c)" style="fill: none; stroke: #cccccc; stroke-linecap: round"/>
     </g>
     <g id="text_2">
      <!-- $\mathdefault{10^{1}}$ -->
      <g style="fill: #262626" transform="translate(415.565714 417.037812)scale(0.14 -0.14)">
       <use xlink:href="#DejaVuSans-31" transform="translate(0 0.684375)"/>
       <use xlink:href="#DejaVuSans-30" transform="translate(63.623047 0.684375)"/>
       <use xlink:href="#DejaVuSans-31" transform="translate(128.203125 38.965625)scale(0.7)"/>
      </g>
     </g>
    </g>
    <g id="xtick_3">
     <g id="line2d_3">
      <path d="M 635.142857 396.9 
L 635.142857 54.432 
" clip-path="url(#p00b380e12c)" style="fill: none; stroke: #cccccc; stroke-linecap: round"/>
     </g>
     <g id="text_3">
      <!-- $\mathdefault{10^{2}}$ -->
      <g style="fill: #262626" transform="translate(622.822857 417.037812)scale(0.14 -0.14)">
       <defs>
        <path id="DejaVuSans-32" d="M 1228 531 
L 3431 531 
L 3431 0 
L 469 0 
L 469 531 
Q 828 903 1448 1529 
Q 2069 2156 2228 2338 
Q 2531 2678 2651 2914 
Q 2772 3150 2772 3378 
Q 2772 3750 2511 3984 
Q 2250 4219 1831 4219 
Q 1534 4219 1204 4116 
Q 875 4013 500 3803 
L 500 4441 
Q 881 4594 1212 4672 
Q 1544 4750 1819 4750 
Q 2544 4750 2975 4387 
Q 3406 4025 3406 3419 
Q 3406 3131 3298 2873 
Q 3191 2616 2906 2266 
Q 2828 2175 2409 1742 
Q 1991 1309 1228 531 
z
" transform="scale(0.015625)"/>
       </defs>
       <use xlink:href="#DejaVuSans-31" transform="translate(0 0.765625)"/>
       <use xlink:href="#DejaVuSans-30" transform="translate(63.623047 0.765625)"/>
       <use xlink:href="#DejaVuSans-32" transform="translate(128.203125 39.046875)scale(0.7)"/>
      </g>
     </g>
    </g>
    <g id="xtick_4">
     <g id="line2d_4">
      <path d="M 842.4 396.9 
L 842.4 54.432 
" clip-path="url(#p00b380e12c)" style="fill: none; stroke: #cccccc; stroke-linecap: round"/>
     </g>
     <g id="text_4">
      <!-- $\mathdefault{10^{3}}$ -->
      <g style="fill: #262626" transform="translate(830.08 417.037812)scale(0.14 -0.14)">
       <defs>
        <path id="DejaVuSans-33" d="M 2597 2516 
Q 3050 2419 3304 2112 
Q 3559 1806 3559 1356 
Q 3559 666 3084 287 
Q 2609 -91 1734 -91 
Q 1441 -91 1130 -33 
Q 819 25 488 141 
L 488 750 
Q 750 597 1062 519 
Q 1375 441 1716 441 
Q 2309 441 2620 675 
Q 2931 909 2931 1356 
Q 2931 1769 2642 2001 
Q 2353 2234 1838 2234 
L 1294 2234 
L 1294 2753 
L 1863 2753 
Q 2328 2753 2575 2939 
Q 2822 3125 2822 3475 
Q 2822 3834 2567 4026 
Q 2313 4219 1838 4219 
Q 1578 4219 1281 4162 
Q 984 4106 628 3988 
L 628 4550 
Q 988 4650 1302 4700 
Q 1616 4750 1894 4750 
Q 2613 4750 3031 4423 
Q 3450 4097 3450 3541 
Q 3450 3153 3228 2886 
Q 3006 2619 2597 2516 
z
" transform="scale(0.015625)"/>
       </defs>
       <use xlink:href="#DejaVuSans-31" transform="translate(0 0.765625)"/>
       <use xlink:href="#DejaVuSans-30" transform="translate(63.623047 0.765625)"/>
       <use xlink:href="#DejaVuSans-33" transform="translate(128.203125 39.046875)scale(0.7)"/>
      </g>
     </g>
    </g>
    <g id="xtick_5"/>
    <g id="xtick_6"/>
    <g id="xtick_7"/>
    <g id="xtick_8"/>
    <g id="xtick_9"/>
    <g id="xtick_10"/>
    <g id="xtick_11"/>
    <g id="xtick_12"/>
    <g id="xtick_13"/>
    <g id="xtick_14"/>
    <g id="xtick_15"/>
    <g id="xtick_16"/>
    <g id="xtick_17"/>
    <g id="xtick_18"/>
    <g id="xtick_19"/>
    <g id="xtick_20"/>
    <g id="xtick_21"/>
    <g id="xtick_22"/>
    <g id="xtick_23"/>
    <g id="xtick_24"/>
    <g id="xtick_25"/>
    <g id="xtick_26"/>
    <g id="xtick_27"/>
    <g id="xtick_28"/>
    <g id="xtick_29"/>
    <g id="xtick_30"/>
    <g id="xtick_31"/>
    <g id="xtick_32"/>
    <g id="xtick_33"/>
    <g id="xtick_34"/>
    <g id="text_5">
     <!-- Depth ≥ X -->
     <g style="fill: #262626" transform="translate(427.654687 439.14625)scale(0.2 -0.2)">
      <defs>
       <path id="DejaVuSans-44" d="M 1259 4147 
L 1259 519 
L 2022 519 
Q 2988 519 3436 956 
Q 3884 1394 3884 2338 
Q 3884 3275 3436 3711 
Q 2988 4147 2022 4147 
L 1259 4147 
z
M 628 4666 
L 1925 4666 
Q 3281 4666 3915 4102 
Q 4550 3538 4550 2338 
Q 4550 1131 3912 565 
Q 3275 0 1925 0 
L 628 0 
L 628 4666 
z
" transform="scale(0.015625)"/>
       <path id="DejaVuSans-65" d="M 3597 1894 
L 3597 1613 
L 953 1613 
Q 991 1019 1311 708 
Q 1631 397 2203 397 
Q 2534 397 2845 478 
Q 3156 559 3463 722 
L 3463 178 
Q 3153 47 2828 -22 
Q 2503 -91 2169 -91 
Q 1331 -91 842 396 
Q 353 884 353 1716 
Q 353 2575 817 3079 
Q 1281 3584 2069 3584 
Q 2775 3584 3186 3129 
Q 3597 2675 3597 1894 
z
M 3022 2063 
Q 3016 2534 2758 2815 
Q 2500 3097 2075 3097 
Q 1594 3097 1305 2825 
Q 1016 2553 972 2059 
L 3022 2063 
z
" transform="scale(0.015625)"/>
       <path id="DejaVuSans-70" d="M 1159 525 
L 1159 -1331 
L 581 -1331 
L 581 3500 
L 1159 3500 
L 1159 2969 
Q 1341 3281 1617 3432 
Q 1894 3584 2278 3584 
Q 2916 3584 3314 3078 
Q 3713 2572 3713 1747 
Q 3713 922 3314 415 
Q 2916 -91 2278 -91 
Q 1894 -91 1617 61 
Q 1341 213 1159 525 
z
M 3116 1747 
Q 3116 2381 2855 2742 
Q 2594 3103 2138 3103 
Q 1681 3103 1420 2742 
Q 1159 2381 1159 1747 
Q 1159 1113 1420 752 
Q 1681 391 2138 391 
Q 2594 391 2855 752 
Q 3116 1113 3116 1747 
z
" transform="scale(0.015625)"/>
       <path id="DejaVuSans-74" d="M 1172 4494 
L 1172 3500 
L 2356 3500 
L 2356 3053 
L 1172 3053 
L 1172 1153 
Q 1172 725 1289 603 
Q 1406 481 1766 481 
L 2356 481 
L 2356 0 
L 1766 0 
Q 1100 0 847 248 
Q 594 497 594 1153 
L 594 3053 
L 172 3053 
L 172 3500 
L 594 3500 
L 594 4494 
L 1172 4494 
z
" transform="scale(0.015625)"/>
       <path id="DejaVuSans-68" d="M 3513 2113 
L 3513 0 
L 2938 0 
L 2938 2094 
Q 2938 2591 2744 2837 
Q 2550 3084 2163 3084 
Q 1697 3084 1428 2787 
Q 1159 2491 1159 1978 
L 1159 0 
L 581 0 
L 581 4863 
L 1159 4863 
L 1159 2956 
Q 1366 3272 1645 3428 
Q 1925 3584 2291 3584 
Q 2894 3584 3203 3211 
Q 3513 2838 3513 2113 
z
" transform="scale(0.015625)"/>
       <path id="DejaVuSans-20" transform="scale(0.015625)"/>
       <path id="DejaVuSans-2265" d="M 678 3175 
L 678 3725 
L 4684 2578 
L 4684 2047 
L 678 897 
L 678 1453 
L 3681 2309 
L 678 3175 
z
M 4684 531 
L 4684 0 
L 678 0 
L 678 531 
L 4684 531 
z
" transform="scale(0.015625)"/>
       <path id="DejaVuSans-58" d="M 403 4666 
L 1081 4666 
L 2241 2931 
L 3406 4666 
L 4084 4666 
L 2584 2425 
L 4184 0 
L 3506 0 
L 2194 1984 
L 872 0 
L 191 0 
L 1856 2491 
L 403 4666 
z
" transform="scale(0.015625)"/>
      </defs>
      <use xlink:href="#DejaVuSans-44"/>
      <use xlink:href="#DejaVuSans-65" x="77.001953"/>
      <use xlink:href="#DejaVuSans-70" x="138.525391"/>
      <use xlink:href="#DejaVuSans-74" x="202.001953"/>
      <use xlink:href="#DejaVuSans-68" x="241.210938"/>
      <use xlink:href="#DejaVuSans-20" x="304.589844"/>
      <use xlink:href="#DejaVuSans-2265" x="336.376953"/>
      <use xlink:href="#DejaVuSans-20" x="420.166016"/>
      <use xlink:href="#DejaVuSans-58" x="451.953125"/>
     </g>
    </g>
   </g>
   <g id="matplotlib.axis_2">
    <g id="ytick_1">
     <g id="line2d_5">
      <path d="M 117 347.976 
L 842.4 347.976 
" clip-path="url(#p00b380e12c)" style="fill: none; stroke: #cccccc; stroke-linecap: round"/>
     </g>
     <g id="text_6">
      <!-- 0.4 -->
      <g style="fill: #262626" transform="translate(85.235625 353.294906)scale(0.14 -0.14)">
       <defs>
        <path id="DejaVuSans-2e" d="M 684 794 
L 1344 794 
L 1344 0 
L 684 0 
L 684 794 
z
" transform="scale(0.015625)"/>
        <path id="DejaVuSans-34" d="M 2419 4116 
L 825 1625 
L 2419 1625 
L 2419 4116 
z
M 2253 4666 
L 3047 4666 
L 3047 1625 
L 3713 1625 
L 3713 1100 
L 3047 1100 
L 3047 0 
L 2419 0 
L 2419 1100 
L 313 1100 
L 313 1709 
L 2253 4666 
z
" transform="scale(0.015625)"/>
       </defs>
       <use xlink:href="#DejaVuSans-30"/>
       <use xlink:href="#DejaVuSans-2e" x="63.623047"/>
       <use xlink:href="#DejaVuSans-34" x="95.410156"/>
      </g>
     </g>
    </g>
    <g id="ytick_2">
     <g id="line2d_6">
      <path d="M 117 250.128 
L 842.4 250.128 
" clip-path="url(#p00b380e12c)" style="fill: none; stroke: #cccccc; stroke-linecap: round"/>
     </g>
     <g id="text_7">
      <!-- 0.6 -->
      <g style="fill: #262626" transform="translate(85.235625 255.446906)scale(0.14 -0.14)">
       <defs>
        <path id="DejaVuSans-36" d="M 2113 2584 
Q 1688 2584 1439 2293 
Q 1191 2003 1191 1497 
Q 1191 994 1439 701 
Q 1688 409 2113 409 
Q 2538 409 2786 701 
Q 3034 994 3034 1497 
Q 3034 2003 2786 2293 
Q 2538 2584 2113 2584 
z
M 3366 4563 
L 3366 3988 
Q 3128 4100 2886 4159 
Q 2644 4219 2406 4219 
Q 1781 4219 1451 3797 
Q 1122 3375 1075 2522 
Q 1259 2794 1537 2939 
Q 1816 3084 2150 3084 
Q 2853 3084 3261 2657 
Q 3669 2231 3669 1497 
Q 3669 778 3244 343 
Q 2819 -91 2113 -91 
Q 1303 -91 875 529 
Q 447 1150 447 2328 
Q 447 3434 972 4092 
Q 1497 4750 2381 4750 
Q 2619 4750 2861 4703 
Q 3103 4656 3366 4563 
z
" transform="scale(0.015625)"/>
       </defs>
       <use xlink:href="#DejaVuSans-30"/>
       <use xlink:href="#DejaVuSans-2e" x="63.623047"/>
       <use xlink:href="#DejaVuSans-36" x="95.410156"/>
      </g>
     </g>
    </g>
    <g id="ytick_3">
     <g id="line2d_7">
      <path d="M 117 152.28 
L 842.4 152.28 
" clip-path="url(#p00b380e12c)" style="fill: none; stroke: #cccccc; stroke-linecap: round"/>
     </g>
     <g id="text_8">
      <!-- 0.8 -->
      <g style="fill: #262626" transform="translate(85.235625 157.598906)scale(0.14 -0.14)">
       <defs>
        <path id="DejaVuSans-38" d="M 2034 2216 
Q 1584 2216 1326 1975 
Q 1069 1734 1069 1313 
Q 1069 891 1326 650 
Q 1584 409 2034 409 
Q 2484 409 2743 651 
Q 3003 894 3003 1313 
Q 3003 1734 2745 1975 
Q 2488 2216 2034 2216 
z
M 1403 2484 
Q 997 2584 770 2862 
Q 544 3141 544 3541 
Q 544 4100 942 4425 
Q 1341 4750 2034 4750 
Q 2731 4750 3128 4425 
Q 3525 4100 3525 3541 
Q 3525 3141 3298 2862 
Q 3072 2584 2669 2484 
Q 3125 2378 3379 2068 
Q 3634 1759 3634 1313 
Q 3634 634 3220 271 
Q 2806 -91 2034 -91 
Q 1263 -91 848 271 
Q 434 634 434 1313 
Q 434 1759 690 2068 
Q 947 2378 1403 2484 
z
M 1172 3481 
Q 1172 3119 1398 2916 
Q 1625 2713 2034 2713 
Q 2441 2713 2670 2916 
Q 2900 3119 2900 3481 
Q 2900 3844 2670 4047 
Q 2441 4250 2034 4250 
Q 1625 4250 1398 4047 
Q 1172 3844 1172 3481 
z
" transform="scale(0.015625)"/>
       </defs>
       <use xlink:href="#DejaVuSans-30"/>
       <use xlink:href="#DejaVuSans-2e" x="63.623047"/>
       <use xlink:href="#DejaVuSans-38" x="95.410156"/>
      </g>
     </g>
    </g>
    <g id="ytick_4">
     <g id="line2d_8">
      <path d="M 117 54.432 
L 842.4 54.432 
" clip-path="url(#p00b380e12c)" style="fill: none; stroke: #cccccc; stroke-linecap: round"/>
     </g>
     <g id="text_9">
      <!-- 1.0 -->
      <g style="fill: #262626" transform="translate(85.235625 59.750906)scale(0.14 -0.14)">
       <use xlink:href="#DejaVuSans-31"/>
       <use xlink:href="#DejaVuSans-2e" x="63.623047"/>
       <use xlink:href="#DejaVuSans-30" x="95.410156"/>
      </g>
     </g>
    </g>
    <g id="text_10">
     <!-- Harmonized F-score -->
     <g style="fill: #262626" transform="translate(77.07625 325.3785)rotate(-90)scale(0.2 -0.2)">
      <defs>
       <path id="DejaVuSans-48" d="M 628 4666 
L 1259 4666 
L 1259 2753 
L 3553 2753 
L 3553 4666 
L 4184 4666 
L 4184 0 
L 3553 0 
L 3553 2222 
L 1259 2222 
L 1259 0 
L 628 0 
L 628 4666 
z
" transform="scale(0.015625)"/>
       <path id="DejaVuSans-61" d="M 2194 1759 
Q 1497 1759 1228 1600 
Q 959 1441 959 1056 
Q 959 750 1161 570 
Q 1363 391 1709 391 
Q 2188 391 2477 730 
Q 2766 1069 2766 1631 
L 2766 1759 
L 2194 1759 
z
M 3341 1997 
L 3341 0 
L 2766 0 
L 2766 531 
Q 2569 213 2275 61 
Q 1981 -91 1556 -91 
Q 1019 -91 701 211 
Q 384 513 384 1019 
Q 384 1609 779 1909 
Q 1175 2209 1959 2209 
L 2766 2209 
L 2766 2266 
Q 2766 2663 2505 2880 
Q 2244 3097 1772 3097 
Q 1472 3097 1187 3025 
Q 903 2953 641 2809 
L 641 3341 
Q 956 3463 1253 3523 
Q 1550 3584 1831 3584 
Q 2591 3584 2966 3190 
Q 3341 2797 3341 1997 
z
" transform="scale(0.015625)"/>
       <path id="DejaVuSans-72" d="M 2631 2963 
Q 2534 3019 2420 3045 
Q 2306 3072 2169 3072 
Q 1681 3072 1420 2755 
Q 1159 2438 1159 1844 
L 1159 0 
L 581 0 
L 581 3500 
L 1159 3500 
L 1159 2956 
Q 1341 3275 1631 3429 
Q 1922 3584 2338 3584 
Q 2397 3584 2469 3576 
Q 2541 3569 2628 3553 
L 2631 2963 
z
" transform="scale(0.015625)"/>
       <path id="DejaVuSans-6d" d="M 3328 2828 
Q 3544 3216 3844 3400 
Q 4144 3584 4550 3584 
Q 5097 3584 5394 3201 
Q 5691 2819 5691 2113 
L 5691 0 
L 5113 0 
L 5113 2094 
Q 5113 2597 4934 2840 
Q 4756 3084 4391 3084 
Q 3944 3084 3684 2787 
Q 3425 2491 3425 1978 
L 3425 0 
L 2847 0 
L 2847 2094 
Q 2847 2600 2669 2842 
Q 2491 3084 2119 3084 
Q 1678 3084 1418 2786 
Q 1159 2488 1159 1978 
L 1159 0 
L 581 0 
L 581 3500 
L 1159 3500 
L 1159 2956 
Q 1356 3278 1631 3431 
Q 1906 3584 2284 3584 
Q 2666 3584 2933 3390 
Q 3200 3197 3328 2828 
z
" transform="scale(0.015625)"/>
       <path id="DejaVuSans-6f" d="M 1959 3097 
Q 1497 3097 1228 2736 
Q 959 2375 959 1747 
Q 959 1119 1226 758 
Q 1494 397 1959 397 
Q 2419 397 2687 759 
Q 2956 1122 2956 1747 
Q 2956 2369 2687 2733 
Q 2419 3097 1959 3097 
z
M 1959 3584 
Q 2709 3584 3137 3096 
Q 3566 2609 3566 1747 
Q 3566 888 3137 398 
Q 2709 -91 1959 -91 
Q 1206 -91 779 398 
Q 353 888 353 1747 
Q 353 2609 779 3096 
Q 1206 3584 1959 3584 
z
" transform="scale(0.015625)"/>
       <path id="DejaVuSans-6e" d="M 3513 2113 
L 3513 0 
L 2938 0 
L 2938 2094 
Q 2938 2591 2744 2837 
Q 2550 3084 2163 3084 
Q 1697 3084 1428 2787 
Q 1159 2491 1159 1978 
L 1159 0 
L 581 0 
L 581 3500 
L 1159 3500 
L 1159 2956 
Q 1366 3272 1645 3428 
Q 1925 3584 2291 3584 
Q 2894 3584 3203 3211 
Q 3513 2838 3513 2113 
z
" transform="scale(0.015625)"/>
       <path id="DejaVuSans-69" d="M 603 3500 
L 1178 3500 
L 1178 0 
L 603 0 
L 603 3500 
z
M 603 4863 
L 1178 4863 
L 1178 4134 
L 603 4134 
L 603 4863 
z
" transform="scale(0.015625)"/>
       <path id="DejaVuSans-7a" d="M 353 3500 
L 3084 3500 
L 3084 2975 
L 922 459 
L 3084 459 
L 3084 0 
L 275 0 
L 275 525 
L 2438 3041 
L 353 3041 
L 353 3500 
z
" transform="scale(0.015625)"/>
       <path id="DejaVuSans-64" d="M 2906 2969 
L 2906 4863 
L 3481 4863 
L 3481 0 
L 2906 0 
L 2906 525 
Q 2725 213 2448 61 
Q 2172 -91 1784 -91 
Q 1150 -91 751 415 
Q 353 922 353 1747 
Q 353 2572 751 3078 
Q 1150 3584 1784 3584 
Q 2172 3584 2448 3432 
Q 2725 3281 2906 2969 
z
M 947 1747 
Q 947 1113 1208 752 
Q 1469 391 1925 391 
Q 2381 391 2643 752 
Q 2906 1113 2906 1747 
Q 2906 2381 2643 2742 
Q 2381 3103 1925 3103 
Q 1469 3103 1208 2742 
Q 947 2381 947 1747 
z
" transform="scale(0.015625)"/>
       <path id="DejaVuSans-46" d="M 628 4666 
L 3309 4666 
L 3309 4134 
L 1259 4134 
L 1259 2759 
L 3109 2759 
L 3109 2228 
L 1259 2228 
L 1259 0 
L 628 0 
L 628 4666 
z
" transform="scale(0.015625)"/>
       <path id="DejaVuSans-2d" d="M 313 2009 
L 1997 2009 
L 1997 1497 
L 313 1497 
L 313 2009 
z
" transform="scale(0.015625)"/>
       <path id="DejaVuSans-73" d="M 2834 3397 
L 2834 2853 
Q 2591 2978 2328 3040 
Q 2066 3103 1784 3103 
Q 1356 3103 1142 2972 
Q 928 2841 928 2578 
Q 928 2378 1081 2264 
Q 1234 2150 1697 2047 
L 1894 2003 
Q 2506 1872 2764 1633 
Q 3022 1394 3022 966 
Q 3022 478 2636 193 
Q 2250 -91 1575 -91 
Q 1294 -91 989 -36 
Q 684 19 347 128 
L 347 722 
Q 666 556 975 473 
Q 1284 391 1588 391 
Q 1994 391 2212 530 
Q 2431 669 2431 922 
Q 2431 1156 2273 1281 
Q 2116 1406 1581 1522 
L 1381 1569 
Q 847 1681 609 1914 
Q 372 2147 372 2553 
Q 372 3047 722 3315 
Q 1072 3584 1716 3584 
Q 2034 3584 2315 3537 
Q 2597 3491 2834 3397 
z
" transform="scale(0.015625)"/>
       <path id="DejaVuSans-63" d="M 3122 3366 
L 3122 2828 
Q 2878 2963 2633 3030 
Q 2388 3097 2138 3097 
Q 1578 3097 1268 2742 
Q 959 2388 959 1747 
Q 959 1106 1268 751 
Q 1578 397 2138 397 
Q 2388 397 2633 464 
Q 2878 531 3122 666 
L 3122 134 
Q 2881 22 2623 -34 
Q 2366 -91 2075 -91 
Q 1284 -91 818 406 
Q 353 903 353 1747 
Q 353 2603 823 3093 
Q 1294 3584 2113 3584 
Q 2378 3584 2631 3529 
Q 2884 3475 3122 3366 
z
" transform="scale(0.015625)"/>
      </defs>
      <use xlink:href="#DejaVuSans-48"/>
      <use xlink:href="#DejaVuSans-61" x="75.195312"/>
      <use xlink:href="#DejaVuSans-72" x="136.474609"/>
      <use xlink:href="#DejaVuSans-6d" x="175.837891"/>
      <use xlink:href="#DejaVuSans-6f" x="273.25"/>
      <use xlink:href="#DejaVuSans-6e" x="334.431641"/>
      <use xlink:href="#DejaVuSans-69" x="397.810547"/>
      <use xlink:href="#DejaVuSans-7a" x="425.59375"/>
      <use xlink:href="#DejaVuSans-65" x="478.083984"/>
      <use xlink:href="#DejaVuSans-64" x="539.607422"/>
      <use xlink:href="#DejaVuSans-20" x="603.083984"/>
      <use xlink:href="#DejaVuSans-46" x="634.871094"/>
      <use xlink:href="#DejaVuSans-2d" x="692.390625"/>
      <use xlink:href="#DejaVuSans-73" x="728.474609"/>
      <use xlink:href="#DejaVuSans-63" x="780.574219"/>
      <use xlink:href="#DejaVuSans-6f" x="835.554688"/>
      <use xlink:href="#DejaVuSans-72" x="896.736328"/>
      <use xlink:href="#DejaVuSans-65" x="935.599609"/>
     </g>
    </g>
   </g>
   <g id="line2d_9">
    <path d="M 283.019188 197.77932 
L 319.515359 203.16096 
L 345.409805 198.26856 
L 365.495097 194.84388 
L 381.905976 189.95148 
L 395.781177 188.48376 
L 407.800422 186.5268 
L 418.402148 186.5268 
L 427.885714 184.56984 
L 436.464644 183.59136 
L 444.296593 182.12364 
L 451.501288 181.14516 
L 458.171793 181.6344 
L 464.381886 181.6344 
L 470.191039 181.14516 
L 475.647899 178.69896 
L 485.659389 175.76352 
L 490.276331 174.78504 
L 494.667965 172.33884 
L 498.855261 167.93568 
L 502.856392 167.44644 
L 506.68721 164.511 
L 510.361624 160.59708 
L 517.288936 154.7262 
L 520.56241 154.23696 
L 523.721002 152.76924 
L 526.772502 152.28 
L 529.723935 150.81228 
L 535.351432 150.81228 
L 538.038516 151.30152 
L 543.183381 148.36608 
L 545.64958 148.85532 
L 548.050006 148.36608 
L 550.388076 148.85532 
L 557.058582 148.85532 
L 559.176576 147.87684 
L 561.245878 148.36608 
L 563.268674 148.36608 
L 567.182796 147.3876 
L 569.077827 147.3876 
L 570.933782 146.89836 
L 572.75224 146.89836 
L 574.534687 145.91988 
L 576.282522 145.91988 
L 577.997062 145.43064 
L 579.679552 143.96292 
L 581.33117 143.96292 
L 582.953027 143.47368 
L 584.546177 143.47368 
L 586.111619 142.4952 
L 589.163119 143.47368 
L 592.114552 142.4952 
L 593.554753 142.4952 
L 599.095618 140.53824 
L 601.74318 140.049 
L 603.038319 139.07052 
L 604.315087 140.049 
L 605.573998 140.049 
L 606.815544 141.02748 
L 608.040197 141.02748 
L 609.248412 140.049 
L 610.440623 139.55976 
L 611.617249 139.55976 
L 612.778693 138.58128 
L 613.925341 139.07052 
L 615.057565 137.6028 
L 616.175724 138.09204 
L 620.514425 138.09204 
L 621.567193 137.11356 
L 622.60779 138.09204 
L 623.636494 138.58128 
L 624.653575 136.62432 
L 625.65929 137.11356 
L 626.653893 135.64584 
L 627.637626 136.62432 
L 628.610723 134.66736 
L 630.525915 134.66736 
L 632.401205 135.1566 
L 633.324399 134.66736 
L 634.23822 134.66736 
L 635.142857 135.64584 
L 636.038493 136.13508 
L 636.925304 136.13508 
L 638.673138 138.09204 
L 640.387678 137.6028 
L 642.070169 138.09204 
L 642.899766 138.09204 
L 643.721787 138.58128 
L 644.536368 138.09204 
L 645.343644 138.09204 
L 646.143744 138.58128 
L 646.936794 138.09204 
L 647.722918 138.09204 
L 648.502236 138.58128 
L 650.040917 138.58128 
L 651.553736 139.07052 
L 652.300716 139.07052 
L 653.776334 137.6028 
L 655.94537 138.09204 
L 657.362889 137.6028 
L 658.063365 137.6028 
L 658.758431 138.09204 
L 660.811994 138.58128 
L 662.155462 138.58128 
L 662.81975 139.07052 
L 664.133797 139.55976 
L 665.428936 140.53824 
L 667.33736 140.53824 
L 667.964615 141.51672 
L 669.20616 142.4952 
L 670.430814 142.98444 
L 671.036948 140.53824 
L 671.639028 140.53824 
L 672.83124 141.51672 
L 674.007866 142.00596 
L 674.590461 141.51672 
L 675.744459 142.00596 
L 676.88385 141.51672 
L 677.448182 142.4952 
L 679.120254 143.47368 
L 679.670779 143.96292 
L 682.905042 143.96292 
L 684.998407 142.00596 
L 686.027111 142.4952 
L 686.537088 142.98444 
L 688.049907 143.47368 
L 689.04451 144.9414 
L 690.516106 144.9414 
L 691.96403 143.96292 
L 694.791821 143.96292 
L 695.254602 145.43064 
L 697.082292 145.91988 
L 697.533474 145.43064 
L 697.982406 146.40912 
L 698.873607 146.89836 
L 701.063755 147.3876 
L 701.925108 149.34456 
L 704.043103 150.32304 
L 707.734261 150.32304 
L 708.1352 151.30152 
L 709.721331 152.28 
L 710.504037 153.25848 
L 711.279996 152.76924 
L 712.431533 152.76924 
L 712.812129 153.74772 
L 715.432166 155.21544 
L 716.895786 156.19392 
L 720.802185 158.15088 
L 721.149048 158.64012 
L 721.494578 158.15088 
L 722.863588 159.12936 
L 725.540681 160.59708 
L 728.140447 159.6186 
L 730.667227 161.57556 
L 730.978145 161.08632 
L 736.398483 152.28 
L 737.847961 147.87684 
L 738.706574 147.3876 
L 739.838798 147.87684 
L 740.119643 148.85532 
L 740.399614 151.30152 
L 752.418859 151.30152 
L 752.906723 153.74772 
L 755.069967 156.19392 
L 756.014969 160.10784 
L 761.264224 160.10784 
L 761.706538 159.12936 
L 762.146688 160.59708 
L 763.670484 161.57556 
L 767.05952 162.55404 
L 770.124878 163.04328 
L 770.924977 165.97872 
L 771.718028 164.02176 
L 771.915203 168.42492 
L 772.111948 169.4034 
L 772.504152 172.33884 
L 773.283469 164.02176 
L 774.82215 164.511 
L 775.770638 158.64012 
L 776.522297 145.43064 
L 777.822783 150.32304 
L 778.557567 133.19964 
L 786.769854 134.66736 
L 800.525693 135.64584 
L 811.825425 136.13508 
L 814.441835 133.19964 
L 836.350498 133.19964 
L 836.830556 136.62432 
L 838.161255 137.6028 
L 839.751094 149.8338 
L 849.576995 150.81228 
L 861.033477 165.48948 
L 873.962847 152.76924 
L 874.342373 148.36608 
L 881.38183 154.23696 
L 885.433706 227.13372 
L 885.433706 227.13372 
" clip-path="url(#p00b380e12c)" style="fill: none; stroke-dasharray: 3,4.95; stroke-dashoffset: 0; stroke: #4c72b0; stroke-width: 3"/>
   </g>
   <g id="line2d_10">
    <path d="M 283.019188 183.59136 
L 319.515359 195.82236 
L 345.409805 197.77932 
L 365.495097 198.26856 
L 381.905976 197.29008 
L 395.781177 197.29008 
L 407.800422 196.80084 
L 418.402148 197.77932 
L 427.885714 197.29008 
L 436.464644 195.33312 
L 444.296593 194.35464 
L 451.501288 193.8654 
L 458.171793 194.35464 
L 464.381886 193.37616 
L 470.191039 192.88692 
L 475.647899 189.46224 
L 480.792764 187.50528 
L 485.659389 184.0806 
L 490.276331 183.59136 
L 494.667965 179.1882 
L 498.855261 175.27428 
L 502.856392 173.80656 
L 506.68721 169.89264 
L 510.361624 165.97872 
L 513.891905 163.53252 
L 517.288936 160.10784 
L 520.56241 159.6186 
L 523.721002 158.15088 
L 526.772502 157.1724 
L 529.723935 155.70468 
L 532.581656 154.7262 
L 535.351432 155.21544 
L 538.038516 155.21544 
L 540.647703 153.74772 
L 543.183381 151.79076 
L 545.64958 151.79076 
L 548.050006 151.30152 
L 550.388076 152.28 
L 561.245878 152.28 
L 563.268674 152.76924 
L 565.247009 151.79076 
L 567.182796 151.79076 
L 569.077827 152.28 
L 570.933782 152.28 
L 572.75224 151.30152 
L 574.534687 149.8338 
L 576.282522 150.32304 
L 577.997062 149.8338 
L 579.679552 148.85532 
L 581.33117 148.36608 
L 582.953027 148.36608 
L 584.546177 147.87684 
L 586.111619 146.89836 
L 587.6503 146.89836 
L 589.163119 145.91988 
L 590.650932 145.91988 
L 592.114552 144.9414 
L 593.554753 144.9414 
L 596.367814 143.96292 
L 597.742049 143.96292 
L 599.095618 142.98444 
L 601.74318 142.98444 
L 603.038319 142.00596 
L 604.315087 142.98444 
L 605.573998 142.4952 
L 608.040197 143.47368 
L 609.248412 142.00596 
L 610.440623 142.00596 
L 611.617249 141.51672 
L 612.778693 140.53824 
L 613.925341 140.53824 
L 615.057565 140.049 
L 616.175724 140.049 
L 617.280162 139.55976 
L 619.449198 140.53824 
L 620.514425 140.049 
L 621.567193 139.07052 
L 622.60779 140.049 
L 623.636494 140.53824 
L 624.653575 138.58128 
L 625.65929 138.58128 
L 626.653893 138.09204 
L 627.637626 139.55976 
L 628.610723 137.11356 
L 630.525915 138.09204 
L 634.23822 138.09204 
L 636.038493 139.07052 
L 636.925304 139.07052 
L 638.673138 141.51672 
L 640.387678 141.02748 
L 642.070169 141.51672 
L 642.899766 141.51672 
L 643.721787 142.00596 
L 644.536368 141.02748 
L 646.143744 142.00596 
L 647.722918 142.00596 
L 648.502236 142.4952 
L 649.274864 142.00596 
L 650.040917 142.4952 
L 651.553736 142.98444 
L 652.300716 142.4952 
L 653.776334 140.049 
L 655.94537 140.53824 
L 657.362889 140.049 
L 658.063365 139.55976 
L 658.758431 139.55976 
L 660.811994 138.58128 
L 662.155462 139.07052 
L 662.81975 139.55976 
L 664.133797 139.55976 
L 664.783696 140.049 
L 667.33736 140.049 
L 668.587528 141.02748 
L 669.20616 141.02748 
L 670.430814 142.00596 
L 671.036948 139.55976 
L 671.639028 140.049 
L 672.237108 140.049 
L 672.83124 140.53824 
L 674.007866 141.02748 
L 674.590461 140.53824 
L 675.744459 141.02748 
L 676.88385 141.02748 
L 677.448182 142.00596 
L 679.120254 141.51672 
L 679.670779 142.00596 
L 680.217958 140.53824 
L 681.302437 140.53824 
L 682.905042 141.02748 
L 683.95781 139.55976 
L 684.998407 139.07052 
L 686.027111 139.07052 
L 686.537088 139.55976 
L 688.049907 140.53824 
L 689.04451 140.53824 
L 691.96403 139.55976 
L 694.791821 140.049 
L 695.254602 141.02748 
L 697.082292 141.02748 
L 697.533474 141.51672 
L 697.982406 142.98444 
L 698.873607 143.47368 
L 701.063755 143.96292 
L 701.495462 144.9414 
L 701.925108 146.40912 
L 704.043103 146.89836 
L 707.734261 146.40912 
L 708.1352 147.3876 
L 709.721331 148.36608 
L 711.279996 150.32304 
L 712.431533 150.81228 
L 712.812129 151.79076 
L 715.432166 152.76924 
L 716.895786 154.23696 
L 719.753506 155.70468 
L 720.802185 155.70468 
L 721.494578 157.66164 
L 722.863588 159.12936 
L 725.540681 160.10784 
L 728.140447 159.6186 
L 730.667227 161.08632 
L 730.978145 160.59708 
L 736.398483 151.30152 
L 737.847961 147.3876 
L 738.706574 146.89836 
L 739.838798 147.87684 
L 740.399614 150.81228 
L 744.764621 151.79076 
L 752.418859 151.30152 
L 752.906723 154.23696 
L 755.069967 156.68316 
L 755.543708 159.12936 
L 756.014969 160.59708 
L 761.264224 160.10784 
L 761.706538 159.6186 
L 762.146688 162.0648 
L 763.670484 162.55404 
L 767.05952 164.02176 
L 770.124878 164.02176 
L 770.924977 166.46796 
L 771.718028 165.48948 
L 771.915203 169.4034 
L 772.111948 169.89264 
L 772.504152 174.2958 
L 773.283469 170.38188 
L 774.82215 170.87112 
L 775.770638 168.91416 
L 776.522297 152.28 
L 777.822783 157.66164 
L 778.557567 140.049 
L 786.769854 143.96292 
L 800.525693 145.91988 
L 811.825425 144.9414 
L 814.441835 137.6028 
L 836.350498 143.47368 
L 836.830556 147.87684 
L 838.161255 140.049 
L 839.751094 152.76924 
L 849.576995 161.08632 
L 861.033477 177.72048 
L 873.962847 166.46796 
L 874.342373 151.79076 
L 881.38183 159.6186 
L 885.433706 235.94004 
L 885.433706 235.94004 
" clip-path="url(#p00b380e12c)" style="fill: none; stroke-dasharray: 3,4.95; stroke-dashoffset: 0; stroke: #dd8452; stroke-width: 3"/>
   </g>
   <g id="line2d_11">
    <path d="M 283.019188 234.47232 
L 319.515359 254.04192 
L 345.409805 252.5742 
L 365.495097 252.08496 
L 395.781177 247.6818 
L 407.800422 245.2356 
L 418.402148 244.25712 
L 427.885714 242.30016 
L 436.464644 239.36472 
L 444.296593 237.40776 
L 451.501288 235.4508 
L 458.171793 234.96156 
L 470.191039 232.02612 
L 475.647899 228.1122 
L 480.792764 224.68752 
L 485.659389 220.28436 
L 490.276331 217.83816 
L 494.667965 212.45652 
L 498.855261 207.56412 
L 502.856392 204.62868 
L 506.68721 201.204 
L 510.361624 195.82236 
L 513.891905 190.44072 
L 517.288936 185.54832 
L 520.56241 184.56984 
L 526.772502 179.67744 
L 529.723935 177.72048 
L 535.351432 176.742 
L 540.647703 174.78504 
L 543.183381 172.82808 
L 545.64958 173.31732 
L 548.050006 171.8496 
L 550.388076 172.33884 
L 552.666948 171.36036 
L 554.889546 170.87112 
L 557.058582 169.89264 
L 561.245878 166.9572 
L 563.268674 166.9572 
L 565.247009 166.46796 
L 567.182796 164.02176 
L 569.077827 164.511 
L 570.933782 163.53252 
L 572.75224 164.02176 
L 574.534687 162.55404 
L 576.282522 163.04328 
L 577.997062 162.55404 
L 579.679552 162.55404 
L 581.33117 161.57556 
L 582.953027 161.57556 
L 584.546177 159.12936 
L 586.111619 158.64012 
L 587.6503 158.64012 
L 589.163119 157.1724 
L 590.650932 156.68316 
L 592.114552 157.1724 
L 593.554753 156.68316 
L 594.972272 157.1724 
L 596.367814 157.1724 
L 597.742049 156.68316 
L 599.095618 154.7262 
L 601.74318 154.7262 
L 603.038319 153.74772 
L 604.315087 154.7262 
L 605.573998 154.7262 
L 606.815544 155.21544 
L 608.040197 155.21544 
L 609.248412 154.23696 
L 610.440623 154.7262 
L 611.617249 154.23696 
L 612.778693 154.7262 
L 613.925341 154.7262 
L 615.057565 153.74772 
L 616.175724 154.23696 
L 617.280162 153.25848 
L 620.514425 153.25848 
L 621.567193 152.28 
L 623.636494 153.25848 
L 624.653575 148.36608 
L 625.65929 148.85532 
L 626.653893 145.43064 
L 627.637626 145.43064 
L 628.610723 140.53824 
L 629.573413 140.049 
L 630.525915 140.049 
L 632.401205 140.53824 
L 635.142857 140.53824 
L 636.038493 139.55976 
L 636.925304 139.55976 
L 638.673138 141.02748 
L 640.387678 140.53824 
L 642.070169 140.53824 
L 642.899766 140.049 
L 643.721787 140.53824 
L 644.536368 140.53824 
L 645.343644 140.049 
L 648.502236 140.049 
L 649.274864 139.07052 
L 650.040917 139.55976 
L 651.553736 139.07052 
L 652.300716 139.07052 
L 653.776334 139.55976 
L 655.94537 140.049 
L 657.362889 140.049 
L 658.063365 140.53824 
L 658.758431 140.049 
L 660.811994 140.53824 
L 662.155462 141.02748 
L 662.81975 141.51672 
L 664.133797 141.51672 
L 664.783696 142.00596 
L 665.428936 142.98444 
L 666.069584 143.47368 
L 667.33736 143.47368 
L 668.587528 144.45216 
L 669.20616 144.45216 
L 670.430814 142.00596 
L 671.036948 141.51672 
L 671.639028 141.51672 
L 672.83124 142.4952 
L 674.007866 141.51672 
L 674.590461 141.51672 
L 675.744459 142.4952 
L 676.88385 142.4952 
L 677.448182 141.51672 
L 679.120254 142.4952 
L 679.670779 142.00596 
L 680.217958 142.98444 
L 681.302437 143.47368 
L 682.905042 143.47368 
L 684.998407 142.4952 
L 686.027111 143.47368 
L 686.537088 143.47368 
L 688.049907 143.96292 
L 689.04451 144.45216 
L 691.96403 144.45216 
L 694.791821 143.96292 
L 695.254602 144.9414 
L 697.082292 145.91988 
L 697.533474 146.40912 
L 697.982406 146.40912 
L 698.873607 146.89836 
L 701.063755 146.89836 
L 701.495462 147.3876 
L 701.925108 148.36608 
L 704.043103 149.8338 
L 707.734261 149.34456 
L 708.1352 150.32304 
L 709.721331 151.30152 
L 710.504037 152.76924 
L 711.279996 153.74772 
L 712.431533 151.79076 
L 712.812129 153.25848 
L 715.432166 152.76924 
L 716.895786 154.23696 
L 719.753506 156.19392 
L 720.802185 156.19392 
L 722.863588 159.12936 
L 725.540681 159.12936 
L 728.140447 158.64012 
L 730.667227 159.6186 
L 730.978145 159.12936 
L 736.398483 150.81228 
L 737.847961 141.02748 
L 738.706574 141.02748 
L 739.838798 141.51672 
L 740.119643 141.02748 
L 740.399614 142.4952 
L 744.764621 143.47368 
L 752.418859 142.98444 
L 752.906723 144.9414 
L 755.543708 145.43064 
L 756.014969 145.91988 
L 761.264224 145.91988 
L 762.146688 148.85532 
L 763.670484 148.85532 
L 767.05952 150.32304 
L 770.124878 150.81228 
L 770.924977 152.28 
L 771.915203 152.76924 
L 772.504152 159.6186 
L 773.283469 148.36608 
L 774.82215 148.85532 
L 775.770638 147.3876 
L 776.522297 140.53824 
L 777.822783 143.47368 
L 778.557567 136.62432 
L 786.769854 129.77496 
L 800.525693 128.79648 
L 811.825425 127.32876 
L 814.441835 119.50092 
L 836.350498 117.05472 
L 836.830556 116.07624 
L 838.161255 119.50092 
L 839.751094 128.30724 
L 849.576995 135.64584 
L 861.033477 143.47368 
L 873.962847 136.62432 
L 874.342373 147.3876 
L 881.38183 159.12936 
L 885.433706 165.48948 
L 885.433706 165.48948 
" clip-path="url(#p00b380e12c)" style="fill: none; stroke-dasharray: 11.1,4.8; stroke-dashoffset: 0; stroke: #55a868; stroke-width: 3"/>
   </g>
   <g id="line2d_12">
    <path d="M 283.019188 233.98308 
L 319.515359 253.55268 
L 345.409805 251.59572 
L 365.495097 251.10648 
L 395.781177 246.70332 
L 407.800422 243.76788 
L 418.402148 242.7894 
L 427.885714 240.83244 
L 436.464644 237.897 
L 444.296593 235.4508 
L 451.501288 233.98308 
L 458.171793 233.49384 
L 464.381886 231.53688 
L 470.191039 230.06916 
L 475.647899 226.15524 
L 480.792764 222.73056 
L 485.659389 218.3274 
L 490.276331 215.8812 
L 494.667965 210.01032 
L 498.855261 205.11792 
L 502.856392 202.18248 
L 506.68721 198.26856 
L 510.361624 192.88692 
L 513.891905 187.50528 
L 517.288936 183.10212 
L 520.56241 181.6344 
L 526.772502 176.742 
L 529.723935 174.78504 
L 532.581656 174.2958 
L 538.038516 172.33884 
L 540.647703 171.8496 
L 543.183381 169.89264 
L 545.64958 170.38188 
L 548.050006 168.42492 
L 550.388076 168.91416 
L 554.889546 167.93568 
L 557.058582 166.46796 
L 559.176576 165.48948 
L 561.245878 164.02176 
L 565.247009 164.02176 
L 567.182796 161.57556 
L 569.077827 161.57556 
L 570.933782 160.59708 
L 572.75224 161.08632 
L 574.534687 159.6186 
L 576.282522 160.10784 
L 577.997062 159.6186 
L 579.679552 159.6186 
L 581.33117 159.12936 
L 582.953027 159.12936 
L 584.546177 156.68316 
L 586.111619 156.19392 
L 587.6503 156.19392 
L 589.163119 154.23696 
L 592.114552 154.23696 
L 593.554753 153.74772 
L 594.972272 153.74772 
L 596.367814 154.23696 
L 597.742049 153.25848 
L 599.095618 151.30152 
L 601.74318 151.79076 
L 603.038319 150.81228 
L 606.815544 152.28 
L 608.040197 152.28 
L 609.248412 151.30152 
L 610.440623 151.79076 
L 611.617249 151.30152 
L 612.778693 151.79076 
L 613.925341 151.30152 
L 615.057565 150.32304 
L 616.175724 150.81228 
L 617.280162 150.32304 
L 619.449198 150.32304 
L 620.514425 149.8338 
L 621.567193 148.85532 
L 623.636494 149.8338 
L 624.653575 144.9414 
L 625.65929 144.9414 
L 626.653893 141.02748 
L 627.637626 141.02748 
L 628.610723 135.64584 
L 629.573413 135.1566 
L 630.525915 135.64584 
L 633.324399 135.64584 
L 634.23822 135.1566 
L 635.142857 135.64584 
L 636.038493 134.66736 
L 636.925304 134.17812 
L 638.673138 135.64584 
L 640.387678 135.1566 
L 642.070169 135.1566 
L 642.899766 134.66736 
L 643.721787 135.1566 
L 644.536368 135.1566 
L 645.343644 134.17812 
L 646.143744 133.68888 
L 648.502236 133.68888 
L 649.274864 132.7104 
L 650.040917 133.19964 
L 651.553736 132.7104 
L 652.300716 132.7104 
L 653.776334 133.19964 
L 657.362889 133.19964 
L 658.063365 133.68888 
L 658.758431 133.19964 
L 660.811994 133.19964 
L 662.155462 133.68888 
L 662.81975 134.17812 
L 664.133797 134.66736 
L 664.783696 134.66736 
L 665.428936 135.64584 
L 666.069584 136.13508 
L 667.33736 136.13508 
L 668.587528 137.11356 
L 669.20616 136.62432 
L 670.430814 134.66736 
L 671.036948 134.17812 
L 671.639028 134.17812 
L 672.237108 134.66736 
L 672.83124 134.66736 
L 674.007866 134.17812 
L 674.590461 134.17812 
L 675.744459 134.66736 
L 676.88385 134.66736 
L 677.448182 133.68888 
L 679.120254 134.66736 
L 679.670779 133.68888 
L 681.302437 135.1566 
L 682.905042 135.64584 
L 684.998407 134.66736 
L 686.537088 136.13508 
L 688.049907 136.13508 
L 689.04451 135.64584 
L 690.516106 135.64584 
L 691.96403 136.13508 
L 694.791821 135.64584 
L 695.254602 136.62432 
L 697.082292 137.11356 
L 697.533474 137.11356 
L 697.982406 137.6028 
L 701.495462 137.6028 
L 701.925108 138.58128 
L 704.043103 139.07052 
L 707.734261 139.55976 
L 708.1352 140.53824 
L 709.721331 141.02748 
L 711.279996 142.98444 
L 712.431533 141.02748 
L 712.812129 142.00596 
L 715.432166 141.51672 
L 716.895786 142.4952 
L 719.753506 143.96292 
L 720.802185 143.96292 
L 721.494578 144.9414 
L 722.863588 145.91988 
L 725.540681 145.91988 
L 728.140447 146.40912 
L 730.667227 147.3876 
L 730.978145 147.87684 
L 736.398483 139.07052 
L 737.847961 128.79648 
L 738.706574 130.2642 
L 739.838798 130.75344 
L 740.119643 129.77496 
L 740.399614 130.75344 
L 744.764621 132.7104 
L 752.418859 133.68888 
L 752.906723 134.66736 
L 756.014969 134.66736 
L 761.264224 134.17812 
L 761.706538 135.64584 
L 762.146688 136.62432 
L 763.670484 136.13508 
L 767.05952 137.11356 
L 770.124878 136.62432 
L 770.924977 138.09204 
L 771.718028 138.09204 
L 771.915203 137.6028 
L 772.504152 143.47368 
L 773.283469 131.73192 
L 774.82215 132.22116 
L 775.770638 131.24268 
L 776.522297 125.86104 
L 777.822783 127.818 
L 778.557567 118.0332 
L 786.769854 111.18384 
L 800.525693 108.73764 
L 811.825425 112.16232 
L 814.441835 102.37752 
L 836.350498 97.97436 
L 836.830556 96.0174 
L 838.161255 98.95284 
L 839.751094 96.0174 
L 849.576995 97.97436 
L 861.033477 99.93132 
L 873.962847 107.75916 
L 874.342373 108.73764 
L 881.38183 126.35028 
L 885.433706 104.33448 
L 885.433706 104.33448 
" clip-path="url(#p00b380e12c)" style="fill: none; stroke-dasharray: 11.1,4.8; stroke-dashoffset: 0; stroke: #c44e52; stroke-width: 3"/>
   </g>
   <g id="line2d_13">
    <path d="M 283.019188 257.95584 
L 319.515359 260.40204 
L 345.409805 252.08496 
L 365.495097 248.17104 
L 381.905976 240.83244 
L 395.781177 235.94004 
L 407.800422 233.49384 
L 418.402148 231.53688 
L 427.885714 228.1122 
L 436.464644 224.68752 
L 444.296593 222.24132 
L 451.501288 220.28436 
L 458.171793 219.30588 
L 464.381886 217.34892 
L 470.191039 215.39196 
L 475.647899 212.45652 
L 480.792764 210.9888 
L 485.659389 206.0964 
L 490.276331 202.67172 
L 494.667965 199.24704 
L 498.855261 194.35464 
L 502.856392 192.39768 
L 506.68721 187.99452 
L 510.361624 182.61288 
L 513.891905 177.72048 
L 517.288936 173.80656 
L 520.56241 172.82808 
L 523.721002 169.89264 
L 529.723935 165.00024 
L 532.581656 165.00024 
L 535.351432 164.02176 
L 538.038516 164.02176 
L 543.183381 161.08632 
L 545.64958 160.59708 
L 548.050006 159.6186 
L 550.388076 159.6186 
L 552.666948 160.10784 
L 554.889546 159.12936 
L 559.176576 159.12936 
L 561.245878 158.64012 
L 563.268674 159.6186 
L 565.247009 158.15088 
L 567.182796 156.19392 
L 569.077827 156.68316 
L 570.933782 156.68316 
L 572.75224 157.1724 
L 574.534687 156.68316 
L 576.282522 156.68316 
L 577.997062 156.19392 
L 579.679552 157.1724 
L 582.953027 157.1724 
L 584.546177 156.68316 
L 586.111619 155.21544 
L 590.650932 155.21544 
L 592.114552 154.23696 
L 593.554753 154.7262 
L 596.367814 154.7262 
L 597.742049 154.23696 
L 599.095618 153.25848 
L 601.74318 153.74772 
L 603.038319 152.76924 
L 604.315087 153.74772 
L 605.573998 153.74772 
L 606.815544 154.23696 
L 608.040197 155.21544 
L 609.248412 155.21544 
L 610.440623 155.70468 
L 611.617249 155.70468 
L 616.175724 153.74772 
L 619.449198 153.74772 
L 620.514425 154.23696 
L 621.567193 152.76924 
L 622.60779 150.81228 
L 623.636494 151.30152 
L 624.653575 147.87684 
L 625.65929 148.36608 
L 627.637626 141.51672 
L 628.610723 137.11356 
L 630.525915 136.13508 
L 633.324399 136.13508 
L 634.23822 136.62432 
L 635.142857 134.17812 
L 636.038493 133.68888 
L 636.925304 133.68888 
L 638.673138 129.28572 
L 640.387678 128.30724 
L 642.070169 128.30724 
L 642.899766 127.818 
L 643.721787 128.30724 
L 645.343644 126.35028 
L 646.143744 126.35028 
L 646.936794 125.3718 
L 648.502236 125.3718 
L 649.274864 125.86104 
L 650.040917 125.86104 
L 651.553736 125.3718 
L 655.94537 125.3718 
L 657.362889 124.39332 
L 658.063365 124.39332 
L 658.758431 124.88256 
L 664.133797 124.88256 
L 664.783696 124.39332 
L 666.069584 125.3718 
L 667.33736 125.86104 
L 667.964615 126.35028 
L 669.20616 125.3718 
L 670.430814 125.86104 
L 671.036948 124.88256 
L 671.639028 122.9256 
L 672.83124 123.90408 
L 674.007866 123.41484 
L 674.590461 123.41484 
L 675.744459 123.90408 
L 676.88385 123.41484 
L 679.120254 123.41484 
L 679.670779 122.9256 
L 680.217958 123.90408 
L 681.302437 123.90408 
L 682.905042 124.39332 
L 684.998407 125.3718 
L 686.537088 126.83952 
L 688.049907 126.83952 
L 689.04451 127.32876 
L 690.516106 127.32876 
L 691.96403 127.818 
L 694.791821 125.86104 
L 695.254602 126.83952 
L 697.082292 127.32876 
L 697.533474 127.32876 
L 697.982406 128.30724 
L 698.873607 126.83952 
L 701.063755 126.83952 
L 701.495462 126.35028 
L 701.925108 127.32876 
L 704.043103 128.30724 
L 707.734261 128.79648 
L 708.1352 129.77496 
L 710.504037 131.24268 
L 711.279996 129.77496 
L 712.431533 128.79648 
L 712.812129 129.28572 
L 715.432166 130.2642 
L 716.895786 131.24268 
L 719.753506 132.22116 
L 720.802185 132.22116 
L 721.149048 132.7104 
L 721.494578 133.68888 
L 722.863588 134.17812 
L 725.540681 133.68888 
L 730.667227 134.66736 
L 730.978145 135.64584 
L 736.398483 128.79648 
L 737.847961 121.45788 
L 738.706574 122.9256 
L 739.838798 122.9256 
L 740.119643 121.45788 
L 740.399614 121.94712 
L 744.764621 122.9256 
L 752.418859 122.43636 
L 752.906723 123.41484 
L 755.069967 123.41484 
L 755.543708 123.90408 
L 756.014969 125.3718 
L 761.706538 125.3718 
L 762.146688 126.83952 
L 763.670484 125.3718 
L 767.05952 125.3718 
L 770.124878 124.88256 
L 770.924977 125.86104 
L 771.718028 124.88256 
L 772.111948 130.75344 
L 772.504152 133.68888 
L 773.283469 134.17812 
L 774.82215 134.66736 
L 775.770638 135.1566 
L 776.522297 142.4952 
L 777.822783 145.91988 
L 778.557567 127.32876 
L 786.769854 105.8022 
L 800.525693 105.8022 
L 811.825425 108.73764 
L 814.441835 101.88828 
L 836.350498 95.03892 
L 836.830556 88.18956 
L 838.161255 88.18956 
L 839.751094 94.06044 
L 849.576995 100.42056 
L 861.033477 106.78068 
L 873.962847 115.09776 
L 874.342373 120.4794 
L 881.38183 145.91988 
L 885.433706 179.67744 
L 885.433706 179.67744 
" clip-path="url(#p00b380e12c)" style="fill: none; stroke: #8172b3; stroke-width: 3; stroke-linecap: round"/>
   </g>
   <g id="line2d_14">
    <path d="M 283.019188 249.14952 
L 319.515359 254.53116 
L 345.409805 248.66028 
L 365.495097 245.72484 
L 381.905976 239.36472 
L 395.781177 234.96156 
L 407.800422 232.51536 
L 418.402148 230.5584 
L 427.885714 227.62296 
L 436.464644 225.17676 
L 444.296593 222.73056 
L 451.501288 220.7736 
L 458.171793 219.30588 
L 464.381886 217.34892 
L 470.191039 215.8812 
L 475.647899 212.45652 
L 480.792764 210.49956 
L 485.659389 206.0964 
L 490.276331 202.67172 
L 494.667965 197.29008 
L 498.855261 191.90844 
L 502.856392 189.95148 
L 506.68721 185.05908 
L 510.361624 179.67744 
L 513.891905 174.2958 
L 517.288936 169.89264 
L 520.56241 168.42492 
L 523.721002 165.48948 
L 526.772502 162.0648 
L 529.723935 160.10784 
L 532.581656 160.10784 
L 535.351432 158.64012 
L 538.038516 158.64012 
L 540.647703 157.66164 
L 543.183381 155.70468 
L 545.64958 155.70468 
L 548.050006 154.23696 
L 550.388076 154.7262 
L 554.889546 153.74772 
L 557.058582 153.74772 
L 559.176576 152.76924 
L 561.245878 152.28 
L 563.268674 152.76924 
L 567.182796 150.81228 
L 569.077827 150.81228 
L 570.933782 150.32304 
L 577.997062 150.32304 
L 579.679552 150.81228 
L 582.953027 150.81228 
L 584.546177 149.34456 
L 586.111619 147.3876 
L 587.6503 147.87684 
L 592.114552 146.40912 
L 594.972272 146.40912 
L 596.367814 146.89836 
L 597.742049 146.40912 
L 601.74318 146.40912 
L 603.038319 145.91988 
L 604.315087 146.89836 
L 605.573998 147.3876 
L 606.815544 146.89836 
L 608.040197 147.87684 
L 609.248412 147.3876 
L 610.440623 147.87684 
L 611.617249 147.3876 
L 612.778693 146.40912 
L 613.925341 146.40912 
L 615.057565 145.43064 
L 616.175724 145.43064 
L 618.371214 144.45216 
L 620.514425 144.45216 
L 621.567193 143.47368 
L 622.60779 142.98444 
L 623.636494 143.47368 
L 624.653575 141.02748 
L 625.65929 141.51672 
L 626.653893 138.09204 
L 627.637626 137.11356 
L 628.610723 134.17812 
L 630.525915 133.19964 
L 632.401205 133.19964 
L 633.324399 133.68888 
L 634.23822 133.68888 
L 635.142857 131.73192 
L 643.721787 131.73192 
L 645.343644 129.77496 
L 646.936794 129.77496 
L 647.722918 128.79648 
L 649.274864 129.77496 
L 652.300716 129.77496 
L 653.776334 130.2642 
L 655.94537 130.2642 
L 657.362889 128.79648 
L 658.063365 128.30724 
L 660.811994 128.30724 
L 662.155462 128.79648 
L 664.783696 128.79648 
L 665.428936 129.77496 
L 666.069584 130.2642 
L 667.33736 130.75344 
L 667.964615 131.24268 
L 668.587528 131.24268 
L 669.20616 130.2642 
L 670.430814 130.75344 
L 671.036948 129.77496 
L 671.639028 127.818 
L 672.237108 128.79648 
L 672.83124 128.79648 
L 674.007866 128.30724 
L 674.590461 128.30724 
L 675.744459 128.79648 
L 676.88385 128.30724 
L 679.120254 128.30724 
L 679.670779 127.818 
L 680.217958 128.30724 
L 681.302437 128.79648 
L 682.905042 129.28572 
L 683.95781 130.2642 
L 684.998407 130.2642 
L 686.027111 130.75344 
L 686.537088 130.75344 
L 688.049907 130.2642 
L 689.04451 130.75344 
L 691.96403 130.75344 
L 694.791821 128.30724 
L 695.254602 129.77496 
L 697.082292 129.77496 
L 697.533474 127.818 
L 697.982406 128.30724 
L 701.495462 128.30724 
L 701.925108 128.79648 
L 704.043103 129.77496 
L 707.734261 130.75344 
L 708.1352 131.73192 
L 709.721331 132.22116 
L 710.504037 133.19964 
L 711.279996 132.22116 
L 712.431533 131.24268 
L 712.812129 131.73192 
L 715.432166 132.22116 
L 716.895786 133.19964 
L 719.753506 134.17812 
L 720.802185 133.68888 
L 721.149048 134.66736 
L 721.494578 135.1566 
L 722.863588 136.13508 
L 725.540681 135.1566 
L 728.140447 136.13508 
L 730.667227 136.13508 
L 730.978145 136.62432 
L 736.398483 129.77496 
L 737.847961 119.99016 
L 738.706574 120.96864 
L 739.838798 120.96864 
L 740.399614 122.9256 
L 744.764621 123.90408 
L 752.418859 123.90408 
L 752.906723 125.3718 
L 755.069967 123.41484 
L 755.543708 123.41484 
L 756.014969 124.39332 
L 761.264224 125.3718 
L 761.706538 124.88256 
L 762.146688 125.86104 
L 763.670484 124.39332 
L 767.05952 124.39332 
L 770.124878 121.94712 
L 770.924977 122.9256 
L 771.718028 119.99016 
L 772.111948 125.3718 
L 772.504152 126.83952 
L 773.283469 126.83952 
L 774.82215 127.32876 
L 775.770638 127.32876 
L 776.522297 132.22116 
L 777.822783 135.64584 
L 778.557567 125.86104 
L 786.769854 102.37752 
L 811.825425 106.78068 
L 814.441835 97.97436 
L 836.350498 89.65728 
L 836.830556 78.894 
L 838.161255 77.42628 
L 839.751094 81.3402 
L 849.576995 85.74336 
L 861.033477 90.14652 
L 873.962847 95.52816 
L 874.342373 104.33448 
L 881.38183 119.50092 
L 885.433706 143.47368 
L 885.433706 143.47368 
" clip-path="url(#p00b380e12c)" style="fill: none; stroke: #937860; stroke-width: 3; stroke-linecap: round"/>
   </g>
   <g id="line2d_15">
    <path d="M 283.019188 246.70332 
L 319.515359 248.66028 
L 345.409805 240.83244 
L 365.495097 236.91852 
L 381.905976 229.57992 
L 395.781177 224.68752 
L 407.800422 221.75208 
L 418.402148 220.28436 
L 427.885714 217.34892 
L 436.464644 214.41348 
L 444.296593 211.96728 
L 451.501288 210.01032 
L 458.171793 209.03184 
L 464.381886 207.07488 
L 470.191039 205.60716 
L 475.647899 203.16096 
L 480.792764 201.204 
L 485.659389 197.29008 
L 490.276331 194.35464 
L 494.667965 189.95148 
L 498.855261 185.05908 
L 502.856392 183.59136 
L 506.68721 179.67744 
L 510.361624 175.27428 
L 513.891905 169.89264 
L 517.288936 165.97872 
L 520.56241 165.00024 
L 526.772502 160.10784 
L 529.723935 157.66164 
L 532.581656 157.66164 
L 535.351432 156.68316 
L 538.038516 156.68316 
L 540.647703 156.19392 
L 543.183381 154.7262 
L 545.64958 154.23696 
L 548.050006 153.25848 
L 550.388076 153.74772 
L 552.666948 153.74772 
L 554.889546 153.25848 
L 557.058582 153.25848 
L 559.176576 152.76924 
L 561.245878 152.76924 
L 563.268674 153.25848 
L 565.247009 152.28 
L 567.182796 150.32304 
L 570.933782 151.30152 
L 572.75224 151.30152 
L 574.534687 150.81228 
L 576.282522 150.81228 
L 577.997062 150.32304 
L 579.679552 151.30152 
L 582.953027 151.30152 
L 584.546177 150.81228 
L 586.111619 149.8338 
L 590.650932 149.8338 
L 593.554753 148.85532 
L 596.367814 149.8338 
L 599.095618 147.87684 
L 601.74318 148.36608 
L 603.038319 147.3876 
L 604.315087 148.36608 
L 605.573998 148.85532 
L 606.815544 148.85532 
L 608.040197 149.8338 
L 611.617249 149.8338 
L 612.778693 149.34456 
L 613.925341 149.34456 
L 617.280162 147.87684 
L 618.371214 148.36608 
L 620.514425 148.36608 
L 621.567193 147.3876 
L 622.60779 145.43064 
L 623.636494 145.91988 
L 624.653575 142.4952 
L 625.65929 142.98444 
L 626.653893 139.07052 
L 627.637626 136.62432 
L 628.610723 132.7104 
L 629.573413 131.73192 
L 633.324399 131.73192 
L 634.23822 132.22116 
L 635.142857 130.2642 
L 636.925304 130.2642 
L 638.673138 125.3718 
L 640.387678 124.88256 
L 642.899766 124.88256 
L 643.721787 125.3718 
L 644.536368 124.39332 
L 645.343644 122.9256 
L 646.936794 121.94712 
L 648.502236 121.94712 
L 649.274864 122.43636 
L 650.040917 122.43636 
L 651.553736 121.94712 
L 652.300716 122.43636 
L 655.94537 122.43636 
L 657.362889 121.45788 
L 658.758431 121.45788 
L 660.811994 121.94712 
L 664.133797 121.94712 
L 665.428936 122.9256 
L 667.33736 122.9256 
L 667.964615 123.41484 
L 668.587528 123.41484 
L 669.20616 122.9256 
L 670.430814 123.41484 
L 671.036948 122.43636 
L 671.639028 120.4794 
L 672.237108 120.96864 
L 677.448182 120.96864 
L 679.120254 120.4794 
L 679.670779 120.4794 
L 680.217958 120.96864 
L 681.302437 120.96864 
L 682.905042 121.45788 
L 683.95781 122.43636 
L 684.998407 122.43636 
L 686.027111 123.41484 
L 688.049907 123.41484 
L 689.04451 123.90408 
L 691.96403 123.90408 
L 694.791821 122.43636 
L 695.254602 123.90408 
L 697.082292 123.90408 
L 697.533474 122.9256 
L 697.982406 123.90408 
L 698.873607 122.43636 
L 701.495462 122.43636 
L 701.925108 122.9256 
L 704.043103 123.41484 
L 707.734261 124.39332 
L 708.1352 125.3718 
L 709.721331 125.86104 
L 710.504037 126.83952 
L 711.279996 125.86104 
L 712.431533 123.90408 
L 712.812129 124.88256 
L 715.432166 125.3718 
L 716.895786 126.35028 
L 719.753506 127.32876 
L 720.802185 126.35028 
L 721.149048 126.83952 
L 721.494578 127.818 
L 722.863588 128.30724 
L 725.540681 127.818 
L 730.667227 128.79648 
L 730.978145 129.77496 
L 736.398483 121.94712 
L 737.847961 116.07624 
L 738.706574 117.05472 
L 739.838798 117.05472 
L 740.119643 116.07624 
L 740.399614 117.05472 
L 744.764621 117.54396 
L 752.418859 117.05472 
L 752.906723 119.01168 
L 755.069967 117.54396 
L 755.543708 117.54396 
L 756.014969 119.01168 
L 761.706538 119.01168 
L 762.146688 119.99016 
L 763.670484 120.96864 
L 767.05952 120.96864 
L 770.124878 119.01168 
L 770.924977 120.4794 
L 771.718028 119.50092 
L 772.504152 126.35028 
L 773.283469 126.83952 
L 774.82215 127.32876 
L 775.770638 127.818 
L 776.522297 133.68888 
L 777.822783 137.11356 
L 778.557567 121.94712 
L 786.769854 100.9098 
L 800.525693 101.39904 
L 811.825425 105.31296 
L 814.441835 96.50664 
L 836.350498 92.10348 
L 836.830556 87.21108 
L 838.161255 86.72184 
L 839.751094 92.59272 
L 849.576995 98.95284 
L 861.033477 105.31296 
L 873.962847 113.1408 
L 874.342373 112.65156 
L 881.38183 134.17812 
L 885.433706 170.87112 
L 885.433706 170.87112 
" clip-path="url(#p00b380e12c)" style="fill: none; stroke: #da8bc3; stroke-width: 3; stroke-linecap: round"/>
   </g>
   <g id="line2d_16">
    <path d="M 283.019188 260.40204 
L 319.515359 263.82672 
L 345.409805 256.97736 
L 365.495097 253.06344 
L 381.905976 246.21408 
L 395.781177 242.30016 
L 407.800422 239.36472 
L 418.402148 237.897 
L 427.885714 234.47232 
L 436.464644 231.53688 
L 444.296593 228.60144 
L 451.501288 226.64448 
L 458.171793 225.17676 
L 464.381886 223.2198 
L 470.191039 221.26284 
L 475.647899 218.3274 
L 480.792764 216.37044 
L 485.659389 210.9888 
L 490.276331 207.56412 
L 494.667965 202.67172 
L 498.855261 196.80084 
L 502.856392 194.84388 
L 506.68721 189.95148 
L 510.361624 184.56984 
L 513.891905 179.1882 
L 517.288936 174.78504 
L 520.56241 173.80656 
L 523.721002 169.89264 
L 526.772502 166.9572 
L 529.723935 165.00024 
L 532.581656 165.00024 
L 535.351432 164.02176 
L 538.038516 163.53252 
L 540.647703 162.55404 
L 543.183381 161.08632 
L 548.050006 159.12936 
L 550.388076 159.12936 
L 554.889546 158.15088 
L 557.058582 158.15088 
L 559.176576 157.1724 
L 561.245878 156.68316 
L 563.268674 157.66164 
L 567.182796 154.7262 
L 569.077827 155.21544 
L 572.75224 154.23696 
L 577.997062 154.23696 
L 579.679552 155.21544 
L 582.953027 155.21544 
L 584.546177 154.23696 
L 586.111619 152.28 
L 587.6503 152.28 
L 589.163119 151.79076 
L 590.650932 151.79076 
L 592.114552 150.81228 
L 593.554753 150.81228 
L 596.367814 151.79076 
L 599.095618 149.8338 
L 601.74318 150.32304 
L 603.038319 149.34456 
L 604.315087 150.32304 
L 605.573998 150.81228 
L 606.815544 150.81228 
L 608.040197 151.79076 
L 611.617249 151.79076 
L 612.778693 151.30152 
L 613.925341 150.32304 
L 616.175724 149.34456 
L 617.280162 149.34456 
L 618.371214 148.36608 
L 619.449198 148.85532 
L 620.514425 148.85532 
L 622.60779 146.89836 
L 623.636494 147.3876 
L 624.653575 144.9414 
L 625.65929 144.9414 
L 626.653893 142.00596 
L 627.637626 139.55976 
L 628.610723 136.13508 
L 630.525915 135.1566 
L 632.401205 135.64584 
L 634.23822 135.64584 
L 635.142857 133.68888 
L 636.925304 133.68888 
L 638.673138 132.22116 
L 642.070169 132.22116 
L 642.899766 131.73192 
L 643.721787 132.22116 
L 645.343644 130.2642 
L 646.143744 130.75344 
L 646.936794 130.2642 
L 647.722918 129.28572 
L 648.502236 129.77496 
L 651.553736 129.77496 
L 652.300716 129.28572 
L 653.776334 129.77496 
L 655.94537 129.77496 
L 658.063365 128.30724 
L 658.758431 128.79648 
L 660.811994 128.30724 
L 662.81975 128.30724 
L 664.133797 128.79648 
L 664.783696 128.30724 
L 665.428936 129.28572 
L 666.069584 129.77496 
L 667.33736 130.2642 
L 667.964615 130.75344 
L 668.587528 130.75344 
L 669.20616 129.77496 
L 670.430814 129.77496 
L 671.036948 128.79648 
L 671.639028 127.32876 
L 672.237108 127.818 
L 672.83124 127.818 
L 674.007866 127.32876 
L 674.590461 127.32876 
L 675.744459 127.818 
L 676.88385 127.32876 
L 679.120254 127.32876 
L 679.670779 126.83952 
L 680.217958 127.818 
L 681.302437 127.818 
L 682.905042 128.79648 
L 683.95781 129.28572 
L 684.998407 129.28572 
L 686.027111 130.2642 
L 688.049907 130.2642 
L 689.04451 130.75344 
L 690.516106 130.75344 
L 691.96403 131.24268 
L 694.791821 128.30724 
L 695.254602 129.28572 
L 697.082292 129.77496 
L 697.533474 129.77496 
L 697.982406 130.75344 
L 698.873607 130.2642 
L 701.495462 129.77496 
L 701.925108 130.75344 
L 704.043103 131.73192 
L 707.734261 132.22116 
L 708.1352 133.19964 
L 709.721331 133.19964 
L 710.504037 134.17812 
L 711.279996 133.68888 
L 712.431533 132.22116 
L 712.812129 133.19964 
L 715.432166 133.68888 
L 716.895786 135.1566 
L 719.753506 136.13508 
L 720.802185 135.1566 
L 721.149048 136.62432 
L 721.494578 137.11356 
L 722.863588 137.6028 
L 725.540681 137.11356 
L 728.140447 137.11356 
L 730.667227 137.6028 
L 730.978145 138.58128 
L 736.398483 132.22116 
L 737.847961 122.9256 
L 738.706574 123.90408 
L 740.119643 123.90408 
L 740.399614 124.39332 
L 744.764621 125.3718 
L 752.418859 124.88256 
L 752.906723 126.35028 
L 755.069967 125.3718 
L 755.543708 125.3718 
L 756.014969 126.83952 
L 761.706538 126.83952 
L 762.146688 127.818 
L 763.670484 126.83952 
L 767.05952 126.83952 
L 770.124878 125.86104 
L 770.924977 126.83952 
L 771.718028 124.88256 
L 772.111948 130.75344 
L 772.504152 133.19964 
L 773.283469 133.68888 
L 774.82215 134.17812 
L 775.770638 134.17812 
L 776.522297 140.049 
L 777.822783 143.47368 
L 778.557567 128.30724 
L 786.769854 105.31296 
L 800.525693 106.29144 
L 811.825425 107.75916 
L 814.441835 100.42056 
L 836.350498 91.125 
L 836.830556 79.87248 
L 838.161255 78.894 
L 839.751094 82.80792 
L 849.576995 87.70032 
L 861.033477 92.10348 
L 873.962847 98.4636 
L 874.342373 111.67308 
L 881.38183 131.24268 
L 885.433706 152.28 
L 885.433706 152.28 
" clip-path="url(#p00b380e12c)" style="fill: none; stroke: #8c8c8c; stroke-width: 3; stroke-linecap: round"/>
   </g>
   <g id="patch_3">
    <path d="M 117 396.9 
L 117 54.432 
" style="fill: none; stroke: #cccccc; stroke-width: 1.25; stroke-linejoin: miter; stroke-linecap: square"/>
   </g>
   <g id="patch_4">
    <path d="M 842.4 396.9 
L 842.4 54.432 
" style="fill: none; stroke: #cccccc; stroke-width: 1.25; stroke-linejoin: miter; stroke-linecap: square"/>
   </g>
   <g id="patch_5">
    <path d="M 117 396.9 
L 842.4 396.9 
" style="fill: none; stroke: #cccccc; stroke-width: 1.25; stroke-linejoin: miter; stroke-linecap: square"/>
   </g>
   <g id="patch_6">
    <path d="M 117 54.432 
L 842.4 54.432 
" style="fill: none; stroke: #cccccc; stroke-width: 1.25; stroke-linejoin: miter; stroke-linecap: square"/>
   </g>
   <g id="legend_1">
    <g id="patch_7">
     <path d="M 128.2 380.5275 
L 262.1525 380.5275 
Q 265.3525 380.5275 265.3525 377.3275 
L 265.3525 65.632 
Q 265.3525 62.432 262.1525 62.432 
L 128.2 62.432 
Q 125 62.432 125 65.632 
L 125 377.3275 
Q 125 380.5275 128.2 380.5275 
z
" style="fill: #ffffff; opacity: 0.8; stroke: #cccccc; stroke-linejoin: miter"/>
    </g>
    <g id="line2d_17">
     <path d="M 131.4 86.0115 
L 147.4 86.0115 
L 163.4 86.0115 
" style="fill: none; stroke-dasharray: 4,6.6; stroke-dashoffset: 0; stroke: #4c72b0; stroke-width: 4"/>
    </g>
    <g id="text_11">
     <!-- Centroid -->
     <g style="fill: #262626" transform="translate(176.2 80.9895)scale(0.16 -0.16)">
      <defs>
       <path id="DejaVuSans-43" d="M 4122 4306 
L 4122 3641 
Q 3803 3938 3442 4084 
Q 3081 4231 2675 4231 
Q 1875 4231 1450 3742 
Q 1025 3253 1025 2328 
Q 1025 1406 1450 917 
Q 1875 428 2675 428 
Q 3081 428 3442 575 
Q 3803 722 4122 1019 
L 4122 359 
Q 3791 134 3420 21 
Q 3050 -91 2638 -91 
Q 1578 -91 968 557 
Q 359 1206 359 2328 
Q 359 3453 968 4101 
Q 1578 4750 2638 4750 
Q 3056 4750 3426 4639 
Q 3797 4528 4122 4306 
z
" transform="scale(0.015625)"/>
      </defs>
      <use xlink:href="#DejaVuSans-43"/>
      <use xlink:href="#DejaVuSans-65" x="69.824219"/>
      <use xlink:href="#DejaVuSans-6e" x="131.347656"/>
      <use xlink:href="#DejaVuSans-74" x="194.726562"/>
      <use xlink:href="#DejaVuSans-72" x="233.935547"/>
      <use xlink:href="#DejaVuSans-6f" x="272.798828"/>
      <use xlink:href="#DejaVuSans-69" x="333.980469"/>
      <use xlink:href="#DejaVuSans-64" x="361.763672"/>
     </g>
     <!-- Alifold -->
     <g style="fill: #262626" transform="translate(176.2 98.906)scale(0.16 -0.16)">
      <defs>
       <path id="DejaVuSans-41" d="M 2188 4044 
L 1331 1722 
L 3047 1722 
L 2188 4044 
z
M 1831 4666 
L 2547 4666 
L 4325 0 
L 3669 0 
L 3244 1197 
L 1141 1197 
L 716 0 
L 50 0 
L 1831 4666 
z
" transform="scale(0.015625)"/>
       <path id="DejaVuSans-6c" d="M 603 4863 
L 1178 4863 
L 1178 0 
L 603 0 
L 603 4863 
z
" transform="scale(0.015625)"/>
       <path id="DejaVuSans-66" d="M 2375 4863 
L 2375 4384 
L 1825 4384 
Q 1516 4384 1395 4259 
Q 1275 4134 1275 3809 
L 1275 3500 
L 2222 3500 
L 2222 3053 
L 1275 3053 
L 1275 0 
L 697 0 
L 697 3053 
L 147 3053 
L 147 3500 
L 697 3500 
L 697 3744 
Q 697 4328 969 4595 
Q 1241 4863 1831 4863 
L 2375 4863 
z
" transform="scale(0.015625)"/>
      </defs>
      <use xlink:href="#DejaVuSans-41"/>
      <use xlink:href="#DejaVuSans-6c" x="68.408203"/>
      <use xlink:href="#DejaVuSans-69" x="96.191406"/>
      <use xlink:href="#DejaVuSans-66" x="123.974609"/>
      <use xlink:href="#DejaVuSans-6f" x="159.179688"/>
      <use xlink:href="#DejaVuSans-6c" x="220.361328"/>
      <use xlink:href="#DejaVuSans-64" x="248.144531"/>
     </g>
    </g>
    <g id="line2d_18">
     <path d="M 131.4 116.791 
L 147.4 116.791 
L 163.4 116.791 
" style="fill: none; stroke-dasharray: 4,6.6; stroke-dashoffset: 0; stroke: #dd8452; stroke-width: 4"/>
    </g>
    <g id="text_12">
     <!-- RNAalifold -->
     <g style="fill: #262626" transform="translate(176.2 122.391)scale(0.16 -0.16)">
      <defs>
       <path id="DejaVuSans-52" d="M 2841 2188 
Q 3044 2119 3236 1894 
Q 3428 1669 3622 1275 
L 4263 0 
L 3584 0 
L 2988 1197 
Q 2756 1666 2539 1819 
Q 2322 1972 1947 1972 
L 1259 1972 
L 1259 0 
L 628 0 
L 628 4666 
L 2053 4666 
Q 2853 4666 3247 4331 
Q 3641 3997 3641 3322 
Q 3641 2881 3436 2590 
Q 3231 2300 2841 2188 
z
M 1259 4147 
L 1259 2491 
L 2053 2491 
Q 2509 2491 2742 2702 
Q 2975 2913 2975 3322 
Q 2975 3731 2742 3939 
Q 2509 4147 2053 4147 
L 1259 4147 
z
" transform="scale(0.015625)"/>
       <path id="DejaVuSans-4e" d="M 628 4666 
L 1478 4666 
L 3547 763 
L 3547 4666 
L 4159 4666 
L 4159 0 
L 3309 0 
L 1241 3903 
L 1241 0 
L 628 0 
L 628 4666 
z
" transform="scale(0.015625)"/>
      </defs>
      <use xlink:href="#DejaVuSans-52"/>
      <use xlink:href="#DejaVuSans-4e" x="69.482422"/>
      <use xlink:href="#DejaVuSans-41" x="144.287109"/>
      <use xlink:href="#DejaVuSans-61" x="212.695312"/>
      <use xlink:href="#DejaVuSans-6c" x="273.974609"/>
      <use xlink:href="#DejaVuSans-69" x="301.757812"/>
      <use xlink:href="#DejaVuSans-66" x="329.541016"/>
      <use xlink:href="#DejaVuSans-6f" x="364.746094"/>
      <use xlink:href="#DejaVuSans-6c" x="425.927734"/>
      <use xlink:href="#DejaVuSans-64" x="453.710938"/>
     </g>
    </g>
    <g id="line2d_19">
     <path d="M 131.4 150.898 
L 147.4 150.898 
L 163.4 150.898 
" style="fill: none; stroke-dasharray: 14.8,6.4; stroke-dashoffset: 0; stroke: #55a868; stroke-width: 4"/>
    </g>
    <g id="text_13">
     <!-- Rscape -->
     <g style="fill: #262626" transform="translate(176.2 145.876)scale(0.16 -0.16)">
      <use xlink:href="#DejaVuSans-52"/>
      <use xlink:href="#DejaVuSans-73" x="69.482422"/>
      <use xlink:href="#DejaVuSans-63" x="121.582031"/>
      <use xlink:href="#DejaVuSans-61" x="176.5625"/>
      <use xlink:href="#DejaVuSans-70" x="237.841797"/>
      <use xlink:href="#DejaVuSans-65" x="301.318359"/>
     </g>
     <!-- nested -->
     <g style="fill: #262626" transform="translate(176.2 163.7925)scale(0.16 -0.16)">
      <use xlink:href="#DejaVuSans-6e"/>
      <use xlink:href="#DejaVuSans-65" x="63.378906"/>
      <use xlink:href="#DejaVuSans-73" x="124.902344"/>
      <use xlink:href="#DejaVuSans-74" x="177.001953"/>
      <use xlink:href="#DejaVuSans-65" x="216.210938"/>
      <use xlink:href="#DejaVuSans-64" x="277.734375"/>
     </g>
    </g>
    <g id="line2d_20">
     <path d="M 131.4 192.2995 
L 147.4 192.2995 
L 163.4 192.2995 
" style="fill: none; stroke-dasharray: 14.8,6.4; stroke-dashoffset: 0; stroke: #c44e52; stroke-width: 4"/>
    </g>
    <g id="text_14">
     <!-- Rscape -->
     <g style="fill: #262626" transform="translate(176.2 187.2775)scale(0.16 -0.16)">
      <use xlink:href="#DejaVuSans-52"/>
      <use xlink:href="#DejaVuSans-73" x="69.482422"/>
      <use xlink:href="#DejaVuSans-63" x="121.582031"/>
      <use xlink:href="#DejaVuSans-61" x="176.5625"/>
      <use xlink:href="#DejaVuSans-70" x="237.841797"/>
      <use xlink:href="#DejaVuSans-65" x="301.318359"/>
     </g>
     <!-- total -->
     <g style="fill: #262626" transform="translate(176.2 205.194)scale(0.16 -0.16)">
      <use xlink:href="#DejaVuSans-74"/>
      <use xlink:href="#DejaVuSans-6f" x="39.208984"/>
      <use xlink:href="#DejaVuSans-74" x="100.390625"/>
      <use xlink:href="#DejaVuSans-61" x="139.599609"/>
      <use xlink:href="#DejaVuSans-6c" x="200.878906"/>
     </g>
    </g>
    <g id="line2d_21">
     <path d="M 131.4 233.701 
L 147.4 233.701 
L 163.4 233.701 
" style="fill: none; stroke: #8172b3; stroke-width: 4; stroke-linecap: round"/>
    </g>
    <g id="text_15">
     <!-- SQUARNA -->
     <g style="fill: #262626" transform="translate(176.2 228.679)scale(0.16 -0.16)">
      <defs>
       <path id="DejaVuSans-53" d="M 3425 4513 
L 3425 3897 
Q 3066 4069 2747 4153 
Q 2428 4238 2131 4238 
Q 1616 4238 1336 4038 
Q 1056 3838 1056 3469 
Q 1056 3159 1242 3001 
Q 1428 2844 1947 2747 
L 2328 2669 
Q 3034 2534 3370 2195 
Q 3706 1856 3706 1288 
Q 3706 609 3251 259 
Q 2797 -91 1919 -91 
Q 1588 -91 1214 -16 
Q 841 59 441 206 
L 441 856 
Q 825 641 1194 531 
Q 1563 422 1919 422 
Q 2459 422 2753 634 
Q 3047 847 3047 1241 
Q 3047 1584 2836 1778 
Q 2625 1972 2144 2069 
L 1759 2144 
Q 1053 2284 737 2584 
Q 422 2884 422 3419 
Q 422 4038 858 4394 
Q 1294 4750 2059 4750 
Q 2388 4750 2728 4690 
Q 3069 4631 3425 4513 
z
" transform="scale(0.015625)"/>
       <path id="DejaVuSans-51" d="M 2522 4238 
Q 1834 4238 1429 3725 
Q 1025 3213 1025 2328 
Q 1025 1447 1429 934 
Q 1834 422 2522 422 
Q 3209 422 3611 934 
Q 4013 1447 4013 2328 
Q 4013 3213 3611 3725 
Q 3209 4238 2522 4238 
z
M 3406 84 
L 4238 -825 
L 3475 -825 
L 2784 -78 
Q 2681 -84 2626 -87 
Q 2572 -91 2522 -91 
Q 1538 -91 948 567 
Q 359 1225 359 2328 
Q 359 3434 948 4092 
Q 1538 4750 2522 4750 
Q 3503 4750 4090 4092 
Q 4678 3434 4678 2328 
Q 4678 1516 4351 937 
Q 4025 359 3406 84 
z
" transform="scale(0.015625)"/>
       <path id="DejaVuSans-55" d="M 556 4666 
L 1191 4666 
L 1191 1831 
Q 1191 1081 1462 751 
Q 1734 422 2344 422 
Q 2950 422 3222 751 
Q 3494 1081 3494 1831 
L 3494 4666 
L 4128 4666 
L 4128 1753 
Q 4128 841 3676 375 
Q 3225 -91 2344 -91 
Q 1459 -91 1007 375 
Q 556 841 556 1753 
L 556 4666 
z
" transform="scale(0.015625)"/>
      </defs>
      <use xlink:href="#DejaVuSans-53"/>
      <use xlink:href="#DejaVuSans-51" x="63.476562"/>
      <use xlink:href="#DejaVuSans-55" x="142.1875"/>
      <use xlink:href="#DejaVuSans-41" x="215.380859"/>
      <use xlink:href="#DejaVuSans-52" x="283.789062"/>
      <use xlink:href="#DejaVuSans-4e" x="353.271484"/>
      <use xlink:href="#DejaVuSans-41" x="428.076172"/>
     </g>
     <!-- step1 -->
     <g style="fill: #262626" transform="translate(176.2 246.5955)scale(0.16 -0.16)">
      <use xlink:href="#DejaVuSans-73"/>
      <use xlink:href="#DejaVuSans-74" x="52.099609"/>
      <use xlink:href="#DejaVuSans-65" x="91.308594"/>
      <use xlink:href="#DejaVuSans-70" x="152.832031"/>
      <use xlink:href="#DejaVuSans-31" x="216.308594"/>
     </g>
    </g>
    <g id="line2d_22">
     <path d="M 131.4 275.1025 
L 147.4 275.1025 
L 163.4 275.1025 
" style="fill: none; stroke: #937860; stroke-width: 4; stroke-linecap: round"/>
    </g>
    <g id="text_16">
     <!-- SQUARNA -->
     <g style="fill: #262626" transform="translate(176.2 270.0805)scale(0.16 -0.16)">
      <use xlink:href="#DejaVuSans-53"/>
      <use xlink:href="#DejaVuSans-51" x="63.476562"/>
      <use xlink:href="#DejaVuSans-55" x="142.1875"/>
      <use xlink:href="#DejaVuSans-41" x="215.380859"/>
      <use xlink:href="#DejaVuSans-52" x="283.789062"/>
      <use xlink:href="#DejaVuSans-4e" x="353.271484"/>
      <use xlink:href="#DejaVuSans-41" x="428.076172"/>
     </g>
     <!-- step2 -->
     <g style="fill: #262626" transform="translate(176.2 287.997)scale(0.16 -0.16)">
      <use xlink:href="#DejaVuSans-73"/>
      <use xlink:href="#DejaVuSans-74" x="52.099609"/>
      <use xlink:href="#DejaVuSans-65" x="91.308594"/>
      <use xlink:href="#DejaVuSans-70" x="152.832031"/>
      <use xlink:href="#DejaVuSans-32" x="216.308594"/>
     </g>
    </g>
    <g id="line2d_23">
     <path d="M 131.4 316.504 
L 147.4 316.504 
L 163.4 316.504 
" style="fill: none; stroke: #da8bc3; stroke-width: 4; stroke-linecap: round"/>
    </g>
    <g id="text_17">
     <!-- SQUARNA -->
     <g style="fill: #262626" transform="translate(176.2 311.482)scale(0.16 -0.16)">
      <use xlink:href="#DejaVuSans-53"/>
      <use xlink:href="#DejaVuSans-51" x="63.476562"/>
      <use xlink:href="#DejaVuSans-55" x="142.1875"/>
      <use xlink:href="#DejaVuSans-41" x="215.380859"/>
      <use xlink:href="#DejaVuSans-52" x="283.789062"/>
      <use xlink:href="#DejaVuSans-4e" x="353.271484"/>
      <use xlink:href="#DejaVuSans-41" x="428.076172"/>
     </g>
     <!-- step3i -->
     <g style="fill: #262626" transform="translate(176.2 329.3985)scale(0.16 -0.16)">
      <use xlink:href="#DejaVuSans-73"/>
      <use xlink:href="#DejaVuSans-74" x="52.099609"/>
      <use xlink:href="#DejaVuSans-65" x="91.308594"/>
      <use xlink:href="#DejaVuSans-70" x="152.832031"/>
      <use xlink:href="#DejaVuSans-33" x="216.308594"/>
      <use xlink:href="#DejaVuSans-69" x="279.931641"/>
     </g>
    </g>
    <g id="line2d_24">
     <path d="M 131.4 357.9055 
L 147.4 357.9055 
L 163.4 357.9055 
" style="fill: none; stroke: #8c8c8c; stroke-width: 4; stroke-linecap: round"/>
    </g>
    <g id="text_18">
     <!-- SQUARNA -->
     <g style="fill: #262626" transform="translate(176.2 352.8835)scale(0.16 -0.16)">
      <use xlink:href="#DejaVuSans-53"/>
      <use xlink:href="#DejaVuSans-51" x="63.476562"/>
      <use xlink:href="#DejaVuSans-55" x="142.1875"/>
      <use xlink:href="#DejaVuSans-41" x="215.380859"/>
      <use xlink:href="#DejaVuSans-52" x="283.789062"/>
      <use xlink:href="#DejaVuSans-4e" x="353.271484"/>
      <use xlink:href="#DejaVuSans-41" x="428.076172"/>
     </g>
     <!-- step3u -->
     <g style="fill: #262626" transform="translate(176.2 370.8)scale(0.16 -0.16)">
      <defs>
       <path id="DejaVuSans-75" d="M 544 1381 
L 544 3500 
L 1119 3500 
L 1119 1403 
Q 1119 906 1312 657 
Q 1506 409 1894 409 
Q 2359 409 2629 706 
Q 2900 1003 2900 1516 
L 2900 3500 
L 3475 3500 
L 3475 0 
L 2900 0 
L 2900 538 
Q 2691 219 2414 64 
Q 2138 -91 1772 -91 
Q 1169 -91 856 284 
Q 544 659 544 1381 
z
M 1991 3584 
L 1991 3584 
z
" transform="scale(0.015625)"/>
      </defs>
      <use xlink:href="#DejaVuSans-73"/>
      <use xlink:href="#DejaVuSans-74" x="52.099609"/>
      <use xlink:href="#DejaVuSans-65" x="91.308594"/>
      <use xlink:href="#DejaVuSans-70" x="152.832031"/>
      <use xlink:href="#DejaVuSans-33" x="216.308594"/>
      <use xlink:href="#DejaVuSans-75" x="279.931641"/>
     </g>
    </g>
   </g>
  </g>
  <g id="text_19">
   <!-- Rfam14.9 -->
   <g style="fill: #262626" transform="translate(419.498438 22.749188)scale(0.18 -0.18)">
    <defs>
     <path id="DejaVuSans-Bold-52" d="M 2297 2597 
Q 2675 2597 2839 2737 
Q 3003 2878 3003 3200 
Q 3003 3519 2839 3656 
Q 2675 3794 2297 3794 
L 1791 3794 
L 1791 2597 
L 2297 2597 
z
M 1791 1766 
L 1791 0 
L 588 0 
L 588 4666 
L 2425 4666 
Q 3347 4666 3776 4356 
Q 4206 4047 4206 3378 
Q 4206 2916 3982 2619 
Q 3759 2322 3309 2181 
Q 3556 2125 3751 1926 
Q 3947 1728 4147 1325 
L 4800 0 
L 3519 0 
L 2950 1159 
Q 2778 1509 2601 1637 
Q 2425 1766 2131 1766 
L 1791 1766 
z
" transform="scale(0.015625)"/>
     <path id="DejaVuSans-Bold-66" d="M 2841 4863 
L 2841 4128 
L 2222 4128 
Q 1984 4128 1890 4042 
Q 1797 3956 1797 3744 
L 1797 3500 
L 2753 3500 
L 2753 2700 
L 1797 2700 
L 1797 0 
L 678 0 
L 678 2700 
L 122 2700 
L 122 3500 
L 678 3500 
L 678 3744 
Q 678 4316 997 4589 
Q 1316 4863 1984 4863 
L 2841 4863 
z
" transform="scale(0.015625)"/>
     <path id="DejaVuSans-Bold-61" d="M 2106 1575 
Q 1756 1575 1579 1456 
Q 1403 1338 1403 1106 
Q 1403 894 1545 773 
Q 1688 653 1941 653 
Q 2256 653 2472 879 
Q 2688 1106 2688 1447 
L 2688 1575 
L 2106 1575 
z
M 3816 1997 
L 3816 0 
L 2688 0 
L 2688 519 
Q 2463 200 2181 54 
Q 1900 -91 1497 -91 
Q 953 -91 614 226 
Q 275 544 275 1050 
Q 275 1666 698 1953 
Q 1122 2241 2028 2241 
L 2688 2241 
L 2688 2328 
Q 2688 2594 2478 2717 
Q 2269 2841 1825 2841 
Q 1466 2841 1156 2769 
Q 847 2697 581 2553 
L 581 3406 
Q 941 3494 1303 3539 
Q 1666 3584 2028 3584 
Q 2975 3584 3395 3211 
Q 3816 2838 3816 1997 
z
" transform="scale(0.015625)"/>
     <path id="DejaVuSans-Bold-6d" d="M 3781 2919 
Q 3994 3244 4286 3414 
Q 4578 3584 4928 3584 
Q 5531 3584 5847 3212 
Q 6163 2841 6163 2131 
L 6163 0 
L 5038 0 
L 5038 1825 
Q 5041 1866 5042 1909 
Q 5044 1953 5044 2034 
Q 5044 2406 4934 2573 
Q 4825 2741 4581 2741 
Q 4263 2741 4089 2478 
Q 3916 2216 3909 1719 
L 3909 0 
L 2784 0 
L 2784 1825 
Q 2784 2406 2684 2573 
Q 2584 2741 2328 2741 
Q 2006 2741 1831 2477 
Q 1656 2213 1656 1722 
L 1656 0 
L 531 0 
L 531 3500 
L 1656 3500 
L 1656 2988 
Q 1863 3284 2130 3434 
Q 2397 3584 2719 3584 
Q 3081 3584 3359 3409 
Q 3638 3234 3781 2919 
z
" transform="scale(0.015625)"/>
     <path id="DejaVuSans-Bold-31" d="M 750 831 
L 1813 831 
L 1813 3847 
L 722 3622 
L 722 4441 
L 1806 4666 
L 2950 4666 
L 2950 831 
L 4013 831 
L 4013 0 
L 750 0 
L 750 831 
z
" transform="scale(0.015625)"/>
     <path id="DejaVuSans-Bold-34" d="M 2356 3675 
L 1038 1722 
L 2356 1722 
L 2356 3675 
z
M 2156 4666 
L 3494 4666 
L 3494 1722 
L 4159 1722 
L 4159 850 
L 3494 850 
L 3494 0 
L 2356 0 
L 2356 850 
L 288 850 
L 288 1881 
L 2156 4666 
z
" transform="scale(0.015625)"/>
     <path id="DejaVuSans-Bold-2e" d="M 653 1209 
L 1778 1209 
L 1778 0 
L 653 0 
L 653 1209 
z
" transform="scale(0.015625)"/>
     <path id="DejaVuSans-Bold-39" d="M 641 103 
L 641 966 
Q 928 831 1190 764 
Q 1453 697 1709 697 
Q 2247 697 2547 995 
Q 2847 1294 2900 1881 
Q 2688 1725 2447 1647 
Q 2206 1569 1925 1569 
Q 1209 1569 770 1986 
Q 331 2403 331 3084 
Q 331 3838 820 4291 
Q 1309 4744 2131 4744 
Q 3044 4744 3544 4128 
Q 4044 3513 4044 2388 
Q 4044 1231 3459 570 
Q 2875 -91 1856 -91 
Q 1528 -91 1228 -42 
Q 928 6 641 103 
z
M 2125 2350 
Q 2441 2350 2600 2554 
Q 2759 2759 2759 3169 
Q 2759 3575 2600 3781 
Q 2441 3988 2125 3988 
Q 1809 3988 1650 3781 
Q 1491 3575 1491 3169 
Q 1491 2759 1650 2554 
Q 1809 2350 2125 2350 
z
" transform="scale(0.015625)"/>
    </defs>
    <use xlink:href="#DejaVuSans-Bold-52"/>
    <use xlink:href="#DejaVuSans-Bold-66" x="77.001953"/>
    <use xlink:href="#DejaVuSans-Bold-61" x="120.507812"/>
    <use xlink:href="#DejaVuSans-Bold-6d" x="187.988281"/>
    <use xlink:href="#DejaVuSans-Bold-31" x="292.1875"/>
    <use xlink:href="#DejaVuSans-Bold-34" x="361.767578"/>
    <use xlink:href="#DejaVuSans-Bold-2e" x="431.347656"/>
    <use xlink:href="#DejaVuSans-Bold-39" x="469.335938"/>
   </g>
  </g>
 </g>
 <defs>
  <clipPath id="p00b380e12c">
   <rect x="117" y="54.432" width="725.4" height="342.468"/>
  </clipPath>
 </defs>
</svg>
