<?xml version="1.0" encoding="utf-8" standalone="no"?>
<!DOCTYPE svg PUBLIC "-//W3C//DTD SVG 1.1//EN"
  "http://www.w3.org/Graphics/SVG/1.1/DTD/svg11.dtd">
<svg xmlns:xlink="http://www.w3.org/1999/xlink" width="1584pt" height="432pt" viewBox="0 0 1584 432" xmlns="http://www.w3.org/2000/svg" version="1.1">
 <metadata>
  <rdf:RDF xmlns:dc="http://purl.org/dc/elements/1.1/" xmlns:cc="http://creativecommons.org/ns#" xmlns:rdf="http://www.w3.org/1999/02/22-rdf-syntax-ns#">
   <cc:Work>
    <dc:type rdf:resource="http://purl.org/dc/dcmitype/StillImage"/>
    <dc:date>2024-02-16T13:43:18.220768</dc:date>
    <dc:format>image/svg+xml</dc:format>
    <dc:creator>
     <cc:Agent>
      <dc:title>Matplotlib v3.5.1, https://matplotlib.org/</dc:title>
     </cc:Agent>
    </dc:creator>
   </cc:Work>
  </rdf:RDF>
 </metadata>
 <defs>
  <style type="text/css">*{stroke-linejoin: round; stroke-linecap: butt}</style>
 </defs>
 <g id="figure_1">
  <g id="patch_1">
   <path d="M 0 432 
L 1584 432 
L 1584 0 
L 0 0 
z
" style="fill: #ffffff"/>
  </g>
  <g id="axes_1">
   <g id="patch_2">
    <path d="M 198 378 
L 1425.6 378 
L 1425.6 51.84 
L 198 51.84 
z
" style="fill: #ffffff"/>
   </g>
   <g id="matplotlib.axis_1">
    <g id="xtick_1">
     <g id="text_1">
      <!-- SQUARNA -->
      <g style="fill: #262626" transform="translate(221.515 401.177188)scale(0.18 -0.18)">
       <defs>
        <path id="DejaVuSans-53" d="M 3425 4513 
L 3425 3897 
Q 3066 4069 2747 4153 
Q 2428 4238 2131 4238 
Q 1616 4238 1336 4038 
Q 1056 3838 1056 3469 
Q 1056 3159 1242 3001 
Q 1428 2844 1947 2747 
L 2328 2669 
Q 3034 2534 3370 2195 
Q 3706 1856 3706 1288 
Q 3706 609 3251 259 
Q 2797 -91 1919 -91 
Q 1588 -91 1214 -16 
Q 841 59 441 206 
L 441 856 
Q 825 641 1194 531 
Q 1563 422 1919 422 
Q 2459 422 2753 634 
Q 3047 847 3047 1241 
Q 3047 1584 2836 1778 
Q 2625 1972 2144 2069 
L 1759 2144 
Q 1053 2284 737 2584 
Q 422 2884 422 3419 
Q 422 4038 858 4394 
Q 1294 4750 2059 4750 
Q 2388 4750 2728 4690 
Q 3069 4631 3425 4513 
z
" transform="scale(0.015625)"/>
        <path id="DejaVuSans-51" d="M 2522 4238 
Q 1834 4238 1429 3725 
Q 1025 3213 1025 2328 
Q 1025 1447 1429 934 
Q 1834 422 2522 422 
Q 3209 422 3611 934 
Q 4013 1447 4013 2328 
Q 4013 3213 3611 3725 
Q 3209 4238 2522 4238 
z
M 3406 84 
L 4238 -825 
L 3475 -825 
L 2784 -78 
Q 2681 -84 2626 -87 
Q 2572 -91 2522 -91 
Q 1538 -91 948 567 
Q 359 1225 359 2328 
Q 359 3434 948 4092 
Q 1538 4750 2522 4750 
Q 3503 4750 4090 4092 
Q 4678 3434 4678 2328 
Q 4678 1516 4351 937 
Q 4025 359 3406 84 
z
" transform="scale(0.015625)"/>
        <path id="DejaVuSans-55" d="M 556 4666 
L 1191 4666 
L 1191 1831 
Q 1191 1081 1462 751 
Q 1734 422 2344 422 
Q 2950 422 3222 751 
Q 3494 1081 3494 1831 
L 3494 4666 
L 4128 4666 
L 4128 1753 
Q 4128 841 3676 375 
Q 3225 -91 2344 -91 
Q 1459 -91 1007 375 
Q 556 841 556 1753 
L 556 4666 
z
" transform="scale(0.015625)"/>
        <path id="DejaVuSans-41" d="M 2188 4044 
L 1331 1722 
L 3047 1722 
L 2188 4044 
z
M 1831 4666 
L 2547 4666 
L 4325 0 
L 3669 0 
L 3244 1197 
L 1141 1197 
L 716 0 
L 50 0 
L 1831 4666 
z
" transform="scale(0.015625)"/>
        <path id="DejaVuSans-52" d="M 2841 2188 
Q 3044 2119 3236 1894 
Q 3428 1669 3622 1275 
L 4263 0 
L 3584 0 
L 2988 1197 
Q 2756 1666 2539 1819 
Q 2322 1972 1947 1972 
L 1259 1972 
L 1259 0 
L 628 0 
L 628 4666 
L 2053 4666 
Q 2853 4666 3247 4331 
Q 3641 3997 3641 3322 
Q 3641 2881 3436 2590 
Q 3231 2300 2841 2188 
z
M 1259 4147 
L 1259 2491 
L 2053 2491 
Q 2509 2491 2742 2702 
Q 2975 2913 2975 3322 
Q 2975 3731 2742 3939 
Q 2509 4147 2053 4147 
L 1259 4147 
z
" transform="scale(0.015625)"/>
        <path id="DejaVuSans-4e" d="M 628 4666 
L 1478 4666 
L 3547 763 
L 3547 4666 
L 4159 4666 
L 4159 0 
L 3309 0 
L 1241 3903 
L 1241 0 
L 628 0 
L 628 4666 
z
" transform="scale(0.015625)"/>
       </defs>
       <use xlink:href="#DejaVuSans-53"/>
       <use xlink:href="#DejaVuSans-51" x="63.476562"/>
       <use xlink:href="#DejaVuSans-55" x="142.1875"/>
       <use xlink:href="#DejaVuSans-41" x="215.380859"/>
       <use xlink:href="#DejaVuSans-52" x="283.789062"/>
       <use xlink:href="#DejaVuSans-4e" x="353.271484"/>
       <use xlink:href="#DejaVuSans-41" x="428.076172"/>
      </g>
     </g>
    </g>
    <g id="xtick_2">
     <g id="text_2">
      <!-- ShapeKnots -->
      <g style="fill: #262626" transform="translate(349.086563 401.177188)scale(0.18 -0.18)">
       <defs>
        <path id="DejaVuSans-68" d="M 3513 2113 
L 3513 0 
L 2938 0 
L 2938 2094 
Q 2938 2591 2744 2837 
Q 2550 3084 2163 3084 
Q 1697 3084 1428 2787 
Q 1159 2491 1159 1978 
L 1159 0 
L 581 0 
L 581 4863 
L 1159 4863 
L 1159 2956 
Q 1366 3272 1645 3428 
Q 1925 3584 2291 3584 
Q 2894 3584 3203 3211 
Q 3513 2838 3513 2113 
z
" transform="scale(0.015625)"/>
        <path id="DejaVuSans-61" d="M 2194 1759 
Q 1497 1759 1228 1600 
Q 959 1441 959 1056 
Q 959 750 1161 570 
Q 1363 391 1709 391 
Q 2188 391 2477 730 
Q 2766 1069 2766 1631 
L 2766 1759 
L 2194 1759 
z
M 3341 1997 
L 3341 0 
L 2766 0 
L 2766 531 
Q 2569 213 2275 61 
Q 1981 -91 1556 -91 
Q 1019 -91 701 211 
Q 384 513 384 1019 
Q 384 1609 779 1909 
Q 1175 2209 1959 2209 
L 2766 2209 
L 2766 2266 
Q 2766 2663 2505 2880 
Q 2244 3097 1772 3097 
Q 1472 3097 1187 3025 
Q 903 2953 641 2809 
L 641 3341 
Q 956 3463 1253 3523 
Q 1550 3584 1831 3584 
Q 2591 3584 2966 3190 
Q 3341 2797 3341 1997 
z
" transform="scale(0.015625)"/>
        <path id="DejaVuSans-70" d="M 1159 525 
L 1159 -1331 
L 581 -1331 
L 581 3500 
L 1159 3500 
L 1159 2969 
Q 1341 3281 1617 3432 
Q 1894 3584 2278 3584 
Q 2916 3584 3314 3078 
Q 3713 2572 3713 1747 
Q 3713 922 3314 415 
Q 2916 -91 2278 -91 
Q 1894 -91 1617 61 
Q 1341 213 1159 525 
z
M 3116 1747 
Q 3116 2381 2855 2742 
Q 2594 3103 2138 3103 
Q 1681 3103 1420 2742 
Q 1159 2381 1159 1747 
Q 1159 1113 1420 752 
Q 1681 391 2138 391 
Q 2594 391 2855 752 
Q 3116 1113 3116 1747 
z
" transform="scale(0.015625)"/>
        <path id="DejaVuSans-65" d="M 3597 1894 
L 3597 1613 
L 953 1613 
Q 991 1019 1311 708 
Q 1631 397 2203 397 
Q 2534 397 2845 478 
Q 3156 559 3463 722 
L 3463 178 
Q 3153 47 2828 -22 
Q 2503 -91 2169 -91 
Q 1331 -91 842 396 
Q 353 884 353 1716 
Q 353 2575 817 3079 
Q 1281 3584 2069 3584 
Q 2775 3584 3186 3129 
Q 3597 2675 3597 1894 
z
M 3022 2063 
Q 3016 2534 2758 2815 
Q 2500 3097 2075 3097 
Q 1594 3097 1305 2825 
Q 1016 2553 972 2059 
L 3022 2063 
z
" transform="scale(0.015625)"/>
        <path id="DejaVuSans-4b" d="M 628 4666 
L 1259 4666 
L 1259 2694 
L 3353 4666 
L 4166 4666 
L 1850 2491 
L 4331 0 
L 3500 0 
L 1259 2247 
L 1259 0 
L 628 0 
L 628 4666 
z
" transform="scale(0.015625)"/>
        <path id="DejaVuSans-6e" d="M 3513 2113 
L 3513 0 
L 2938 0 
L 2938 2094 
Q 2938 2591 2744 2837 
Q 2550 3084 2163 3084 
Q 1697 3084 1428 2787 
Q 1159 2491 1159 1978 
L 1159 0 
L 581 0 
L 581 3500 
L 1159 3500 
L 1159 2956 
Q 1366 3272 1645 3428 
Q 1925 3584 2291 3584 
Q 2894 3584 3203 3211 
Q 3513 2838 3513 2113 
z
" transform="scale(0.015625)"/>
        <path id="DejaVuSans-6f" d="M 1959 3097 
Q 1497 3097 1228 2736 
Q 959 2375 959 1747 
Q 959 1119 1226 758 
Q 1494 397 1959 397 
Q 2419 397 2687 759 
Q 2956 1122 2956 1747 
Q 2956 2369 2687 2733 
Q 2419 3097 1959 3097 
z
M 1959 3584 
Q 2709 3584 3137 3096 
Q 3566 2609 3566 1747 
Q 3566 888 3137 398 
Q 2709 -91 1959 -91 
Q 1206 -91 779 398 
Q 353 888 353 1747 
Q 353 2609 779 3096 
Q 1206 3584 1959 3584 
z
" transform="scale(0.015625)"/>
        <path id="DejaVuSans-74" d="M 1172 4494 
L 1172 3500 
L 2356 3500 
L 2356 3053 
L 1172 3053 
L 1172 1153 
Q 1172 725 1289 603 
Q 1406 481 1766 481 
L 2356 481 
L 2356 0 
L 1766 0 
Q 1100 0 847 248 
Q 594 497 594 1153 
L 594 3053 
L 172 3053 
L 172 3500 
L 594 3500 
L 594 4494 
L 1172 4494 
z
" transform="scale(0.015625)"/>
        <path id="DejaVuSans-73" d="M 2834 3397 
L 2834 2853 
Q 2591 2978 2328 3040 
Q 2066 3103 1784 3103 
Q 1356 3103 1142 2972 
Q 928 2841 928 2578 
Q 928 2378 1081 2264 
Q 1234 2150 1697 2047 
L 1894 2003 
Q 2506 1872 2764 1633 
Q 3022 1394 3022 966 
Q 3022 478 2636 193 
Q 2250 -91 1575 -91 
Q 1294 -91 989 -36 
Q 684 19 347 128 
L 347 722 
Q 666 556 975 473 
Q 1284 391 1588 391 
Q 1994 391 2212 530 
Q 2431 669 2431 922 
Q 2431 1156 2273 1281 
Q 2116 1406 1581 1522 
L 1381 1569 
Q 847 1681 609 1914 
Q 372 2147 372 2553 
Q 372 3047 722 3315 
Q 1072 3584 1716 3584 
Q 2034 3584 2315 3537 
Q 2597 3491 2834 3397 
z
" transform="scale(0.015625)"/>
       </defs>
       <use xlink:href="#DejaVuSans-53"/>
       <use xlink:href="#DejaVuSans-68" x="63.476562"/>
       <use xlink:href="#DejaVuSans-61" x="126.855469"/>
       <use xlink:href="#DejaVuSans-70" x="188.134766"/>
       <use xlink:href="#DejaVuSans-65" x="251.611328"/>
       <use xlink:href="#DejaVuSans-4b" x="313.134766"/>
       <use xlink:href="#DejaVuSans-6e" x="378.710938"/>
       <use xlink:href="#DejaVuSans-6f" x="442.089844"/>
       <use xlink:href="#DejaVuSans-74" x="503.271484"/>
       <use xlink:href="#DejaVuSans-73" x="542.480469"/>
      </g>
     </g>
    </g>
    <g id="xtick_3">
     <g id="text_3">
      <!-- RNAfold -->
      <g style="fill: #262626" transform="translate(503.293906 401.177188)scale(0.18 -0.18)">
       <defs>
        <path id="DejaVuSans-66" d="M 2375 4863 
L 2375 4384 
L 1825 4384 
Q 1516 4384 1395 4259 
Q 1275 4134 1275 3809 
L 1275 3500 
L 2222 3500 
L 2222 3053 
L 1275 3053 
L 1275 0 
L 697 0 
L 697 3053 
L 147 3053 
L 147 3500 
L 697 3500 
L 697 3744 
Q 697 4328 969 4595 
Q 1241 4863 1831 4863 
L 2375 4863 
z
" transform="scale(0.015625)"/>
        <path id="DejaVuSans-6c" d="M 603 4863 
L 1178 4863 
L 1178 0 
L 603 0 
L 603 4863 
z
" transform="scale(0.015625)"/>
        <path id="DejaVuSans-64" d="M 2906 2969 
L 2906 4863 
L 3481 4863 
L 3481 0 
L 2906 0 
L 2906 525 
Q 2725 213 2448 61 
Q 2172 -91 1784 -91 
Q 1150 -91 751 415 
Q 353 922 353 1747 
Q 353 2572 751 3078 
Q 1150 3584 1784 3584 
Q 2172 3584 2448 3432 
Q 2725 3281 2906 2969 
z
M 947 1747 
Q 947 1113 1208 752 
Q 1469 391 1925 391 
Q 2381 391 2643 752 
Q 2906 1113 2906 1747 
Q 2906 2381 2643 2742 
Q 2381 3103 1925 3103 
Q 1469 3103 1208 2742 
Q 947 2381 947 1747 
z
" transform="scale(0.015625)"/>
       </defs>
       <use xlink:href="#DejaVuSans-52"/>
       <use xlink:href="#DejaVuSans-4e" x="69.482422"/>
       <use xlink:href="#DejaVuSans-41" x="144.287109"/>
       <use xlink:href="#DejaVuSans-66" x="209.070312"/>
       <use xlink:href="#DejaVuSans-6f" x="244.275391"/>
       <use xlink:href="#DejaVuSans-6c" x="305.457031"/>
       <use xlink:href="#DejaVuSans-64" x="333.240234"/>
      </g>
     </g>
    </g>
    <g id="xtick_4">
     <g id="text_4">
      <!-- IPknot -->
      <g style="fill: #262626" transform="translate(647.367813 401.177188)scale(0.18 -0.18)">
       <defs>
        <path id="DejaVuSans-49" d="M 628 4666 
L 1259 4666 
L 1259 0 
L 628 0 
L 628 4666 
z
" transform="scale(0.015625)"/>
        <path id="DejaVuSans-50" d="M 1259 4147 
L 1259 2394 
L 2053 2394 
Q 2494 2394 2734 2622 
Q 2975 2850 2975 3272 
Q 2975 3691 2734 3919 
Q 2494 4147 2053 4147 
L 1259 4147 
z
M 628 4666 
L 2053 4666 
Q 2838 4666 3239 4311 
Q 3641 3956 3641 3272 
Q 3641 2581 3239 2228 
Q 2838 1875 2053 1875 
L 1259 1875 
L 1259 0 
L 628 0 
L 628 4666 
z
" transform="scale(0.015625)"/>
        <path id="DejaVuSans-6b" d="M 581 4863 
L 1159 4863 
L 1159 1991 
L 2875 3500 
L 3609 3500 
L 1753 1863 
L 3688 0 
L 2938 0 
L 1159 1709 
L 1159 0 
L 581 0 
L 581 4863 
z
" transform="scale(0.015625)"/>
       </defs>
       <use xlink:href="#DejaVuSans-49"/>
       <use xlink:href="#DejaVuSans-50" x="29.492188"/>
       <use xlink:href="#DejaVuSans-6b" x="89.794922"/>
       <use xlink:href="#DejaVuSans-6e" x="147.705078"/>
       <use xlink:href="#DejaVuSans-6f" x="211.083984"/>
       <use xlink:href="#DejaVuSans-74" x="272.265625"/>
      </g>
     </g>
    </g>
    <g id="xtick_5">
     <g id="text_5">
      <!-- SPOT-RNA -->
      <g style="fill: #262626" transform="translate(766.508906 401.177188)scale(0.18 -0.18)">
       <defs>
        <path id="DejaVuSans-4f" d="M 2522 4238 
Q 1834 4238 1429 3725 
Q 1025 3213 1025 2328 
Q 1025 1447 1429 934 
Q 1834 422 2522 422 
Q 3209 422 3611 934 
Q 4013 1447 4013 2328 
Q 4013 3213 3611 3725 
Q 3209 4238 2522 4238 
z
M 2522 4750 
Q 3503 4750 4090 4092 
Q 4678 3434 4678 2328 
Q 4678 1225 4090 567 
Q 3503 -91 2522 -91 
Q 1538 -91 948 565 
Q 359 1222 359 2328 
Q 359 3434 948 4092 
Q 1538 4750 2522 4750 
z
" transform="scale(0.015625)"/>
        <path id="DejaVuSans-54" d="M -19 4666 
L 3928 4666 
L 3928 4134 
L 2272 4134 
L 2272 0 
L 1638 0 
L 1638 4134 
L -19 4134 
L -19 4666 
z
" transform="scale(0.015625)"/>
        <path id="DejaVuSans-2d" d="M 313 2009 
L 1997 2009 
L 1997 1497 
L 313 1497 
L 313 2009 
z
" transform="scale(0.015625)"/>
       </defs>
       <use xlink:href="#DejaVuSans-53"/>
       <use xlink:href="#DejaVuSans-50" x="63.476562"/>
       <use xlink:href="#DejaVuSans-4f" x="123.779297"/>
       <use xlink:href="#DejaVuSans-54" x="202.490234"/>
       <use xlink:href="#DejaVuSans-2d" x="254.449219"/>
       <use xlink:href="#DejaVuSans-52" x="290.533203"/>
       <use xlink:href="#DejaVuSans-4e" x="360.015625"/>
       <use xlink:href="#DejaVuSans-41" x="434.820312"/>
      </g>
     </g>
    </g>
    <g id="xtick_6">
     <g id="text_6">
      <!-- MXfold2 -->
      <g style="fill: #262626" transform="translate(911.654375 401.177188)scale(0.18 -0.18)">
       <defs>
        <path id="DejaVuSans-4d" d="M 628 4666 
L 1569 4666 
L 2759 1491 
L 3956 4666 
L 4897 4666 
L 4897 0 
L 4281 0 
L 4281 4097 
L 3078 897 
L 2444 897 
L 1241 4097 
L 1241 0 
L 628 0 
L 628 4666 
z
" transform="scale(0.015625)"/>
        <path id="DejaVuSans-58" d="M 403 4666 
L 1081 4666 
L 2241 2931 
L 3406 4666 
L 4084 4666 
L 2584 2425 
L 4184 0 
L 3506 0 
L 2194 1984 
L 872 0 
L 191 0 
L 1856 2491 
L 403 4666 
z
" transform="scale(0.015625)"/>
        <path id="DejaVuSans-32" d="M 1228 531 
L 3431 531 
L 3431 0 
L 469 0 
L 469 531 
Q 828 903 1448 1529 
Q 2069 2156 2228 2338 
Q 2531 2678 2651 2914 
Q 2772 3150 2772 3378 
Q 2772 3750 2511 3984 
Q 2250 4219 1831 4219 
Q 1534 4219 1204 4116 
Q 875 4013 500 3803 
L 500 4441 
Q 881 4594 1212 4672 
Q 1544 4750 1819 4750 
Q 2544 4750 2975 4387 
Q 3406 4025 3406 3419 
Q 3406 3131 3298 2873 
Q 3191 2616 2906 2266 
Q 2828 2175 2409 1742 
Q 1991 1309 1228 531 
z
" transform="scale(0.015625)"/>
       </defs>
       <use xlink:href="#DejaVuSans-4d"/>
       <use xlink:href="#DejaVuSans-58" x="86.279297"/>
       <use xlink:href="#DejaVuSans-66" x="154.785156"/>
       <use xlink:href="#DejaVuSans-6f" x="189.990234"/>
       <use xlink:href="#DejaVuSans-6c" x="251.171875"/>
       <use xlink:href="#DejaVuSans-64" x="278.955078"/>
       <use xlink:href="#DejaVuSans-32" x="342.431641"/>
      </g>
     </g>
    </g>
    <g id="xtick_7">
     <g id="text_7">
      <!-- SQUARNA -->
      <g style="fill: #262626" transform="translate(1039.915 401.177188)scale(0.18 -0.18)">
       <use xlink:href="#DejaVuSans-53"/>
       <use xlink:href="#DejaVuSans-51" x="63.476562"/>
       <use xlink:href="#DejaVuSans-55" x="142.1875"/>
       <use xlink:href="#DejaVuSans-41" x="215.380859"/>
       <use xlink:href="#DejaVuSans-52" x="283.789062"/>
       <use xlink:href="#DejaVuSans-4e" x="353.271484"/>
       <use xlink:href="#DejaVuSans-41" x="428.076172"/>
      </g>
      <!-- top-5 -->
      <g style="fill: #262626" transform="translate(1060.877969 421.33325)scale(0.18 -0.18)">
       <defs>
        <path id="DejaVuSans-35" d="M 691 4666 
L 3169 4666 
L 3169 4134 
L 1269 4134 
L 1269 2991 
Q 1406 3038 1543 3061 
Q 1681 3084 1819 3084 
Q 2600 3084 3056 2656 
Q 3513 2228 3513 1497 
Q 3513 744 3044 326 
Q 2575 -91 1722 -91 
Q 1428 -91 1123 -41 
Q 819 9 494 109 
L 494 744 
Q 775 591 1075 516 
Q 1375 441 1709 441 
Q 2250 441 2565 725 
Q 2881 1009 2881 1497 
Q 2881 1984 2565 2268 
Q 2250 2553 1709 2553 
Q 1456 2553 1204 2497 
Q 953 2441 691 2322 
L 691 4666 
z
" transform="scale(0.015625)"/>
       </defs>
       <use xlink:href="#DejaVuSans-74"/>
       <use xlink:href="#DejaVuSans-6f" x="39.208984"/>
       <use xlink:href="#DejaVuSans-70" x="100.390625"/>
       <use xlink:href="#DejaVuSans-2d" x="163.867188"/>
       <use xlink:href="#DejaVuSans-35" x="199.951172"/>
      </g>
     </g>
    </g>
    <g id="xtick_8">
     <g id="text_8">
      <!-- ShapeKnots -->
      <g style="fill: #262626" transform="translate(1167.486562 401.177188)scale(0.18 -0.18)">
       <use xlink:href="#DejaVuSans-53"/>
       <use xlink:href="#DejaVuSans-68" x="63.476562"/>
       <use xlink:href="#DejaVuSans-61" x="126.855469"/>
       <use xlink:href="#DejaVuSans-70" x="188.134766"/>
       <use xlink:href="#DejaVuSans-65" x="251.611328"/>
       <use xlink:href="#DejaVuSans-4b" x="313.134766"/>
       <use xlink:href="#DejaVuSans-6e" x="378.710938"/>
       <use xlink:href="#DejaVuSans-6f" x="442.089844"/>
       <use xlink:href="#DejaVuSans-74" x="503.271484"/>
       <use xlink:href="#DejaVuSans-73" x="542.480469"/>
      </g>
      <!-- top-5 -->
      <g style="fill: #262626" transform="translate(1197.277969 421.33325)scale(0.18 -0.18)">
       <use xlink:href="#DejaVuSans-74"/>
       <use xlink:href="#DejaVuSans-6f" x="39.208984"/>
       <use xlink:href="#DejaVuSans-70" x="100.390625"/>
       <use xlink:href="#DejaVuSans-2d" x="163.867188"/>
       <use xlink:href="#DejaVuSans-35" x="199.951172"/>
      </g>
     </g>
    </g>
    <g id="xtick_9">
     <g id="text_9">
      <!-- RNAsubopt -->
      <g style="fill: #262626" transform="translate(1307.402188 401.177188)scale(0.18 -0.18)">
       <defs>
        <path id="DejaVuSans-75" d="M 544 1381 
L 544 3500 
L 1119 3500 
L 1119 1403 
Q 1119 906 1312 657 
Q 1506 409 1894 409 
Q 2359 409 2629 706 
Q 2900 1003 2900 1516 
L 2900 3500 
L 3475 3500 
L 3475 0 
L 2900 0 
L 2900 538 
Q 2691 219 2414 64 
Q 2138 -91 1772 -91 
Q 1169 -91 856 284 
Q 544 659 544 1381 
z
M 1991 3584 
L 1991 3584 
z
" transform="scale(0.015625)"/>
        <path id="DejaVuSans-62" d="M 3116 1747 
Q 3116 2381 2855 2742 
Q 2594 3103 2138 3103 
Q 1681 3103 1420 2742 
Q 1159 2381 1159 1747 
Q 1159 1113 1420 752 
Q 1681 391 2138 391 
Q 2594 391 2855 752 
Q 3116 1113 3116 1747 
z
M 1159 2969 
Q 1341 3281 1617 3432 
Q 1894 3584 2278 3584 
Q 2916 3584 3314 3078 
Q 3713 2572 3713 1747 
Q 3713 922 3314 415 
Q 2916 -91 2278 -91 
Q 1894 -91 1617 61 
Q 1341 213 1159 525 
L 1159 0 
L 581 0 
L 581 4863 
L 1159 4863 
L 1159 2969 
z
" transform="scale(0.015625)"/>
       </defs>
       <use xlink:href="#DejaVuSans-52"/>
       <use xlink:href="#DejaVuSans-4e" x="69.482422"/>
       <use xlink:href="#DejaVuSans-41" x="144.287109"/>
       <use xlink:href="#DejaVuSans-73" x="212.695312"/>
       <use xlink:href="#DejaVuSans-75" x="264.794922"/>
       <use xlink:href="#DejaVuSans-62" x="328.173828"/>
       <use xlink:href="#DejaVuSans-6f" x="391.650391"/>
       <use xlink:href="#DejaVuSans-70" x="452.832031"/>
       <use xlink:href="#DejaVuSans-74" x="516.308594"/>
      </g>
      <!-- top-5 -->
      <g style="fill: #262626" transform="translate(1333.677969 421.33325)scale(0.18 -0.18)">
       <use xlink:href="#DejaVuSans-74"/>
       <use xlink:href="#DejaVuSans-6f" x="39.208984"/>
       <use xlink:href="#DejaVuSans-70" x="100.390625"/>
       <use xlink:href="#DejaVuSans-2d" x="163.867188"/>
       <use xlink:href="#DejaVuSans-35" x="199.951172"/>
      </g>
     </g>
    </g>
   </g>
   <g id="matplotlib.axis_2">
    <g id="ytick_1">
     <g id="line2d_1">
      <path d="M 198 378 
L 1425.6 378 
" clip-path="url(#p154c087d0f)" style="fill: none; stroke: #cccccc; stroke-linecap: round"/>
     </g>
     <g id="text_10">
      <!-- 0.0 -->
      <g style="fill: #262626" transform="translate(166.235625 383.318906)scale(0.14 -0.14)">
       <defs>
        <path id="DejaVuSans-30" d="M 2034 4250 
Q 1547 4250 1301 3770 
Q 1056 3291 1056 2328 
Q 1056 1369 1301 889 
Q 1547 409 2034 409 
Q 2525 409 2770 889 
Q 3016 1369 3016 2328 
Q 3016 3291 2770 3770 
Q 2525 4250 2034 4250 
z
M 2034 4750 
Q 2819 4750 3233 4129 
Q 3647 3509 3647 2328 
Q 3647 1150 3233 529 
Q 2819 -91 2034 -91 
Q 1250 -91 836 529 
Q 422 1150 422 2328 
Q 422 3509 836 4129 
Q 1250 4750 2034 4750 
z
" transform="scale(0.015625)"/>
        <path id="DejaVuSans-2e" d="M 684 794 
L 1344 794 
L 1344 0 
L 684 0 
L 684 794 
z
" transform="scale(0.015625)"/>
       </defs>
       <use xlink:href="#DejaVuSans-30"/>
       <use xlink:href="#DejaVuSans-2e" x="63.623047"/>
       <use xlink:href="#DejaVuSans-30" x="95.410156"/>
      </g>
     </g>
    </g>
    <g id="ytick_2">
     <g id="line2d_2">
      <path d="M 198 312.768 
L 1425.6 312.768 
" clip-path="url(#p154c087d0f)" style="fill: none; stroke: #cccccc; stroke-linecap: round"/>
     </g>
     <g id="text_11">
      <!-- 0.2 -->
      <g style="fill: #262626" transform="translate(166.235625 318.086906)scale(0.14 -0.14)">
       <use xlink:href="#DejaVuSans-30"/>
       <use xlink:href="#DejaVuSans-2e" x="63.623047"/>
       <use xlink:href="#DejaVuSans-32" x="95.410156"/>
      </g>
     </g>
    </g>
    <g id="ytick_3">
     <g id="line2d_3">
      <path d="M 198 247.536 
L 1425.6 247.536 
" clip-path="url(#p154c087d0f)" style="fill: none; stroke: #cccccc; stroke-linecap: round"/>
     </g>
     <g id="text_12">
      <!-- 0.4 -->
      <g style="fill: #262626" transform="translate(166.235625 252.854906)scale(0.14 -0.14)">
       <defs>
        <path id="DejaVuSans-34" d="M 2419 4116 
L 825 1625 
L 2419 1625 
L 2419 4116 
z
M 2253 4666 
L 3047 4666 
L 3047 1625 
L 3713 1625 
L 3713 1100 
L 3047 1100 
L 3047 0 
L 2419 0 
L 2419 1100 
L 313 1100 
L 313 1709 
L 2253 4666 
z
" transform="scale(0.015625)"/>
       </defs>
       <use xlink:href="#DejaVuSans-30"/>
       <use xlink:href="#DejaVuSans-2e" x="63.623047"/>
       <use xlink:href="#DejaVuSans-34" x="95.410156"/>
      </g>
     </g>
    </g>
    <g id="ytick_4">
     <g id="line2d_4">
      <path d="M 198 182.304 
L 1425.6 182.304 
" clip-path="url(#p154c087d0f)" style="fill: none; stroke: #cccccc; stroke-linecap: round"/>
     </g>
     <g id="text_13">
      <!-- 0.6 -->
      <g style="fill: #262626" transform="translate(166.235625 187.622906)scale(0.14 -0.14)">
       <defs>
        <path id="DejaVuSans-36" d="M 2113 2584 
Q 1688 2584 1439 2293 
Q 1191 2003 1191 1497 
Q 1191 994 1439 701 
Q 1688 409 2113 409 
Q 2538 409 2786 701 
Q 3034 994 3034 1497 
Q 3034 2003 2786 2293 
Q 2538 2584 2113 2584 
z
M 3366 4563 
L 3366 3988 
Q 3128 4100 2886 4159 
Q 2644 4219 2406 4219 
Q 1781 4219 1451 3797 
Q 1122 3375 1075 2522 
Q 1259 2794 1537 2939 
Q 1816 3084 2150 3084 
Q 2853 3084 3261 2657 
Q 3669 2231 3669 1497 
Q 3669 778 3244 343 
Q 2819 -91 2113 -91 
Q 1303 -91 875 529 
Q 447 1150 447 2328 
Q 447 3434 972 4092 
Q 1497 4750 2381 4750 
Q 2619 4750 2861 4703 
Q 3103 4656 3366 4563 
z
" transform="scale(0.015625)"/>
       </defs>
       <use xlink:href="#DejaVuSans-30"/>
       <use xlink:href="#DejaVuSans-2e" x="63.623047"/>
       <use xlink:href="#DejaVuSans-36" x="95.410156"/>
      </g>
     </g>
    </g>
    <g id="ytick_5">
     <g id="line2d_5">
      <path d="M 198 117.072 
L 1425.6 117.072 
" clip-path="url(#p154c087d0f)" style="fill: none; stroke: #cccccc; stroke-linecap: round"/>
     </g>
     <g id="text_14">
      <!-- 0.8 -->
      <g style="fill: #262626" transform="translate(166.235625 122.390906)scale(0.14 -0.14)">
       <defs>
        <path id="DejaVuSans-38" d="M 2034 2216 
Q 1584 2216 1326 1975 
Q 1069 1734 1069 1313 
Q 1069 891 1326 650 
Q 1584 409 2034 409 
Q 2484 409 2743 651 
Q 3003 894 3003 1313 
Q 3003 1734 2745 1975 
Q 2488 2216 2034 2216 
z
M 1403 2484 
Q 997 2584 770 2862 
Q 544 3141 544 3541 
Q 544 4100 942 4425 
Q 1341 4750 2034 4750 
Q 2731 4750 3128 4425 
Q 3525 4100 3525 3541 
Q 3525 3141 3298 2862 
Q 3072 2584 2669 2484 
Q 3125 2378 3379 2068 
Q 3634 1759 3634 1313 
Q 3634 634 3220 271 
Q 2806 -91 2034 -91 
Q 1263 -91 848 271 
Q 434 634 434 1313 
Q 434 1759 690 2068 
Q 947 2378 1403 2484 
z
M 1172 3481 
Q 1172 3119 1398 2916 
Q 1625 2713 2034 2713 
Q 2441 2713 2670 2916 
Q 2900 3119 2900 3481 
Q 2900 3844 2670 4047 
Q 2441 4250 2034 4250 
Q 1625 4250 1398 4047 
Q 1172 3844 1172 3481 
z
" transform="scale(0.015625)"/>
       </defs>
       <use xlink:href="#DejaVuSans-30"/>
       <use xlink:href="#DejaVuSans-2e" x="63.623047"/>
       <use xlink:href="#DejaVuSans-38" x="95.410156"/>
      </g>
     </g>
    </g>
    <g id="ytick_6">
     <g id="line2d_6">
      <path d="M 198 51.84 
L 1425.6 51.84 
" clip-path="url(#p154c087d0f)" style="fill: none; stroke: #cccccc; stroke-linecap: round"/>
     </g>
     <g id="text_15">
      <!-- 1.0 -->
      <g style="fill: #262626" transform="translate(166.235625 57.158906)scale(0.14 -0.14)">
       <defs>
        <path id="DejaVuSans-31" d="M 794 531 
L 1825 531 
L 1825 4091 
L 703 3866 
L 703 4441 
L 1819 4666 
L 2450 4666 
L 2450 531 
L 3481 531 
L 3481 0 
L 794 0 
L 794 531 
z
" transform="scale(0.015625)"/>
       </defs>
       <use xlink:href="#DejaVuSans-31"/>
       <use xlink:href="#DejaVuSans-2e" x="63.623047"/>
       <use xlink:href="#DejaVuSans-30" x="95.410156"/>
      </g>
     </g>
    </g>
    <g id="text_16">
     <!-- F-score -->
     <g style="fill: #262626" transform="translate(158.07625 251.145)rotate(-90)scale(0.2 -0.2)">
      <defs>
       <path id="DejaVuSans-46" d="M 628 4666 
L 3309 4666 
L 3309 4134 
L 1259 4134 
L 1259 2759 
L 3109 2759 
L 3109 2228 
L 1259 2228 
L 1259 0 
L 628 0 
L 628 4666 
z
" transform="scale(0.015625)"/>
       <path id="DejaVuSans-63" d="M 3122 3366 
L 3122 2828 
Q 2878 2963 2633 3030 
Q 2388 3097 2138 3097 
Q 1578 3097 1268 2742 
Q 959 2388 959 1747 
Q 959 1106 1268 751 
Q 1578 397 2138 397 
Q 2388 397 2633 464 
Q 2878 531 3122 666 
L 3122 134 
Q 2881 22 2623 -34 
Q 2366 -91 2075 -91 
Q 1284 -91 818 406 
Q 353 903 353 1747 
Q 353 2603 823 3093 
Q 1294 3584 2113 3584 
Q 2378 3584 2631 3529 
Q 2884 3475 3122 3366 
z
" transform="scale(0.015625)"/>
       <path id="DejaVuSans-72" d="M 2631 2963 
Q 2534 3019 2420 3045 
Q 2306 3072 2169 3072 
Q 1681 3072 1420 2755 
Q 1159 2438 1159 1844 
L 1159 0 
L 581 0 
L 581 3500 
L 1159 3500 
L 1159 2956 
Q 1341 3275 1631 3429 
Q 1922 3584 2338 3584 
Q 2397 3584 2469 3576 
Q 2541 3569 2628 3553 
L 2631 2963 
z
" transform="scale(0.015625)"/>
      </defs>
      <use xlink:href="#DejaVuSans-46"/>
      <use xlink:href="#DejaVuSans-2d" x="57.519531"/>
      <use xlink:href="#DejaVuSans-73" x="93.603516"/>
      <use xlink:href="#DejaVuSans-63" x="145.703125"/>
      <use xlink:href="#DejaVuSans-6f" x="200.683594"/>
      <use xlink:href="#DejaVuSans-72" x="261.865234"/>
      <use xlink:href="#DejaVuSans-65" x="300.728516"/>
     </g>
    </g>
   </g>
   <g id="PolyCollection_1">
    <defs>
     <path id="m808d2678e1" d="M 269.053155 -54 
L 263.346845 -54 
L 263.271538 -57.294545 
L 263.209432 -60.589091 
L 263.156913 -63.883636 
L 263.109488 -67.178182 
L 263.062053 -70.472727 
L 263.009205 -73.767273 
L 262.9456 -77.061818 
L 262.866302 -80.356364 
L 262.767124 -83.650909 
L 262.644915 -86.945455 
L 262.497795 -90.24 
L 262.325298 -93.534545 
L 262.128426 -96.829091 
L 261.909614 -100.123636 
L 261.672595 -103.418182 
L 261.422182 -106.712727 
L 261.163982 -110.007273 
L 260.904053 -113.301818 
L 260.648533 -116.596364 
L 260.403261 -119.890909 
L 260.173418 -123.185455 
L 259.963204 -126.48 
L 259.775585 -129.774545 
L 259.61212 -133.069091 
L 259.472877 -136.363636 
L 259.356455 -139.658182 
L 259.260094 -142.952727 
L 259.179887 -146.247273 
L 259.11105 -149.541818 
L 259.048251 -152.836364 
L 258.985955 -156.130909 
L 258.918774 -159.425455 
L 258.841772 -162.72 
L 258.750725 -166.014545 
L 258.642297 -169.309091 
L 258.514142 -172.603636 
L 258.364904 -175.898182 
L 258.194148 -179.192727 
L 258.002218 -182.487273 
L 257.790045 -185.781818 
L 257.558935 -189.076364 
L 257.310352 -192.370909 
L 257.04572 -195.665455 
L 256.766274 -198.96 
L 256.47295 -202.254545 
L 256.166343 -205.549091 
L 255.846714 -208.843636 
L 255.514059 -212.138182 
L 255.168198 -215.432727 
L 254.808911 -218.727273 
L 254.436063 -222.021818 
L 254.04974 -225.316364 
L 253.650355 -228.610909 
L 253.238737 -231.905455 
L 252.816183 -235.2 
L 252.384478 -238.494545 
L 251.94588 -241.789091 
L 251.503076 -245.083636 
L 251.059105 -248.378182 
L 250.61726 -251.672727 
L 250.180965 -254.967273 
L 249.753629 -258.261818 
L 249.338483 -261.556364 
L 248.938391 -264.850909 
L 248.555654 -268.145455 
L 248.191796 -271.44 
L 247.847347 -274.734545 
L 247.521635 -278.029091 
L 247.212597 -281.323636 
L 246.916642 -284.618182 
L 246.628563 -287.912727 
L 246.34154 -291.207273 
L 246.04724 -294.501818 
L 245.73604 -297.796364 
L 245.39737 -301.090909 
L 245.020183 -304.385455 
L 244.593544 -307.68 
L 244.107318 -310.974545 
L 243.552919 -314.269091 
L 242.924102 -317.563636 
L 242.217733 -320.858182 
L 241.434498 -324.152727 
L 240.579497 -327.447273 
L 239.662671 -330.741818 
L 238.699016 -334.036364 
L 237.708547 -337.330909 
L 236.715978 -340.625455 
L 235.750115 -343.92 
L 234.842954 -347.214545 
L 234.028513 -350.509091 
L 233.341443 -353.803636 
L 232.815469 -357.098182 
L 232.481756 -360.392727 
L 232.367289 -363.687273 
L 232.493358 -366.981818 
L 232.874276 -370.276364 
L 233.516398 -373.570909 
L 234.417547 -376.865455 
L 235.566875 -380.16 
L 296.833125 -380.16 
L 296.833125 -380.16 
L 297.982453 -376.865455 
L 298.883602 -373.570909 
L 299.525724 -370.276364 
L 299.906642 -366.981818 
L 300.032711 -363.687273 
L 299.918244 -360.392727 
L 299.584531 -357.098182 
L 299.058557 -353.803636 
L 298.371487 -350.509091 
L 297.557046 -347.214545 
L 296.649885 -343.92 
L 295.684022 -340.625455 
L 294.691453 -337.330909 
L 293.700984 -334.036364 
L 292.737329 -330.741818 
L 291.820503 -327.447273 
L 290.965502 -324.152727 
L 290.182267 -320.858182 
L 289.475898 -317.563636 
L 288.847081 -314.269091 
L 288.292682 -310.974545 
L 287.806456 -307.68 
L 287.379817 -304.385455 
L 287.00263 -301.090909 
L 286.66396 -297.796364 
L 286.35276 -294.501818 
L 286.05846 -291.207273 
L 285.771437 -287.912727 
L 285.483358 -284.618182 
L 285.187403 -281.323636 
L 284.878365 -278.029091 
L 284.552653 -274.734545 
L 284.208204 -271.44 
L 283.844346 -268.145455 
L 283.461609 -264.850909 
L 283.061517 -261.556364 
L 282.646371 -258.261818 
L 282.219035 -254.967273 
L 281.78274 -251.672727 
L 281.340895 -248.378182 
L 280.896924 -245.083636 
L 280.45412 -241.789091 
L 280.015522 -238.494545 
L 279.583817 -235.2 
L 279.161263 -231.905455 
L 278.749645 -228.610909 
L 278.35026 -225.316364 
L 277.963937 -222.021818 
L 277.591089 -218.727273 
L 277.231802 -215.432727 
L 276.885941 -212.138182 
L 276.553286 -208.843636 
L 276.233657 -205.549091 
L 275.92705 -202.254545 
L 275.633726 -198.96 
L 275.35428 -195.665455 
L 275.089648 -192.370909 
L 274.841065 -189.076364 
L 274.609955 -185.781818 
L 274.397782 -182.487273 
L 274.205852 -179.192727 
L 274.035096 -175.898182 
L 273.885858 -172.603636 
L 273.757703 -169.309091 
L 273.649275 -166.014545 
L 273.558228 -162.72 
L 273.481226 -159.425455 
L 273.414045 -156.130909 
L 273.351749 -152.836364 
L 273.28895 -149.541818 
L 273.220113 -146.247273 
L 273.139906 -142.952727 
L 273.043545 -139.658182 
L 272.927123 -136.363636 
L 272.78788 -133.069091 
L 272.624415 -129.774545 
L 272.436796 -126.48 
L 272.226582 -123.185455 
L 271.996739 -119.890909 
L 271.751467 -116.596364 
L 271.495947 -113.301818 
L 271.236018 -110.007273 
L 270.977818 -106.712727 
L 270.727405 -103.418182 
L 270.490386 -100.123636 
L 270.271574 -96.829091 
L 270.074702 -93.534545 
L 269.902205 -90.24 
L 269.755085 -86.945455 
L 269.632876 -83.650909 
L 269.533698 -80.356364 
L 269.4544 -77.061818 
L 269.390795 -73.767273 
L 269.337947 -70.472727 
L 269.290512 -67.178182 
L 269.243087 -63.883636 
L 269.190568 -60.589091 
L 269.128462 -57.294545 
L 269.053155 -54 
z
" style="stroke: #7f7f7f; stroke-width: 3"/>
    </defs>
    <g clip-path="url(#p154c087d0f)">
     <use xlink:href="#m808d2678e1" x="0" y="432" style="fill: #d3d3d3; stroke: #7f7f7f; stroke-width: 3"/>
    </g>
   </g>
   <g id="PolyCollection_2">
    <defs>
     <path id="mc4d509693b" d="M 405.660655 -54 
L 399.539345 -54 
L 399.534697 -57.294545 
L 399.565521 -60.589091 
L 399.628612 -63.883636 
L 399.719237 -67.178182 
L 399.831411 -70.472727 
L 399.958233 -73.767273 
L 400.092275 -77.061818 
L 400.225963 -80.356364 
L 400.351944 -83.650909 
L 400.463404 -86.945455 
L 400.554317 -90.24 
L 400.619623 -93.534545 
L 400.655334 -96.829091 
L 400.658575 -100.123636 
L 400.627569 -103.418182 
L 400.561584 -106.712727 
L 400.46086 -110.007273 
L 400.326521 -113.301818 
L 400.160485 -116.596364 
L 399.965379 -119.890909 
L 399.744452 -123.185455 
L 399.501491 -126.48 
L 399.24073 -129.774545 
L 398.966748 -133.069091 
L 398.684348 -136.363636 
L 398.398422 -139.658182 
L 398.113799 -142.952727 
L 397.835071 -146.247273 
L 397.566424 -149.541818 
L 397.31146 -152.836364 
L 397.07304 -156.130909 
L 396.853142 -159.425455 
L 396.65276 -162.72 
L 396.471841 -166.014545 
L 396.309265 -169.309091 
L 396.162882 -172.603636 
L 396.029592 -175.898182 
L 395.905478 -179.192727 
L 395.785972 -182.487273 
L 395.666062 -185.781818 
L 395.540513 -189.076364 
L 395.404105 -192.370909 
L 395.251865 -195.665455 
L 395.079291 -198.96 
L 394.882549 -202.254545 
L 394.658636 -205.549091 
L 394.405498 -208.843636 
L 394.122108 -212.138182 
L 393.808487 -215.432727 
L 393.465684 -218.727273 
L 393.095702 -222.021818 
L 392.701395 -225.316364 
L 392.286331 -228.610909 
L 391.854631 -231.905455 
L 391.410807 -235.2 
L 390.959582 -238.494545 
L 390.505727 -241.789091 
L 390.053891 -245.083636 
L 389.608451 -248.378182 
L 389.173358 -251.672727 
L 388.751989 -254.967273 
L 388.347002 -258.261818 
L 387.960178 -261.556364 
L 387.592272 -264.850909 
L 387.242841 -268.145455 
L 386.910091 -271.44 
L 386.590724 -274.734545 
L 386.279809 -278.029091 
L 385.970694 -281.323636 
L 385.654973 -284.618182 
L 385.322529 -287.912727 
L 384.961669 -291.207273 
L 384.559368 -294.501818 
L 384.101631 -297.796364 
L 383.573974 -301.090909 
L 382.962029 -304.385455 
L 382.252257 -307.68 
L 381.432758 -310.974545 
L 380.494139 -314.269091 
L 379.430424 -317.563636 
L 378.239947 -320.858182 
L 376.926196 -324.152727 
L 375.49854 -327.447273 
L 373.972788 -330.741818 
L 372.371522 -334.036364 
L 370.72414 -337.330909 
L 369.066544 -340.625455 
L 367.440462 -343.92 
L 365.892334 -347.214545 
L 364.471806 -350.509091 
L 363.22983 -353.803636 
L 362.216457 -357.098182 
L 361.478412 -360.392727 
L 361.056608 -363.687273 
L 360.983749 -366.981818 
L 361.282207 -370.276364 
L 361.962355 -373.570909 
L 363.021508 -376.865455 
L 364.443591 -380.16 
L 440.756409 -380.16 
L 440.756409 -380.16 
L 442.178492 -376.865455 
L 443.237645 -373.570909 
L 443.917793 -370.276364 
L 444.216251 -366.981818 
L 444.143392 -363.687273 
L 443.721588 -360.392727 
L 442.983543 -357.098182 
L 441.97017 -353.803636 
L 440.728194 -350.509091 
L 439.307666 -347.214545 
L 437.759538 -343.92 
L 436.133456 -340.625455 
L 434.47586 -337.330909 
L 432.828478 -334.036364 
L 431.227212 -330.741818 
L 429.70146 -327.447273 
L 428.273804 -324.152727 
L 426.960053 -320.858182 
L 425.769576 -317.563636 
L 424.705861 -314.269091 
L 423.767242 -310.974545 
L 422.947743 -307.68 
L 422.237971 -304.385455 
L 421.626026 -301.090909 
L 421.098369 -297.796364 
L 420.640632 -294.501818 
L 420.238331 -291.207273 
L 419.877471 -287.912727 
L 419.545027 -284.618182 
L 419.229306 -281.323636 
L 418.920191 -278.029091 
L 418.609276 -274.734545 
L 418.289909 -271.44 
L 417.957159 -268.145455 
L 417.607728 -264.850909 
L 417.239822 -261.556364 
L 416.852998 -258.261818 
L 416.448011 -254.967273 
L 416.026642 -251.672727 
L 415.591549 -248.378182 
L 415.146109 -245.083636 
L 414.694273 -241.789091 
L 414.240418 -238.494545 
L 413.789193 -235.2 
L 413.345369 -231.905455 
L 412.913669 -228.610909 
L 412.498605 -225.316364 
L 412.104298 -222.021818 
L 411.734316 -218.727273 
L 411.391513 -215.432727 
L 411.077892 -212.138182 
L 410.794502 -208.843636 
L 410.541364 -205.549091 
L 410.317451 -202.254545 
L 410.120709 -198.96 
L 409.948135 -195.665455 
L 409.795895 -192.370909 
L 409.659487 -189.076364 
L 409.533938 -185.781818 
L 409.414028 -182.487273 
L 409.294522 -179.192727 
L 409.170408 -175.898182 
L 409.037118 -172.603636 
L 408.890735 -169.309091 
L 408.728159 -166.014545 
L 408.54724 -162.72 
L 408.346858 -159.425455 
L 408.12696 -156.130909 
L 407.88854 -152.836364 
L 407.633576 -149.541818 
L 407.364929 -146.247273 
L 407.086201 -142.952727 
L 406.801578 -139.658182 
L 406.515652 -136.363636 
L 406.233252 -133.069091 
L 405.95927 -129.774545 
L 405.698509 -126.48 
L 405.455548 -123.185455 
L 405.234621 -119.890909 
L 405.039515 -116.596364 
L 404.873479 -113.301818 
L 404.73914 -110.007273 
L 404.638416 -106.712727 
L 404.572431 -103.418182 
L 404.541425 -100.123636 
L 404.544666 -96.829091 
L 404.580377 -93.534545 
L 404.645683 -90.24 
L 404.736596 -86.945455 
L 404.848056 -83.650909 
L 404.974037 -80.356364 
L 405.107725 -77.061818 
L 405.241767 -73.767273 
L 405.368589 -70.472727 
L 405.480763 -67.178182 
L 405.571388 -63.883636 
L 405.634479 -60.589091 
L 405.665303 -57.294545 
L 405.660655 -54 
z
" style="stroke: #7f7f7f; stroke-width: 3"/>
    </defs>
    <g clip-path="url(#p154c087d0f)">
     <use xlink:href="#mc4d509693b" x="0" y="432" style="fill: #d3d3d3; stroke: #7f7f7f; stroke-width: 3"/>
    </g>
   </g>
   <g id="PolyCollection_3">
    <defs>
     <path id="med01eefe1d" d="M 541.541226 -54 
L 536.458774 -54 
L 536.430769 -57.294545 
L 536.429124 -60.589091 
L 536.45143 -63.883636 
L 536.494154 -67.178182 
L 536.55288 -70.472727 
L 536.622595 -73.767273 
L 536.697999 -77.061818 
L 536.773804 -80.356364 
L 536.844995 -83.650909 
L 536.907043 -86.945455 
L 536.956047 -90.24 
L 536.98881 -93.534545 
L 537.002859 -96.829091 
L 536.996406 -100.123636 
L 536.968283 -103.418182 
L 536.917855 -106.712727 
L 536.844933 -110.007273 
L 536.749692 -113.301818 
L 536.632612 -116.596364 
L 536.494434 -119.890909 
L 536.336136 -123.185455 
L 536.158913 -126.48 
L 535.964176 -129.774545 
L 535.753527 -133.069091 
L 535.528741 -136.363636 
L 535.291716 -139.658182 
L 535.044417 -142.952727 
L 534.788786 -146.247273 
L 534.526647 -149.541818 
L 534.259601 -152.836364 
L 533.98892 -156.130909 
L 533.71545 -159.425455 
L 533.439546 -162.72 
L 533.161038 -166.014545 
L 532.87924 -169.309091 
L 532.593019 -172.603636 
L 532.300905 -175.898182 
L 532.001259 -179.192727 
L 531.692476 -182.487273 
L 531.37321 -185.781818 
L 531.042599 -189.076364 
L 530.700464 -192.370909 
L 530.347462 -195.665455 
L 529.98517 -198.96 
L 529.616079 -202.254545 
L 529.243499 -205.549091 
L 528.871373 -208.843636 
L 528.504016 -212.138182 
L 528.145806 -215.432727 
L 527.800852 -218.727273 
L 527.472682 -222.021818 
L 527.163973 -225.316364 
L 526.876368 -228.610909 
L 526.610379 -231.905455 
L 526.365402 -235.2 
L 526.139828 -238.494545 
L 525.931233 -241.789091 
L 525.736626 -245.083636 
L 525.552714 -248.378182 
L 525.376154 -251.672727 
L 525.203763 -254.967273 
L 525.03265 -258.261818 
L 524.860254 -261.556364 
L 524.684299 -264.850909 
L 524.502642 -268.145455 
L 524.313053 -271.44 
L 524.112933 -274.734545 
L 523.899005 -278.029091 
L 523.667013 -281.323636 
L 523.411447 -284.618182 
L 523.125345 -287.912727 
L 522.800173 -291.207273 
L 522.425844 -294.501818 
L 521.990851 -297.796364 
L 521.482564 -301.090909 
L 520.887679 -304.385455 
L 520.192815 -307.68 
L 519.385271 -310.974545 
L 518.453892 -314.269091 
L 517.390057 -317.563636 
L 516.188713 -320.858182 
L 514.849439 -324.152727 
L 513.37746 -327.447273 
L 511.784549 -330.741818 
L 510.089738 -334.036364 
L 508.319757 -337.330909 
L 506.509103 -340.625455 
L 504.699673 -343.92 
L 502.939902 -347.214545 
L 501.28335 -350.509091 
L 499.786778 -353.803636 
L 498.507729 -357.098182 
L 497.50175 -360.392727 
L 496.819385 -363.687273 
L 496.503168 -366.981818 
L 496.584823 -370.276364 
L 497.082931 -373.570909 
L 498.001273 -376.865455 
L 499.328027 -380.16 
L 578.671973 -380.16 
L 578.671973 -380.16 
L 579.998727 -376.865455 
L 580.917069 -373.570909 
L 581.415177 -370.276364 
L 581.496832 -366.981818 
L 581.180615 -363.687273 
L 580.49825 -360.392727 
L 579.492271 -357.098182 
L 578.213222 -353.803636 
L 576.71665 -350.509091 
L 575.060098 -347.214545 
L 573.300327 -343.92 
L 571.490897 -340.625455 
L 569.680243 -337.330909 
L 567.910262 -334.036364 
L 566.215451 -330.741818 
L 564.62254 -327.447273 
L 563.150561 -324.152727 
L 561.811287 -320.858182 
L 560.609943 -317.563636 
L 559.546108 -314.269091 
L 558.614729 -310.974545 
L 557.807185 -307.68 
L 557.112321 -304.385455 
L 556.517436 -301.090909 
L 556.009149 -297.796364 
L 555.574156 -294.501818 
L 555.199827 -291.207273 
L 554.874655 -287.912727 
L 554.588553 -284.618182 
L 554.332987 -281.323636 
L 554.100995 -278.029091 
L 553.887067 -274.734545 
L 553.686947 -271.44 
L 553.497358 -268.145455 
L 553.315701 -264.850909 
L 553.139746 -261.556364 
L 552.96735 -258.261818 
L 552.796237 -254.967273 
L 552.623846 -251.672727 
L 552.447286 -248.378182 
L 552.263374 -245.083636 
L 552.068767 -241.789091 
L 551.860172 -238.494545 
L 551.634598 -235.2 
L 551.389621 -231.905455 
L 551.123632 -228.610909 
L 550.836027 -225.316364 
L 550.527318 -222.021818 
L 550.199148 -218.727273 
L 549.854194 -215.432727 
L 549.495984 -212.138182 
L 549.128627 -208.843636 
L 548.756501 -205.549091 
L 548.383921 -202.254545 
L 548.01483 -198.96 
L 547.652538 -195.665455 
L 547.299536 -192.370909 
L 546.957401 -189.076364 
L 546.62679 -185.781818 
L 546.307524 -182.487273 
L 545.998741 -179.192727 
L 545.699095 -175.898182 
L 545.406981 -172.603636 
L 545.12076 -169.309091 
L 544.838962 -166.014545 
L 544.560454 -162.72 
L 544.28455 -159.425455 
L 544.01108 -156.130909 
L 543.740399 -152.836364 
L 543.473353 -149.541818 
L 543.211214 -146.247273 
L 542.955583 -142.952727 
L 542.708284 -139.658182 
L 542.471259 -136.363636 
L 542.246473 -133.069091 
L 542.035824 -129.774545 
L 541.841087 -126.48 
L 541.663864 -123.185455 
L 541.505566 -119.890909 
L 541.367388 -116.596364 
L 541.250308 -113.301818 
L 541.155067 -110.007273 
L 541.082145 -106.712727 
L 541.031717 -103.418182 
L 541.003594 -100.123636 
L 540.997141 -96.829091 
L 541.01119 -93.534545 
L 541.043953 -90.24 
L 541.092957 -86.945455 
L 541.155005 -83.650909 
L 541.226196 -80.356364 
L 541.302001 -77.061818 
L 541.377405 -73.767273 
L 541.44712 -70.472727 
L 541.505846 -67.178182 
L 541.54857 -63.883636 
L 541.570876 -60.589091 
L 541.569231 -57.294545 
L 541.541226 -54 
z
" style="stroke: #7f7f7f; stroke-width: 3"/>
    </defs>
    <g clip-path="url(#p154c087d0f)">
     <use xlink:href="#med01eefe1d" x="0" y="432" style="fill: #d3d3d3; stroke: #7f7f7f; stroke-width: 3"/>
    </g>
   </g>
   <g id="PolyCollection_4">
    <defs>
     <path id="m20c08c1aa1" d="M 677.082965 -54 
L 673.717035 -54 
L 673.711586 -57.294545 
L 673.732888 -60.589091 
L 673.776633 -63.883636 
L 673.836811 -67.178182 
L 673.906264 -70.472727 
L 673.977368 -73.767273 
L 674.042721 -77.061818 
L 674.095784 -80.356364 
L 674.131401 -83.650909 
L 674.146143 -86.945455 
L 674.138471 -90.24 
L 674.108719 -93.534545 
L 674.058907 -96.829091 
L 673.992447 -100.123636 
L 673.913749 -103.418182 
L 673.827804 -106.712727 
L 673.739752 -110.007273 
L 673.654483 -113.301818 
L 673.576288 -116.596364 
L 673.508581 -119.890909 
L 673.453699 -123.185455 
L 673.412782 -126.48 
L 673.385752 -129.774545 
L 673.371353 -133.069091 
L 673.367271 -136.363636 
L 673.370308 -139.658182 
L 673.376585 -142.952727 
L 673.381773 -146.247273 
L 673.381319 -149.541818 
L 673.370657 -152.836364 
L 673.345383 -156.130909 
L 673.301382 -159.425455 
L 673.234907 -162.72 
L 673.142593 -166.014545 
L 673.021423 -169.309091 
L 672.868649 -172.603636 
L 672.681705 -175.898182 
L 672.458116 -179.192727 
L 672.195456 -182.487273 
L 671.89137 -185.781818 
L 671.543681 -189.076364 
L 671.1506 -192.370909 
L 670.711004 -195.665455 
L 670.224768 -198.96 
L 669.693085 -202.254545 
L 669.118704 -205.549091 
L 668.506019 -208.843636 
L 667.860948 -212.138182 
L 667.190554 -215.432727 
L 666.502438 -218.727273 
L 665.803922 -222.021818 
L 665.101149 -225.316364 
L 664.398222 -228.610909 
L 663.696541 -231.905455 
L 662.994472 -235.2 
L 662.287473 -238.494545 
L 661.568701 -241.789091 
L 660.830083 -245.083636 
L 660.063707 -248.378182 
L 659.263388 -251.672727 
L 658.42614 -254.967273 
L 657.553349 -258.261818 
L 656.651447 -261.556364 
L 655.731932 -264.850909 
L 654.810715 -268.145455 
L 653.906817 -271.44 
L 653.040576 -274.734545 
L 652.231555 -278.029091 
L 651.496391 -281.323636 
L 650.846843 -284.618182 
L 650.288243 -287.912727 
L 649.818527 -291.207273 
L 649.427934 -294.501818 
L 649.099397 -297.796364 
L 648.809583 -301.090909 
L 648.530455 -304.385455 
L 648.231221 -307.68 
L 647.880483 -310.974545 
L 647.448417 -314.269091 
L 646.908827 -317.563636 
L 646.24096 -320.858182 
L 645.431017 -324.152727 
L 644.47333 -327.447273 
L 643.37125 -330.741818 
L 642.13776 -334.036364 
L 640.795884 -337.330909 
L 639.378862 -340.625455 
L 637.930075 -343.92 
L 636.502564 -347.214545 
L 635.15799 -350.509091 
L 633.964835 -353.803636 
L 632.995667 -357.098182 
L 632.32342 -360.392727 
L 632.016757 -363.687273 
L 632.134829 -366.981818 
L 632.721886 -370.276364 
L 633.802364 -373.570909 
L 635.377146 -376.865455 
L 637.421594 -380.16 
L 713.378406 -380.16 
L 713.378406 -380.16 
L 715.422854 -376.865455 
L 716.997636 -373.570909 
L 718.078114 -370.276364 
L 718.665171 -366.981818 
L 718.783243 -363.687273 
L 718.47658 -360.392727 
L 717.804333 -357.098182 
L 716.835165 -353.803636 
L 715.64201 -350.509091 
L 714.297436 -347.214545 
L 712.869925 -343.92 
L 711.421138 -340.625455 
L 710.004116 -337.330909 
L 708.66224 -334.036364 
L 707.42875 -330.741818 
L 706.32667 -327.447273 
L 705.368983 -324.152727 
L 704.55904 -320.858182 
L 703.891173 -317.563636 
L 703.351583 -314.269091 
L 702.919517 -310.974545 
L 702.568779 -307.68 
L 702.269545 -304.385455 
L 701.990417 -301.090909 
L 701.700603 -297.796364 
L 701.372066 -294.501818 
L 700.981473 -291.207273 
L 700.511757 -287.912727 
L 699.953157 -284.618182 
L 699.303609 -281.323636 
L 698.568445 -278.029091 
L 697.759424 -274.734545 
L 696.893183 -271.44 
L 695.989285 -268.145455 
L 695.068068 -264.850909 
L 694.148553 -261.556364 
L 693.246651 -258.261818 
L 692.37386 -254.967273 
L 691.536612 -251.672727 
L 690.736293 -248.378182 
L 689.969917 -245.083636 
L 689.231299 -241.789091 
L 688.512527 -238.494545 
L 687.805528 -235.2 
L 687.103459 -231.905455 
L 686.401778 -228.610909 
L 685.698851 -225.316364 
L 684.996078 -222.021818 
L 684.297562 -218.727273 
L 683.609446 -215.432727 
L 682.939052 -212.138182 
L 682.293981 -208.843636 
L 681.681296 -205.549091 
L 681.106915 -202.254545 
L 680.575232 -198.96 
L 680.088996 -195.665455 
L 679.6494 -192.370909 
L 679.256319 -189.076364 
L 678.90863 -185.781818 
L 678.604544 -182.487273 
L 678.341884 -179.192727 
L 678.118295 -175.898182 
L 677.931351 -172.603636 
L 677.778577 -169.309091 
L 677.657407 -166.014545 
L 677.565093 -162.72 
L 677.498618 -159.425455 
L 677.454617 -156.130909 
L 677.429343 -152.836364 
L 677.418681 -149.541818 
L 677.418227 -146.247273 
L 677.423415 -142.952727 
L 677.429692 -139.658182 
L 677.432729 -136.363636 
L 677.428647 -133.069091 
L 677.414248 -129.774545 
L 677.387218 -126.48 
L 677.346301 -123.185455 
L 677.291419 -119.890909 
L 677.223712 -116.596364 
L 677.145517 -113.301818 
L 677.060248 -110.007273 
L 676.972196 -106.712727 
L 676.886251 -103.418182 
L 676.807553 -100.123636 
L 676.741093 -96.829091 
L 676.691281 -93.534545 
L 676.661529 -90.24 
L 676.653857 -86.945455 
L 676.668599 -83.650909 
L 676.704216 -80.356364 
L 676.757279 -77.061818 
L 676.822632 -73.767273 
L 676.893736 -70.472727 
L 676.963189 -67.178182 
L 677.023367 -63.883636 
L 677.067112 -60.589091 
L 677.088414 -57.294545 
L 677.082965 -54 
z
" style="stroke: #7f7f7f; stroke-width: 3"/>
    </defs>
    <g clip-path="url(#p154c087d0f)">
     <use xlink:href="#m20c08c1aa1" x="0" y="432" style="fill: #d3d3d3; stroke: #7f7f7f; stroke-width: 3"/>
    </g>
   </g>
   <g id="PolyCollection_5">
    <defs>
     <path id="m7b94a49d19" d="M 813.077046 -54 
L 810.522954 -54 
L 810.530984 -57.294545 
L 810.564142 -60.589091 
L 810.61867 -63.883636 
L 810.689117 -67.178182 
L 810.768851 -70.472727 
L 810.85068 -73.767273 
L 810.927511 -77.061818 
L 810.992965 -80.356364 
L 811.041882 -83.650909 
L 811.070681 -86.945455 
L 811.077528 -90.24 
L 811.062333 -93.534545 
L 811.02658 -96.829091 
L 810.973019 -100.123636 
L 810.905266 -103.418182 
L 810.82735 -106.712727 
L 810.743261 -110.007273 
L 810.656534 -113.301818 
L 810.569916 -116.596364 
L 810.485144 -119.890909 
L 810.40284 -123.185455 
L 810.322537 -126.48 
L 810.242814 -129.774545 
L 810.161516 -133.069091 
L 810.076014 -136.363636 
L 809.983489 -139.658182 
L 809.881169 -142.952727 
L 809.76652 -146.247273 
L 809.637355 -149.541818 
L 809.491856 -152.836364 
L 809.328522 -156.130909 
L 809.146055 -159.425455 
L 808.943213 -162.72 
L 808.718665 -166.014545 
L 808.470892 -169.309091 
L 808.198148 -172.603636 
L 807.898534 -175.898182 
L 807.570166 -179.192727 
L 807.211445 -182.487273 
L 806.821393 -185.781818 
L 806.400009 -189.076364 
L 805.948582 -192.370909 
L 805.469909 -195.665455 
L 804.968372 -198.96 
L 804.449845 -202.254545 
L 803.92144 -205.549091 
L 803.391112 -208.843636 
L 802.867177 -212.138182 
L 802.357792 -215.432727 
L 801.870442 -218.727273 
L 801.411481 -222.021818 
L 800.985728 -225.316364 
L 800.596142 -228.610909 
L 800.24355 -231.905455 
L 799.926454 -235.2 
L 799.640909 -238.494545 
L 799.380501 -241.789091 
L 799.136455 -245.083636 
L 798.897894 -248.378182 
L 798.652266 -251.672727 
L 798.385934 -254.967273 
L 798.084883 -258.261818 
L 797.735508 -261.556364 
L 797.325406 -264.850909 
L 796.844099 -268.145455 
L 796.283635 -271.44 
L 795.639014 -274.734545 
L 794.908397 -278.029091 
L 794.093087 -281.323636 
L 793.197266 -284.618182 
L 792.227495 -287.912727 
L 791.191989 -291.207273 
L 790.099719 -294.501818 
L 788.959404 -297.796364 
L 787.778502 -301.090909 
L 786.562319 -304.385455 
L 785.313388 -307.68 
L 784.031255 -310.974545 
L 782.712754 -314.269091 
L 781.352845 -317.563636 
L 779.945952 -320.858182 
L 778.487736 -324.152727 
L 776.977111 -327.447273 
L 775.418321 -330.741818 
L 773.822862 -334.036364 
L 772.211054 -337.330909 
L 770.613082 -340.625455 
L 769.069388 -343.92 
L 767.630275 -347.214545 
L 766.35465 -350.509091 
L 765.307815 -353.803636 
L 764.558282 -357.098182 
L 764.17364 -360.392727 
L 764.21564 -363.687273 
L 764.734794 -366.981818 
L 765.764985 -370.276364 
L 767.318674 -373.570909 
L 769.383419 -376.865455 
L 771.920305 -380.16 
L 851.679695 -380.16 
L 851.679695 -380.16 
L 854.216581 -376.865455 
L 856.281326 -373.570909 
L 857.835015 -370.276364 
L 858.865206 -366.981818 
L 859.38436 -363.687273 
L 859.42636 -360.392727 
L 859.041718 -357.098182 
L 858.292185 -353.803636 
L 857.24535 -350.509091 
L 855.969725 -347.214545 
L 854.530612 -343.92 
L 852.986918 -340.625455 
L 851.388946 -337.330909 
L 849.777138 -334.036364 
L 848.181679 -330.741818 
L 846.622889 -327.447273 
L 845.112264 -324.152727 
L 843.654048 -320.858182 
L 842.247155 -317.563636 
L 840.887246 -314.269091 
L 839.568745 -310.974545 
L 838.286612 -307.68 
L 837.037681 -304.385455 
L 835.821498 -301.090909 
L 834.640596 -297.796364 
L 833.500281 -294.501818 
L 832.408011 -291.207273 
L 831.372505 -287.912727 
L 830.402734 -284.618182 
L 829.506913 -281.323636 
L 828.691603 -278.029091 
L 827.960986 -274.734545 
L 827.316365 -271.44 
L 826.755901 -268.145455 
L 826.274594 -264.850909 
L 825.864492 -261.556364 
L 825.515117 -258.261818 
L 825.214066 -254.967273 
L 824.947734 -251.672727 
L 824.702106 -248.378182 
L 824.463545 -245.083636 
L 824.219499 -241.789091 
L 823.959091 -238.494545 
L 823.673546 -235.2 
L 823.35645 -231.905455 
L 823.003858 -228.610909 
L 822.614272 -225.316364 
L 822.188519 -222.021818 
L 821.729558 -218.727273 
L 821.242208 -215.432727 
L 820.732823 -212.138182 
L 820.208888 -208.843636 
L 819.67856 -205.549091 
L 819.150155 -202.254545 
L 818.631628 -198.96 
L 818.130091 -195.665455 
L 817.651418 -192.370909 
L 817.199991 -189.076364 
L 816.778607 -185.781818 
L 816.388555 -182.487273 
L 816.029834 -179.192727 
L 815.701466 -175.898182 
L 815.401852 -172.603636 
L 815.129108 -169.309091 
L 814.881335 -166.014545 
L 814.656787 -162.72 
L 814.453945 -159.425455 
L 814.271478 -156.130909 
L 814.108144 -152.836364 
L 813.962645 -149.541818 
L 813.83348 -146.247273 
L 813.718831 -142.952727 
L 813.616511 -139.658182 
L 813.523986 -136.363636 
L 813.438484 -133.069091 
L 813.357186 -129.774545 
L 813.277463 -126.48 
L 813.19716 -123.185455 
L 813.114856 -119.890909 
L 813.030084 -116.596364 
L 812.943466 -113.301818 
L 812.856739 -110.007273 
L 812.77265 -106.712727 
L 812.694734 -103.418182 
L 812.626981 -100.123636 
L 812.57342 -96.829091 
L 812.537667 -93.534545 
L 812.522472 -90.24 
L 812.529319 -86.945455 
L 812.558118 -83.650909 
L 812.607035 -80.356364 
L 812.672489 -77.061818 
L 812.74932 -73.767273 
L 812.831149 -70.472727 
L 812.910883 -67.178182 
L 812.98133 -63.883636 
L 813.035858 -60.589091 
L 813.069016 -57.294545 
L 813.077046 -54 
z
" style="stroke: #7f7f7f; stroke-width: 3"/>
    </defs>
    <g clip-path="url(#p154c087d0f)">
     <use xlink:href="#m7b94a49d19" x="0" y="432" style="fill: #d3d3d3; stroke: #7f7f7f; stroke-width: 3"/>
    </g>
   </g>
   <g id="PolyCollection_6">
    <defs>
     <path id="mfeef6fa1c7" d="M 949.840474 -54 
L 946.559526 -54 
L 946.576786 -57.294545 
L 946.628086 -60.589091 
L 946.709982 -63.883636 
L 946.817159 -67.178182 
L 946.94294 -70.472727 
L 947.079895 -73.767273 
L 947.220475 -77.061818 
L 947.357576 -80.356364 
L 947.484994 -83.650909 
L 947.597719 -86.945455 
L 947.692067 -90.24 
L 947.76566 -93.534545 
L 947.817288 -96.829091 
L 947.846687 -100.123636 
L 947.854282 -103.418182 
L 947.840917 -106.712727 
L 947.807612 -110.007273 
L 947.755354 -113.301818 
L 947.684932 -116.596364 
L 947.596828 -119.890909 
L 947.491166 -123.185455 
L 947.367721 -126.48 
L 947.225983 -129.774545 
L 947.065294 -133.069091 
L 946.885024 -136.363636 
L 946.684794 -139.658182 
L 946.464708 -142.952727 
L 946.225567 -146.247273 
L 945.969027 -149.541818 
L 945.697672 -152.836364 
L 945.414965 -156.130909 
L 945.125073 -159.425455 
L 944.832566 -162.72 
L 944.542016 -166.014545 
L 944.257537 -169.309091 
L 943.982336 -172.603636 
L 943.718331 -175.898182 
L 943.465905 -179.192727 
L 943.223846 -182.487273 
L 942.989494 -185.781818 
L 942.759085 -189.076364 
L 942.528245 -192.370909 
L 942.292571 -195.665455 
L 942.04818 -198.96 
L 941.79215 -202.254545 
L 941.522748 -205.549091 
L 941.23941 -208.843636 
L 940.942449 -212.138182 
L 940.632558 -215.432727 
L 940.31019 -218.727273 
L 939.974945 -222.021818 
L 939.625111 -225.316364 
L 939.257481 -228.610909 
L 938.867522 -231.905455 
L 938.449939 -235.2 
L 937.999564 -238.494545 
L 937.512478 -241.789091 
L 936.987174 -245.083636 
L 936.42557 -248.378182 
L 935.833678 -251.672727 
L 935.221753 -254.967273 
L 934.603841 -258.261818 
L 933.996704 -261.556364 
L 933.418209 -264.850909 
L 932.885358 -268.145455 
L 932.41219 -271.44 
L 932.007806 -274.734545 
L 931.674785 -278.029091 
L 931.408167 -281.323636 
L 931.195134 -284.618182 
L 931.015404 -287.912727 
L 930.842257 -291.207273 
L 930.644066 -294.501818 
L 930.386125 -297.796364 
L 930.032592 -301.090909 
L 929.548374 -304.385455 
L 928.900833 -307.68 
L 928.06125 -310.974545 
L 927.006049 -314.269091 
L 925.717814 -317.563636 
L 924.186169 -320.858182 
L 922.408611 -324.152727 
L 920.39133 -327.447273 
L 918.150108 -330.741818 
L 915.711251 -334.036364 
L 913.112543 -337.330909 
L 910.404084 -340.625455 
L 907.648829 -343.92 
L 904.922558 -347.214545 
L 902.31298 -350.509091 
L 899.917638 -353.803636 
L 897.84039 -357.098182 
L 896.186355 -360.392727 
L 895.055458 -363.687273 
L 894.534994 -366.981818 
L 894.691864 -370.276364 
L 895.565407 -373.570909 
L 897.161797 -376.865455 
L 899.450927 -380.16 
L 996.949073 -380.16 
L 996.949073 -380.16 
L 999.238203 -376.865455 
L 1000.834593 -373.570909 
L 1001.708136 -370.276364 
L 1001.865006 -366.981818 
L 1001.344542 -363.687273 
L 1000.213645 -360.392727 
L 998.55961 -357.098182 
L 996.482362 -353.803636 
L 994.08702 -350.509091 
L 991.477442 -347.214545 
L 988.751171 -343.92 
L 985.995916 -340.625455 
L 983.287457 -337.330909 
L 980.688749 -334.036364 
L 978.249892 -330.741818 
L 976.00867 -327.447273 
L 973.991389 -324.152727 
L 972.213831 -320.858182 
L 970.682186 -317.563636 
L 969.393951 -314.269091 
L 968.33875 -310.974545 
L 967.499167 -307.68 
L 966.851626 -304.385455 
L 966.367408 -301.090909 
L 966.013875 -297.796364 
L 965.755934 -294.501818 
L 965.557743 -291.207273 
L 965.384596 -287.912727 
L 965.204866 -284.618182 
L 964.991833 -281.323636 
L 964.725215 -278.029091 
L 964.392194 -274.734545 
L 963.98781 -271.44 
L 963.514642 -268.145455 
L 962.981791 -264.850909 
L 962.403296 -261.556364 
L 961.796159 -258.261818 
L 961.178247 -254.967273 
L 960.566322 -251.672727 
L 959.97443 -248.378182 
L 959.412826 -245.083636 
L 958.887522 -241.789091 
L 958.400436 -238.494545 
L 957.950061 -235.2 
L 957.532478 -231.905455 
L 957.142519 -228.610909 
L 956.774889 -225.316364 
L 956.425055 -222.021818 
L 956.08981 -218.727273 
L 955.767442 -215.432727 
L 955.457551 -212.138182 
L 955.16059 -208.843636 
L 954.877252 -205.549091 
L 954.60785 -202.254545 
L 954.35182 -198.96 
L 954.107429 -195.665455 
L 953.871755 -192.370909 
L 953.640915 -189.076364 
L 953.410506 -185.781818 
L 953.176154 -182.487273 
L 952.934095 -179.192727 
L 952.681669 -175.898182 
L 952.417664 -172.603636 
L 952.142463 -169.309091 
L 951.857984 -166.014545 
L 951.567434 -162.72 
L 951.274927 -159.425455 
L 950.985035 -156.130909 
L 950.702328 -152.836364 
L 950.430973 -149.541818 
L 950.174433 -146.247273 
L 949.935292 -142.952727 
L 949.715206 -139.658182 
L 949.514976 -136.363636 
L 949.334706 -133.069091 
L 949.174017 -129.774545 
L 949.032279 -126.48 
L 948.908834 -123.185455 
L 948.803172 -119.890909 
L 948.715068 -116.596364 
L 948.644646 -113.301818 
L 948.592388 -110.007273 
L 948.559083 -106.712727 
L 948.545718 -103.418182 
L 948.553313 -100.123636 
L 948.582712 -96.829091 
L 948.63434 -93.534545 
L 948.707933 -90.24 
L 948.802281 -86.945455 
L 948.915006 -83.650909 
L 949.042424 -80.356364 
L 949.179525 -77.061818 
L 949.320105 -73.767273 
L 949.45706 -70.472727 
L 949.582841 -67.178182 
L 949.690018 -63.883636 
L 949.771914 -60.589091 
L 949.823214 -57.294545 
L 949.840474 -54 
z
" style="stroke: #7f7f7f; stroke-width: 3"/>
    </defs>
    <g clip-path="url(#p154c087d0f)">
     <use xlink:href="#mfeef6fa1c7" x="0" y="432" style="fill: #d3d3d3; stroke: #7f7f7f; stroke-width: 3"/>
    </g>
   </g>
   <g id="PolyCollection_7">
    <defs>
     <path id="mceffdeae3f" d="M 1085.507931 -54 
L 1083.692069 -54 
L 1083.653829 -57.294545 
L 1083.618351 -60.589091 
L 1083.582719 -63.883636 
L 1083.543509 -67.178182 
L 1083.497116 -70.472727 
L 1083.440091 -73.767273 
L 1083.369487 -77.061818 
L 1083.283136 -80.356364 
L 1083.17986 -83.650909 
L 1083.059553 -86.945455 
L 1082.923175 -90.24 
L 1082.772623 -93.534545 
L 1082.610545 -96.829091 
L 1082.440098 -100.123636 
L 1082.264702 -103.418182 
L 1082.087815 -106.712727 
L 1081.912757 -110.007273 
L 1081.74259 -113.301818 
L 1081.580055 -116.596364 
L 1081.427564 -119.890909 
L 1081.28721 -123.185455 
L 1081.160796 -126.48 
L 1081.049853 -129.774545 
L 1080.955634 -133.069091 
L 1080.879069 -136.363636 
L 1080.820698 -139.658182 
L 1080.780563 -142.952727 
L 1080.758088 -146.247273 
L 1080.751947 -149.541818 
L 1080.759948 -152.836364 
L 1080.778942 -156.130909 
L 1080.80478 -159.425455 
L 1080.832334 -162.72 
L 1080.855601 -166.014545 
L 1080.867892 -169.309091 
L 1080.862111 -172.603636 
L 1080.83112 -175.898182 
L 1080.76815 -179.192727 
L 1080.667249 -182.487273 
L 1080.523703 -185.781818 
L 1080.334388 -189.076364 
L 1080.098021 -192.370909 
L 1079.81525 -195.665455 
L 1079.488581 -198.96 
L 1079.122137 -202.254545 
L 1078.721266 -205.549091 
L 1078.292041 -208.843636 
L 1077.840716 -212.138182 
L 1077.373191 -215.432727 
L 1076.894569 -218.727273 
L 1076.408838 -222.021818 
L 1075.918744 -225.316364 
L 1075.425831 -228.610909 
L 1074.930669 -231.905455 
L 1074.433204 -235.2 
L 1073.933169 -238.494545 
L 1073.430502 -241.789091 
L 1072.925669 -245.083636 
L 1072.419852 -248.378182 
L 1071.914969 -251.672727 
L 1071.413503 -254.967273 
L 1070.918189 -258.261818 
L 1070.431611 -261.556364 
L 1069.955764 -264.850909 
L 1069.491669 -268.145455 
L 1069.039086 -271.44 
L 1068.596351 -274.734545 
L 1068.160342 -278.029091 
L 1067.72652 -281.323636 
L 1067.289021 -284.618182 
L 1066.840718 -287.912727 
L 1066.373221 -291.207273 
L 1065.876809 -294.501818 
L 1065.340289 -297.796364 
L 1064.750869 -301.090909 
L 1064.094083 -304.385455 
L 1063.353894 -307.68 
L 1062.513035 -310.974545 
L 1061.55366 -314.269091 
L 1060.458339 -317.563636 
L 1059.211398 -320.858182 
L 1057.800561 -324.152727 
L 1056.218821 -327.447273 
L 1054.46645 -330.741818 
L 1052.553 -334.036364 
L 1050.499138 -337.330909 
L 1048.338129 -340.625455 
L 1046.116722 -343.92 
L 1043.895218 -347.214545 
L 1041.746496 -350.509091 
L 1039.753783 -353.803636 
L 1038.007128 -357.098182 
L 1036.598586 -360.392727 
L 1035.616372 -363.687273 
L 1035.138389 -366.981818 
L 1035.225718 -370.276364 
L 1035.916764 -373.570909 
L 1037.222759 -376.865455 
L 1039.125275 -380.16 
L 1130.074725 -380.16 
L 1130.074725 -380.16 
L 1131.977241 -376.865455 
L 1133.283236 -373.570909 
L 1133.974282 -370.276364 
L 1134.061611 -366.981818 
L 1133.583628 -363.687273 
L 1132.601414 -360.392727 
L 1131.192872 -357.098182 
L 1129.446217 -353.803636 
L 1127.453504 -350.509091 
L 1125.304782 -347.214545 
L 1123.083278 -343.92 
L 1120.861871 -340.625455 
L 1118.700862 -337.330909 
L 1116.647 -334.036364 
L 1114.73355 -330.741818 
L 1112.981179 -327.447273 
L 1111.399439 -324.152727 
L 1109.988602 -320.858182 
L 1108.741661 -317.563636 
L 1107.64634 -314.269091 
L 1106.686965 -310.974545 
L 1105.846106 -307.68 
L 1105.105917 -304.385455 
L 1104.449131 -301.090909 
L 1103.859711 -297.796364 
L 1103.323191 -294.501818 
L 1102.826779 -291.207273 
L 1102.359282 -287.912727 
L 1101.910979 -284.618182 
L 1101.47348 -281.323636 
L 1101.039658 -278.029091 
L 1100.603649 -274.734545 
L 1100.160914 -271.44 
L 1099.708331 -268.145455 
L 1099.244236 -264.850909 
L 1098.768389 -261.556364 
L 1098.281811 -258.261818 
L 1097.786497 -254.967273 
L 1097.285031 -251.672727 
L 1096.780148 -248.378182 
L 1096.274331 -245.083636 
L 1095.769498 -241.789091 
L 1095.266831 -238.494545 
L 1094.766796 -235.2 
L 1094.269331 -231.905455 
L 1093.774169 -228.610909 
L 1093.281256 -225.316364 
L 1092.791162 -222.021818 
L 1092.305431 -218.727273 
L 1091.826809 -215.432727 
L 1091.359284 -212.138182 
L 1090.907959 -208.843636 
L 1090.478734 -205.549091 
L 1090.077863 -202.254545 
L 1089.711419 -198.96 
L 1089.38475 -195.665455 
L 1089.101979 -192.370909 
L 1088.865612 -189.076364 
L 1088.676297 -185.781818 
L 1088.532751 -182.487273 
L 1088.43185 -179.192727 
L 1088.36888 -175.898182 
L 1088.337889 -172.603636 
L 1088.332108 -169.309091 
L 1088.344399 -166.014545 
L 1088.367666 -162.72 
L 1088.39522 -159.425455 
L 1088.421058 -156.130909 
L 1088.440052 -152.836364 
L 1088.448053 -149.541818 
L 1088.441912 -146.247273 
L 1088.419437 -142.952727 
L 1088.379302 -139.658182 
L 1088.320931 -136.363636 
L 1088.244366 -133.069091 
L 1088.150147 -129.774545 
L 1088.039204 -126.48 
L 1087.91279 -123.185455 
L 1087.772436 -119.890909 
L 1087.619945 -116.596364 
L 1087.45741 -113.301818 
L 1087.287243 -110.007273 
L 1087.112185 -106.712727 
L 1086.935298 -103.418182 
L 1086.759902 -100.123636 
L 1086.589455 -96.829091 
L 1086.427377 -93.534545 
L 1086.276825 -90.24 
L 1086.140447 -86.945455 
L 1086.02014 -83.650909 
L 1085.916864 -80.356364 
L 1085.830513 -77.061818 
L 1085.759909 -73.767273 
L 1085.702884 -70.472727 
L 1085.656491 -67.178182 
L 1085.617281 -63.883636 
L 1085.581649 -60.589091 
L 1085.546171 -57.294545 
L 1085.507931 -54 
z
" style="stroke: #7f7f7f; stroke-width: 3"/>
    </defs>
    <g clip-path="url(#p154c087d0f)">
     <use xlink:href="#mceffdeae3f" x="0" y="432" style="fill: #d3d3d3; stroke: #7f7f7f; stroke-width: 3"/>
    </g>
   </g>
   <g id="PolyCollection_8">
    <defs>
     <path id="m8963fd5bec" d="M 1223.42635 -54 
L 1218.57365 -54 
L 1218.591929 -57.294545 
L 1218.656492 -60.589091 
L 1218.762385 -63.883636 
L 1218.902178 -67.178182 
L 1219.066701 -70.472727 
L 1219.245915 -73.767273 
L 1219.42982 -77.061818 
L 1219.609286 -80.356364 
L 1219.776702 -83.650909 
L 1219.926403 -86.945455 
L 1220.054831 -90.24 
L 1220.160448 -93.534545 
L 1220.243442 -96.829091 
L 1220.305285 -100.123636 
L 1220.348223 -103.418182 
L 1220.374759 -106.712727 
L 1220.387209 -110.007273 
L 1220.387363 -113.301818 
L 1220.376293 -116.596364 
L 1220.354303 -119.890909 
L 1220.321022 -123.185455 
L 1220.275608 -126.48 
L 1220.217011 -129.774545 
L 1220.144277 -133.069091 
L 1220.056824 -136.363636 
L 1219.954655 -139.658182 
L 1219.838493 -142.952727 
L 1219.709802 -146.247273 
L 1219.570691 -149.541818 
L 1219.423736 -152.836364 
L 1219.271699 -156.130909 
L 1219.117223 -159.425455 
L 1218.962494 -162.72 
L 1218.808946 -166.014545 
L 1218.657019 -169.309091 
L 1218.506021 -172.603636 
L 1218.354097 -175.898182 
L 1218.198328 -179.192727 
L 1218.03495 -182.487273 
L 1217.859664 -185.781818 
L 1217.668007 -189.076364 
L 1217.455731 -192.370909 
L 1217.219135 -195.665455 
L 1216.955311 -198.96 
L 1216.662251 -202.254545 
L 1216.338814 -205.549091 
L 1215.984558 -208.843636 
L 1215.599466 -212.138182 
L 1215.183636 -215.432727 
L 1214.736995 -218.727273 
L 1214.259097 -222.021818 
L 1213.749074 -225.316364 
L 1213.205744 -228.610909 
L 1212.627895 -231.905455 
L 1212.014693 -235.2 
L 1211.366162 -238.494545 
L 1210.683667 -241.789091 
L 1209.970319 -245.083636 
L 1209.231249 -248.378182 
L 1208.473687 -251.672727 
L 1207.706838 -254.967273 
L 1206.941552 -258.261818 
L 1206.189788 -261.556364 
L 1205.463925 -264.850909 
L 1204.775942 -268.145455 
L 1204.13652 -271.44 
L 1203.554103 -274.734545 
L 1203.033979 -278.029091 
L 1202.577425 -281.323636 
L 1202.18097 -284.618182 
L 1201.835841 -287.912727 
L 1201.527644 -291.207273 
L 1201.236342 -294.501818 
L 1200.936577 -297.796364 
L 1200.598367 -301.090909 
L 1200.188195 -304.385455 
L 1199.670473 -307.68 
L 1199.009337 -310.974545 
L 1198.1707 -314.269091 
L 1197.124463 -317.563636 
L 1195.846785 -320.858182 
L 1194.322283 -324.152727 
L 1192.546065 -327.447273 
L 1190.525499 -330.741818 
L 1188.281639 -334.036364 
L 1185.85022 -337.330909 
L 1183.282138 -340.625455 
L 1180.643281 -343.92 
L 1178.013579 -347.214545 
L 1175.485092 -350.509091 
L 1173.158967 -353.803636 
L 1171.141189 -357.098182 
L 1169.537118 -360.392727 
L 1168.445037 -363.687273 
L 1167.949106 -366.981818 
L 1168.112339 -370.276364 
L 1168.970368 -373.570909 
L 1170.526816 -376.865455 
L 1172.750981 -380.16 
L 1269.249019 -380.16 
L 1269.249019 -380.16 
L 1271.473184 -376.865455 
L 1273.029632 -373.570909 
L 1273.887661 -370.276364 
L 1274.050894 -366.981818 
L 1273.554963 -363.687273 
L 1272.462882 -360.392727 
L 1270.858811 -357.098182 
L 1268.841033 -353.803636 
L 1266.514908 -350.509091 
L 1263.986421 -347.214545 
L 1261.356719 -343.92 
L 1258.717862 -340.625455 
L 1256.14978 -337.330909 
L 1253.718361 -334.036364 
L 1251.474501 -330.741818 
L 1249.453935 -327.447273 
L 1247.677717 -324.152727 
L 1246.153215 -320.858182 
L 1244.875537 -317.563636 
L 1243.8293 -314.269091 
L 1242.990663 -310.974545 
L 1242.329527 -307.68 
L 1241.811805 -304.385455 
L 1241.401633 -301.090909 
L 1241.063423 -297.796364 
L 1240.763658 -294.501818 
L 1240.472356 -291.207273 
L 1240.164159 -287.912727 
L 1239.81903 -284.618182 
L 1239.422575 -281.323636 
L 1238.966021 -278.029091 
L 1238.445897 -274.734545 
L 1237.86348 -271.44 
L 1237.224058 -268.145455 
L 1236.536075 -264.850909 
L 1235.810212 -261.556364 
L 1235.058448 -258.261818 
L 1234.293162 -254.967273 
L 1233.526313 -251.672727 
L 1232.768751 -248.378182 
L 1232.029681 -245.083636 
L 1231.316333 -241.789091 
L 1230.633838 -238.494545 
L 1229.985307 -235.2 
L 1229.372105 -231.905455 
L 1228.794256 -228.610909 
L 1228.250926 -225.316364 
L 1227.740903 -222.021818 
L 1227.263005 -218.727273 
L 1226.816364 -215.432727 
L 1226.400534 -212.138182 
L 1226.015442 -208.843636 
L 1225.661186 -205.549091 
L 1225.337749 -202.254545 
L 1225.044689 -198.96 
L 1224.780865 -195.665455 
L 1224.544269 -192.370909 
L 1224.331993 -189.076364 
L 1224.140336 -185.781818 
L 1223.96505 -182.487273 
L 1223.801672 -179.192727 
L 1223.645903 -175.898182 
L 1223.493979 -172.603636 
L 1223.342981 -169.309091 
L 1223.191054 -166.014545 
L 1223.037506 -162.72 
L 1222.882777 -159.425455 
L 1222.728301 -156.130909 
L 1222.576264 -152.836364 
L 1222.429309 -149.541818 
L 1222.290198 -146.247273 
L 1222.161507 -142.952727 
L 1222.045345 -139.658182 
L 1221.943176 -136.363636 
L 1221.855723 -133.069091 
L 1221.782989 -129.774545 
L 1221.724392 -126.48 
L 1221.678978 -123.185455 
L 1221.645697 -119.890909 
L 1221.623707 -116.596364 
L 1221.612637 -113.301818 
L 1221.612791 -110.007273 
L 1221.625241 -106.712727 
L 1221.651777 -103.418182 
L 1221.694715 -100.123636 
L 1221.756558 -96.829091 
L 1221.839552 -93.534545 
L 1221.945169 -90.24 
L 1222.073597 -86.945455 
L 1222.223298 -83.650909 
L 1222.390714 -80.356364 
L 1222.57018 -77.061818 
L 1222.754085 -73.767273 
L 1222.933299 -70.472727 
L 1223.097822 -67.178182 
L 1223.237615 -63.883636 
L 1223.343508 -60.589091 
L 1223.408071 -57.294545 
L 1223.42635 -54 
z
" style="stroke: #7f7f7f; stroke-width: 3"/>
    </defs>
    <g clip-path="url(#p154c087d0f)">
     <use xlink:href="#m8963fd5bec" x="0" y="432" style="fill: #d3d3d3; stroke: #7f7f7f; stroke-width: 3"/>
    </g>
   </g>
   <g id="PolyCollection_9">
    <defs>
     <path id="mf2d6a0841e" d="M 1359.056149 -54 
L 1355.743851 -54 
L 1355.719417 -57.294545 
L 1355.715274 -60.589091 
L 1355.728923 -63.883636 
L 1355.756902 -67.178182 
L 1355.795157 -70.472727 
L 1355.839449 -73.767273 
L 1355.885745 -77.061818 
L 1355.930546 -80.356364 
L 1355.971109 -83.650909 
L 1356.005545 -86.945455 
L 1356.032781 -90.24 
L 1356.052414 -93.534545 
L 1356.064488 -96.829091 
L 1356.069226 -100.123636 
L 1356.066769 -103.418182 
L 1356.05696 -106.712727 
L 1356.039194 -110.007273 
L 1356.012371 -113.301818 
L 1355.974925 -116.596364 
L 1355.924952 -119.890909 
L 1355.860389 -123.185455 
L 1355.77923 -126.48 
L 1355.679755 -129.774545 
L 1355.560731 -133.069091 
L 1355.421568 -136.363636 
L 1355.262421 -139.658182 
L 1355.084213 -142.952727 
L 1354.888598 -146.247273 
L 1354.677862 -149.541818 
L 1354.454767 -152.836364 
L 1354.222372 -156.130909 
L 1353.983835 -159.425455 
L 1353.742205 -162.72 
L 1353.500241 -166.014545 
L 1353.260248 -169.309091 
L 1353.023944 -172.603636 
L 1352.792373 -175.898182 
L 1352.565857 -179.192727 
L 1352.344002 -182.487273 
L 1352.125748 -185.781818 
L 1351.909471 -189.076364 
L 1351.693129 -192.370909 
L 1351.474435 -195.665455 
L 1351.251053 -198.96 
L 1351.020791 -202.254545 
L 1350.781779 -205.549091 
L 1350.532606 -208.843636 
L 1350.272412 -212.138182 
L 1350.000921 -215.432727 
L 1349.718423 -218.727273 
L 1349.425719 -222.021818 
L 1349.124024 -225.316364 
L 1348.814876 -228.610909 
L 1348.500032 -231.905455 
L 1348.181389 -235.2 
L 1347.860913 -238.494545 
L 1347.540575 -241.789091 
L 1347.222293 -245.083636 
L 1346.907857 -248.378182 
L 1346.598841 -251.672727 
L 1346.296492 -254.967273 
L 1346.001603 -258.261818 
L 1345.714384 -261.556364 
L 1345.434346 -264.850909 
L 1345.160203 -268.145455 
L 1344.889803 -271.44 
L 1344.620087 -274.734545 
L 1344.347058 -278.029091 
L 1344.065738 -281.323636 
L 1343.770096 -284.618182 
L 1343.45292 -287.912727 
L 1343.105623 -291.207273 
L 1342.718004 -294.501818 
L 1342.277962 -297.796364 
L 1341.771242 -301.090909 
L 1341.181242 -304.385455 
L 1340.488982 -307.68 
L 1339.673289 -310.974545 
L 1338.711289 -314.269091 
L 1337.579261 -317.563636 
L 1336.253918 -320.858182 
L 1334.714127 -324.152727 
L 1332.943065 -327.447273 
L 1330.930761 -330.741818 
L 1328.676888 -334.036364 
L 1326.193635 -337.330909 
L 1323.508368 -340.625455 
L 1320.665754 -343.92 
L 1317.728947 -347.214545 
L 1314.779467 -350.509091 
L 1311.915408 -353.803636 
L 1309.247814 -357.098182 
L 1306.895174 -360.392727 
L 1304.976299 -363.687273 
L 1303.602072 -366.981818 
L 1302.866788 -370.276364 
L 1302.84 -373.570909 
L 1303.559782 -376.865455 
L 1305.02828 -380.16 
L 1409.77172 -380.16 
L 1409.77172 -380.16 
L 1411.240218 -376.865455 
L 1411.96 -373.570909 
L 1411.933212 -370.276364 
L 1411.197928 -366.981818 
L 1409.823701 -363.687273 
L 1407.904826 -360.392727 
L 1405.552186 -357.098182 
L 1402.884592 -353.803636 
L 1400.020533 -350.509091 
L 1397.071053 -347.214545 
L 1394.134246 -343.92 
L 1391.291632 -340.625455 
L 1388.606365 -337.330909 
L 1386.123112 -334.036364 
L 1383.869239 -330.741818 
L 1381.856935 -327.447273 
L 1380.085873 -324.152727 
L 1378.546082 -320.858182 
L 1377.220739 -317.563636 
L 1376.088711 -314.269091 
L 1375.126711 -310.974545 
L 1374.311018 -307.68 
L 1373.618758 -304.385455 
L 1373.028758 -301.090909 
L 1372.522038 -297.796364 
L 1372.081996 -294.501818 
L 1371.694377 -291.207273 
L 1371.34708 -287.912727 
L 1371.029904 -284.618182 
L 1370.734262 -281.323636 
L 1370.452942 -278.029091 
L 1370.179913 -274.734545 
L 1369.910197 -271.44 
L 1369.639797 -268.145455 
L 1369.365654 -264.850909 
L 1369.085616 -261.556364 
L 1368.798397 -258.261818 
L 1368.503508 -254.967273 
L 1368.201159 -251.672727 
L 1367.892143 -248.378182 
L 1367.577707 -245.083636 
L 1367.259425 -241.789091 
L 1366.939087 -238.494545 
L 1366.618611 -235.2 
L 1366.299968 -231.905455 
L 1365.985124 -228.610909 
L 1365.675976 -225.316364 
L 1365.374281 -222.021818 
L 1365.081577 -218.727273 
L 1364.799079 -215.432727 
L 1364.527588 -212.138182 
L 1364.267394 -208.843636 
L 1364.018221 -205.549091 
L 1363.779209 -202.254545 
L 1363.548947 -198.96 
L 1363.325565 -195.665455 
L 1363.106871 -192.370909 
L 1362.890529 -189.076364 
L 1362.674252 -185.781818 
L 1362.455998 -182.487273 
L 1362.234143 -179.192727 
L 1362.007627 -175.898182 
L 1361.776056 -172.603636 
L 1361.539752 -169.309091 
L 1361.299759 -166.014545 
L 1361.057795 -162.72 
L 1360.816165 -159.425455 
L 1360.577628 -156.130909 
L 1360.345233 -152.836364 
L 1360.122138 -149.541818 
L 1359.911402 -146.247273 
L 1359.715787 -142.952727 
L 1359.537579 -139.658182 
L 1359.378432 -136.363636 
L 1359.239269 -133.069091 
L 1359.120245 -129.774545 
L 1359.02077 -126.48 
L 1358.939611 -123.185455 
L 1358.875048 -119.890909 
L 1358.825075 -116.596364 
L 1358.787629 -113.301818 
L 1358.760806 -110.007273 
L 1358.74304 -106.712727 
L 1358.733231 -103.418182 
L 1358.730774 -100.123636 
L 1358.735512 -96.829091 
L 1358.747586 -93.534545 
L 1358.767219 -90.24 
L 1358.794455 -86.945455 
L 1358.828891 -83.650909 
L 1358.869454 -80.356364 
L 1358.914255 -77.061818 
L 1358.960551 -73.767273 
L 1359.004843 -70.472727 
L 1359.043098 -67.178182 
L 1359.071077 -63.883636 
L 1359.084726 -60.589091 
L 1359.080583 -57.294545 
L 1359.056149 -54 
z
" style="stroke: #7f7f7f; stroke-width: 3"/>
    </defs>
    <g clip-path="url(#p154c087d0f)">
     <use xlink:href="#mf2d6a0841e" x="0" y="432" style="fill: #d3d3d3; stroke: #7f7f7f; stroke-width: 3"/>
    </g>
   </g>
   <g id="PathCollection_1">
    <defs>
     <path id="C0_0_55cc363ae4" d="M 0 3.383948 
C 0.897434 3.383948 1.758231 3.027394 2.392813 2.392813 
C 3.027394 1.758231 3.383948 0.897434 3.383948 -0 
C 3.383948 -0.897434 3.027394 -1.758231 2.392813 -2.392813 
C 1.758231 -3.027394 0.897434 -3.383948 0 -3.383948 
C -0.897434 -3.383948 -1.758231 -3.027394 -2.392813 -2.392813 
C -3.027394 -1.758231 -3.383948 -0.897434 -3.383948 0 
C -3.383948 0.897434 -3.027394 1.758231 -2.392813 2.392813 
C -1.758231 3.027394 -0.897434 3.383948 0 3.383948 
z
"/>
    </defs>
    <g clip-path="url(#p154c087d0f)">
     <use xlink:href="#C0_0_55cc363ae4" x="266.2" y="138.033392" style="fill: #808080; stroke: #808080; stroke-width: 2.025"/>
    </g>
    <g clip-path="url(#p154c087d0f)">
     <use xlink:href="#C0_0_55cc363ae4" x="402.6" y="122.864971" style="fill: #808080; stroke: #808080; stroke-width: 2.025"/>
    </g>
    <g clip-path="url(#p154c087d0f)">
     <use xlink:href="#C0_0_55cc363ae4" x="539" y="121.442808" style="fill: #808080; stroke: #808080; stroke-width: 2.025"/>
    </g>
    <g clip-path="url(#p154c087d0f)">
     <use xlink:href="#C0_0_55cc363ae4" x="675.4" y="116.941272" style="fill: #808080; stroke: #808080; stroke-width: 2.025"/>
    </g>
    <g clip-path="url(#p154c087d0f)">
     <use xlink:href="#C0_0_55cc363ae4" x="811.8" y="113.259757" style="fill: #808080; stroke: #808080; stroke-width: 2.025"/>
    </g>
    <g clip-path="url(#p154c087d0f)">
     <use xlink:href="#C0_0_55cc363ae4" x="948.2" y="106.49887" style="fill: #808080; stroke: #808080; stroke-width: 2.025"/>
    </g>
    <g clip-path="url(#p154c087d0f)">
     <use xlink:href="#C0_0_55cc363ae4" x="1084.6" y="110.655759" style="fill: #808080; stroke: #808080; stroke-width: 2.025"/>
    </g>
    <g clip-path="url(#p154c087d0f)">
     <use xlink:href="#C0_0_55cc363ae4" x="1221" y="105.898049" style="fill: #808080; stroke: #808080; stroke-width: 2.025"/>
    </g>
    <g clip-path="url(#p154c087d0f)">
     <use xlink:href="#C0_0_55cc363ae4" x="1357.4" y="104.124636" style="fill: #808080; stroke: #808080; stroke-width: 2.025"/>
    </g>
   </g>
   <g id="patch_3">
    <path d="M 198 378 
L 1425.6 378 
" style="fill: none; stroke: #cccccc; stroke-width: 1.25; stroke-linejoin: miter; stroke-linecap: square"/>
   </g>
  </g>
  <g id="text_17">
   <!-- SRtest -->
   <g style="fill: #262626" transform="translate(758.524219 22.317187)scale(0.18 -0.18)">
    <defs>
     <path id="DejaVuSans-Bold-53" d="M 3834 4519 
L 3834 3531 
Q 3450 3703 3084 3790 
Q 2719 3878 2394 3878 
Q 1963 3878 1756 3759 
Q 1550 3641 1550 3391 
Q 1550 3203 1689 3098 
Q 1828 2994 2194 2919 
L 2706 2816 
Q 3484 2659 3812 2340 
Q 4141 2022 4141 1434 
Q 4141 663 3683 286 
Q 3225 -91 2284 -91 
Q 1841 -91 1394 -6 
Q 947 78 500 244 
L 500 1259 
Q 947 1022 1364 901 
Q 1781 781 2169 781 
Q 2563 781 2772 912 
Q 2981 1044 2981 1288 
Q 2981 1506 2839 1625 
Q 2697 1744 2272 1838 
L 1806 1941 
Q 1106 2091 782 2419 
Q 459 2747 459 3303 
Q 459 4000 909 4375 
Q 1359 4750 2203 4750 
Q 2588 4750 2994 4692 
Q 3400 4634 3834 4519 
z
" transform="scale(0.015625)"/>
     <path id="DejaVuSans-Bold-52" d="M 2297 2597 
Q 2675 2597 2839 2737 
Q 3003 2878 3003 3200 
Q 3003 3519 2839 3656 
Q 2675 3794 2297 3794 
L 1791 3794 
L 1791 2597 
L 2297 2597 
z
M 1791 1766 
L 1791 0 
L 588 0 
L 588 4666 
L 2425 4666 
Q 3347 4666 3776 4356 
Q 4206 4047 4206 3378 
Q 4206 2916 3982 2619 
Q 3759 2322 3309 2181 
Q 3556 2125 3751 1926 
Q 3947 1728 4147 1325 
L 4800 0 
L 3519 0 
L 2950 1159 
Q 2778 1509 2601 1637 
Q 2425 1766 2131 1766 
L 1791 1766 
z
" transform="scale(0.015625)"/>
     <path id="DejaVuSans-Bold-74" d="M 1759 4494 
L 1759 3500 
L 2913 3500 
L 2913 2700 
L 1759 2700 
L 1759 1216 
Q 1759 972 1856 886 
Q 1953 800 2241 800 
L 2816 800 
L 2816 0 
L 1856 0 
Q 1194 0 917 276 
Q 641 553 641 1216 
L 641 2700 
L 84 2700 
L 84 3500 
L 641 3500 
L 641 4494 
L 1759 4494 
z
" transform="scale(0.015625)"/>
     <path id="DejaVuSans-Bold-65" d="M 4031 1759 
L 4031 1441 
L 1416 1441 
Q 1456 1047 1700 850 
Q 1944 653 2381 653 
Q 2734 653 3104 758 
Q 3475 863 3866 1075 
L 3866 213 
Q 3469 63 3072 -14 
Q 2675 -91 2278 -91 
Q 1328 -91 801 392 
Q 275 875 275 1747 
Q 275 2603 792 3093 
Q 1309 3584 2216 3584 
Q 3041 3584 3536 3087 
Q 4031 2591 4031 1759 
z
M 2881 2131 
Q 2881 2450 2695 2645 
Q 2509 2841 2209 2841 
Q 1884 2841 1681 2658 
Q 1478 2475 1428 2131 
L 2881 2131 
z
" transform="scale(0.015625)"/>
     <path id="DejaVuSans-Bold-73" d="M 3272 3391 
L 3272 2541 
Q 2913 2691 2578 2766 
Q 2244 2841 1947 2841 
Q 1628 2841 1473 2761 
Q 1319 2681 1319 2516 
Q 1319 2381 1436 2309 
Q 1553 2238 1856 2203 
L 2053 2175 
Q 2913 2066 3209 1816 
Q 3506 1566 3506 1031 
Q 3506 472 3093 190 
Q 2681 -91 1863 -91 
Q 1516 -91 1145 -36 
Q 775 19 384 128 
L 384 978 
Q 719 816 1070 734 
Q 1422 653 1784 653 
Q 2113 653 2278 743 
Q 2444 834 2444 1013 
Q 2444 1163 2330 1236 
Q 2216 1309 1875 1350 
L 1678 1375 
Q 931 1469 631 1722 
Q 331 1975 331 2491 
Q 331 3047 712 3315 
Q 1094 3584 1881 3584 
Q 2191 3584 2531 3537 
Q 2872 3491 3272 3391 
z
" transform="scale(0.015625)"/>
    </defs>
    <use xlink:href="#DejaVuSans-Bold-53"/>
    <use xlink:href="#DejaVuSans-Bold-52" x="72.021484"/>
    <use xlink:href="#DejaVuSans-Bold-74" x="149.023438"/>
    <use xlink:href="#DejaVuSans-Bold-65" x="196.826172"/>
    <use xlink:href="#DejaVuSans-Bold-73" x="264.648438"/>
    <use xlink:href="#DejaVuSans-Bold-74" x="324.169922"/>
   </g>
  </g>
 </g>
 <defs>
  <clipPath id="p154c087d0f">
   <rect x="198" y="51.84" width="1227.6" height="326.16"/>
  </clipPath>
 </defs>
</svg>
