<?xml version="1.0" encoding="utf-8" standalone="no"?>
<!DOCTYPE svg PUBLIC "-//W3C//DTD SVG 1.1//EN"
  "http://www.w3.org/Graphics/SVG/1.1/DTD/svg11.dtd">
<svg xmlns:xlink="http://www.w3.org/1999/xlink" width="1296pt" height="432pt" viewBox="0 0 1296 432" xmlns="http://www.w3.org/2000/svg" version="1.1">
 <metadata>
  <rdf:RDF xmlns:dc="http://purl.org/dc/elements/1.1/" xmlns:cc="http://creativecommons.org/ns#" xmlns:rdf="http://www.w3.org/1999/02/22-rdf-syntax-ns#">
   <cc:Work>
    <dc:type rdf:resource="http://purl.org/dc/dcmitype/StillImage"/>
    <dc:date>2023-08-24T14:16:15.266728</dc:date>
    <dc:format>image/svg+xml</dc:format>
    <dc:creator>
     <cc:Agent>
      <dc:title>Matplotlib v3.5.1, https://matplotlib.org/</dc:title>
     </cc:Agent>
    </dc:creator>
   </cc:Work>
  </rdf:RDF>
 </metadata>
 <defs>
  <style type="text/css">*{stroke-linejoin: round; stroke-linecap: butt}</style>
 </defs>
 <g id="figure_1">
  <g id="patch_1">
   <path d="M 0 432 
L 1296 432 
L 1296 0 
L 0 0 
z
" style="fill: #ffffff"/>
  </g>
  <g id="axes_1">
   <g id="patch_2">
    <path d="M 162 378 
L 1166.4 378 
L 1166.4 51.84 
L 162 51.84 
z
" style="fill: #ffffff"/>
   </g>
   <g id="matplotlib.axis_1">
    <g id="xtick_1">
     <g id="text_1">
      <!-- RNAfold -->
      <g style="fill: #262626" transform="translate(182.093906 401.177188)scale(0.18 -0.18)">
       <defs>
        <path id="DejaVuSans-52" d="M 2841 2188 
Q 3044 2119 3236 1894 
Q 3428 1669 3622 1275 
L 4263 0 
L 3584 0 
L 2988 1197 
Q 2756 1666 2539 1819 
Q 2322 1972 1947 1972 
L 1259 1972 
L 1259 0 
L 628 0 
L 628 4666 
L 2053 4666 
Q 2853 4666 3247 4331 
Q 3641 3997 3641 3322 
Q 3641 2881 3436 2590 
Q 3231 2300 2841 2188 
z
M 1259 4147 
L 1259 2491 
L 2053 2491 
Q 2509 2491 2742 2702 
Q 2975 2913 2975 3322 
Q 2975 3731 2742 3939 
Q 2509 4147 2053 4147 
L 1259 4147 
z
" transform="scale(0.015625)"/>
        <path id="DejaVuSans-4e" d="M 628 4666 
L 1478 4666 
L 3547 763 
L 3547 4666 
L 4159 4666 
L 4159 0 
L 3309 0 
L 1241 3903 
L 1241 0 
L 628 0 
L 628 4666 
z
" transform="scale(0.015625)"/>
        <path id="DejaVuSans-41" d="M 2188 4044 
L 1331 1722 
L 3047 1722 
L 2188 4044 
z
M 1831 4666 
L 2547 4666 
L 4325 0 
L 3669 0 
L 3244 1197 
L 1141 1197 
L 716 0 
L 50 0 
L 1831 4666 
z
" transform="scale(0.015625)"/>
        <path id="DejaVuSans-66" d="M 2375 4863 
L 2375 4384 
L 1825 4384 
Q 1516 4384 1395 4259 
Q 1275 4134 1275 3809 
L 1275 3500 
L 2222 3500 
L 2222 3053 
L 1275 3053 
L 1275 0 
L 697 0 
L 697 3053 
L 147 3053 
L 147 3500 
L 697 3500 
L 697 3744 
Q 697 4328 969 4595 
Q 1241 4863 1831 4863 
L 2375 4863 
z
" transform="scale(0.015625)"/>
        <path id="DejaVuSans-6f" d="M 1959 3097 
Q 1497 3097 1228 2736 
Q 959 2375 959 1747 
Q 959 1119 1226 758 
Q 1494 397 1959 397 
Q 2419 397 2687 759 
Q 2956 1122 2956 1747 
Q 2956 2369 2687 2733 
Q 2419 3097 1959 3097 
z
M 1959 3584 
Q 2709 3584 3137 3096 
Q 3566 2609 3566 1747 
Q 3566 888 3137 398 
Q 2709 -91 1959 -91 
Q 1206 -91 779 398 
Q 353 888 353 1747 
Q 353 2609 779 3096 
Q 1206 3584 1959 3584 
z
" transform="scale(0.015625)"/>
        <path id="DejaVuSans-6c" d="M 603 4863 
L 1178 4863 
L 1178 0 
L 603 0 
L 603 4863 
z
" transform="scale(0.015625)"/>
        <path id="DejaVuSans-64" d="M 2906 2969 
L 2906 4863 
L 3481 4863 
L 3481 0 
L 2906 0 
L 2906 525 
Q 2725 213 2448 61 
Q 2172 -91 1784 -91 
Q 1150 -91 751 415 
Q 353 922 353 1747 
Q 353 2572 751 3078 
Q 1150 3584 1784 3584 
Q 2172 3584 2448 3432 
Q 2725 3281 2906 2969 
z
M 947 1747 
Q 947 1113 1208 752 
Q 1469 391 1925 391 
Q 2381 391 2643 752 
Q 2906 1113 2906 1747 
Q 2906 2381 2643 2742 
Q 2381 3103 1925 3103 
Q 1469 3103 1208 2742 
Q 947 2381 947 1747 
z
" transform="scale(0.015625)"/>
       </defs>
       <use xlink:href="#DejaVuSans-52"/>
       <use xlink:href="#DejaVuSans-4e" x="69.482422"/>
       <use xlink:href="#DejaVuSans-41" x="144.287109"/>
       <use xlink:href="#DejaVuSans-66" x="209.070312"/>
       <use xlink:href="#DejaVuSans-6f" x="244.275391"/>
       <use xlink:href="#DejaVuSans-6c" x="305.457031"/>
       <use xlink:href="#DejaVuSans-64" x="333.240234"/>
      </g>
     </g>
    </g>
    <g id="xtick_2">
     <g id="text_2">
      <!-- IPknot -->
      <g style="fill: #262626" transform="translate(301.367813 401.177188)scale(0.18 -0.18)">
       <defs>
        <path id="DejaVuSans-49" d="M 628 4666 
L 1259 4666 
L 1259 0 
L 628 0 
L 628 4666 
z
" transform="scale(0.015625)"/>
        <path id="DejaVuSans-50" d="M 1259 4147 
L 1259 2394 
L 2053 2394 
Q 2494 2394 2734 2622 
Q 2975 2850 2975 3272 
Q 2975 3691 2734 3919 
Q 2494 4147 2053 4147 
L 1259 4147 
z
M 628 4666 
L 2053 4666 
Q 2838 4666 3239 4311 
Q 3641 3956 3641 3272 
Q 3641 2581 3239 2228 
Q 2838 1875 2053 1875 
L 1259 1875 
L 1259 0 
L 628 0 
L 628 4666 
z
" transform="scale(0.015625)"/>
        <path id="DejaVuSans-6b" d="M 581 4863 
L 1159 4863 
L 1159 1991 
L 2875 3500 
L 3609 3500 
L 1753 1863 
L 3688 0 
L 2938 0 
L 1159 1709 
L 1159 0 
L 581 0 
L 581 4863 
z
" transform="scale(0.015625)"/>
        <path id="DejaVuSans-6e" d="M 3513 2113 
L 3513 0 
L 2938 0 
L 2938 2094 
Q 2938 2591 2744 2837 
Q 2550 3084 2163 3084 
Q 1697 3084 1428 2787 
Q 1159 2491 1159 1978 
L 1159 0 
L 581 0 
L 581 3500 
L 1159 3500 
L 1159 2956 
Q 1366 3272 1645 3428 
Q 1925 3584 2291 3584 
Q 2894 3584 3203 3211 
Q 3513 2838 3513 2113 
z
" transform="scale(0.015625)"/>
        <path id="DejaVuSans-74" d="M 1172 4494 
L 1172 3500 
L 2356 3500 
L 2356 3053 
L 1172 3053 
L 1172 1153 
Q 1172 725 1289 603 
Q 1406 481 1766 481 
L 2356 481 
L 2356 0 
L 1766 0 
Q 1100 0 847 248 
Q 594 497 594 1153 
L 594 3053 
L 172 3053 
L 172 3500 
L 594 3500 
L 594 4494 
L 1172 4494 
z
" transform="scale(0.015625)"/>
       </defs>
       <use xlink:href="#DejaVuSans-49"/>
       <use xlink:href="#DejaVuSans-50" x="29.492188"/>
       <use xlink:href="#DejaVuSans-6b" x="89.794922"/>
       <use xlink:href="#DejaVuSans-6e" x="147.705078"/>
       <use xlink:href="#DejaVuSans-6f" x="211.083984"/>
       <use xlink:href="#DejaVuSans-74" x="272.265625"/>
      </g>
     </g>
    </g>
    <g id="xtick_3">
     <g id="text_3">
      <!-- ShapeKnots -->
      <g style="fill: #262626" transform="translate(387.486562 401.177188)scale(0.18 -0.18)">
       <defs>
        <path id="DejaVuSans-53" d="M 3425 4513 
L 3425 3897 
Q 3066 4069 2747 4153 
Q 2428 4238 2131 4238 
Q 1616 4238 1336 4038 
Q 1056 3838 1056 3469 
Q 1056 3159 1242 3001 
Q 1428 2844 1947 2747 
L 2328 2669 
Q 3034 2534 3370 2195 
Q 3706 1856 3706 1288 
Q 3706 609 3251 259 
Q 2797 -91 1919 -91 
Q 1588 -91 1214 -16 
Q 841 59 441 206 
L 441 856 
Q 825 641 1194 531 
Q 1563 422 1919 422 
Q 2459 422 2753 634 
Q 3047 847 3047 1241 
Q 3047 1584 2836 1778 
Q 2625 1972 2144 2069 
L 1759 2144 
Q 1053 2284 737 2584 
Q 422 2884 422 3419 
Q 422 4038 858 4394 
Q 1294 4750 2059 4750 
Q 2388 4750 2728 4690 
Q 3069 4631 3425 4513 
z
" transform="scale(0.015625)"/>
        <path id="DejaVuSans-68" d="M 3513 2113 
L 3513 0 
L 2938 0 
L 2938 2094 
Q 2938 2591 2744 2837 
Q 2550 3084 2163 3084 
Q 1697 3084 1428 2787 
Q 1159 2491 1159 1978 
L 1159 0 
L 581 0 
L 581 4863 
L 1159 4863 
L 1159 2956 
Q 1366 3272 1645 3428 
Q 1925 3584 2291 3584 
Q 2894 3584 3203 3211 
Q 3513 2838 3513 2113 
z
" transform="scale(0.015625)"/>
        <path id="DejaVuSans-61" d="M 2194 1759 
Q 1497 1759 1228 1600 
Q 959 1441 959 1056 
Q 959 750 1161 570 
Q 1363 391 1709 391 
Q 2188 391 2477 730 
Q 2766 1069 2766 1631 
L 2766 1759 
L 2194 1759 
z
M 3341 1997 
L 3341 0 
L 2766 0 
L 2766 531 
Q 2569 213 2275 61 
Q 1981 -91 1556 -91 
Q 1019 -91 701 211 
Q 384 513 384 1019 
Q 384 1609 779 1909 
Q 1175 2209 1959 2209 
L 2766 2209 
L 2766 2266 
Q 2766 2663 2505 2880 
Q 2244 3097 1772 3097 
Q 1472 3097 1187 3025 
Q 903 2953 641 2809 
L 641 3341 
Q 956 3463 1253 3523 
Q 1550 3584 1831 3584 
Q 2591 3584 2966 3190 
Q 3341 2797 3341 1997 
z
" transform="scale(0.015625)"/>
        <path id="DejaVuSans-70" d="M 1159 525 
L 1159 -1331 
L 581 -1331 
L 581 3500 
L 1159 3500 
L 1159 2969 
Q 1341 3281 1617 3432 
Q 1894 3584 2278 3584 
Q 2916 3584 3314 3078 
Q 3713 2572 3713 1747 
Q 3713 922 3314 415 
Q 2916 -91 2278 -91 
Q 1894 -91 1617 61 
Q 1341 213 1159 525 
z
M 3116 1747 
Q 3116 2381 2855 2742 
Q 2594 3103 2138 3103 
Q 1681 3103 1420 2742 
Q 1159 2381 1159 1747 
Q 1159 1113 1420 752 
Q 1681 391 2138 391 
Q 2594 391 2855 752 
Q 3116 1113 3116 1747 
z
" transform="scale(0.015625)"/>
        <path id="DejaVuSans-65" d="M 3597 1894 
L 3597 1613 
L 953 1613 
Q 991 1019 1311 708 
Q 1631 397 2203 397 
Q 2534 397 2845 478 
Q 3156 559 3463 722 
L 3463 178 
Q 3153 47 2828 -22 
Q 2503 -91 2169 -91 
Q 1331 -91 842 396 
Q 353 884 353 1716 
Q 353 2575 817 3079 
Q 1281 3584 2069 3584 
Q 2775 3584 3186 3129 
Q 3597 2675 3597 1894 
z
M 3022 2063 
Q 3016 2534 2758 2815 
Q 2500 3097 2075 3097 
Q 1594 3097 1305 2825 
Q 1016 2553 972 2059 
L 3022 2063 
z
" transform="scale(0.015625)"/>
        <path id="DejaVuSans-4b" d="M 628 4666 
L 1259 4666 
L 1259 2694 
L 3353 4666 
L 4166 4666 
L 1850 2491 
L 4331 0 
L 3500 0 
L 1259 2247 
L 1259 0 
L 628 0 
L 628 4666 
z
" transform="scale(0.015625)"/>
        <path id="DejaVuSans-73" d="M 2834 3397 
L 2834 2853 
Q 2591 2978 2328 3040 
Q 2066 3103 1784 3103 
Q 1356 3103 1142 2972 
Q 928 2841 928 2578 
Q 928 2378 1081 2264 
Q 1234 2150 1697 2047 
L 1894 2003 
Q 2506 1872 2764 1633 
Q 3022 1394 3022 966 
Q 3022 478 2636 193 
Q 2250 -91 1575 -91 
Q 1294 -91 989 -36 
Q 684 19 347 128 
L 347 722 
Q 666 556 975 473 
Q 1284 391 1588 391 
Q 1994 391 2212 530 
Q 2431 669 2431 922 
Q 2431 1156 2273 1281 
Q 2116 1406 1581 1522 
L 1381 1569 
Q 847 1681 609 1914 
Q 372 2147 372 2553 
Q 372 3047 722 3315 
Q 1072 3584 1716 3584 
Q 2034 3584 2315 3537 
Q 2597 3491 2834 3397 
z
" transform="scale(0.015625)"/>
       </defs>
       <use xlink:href="#DejaVuSans-53"/>
       <use xlink:href="#DejaVuSans-68" x="63.476562"/>
       <use xlink:href="#DejaVuSans-61" x="126.855469"/>
       <use xlink:href="#DejaVuSans-70" x="188.134766"/>
       <use xlink:href="#DejaVuSans-65" x="251.611328"/>
       <use xlink:href="#DejaVuSans-4b" x="313.134766"/>
       <use xlink:href="#DejaVuSans-6e" x="378.710938"/>
       <use xlink:href="#DejaVuSans-6f" x="442.089844"/>
       <use xlink:href="#DejaVuSans-74" x="503.271484"/>
       <use xlink:href="#DejaVuSans-73" x="542.480469"/>
      </g>
     </g>
    </g>
    <g id="xtick_4">
     <g id="text_4">
      <!-- SQUARNA -->
      <g style="fill: #262626" transform="translate(507.915 401.177188)scale(0.18 -0.18)">
       <defs>
        <path id="DejaVuSans-51" d="M 2522 4238 
Q 1834 4238 1429 3725 
Q 1025 3213 1025 2328 
Q 1025 1447 1429 934 
Q 1834 422 2522 422 
Q 3209 422 3611 934 
Q 4013 1447 4013 2328 
Q 4013 3213 3611 3725 
Q 3209 4238 2522 4238 
z
M 3406 84 
L 4238 -825 
L 3475 -825 
L 2784 -78 
Q 2681 -84 2626 -87 
Q 2572 -91 2522 -91 
Q 1538 -91 948 567 
Q 359 1225 359 2328 
Q 359 3434 948 4092 
Q 1538 4750 2522 4750 
Q 3503 4750 4090 4092 
Q 4678 3434 4678 2328 
Q 4678 1516 4351 937 
Q 4025 359 3406 84 
z
" transform="scale(0.015625)"/>
        <path id="DejaVuSans-55" d="M 556 4666 
L 1191 4666 
L 1191 1831 
Q 1191 1081 1462 751 
Q 1734 422 2344 422 
Q 2950 422 3222 751 
Q 3494 1081 3494 1831 
L 3494 4666 
L 4128 4666 
L 4128 1753 
Q 4128 841 3676 375 
Q 3225 -91 2344 -91 
Q 1459 -91 1007 375 
Q 556 841 556 1753 
L 556 4666 
z
" transform="scale(0.015625)"/>
       </defs>
       <use xlink:href="#DejaVuSans-53"/>
       <use xlink:href="#DejaVuSans-51" x="63.476562"/>
       <use xlink:href="#DejaVuSans-55" x="142.1875"/>
       <use xlink:href="#DejaVuSans-41" x="215.380859"/>
       <use xlink:href="#DejaVuSans-52" x="283.789062"/>
       <use xlink:href="#DejaVuSans-4e" x="353.271484"/>
       <use xlink:href="#DejaVuSans-41" x="428.076172"/>
      </g>
      <!-- default -->
      <g style="fill: #262626" transform="translate(520.932656 421.33325)scale(0.18 -0.18)">
       <defs>
        <path id="DejaVuSans-75" d="M 544 1381 
L 544 3500 
L 1119 3500 
L 1119 1403 
Q 1119 906 1312 657 
Q 1506 409 1894 409 
Q 2359 409 2629 706 
Q 2900 1003 2900 1516 
L 2900 3500 
L 3475 3500 
L 3475 0 
L 2900 0 
L 2900 538 
Q 2691 219 2414 64 
Q 2138 -91 1772 -91 
Q 1169 -91 856 284 
Q 544 659 544 1381 
z
M 1991 3584 
L 1991 3584 
z
" transform="scale(0.015625)"/>
       </defs>
       <use xlink:href="#DejaVuSans-64"/>
       <use xlink:href="#DejaVuSans-65" x="63.476562"/>
       <use xlink:href="#DejaVuSans-66" x="125"/>
       <use xlink:href="#DejaVuSans-61" x="160.205078"/>
       <use xlink:href="#DejaVuSans-75" x="221.484375"/>
       <use xlink:href="#DejaVuSans-6c" x="284.863281"/>
       <use xlink:href="#DejaVuSans-74" x="312.646484"/>
      </g>
      <!-- top-1 -->
      <g style="fill: #262626" transform="translate(528.877969 441.489312)scale(0.18 -0.18)">
       <defs>
        <path id="DejaVuSans-2d" d="M 313 2009 
L 1997 2009 
L 1997 1497 
L 313 1497 
L 313 2009 
z
" transform="scale(0.015625)"/>
        <path id="DejaVuSans-31" d="M 794 531 
L 1825 531 
L 1825 4091 
L 703 3866 
L 703 4441 
L 1819 4666 
L 2450 4666 
L 2450 531 
L 3481 531 
L 3481 0 
L 794 0 
L 794 531 
z
" transform="scale(0.015625)"/>
       </defs>
       <use xlink:href="#DejaVuSans-74"/>
       <use xlink:href="#DejaVuSans-6f" x="39.208984"/>
       <use xlink:href="#DejaVuSans-70" x="100.390625"/>
       <use xlink:href="#DejaVuSans-2d" x="163.867188"/>
       <use xlink:href="#DejaVuSans-31" x="199.951172"/>
      </g>
     </g>
    </g>
    <g id="xtick_5">
     <g id="text_5">
      <!-- SQUARNA -->
      <g style="fill: #262626" transform="translate(619.515 401.177188)scale(0.18 -0.18)">
       <use xlink:href="#DejaVuSans-53"/>
       <use xlink:href="#DejaVuSans-51" x="63.476562"/>
       <use xlink:href="#DejaVuSans-55" x="142.1875"/>
       <use xlink:href="#DejaVuSans-41" x="215.380859"/>
       <use xlink:href="#DejaVuSans-52" x="283.789062"/>
       <use xlink:href="#DejaVuSans-4e" x="353.271484"/>
       <use xlink:href="#DejaVuSans-41" x="428.076172"/>
      </g>
      <!-- alternative -->
      <g style="fill: #262626" transform="translate(615.463594 421.33325)scale(0.18 -0.18)">
       <defs>
        <path id="DejaVuSans-72" d="M 2631 2963 
Q 2534 3019 2420 3045 
Q 2306 3072 2169 3072 
Q 1681 3072 1420 2755 
Q 1159 2438 1159 1844 
L 1159 0 
L 581 0 
L 581 3500 
L 1159 3500 
L 1159 2956 
Q 1341 3275 1631 3429 
Q 1922 3584 2338 3584 
Q 2397 3584 2469 3576 
Q 2541 3569 2628 3553 
L 2631 2963 
z
" transform="scale(0.015625)"/>
        <path id="DejaVuSans-69" d="M 603 3500 
L 1178 3500 
L 1178 0 
L 603 0 
L 603 3500 
z
M 603 4863 
L 1178 4863 
L 1178 4134 
L 603 4134 
L 603 4863 
z
" transform="scale(0.015625)"/>
        <path id="DejaVuSans-76" d="M 191 3500 
L 800 3500 
L 1894 563 
L 2988 3500 
L 3597 3500 
L 2284 0 
L 1503 0 
L 191 3500 
z
" transform="scale(0.015625)"/>
       </defs>
       <use xlink:href="#DejaVuSans-61"/>
       <use xlink:href="#DejaVuSans-6c" x="61.279297"/>
       <use xlink:href="#DejaVuSans-74" x="89.0625"/>
       <use xlink:href="#DejaVuSans-65" x="128.271484"/>
       <use xlink:href="#DejaVuSans-72" x="189.794922"/>
       <use xlink:href="#DejaVuSans-6e" x="229.158203"/>
       <use xlink:href="#DejaVuSans-61" x="292.537109"/>
       <use xlink:href="#DejaVuSans-74" x="353.816406"/>
       <use xlink:href="#DejaVuSans-69" x="393.025391"/>
       <use xlink:href="#DejaVuSans-76" x="420.808594"/>
       <use xlink:href="#DejaVuSans-65" x="479.988281"/>
      </g>
      <!-- top-1 -->
      <g style="fill: #262626" transform="translate(640.477969 441.489312)scale(0.18 -0.18)">
       <use xlink:href="#DejaVuSans-74"/>
       <use xlink:href="#DejaVuSans-6f" x="39.208984"/>
       <use xlink:href="#DejaVuSans-70" x="100.390625"/>
       <use xlink:href="#DejaVuSans-2d" x="163.867188"/>
       <use xlink:href="#DejaVuSans-31" x="199.951172"/>
      </g>
     </g>
    </g>
    <g id="xtick_6">
     <g id="text_6">
      <!-- MXfold2 -->
      <g style="fill: #262626" transform="translate(739.254375 401.177188)scale(0.18 -0.18)">
       <defs>
        <path id="DejaVuSans-4d" d="M 628 4666 
L 1569 4666 
L 2759 1491 
L 3956 4666 
L 4897 4666 
L 4897 0 
L 4281 0 
L 4281 4097 
L 3078 897 
L 2444 897 
L 1241 4097 
L 1241 0 
L 628 0 
L 628 4666 
z
" transform="scale(0.015625)"/>
        <path id="DejaVuSans-58" d="M 403 4666 
L 1081 4666 
L 2241 2931 
L 3406 4666 
L 4084 4666 
L 2584 2425 
L 4184 0 
L 3506 0 
L 2194 1984 
L 872 0 
L 191 0 
L 1856 2491 
L 403 4666 
z
" transform="scale(0.015625)"/>
        <path id="DejaVuSans-32" d="M 1228 531 
L 3431 531 
L 3431 0 
L 469 0 
L 469 531 
Q 828 903 1448 1529 
Q 2069 2156 2228 2338 
Q 2531 2678 2651 2914 
Q 2772 3150 2772 3378 
Q 2772 3750 2511 3984 
Q 2250 4219 1831 4219 
Q 1534 4219 1204 4116 
Q 875 4013 500 3803 
L 500 4441 
Q 881 4594 1212 4672 
Q 1544 4750 1819 4750 
Q 2544 4750 2975 4387 
Q 3406 4025 3406 3419 
Q 3406 3131 3298 2873 
Q 3191 2616 2906 2266 
Q 2828 2175 2409 1742 
Q 1991 1309 1228 531 
z
" transform="scale(0.015625)"/>
       </defs>
       <use xlink:href="#DejaVuSans-4d"/>
       <use xlink:href="#DejaVuSans-58" x="86.279297"/>
       <use xlink:href="#DejaVuSans-66" x="154.785156"/>
       <use xlink:href="#DejaVuSans-6f" x="189.990234"/>
       <use xlink:href="#DejaVuSans-6c" x="251.171875"/>
       <use xlink:href="#DejaVuSans-64" x="278.955078"/>
       <use xlink:href="#DejaVuSans-32" x="342.431641"/>
      </g>
     </g>
    </g>
    <g id="xtick_7">
     <g id="text_7">
      <!-- SPOT-RNA -->
      <g style="fill: #262626" transform="translate(842.108906 401.177188)scale(0.18 -0.18)">
       <defs>
        <path id="DejaVuSans-4f" d="M 2522 4238 
Q 1834 4238 1429 3725 
Q 1025 3213 1025 2328 
Q 1025 1447 1429 934 
Q 1834 422 2522 422 
Q 3209 422 3611 934 
Q 4013 1447 4013 2328 
Q 4013 3213 3611 3725 
Q 3209 4238 2522 4238 
z
M 2522 4750 
Q 3503 4750 4090 4092 
Q 4678 3434 4678 2328 
Q 4678 1225 4090 567 
Q 3503 -91 2522 -91 
Q 1538 -91 948 565 
Q 359 1222 359 2328 
Q 359 3434 948 4092 
Q 1538 4750 2522 4750 
z
" transform="scale(0.015625)"/>
        <path id="DejaVuSans-54" d="M -19 4666 
L 3928 4666 
L 3928 4134 
L 2272 4134 
L 2272 0 
L 1638 0 
L 1638 4134 
L -19 4134 
L -19 4666 
z
" transform="scale(0.015625)"/>
       </defs>
       <use xlink:href="#DejaVuSans-53"/>
       <use xlink:href="#DejaVuSans-50" x="63.476562"/>
       <use xlink:href="#DejaVuSans-4f" x="123.779297"/>
       <use xlink:href="#DejaVuSans-54" x="202.490234"/>
       <use xlink:href="#DejaVuSans-2d" x="254.449219"/>
       <use xlink:href="#DejaVuSans-52" x="290.533203"/>
       <use xlink:href="#DejaVuSans-4e" x="360.015625"/>
       <use xlink:href="#DejaVuSans-41" x="434.820312"/>
      </g>
     </g>
    </g>
    <g id="xtick_8">
     <g id="text_8">
      <!-- SQUARNA -->
      <g style="fill: #262626" transform="translate(954.315 401.177188)scale(0.18 -0.18)">
       <use xlink:href="#DejaVuSans-53"/>
       <use xlink:href="#DejaVuSans-51" x="63.476562"/>
       <use xlink:href="#DejaVuSans-55" x="142.1875"/>
       <use xlink:href="#DejaVuSans-41" x="215.380859"/>
       <use xlink:href="#DejaVuSans-52" x="283.789062"/>
       <use xlink:href="#DejaVuSans-4e" x="353.271484"/>
       <use xlink:href="#DejaVuSans-41" x="428.076172"/>
      </g>
      <!-- default -->
      <g style="fill: #262626" transform="translate(967.332656 421.33325)scale(0.18 -0.18)">
       <use xlink:href="#DejaVuSans-64"/>
       <use xlink:href="#DejaVuSans-65" x="63.476562"/>
       <use xlink:href="#DejaVuSans-66" x="125"/>
       <use xlink:href="#DejaVuSans-61" x="160.205078"/>
       <use xlink:href="#DejaVuSans-75" x="221.484375"/>
       <use xlink:href="#DejaVuSans-6c" x="284.863281"/>
       <use xlink:href="#DejaVuSans-74" x="312.646484"/>
      </g>
      <!-- top-5 -->
      <g style="fill: #262626" transform="translate(975.277969 441.489312)scale(0.18 -0.18)">
       <defs>
        <path id="DejaVuSans-35" d="M 691 4666 
L 3169 4666 
L 3169 4134 
L 1269 4134 
L 1269 2991 
Q 1406 3038 1543 3061 
Q 1681 3084 1819 3084 
Q 2600 3084 3056 2656 
Q 3513 2228 3513 1497 
Q 3513 744 3044 326 
Q 2575 -91 1722 -91 
Q 1428 -91 1123 -41 
Q 819 9 494 109 
L 494 744 
Q 775 591 1075 516 
Q 1375 441 1709 441 
Q 2250 441 2565 725 
Q 2881 1009 2881 1497 
Q 2881 1984 2565 2268 
Q 2250 2553 1709 2553 
Q 1456 2553 1204 2497 
Q 953 2441 691 2322 
L 691 4666 
z
" transform="scale(0.015625)"/>
       </defs>
       <use xlink:href="#DejaVuSans-74"/>
       <use xlink:href="#DejaVuSans-6f" x="39.208984"/>
       <use xlink:href="#DejaVuSans-70" x="100.390625"/>
       <use xlink:href="#DejaVuSans-2d" x="163.867188"/>
       <use xlink:href="#DejaVuSans-35" x="199.951172"/>
      </g>
     </g>
    </g>
    <g id="xtick_9">
     <g id="text_9">
      <!-- SQUARNA -->
      <g style="fill: #262626" transform="translate(1065.915 401.177188)scale(0.18 -0.18)">
       <use xlink:href="#DejaVuSans-53"/>
       <use xlink:href="#DejaVuSans-51" x="63.476562"/>
       <use xlink:href="#DejaVuSans-55" x="142.1875"/>
       <use xlink:href="#DejaVuSans-41" x="215.380859"/>
       <use xlink:href="#DejaVuSans-52" x="283.789062"/>
       <use xlink:href="#DejaVuSans-4e" x="353.271484"/>
       <use xlink:href="#DejaVuSans-41" x="428.076172"/>
      </g>
      <!-- alternative -->
      <g style="fill: #262626" transform="translate(1061.863594 421.33325)scale(0.18 -0.18)">
       <use xlink:href="#DejaVuSans-61"/>
       <use xlink:href="#DejaVuSans-6c" x="61.279297"/>
       <use xlink:href="#DejaVuSans-74" x="89.0625"/>
       <use xlink:href="#DejaVuSans-65" x="128.271484"/>
       <use xlink:href="#DejaVuSans-72" x="189.794922"/>
       <use xlink:href="#DejaVuSans-6e" x="229.158203"/>
       <use xlink:href="#DejaVuSans-61" x="292.537109"/>
       <use xlink:href="#DejaVuSans-74" x="353.816406"/>
       <use xlink:href="#DejaVuSans-69" x="393.025391"/>
       <use xlink:href="#DejaVuSans-76" x="420.808594"/>
       <use xlink:href="#DejaVuSans-65" x="479.988281"/>
      </g>
      <!-- top-5 -->
      <g style="fill: #262626" transform="translate(1086.877969 441.489312)scale(0.18 -0.18)">
       <use xlink:href="#DejaVuSans-74"/>
       <use xlink:href="#DejaVuSans-6f" x="39.208984"/>
       <use xlink:href="#DejaVuSans-70" x="100.390625"/>
       <use xlink:href="#DejaVuSans-2d" x="163.867188"/>
       <use xlink:href="#DejaVuSans-35" x="199.951172"/>
      </g>
     </g>
    </g>
   </g>
   <g id="matplotlib.axis_2">
    <g id="ytick_1">
     <g id="line2d_1">
      <path d="M 162 312.768 
L 1166.4 312.768 
" clip-path="url(#peca2df9ae0)" style="fill: none; stroke: #cccccc; stroke-linecap: round"/>
     </g>
     <g id="text_10">
      <!-- 0.6 -->
      <g style="fill: #262626" transform="translate(130.235625 318.086906)scale(0.14 -0.14)">
       <defs>
        <path id="DejaVuSans-30" d="M 2034 4250 
Q 1547 4250 1301 3770 
Q 1056 3291 1056 2328 
Q 1056 1369 1301 889 
Q 1547 409 2034 409 
Q 2525 409 2770 889 
Q 3016 1369 3016 2328 
Q 3016 3291 2770 3770 
Q 2525 4250 2034 4250 
z
M 2034 4750 
Q 2819 4750 3233 4129 
Q 3647 3509 3647 2328 
Q 3647 1150 3233 529 
Q 2819 -91 2034 -91 
Q 1250 -91 836 529 
Q 422 1150 422 2328 
Q 422 3509 836 4129 
Q 1250 4750 2034 4750 
z
" transform="scale(0.015625)"/>
        <path id="DejaVuSans-2e" d="M 684 794 
L 1344 794 
L 1344 0 
L 684 0 
L 684 794 
z
" transform="scale(0.015625)"/>
        <path id="DejaVuSans-36" d="M 2113 2584 
Q 1688 2584 1439 2293 
Q 1191 2003 1191 1497 
Q 1191 994 1439 701 
Q 1688 409 2113 409 
Q 2538 409 2786 701 
Q 3034 994 3034 1497 
Q 3034 2003 2786 2293 
Q 2538 2584 2113 2584 
z
M 3366 4563 
L 3366 3988 
Q 3128 4100 2886 4159 
Q 2644 4219 2406 4219 
Q 1781 4219 1451 3797 
Q 1122 3375 1075 2522 
Q 1259 2794 1537 2939 
Q 1816 3084 2150 3084 
Q 2853 3084 3261 2657 
Q 3669 2231 3669 1497 
Q 3669 778 3244 343 
Q 2819 -91 2113 -91 
Q 1303 -91 875 529 
Q 447 1150 447 2328 
Q 447 3434 972 4092 
Q 1497 4750 2381 4750 
Q 2619 4750 2861 4703 
Q 3103 4656 3366 4563 
z
" transform="scale(0.015625)"/>
       </defs>
       <use xlink:href="#DejaVuSans-30"/>
       <use xlink:href="#DejaVuSans-2e" x="63.623047"/>
       <use xlink:href="#DejaVuSans-36" x="95.410156"/>
      </g>
     </g>
    </g>
    <g id="ytick_2">
     <g id="line2d_2">
      <path d="M 162 182.304 
L 1166.4 182.304 
" clip-path="url(#peca2df9ae0)" style="fill: none; stroke: #cccccc; stroke-linecap: round"/>
     </g>
     <g id="text_11">
      <!-- 0.8 -->
      <g style="fill: #262626" transform="translate(130.235625 187.622906)scale(0.14 -0.14)">
       <defs>
        <path id="DejaVuSans-38" d="M 2034 2216 
Q 1584 2216 1326 1975 
Q 1069 1734 1069 1313 
Q 1069 891 1326 650 
Q 1584 409 2034 409 
Q 2484 409 2743 651 
Q 3003 894 3003 1313 
Q 3003 1734 2745 1975 
Q 2488 2216 2034 2216 
z
M 1403 2484 
Q 997 2584 770 2862 
Q 544 3141 544 3541 
Q 544 4100 942 4425 
Q 1341 4750 2034 4750 
Q 2731 4750 3128 4425 
Q 3525 4100 3525 3541 
Q 3525 3141 3298 2862 
Q 3072 2584 2669 2484 
Q 3125 2378 3379 2068 
Q 3634 1759 3634 1313 
Q 3634 634 3220 271 
Q 2806 -91 2034 -91 
Q 1263 -91 848 271 
Q 434 634 434 1313 
Q 434 1759 690 2068 
Q 947 2378 1403 2484 
z
M 1172 3481 
Q 1172 3119 1398 2916 
Q 1625 2713 2034 2713 
Q 2441 2713 2670 2916 
Q 2900 3119 2900 3481 
Q 2900 3844 2670 4047 
Q 2441 4250 2034 4250 
Q 1625 4250 1398 4047 
Q 1172 3844 1172 3481 
z
" transform="scale(0.015625)"/>
       </defs>
       <use xlink:href="#DejaVuSans-30"/>
       <use xlink:href="#DejaVuSans-2e" x="63.623047"/>
       <use xlink:href="#DejaVuSans-38" x="95.410156"/>
      </g>
     </g>
    </g>
    <g id="ytick_3">
     <g id="line2d_3">
      <path d="M 162 51.84 
L 1166.4 51.84 
" clip-path="url(#peca2df9ae0)" style="fill: none; stroke: #cccccc; stroke-linecap: round"/>
     </g>
     <g id="text_12">
      <!-- 1.0 -->
      <g style="fill: #262626" transform="translate(130.235625 57.158906)scale(0.14 -0.14)">
       <use xlink:href="#DejaVuSans-31"/>
       <use xlink:href="#DejaVuSans-2e" x="63.623047"/>
       <use xlink:href="#DejaVuSans-30" x="95.410156"/>
      </g>
     </g>
    </g>
    <g id="text_13">
     <!-- F-score -->
     <g style="fill: #262626" transform="translate(122.07625 251.145)rotate(-90)scale(0.2 -0.2)">
      <defs>
       <path id="DejaVuSans-46" d="M 628 4666 
L 3309 4666 
L 3309 4134 
L 1259 4134 
L 1259 2759 
L 3109 2759 
L 3109 2228 
L 1259 2228 
L 1259 0 
L 628 0 
L 628 4666 
z
" transform="scale(0.015625)"/>
       <path id="DejaVuSans-63" d="M 3122 3366 
L 3122 2828 
Q 2878 2963 2633 3030 
Q 2388 3097 2138 3097 
Q 1578 3097 1268 2742 
Q 959 2388 959 1747 
Q 959 1106 1268 751 
Q 1578 397 2138 397 
Q 2388 397 2633 464 
Q 2878 531 3122 666 
L 3122 134 
Q 2881 22 2623 -34 
Q 2366 -91 2075 -91 
Q 1284 -91 818 406 
Q 353 903 353 1747 
Q 353 2603 823 3093 
Q 1294 3584 2113 3584 
Q 2378 3584 2631 3529 
Q 2884 3475 3122 3366 
z
" transform="scale(0.015625)"/>
      </defs>
      <use xlink:href="#DejaVuSans-46"/>
      <use xlink:href="#DejaVuSans-2d" x="57.519531"/>
      <use xlink:href="#DejaVuSans-73" x="93.603516"/>
      <use xlink:href="#DejaVuSans-63" x="145.703125"/>
      <use xlink:href="#DejaVuSans-6f" x="200.683594"/>
      <use xlink:href="#DejaVuSans-72" x="261.865234"/>
      <use xlink:href="#DejaVuSans-65" x="300.728516"/>
     </g>
    </g>
   </g>
   <g id="PolyCollection_1">
    <path d="M 223.315457 704.16 
L 212.284543 704.16 
L 212.274408 697.570909 
L 212.311207 690.981818 
L 212.392804 684.392727 
L 212.515749 677.803636 
L 212.675432 671.214545 
L 212.866287 664.625455 
L 213.082036 658.036364 
L 213.315948 651.447273 
L 213.561117 644.858182 
L 213.810723 638.269091 
L 214.058276 631.68 
L 214.29783 625.090909 
L 214.524145 618.501818 
L 214.73282 611.912727 
L 214.920362 605.323636 
L 215.084216 598.734545 
L 215.222751 592.145455 
L 215.335203 585.556364 
L 215.421594 578.967273 
L 215.482621 572.378182 
L 215.519539 565.789091 
L 215.534025 559.2 
L 215.528055 552.610909 
L 215.503778 546.021818 
L 215.463403 539.432727 
L 215.409106 532.843636 
L 215.342944 526.254545 
L 215.266796 519.665455 
L 215.182318 513.076364 
L 215.090918 506.487273 
L 214.993744 499.898182 
L 214.891687 493.309091 
L 214.785401 486.72 
L 214.675322 480.130909 
L 214.561704 473.541818 
L 214.444648 466.952727 
L 214.324144 460.363636 
L 214.200098 453.774545 
L 214.072368 447.185455 
L 213.940789 440.596364 
L 213.805189 434.007273 
L 213.665407 427.418182 
L 213.521298 420.829091 
L 213.372732 414.24 
L 213.219592 407.650909 
L 213.061759 401.061818 
L 212.899105 394.472727 
L 212.731475 387.883636 
L 212.55867 381.294545 
L 212.38043 374.705455 
L 212.196424 368.116364 
L 212.006233 361.527273 
L 211.809338 354.938182 
L 211.605113 348.349091 
L 211.392815 341.76 
L 211.171578 335.170909 
L 210.940405 328.581818 
L 210.698162 321.992727 
L 210.44357 315.403636 
L 210.175197 308.814545 
L 209.89145 302.225455 
L 209.590569 295.636364 
L 209.270624 289.047273 
L 208.929511 282.458182 
L 208.564964 275.869091 
L 208.174566 269.28 
L 207.755785 262.690909 
L 207.306008 256.101818 
L 206.82261 249.512727 
L 206.303024 242.923636 
L 205.744847 236.334545 
L 205.14595 229.745455 
L 204.504618 223.156364 
L 203.819698 216.567273 
L 203.090765 209.978182 
L 202.31829 203.389091 
L 201.503817 196.8 
L 200.650132 190.210909 
L 199.761413 183.621818 
L 198.84337 177.032727 
L 197.903342 170.443636 
L 196.95036 163.854545 
L 195.995149 157.265455 
L 195.050079 150.676364 
L 194.129037 144.087273 
L 193.247226 137.498182 
L 192.420881 130.909091 
L 191.666911 124.32 
L 191.00246 117.730909 
L 190.444407 111.141818 
L 190.008815 104.552727 
L 189.710354 97.963636 
L 189.561717 91.374545 
L 189.573069 84.785455 
L 189.75154 78.196364 
L 190.100821 71.607273 
L 190.620855 65.018182 
L 191.307686 58.429091 
L 192.153443 51.84 
L 243.446557 51.84 
L 243.446557 51.84 
L 244.292314 58.429091 
L 244.979145 65.018182 
L 245.499179 71.607273 
L 245.84846 78.196364 
L 246.026931 84.785455 
L 246.038283 91.374545 
L 245.889646 97.963636 
L 245.591185 104.552727 
L 245.155593 111.141818 
L 244.59754 117.730909 
L 243.933089 124.32 
L 243.179119 130.909091 
L 242.352774 137.498182 
L 241.470963 144.087273 
L 240.549921 150.676364 
L 239.604851 157.265455 
L 238.64964 163.854545 
L 237.696658 170.443636 
L 236.75663 177.032727 
L 235.838587 183.621818 
L 234.949868 190.210909 
L 234.096183 196.8 
L 233.28171 203.389091 
L 232.509235 209.978182 
L 231.780302 216.567273 
L 231.095382 223.156364 
L 230.45405 229.745455 
L 229.855153 236.334545 
L 229.296976 242.923636 
L 228.77739 249.512727 
L 228.293992 256.101818 
L 227.844215 262.690909 
L 227.425434 269.28 
L 227.035036 275.869091 
L 226.670489 282.458182 
L 226.329376 289.047273 
L 226.009431 295.636364 
L 225.70855 302.225455 
L 225.424803 308.814545 
L 225.15643 315.403636 
L 224.901838 321.992727 
L 224.659595 328.581818 
L 224.428422 335.170909 
L 224.207185 341.76 
L 223.994887 348.349091 
L 223.790662 354.938182 
L 223.593767 361.527273 
L 223.403576 368.116364 
L 223.21957 374.705455 
L 223.04133 381.294545 
L 222.868525 387.883636 
L 222.700895 394.472727 
L 222.538241 401.061818 
L 222.380408 407.650909 
L 222.227268 414.24 
L 222.078702 420.829091 
L 221.934593 427.418182 
L 221.794811 434.007273 
L 221.659211 440.596364 
L 221.527632 447.185455 
L 221.399902 453.774545 
L 221.275856 460.363636 
L 221.155352 466.952727 
L 221.038296 473.541818 
L 220.924678 480.130909 
L 220.814599 486.72 
L 220.708313 493.309091 
L 220.606256 499.898182 
L 220.509082 506.487273 
L 220.417682 513.076364 
L 220.333204 519.665455 
L 220.257056 526.254545 
L 220.190894 532.843636 
L 220.136597 539.432727 
L 220.096222 546.021818 
L 220.071945 552.610909 
L 220.065975 559.2 
L 220.080461 565.789091 
L 220.117379 572.378182 
L 220.178406 578.967273 
L 220.264797 585.556364 
L 220.377249 592.145455 
L 220.515784 598.734545 
L 220.679638 605.323636 
L 220.86718 611.912727 
L 221.075855 618.501818 
L 221.30217 625.090909 
L 221.541724 631.68 
L 221.789277 638.269091 
L 222.038883 644.858182 
L 222.284052 651.447273 
L 222.517964 658.036364 
L 222.733713 664.625455 
L 222.924568 671.214545 
L 223.084251 677.803636 
L 223.207196 684.392727 
L 223.288793 690.981818 
L 223.325592 697.570909 
L 223.315457 704.16 
z
" clip-path="url(#peca2df9ae0)" style="fill: #d3d3d3; stroke: #7f7f7f; stroke-width: 3"/>
   </g>
   <g id="PolyCollection_2">
    <path d="M 333.293601 704.16 
L 325.506399 704.16 
L 325.491142 697.570909 
L 325.517387 690.981818 
L 325.582231 684.392727 
L 325.68125 677.803636 
L 325.808788 671.214545 
L 325.958315 664.625455 
L 326.122829 658.036364 
L 326.295269 651.447273 
L 326.468905 644.858182 
L 326.637681 638.269091 
L 326.796481 631.68 
L 326.941312 625.090909 
L 327.069391 618.501818 
L 327.179141 611.912727 
L 327.270106 605.323636 
L 327.342796 598.734545 
L 327.39848 592.145455 
L 327.438955 585.556364 
L 327.466297 578.967273 
L 327.482625 572.378182 
L 327.489885 565.789091 
L 327.489669 559.2 
L 327.483075 552.610909 
L 327.470614 546.021818 
L 327.452167 539.432727 
L 327.42699 532.843636 
L 327.393754 526.254545 
L 327.350641 519.665455 
L 327.295449 513.076364 
L 327.225743 506.487273 
L 327.139006 499.898182 
L 327.032812 493.309091 
L 326.904981 486.72 
L 326.753743 480.130909 
L 326.577871 473.541818 
L 326.376791 466.952727 
L 326.150664 460.363636 
L 325.900425 453.774545 
L 325.627782 447.185455 
L 325.335175 440.596364 
L 325.025689 434.007273 
L 324.70293 427.418182 
L 324.370864 420.829091 
L 324.033634 414.24 
L 323.695353 407.650909 
L 323.359893 401.061818 
L 323.030676 394.472727 
L 322.710479 387.883636 
L 322.401262 381.294545 
L 322.104041 374.705455 
L 321.818792 368.116364 
L 321.544413 361.527273 
L 321.27874 354.938182 
L 321.01862 348.349091 
L 320.760032 341.76 
L 320.498265 335.170909 
L 320.228133 328.581818 
L 319.944227 321.992727 
L 319.641175 315.403636 
L 319.313916 308.814545 
L 318.957961 302.225455 
L 318.569619 295.636364 
L 318.146186 289.047273 
L 317.686085 282.458182 
L 317.188926 275.869091 
L 316.655512 269.28 
L 316.087763 262.690909 
L 315.488585 256.101818 
L 314.86167 249.512727 
L 314.211265 242.923636 
L 313.541913 236.334545 
L 312.858191 229.745455 
L 312.164469 223.156364 
L 311.464708 216.567273 
L 310.762319 209.978182 
L 310.06009 203.389091 
L 309.360212 196.8 
L 308.664374 190.210909 
L 307.973962 183.621818 
L 307.29033 177.032727 
L 306.61513 170.443636 
L 305.950689 163.854545 
L 305.300396 157.265455 
L 304.669081 150.676364 
L 304.063324 144.087273 
L 303.491699 137.498182 
L 302.964875 130.909091 
L 302.495577 124.32 
L 302.098363 117.730909 
L 301.789212 111.141818 
L 301.584925 104.552727 
L 301.502355 97.963636 
L 301.557498 91.374545 
L 301.764505 84.785455 
L 302.134674 78.196364 
L 302.675508 71.607273 
L 303.389907 65.018182 
L 304.27558 58.429091 
L 305.324735 51.84 
L 353.475265 51.84 
L 353.475265 51.84 
L 354.52442 58.429091 
L 355.410093 65.018182 
L 356.124492 71.607273 
L 356.665326 78.196364 
L 357.035495 84.785455 
L 357.242502 91.374545 
L 357.297645 97.963636 
L 357.215075 104.552727 
L 357.010788 111.141818 
L 356.701637 117.730909 
L 356.304423 124.32 
L 355.835125 130.909091 
L 355.308301 137.498182 
L 354.736676 144.087273 
L 354.130919 150.676364 
L 353.499604 157.265455 
L 352.849311 163.854545 
L 352.18487 170.443636 
L 351.50967 177.032727 
L 350.826038 183.621818 
L 350.135626 190.210909 
L 349.439788 196.8 
L 348.73991 203.389091 
L 348.037681 209.978182 
L 347.335292 216.567273 
L 346.635531 223.156364 
L 345.941809 229.745455 
L 345.258087 236.334545 
L 344.588735 242.923636 
L 343.93833 249.512727 
L 343.311415 256.101818 
L 342.712237 262.690909 
L 342.144488 269.28 
L 341.611074 275.869091 
L 341.113915 282.458182 
L 340.653814 289.047273 
L 340.230381 295.636364 
L 339.842039 302.225455 
L 339.486084 308.814545 
L 339.158825 315.403636 
L 338.855773 321.992727 
L 338.571867 328.581818 
L 338.301735 335.170909 
L 338.039968 341.76 
L 337.78138 348.349091 
L 337.52126 354.938182 
L 337.255587 361.527273 
L 336.981208 368.116364 
L 336.695959 374.705455 
L 336.398738 381.294545 
L 336.089521 387.883636 
L 335.769324 394.472727 
L 335.440107 401.061818 
L 335.104647 407.650909 
L 334.766366 414.24 
L 334.429136 420.829091 
L 334.09707 427.418182 
L 333.774311 434.007273 
L 333.464825 440.596364 
L 333.172218 447.185455 
L 332.899575 453.774545 
L 332.649336 460.363636 
L 332.423209 466.952727 
L 332.222129 473.541818 
L 332.046257 480.130909 
L 331.895019 486.72 
L 331.767188 493.309091 
L 331.660994 499.898182 
L 331.574257 506.487273 
L 331.504551 513.076364 
L 331.449359 519.665455 
L 331.406246 526.254545 
L 331.37301 532.843636 
L 331.347833 539.432727 
L 331.329386 546.021818 
L 331.316925 552.610909 
L 331.310331 559.2 
L 331.310115 565.789091 
L 331.317375 572.378182 
L 331.333703 578.967273 
L 331.361045 585.556364 
L 331.40152 592.145455 
L 331.457204 598.734545 
L 331.529894 605.323636 
L 331.620859 611.912727 
L 331.730609 618.501818 
L 331.858688 625.090909 
L 332.003519 631.68 
L 332.162319 638.269091 
L 332.331095 644.858182 
L 332.504731 651.447273 
L 332.677171 658.036364 
L 332.841685 664.625455 
L 332.991212 671.214545 
L 333.11875 677.803636 
L 333.217769 684.392727 
L 333.282613 690.981818 
L 333.308858 697.570909 
L 333.293601 704.16 
z
" clip-path="url(#peca2df9ae0)" style="fill: #d3d3d3; stroke: #7f7f7f; stroke-width: 3"/>
   </g>
   <g id="PolyCollection_3">
    <path d="M 446.259075 704.16 
L 435.740925 704.16 
L 435.73054 697.570909 
L 435.76716 690.981818 
L 435.848628 684.392727 
L 435.971429 677.803636 
L 436.130862 671.214545 
L 436.321255 664.625455 
L 436.536233 658.036364 
L 436.768995 651.447273 
L 437.012602 644.858182 
L 437.260253 638.269091 
L 437.505526 631.68 
L 437.742592 625.090909 
L 437.966366 618.501818 
L 438.17262 611.912727 
L 438.358031 605.323636 
L 438.520188 598.734545 
L 438.657543 592.145455 
L 438.769341 585.556364 
L 438.855505 578.967273 
L 438.916518 572.378182 
L 438.953289 565.789091 
L 438.967027 559.2 
L 438.959119 552.610909 
L 438.931025 546.021818 
L 438.884201 539.432727 
L 438.820033 532.843636 
L 438.739804 526.254545 
L 438.644676 519.665455 
L 438.535701 513.076364 
L 438.41384 506.487273 
L 438.279997 499.898182 
L 438.135061 493.309091 
L 437.979947 486.72 
L 437.815634 480.130909 
L 437.643196 473.541818 
L 437.463816 466.952727 
L 437.278794 460.363636 
L 437.08953 453.774545 
L 436.897495 447.185455 
L 436.704193 440.596364 
L 436.511098 434.007273 
L 436.319599 427.418182 
L 436.130928 420.829091 
L 435.946099 414.24 
L 435.765851 407.650909 
L 435.590597 401.061818 
L 435.420394 394.472727 
L 435.254932 387.883636 
L 435.093527 381.294545 
L 434.935154 374.705455 
L 434.778471 368.116364 
L 434.621878 361.527273 
L 434.463566 354.938182 
L 434.301581 348.349091 
L 434.13388 341.76 
L 433.958377 335.170909 
L 433.772989 328.581818 
L 433.575652 321.992727 
L 433.364334 315.403636 
L 433.13702 308.814545 
L 432.891696 302.225455 
L 432.626307 295.636364 
L 432.338721 289.047273 
L 432.026685 282.458182 
L 431.68779 275.869091 
L 431.319448 269.28 
L 430.918893 262.690909 
L 430.483198 256.101818 
L 430.009329 249.512727 
L 429.494235 242.923636 
L 428.934961 236.334545 
L 428.328808 229.745455 
L 427.673511 223.156364 
L 426.967452 216.567273 
L 426.209887 209.978182 
L 425.401176 203.389091 
L 424.543022 196.8 
L 423.638688 190.210909 
L 422.693187 183.621818 
L 421.713437 177.032727 
L 420.708352 170.443636 
L 419.688883 163.854545 
L 418.667965 157.265455 
L 417.660395 150.676364 
L 416.682609 144.087273 
L 415.752371 137.498182 
L 414.888375 130.909091 
L 414.109755 124.32 
L 413.435537 117.730909 
L 412.884026 111.141818 
L 412.47217 104.552727 
L 412.214912 97.963636 
L 412.124579 91.374545 
L 412.210315 84.785455 
L 412.477611 78.196364 
L 412.927953 71.607273 
L 413.558608 65.018182 
L 414.362575 58.429091 
L 415.32871 51.84 
L 466.67129 51.84 
L 466.67129 51.84 
L 467.637425 58.429091 
L 468.441392 65.018182 
L 469.072047 71.607273 
L 469.522389 78.196364 
L 469.789685 84.785455 
L 469.875421 91.374545 
L 469.785088 97.963636 
L 469.52783 104.552727 
L 469.115974 111.141818 
L 468.564463 117.730909 
L 467.890245 124.32 
L 467.111625 130.909091 
L 466.247629 137.498182 
L 465.317391 144.087273 
L 464.339605 150.676364 
L 463.332035 157.265455 
L 462.311117 163.854545 
L 461.291648 170.443636 
L 460.286563 177.032727 
L 459.306813 183.621818 
L 458.361312 190.210909 
L 457.456978 196.8 
L 456.598824 203.389091 
L 455.790113 209.978182 
L 455.032548 216.567273 
L 454.326489 223.156364 
L 453.671192 229.745455 
L 453.065039 236.334545 
L 452.505765 242.923636 
L 451.990671 249.512727 
L 451.516802 256.101818 
L 451.081107 262.690909 
L 450.680552 269.28 
L 450.31221 275.869091 
L 449.973315 282.458182 
L 449.661279 289.047273 
L 449.373693 295.636364 
L 449.108304 302.225455 
L 448.86298 308.814545 
L 448.635666 315.403636 
L 448.424348 321.992727 
L 448.227011 328.581818 
L 448.041623 335.170909 
L 447.86612 341.76 
L 447.698419 348.349091 
L 447.536434 354.938182 
L 447.378122 361.527273 
L 447.221529 368.116364 
L 447.064846 374.705455 
L 446.906473 381.294545 
L 446.745068 387.883636 
L 446.579606 394.472727 
L 446.409403 401.061818 
L 446.234149 407.650909 
L 446.053901 414.24 
L 445.869072 420.829091 
L 445.680401 427.418182 
L 445.488902 434.007273 
L 445.295807 440.596364 
L 445.102505 447.185455 
L 444.91047 453.774545 
L 444.721206 460.363636 
L 444.536184 466.952727 
L 444.356804 473.541818 
L 444.184366 480.130909 
L 444.020053 486.72 
L 443.864939 493.309091 
L 443.720003 499.898182 
L 443.58616 506.487273 
L 443.464299 513.076364 
L 443.355324 519.665455 
L 443.260196 526.254545 
L 443.179967 532.843636 
L 443.115799 539.432727 
L 443.068975 546.021818 
L 443.040881 552.610909 
L 443.032973 559.2 
L 443.046711 565.789091 
L 443.083482 572.378182 
L 443.144495 578.967273 
L 443.230659 585.556364 
L 443.342457 592.145455 
L 443.479812 598.734545 
L 443.641969 605.323636 
L 443.82738 611.912727 
L 444.033634 618.501818 
L 444.257408 625.090909 
L 444.494474 631.68 
L 444.739747 638.269091 
L 444.987398 644.858182 
L 445.231005 651.447273 
L 445.463767 658.036364 
L 445.678745 664.625455 
L 445.869138 671.214545 
L 446.028571 677.803636 
L 446.151372 684.392727 
L 446.23284 690.981818 
L 446.26946 697.570909 
L 446.259075 704.16 
z
" clip-path="url(#peca2df9ae0)" style="fill: #d3d3d3; stroke: #7f7f7f; stroke-width: 3"/>
   </g>
   <g id="PolyCollection_4">
    <path d="M 555.994626 704.16 
L 549.205374 704.16 
L 549.193822 697.570909 
L 549.219725 690.981818 
L 549.280247 684.392727 
L 549.371102 677.803636 
L 549.486826 671.214545 
L 549.621134 664.625455 
L 549.767303 658.036364 
L 549.918578 651.447273 
L 550.068544 644.858182 
L 550.211457 638.269091 
L 550.34249 631.68 
L 550.457901 625.090909 
L 550.5551 618.501818 
L 550.632637 611.912727 
L 550.690099 605.323636 
L 550.727961 598.734545 
L 550.747377 592.145455 
L 550.749966 585.556364 
L 550.737589 578.967273 
L 550.712145 572.378182 
L 550.675392 565.789091 
L 550.628816 559.2 
L 550.573528 552.610909 
L 550.510223 546.021818 
L 550.439159 539.432727 
L 550.360188 532.843636 
L 550.2728 526.254545 
L 550.176194 519.665455 
L 550.069355 513.076364 
L 549.951141 506.487273 
L 549.820366 499.898182 
L 549.675869 493.309091 
L 549.51659 486.72 
L 549.341622 480.130909 
L 549.150261 473.541818 
L 548.942037 466.952727 
L 548.716753 460.363636 
L 548.474495 453.774545 
L 548.215656 447.185455 
L 547.940941 440.596364 
L 547.651376 434.007273 
L 547.348305 427.418182 
L 547.033381 420.829091 
L 546.708556 414.24 
L 546.37605 407.650909 
L 546.038318 401.061818 
L 545.697991 394.472727 
L 545.357817 387.883636 
L 545.020578 381.294545 
L 544.688997 374.705455 
L 544.365636 368.116364 
L 544.052784 361.527273 
L 543.752348 354.938182 
L 543.465747 348.349091 
L 543.193812 341.76 
L 542.936707 335.170909 
L 542.693871 328.581818 
L 542.463986 321.992727 
L 542.244976 315.403636 
L 542.034036 308.814545 
L 541.827695 302.225455 
L 541.621903 295.636364 
L 541.412149 289.047273 
L 541.193582 282.458182 
L 540.961153 275.869091 
L 540.709752 269.28 
L 540.434333 262.690909 
L 540.130032 256.101818 
L 539.79226 249.512727 
L 539.416781 242.923636 
L 538.999775 236.334545 
L 538.537881 229.745455 
L 538.028251 223.156364 
L 537.468596 216.567273 
L 536.857261 209.978182 
L 536.193315 203.389091 
L 535.476686 196.8 
L 534.708319 190.210909 
L 533.890384 183.621818 
L 533.026508 177.032727 
L 532.122024 170.443636 
L 531.184232 163.854545 
L 530.222638 157.265455 
L 529.24915 150.676364 
L 528.278201 144.087273 
L 527.326769 137.498182 
L 526.414258 130.909091 
L 525.562219 124.32 
L 524.793887 117.730909 
L 524.133526 111.141818 
L 523.605586 104.552727 
L 523.233704 97.963636 
L 523.039575 91.374545 
L 523.041781 84.785455 
L 523.254629 78.196364 
L 523.687102 71.607273 
L 524.342014 65.018182 
L 525.215434 58.429091 
L 526.296477 51.84 
L 578.903523 51.84 
L 578.903523 51.84 
L 579.984566 58.429091 
L 580.857986 65.018182 
L 581.512898 71.607273 
L 581.945371 78.196364 
L 582.158219 84.785455 
L 582.160425 91.374545 
L 581.966296 97.963636 
L 581.594414 104.552727 
L 581.066474 111.141818 
L 580.406113 117.730909 
L 579.637781 124.32 
L 578.785742 130.909091 
L 577.873231 137.498182 
L 576.921799 144.087273 
L 575.95085 150.676364 
L 574.977362 157.265455 
L 574.015768 163.854545 
L 573.077976 170.443636 
L 572.173492 177.032727 
L 571.309616 183.621818 
L 570.491681 190.210909 
L 569.723314 196.8 
L 569.006685 203.389091 
L 568.342739 209.978182 
L 567.731404 216.567273 
L 567.171749 223.156364 
L 566.662119 229.745455 
L 566.200225 236.334545 
L 565.783219 242.923636 
L 565.40774 249.512727 
L 565.069968 256.101818 
L 564.765667 262.690909 
L 564.490248 269.28 
L 564.238847 275.869091 
L 564.006418 282.458182 
L 563.787851 289.047273 
L 563.578097 295.636364 
L 563.372305 302.225455 
L 563.165964 308.814545 
L 562.955024 315.403636 
L 562.736014 321.992727 
L 562.506129 328.581818 
L 562.263293 335.170909 
L 562.006188 341.76 
L 561.734253 348.349091 
L 561.447652 354.938182 
L 561.147216 361.527273 
L 560.834364 368.116364 
L 560.511003 374.705455 
L 560.179422 381.294545 
L 559.842183 387.883636 
L 559.502009 394.472727 
L 559.161682 401.061818 
L 558.82395 407.650909 
L 558.491444 414.24 
L 558.166619 420.829091 
L 557.851695 427.418182 
L 557.548624 434.007273 
L 557.259059 440.596364 
L 556.984344 447.185455 
L 556.725505 453.774545 
L 556.483247 460.363636 
L 556.257963 466.952727 
L 556.049739 473.541818 
L 555.858378 480.130909 
L 555.68341 486.72 
L 555.524131 493.309091 
L 555.379634 499.898182 
L 555.248859 506.487273 
L 555.130645 513.076364 
L 555.023806 519.665455 
L 554.9272 526.254545 
L 554.839812 532.843636 
L 554.760841 539.432727 
L 554.689777 546.021818 
L 554.626472 552.610909 
L 554.571184 559.2 
L 554.524608 565.789091 
L 554.487855 572.378182 
L 554.462411 578.967273 
L 554.450034 585.556364 
L 554.452623 592.145455 
L 554.472039 598.734545 
L 554.509901 605.323636 
L 554.567363 611.912727 
L 554.6449 618.501818 
L 554.742099 625.090909 
L 554.85751 631.68 
L 554.988543 638.269091 
L 555.131456 644.858182 
L 555.281422 651.447273 
L 555.432697 658.036364 
L 555.578866 664.625455 
L 555.713174 671.214545 
L 555.828898 677.803636 
L 555.919753 684.392727 
L 555.980275 690.981818 
L 556.006178 697.570909 
L 555.994626 704.16 
z
" clip-path="url(#peca2df9ae0)" style="fill: #d3d3d3; stroke: #7f7f7f; stroke-width: 3"/>
   </g>
   <g id="PolyCollection_5">
    <path d="M 668.573466 704.16 
L 659.826534 704.16 
L 659.774722 697.570909 
L 659.756699 690.981818 
L 659.770655 684.392727 
L 659.813747 677.803636 
L 659.882252 671.214545 
L 659.971783 664.625455 
L 660.077509 658.036364 
L 660.194401 651.447273 
L 660.317467 644.858182 
L 660.441967 638.269091 
L 660.563598 631.68 
L 660.678633 625.090909 
L 660.784019 618.501818 
L 660.877417 611.912727 
L 660.957206 605.323636 
L 661.022441 598.734545 
L 661.07277 592.145455 
L 661.10834 585.556364 
L 661.129676 578.967273 
L 661.137559 572.378182 
L 661.132904 565.789091 
L 661.116657 559.2 
L 661.089697 552.610909 
L 661.052767 546.021818 
L 661.006429 539.432727 
L 660.951036 532.843636 
L 660.886734 526.254545 
L 660.813476 519.665455 
L 660.731063 513.076364 
L 660.639182 506.487273 
L 660.537465 499.898182 
L 660.425538 493.309091 
L 660.303074 486.72 
L 660.169838 480.130909 
L 660.025718 473.541818 
L 659.870755 466.952727 
L 659.705152 460.363636 
L 659.529278 453.774545 
L 659.343664 447.185455 
L 659.148986 440.596364 
L 658.946056 434.007273 
L 658.735798 427.418182 
L 658.519233 420.829091 
L 658.297465 414.24 
L 658.071661 407.650909 
L 657.84304 401.061818 
L 657.612859 394.472727 
L 657.382389 387.883636 
L 657.152899 381.294545 
L 656.925621 374.705455 
L 656.701713 368.116364 
L 656.482217 361.527273 
L 656.267999 354.938182 
L 656.059696 348.349091 
L 655.857648 341.76 
L 655.66184 335.170909 
L 655.471845 328.581818 
L 655.286775 321.992727 
L 655.105242 315.403636 
L 654.925343 308.814545 
L 654.744647 302.225455 
L 654.560216 295.636364 
L 654.368631 289.047273 
L 654.166042 282.458182 
L 653.94823 275.869091 
L 653.710685 269.28 
L 653.448696 262.690909 
L 653.157451 256.101818 
L 652.832148 249.512727 
L 652.468116 242.923636 
L 652.060951 236.334545 
L 651.606654 229.745455 
L 651.101788 223.156364 
L 650.543649 216.567273 
L 649.930435 209.978182 
L 649.261436 203.389091 
L 648.537223 196.8 
L 647.759833 190.210909 
L 646.932949 183.621818 
L 646.062058 177.032727 
L 645.154579 170.443636 
L 644.219949 163.854545 
L 643.26965 157.265455 
L 642.317167 150.676364 
L 641.377865 144.087273 
L 640.468773 137.498182 
L 639.608267 130.909091 
L 638.815658 124.32 
L 638.11068 117.730909 
L 637.512893 111.141818 
L 637.041024 104.552727 
L 636.712258 97.963636 
L 636.541532 91.374545 
L 636.54085 84.785455 
L 636.718665 78.196364 
L 637.079375 71.607273 
L 637.622957 65.018182 
L 638.344781 58.429091 
L 639.235618 51.84 
L 689.164382 51.84 
L 689.164382 51.84 
L 690.055219 58.429091 
L 690.777043 65.018182 
L 691.320625 71.607273 
L 691.681335 78.196364 
L 691.85915 84.785455 
L 691.858468 91.374545 
L 691.687742 97.963636 
L 691.358976 104.552727 
L 690.887107 111.141818 
L 690.28932 117.730909 
L 689.584342 124.32 
L 688.791733 130.909091 
L 687.931227 137.498182 
L 687.022135 144.087273 
L 686.082833 150.676364 
L 685.13035 157.265455 
L 684.180051 163.854545 
L 683.245421 170.443636 
L 682.337942 177.032727 
L 681.467051 183.621818 
L 680.640167 190.210909 
L 679.862777 196.8 
L 679.138564 203.389091 
L 678.469565 209.978182 
L 677.856351 216.567273 
L 677.298212 223.156364 
L 676.793346 229.745455 
L 676.339049 236.334545 
L 675.931884 242.923636 
L 675.567852 249.512727 
L 675.242549 256.101818 
L 674.951304 262.690909 
L 674.689315 269.28 
L 674.45177 275.869091 
L 674.233958 282.458182 
L 674.031369 289.047273 
L 673.839784 295.636364 
L 673.655353 302.225455 
L 673.474657 308.814545 
L 673.294758 315.403636 
L 673.113225 321.992727 
L 672.928155 328.581818 
L 672.73816 335.170909 
L 672.542352 341.76 
L 672.340304 348.349091 
L 672.132001 354.938182 
L 671.917783 361.527273 
L 671.698287 368.116364 
L 671.474379 374.705455 
L 671.247101 381.294545 
L 671.017611 387.883636 
L 670.787141 394.472727 
L 670.55696 401.061818 
L 670.328339 407.650909 
L 670.102535 414.24 
L 669.880767 420.829091 
L 669.664202 427.418182 
L 669.453944 434.007273 
L 669.251014 440.596364 
L 669.056336 447.185455 
L 668.870722 453.774545 
L 668.694848 460.363636 
L 668.529245 466.952727 
L 668.374282 473.541818 
L 668.230162 480.130909 
L 668.096926 486.72 
L 667.974462 493.309091 
L 667.862535 499.898182 
L 667.760818 506.487273 
L 667.668937 513.076364 
L 667.586524 519.665455 
L 667.513266 526.254545 
L 667.448964 532.843636 
L 667.393571 539.432727 
L 667.347233 546.021818 
L 667.310303 552.610909 
L 667.283343 559.2 
L 667.267096 565.789091 
L 667.262441 572.378182 
L 667.270324 578.967273 
L 667.29166 585.556364 
L 667.32723 592.145455 
L 667.377559 598.734545 
L 667.442794 605.323636 
L 667.522583 611.912727 
L 667.615981 618.501818 
L 667.721367 625.090909 
L 667.836402 631.68 
L 667.958033 638.269091 
L 668.082533 644.858182 
L 668.205599 651.447273 
L 668.322491 658.036364 
L 668.428217 664.625455 
L 668.517748 671.214545 
L 668.586253 677.803636 
L 668.629345 684.392727 
L 668.643301 690.981818 
L 668.625278 697.570909 
L 668.573466 704.16 
z
" clip-path="url(#peca2df9ae0)" style="fill: #d3d3d3; stroke: #7f7f7f; stroke-width: 3"/>
   </g>
   <g id="PolyCollection_6">
    <path d="M 778.999283 704.16 
L 772.600717 704.16 
L 772.620777 697.570909 
L 772.69007 690.981818 
L 772.804655 684.392727 
L 772.958467 677.803636 
L 773.143785 671.214545 
L 773.35182 664.625455 
L 773.573348 658.036364 
L 773.799331 651.447273 
L 774.021461 644.858182 
L 774.232598 638.269091 
L 774.427052 631.68 
L 774.600715 625.090909 
L 774.751053 618.501818 
L 774.876959 611.912727 
L 774.978532 605.323636 
L 775.056787 598.734545 
L 775.113356 592.145455 
L 775.150197 585.556364 
L 775.169343 578.967273 
L 775.172708 572.378182 
L 775.161949 565.789091 
L 775.138395 559.2 
L 775.103026 552.610909 
L 775.0565 546.021818 
L 774.999211 539.432727 
L 774.931372 532.843636 
L 774.853102 526.254545 
L 774.764514 519.665455 
L 774.665798 513.076364 
L 774.557282 506.487273 
L 774.439482 499.898182 
L 774.313118 493.309091 
L 774.179116 486.72 
L 774.038574 480.130909 
L 773.892708 473.541818 
L 773.742773 466.952727 
L 773.589971 460.363636 
L 773.435341 453.774545 
L 773.279659 447.185455 
L 773.123342 440.596364 
L 772.966378 434.007273 
L 772.80829 427.418182 
L 772.64814 420.829091 
L 772.484579 414.24 
L 772.315944 407.650909 
L 772.14039 401.061818 
L 771.956052 394.472727 
L 771.761215 387.883636 
L 771.554473 381.294545 
L 771.33486 374.705455 
L 771.101939 368.116364 
L 770.85582 361.527273 
L 770.597121 354.938182 
L 770.326852 348.349091 
L 770.046237 341.76 
L 769.756498 335.170909 
L 769.458604 328.581818 
L 769.153017 321.992727 
L 768.839471 315.403636 
L 768.516791 308.814545 
L 768.182787 302.225455 
L 767.834239 295.636364 
L 767.466959 289.047273 
L 767.07596 282.458182 
L 766.655687 275.869091 
L 766.20031 269.28 
L 765.704037 262.690909 
L 765.161431 256.101818 
L 764.567682 249.512727 
L 763.918826 242.923636 
L 763.211878 236.334545 
L 762.44488 229.745455 
L 761.61687 223.156364 
L 760.727781 216.567273 
L 759.778302 209.978182 
L 758.769722 203.389091 
L 757.703814 196.8 
L 756.582771 190.210909 
L 755.409243 183.621818 
L 754.186495 177.032727 
L 752.918692 170.443636 
L 751.611338 163.854545 
L 750.271826 157.265455 
L 748.910088 150.676364 
L 747.539287 144.087273 
L 746.176465 137.498182 
L 744.843078 130.909091 
L 743.565283 124.32 
L 742.373885 117.730909 
L 741.303838 111.141818 
L 740.393234 104.552727 
L 739.68175 97.963636 
L 739.208598 91.374545 
L 739.010077 84.785455 
L 739.116919 78.196364 
L 739.551649 71.607273 
L 740.32623 65.018182 
L 741.440266 58.429091 
L 742.880001 51.84 
L 808.719999 51.84 
L 808.719999 51.84 
L 810.159734 58.429091 
L 811.27377 65.018182 
L 812.048351 71.607273 
L 812.483081 78.196364 
L 812.589923 84.785455 
L 812.391402 91.374545 
L 811.91825 97.963636 
L 811.206766 104.552727 
L 810.296162 111.141818 
L 809.226115 117.730909 
L 808.034717 124.32 
L 806.756922 130.909091 
L 805.423535 137.498182 
L 804.060713 144.087273 
L 802.689912 150.676364 
L 801.328174 157.265455 
L 799.988662 163.854545 
L 798.681308 170.443636 
L 797.413505 177.032727 
L 796.190757 183.621818 
L 795.017229 190.210909 
L 793.896186 196.8 
L 792.830278 203.389091 
L 791.821698 209.978182 
L 790.872219 216.567273 
L 789.98313 223.156364 
L 789.15512 229.745455 
L 788.388122 236.334545 
L 787.681174 242.923636 
L 787.032318 249.512727 
L 786.438569 256.101818 
L 785.895963 262.690909 
L 785.39969 269.28 
L 784.944313 275.869091 
L 784.52404 282.458182 
L 784.133041 289.047273 
L 783.765761 295.636364 
L 783.417213 302.225455 
L 783.083209 308.814545 
L 782.760529 315.403636 
L 782.446983 321.992727 
L 782.141396 328.581818 
L 781.843502 335.170909 
L 781.553763 341.76 
L 781.273148 348.349091 
L 781.002879 354.938182 
L 780.74418 361.527273 
L 780.498061 368.116364 
L 780.26514 374.705455 
L 780.045527 381.294545 
L 779.838785 387.883636 
L 779.643948 394.472727 
L 779.45961 401.061818 
L 779.284056 407.650909 
L 779.115421 414.24 
L 778.95186 420.829091 
L 778.79171 427.418182 
L 778.633622 434.007273 
L 778.476658 440.596364 
L 778.320341 447.185455 
L 778.164659 453.774545 
L 778.010029 460.363636 
L 777.857227 466.952727 
L 777.707292 473.541818 
L 777.561426 480.130909 
L 777.420884 486.72 
L 777.286882 493.309091 
L 777.160518 499.898182 
L 777.042718 506.487273 
L 776.934202 513.076364 
L 776.835486 519.665455 
L 776.746898 526.254545 
L 776.668628 532.843636 
L 776.600789 539.432727 
L 776.5435 546.021818 
L 776.496974 552.610909 
L 776.461605 559.2 
L 776.438051 565.789091 
L 776.427292 572.378182 
L 776.430657 578.967273 
L 776.449803 585.556364 
L 776.486644 592.145455 
L 776.543213 598.734545 
L 776.621468 605.323636 
L 776.723041 611.912727 
L 776.848947 618.501818 
L 776.999285 625.090909 
L 777.172948 631.68 
L 777.367402 638.269091 
L 777.578539 644.858182 
L 777.800669 651.447273 
L 778.026652 658.036364 
L 778.24818 664.625455 
L 778.456215 671.214545 
L 778.641533 677.803636 
L 778.795345 684.392727 
L 778.90993 690.981818 
L 778.979223 697.570909 
L 778.999283 704.16 
z
" clip-path="url(#peca2df9ae0)" style="fill: #d3d3d3; stroke: #7f7f7f; stroke-width: 3"/>
   </g>
   <g id="PolyCollection_7">
    <path d="M 890.322 704.16 
L 884.478 704.16 
L 884.486351 697.570909 
L 884.534991 690.981818 
L 884.620053 684.392727 
L 884.735844 677.803636 
L 884.875255 671.214545 
L 885.030268 664.625455 
L 885.192524 658.036364 
L 885.353882 651.447273 
L 885.506928 644.858182 
L 885.645396 638.269091 
L 885.764465 631.68 
L 885.86092 625.090909 
L 885.93318 618.501818 
L 885.981201 611.912727 
L 886.006269 605.323636 
L 886.010731 598.734545 
L 885.997675 592.145455 
L 885.970599 585.556364 
L 885.933099 578.967273 
L 885.888588 572.378182 
L 885.84008 565.789091 
L 885.79003 559.2 
L 885.740249 552.610909 
L 885.691878 546.021818 
L 885.645427 539.432727 
L 885.600856 532.843636 
L 885.557689 526.254545 
L 885.515145 519.665455 
L 885.472266 513.076364 
L 885.428034 506.487273 
L 885.38146 499.898182 
L 885.331637 493.309091 
L 885.277764 486.72 
L 885.219133 480.130909 
L 885.155093 473.541818 
L 885.085 466.952727 
L 885.008172 460.363636 
L 884.923851 453.774545 
L 884.831201 447.185455 
L 884.729327 440.596364 
L 884.617343 434.007273 
L 884.494453 427.418182 
L 884.360064 420.829091 
L 884.213893 414.24 
L 884.056059 407.650909 
L 883.887149 401.061818 
L 883.708224 394.472727 
L 883.520783 387.883636 
L 883.326653 381.294545 
L 883.127836 374.705455 
L 882.926307 368.116364 
L 882.723796 361.527273 
L 882.521559 354.938182 
L 882.320167 348.349091 
L 882.119338 341.76 
L 881.917815 335.170909 
L 881.713307 328.581818 
L 881.502498 321.992727 
L 881.281123 315.403636 
L 881.044099 308.814545 
L 880.785711 302.225455 
L 880.499829 295.636364 
L 880.180152 289.047273 
L 879.820455 282.458182 
L 879.414826 275.869091 
L 878.957876 269.28 
L 878.444916 262.690909 
L 877.872076 256.101818 
L 877.236375 249.512727 
L 876.535728 242.923636 
L 875.768903 236.334545 
L 874.935433 229.745455 
L 874.035499 223.156364 
L 873.069803 216.567273 
L 872.039468 209.978182 
L 870.945968 203.389091 
L 869.79113 196.8 
L 868.577227 190.210909 
L 867.307167 183.621818 
L 865.9848 177.032727 
L 864.615329 170.443636 
L 863.205823 163.854545 
L 861.765792 157.265455 
L 860.307787 150.676364 
L 858.847969 144.087273 
L 857.406566 137.498182 
L 856.008145 130.909091 
L 854.681604 124.32 
L 853.459811 117.730909 
L 852.378823 111.141818 
L 851.476654 104.552727 
L 850.791616 97.963636 
L 850.360285 91.374545 
L 850.215213 84.785455 
L 850.382568 78.196364 
L 850.879895 71.607273 
L 851.714224 65.018182 
L 852.880747 58.429091 
L 854.36222 51.84 
L 920.43778 51.84 
L 920.43778 51.84 
L 921.919253 58.429091 
L 923.085776 65.018182 
L 923.920105 71.607273 
L 924.417432 78.196364 
L 924.584787 84.785455 
L 924.439715 91.374545 
L 924.008384 97.963636 
L 923.323346 104.552727 
L 922.421177 111.141818 
L 921.340189 117.730909 
L 920.118396 124.32 
L 918.791855 130.909091 
L 917.393434 137.498182 
L 915.952031 144.087273 
L 914.492213 150.676364 
L 913.034208 157.265455 
L 911.594177 163.854545 
L 910.184671 170.443636 
L 908.8152 177.032727 
L 907.492833 183.621818 
L 906.222773 190.210909 
L 905.00887 196.8 
L 903.854032 203.389091 
L 902.760532 209.978182 
L 901.730197 216.567273 
L 900.764501 223.156364 
L 899.864567 229.745455 
L 899.031097 236.334545 
L 898.264272 242.923636 
L 897.563625 249.512727 
L 896.927924 256.101818 
L 896.355084 262.690909 
L 895.842124 269.28 
L 895.385174 275.869091 
L 894.979545 282.458182 
L 894.619848 289.047273 
L 894.300171 295.636364 
L 894.014289 302.225455 
L 893.755901 308.814545 
L 893.518877 315.403636 
L 893.297502 321.992727 
L 893.086693 328.581818 
L 892.882185 335.170909 
L 892.680662 341.76 
L 892.479833 348.349091 
L 892.278441 354.938182 
L 892.076204 361.527273 
L 891.873693 368.116364 
L 891.672164 374.705455 
L 891.473347 381.294545 
L 891.279217 387.883636 
L 891.091776 394.472727 
L 890.912851 401.061818 
L 890.743941 407.650909 
L 890.586107 414.24 
L 890.439936 420.829091 
L 890.305547 427.418182 
L 890.182657 434.007273 
L 890.070673 440.596364 
L 889.968799 447.185455 
L 889.876149 453.774545 
L 889.791828 460.363636 
L 889.715 466.952727 
L 889.644907 473.541818 
L 889.580867 480.130909 
L 889.522236 486.72 
L 889.468363 493.309091 
L 889.41854 499.898182 
L 889.371966 506.487273 
L 889.327734 513.076364 
L 889.284855 519.665455 
L 889.242311 526.254545 
L 889.199144 532.843636 
L 889.154573 539.432727 
L 889.108122 546.021818 
L 889.059751 552.610909 
L 889.00997 559.2 
L 888.95992 565.789091 
L 888.911412 572.378182 
L 888.866901 578.967273 
L 888.829401 585.556364 
L 888.802325 592.145455 
L 888.789269 598.734545 
L 888.793731 605.323636 
L 888.818799 611.912727 
L 888.86682 618.501818 
L 888.93908 625.090909 
L 889.035535 631.68 
L 889.154604 638.269091 
L 889.293072 644.858182 
L 889.446118 651.447273 
L 889.607476 658.036364 
L 889.769732 664.625455 
L 889.924745 671.214545 
L 890.064156 677.803636 
L 890.179947 684.392727 
L 890.265009 690.981818 
L 890.313649 697.570909 
L 890.322 704.16 
z
" clip-path="url(#peca2df9ae0)" style="fill: #d3d3d3; stroke: #7f7f7f; stroke-width: 3"/>
   </g>
   <g id="PolyCollection_8">
    <path d="M 999.957864 704.16 
L 998.042136 704.16 
L 998.053082 697.570909 
L 998.088124 690.981818 
L 998.143756 684.392727 
L 998.214798 677.803636 
L 998.295017 671.214545 
L 998.377862 664.625455 
L 998.457173 658.036364 
L 998.527797 651.447273 
L 998.586006 644.858182 
L 998.629709 638.269091 
L 998.658433 631.68 
L 998.673114 625.090909 
L 998.675731 618.501818 
L 998.668854 611.912727 
L 998.655149 605.323636 
L 998.636905 598.734545 
L 998.615646 592.145455 
L 998.591871 585.556364 
L 998.564961 578.967273 
L 998.533272 572.378182 
L 998.494413 565.789091 
L 998.44567 559.2 
L 998.384509 552.610909 
L 998.309087 546.021818 
L 998.218677 539.432727 
L 998.113915 532.843636 
L 997.996837 526.254545 
L 997.870677 519.665455 
L 997.739455 513.076364 
L 997.607438 506.487273 
L 997.478566 499.898182 
L 997.355932 493.309091 
L 997.241422 486.72 
L 997.135538 480.130909 
L 997.037419 473.541818 
L 996.945008 466.952727 
L 996.855311 460.363636 
L 996.764663 453.774545 
L 996.668965 447.185455 
L 996.563867 440.596364 
L 996.444939 434.007273 
L 996.307849 427.418182 
L 996.148622 420.829091 
L 995.963979 414.24 
L 995.751745 407.650909 
L 995.51125 401.061818 
L 995.243609 394.472727 
L 994.95178 387.883636 
L 994.64033 381.294545 
L 994.314884 374.705455 
L 993.981342 368.116364 
L 993.644994 361.527273 
L 993.309716 354.938182 
L 992.977422 348.349091 
L 992.647878 341.76 
L 992.318916 335.170909 
L 991.986988 328.581818 
L 991.647913 321.992727 
L 991.297654 315.403636 
L 990.932967 308.814545 
L 990.551808 302.225455 
L 990.153487 295.636364 
L 989.738586 289.047273 
L 989.308749 282.458182 
L 988.866412 275.869091 
L 988.41455 269.28 
L 987.956422 262.690909 
L 987.495276 256.101818 
L 987.03393 249.512727 
L 986.574145 242.923636 
L 986.115779 236.334545 
L 985.655767 229.745455 
L 985.187084 223.156364 
L 984.697904 216.567273 
L 984.171195 209.978182 
L 983.584983 203.389091 
L 982.913388 196.8 
L 982.128468 190.210909 
L 981.202701 183.621818 
L 980.111847 177.032727 
L 978.837811 170.443636 
L 977.371108 163.854545 
L 975.712593 157.265455 
L 973.874228 150.676364 
L 971.878894 144.087273 
L 969.759449 137.498182 
L 967.557446 130.909091 
L 965.321985 124.32 
L 963.109125 117.730909 
L 960.981995 111.141818 
L 959.011369 104.552727 
L 957.276063 97.963636 
L 955.862192 91.374545 
L 954.860342 84.785455 
L 954.36 78.196364 
L 954.441252 71.607273 
L 955.164598 65.018182 
L 956.560502 58.429091 
L 958.620768 51.84 
L 1039.379232 51.84 
L 1039.379232 51.84 
L 1041.439498 58.429091 
L 1042.835402 65.018182 
L 1043.558748 71.607273 
L 1043.64 78.196364 
L 1043.139658 84.785455 
L 1042.137808 91.374545 
L 1040.723937 97.963636 
L 1038.988631 104.552727 
L 1037.018005 111.141818 
L 1034.890875 117.730909 
L 1032.678015 124.32 
L 1030.442554 130.909091 
L 1028.240551 137.498182 
L 1026.121106 144.087273 
L 1024.125772 150.676364 
L 1022.287407 157.265455 
L 1020.628892 163.854545 
L 1019.162189 170.443636 
L 1017.888153 177.032727 
L 1016.797299 183.621818 
L 1015.871532 190.210909 
L 1015.086612 196.8 
L 1014.415017 203.389091 
L 1013.828805 209.978182 
L 1013.302096 216.567273 
L 1012.812916 223.156364 
L 1012.344233 229.745455 
L 1011.884221 236.334545 
L 1011.425855 242.923636 
L 1010.96607 249.512727 
L 1010.504724 256.101818 
L 1010.043578 262.690909 
L 1009.58545 269.28 
L 1009.133588 275.869091 
L 1008.691251 282.458182 
L 1008.261414 289.047273 
L 1007.846513 295.636364 
L 1007.448192 302.225455 
L 1007.067033 308.814545 
L 1006.702346 315.403636 
L 1006.352087 321.992727 
L 1006.013012 328.581818 
L 1005.681084 335.170909 
L 1005.352122 341.76 
L 1005.022578 348.349091 
L 1004.690284 354.938182 
L 1004.355006 361.527273 
L 1004.018658 368.116364 
L 1003.685116 374.705455 
L 1003.35967 381.294545 
L 1003.04822 387.883636 
L 1002.756391 394.472727 
L 1002.48875 401.061818 
L 1002.248255 407.650909 
L 1002.036021 414.24 
L 1001.851378 420.829091 
L 1001.692151 427.418182 
L 1001.555061 434.007273 
L 1001.436133 440.596364 
L 1001.331035 447.185455 
L 1001.235337 453.774545 
L 1001.144689 460.363636 
L 1001.054992 466.952727 
L 1000.962581 473.541818 
L 1000.864462 480.130909 
L 1000.758578 486.72 
L 1000.644068 493.309091 
L 1000.521434 499.898182 
L 1000.392562 506.487273 
L 1000.260545 513.076364 
L 1000.129323 519.665455 
L 1000.003163 526.254545 
L 999.886085 532.843636 
L 999.781323 539.432727 
L 999.690913 546.021818 
L 999.615491 552.610909 
L 999.55433 559.2 
L 999.505587 565.789091 
L 999.466728 572.378182 
L 999.435039 578.967273 
L 999.408129 585.556364 
L 999.384354 592.145455 
L 999.363095 598.734545 
L 999.344851 605.323636 
L 999.331146 611.912727 
L 999.324269 618.501818 
L 999.326886 625.090909 
L 999.341567 631.68 
L 999.370291 638.269091 
L 999.413994 644.858182 
L 999.472203 651.447273 
L 999.542827 658.036364 
L 999.622138 664.625455 
L 999.704983 671.214545 
L 999.785202 677.803636 
L 999.856244 684.392727 
L 999.911876 690.981818 
L 999.946918 697.570909 
L 999.957864 704.16 
z
" clip-path="url(#peca2df9ae0)" style="fill: #d3d3d3; stroke: #7f7f7f; stroke-width: 3"/>
   </g>
   <g id="PolyCollection_9">
    <path d="M 1112.796742 704.16 
L 1108.403258 704.16 
L 1108.381323 697.570909 
L 1108.388677 690.981818 
L 1108.422952 684.392727 
L 1108.480463 677.803636 
L 1108.556545 671.214545 
L 1108.645936 664.625455 
L 1108.743188 658.036364 
L 1108.843032 651.447273 
L 1108.940688 644.858182 
L 1109.032083 638.269091 
L 1109.113963 631.68 
L 1109.183924 625.090909 
L 1109.240361 618.501818 
L 1109.282363 611.912727 
L 1109.309589 605.323636 
L 1109.322134 598.734545 
L 1109.320417 592.145455 
L 1109.305091 585.556364 
L 1109.276991 578.967273 
L 1109.237092 572.378182 
L 1109.186503 565.789091 
L 1109.126455 559.2 
L 1109.058286 552.610909 
L 1108.983412 546.021818 
L 1108.903289 539.432727 
L 1108.819339 532.843636 
L 1108.732875 526.254545 
L 1108.64501 519.665455 
L 1108.556567 513.076364 
L 1108.468002 506.487273 
L 1108.379343 499.898182 
L 1108.290157 493.309091 
L 1108.199547 486.72 
L 1108.106178 480.130909 
L 1108.00833 473.541818 
L 1107.90398 466.952727 
L 1107.790888 460.363636 
L 1107.666715 453.774545 
L 1107.529134 447.185455 
L 1107.375955 440.596364 
L 1107.205254 434.007273 
L 1107.0155 427.418182 
L 1106.805686 420.829091 
L 1106.575443 414.24 
L 1106.325138 407.650909 
L 1106.055938 401.061818 
L 1105.769825 394.472727 
L 1105.469546 387.883636 
L 1105.158503 381.294545 
L 1104.840568 374.705455 
L 1104.519839 368.116364 
L 1104.200356 361.527273 
L 1103.885805 354.938182 
L 1103.579232 348.349091 
L 1103.282806 341.76 
L 1102.997645 335.170909 
L 1102.723731 328.581818 
L 1102.459907 321.992727 
L 1102.203953 315.403636 
L 1101.952721 308.814545 
L 1101.702304 302.225455 
L 1101.448224 295.636364 
L 1101.185602 289.047273 
L 1100.9093 282.458182 
L 1100.61403 275.869091 
L 1100.29442 269.28 
L 1099.945044 262.690909 
L 1099.560428 256.101818 
L 1099.135031 249.512727 
L 1098.663232 242.923636 
L 1098.13932 236.334545 
L 1097.557515 229.745455 
L 1096.912027 223.156364 
L 1096.197175 216.567273 
L 1095.407579 209.978182 
L 1094.538427 203.389091 
L 1093.585836 196.8 
L 1092.547274 190.210909 
L 1091.42206 183.621818 
L 1090.211889 177.032727 
L 1088.921368 170.443636 
L 1087.558525 163.854545 
L 1086.135262 157.265455 
L 1084.667715 150.676364 
L 1083.176503 144.087273 
L 1081.686824 137.498182 
L 1080.228373 130.909091 
L 1078.83504 124.32 
L 1077.544335 117.730909 
L 1076.396494 111.141818 
L 1075.433223 104.552727 
L 1074.696063 97.963636 
L 1074.224395 91.374545 
L 1074.053154 84.785455 
L 1074.210408 78.196364 
L 1074.714973 71.607273 
L 1075.574323 65.018182 
L 1076.783041 58.429091 
L 1078.322041 51.84 
L 1142.877959 51.84 
L 1142.877959 51.84 
L 1144.416959 58.429091 
L 1145.625677 65.018182 
L 1146.485027 71.607273 
L 1146.989592 78.196364 
L 1147.146846 84.785455 
L 1146.975605 91.374545 
L 1146.503937 97.963636 
L 1145.766777 104.552727 
L 1144.803506 111.141818 
L 1143.655665 117.730909 
L 1142.36496 124.32 
L 1140.971627 130.909091 
L 1139.513176 137.498182 
L 1138.023497 144.087273 
L 1136.532285 150.676364 
L 1135.064738 157.265455 
L 1133.641475 163.854545 
L 1132.278632 170.443636 
L 1130.988111 177.032727 
L 1129.77794 183.621818 
L 1128.652726 190.210909 
L 1127.614164 196.8 
L 1126.661573 203.389091 
L 1125.792421 209.978182 
L 1125.002825 216.567273 
L 1124.287973 223.156364 
L 1123.642485 229.745455 
L 1123.06068 236.334545 
L 1122.536768 242.923636 
L 1122.064969 249.512727 
L 1121.639572 256.101818 
L 1121.254956 262.690909 
L 1120.90558 269.28 
L 1120.58597 275.869091 
L 1120.2907 282.458182 
L 1120.014398 289.047273 
L 1119.751776 295.636364 
L 1119.497696 302.225455 
L 1119.247279 308.814545 
L 1118.996047 315.403636 
L 1118.740093 321.992727 
L 1118.476269 328.581818 
L 1118.202355 335.170909 
L 1117.917194 341.76 
L 1117.620768 348.349091 
L 1117.314195 354.938182 
L 1116.999644 361.527273 
L 1116.680161 368.116364 
L 1116.359432 374.705455 
L 1116.041497 381.294545 
L 1115.730454 387.883636 
L 1115.430175 394.472727 
L 1115.144062 401.061818 
L 1114.874862 407.650909 
L 1114.624557 414.24 
L 1114.394314 420.829091 
L 1114.1845 427.418182 
L 1113.994746 434.007273 
L 1113.824045 440.596364 
L 1113.670866 447.185455 
L 1113.533285 453.774545 
L 1113.409112 460.363636 
L 1113.29602 466.952727 
L 1113.19167 473.541818 
L 1113.093822 480.130909 
L 1113.000453 486.72 
L 1112.909843 493.309091 
L 1112.820657 499.898182 
L 1112.731998 506.487273 
L 1112.643433 513.076364 
L 1112.55499 519.665455 
L 1112.467125 526.254545 
L 1112.380661 532.843636 
L 1112.296711 539.432727 
L 1112.216588 546.021818 
L 1112.141714 552.610909 
L 1112.073545 559.2 
L 1112.013497 565.789091 
L 1111.962908 572.378182 
L 1111.923009 578.967273 
L 1111.894909 585.556364 
L 1111.879583 592.145455 
L 1111.877866 598.734545 
L 1111.890411 605.323636 
L 1111.917637 611.912727 
L 1111.959639 618.501818 
L 1112.016076 625.090909 
L 1112.086037 631.68 
L 1112.167917 638.269091 
L 1112.259312 644.858182 
L 1112.356968 651.447273 
L 1112.456812 658.036364 
L 1112.554064 664.625455 
L 1112.643455 671.214545 
L 1112.719537 677.803636 
L 1112.777048 684.392727 
L 1112.811323 690.981818 
L 1112.818677 697.570909 
L 1112.796742 704.16 
z
" clip-path="url(#peca2df9ae0)" style="fill: #d3d3d3; stroke: #7f7f7f; stroke-width: 3"/>
   </g>
   <g id="line2d_4">
    <path d="M 217.8 433 
L 217.8 51.84 
" clip-path="url(#peca2df9ae0)" style="fill: none; stroke: #7f7f7f; stroke-width: 3; stroke-linecap: round"/>
   </g>
   <g id="line2d_5">
    <path d="M 217.8 276.40116 
L 217.8 51.84 
" clip-path="url(#peca2df9ae0)" style="fill: none; stroke: #7f7f7f; stroke-width: 9; stroke-linecap: round"/>
   </g>
   <g id="line2d_6">
    <path d="M 329.4 433 
L 329.4 51.84 
" clip-path="url(#peca2df9ae0)" style="fill: none; stroke: #7f7f7f; stroke-width: 3; stroke-linecap: round"/>
   </g>
   <g id="line2d_7">
    <path d="M 329.4 269.06256 
L 329.4 72.225 
" clip-path="url(#peca2df9ae0)" style="fill: none; stroke: #7f7f7f; stroke-width: 9; stroke-linecap: round"/>
   </g>
   <g id="line2d_8">
    <path d="M 441 433 
L 441 51.84 
" clip-path="url(#peca2df9ae0)" style="fill: none; stroke: #7f7f7f; stroke-width: 3; stroke-linecap: round"/>
   </g>
   <g id="line2d_9">
    <path d="M 441 286.02288 
L 441 64.56024 
" clip-path="url(#peca2df9ae0)" style="fill: none; stroke: #7f7f7f; stroke-width: 9; stroke-linecap: round"/>
   </g>
   <g id="line2d_10">
    <path d="M 552.6 433 
L 552.6 51.84 
" clip-path="url(#peca2df9ae0)" style="fill: none; stroke: #7f7f7f; stroke-width: 3; stroke-linecap: round"/>
   </g>
   <g id="line2d_11">
    <path d="M 552.6 290.58912 
L 552.6 54.93852 
" clip-path="url(#peca2df9ae0)" style="fill: none; stroke: #7f7f7f; stroke-width: 9; stroke-linecap: round"/>
   </g>
   <g id="line2d_12">
    <path d="M 664.2 433 
L 664.2 51.84 
" clip-path="url(#peca2df9ae0)" style="fill: none; stroke: #7f7f7f; stroke-width: 3; stroke-linecap: round"/>
   </g>
   <g id="line2d_13">
    <path d="M 664.2 312.768 
L 664.2 51.84 
" clip-path="url(#peca2df9ae0)" style="fill: none; stroke: #7f7f7f; stroke-width: 9; stroke-linecap: round"/>
   </g>
   <g id="line2d_14">
    <path d="M 775.8 429.53328 
L 775.8 51.84 
" clip-path="url(#peca2df9ae0)" style="fill: none; stroke: #7f7f7f; stroke-width: 3; stroke-linecap: round"/>
   </g>
   <g id="line2d_15">
    <path d="M 775.8 204.48288 
L 775.8 51.84 
" clip-path="url(#peca2df9ae0)" style="fill: none; stroke: #7f7f7f; stroke-width: 9; stroke-linecap: round"/>
   </g>
   <g id="line2d_16">
    <path d="M 887.4 430.83792 
L 887.4 51.84 
" clip-path="url(#peca2df9ae0)" style="fill: none; stroke: #7f7f7f; stroke-width: 3; stroke-linecap: round"/>
   </g>
   <g id="line2d_17">
    <path d="M 887.4 207.41832 
L 887.4 51.84 
" clip-path="url(#peca2df9ae0)" style="fill: none; stroke: #7f7f7f; stroke-width: 9; stroke-linecap: round"/>
   </g>
   <g id="line2d_18">
    <path d="M 999 433 
L 999 51.84 
" clip-path="url(#peca2df9ae0)" style="fill: none; stroke: #7f7f7f; stroke-width: 3; stroke-linecap: round"/>
   </g>
   <g id="line2d_19">
    <path d="M 999 207.41832 
L 999 51.84 
" clip-path="url(#peca2df9ae0)" style="fill: none; stroke: #7f7f7f; stroke-width: 9; stroke-linecap: round"/>
   </g>
   <g id="line2d_20">
    <path d="M 1110.6 433 
L 1110.6 51.84 
" clip-path="url(#peca2df9ae0)" style="fill: none; stroke: #7f7f7f; stroke-width: 3; stroke-linecap: round"/>
   </g>
   <g id="line2d_21">
    <path d="M 1110.6 214.92 
L 1110.6 51.84 
" clip-path="url(#peca2df9ae0)" style="fill: none; stroke: #7f7f7f; stroke-width: 9; stroke-linecap: round"/>
   </g>
   <g id="patch_3">
    <path d="M 162 378 
L 1166.4 378 
" style="fill: none; stroke: #cccccc; stroke-width: 1.25; stroke-linejoin: miter; stroke-linecap: square"/>
   </g>
   <g id="PathCollection_1">
    <defs>
     <path id="mc5bb4baa21" d="M 0 3 
C 0.795609 3 1.55874 2.683901 2.12132 2.12132 
C 2.683901 1.55874 3 0.795609 3 0 
C 3 -0.795609 2.683901 -1.55874 2.12132 -2.12132 
C 1.55874 -2.683901 0.795609 -3 0 -3 
C -0.795609 -3 -1.55874 -2.683901 -2.12132 -2.12132 
C -2.683901 -1.55874 -3 -0.795609 -3 0 
C -3 0.795609 -2.683901 1.55874 -2.12132 2.12132 
C -1.55874 2.683901 -0.795609 3 0 3 
z
" style="stroke: #7f7f7f"/>
    </defs>
    <g clip-path="url(#peca2df9ae0)">
     <use xlink:href="#mc5bb4baa21" x="217.8" y="124.24752" style="fill: #ffffff; stroke: #7f7f7f"/>
    </g>
   </g>
   <g id="PathCollection_2">
    <g clip-path="url(#peca2df9ae0)">
     <use xlink:href="#mc5bb4baa21" x="329.4" y="154.90656" style="fill: #ffffff; stroke: #7f7f7f"/>
    </g>
   </g>
   <g id="PathCollection_3">
    <g clip-path="url(#peca2df9ae0)">
     <use xlink:href="#mc5bb4baa21" x="441" y="124.24752" style="fill: #ffffff; stroke: #7f7f7f"/>
    </g>
   </g>
   <g id="PathCollection_4">
    <g clip-path="url(#peca2df9ae0)">
     <use xlink:href="#mc5bb4baa21" x="552.6" y="142.83864" style="fill: #ffffff; stroke: #7f7f7f"/>
    </g>
   </g>
   <g id="PathCollection_5">
    <g clip-path="url(#peca2df9ae0)">
     <use xlink:href="#mc5bb4baa21" x="664.2" y="137.62008" style="fill: #ffffff; stroke: #7f7f7f"/>
    </g>
   </g>
   <g id="PathCollection_6">
    <g clip-path="url(#peca2df9ae0)">
     <use xlink:href="#mc5bb4baa21" x="775.8" y="115.4412" style="fill: #ffffff; stroke: #7f7f7f"/>
    </g>
   </g>
   <g id="PathCollection_7">
    <g clip-path="url(#peca2df9ae0)">
     <use xlink:href="#mc5bb4baa21" x="887.4" y="114.13656" style="fill: #ffffff; stroke: #7f7f7f"/>
    </g>
   </g>
   <g id="PathCollection_8">
    <g clip-path="url(#peca2df9ae0)">
     <use xlink:href="#mc5bb4baa21" x="999" y="111.20112" style="fill: #ffffff; stroke: #7f7f7f"/>
    </g>
   </g>
   <g id="PathCollection_9">
    <g clip-path="url(#peca2df9ae0)">
     <use xlink:href="#mc5bb4baa21" x="1110.6" y="116.74584" style="fill: #ffffff; stroke: #7f7f7f"/>
    </g>
   </g>
  </g>
  <g id="text_14">
   <!-- SRtrain -->
   <g style="fill: #262626" transform="translate(610.282969 22.317187)scale(0.18 -0.18)">
    <defs>
     <path id="DejaVuSans-Bold-53" d="M 3834 4519 
L 3834 3531 
Q 3450 3703 3084 3790 
Q 2719 3878 2394 3878 
Q 1963 3878 1756 3759 
Q 1550 3641 1550 3391 
Q 1550 3203 1689 3098 
Q 1828 2994 2194 2919 
L 2706 2816 
Q 3484 2659 3812 2340 
Q 4141 2022 4141 1434 
Q 4141 663 3683 286 
Q 3225 -91 2284 -91 
Q 1841 -91 1394 -6 
Q 947 78 500 244 
L 500 1259 
Q 947 1022 1364 901 
Q 1781 781 2169 781 
Q 2563 781 2772 912 
Q 2981 1044 2981 1288 
Q 2981 1506 2839 1625 
Q 2697 1744 2272 1838 
L 1806 1941 
Q 1106 2091 782 2419 
Q 459 2747 459 3303 
Q 459 4000 909 4375 
Q 1359 4750 2203 4750 
Q 2588 4750 2994 4692 
Q 3400 4634 3834 4519 
z
" transform="scale(0.015625)"/>
     <path id="DejaVuSans-Bold-52" d="M 2297 2597 
Q 2675 2597 2839 2737 
Q 3003 2878 3003 3200 
Q 3003 3519 2839 3656 
Q 2675 3794 2297 3794 
L 1791 3794 
L 1791 2597 
L 2297 2597 
z
M 1791 1766 
L 1791 0 
L 588 0 
L 588 4666 
L 2425 4666 
Q 3347 4666 3776 4356 
Q 4206 4047 4206 3378 
Q 4206 2916 3982 2619 
Q 3759 2322 3309 2181 
Q 3556 2125 3751 1926 
Q 3947 1728 4147 1325 
L 4800 0 
L 3519 0 
L 2950 1159 
Q 2778 1509 2601 1637 
Q 2425 1766 2131 1766 
L 1791 1766 
z
" transform="scale(0.015625)"/>
     <path id="DejaVuSans-Bold-74" d="M 1759 4494 
L 1759 3500 
L 2913 3500 
L 2913 2700 
L 1759 2700 
L 1759 1216 
Q 1759 972 1856 886 
Q 1953 800 2241 800 
L 2816 800 
L 2816 0 
L 1856 0 
Q 1194 0 917 276 
Q 641 553 641 1216 
L 641 2700 
L 84 2700 
L 84 3500 
L 641 3500 
L 641 4494 
L 1759 4494 
z
" transform="scale(0.015625)"/>
     <path id="DejaVuSans-Bold-72" d="M 3138 2547 
Q 2991 2616 2845 2648 
Q 2700 2681 2553 2681 
Q 2122 2681 1889 2404 
Q 1656 2128 1656 1613 
L 1656 0 
L 538 0 
L 538 3500 
L 1656 3500 
L 1656 2925 
Q 1872 3269 2151 3426 
Q 2431 3584 2822 3584 
Q 2878 3584 2943 3579 
Q 3009 3575 3134 3559 
L 3138 2547 
z
" transform="scale(0.015625)"/>
     <path id="DejaVuSans-Bold-61" d="M 2106 1575 
Q 1756 1575 1579 1456 
Q 1403 1338 1403 1106 
Q 1403 894 1545 773 
Q 1688 653 1941 653 
Q 2256 653 2472 879 
Q 2688 1106 2688 1447 
L 2688 1575 
L 2106 1575 
z
M 3816 1997 
L 3816 0 
L 2688 0 
L 2688 519 
Q 2463 200 2181 54 
Q 1900 -91 1497 -91 
Q 953 -91 614 226 
Q 275 544 275 1050 
Q 275 1666 698 1953 
Q 1122 2241 2028 2241 
L 2688 2241 
L 2688 2328 
Q 2688 2594 2478 2717 
Q 2269 2841 1825 2841 
Q 1466 2841 1156 2769 
Q 847 2697 581 2553 
L 581 3406 
Q 941 3494 1303 3539 
Q 1666 3584 2028 3584 
Q 2975 3584 3395 3211 
Q 3816 2838 3816 1997 
z
" transform="scale(0.015625)"/>
     <path id="DejaVuSans-Bold-69" d="M 538 3500 
L 1656 3500 
L 1656 0 
L 538 0 
L 538 3500 
z
M 538 4863 
L 1656 4863 
L 1656 3950 
L 538 3950 
L 538 4863 
z
" transform="scale(0.015625)"/>
     <path id="DejaVuSans-Bold-6e" d="M 4056 2131 
L 4056 0 
L 2931 0 
L 2931 347 
L 2931 1631 
Q 2931 2084 2911 2256 
Q 2891 2428 2841 2509 
Q 2775 2619 2662 2680 
Q 2550 2741 2406 2741 
Q 2056 2741 1856 2470 
Q 1656 2200 1656 1722 
L 1656 0 
L 538 0 
L 538 3500 
L 1656 3500 
L 1656 2988 
Q 1909 3294 2193 3439 
Q 2478 3584 2822 3584 
Q 3428 3584 3742 3212 
Q 4056 2841 4056 2131 
z
" transform="scale(0.015625)"/>
    </defs>
    <use xlink:href="#DejaVuSans-Bold-53"/>
    <use xlink:href="#DejaVuSans-Bold-52" x="72.021484"/>
    <use xlink:href="#DejaVuSans-Bold-74" x="149.023438"/>
    <use xlink:href="#DejaVuSans-Bold-72" x="196.826172"/>
    <use xlink:href="#DejaVuSans-Bold-61" x="246.142578"/>
    <use xlink:href="#DejaVuSans-Bold-69" x="313.623047"/>
    <use xlink:href="#DejaVuSans-Bold-6e" x="347.900391"/>
   </g>
  </g>
 </g>
 <defs>
  <clipPath id="peca2df9ae0">
   <rect x="162" y="51.84" width="1004.4" height="326.16"/>
  </clipPath>
 </defs>
</svg>
