<?xml version="1.0" encoding="utf-8" standalone="no"?>
<!DOCTYPE svg PUBLIC "-//W3C//DTD SVG 1.1//EN"
  "http://www.w3.org/Graphics/SVG/1.1/DTD/svg11.dtd">
<svg xmlns:xlink="http://www.w3.org/1999/xlink" width="1584pt" height="432pt" viewBox="0 0 1584 432" xmlns="http://www.w3.org/2000/svg" version="1.1">
 <metadata>
  <rdf:RDF xmlns:dc="http://purl.org/dc/elements/1.1/" xmlns:cc="http://creativecommons.org/ns#" xmlns:rdf="http://www.w3.org/1999/02/22-rdf-syntax-ns#">
   <cc:Work>
    <dc:type rdf:resource="http://purl.org/dc/dcmitype/StillImage"/>
    <dc:date>2024-02-16T13:43:19.120776</dc:date>
    <dc:format>image/svg+xml</dc:format>
    <dc:creator>
     <cc:Agent>
      <dc:title>Matplotlib v3.5.1, https://matplotlib.org/</dc:title>
     </cc:Agent>
    </dc:creator>
   </cc:Work>
  </rdf:RDF>
 </metadata>
 <defs>
  <style type="text/css">*{stroke-linejoin: round; stroke-linecap: butt}</style>
 </defs>
 <g id="figure_1">
  <g id="patch_1">
   <path d="M 0 432 
L 1584 432 
L 1584 0 
L 0 0 
z
" style="fill: #ffffff"/>
  </g>
  <g id="axes_1">
   <g id="patch_2">
    <path d="M 198 378 
L 1425.6 378 
L 1425.6 51.84 
L 198 51.84 
z
" style="fill: #ffffff"/>
   </g>
   <g id="matplotlib.axis_1">
    <g id="xtick_1">
     <g id="text_1">
      <!-- SQUARNA -->
      <g style="fill: #262626" transform="translate(221.515 401.177188)scale(0.18 -0.18)">
       <defs>
        <path id="DejaVuSans-53" d="M 3425 4513 
L 3425 3897 
Q 3066 4069 2747 4153 
Q 2428 4238 2131 4238 
Q 1616 4238 1336 4038 
Q 1056 3838 1056 3469 
Q 1056 3159 1242 3001 
Q 1428 2844 1947 2747 
L 2328 2669 
Q 3034 2534 3370 2195 
Q 3706 1856 3706 1288 
Q 3706 609 3251 259 
Q 2797 -91 1919 -91 
Q 1588 -91 1214 -16 
Q 841 59 441 206 
L 441 856 
Q 825 641 1194 531 
Q 1563 422 1919 422 
Q 2459 422 2753 634 
Q 3047 847 3047 1241 
Q 3047 1584 2836 1778 
Q 2625 1972 2144 2069 
L 1759 2144 
Q 1053 2284 737 2584 
Q 422 2884 422 3419 
Q 422 4038 858 4394 
Q 1294 4750 2059 4750 
Q 2388 4750 2728 4690 
Q 3069 4631 3425 4513 
z
" transform="scale(0.015625)"/>
        <path id="DejaVuSans-51" d="M 2522 4238 
Q 1834 4238 1429 3725 
Q 1025 3213 1025 2328 
Q 1025 1447 1429 934 
Q 1834 422 2522 422 
Q 3209 422 3611 934 
Q 4013 1447 4013 2328 
Q 4013 3213 3611 3725 
Q 3209 4238 2522 4238 
z
M 3406 84 
L 4238 -825 
L 3475 -825 
L 2784 -78 
Q 2681 -84 2626 -87 
Q 2572 -91 2522 -91 
Q 1538 -91 948 567 
Q 359 1225 359 2328 
Q 359 3434 948 4092 
Q 1538 4750 2522 4750 
Q 3503 4750 4090 4092 
Q 4678 3434 4678 2328 
Q 4678 1516 4351 937 
Q 4025 359 3406 84 
z
" transform="scale(0.015625)"/>
        <path id="DejaVuSans-55" d="M 556 4666 
L 1191 4666 
L 1191 1831 
Q 1191 1081 1462 751 
Q 1734 422 2344 422 
Q 2950 422 3222 751 
Q 3494 1081 3494 1831 
L 3494 4666 
L 4128 4666 
L 4128 1753 
Q 4128 841 3676 375 
Q 3225 -91 2344 -91 
Q 1459 -91 1007 375 
Q 556 841 556 1753 
L 556 4666 
z
" transform="scale(0.015625)"/>
        <path id="DejaVuSans-41" d="M 2188 4044 
L 1331 1722 
L 3047 1722 
L 2188 4044 
z
M 1831 4666 
L 2547 4666 
L 4325 0 
L 3669 0 
L 3244 1197 
L 1141 1197 
L 716 0 
L 50 0 
L 1831 4666 
z
" transform="scale(0.015625)"/>
        <path id="DejaVuSans-52" d="M 2841 2188 
Q 3044 2119 3236 1894 
Q 3428 1669 3622 1275 
L 4263 0 
L 3584 0 
L 2988 1197 
Q 2756 1666 2539 1819 
Q 2322 1972 1947 1972 
L 1259 1972 
L 1259 0 
L 628 0 
L 628 4666 
L 2053 4666 
Q 2853 4666 3247 4331 
Q 3641 3997 3641 3322 
Q 3641 2881 3436 2590 
Q 3231 2300 2841 2188 
z
M 1259 4147 
L 1259 2491 
L 2053 2491 
Q 2509 2491 2742 2702 
Q 2975 2913 2975 3322 
Q 2975 3731 2742 3939 
Q 2509 4147 2053 4147 
L 1259 4147 
z
" transform="scale(0.015625)"/>
        <path id="DejaVuSans-4e" d="M 628 4666 
L 1478 4666 
L 3547 763 
L 3547 4666 
L 4159 4666 
L 4159 0 
L 3309 0 
L 1241 3903 
L 1241 0 
L 628 0 
L 628 4666 
z
" transform="scale(0.015625)"/>
       </defs>
       <use xlink:href="#DejaVuSans-53"/>
       <use xlink:href="#DejaVuSans-51" x="63.476562"/>
       <use xlink:href="#DejaVuSans-55" x="142.1875"/>
       <use xlink:href="#DejaVuSans-41" x="215.380859"/>
       <use xlink:href="#DejaVuSans-52" x="283.789062"/>
       <use xlink:href="#DejaVuSans-4e" x="353.271484"/>
       <use xlink:href="#DejaVuSans-41" x="428.076172"/>
      </g>
     </g>
    </g>
    <g id="xtick_2">
     <g id="text_2">
      <!-- ShapeKnots -->
      <g style="fill: #262626" transform="translate(349.086563 401.177188)scale(0.18 -0.18)">
       <defs>
        <path id="DejaVuSans-68" d="M 3513 2113 
L 3513 0 
L 2938 0 
L 2938 2094 
Q 2938 2591 2744 2837 
Q 2550 3084 2163 3084 
Q 1697 3084 1428 2787 
Q 1159 2491 1159 1978 
L 1159 0 
L 581 0 
L 581 4863 
L 1159 4863 
L 1159 2956 
Q 1366 3272 1645 3428 
Q 1925 3584 2291 3584 
Q 2894 3584 3203 3211 
Q 3513 2838 3513 2113 
z
" transform="scale(0.015625)"/>
        <path id="DejaVuSans-61" d="M 2194 1759 
Q 1497 1759 1228 1600 
Q 959 1441 959 1056 
Q 959 750 1161 570 
Q 1363 391 1709 391 
Q 2188 391 2477 730 
Q 2766 1069 2766 1631 
L 2766 1759 
L 2194 1759 
z
M 3341 1997 
L 3341 0 
L 2766 0 
L 2766 531 
Q 2569 213 2275 61 
Q 1981 -91 1556 -91 
Q 1019 -91 701 211 
Q 384 513 384 1019 
Q 384 1609 779 1909 
Q 1175 2209 1959 2209 
L 2766 2209 
L 2766 2266 
Q 2766 2663 2505 2880 
Q 2244 3097 1772 3097 
Q 1472 3097 1187 3025 
Q 903 2953 641 2809 
L 641 3341 
Q 956 3463 1253 3523 
Q 1550 3584 1831 3584 
Q 2591 3584 2966 3190 
Q 3341 2797 3341 1997 
z
" transform="scale(0.015625)"/>
        <path id="DejaVuSans-70" d="M 1159 525 
L 1159 -1331 
L 581 -1331 
L 581 3500 
L 1159 3500 
L 1159 2969 
Q 1341 3281 1617 3432 
Q 1894 3584 2278 3584 
Q 2916 3584 3314 3078 
Q 3713 2572 3713 1747 
Q 3713 922 3314 415 
Q 2916 -91 2278 -91 
Q 1894 -91 1617 61 
Q 1341 213 1159 525 
z
M 3116 1747 
Q 3116 2381 2855 2742 
Q 2594 3103 2138 3103 
Q 1681 3103 1420 2742 
Q 1159 2381 1159 1747 
Q 1159 1113 1420 752 
Q 1681 391 2138 391 
Q 2594 391 2855 752 
Q 3116 1113 3116 1747 
z
" transform="scale(0.015625)"/>
        <path id="DejaVuSans-65" d="M 3597 1894 
L 3597 1613 
L 953 1613 
Q 991 1019 1311 708 
Q 1631 397 2203 397 
Q 2534 397 2845 478 
Q 3156 559 3463 722 
L 3463 178 
Q 3153 47 2828 -22 
Q 2503 -91 2169 -91 
Q 1331 -91 842 396 
Q 353 884 353 1716 
Q 353 2575 817 3079 
Q 1281 3584 2069 3584 
Q 2775 3584 3186 3129 
Q 3597 2675 3597 1894 
z
M 3022 2063 
Q 3016 2534 2758 2815 
Q 2500 3097 2075 3097 
Q 1594 3097 1305 2825 
Q 1016 2553 972 2059 
L 3022 2063 
z
" transform="scale(0.015625)"/>
        <path id="DejaVuSans-4b" d="M 628 4666 
L 1259 4666 
L 1259 2694 
L 3353 4666 
L 4166 4666 
L 1850 2491 
L 4331 0 
L 3500 0 
L 1259 2247 
L 1259 0 
L 628 0 
L 628 4666 
z
" transform="scale(0.015625)"/>
        <path id="DejaVuSans-6e" d="M 3513 2113 
L 3513 0 
L 2938 0 
L 2938 2094 
Q 2938 2591 2744 2837 
Q 2550 3084 2163 3084 
Q 1697 3084 1428 2787 
Q 1159 2491 1159 1978 
L 1159 0 
L 581 0 
L 581 3500 
L 1159 3500 
L 1159 2956 
Q 1366 3272 1645 3428 
Q 1925 3584 2291 3584 
Q 2894 3584 3203 3211 
Q 3513 2838 3513 2113 
z
" transform="scale(0.015625)"/>
        <path id="DejaVuSans-6f" d="M 1959 3097 
Q 1497 3097 1228 2736 
Q 959 2375 959 1747 
Q 959 1119 1226 758 
Q 1494 397 1959 397 
Q 2419 397 2687 759 
Q 2956 1122 2956 1747 
Q 2956 2369 2687 2733 
Q 2419 3097 1959 3097 
z
M 1959 3584 
Q 2709 3584 3137 3096 
Q 3566 2609 3566 1747 
Q 3566 888 3137 398 
Q 2709 -91 1959 -91 
Q 1206 -91 779 398 
Q 353 888 353 1747 
Q 353 2609 779 3096 
Q 1206 3584 1959 3584 
z
" transform="scale(0.015625)"/>
        <path id="DejaVuSans-74" d="M 1172 4494 
L 1172 3500 
L 2356 3500 
L 2356 3053 
L 1172 3053 
L 1172 1153 
Q 1172 725 1289 603 
Q 1406 481 1766 481 
L 2356 481 
L 2356 0 
L 1766 0 
Q 1100 0 847 248 
Q 594 497 594 1153 
L 594 3053 
L 172 3053 
L 172 3500 
L 594 3500 
L 594 4494 
L 1172 4494 
z
" transform="scale(0.015625)"/>
        <path id="DejaVuSans-73" d="M 2834 3397 
L 2834 2853 
Q 2591 2978 2328 3040 
Q 2066 3103 1784 3103 
Q 1356 3103 1142 2972 
Q 928 2841 928 2578 
Q 928 2378 1081 2264 
Q 1234 2150 1697 2047 
L 1894 2003 
Q 2506 1872 2764 1633 
Q 3022 1394 3022 966 
Q 3022 478 2636 193 
Q 2250 -91 1575 -91 
Q 1294 -91 989 -36 
Q 684 19 347 128 
L 347 722 
Q 666 556 975 473 
Q 1284 391 1588 391 
Q 1994 391 2212 530 
Q 2431 669 2431 922 
Q 2431 1156 2273 1281 
Q 2116 1406 1581 1522 
L 1381 1569 
Q 847 1681 609 1914 
Q 372 2147 372 2553 
Q 372 3047 722 3315 
Q 1072 3584 1716 3584 
Q 2034 3584 2315 3537 
Q 2597 3491 2834 3397 
z
" transform="scale(0.015625)"/>
       </defs>
       <use xlink:href="#DejaVuSans-53"/>
       <use xlink:href="#DejaVuSans-68" x="63.476562"/>
       <use xlink:href="#DejaVuSans-61" x="126.855469"/>
       <use xlink:href="#DejaVuSans-70" x="188.134766"/>
       <use xlink:href="#DejaVuSans-65" x="251.611328"/>
       <use xlink:href="#DejaVuSans-4b" x="313.134766"/>
       <use xlink:href="#DejaVuSans-6e" x="378.710938"/>
       <use xlink:href="#DejaVuSans-6f" x="442.089844"/>
       <use xlink:href="#DejaVuSans-74" x="503.271484"/>
       <use xlink:href="#DejaVuSans-73" x="542.480469"/>
      </g>
     </g>
    </g>
    <g id="xtick_3">
     <g id="text_3">
      <!-- RNAfold -->
      <g style="fill: #262626" transform="translate(503.293906 401.177188)scale(0.18 -0.18)">
       <defs>
        <path id="DejaVuSans-66" d="M 2375 4863 
L 2375 4384 
L 1825 4384 
Q 1516 4384 1395 4259 
Q 1275 4134 1275 3809 
L 1275 3500 
L 2222 3500 
L 2222 3053 
L 1275 3053 
L 1275 0 
L 697 0 
L 697 3053 
L 147 3053 
L 147 3500 
L 697 3500 
L 697 3744 
Q 697 4328 969 4595 
Q 1241 4863 1831 4863 
L 2375 4863 
z
" transform="scale(0.015625)"/>
        <path id="DejaVuSans-6c" d="M 603 4863 
L 1178 4863 
L 1178 0 
L 603 0 
L 603 4863 
z
" transform="scale(0.015625)"/>
        <path id="DejaVuSans-64" d="M 2906 2969 
L 2906 4863 
L 3481 4863 
L 3481 0 
L 2906 0 
L 2906 525 
Q 2725 213 2448 61 
Q 2172 -91 1784 -91 
Q 1150 -91 751 415 
Q 353 922 353 1747 
Q 353 2572 751 3078 
Q 1150 3584 1784 3584 
Q 2172 3584 2448 3432 
Q 2725 3281 2906 2969 
z
M 947 1747 
Q 947 1113 1208 752 
Q 1469 391 1925 391 
Q 2381 391 2643 752 
Q 2906 1113 2906 1747 
Q 2906 2381 2643 2742 
Q 2381 3103 1925 3103 
Q 1469 3103 1208 2742 
Q 947 2381 947 1747 
z
" transform="scale(0.015625)"/>
       </defs>
       <use xlink:href="#DejaVuSans-52"/>
       <use xlink:href="#DejaVuSans-4e" x="69.482422"/>
       <use xlink:href="#DejaVuSans-41" x="144.287109"/>
       <use xlink:href="#DejaVuSans-66" x="209.070312"/>
       <use xlink:href="#DejaVuSans-6f" x="244.275391"/>
       <use xlink:href="#DejaVuSans-6c" x="305.457031"/>
       <use xlink:href="#DejaVuSans-64" x="333.240234"/>
      </g>
     </g>
    </g>
    <g id="xtick_4">
     <g id="text_4">
      <!-- IPknot -->
      <g style="fill: #262626" transform="translate(647.367813 401.177188)scale(0.18 -0.18)">
       <defs>
        <path id="DejaVuSans-49" d="M 628 4666 
L 1259 4666 
L 1259 0 
L 628 0 
L 628 4666 
z
" transform="scale(0.015625)"/>
        <path id="DejaVuSans-50" d="M 1259 4147 
L 1259 2394 
L 2053 2394 
Q 2494 2394 2734 2622 
Q 2975 2850 2975 3272 
Q 2975 3691 2734 3919 
Q 2494 4147 2053 4147 
L 1259 4147 
z
M 628 4666 
L 2053 4666 
Q 2838 4666 3239 4311 
Q 3641 3956 3641 3272 
Q 3641 2581 3239 2228 
Q 2838 1875 2053 1875 
L 1259 1875 
L 1259 0 
L 628 0 
L 628 4666 
z
" transform="scale(0.015625)"/>
        <path id="DejaVuSans-6b" d="M 581 4863 
L 1159 4863 
L 1159 1991 
L 2875 3500 
L 3609 3500 
L 1753 1863 
L 3688 0 
L 2938 0 
L 1159 1709 
L 1159 0 
L 581 0 
L 581 4863 
z
" transform="scale(0.015625)"/>
       </defs>
       <use xlink:href="#DejaVuSans-49"/>
       <use xlink:href="#DejaVuSans-50" x="29.492188"/>
       <use xlink:href="#DejaVuSans-6b" x="89.794922"/>
       <use xlink:href="#DejaVuSans-6e" x="147.705078"/>
       <use xlink:href="#DejaVuSans-6f" x="211.083984"/>
       <use xlink:href="#DejaVuSans-74" x="272.265625"/>
      </g>
     </g>
    </g>
    <g id="xtick_5">
     <g id="text_5">
      <!-- SPOT-RNA -->
      <g style="fill: #262626" transform="translate(766.508906 401.177188)scale(0.18 -0.18)">
       <defs>
        <path id="DejaVuSans-4f" d="M 2522 4238 
Q 1834 4238 1429 3725 
Q 1025 3213 1025 2328 
Q 1025 1447 1429 934 
Q 1834 422 2522 422 
Q 3209 422 3611 934 
Q 4013 1447 4013 2328 
Q 4013 3213 3611 3725 
Q 3209 4238 2522 4238 
z
M 2522 4750 
Q 3503 4750 4090 4092 
Q 4678 3434 4678 2328 
Q 4678 1225 4090 567 
Q 3503 -91 2522 -91 
Q 1538 -91 948 565 
Q 359 1222 359 2328 
Q 359 3434 948 4092 
Q 1538 4750 2522 4750 
z
" transform="scale(0.015625)"/>
        <path id="DejaVuSans-54" d="M -19 4666 
L 3928 4666 
L 3928 4134 
L 2272 4134 
L 2272 0 
L 1638 0 
L 1638 4134 
L -19 4134 
L -19 4666 
z
" transform="scale(0.015625)"/>
        <path id="DejaVuSans-2d" d="M 313 2009 
L 1997 2009 
L 1997 1497 
L 313 1497 
L 313 2009 
z
" transform="scale(0.015625)"/>
       </defs>
       <use xlink:href="#DejaVuSans-53"/>
       <use xlink:href="#DejaVuSans-50" x="63.476562"/>
       <use xlink:href="#DejaVuSans-4f" x="123.779297"/>
       <use xlink:href="#DejaVuSans-54" x="202.490234"/>
       <use xlink:href="#DejaVuSans-2d" x="254.449219"/>
       <use xlink:href="#DejaVuSans-52" x="290.533203"/>
       <use xlink:href="#DejaVuSans-4e" x="360.015625"/>
       <use xlink:href="#DejaVuSans-41" x="434.820312"/>
      </g>
     </g>
    </g>
    <g id="xtick_6">
     <g id="text_6">
      <!-- MXfold2 -->
      <g style="fill: #262626" transform="translate(911.654375 401.177188)scale(0.18 -0.18)">
       <defs>
        <path id="DejaVuSans-4d" d="M 628 4666 
L 1569 4666 
L 2759 1491 
L 3956 4666 
L 4897 4666 
L 4897 0 
L 4281 0 
L 4281 4097 
L 3078 897 
L 2444 897 
L 1241 4097 
L 1241 0 
L 628 0 
L 628 4666 
z
" transform="scale(0.015625)"/>
        <path id="DejaVuSans-58" d="M 403 4666 
L 1081 4666 
L 2241 2931 
L 3406 4666 
L 4084 4666 
L 2584 2425 
L 4184 0 
L 3506 0 
L 2194 1984 
L 872 0 
L 191 0 
L 1856 2491 
L 403 4666 
z
" transform="scale(0.015625)"/>
        <path id="DejaVuSans-32" d="M 1228 531 
L 3431 531 
L 3431 0 
L 469 0 
L 469 531 
Q 828 903 1448 1529 
Q 2069 2156 2228 2338 
Q 2531 2678 2651 2914 
Q 2772 3150 2772 3378 
Q 2772 3750 2511 3984 
Q 2250 4219 1831 4219 
Q 1534 4219 1204 4116 
Q 875 4013 500 3803 
L 500 4441 
Q 881 4594 1212 4672 
Q 1544 4750 1819 4750 
Q 2544 4750 2975 4387 
Q 3406 4025 3406 3419 
Q 3406 3131 3298 2873 
Q 3191 2616 2906 2266 
Q 2828 2175 2409 1742 
Q 1991 1309 1228 531 
z
" transform="scale(0.015625)"/>
       </defs>
       <use xlink:href="#DejaVuSans-4d"/>
       <use xlink:href="#DejaVuSans-58" x="86.279297"/>
       <use xlink:href="#DejaVuSans-66" x="154.785156"/>
       <use xlink:href="#DejaVuSans-6f" x="189.990234"/>
       <use xlink:href="#DejaVuSans-6c" x="251.171875"/>
       <use xlink:href="#DejaVuSans-64" x="278.955078"/>
       <use xlink:href="#DejaVuSans-32" x="342.431641"/>
      </g>
     </g>
    </g>
    <g id="xtick_7">
     <g id="text_7">
      <!-- SQUARNA -->
      <g style="fill: #262626" transform="translate(1039.915 401.177188)scale(0.18 -0.18)">
       <use xlink:href="#DejaVuSans-53"/>
       <use xlink:href="#DejaVuSans-51" x="63.476562"/>
       <use xlink:href="#DejaVuSans-55" x="142.1875"/>
       <use xlink:href="#DejaVuSans-41" x="215.380859"/>
       <use xlink:href="#DejaVuSans-52" x="283.789062"/>
       <use xlink:href="#DejaVuSans-4e" x="353.271484"/>
       <use xlink:href="#DejaVuSans-41" x="428.076172"/>
      </g>
      <!-- top-5 -->
      <g style="fill: #262626" transform="translate(1060.877969 421.33325)scale(0.18 -0.18)">
       <defs>
        <path id="DejaVuSans-35" d="M 691 4666 
L 3169 4666 
L 3169 4134 
L 1269 4134 
L 1269 2991 
Q 1406 3038 1543 3061 
Q 1681 3084 1819 3084 
Q 2600 3084 3056 2656 
Q 3513 2228 3513 1497 
Q 3513 744 3044 326 
Q 2575 -91 1722 -91 
Q 1428 -91 1123 -41 
Q 819 9 494 109 
L 494 744 
Q 775 591 1075 516 
Q 1375 441 1709 441 
Q 2250 441 2565 725 
Q 2881 1009 2881 1497 
Q 2881 1984 2565 2268 
Q 2250 2553 1709 2553 
Q 1456 2553 1204 2497 
Q 953 2441 691 2322 
L 691 4666 
z
" transform="scale(0.015625)"/>
       </defs>
       <use xlink:href="#DejaVuSans-74"/>
       <use xlink:href="#DejaVuSans-6f" x="39.208984"/>
       <use xlink:href="#DejaVuSans-70" x="100.390625"/>
       <use xlink:href="#DejaVuSans-2d" x="163.867188"/>
       <use xlink:href="#DejaVuSans-35" x="199.951172"/>
      </g>
     </g>
    </g>
    <g id="xtick_8">
     <g id="text_8">
      <!-- ShapeKnots -->
      <g style="fill: #262626" transform="translate(1167.486562 401.177188)scale(0.18 -0.18)">
       <use xlink:href="#DejaVuSans-53"/>
       <use xlink:href="#DejaVuSans-68" x="63.476562"/>
       <use xlink:href="#DejaVuSans-61" x="126.855469"/>
       <use xlink:href="#DejaVuSans-70" x="188.134766"/>
       <use xlink:href="#DejaVuSans-65" x="251.611328"/>
       <use xlink:href="#DejaVuSans-4b" x="313.134766"/>
       <use xlink:href="#DejaVuSans-6e" x="378.710938"/>
       <use xlink:href="#DejaVuSans-6f" x="442.089844"/>
       <use xlink:href="#DejaVuSans-74" x="503.271484"/>
       <use xlink:href="#DejaVuSans-73" x="542.480469"/>
      </g>
      <!-- top-5 -->
      <g style="fill: #262626" transform="translate(1197.277969 421.33325)scale(0.18 -0.18)">
       <use xlink:href="#DejaVuSans-74"/>
       <use xlink:href="#DejaVuSans-6f" x="39.208984"/>
       <use xlink:href="#DejaVuSans-70" x="100.390625"/>
       <use xlink:href="#DejaVuSans-2d" x="163.867188"/>
       <use xlink:href="#DejaVuSans-35" x="199.951172"/>
      </g>
     </g>
    </g>
    <g id="xtick_9">
     <g id="text_9">
      <!-- RNAsubopt -->
      <g style="fill: #262626" transform="translate(1307.402188 401.177188)scale(0.18 -0.18)">
       <defs>
        <path id="DejaVuSans-75" d="M 544 1381 
L 544 3500 
L 1119 3500 
L 1119 1403 
Q 1119 906 1312 657 
Q 1506 409 1894 409 
Q 2359 409 2629 706 
Q 2900 1003 2900 1516 
L 2900 3500 
L 3475 3500 
L 3475 0 
L 2900 0 
L 2900 538 
Q 2691 219 2414 64 
Q 2138 -91 1772 -91 
Q 1169 -91 856 284 
Q 544 659 544 1381 
z
M 1991 3584 
L 1991 3584 
z
" transform="scale(0.015625)"/>
        <path id="DejaVuSans-62" d="M 3116 1747 
Q 3116 2381 2855 2742 
Q 2594 3103 2138 3103 
Q 1681 3103 1420 2742 
Q 1159 2381 1159 1747 
Q 1159 1113 1420 752 
Q 1681 391 2138 391 
Q 2594 391 2855 752 
Q 3116 1113 3116 1747 
z
M 1159 2969 
Q 1341 3281 1617 3432 
Q 1894 3584 2278 3584 
Q 2916 3584 3314 3078 
Q 3713 2572 3713 1747 
Q 3713 922 3314 415 
Q 2916 -91 2278 -91 
Q 1894 -91 1617 61 
Q 1341 213 1159 525 
L 1159 0 
L 581 0 
L 581 4863 
L 1159 4863 
L 1159 2969 
z
" transform="scale(0.015625)"/>
       </defs>
       <use xlink:href="#DejaVuSans-52"/>
       <use xlink:href="#DejaVuSans-4e" x="69.482422"/>
       <use xlink:href="#DejaVuSans-41" x="144.287109"/>
       <use xlink:href="#DejaVuSans-73" x="212.695312"/>
       <use xlink:href="#DejaVuSans-75" x="264.794922"/>
       <use xlink:href="#DejaVuSans-62" x="328.173828"/>
       <use xlink:href="#DejaVuSans-6f" x="391.650391"/>
       <use xlink:href="#DejaVuSans-70" x="452.832031"/>
       <use xlink:href="#DejaVuSans-74" x="516.308594"/>
      </g>
      <!-- top-5 -->
      <g style="fill: #262626" transform="translate(1333.677969 421.33325)scale(0.18 -0.18)">
       <use xlink:href="#DejaVuSans-74"/>
       <use xlink:href="#DejaVuSans-6f" x="39.208984"/>
       <use xlink:href="#DejaVuSans-70" x="100.390625"/>
       <use xlink:href="#DejaVuSans-2d" x="163.867188"/>
       <use xlink:href="#DejaVuSans-35" x="199.951172"/>
      </g>
     </g>
    </g>
   </g>
   <g id="matplotlib.axis_2">
    <g id="ytick_1">
     <g id="line2d_1">
      <path d="M 198 378 
L 1425.6 378 
" clip-path="url(#pb5c8b4bbcf)" style="fill: none; stroke: #cccccc; stroke-linecap: round"/>
     </g>
     <g id="text_10">
      <!-- 0.0 -->
      <g style="fill: #262626" transform="translate(166.235625 383.318906)scale(0.14 -0.14)">
       <defs>
        <path id="DejaVuSans-30" d="M 2034 4250 
Q 1547 4250 1301 3770 
Q 1056 3291 1056 2328 
Q 1056 1369 1301 889 
Q 1547 409 2034 409 
Q 2525 409 2770 889 
Q 3016 1369 3016 2328 
Q 3016 3291 2770 3770 
Q 2525 4250 2034 4250 
z
M 2034 4750 
Q 2819 4750 3233 4129 
Q 3647 3509 3647 2328 
Q 3647 1150 3233 529 
Q 2819 -91 2034 -91 
Q 1250 -91 836 529 
Q 422 1150 422 2328 
Q 422 3509 836 4129 
Q 1250 4750 2034 4750 
z
" transform="scale(0.015625)"/>
        <path id="DejaVuSans-2e" d="M 684 794 
L 1344 794 
L 1344 0 
L 684 0 
L 684 794 
z
" transform="scale(0.015625)"/>
       </defs>
       <use xlink:href="#DejaVuSans-30"/>
       <use xlink:href="#DejaVuSans-2e" x="63.623047"/>
       <use xlink:href="#DejaVuSans-30" x="95.410156"/>
      </g>
     </g>
    </g>
    <g id="ytick_2">
     <g id="line2d_2">
      <path d="M 198 312.768 
L 1425.6 312.768 
" clip-path="url(#pb5c8b4bbcf)" style="fill: none; stroke: #cccccc; stroke-linecap: round"/>
     </g>
     <g id="text_11">
      <!-- 0.2 -->
      <g style="fill: #262626" transform="translate(166.235625 318.086906)scale(0.14 -0.14)">
       <use xlink:href="#DejaVuSans-30"/>
       <use xlink:href="#DejaVuSans-2e" x="63.623047"/>
       <use xlink:href="#DejaVuSans-32" x="95.410156"/>
      </g>
     </g>
    </g>
    <g id="ytick_3">
     <g id="line2d_3">
      <path d="M 198 247.536 
L 1425.6 247.536 
" clip-path="url(#pb5c8b4bbcf)" style="fill: none; stroke: #cccccc; stroke-linecap: round"/>
     </g>
     <g id="text_12">
      <!-- 0.4 -->
      <g style="fill: #262626" transform="translate(166.235625 252.854906)scale(0.14 -0.14)">
       <defs>
        <path id="DejaVuSans-34" d="M 2419 4116 
L 825 1625 
L 2419 1625 
L 2419 4116 
z
M 2253 4666 
L 3047 4666 
L 3047 1625 
L 3713 1625 
L 3713 1100 
L 3047 1100 
L 3047 0 
L 2419 0 
L 2419 1100 
L 313 1100 
L 313 1709 
L 2253 4666 
z
" transform="scale(0.015625)"/>
       </defs>
       <use xlink:href="#DejaVuSans-30"/>
       <use xlink:href="#DejaVuSans-2e" x="63.623047"/>
       <use xlink:href="#DejaVuSans-34" x="95.410156"/>
      </g>
     </g>
    </g>
    <g id="ytick_4">
     <g id="line2d_4">
      <path d="M 198 182.304 
L 1425.6 182.304 
" clip-path="url(#pb5c8b4bbcf)" style="fill: none; stroke: #cccccc; stroke-linecap: round"/>
     </g>
     <g id="text_13">
      <!-- 0.6 -->
      <g style="fill: #262626" transform="translate(166.235625 187.622906)scale(0.14 -0.14)">
       <defs>
        <path id="DejaVuSans-36" d="M 2113 2584 
Q 1688 2584 1439 2293 
Q 1191 2003 1191 1497 
Q 1191 994 1439 701 
Q 1688 409 2113 409 
Q 2538 409 2786 701 
Q 3034 994 3034 1497 
Q 3034 2003 2786 2293 
Q 2538 2584 2113 2584 
z
M 3366 4563 
L 3366 3988 
Q 3128 4100 2886 4159 
Q 2644 4219 2406 4219 
Q 1781 4219 1451 3797 
Q 1122 3375 1075 2522 
Q 1259 2794 1537 2939 
Q 1816 3084 2150 3084 
Q 2853 3084 3261 2657 
Q 3669 2231 3669 1497 
Q 3669 778 3244 343 
Q 2819 -91 2113 -91 
Q 1303 -91 875 529 
Q 447 1150 447 2328 
Q 447 3434 972 4092 
Q 1497 4750 2381 4750 
Q 2619 4750 2861 4703 
Q 3103 4656 3366 4563 
z
" transform="scale(0.015625)"/>
       </defs>
       <use xlink:href="#DejaVuSans-30"/>
       <use xlink:href="#DejaVuSans-2e" x="63.623047"/>
       <use xlink:href="#DejaVuSans-36" x="95.410156"/>
      </g>
     </g>
    </g>
    <g id="ytick_5">
     <g id="line2d_5">
      <path d="M 198 117.072 
L 1425.6 117.072 
" clip-path="url(#pb5c8b4bbcf)" style="fill: none; stroke: #cccccc; stroke-linecap: round"/>
     </g>
     <g id="text_14">
      <!-- 0.8 -->
      <g style="fill: #262626" transform="translate(166.235625 122.390906)scale(0.14 -0.14)">
       <defs>
        <path id="DejaVuSans-38" d="M 2034 2216 
Q 1584 2216 1326 1975 
Q 1069 1734 1069 1313 
Q 1069 891 1326 650 
Q 1584 409 2034 409 
Q 2484 409 2743 651 
Q 3003 894 3003 1313 
Q 3003 1734 2745 1975 
Q 2488 2216 2034 2216 
z
M 1403 2484 
Q 997 2584 770 2862 
Q 544 3141 544 3541 
Q 544 4100 942 4425 
Q 1341 4750 2034 4750 
Q 2731 4750 3128 4425 
Q 3525 4100 3525 3541 
Q 3525 3141 3298 2862 
Q 3072 2584 2669 2484 
Q 3125 2378 3379 2068 
Q 3634 1759 3634 1313 
Q 3634 634 3220 271 
Q 2806 -91 2034 -91 
Q 1263 -91 848 271 
Q 434 634 434 1313 
Q 434 1759 690 2068 
Q 947 2378 1403 2484 
z
M 1172 3481 
Q 1172 3119 1398 2916 
Q 1625 2713 2034 2713 
Q 2441 2713 2670 2916 
Q 2900 3119 2900 3481 
Q 2900 3844 2670 4047 
Q 2441 4250 2034 4250 
Q 1625 4250 1398 4047 
Q 1172 3844 1172 3481 
z
" transform="scale(0.015625)"/>
       </defs>
       <use xlink:href="#DejaVuSans-30"/>
       <use xlink:href="#DejaVuSans-2e" x="63.623047"/>
       <use xlink:href="#DejaVuSans-38" x="95.410156"/>
      </g>
     </g>
    </g>
    <g id="ytick_6">
     <g id="line2d_6">
      <path d="M 198 51.84 
L 1425.6 51.84 
" clip-path="url(#pb5c8b4bbcf)" style="fill: none; stroke: #cccccc; stroke-linecap: round"/>
     </g>
     <g id="text_15">
      <!-- 1.0 -->
      <g style="fill: #262626" transform="translate(166.235625 57.158906)scale(0.14 -0.14)">
       <defs>
        <path id="DejaVuSans-31" d="M 794 531 
L 1825 531 
L 1825 4091 
L 703 3866 
L 703 4441 
L 1819 4666 
L 2450 4666 
L 2450 531 
L 3481 531 
L 3481 0 
L 794 0 
L 794 531 
z
" transform="scale(0.015625)"/>
       </defs>
       <use xlink:href="#DejaVuSans-31"/>
       <use xlink:href="#DejaVuSans-2e" x="63.623047"/>
       <use xlink:href="#DejaVuSans-30" x="95.410156"/>
      </g>
     </g>
    </g>
    <g id="text_16">
     <!-- F-score -->
     <g style="fill: #262626" transform="translate(158.07625 251.145)rotate(-90)scale(0.2 -0.2)">
      <defs>
       <path id="DejaVuSans-46" d="M 628 4666 
L 3309 4666 
L 3309 4134 
L 1259 4134 
L 1259 2759 
L 3109 2759 
L 3109 2228 
L 1259 2228 
L 1259 0 
L 628 0 
L 628 4666 
z
" transform="scale(0.015625)"/>
       <path id="DejaVuSans-63" d="M 3122 3366 
L 3122 2828 
Q 2878 2963 2633 3030 
Q 2388 3097 2138 3097 
Q 1578 3097 1268 2742 
Q 959 2388 959 1747 
Q 959 1106 1268 751 
Q 1578 397 2138 397 
Q 2388 397 2633 464 
Q 2878 531 3122 666 
L 3122 134 
Q 2881 22 2623 -34 
Q 2366 -91 2075 -91 
Q 1284 -91 818 406 
Q 353 903 353 1747 
Q 353 2603 823 3093 
Q 1294 3584 2113 3584 
Q 2378 3584 2631 3529 
Q 2884 3475 3122 3366 
z
" transform="scale(0.015625)"/>
       <path id="DejaVuSans-72" d="M 2631 2963 
Q 2534 3019 2420 3045 
Q 2306 3072 2169 3072 
Q 1681 3072 1420 2755 
Q 1159 2438 1159 1844 
L 1159 0 
L 581 0 
L 581 3500 
L 1159 3500 
L 1159 2956 
Q 1341 3275 1631 3429 
Q 1922 3584 2338 3584 
Q 2397 3584 2469 3576 
Q 2541 3569 2628 3553 
L 2631 2963 
z
" transform="scale(0.015625)"/>
      </defs>
      <use xlink:href="#DejaVuSans-46"/>
      <use xlink:href="#DejaVuSans-2d" x="57.519531"/>
      <use xlink:href="#DejaVuSans-73" x="93.603516"/>
      <use xlink:href="#DejaVuSans-63" x="145.703125"/>
      <use xlink:href="#DejaVuSans-6f" x="200.683594"/>
      <use xlink:href="#DejaVuSans-72" x="261.865234"/>
      <use xlink:href="#DejaVuSans-65" x="300.728516"/>
     </g>
    </g>
   </g>
   <g id="PolyCollection_1">
    <defs>
     <path id="m08298deb9d" d="M 270.348987 -54 
L 262.051013 -54 
L 262.036893 -57.294545 
L 262.068553 -60.589091 
L 262.142525 -63.883636 
L 262.253569 -67.178182 
L 262.39501 -70.472727 
L 262.559164 -73.767273 
L 262.737815 -77.061818 
L 262.922706 -80.356364 
L 263.105999 -83.650909 
L 263.28067 -86.945455 
L 263.440822 -90.24 
L 263.581879 -93.534545 
L 263.700678 -96.829091 
L 263.795445 -100.123636 
L 263.865677 -103.418182 
L 263.911952 -106.712727 
L 263.935682 -110.007273 
L 263.938847 -113.301818 
L 263.92372 -116.596364 
L 263.892621 -119.890909 
L 263.847702 -123.185455 
L 263.790775 -126.48 
L 263.723201 -129.774545 
L 263.645828 -133.069091 
L 263.558972 -136.363636 
L 263.462453 -139.658182 
L 263.355645 -142.952727 
L 263.23757 -146.247273 
L 263.106989 -149.541818 
L 262.962506 -152.836364 
L 262.802669 -156.130909 
L 262.626062 -159.425455 
L 262.431388 -162.72 
L 262.217539 -166.014545 
L 261.983652 -169.309091 
L 261.729157 -172.603636 
L 261.453809 -175.898182 
L 261.157716 -179.192727 
L 260.841357 -182.487273 
L 260.505595 -185.781818 
L 260.151682 -189.076364 
L 259.781261 -192.370909 
L 259.396354 -195.665455 
L 258.999346 -198.96 
L 258.592951 -202.254545 
L 258.180166 -205.549091 
L 257.764211 -208.843636 
L 257.348443 -212.138182 
L 256.936262 -215.432727 
L 256.530996 -218.727273 
L 256.135777 -222.021818 
L 255.753402 -225.316364 
L 255.386203 -228.610909 
L 255.035913 -231.905455 
L 254.703548 -235.2 
L 254.389308 -238.494545 
L 254.092509 -241.789091 
L 253.811538 -245.083636 
L 253.543859 -248.378182 
L 253.286044 -251.672727 
L 253.033849 -254.967273 
L 252.782326 -258.261818 
L 252.52596 -261.556364 
L 252.258822 -264.850909 
L 251.974743 -268.145455 
L 251.667475 -271.44 
L 251.330852 -274.734545 
L 250.958928 -278.029091 
L 250.546096 -281.323636 
L 250.087177 -284.618182 
L 249.577502 -287.912727 
L 249.012966 -291.207273 
L 248.390085 -294.501818 
L 247.706062 -297.796364 
L 246.958875 -301.090909 
L 246.147385 -304.385455 
L 245.271505 -307.68 
L 244.332389 -310.974545 
L 243.332692 -314.269091 
L 242.276843 -317.563636 
L 241.171362 -320.858182 
L 240.025172 -324.152727 
L 238.849891 -327.447273 
L 237.660072 -330.741818 
L 236.473357 -334.036364 
L 235.310496 -337.330909 
L 234.195204 -340.625455 
L 233.153823 -343.92 
L 232.214751 -347.214545 
L 231.407643 -350.509091 
L 230.762383 -353.803636 
L 230.30786 -357.098182 
L 230.070592 -360.392727 
L 230.073288 -363.687273 
L 230.333435 -366.981818 
L 230.862014 -370.276364 
L 231.662461 -373.570909 
L 232.729975 -376.865455 
L 234.05125 -380.16 
L 298.34875 -380.16 
L 298.34875 -380.16 
L 299.670025 -376.865455 
L 300.737539 -373.570909 
L 301.537986 -370.276364 
L 302.066565 -366.981818 
L 302.326712 -363.687273 
L 302.329408 -360.392727 
L 302.09214 -357.098182 
L 301.637617 -353.803636 
L 300.992357 -350.509091 
L 300.185249 -347.214545 
L 299.246177 -343.92 
L 298.204796 -340.625455 
L 297.089504 -337.330909 
L 295.926643 -334.036364 
L 294.739928 -330.741818 
L 293.550109 -327.447273 
L 292.374828 -324.152727 
L 291.228638 -320.858182 
L 290.123157 -317.563636 
L 289.067308 -314.269091 
L 288.067611 -310.974545 
L 287.128495 -307.68 
L 286.252615 -304.385455 
L 285.441125 -301.090909 
L 284.693938 -297.796364 
L 284.009915 -294.501818 
L 283.387034 -291.207273 
L 282.822498 -287.912727 
L 282.312823 -284.618182 
L 281.853904 -281.323636 
L 281.441072 -278.029091 
L 281.069148 -274.734545 
L 280.732525 -271.44 
L 280.425257 -268.145455 
L 280.141178 -264.850909 
L 279.87404 -261.556364 
L 279.617674 -258.261818 
L 279.366151 -254.967273 
L 279.113956 -251.672727 
L 278.856141 -248.378182 
L 278.588462 -245.083636 
L 278.307491 -241.789091 
L 278.010692 -238.494545 
L 277.696452 -235.2 
L 277.364087 -231.905455 
L 277.013797 -228.610909 
L 276.646598 -225.316364 
L 276.264223 -222.021818 
L 275.869004 -218.727273 
L 275.463738 -215.432727 
L 275.051557 -212.138182 
L 274.635789 -208.843636 
L 274.219834 -205.549091 
L 273.807049 -202.254545 
L 273.400654 -198.96 
L 273.003646 -195.665455 
L 272.618739 -192.370909 
L 272.248318 -189.076364 
L 271.894405 -185.781818 
L 271.558643 -182.487273 
L 271.242284 -179.192727 
L 270.946191 -175.898182 
L 270.670843 -172.603636 
L 270.416348 -169.309091 
L 270.182461 -166.014545 
L 269.968612 -162.72 
L 269.773938 -159.425455 
L 269.597331 -156.130909 
L 269.437494 -152.836364 
L 269.293011 -149.541818 
L 269.16243 -146.247273 
L 269.044355 -142.952727 
L 268.937547 -139.658182 
L 268.841028 -136.363636 
L 268.754172 -133.069091 
L 268.676799 -129.774545 
L 268.609225 -126.48 
L 268.552298 -123.185455 
L 268.507379 -119.890909 
L 268.47628 -116.596364 
L 268.461153 -113.301818 
L 268.464318 -110.007273 
L 268.488048 -106.712727 
L 268.534323 -103.418182 
L 268.604555 -100.123636 
L 268.699322 -96.829091 
L 268.818121 -93.534545 
L 268.959178 -90.24 
L 269.11933 -86.945455 
L 269.294001 -83.650909 
L 269.477294 -80.356364 
L 269.662185 -77.061818 
L 269.840836 -73.767273 
L 270.00499 -70.472727 
L 270.146431 -67.178182 
L 270.257475 -63.883636 
L 270.331447 -60.589091 
L 270.363107 -57.294545 
L 270.348987 -54 
z
" style="stroke: #7f7f7f; stroke-width: 3"/>
    </defs>
    <g clip-path="url(#pb5c8b4bbcf)">
     <use xlink:href="#m08298deb9d" x="0" y="432" style="fill: #d3d3d3; stroke: #7f7f7f; stroke-width: 3"/>
    </g>
   </g>
   <g id="PolyCollection_2">
    <defs>
     <path id="m99aa0cad13" d="M 409.027759 -54 
L 396.172241 -54 
L 396.159549 -57.294545 
L 396.204306 -60.589091 
L 396.303878 -63.883636 
L 396.453969 -67.178182 
L 396.648831 -70.472727 
L 396.881534 -73.767273 
L 397.144284 -77.061818 
L 397.428771 -80.356364 
L 397.726514 -83.650909 
L 398.029198 -86.945455 
L 398.328977 -90.24 
L 398.618724 -93.534545 
L 398.892225 -96.829091 
L 399.144313 -100.123636 
L 399.370927 -103.418182 
L 399.569118 -106.712727 
L 399.736998 -110.007273 
L 399.873639 -113.301818 
L 399.978951 -116.596364 
L 400.053522 -119.890909 
L 400.098465 -123.185455 
L 400.115256 -126.48 
L 400.105589 -129.774545 
L 400.071253 -133.069091 
L 400.014024 -136.363636 
L 399.935596 -139.658182 
L 399.837538 -142.952727 
L 399.721271 -146.247273 
L 399.588079 -149.541818 
L 399.439138 -152.836364 
L 399.275552 -156.130909 
L 399.098408 -159.425455 
L 398.908824 -162.72 
L 398.707997 -166.014545 
L 398.497239 -169.309091 
L 398.277998 -172.603636 
L 398.05186 -175.898182 
L 397.820536 -179.192727 
L 397.585828 -182.487273 
L 397.349569 -185.781818 
L 397.113564 -189.076364 
L 396.879509 -192.370909 
L 396.648912 -195.665455 
L 396.42301 -198.96 
L 396.202707 -202.254545 
L 395.988507 -205.549091 
L 395.780482 -208.843636 
L 395.57825 -212.138182 
L 395.380978 -215.432727 
L 395.18741 -218.727273 
L 394.995909 -222.021818 
L 394.804517 -225.316364 
L 394.611025 -228.610909 
L 394.413044 -231.905455 
L 394.208075 -235.2 
L 393.993572 -238.494545 
L 393.766987 -241.789091 
L 393.525797 -245.083636 
L 393.267519 -248.378182 
L 392.989691 -251.672727 
L 392.689851 -254.967273 
L 392.365486 -258.261818 
L 392.013992 -261.556364 
L 391.632615 -264.850909 
L 391.218409 -268.145455 
L 390.768215 -271.44 
L 390.278647 -274.734545 
L 389.746131 -278.029091 
L 389.166958 -281.323636 
L 388.537398 -284.618182 
L 387.853841 -287.912727 
L 387.112987 -291.207273 
L 386.312069 -294.501818 
L 385.449109 -297.796364 
L 384.523195 -301.090909 
L 383.53477 -304.385455 
L 382.485915 -307.68 
L 381.380618 -310.974545 
L 380.225007 -314.269091 
L 379.027534 -317.563636 
L 377.799097 -320.858182 
L 376.553079 -324.152727 
L 375.305291 -327.447273 
L 374.073816 -330.741818 
L 372.878744 -334.036364 
L 371.741787 -337.330909 
L 370.685791 -340.625455 
L 369.734145 -343.92 
L 368.910101 -347.214545 
L 368.236032 -350.509091 
L 367.732652 -353.803636 
L 367.418226 -357.098182 
L 367.307819 -360.392727 
L 367.412607 -363.687273 
L 367.739302 -366.981818 
L 368.28972 -370.276364 
L 369.06052 -373.570909 
L 370.043147 -376.865455 
L 371.223979 -380.16 
L 433.976021 -380.16 
L 433.976021 -380.16 
L 435.156853 -376.865455 
L 436.13948 -373.570909 
L 436.91028 -370.276364 
L 437.460698 -366.981818 
L 437.787393 -363.687273 
L 437.892181 -360.392727 
L 437.781774 -357.098182 
L 437.467348 -353.803636 
L 436.963968 -350.509091 
L 436.289899 -347.214545 
L 435.465855 -343.92 
L 434.514209 -340.625455 
L 433.458213 -337.330909 
L 432.321256 -334.036364 
L 431.126184 -330.741818 
L 429.894709 -327.447273 
L 428.646921 -324.152727 
L 427.400903 -320.858182 
L 426.172466 -317.563636 
L 424.974993 -314.269091 
L 423.819382 -310.974545 
L 422.714085 -307.68 
L 421.66523 -304.385455 
L 420.676805 -301.090909 
L 419.750891 -297.796364 
L 418.887931 -294.501818 
L 418.087013 -291.207273 
L 417.346159 -287.912727 
L 416.662602 -284.618182 
L 416.033042 -281.323636 
L 415.453869 -278.029091 
L 414.921353 -274.734545 
L 414.431785 -271.44 
L 413.981591 -268.145455 
L 413.567385 -264.850909 
L 413.186008 -261.556364 
L 412.834514 -258.261818 
L 412.510149 -254.967273 
L 412.210309 -251.672727 
L 411.932481 -248.378182 
L 411.674203 -245.083636 
L 411.433013 -241.789091 
L 411.206428 -238.494545 
L 410.991925 -235.2 
L 410.786956 -231.905455 
L 410.588975 -228.610909 
L 410.395483 -225.316364 
L 410.204091 -222.021818 
L 410.01259 -218.727273 
L 409.819022 -215.432727 
L 409.62175 -212.138182 
L 409.419518 -208.843636 
L 409.211493 -205.549091 
L 408.997293 -202.254545 
L 408.77699 -198.96 
L 408.551088 -195.665455 
L 408.320491 -192.370909 
L 408.086436 -189.076364 
L 407.850431 -185.781818 
L 407.614172 -182.487273 
L 407.379464 -179.192727 
L 407.14814 -175.898182 
L 406.922002 -172.603636 
L 406.702761 -169.309091 
L 406.492003 -166.014545 
L 406.291176 -162.72 
L 406.101592 -159.425455 
L 405.924448 -156.130909 
L 405.760862 -152.836364 
L 405.611921 -149.541818 
L 405.478729 -146.247273 
L 405.362462 -142.952727 
L 405.264404 -139.658182 
L 405.185976 -136.363636 
L 405.128747 -133.069091 
L 405.094411 -129.774545 
L 405.084744 -126.48 
L 405.101535 -123.185455 
L 405.146478 -119.890909 
L 405.221049 -116.596364 
L 405.326361 -113.301818 
L 405.463002 -110.007273 
L 405.630882 -106.712727 
L 405.829073 -103.418182 
L 406.055687 -100.123636 
L 406.307775 -96.829091 
L 406.581276 -93.534545 
L 406.871023 -90.24 
L 407.170802 -86.945455 
L 407.473486 -83.650909 
L 407.771229 -80.356364 
L 408.055716 -77.061818 
L 408.318466 -73.767273 
L 408.551169 -70.472727 
L 408.746031 -67.178182 
L 408.896122 -63.883636 
L 408.995694 -60.589091 
L 409.040451 -57.294545 
L 409.027759 -54 
z
" style="stroke: #7f7f7f; stroke-width: 3"/>
    </defs>
    <g clip-path="url(#pb5c8b4bbcf)">
     <use xlink:href="#m99aa0cad13" x="0" y="432" style="fill: #d3d3d3; stroke: #7f7f7f; stroke-width: 3"/>
    </g>
   </g>
   <g id="PolyCollection_3">
    <defs>
     <path id="m1bb6b6a3a0" d="M 545.741114 -54 
L 532.258886 -54 
L 532.246498 -57.294545 
L 532.291475 -60.589091 
L 532.391205 -63.883636 
L 532.541471 -67.178182 
L 532.736639 -70.472727 
L 532.969907 -73.767273 
L 533.233599 -77.061818 
L 533.519492 -80.356364 
L 533.819142 -83.650909 
L 534.124217 -86.945455 
L 534.426782 -90.24 
L 534.71957 -93.534545 
L 534.996177 -96.829091 
L 535.251224 -100.123636 
L 535.480442 -103.418182 
L 535.680709 -106.712727 
L 535.850029 -110.007273 
L 535.987471 -113.301818 
L 536.093059 -116.596364 
L 536.167648 -119.890909 
L 536.21277 -123.185455 
L 536.230475 -126.48 
L 536.223178 -129.774545 
L 536.193506 -133.069091 
L 536.14416 -136.363636 
L 536.077796 -139.658182 
L 535.996931 -142.952727 
L 535.903861 -146.247273 
L 535.800611 -149.541818 
L 535.6889 -152.836364 
L 535.570131 -156.130909 
L 535.445395 -159.425455 
L 535.31549 -162.72 
L 535.18095 -166.014545 
L 535.042082 -169.309091 
L 534.899015 -172.603636 
L 534.751731 -175.898182 
L 534.60012 -179.192727 
L 534.444006 -182.487273 
L 534.283187 -185.781818 
L 534.117453 -189.076364 
L 533.946609 -192.370909 
L 533.770476 -195.665455 
L 533.588895 -198.96 
L 533.401723 -202.254545 
L 533.208816 -205.549091 
L 533.010018 -208.843636 
L 532.805137 -212.138182 
L 532.59393 -215.432727 
L 532.376081 -218.727273 
L 532.151185 -222.021818 
L 531.918729 -225.316364 
L 531.678079 -228.610909 
L 531.428471 -231.905455 
L 531.168996 -235.2 
L 530.898595 -238.494545 
L 530.616051 -241.789091 
L 530.319976 -245.083636 
L 530.008808 -248.378182 
L 529.680796 -251.672727 
L 529.333994 -254.967273 
L 528.966251 -258.261818 
L 528.575207 -261.556364 
L 528.158291 -264.850909 
L 527.712733 -268.145455 
L 527.235581 -271.44 
L 526.723737 -274.734545 
L 526.17401 -278.029091 
L 525.583189 -281.323636 
L 524.948141 -284.618182 
L 524.265924 -287.912727 
L 523.533939 -291.207273 
L 522.750089 -294.501818 
L 521.912965 -297.796364 
L 521.022046 -301.090909 
L 520.077909 -304.385455 
L 519.082443 -307.68 
L 518.03905 -310.974545 
L 516.952838 -314.269091 
L 515.830785 -317.563636 
L 514.681863 -320.858182 
L 513.517106 -324.152727 
L 512.349626 -327.447273 
L 511.194541 -330.741818 
L 510.068823 -334.036364 
L 508.991054 -337.330909 
L 507.981077 -340.625455 
L 507.059558 -343.92 
L 506.247451 -347.214545 
L 505.565386 -350.509091 
L 505.032996 -353.803636 
L 504.66821 -357.098182 
L 504.486543 -360.392727 
L 504.500417 -363.687273 
L 504.718549 -366.981818 
L 505.145447 -370.276364 
L 505.781045 -373.570909 
L 506.620505 -376.865455 
L 507.654208 -380.16 
L 570.345792 -380.16 
L 570.345792 -380.16 
L 571.379495 -376.865455 
L 572.218955 -373.570909 
L 572.854553 -370.276364 
L 573.281451 -366.981818 
L 573.499583 -363.687273 
L 573.513457 -360.392727 
L 573.33179 -357.098182 
L 572.967004 -353.803636 
L 572.434614 -350.509091 
L 571.752549 -347.214545 
L 570.940442 -343.92 
L 570.018923 -340.625455 
L 569.008946 -337.330909 
L 567.931177 -334.036364 
L 566.805459 -330.741818 
L 565.650374 -327.447273 
L 564.482894 -324.152727 
L 563.318137 -320.858182 
L 562.169215 -317.563636 
L 561.047162 -314.269091 
L 559.96095 -310.974545 
L 558.917557 -307.68 
L 557.922091 -304.385455 
L 556.977954 -301.090909 
L 556.087035 -297.796364 
L 555.249911 -294.501818 
L 554.466061 -291.207273 
L 553.734076 -287.912727 
L 553.051859 -284.618182 
L 552.416811 -281.323636 
L 551.82599 -278.029091 
L 551.276263 -274.734545 
L 550.764419 -271.44 
L 550.287267 -268.145455 
L 549.841709 -264.850909 
L 549.424793 -261.556364 
L 549.033749 -258.261818 
L 548.666006 -254.967273 
L 548.319204 -251.672727 
L 547.991192 -248.378182 
L 547.680024 -245.083636 
L 547.383949 -241.789091 
L 547.101405 -238.494545 
L 546.831004 -235.2 
L 546.571529 -231.905455 
L 546.321921 -228.610909 
L 546.081271 -225.316364 
L 545.848815 -222.021818 
L 545.623919 -218.727273 
L 545.40607 -215.432727 
L 545.194863 -212.138182 
L 544.989982 -208.843636 
L 544.791184 -205.549091 
L 544.598277 -202.254545 
L 544.411105 -198.96 
L 544.229524 -195.665455 
L 544.053391 -192.370909 
L 543.882547 -189.076364 
L 543.716813 -185.781818 
L 543.555994 -182.487273 
L 543.39988 -179.192727 
L 543.248269 -175.898182 
L 543.100985 -172.603636 
L 542.957918 -169.309091 
L 542.81905 -166.014545 
L 542.68451 -162.72 
L 542.554605 -159.425455 
L 542.429869 -156.130909 
L 542.3111 -152.836364 
L 542.199389 -149.541818 
L 542.096139 -146.247273 
L 542.003069 -142.952727 
L 541.922204 -139.658182 
L 541.85584 -136.363636 
L 541.806494 -133.069091 
L 541.776822 -129.774545 
L 541.769525 -126.48 
L 541.78723 -123.185455 
L 541.832352 -119.890909 
L 541.906941 -116.596364 
L 542.012529 -113.301818 
L 542.149971 -110.007273 
L 542.319291 -106.712727 
L 542.519558 -103.418182 
L 542.748776 -100.123636 
L 543.003823 -96.829091 
L 543.28043 -93.534545 
L 543.573218 -90.24 
L 543.875783 -86.945455 
L 544.180858 -83.650909 
L 544.480508 -80.356364 
L 544.766401 -77.061818 
L 545.030093 -73.767273 
L 545.263361 -70.472727 
L 545.458529 -67.178182 
L 545.608795 -63.883636 
L 545.708525 -60.589091 
L 545.753502 -57.294545 
L 545.741114 -54 
z
" style="stroke: #7f7f7f; stroke-width: 3"/>
    </defs>
    <g clip-path="url(#pb5c8b4bbcf)">
     <use xlink:href="#m1bb6b6a3a0" x="0" y="432" style="fill: #d3d3d3; stroke: #7f7f7f; stroke-width: 3"/>
    </g>
   </g>
   <g id="PolyCollection_4">
    <defs>
     <path id="m0a76420d01" d="M 680.158845 -54 
L 670.641155 -54 
L 670.622506 -57.294545 
L 670.654584 -60.589091 
L 670.733838 -63.883636 
L 670.854861 -67.178182 
L 671.010741 -70.472727 
L 671.193496 -73.767273 
L 671.394568 -77.061818 
L 671.605328 -80.356364 
L 671.817551 -83.650909 
L 672.023832 -86.945455 
L 672.217921 -90.24 
L 672.394937 -93.534545 
L 672.551477 -96.829091 
L 672.685617 -100.123636 
L 672.796797 -103.418182 
L 672.88564 -106.712727 
L 672.953698 -110.007273 
L 673.003167 -113.301818 
L 673.036585 -116.596364 
L 673.056541 -119.890909 
L 673.065415 -123.185455 
L 673.065151 -126.48 
L 673.057092 -129.774545 
L 673.041862 -133.069091 
L 673.019316 -136.363636 
L 672.988543 -139.658182 
L 672.947922 -142.952727 
L 672.895228 -146.247273 
L 672.827771 -149.541818 
L 672.742574 -152.836364 
L 672.636563 -156.130909 
L 672.50677 -159.425455 
L 672.350532 -162.72 
L 672.165686 -166.014545 
L 671.950731 -169.309091 
L 671.704967 -172.603636 
L 671.428589 -175.898182 
L 671.122741 -179.192727 
L 670.789511 -182.487273 
L 670.43188 -185.781818 
L 670.05362 -189.076364 
L 669.659136 -192.370909 
L 669.253278 -195.665455 
L 668.841108 -198.96 
L 668.427654 -202.254545 
L 668.017648 -205.549091 
L 667.615271 -208.843636 
L 667.223918 -212.138182 
L 666.845987 -215.432727 
L 666.482717 -218.727273 
L 666.134079 -222.021818 
L 665.798727 -225.316364 
L 665.474016 -228.610909 
L 665.156091 -231.905455 
L 664.840039 -235.2 
L 664.520101 -238.494545 
L 664.189941 -241.789091 
L 663.842944 -245.083636 
L 663.472547 -248.378182 
L 663.072564 -251.672727 
L 662.637508 -254.967273 
L 662.162867 -258.261818 
L 661.645339 -261.556364 
L 661.082993 -264.850909 
L 660.475354 -268.145455 
L 659.823403 -271.44 
L 659.129489 -274.734545 
L 658.39716 -278.029091 
L 657.63093 -281.323636 
L 656.835991 -284.618182 
L 656.017894 -287.912727 
L 655.182233 -291.207273 
L 654.334351 -294.501818 
L 653.479088 -297.796364 
L 652.620612 -301.090909 
L 651.762333 -304.385455 
L 650.906926 -307.68 
L 650.056457 -310.974545 
L 649.212621 -314.269091 
L 648.37707 -317.563636 
L 647.551826 -320.858182 
L 646.73973 -324.152727 
L 645.944929 -327.447273 
L 645.173321 -330.741818 
L 644.432952 -334.036364 
L 643.734299 -337.330909 
L 643.090403 -340.625455 
L 642.516817 -343.92 
L 642.031333 -347.214545 
L 641.653481 -350.509091 
L 641.403798 -353.803636 
L 641.302879 -357.098182 
L 641.370275 -360.392727 
L 641.623283 -363.687273 
L 642.075712 -366.981818 
L 642.736732 -370.276364 
L 643.609886 -373.570909 
L 644.692376 -376.865455 
L 645.974676 -380.16 
L 704.825324 -380.16 
L 704.825324 -380.16 
L 706.107624 -376.865455 
L 707.190114 -373.570909 
L 708.063268 -370.276364 
L 708.724288 -366.981818 
L 709.176717 -363.687273 
L 709.429725 -360.392727 
L 709.497121 -357.098182 
L 709.396202 -353.803636 
L 709.146519 -350.509091 
L 708.768667 -347.214545 
L 708.283183 -343.92 
L 707.709597 -340.625455 
L 707.065701 -337.330909 
L 706.367048 -334.036364 
L 705.626679 -330.741818 
L 704.855071 -327.447273 
L 704.06027 -324.152727 
L 703.248174 -320.858182 
L 702.42293 -317.563636 
L 701.587379 -314.269091 
L 700.743543 -310.974545 
L 699.893074 -307.68 
L 699.037667 -304.385455 
L 698.179388 -301.090909 
L 697.320912 -297.796364 
L 696.465649 -294.501818 
L 695.617767 -291.207273 
L 694.782106 -287.912727 
L 693.964009 -284.618182 
L 693.16907 -281.323636 
L 692.40284 -278.029091 
L 691.670511 -274.734545 
L 690.976597 -271.44 
L 690.324646 -268.145455 
L 689.717007 -264.850909 
L 689.154661 -261.556364 
L 688.637133 -258.261818 
L 688.162492 -254.967273 
L 687.727436 -251.672727 
L 687.327453 -248.378182 
L 686.957056 -245.083636 
L 686.610059 -241.789091 
L 686.279899 -238.494545 
L 685.959961 -235.2 
L 685.643909 -231.905455 
L 685.325984 -228.610909 
L 685.001273 -225.316364 
L 684.665921 -222.021818 
L 684.317283 -218.727273 
L 683.954013 -215.432727 
L 683.576082 -212.138182 
L 683.184729 -208.843636 
L 682.782352 -205.549091 
L 682.372346 -202.254545 
L 681.958892 -198.96 
L 681.546722 -195.665455 
L 681.140864 -192.370909 
L 680.74638 -189.076364 
L 680.36812 -185.781818 
L 680.010489 -182.487273 
L 679.677259 -179.192727 
L 679.371411 -175.898182 
L 679.095033 -172.603636 
L 678.849269 -169.309091 
L 678.634314 -166.014545 
L 678.449468 -162.72 
L 678.29323 -159.425455 
L 678.163437 -156.130909 
L 678.057426 -152.836364 
L 677.972229 -149.541818 
L 677.904772 -146.247273 
L 677.852078 -142.952727 
L 677.811457 -139.658182 
L 677.780684 -136.363636 
L 677.758138 -133.069091 
L 677.742908 -129.774545 
L 677.734849 -126.48 
L 677.734585 -123.185455 
L 677.743459 -119.890909 
L 677.763415 -116.596364 
L 677.796833 -113.301818 
L 677.846302 -110.007273 
L 677.91436 -106.712727 
L 678.003203 -103.418182 
L 678.114383 -100.123636 
L 678.248523 -96.829091 
L 678.405063 -93.534545 
L 678.582079 -90.24 
L 678.776168 -86.945455 
L 678.982449 -83.650909 
L 679.194672 -80.356364 
L 679.405432 -77.061818 
L 679.606504 -73.767273 
L 679.789259 -70.472727 
L 679.945139 -67.178182 
L 680.066162 -63.883636 
L 680.145416 -60.589091 
L 680.177494 -57.294545 
L 680.158845 -54 
z
" style="stroke: #7f7f7f; stroke-width: 3"/>
    </defs>
    <g clip-path="url(#pb5c8b4bbcf)">
     <use xlink:href="#m0a76420d01" x="0" y="432" style="fill: #d3d3d3; stroke: #7f7f7f; stroke-width: 3"/>
    </g>
   </g>
   <g id="PolyCollection_5">
    <defs>
     <path id="mcc7486bbed" d="M 815.371333 -54 
L 808.228667 -54 
L 808.238874 -57.294545 
L 808.298322 -60.589091 
L 808.402287 -63.883636 
L 808.54381 -67.178182 
L 808.7142 -70.472727 
L 808.90366 -73.767273 
L 809.101974 -77.061818 
L 809.299189 -80.356364 
L 809.486245 -83.650909 
L 809.655484 -86.945455 
L 809.801012 -90.24 
L 809.918902 -93.534545 
L 810.00722 -96.829091 
L 810.065912 -100.123636 
L 810.096551 -103.418182 
L 810.102004 -106.712727 
L 810.086047 -110.007273 
L 810.052955 -113.301818 
L 810.007121 -116.596364 
L 809.952718 -119.890909 
L 809.893431 -123.185455 
L 809.832259 -126.48 
L 809.771416 -129.774545 
L 809.712296 -133.069091 
L 809.655522 -136.363636 
L 809.601046 -139.658182 
L 809.548287 -142.952727 
L 809.496288 -146.247273 
L 809.443881 -149.541818 
L 809.38982 -152.836364 
L 809.332895 -156.130909 
L 809.272 -159.425455 
L 809.206156 -162.72 
L 809.134496 -166.014545 
L 809.056225 -169.309091 
L 808.970556 -172.603636 
L 808.876655 -175.898182 
L 808.773596 -179.192727 
L 808.660356 -182.487273 
L 808.535844 -185.781818 
L 808.398975 -189.076364 
L 808.248776 -192.370909 
L 808.084523 -195.665455 
L 807.905869 -198.96 
L 807.712961 -202.254545 
L 807.506515 -205.549091 
L 807.28783 -208.843636 
L 807.058735 -212.138182 
L 806.821465 -215.432727 
L 806.578466 -218.727273 
L 806.332153 -222.021818 
L 806.08464 -225.316364 
L 805.837461 -228.610909 
L 805.591315 -231.905455 
L 805.345858 -235.2 
L 805.099552 -238.494545 
L 804.849597 -241.789091 
L 804.591942 -245.083636 
L 804.321373 -248.378182 
L 804.031677 -251.672727 
L 803.715869 -254.967273 
L 803.366457 -258.261818 
L 802.975741 -261.556364 
L 802.536112 -264.850909 
L 802.040343 -268.145455 
L 801.481849 -271.44 
L 800.854898 -274.734545 
L 800.15476 -278.029091 
L 799.377791 -281.323636 
L 798.521445 -284.618182 
L 797.584215 -287.912727 
L 796.56553 -291.207273 
L 795.465609 -294.501818 
L 794.285315 -297.796364 
L 793.026017 -301.090909 
L 791.689516 -304.385455 
L 790.278048 -307.68 
L 788.794389 -310.974545 
L 787.242093 -314.269091 
L 785.625866 -317.563636 
L 783.952068 -320.858182 
L 782.229339 -324.152727 
L 780.469301 -327.447273 
L 778.687296 -330.741818 
L 776.903073 -334.036364 
L 775.141358 -337.330909 
L 773.432177 -340.625455 
L 771.81085 -343.92 
L 770.317547 -347.214545 
L 768.996339 -350.509091 
L 767.893688 -353.803636 
L 767.05642 -357.098182 
L 766.529237 -360.392727 
L 766.351927 -363.687273 
L 766.556472 -366.981818 
L 767.164316 -370.276364 
L 768.184052 -373.570909 
L 769.609802 -376.865455 
L 771.420492 -380.16 
L 852.179508 -380.16 
L 852.179508 -380.16 
L 853.990198 -376.865455 
L 855.415948 -373.570909 
L 856.435684 -370.276364 
L 857.043528 -366.981818 
L 857.248073 -363.687273 
L 857.070763 -360.392727 
L 856.54358 -357.098182 
L 855.706312 -353.803636 
L 854.603661 -350.509091 
L 853.282453 -347.214545 
L 851.78915 -343.92 
L 850.167823 -340.625455 
L 848.458642 -337.330909 
L 846.696927 -334.036364 
L 844.912704 -330.741818 
L 843.130699 -327.447273 
L 841.370661 -324.152727 
L 839.647932 -320.858182 
L 837.974134 -317.563636 
L 836.357907 -314.269091 
L 834.805611 -310.974545 
L 833.321952 -307.68 
L 831.910484 -304.385455 
L 830.573983 -301.090909 
L 829.314685 -297.796364 
L 828.134391 -294.501818 
L 827.03447 -291.207273 
L 826.015785 -287.912727 
L 825.078555 -284.618182 
L 824.222209 -281.323636 
L 823.44524 -278.029091 
L 822.745102 -274.734545 
L 822.118151 -271.44 
L 821.559657 -268.145455 
L 821.063888 -264.850909 
L 820.624259 -261.556364 
L 820.233543 -258.261818 
L 819.884131 -254.967273 
L 819.568323 -251.672727 
L 819.278627 -248.378182 
L 819.008058 -245.083636 
L 818.750403 -241.789091 
L 818.500448 -238.494545 
L 818.254142 -235.2 
L 818.008685 -231.905455 
L 817.762539 -228.610909 
L 817.51536 -225.316364 
L 817.267847 -222.021818 
L 817.021534 -218.727273 
L 816.778535 -215.432727 
L 816.541265 -212.138182 
L 816.31217 -208.843636 
L 816.093485 -205.549091 
L 815.887039 -202.254545 
L 815.694131 -198.96 
L 815.515477 -195.665455 
L 815.351224 -192.370909 
L 815.201025 -189.076364 
L 815.064156 -185.781818 
L 814.939644 -182.487273 
L 814.826404 -179.192727 
L 814.723345 -175.898182 
L 814.629444 -172.603636 
L 814.543775 -169.309091 
L 814.465504 -166.014545 
L 814.393844 -162.72 
L 814.328 -159.425455 
L 814.267105 -156.130909 
L 814.21018 -152.836364 
L 814.156119 -149.541818 
L 814.103712 -146.247273 
L 814.051713 -142.952727 
L 813.998954 -139.658182 
L 813.944478 -136.363636 
L 813.887704 -133.069091 
L 813.828584 -129.774545 
L 813.767741 -126.48 
L 813.706569 -123.185455 
L 813.647282 -119.890909 
L 813.592879 -116.596364 
L 813.547045 -113.301818 
L 813.513953 -110.007273 
L 813.497996 -106.712727 
L 813.503449 -103.418182 
L 813.534088 -100.123636 
L 813.59278 -96.829091 
L 813.681098 -93.534545 
L 813.798988 -90.24 
L 813.944516 -86.945455 
L 814.113755 -83.650909 
L 814.300811 -80.356364 
L 814.498026 -77.061818 
L 814.69634 -73.767273 
L 814.8858 -70.472727 
L 815.05619 -67.178182 
L 815.197713 -63.883636 
L 815.301678 -60.589091 
L 815.361126 -57.294545 
L 815.371333 -54 
z
" style="stroke: #7f7f7f; stroke-width: 3"/>
    </defs>
    <g clip-path="url(#pb5c8b4bbcf)">
     <use xlink:href="#mcc7486bbed" x="0" y="432" style="fill: #d3d3d3; stroke: #7f7f7f; stroke-width: 3"/>
    </g>
   </g>
   <g id="PolyCollection_6">
    <defs>
     <path id="m26a3b61fa6" d="M 952.110234 -54 
L 944.289766 -54 
L 944.314283 -57.294545 
L 944.398974 -60.589091 
L 944.539023 -63.883636 
L 944.727015 -67.178182 
L 944.953515 -70.472727 
L 945.20778 -73.767273 
L 945.478537 -77.061818 
L 945.754738 -80.356364 
L 946.02623 -83.650909 
L 946.284287 -86.945455 
L 946.521952 -90.24 
L 946.734207 -93.534545 
L 946.917953 -96.829091 
L 947.071839 -100.123636 
L 947.195983 -103.418182 
L 947.291629 -106.712727 
L 947.360769 -110.007273 
L 947.405796 -113.301818 
L 947.429197 -116.596364 
L 947.43331 -119.890909 
L 947.42016 -123.185455 
L 947.391372 -126.48 
L 947.348143 -129.774545 
L 947.291278 -133.069091 
L 947.221258 -136.363636 
L 947.138344 -139.658182 
L 947.042681 -142.952727 
L 946.934407 -146.247273 
L 946.813753 -149.541818 
L 946.681123 -152.836364 
L 946.537144 -156.130909 
L 946.382699 -159.425455 
L 946.218919 -162.72 
L 946.047146 -166.014545 
L 945.868865 -169.309091 
L 945.685612 -172.603636 
L 945.498853 -175.898182 
L 945.309861 -179.192727 
L 945.119583 -182.487273 
L 944.928529 -185.781818 
L 944.736684 -189.076364 
L 944.543466 -192.370909 
L 944.347727 -195.665455 
L 944.147819 -198.96 
L 943.941709 -202.254545 
L 943.727143 -205.549091 
L 943.501842 -208.843636 
L 943.263708 -212.138182 
L 943.011022 -215.432727 
L 942.742607 -218.727273 
L 942.457925 -222.021818 
L 942.157114 -225.316364 
L 941.840926 -228.610909 
L 941.510596 -231.905455 
L 941.167623 -235.2 
L 940.813498 -238.494545 
L 940.449405 -241.789091 
L 940.07591 -245.083636 
L 939.692687 -248.378182 
L 939.2983 -251.672727 
L 938.890073 -254.967273 
L 938.464069 -258.261818 
L 938.015172 -261.556364 
L 937.537285 -264.850909 
L 937.023618 -268.145455 
L 936.467045 -271.44 
L 935.860489 -274.734545 
L 935.197304 -278.029091 
L 934.471612 -281.323636 
L 933.678566 -284.618182 
L 932.814517 -287.912727 
L 931.877075 -291.207273 
L 930.865063 -294.501818 
L 929.778399 -297.796364 
L 928.617924 -301.090909 
L 927.385215 -304.385455 
L 926.082439 -307.68 
L 924.712275 -310.974545 
L 923.277964 -314.269091 
L 921.783493 -317.563636 
L 920.233957 -320.858182 
L 918.63608 -324.152727 
L 916.998898 -327.447273 
L 915.334553 -330.741818 
L 913.659128 -334.036364 
L 911.993457 -337.330909 
L 910.363762 -340.625455 
L 908.802013 -343.92 
L 907.345859 -347.214545 
L 906.038024 -350.509091 
L 904.925064 -353.803636 
L 904.055472 -357.098182 
L 903.477175 -360.392727 
L 903.234538 -363.687273 
L 903.365124 -366.981818 
L 903.89646 -370.276364 
L 904.843169 -373.570909 
L 906.20477 -376.865455 
L 907.964446 -380.16 
L 988.435554 -380.16 
L 988.435554 -380.16 
L 990.19523 -376.865455 
L 991.556831 -373.570909 
L 992.50354 -370.276364 
L 993.034876 -366.981818 
L 993.165462 -363.687273 
L 992.922825 -360.392727 
L 992.344528 -357.098182 
L 991.474936 -353.803636 
L 990.361976 -350.509091 
L 989.054141 -347.214545 
L 987.597987 -343.92 
L 986.036238 -340.625455 
L 984.406543 -337.330909 
L 982.740872 -334.036364 
L 981.065447 -330.741818 
L 979.401102 -327.447273 
L 977.76392 -324.152727 
L 976.166043 -320.858182 
L 974.616507 -317.563636 
L 973.122036 -314.269091 
L 971.687725 -310.974545 
L 970.317561 -307.68 
L 969.014785 -304.385455 
L 967.782076 -301.090909 
L 966.621601 -297.796364 
L 965.534937 -294.501818 
L 964.522925 -291.207273 
L 963.585483 -287.912727 
L 962.721434 -284.618182 
L 961.928388 -281.323636 
L 961.202696 -278.029091 
L 960.539511 -274.734545 
L 959.932955 -271.44 
L 959.376382 -268.145455 
L 958.862715 -264.850909 
L 958.384828 -261.556364 
L 957.935931 -258.261818 
L 957.509927 -254.967273 
L 957.1017 -251.672727 
L 956.707313 -248.378182 
L 956.32409 -245.083636 
L 955.950595 -241.789091 
L 955.586502 -238.494545 
L 955.232377 -235.2 
L 954.889404 -231.905455 
L 954.559074 -228.610909 
L 954.242886 -225.316364 
L 953.942075 -222.021818 
L 953.657393 -218.727273 
L 953.388978 -215.432727 
L 953.136292 -212.138182 
L 952.898158 -208.843636 
L 952.672857 -205.549091 
L 952.458291 -202.254545 
L 952.252181 -198.96 
L 952.052273 -195.665455 
L 951.856534 -192.370909 
L 951.663316 -189.076364 
L 951.471471 -185.781818 
L 951.280417 -182.487273 
L 951.090139 -179.192727 
L 950.901147 -175.898182 
L 950.714388 -172.603636 
L 950.531135 -169.309091 
L 950.352854 -166.014545 
L 950.181081 -162.72 
L 950.017301 -159.425455 
L 949.862856 -156.130909 
L 949.718877 -152.836364 
L 949.586247 -149.541818 
L 949.465593 -146.247273 
L 949.357319 -142.952727 
L 949.261656 -139.658182 
L 949.178742 -136.363636 
L 949.108722 -133.069091 
L 949.051857 -129.774545 
L 949.008628 -126.48 
L 948.97984 -123.185455 
L 948.96669 -119.890909 
L 948.970803 -116.596364 
L 948.994204 -113.301818 
L 949.039231 -110.007273 
L 949.108371 -106.712727 
L 949.204017 -103.418182 
L 949.328161 -100.123636 
L 949.482047 -96.829091 
L 949.665793 -93.534545 
L 949.878048 -90.24 
L 950.115713 -86.945455 
L 950.37377 -83.650909 
L 950.645262 -80.356364 
L 950.921463 -77.061818 
L 951.19222 -73.767273 
L 951.446485 -70.472727 
L 951.672985 -67.178182 
L 951.860977 -63.883636 
L 952.001026 -60.589091 
L 952.085717 -57.294545 
L 952.110234 -54 
z
" style="stroke: #7f7f7f; stroke-width: 3"/>
    </defs>
    <g clip-path="url(#pb5c8b4bbcf)">
     <use xlink:href="#m26a3b61fa6" x="0" y="432" style="fill: #d3d3d3; stroke: #7f7f7f; stroke-width: 3"/>
    </g>
   </g>
   <g id="PolyCollection_7">
    <defs>
     <path id="ma8505ead97" d="M 1085.770722 -54 
L 1083.429278 -54 
L 1083.442656 -57.294545 
L 1083.485485 -60.589091 
L 1083.55348 -63.883636 
L 1083.640308 -67.178182 
L 1083.738354 -70.472727 
L 1083.839609 -73.767273 
L 1083.936545 -77.061818 
L 1084.022862 -80.356364 
L 1084.094007 -83.650909 
L 1084.147422 -86.945455 
L 1084.18253 -90.24 
L 1084.200472 -93.534545 
L 1084.203671 -96.829091 
L 1084.195267 -100.123636 
L 1084.178516 -103.418182 
L 1084.156217 -106.712727 
L 1084.130234 -110.007273 
L 1084.101176 -113.301818 
L 1084.068285 -116.596364 
L 1084.029554 -119.890909 
L 1083.982061 -123.185455 
L 1083.922486 -126.48 
L 1083.847733 -129.774545 
L 1083.755551 -133.069091 
L 1083.645049 -136.363636 
L 1083.517007 -139.658182 
L 1083.373912 -142.952727 
L 1083.219717 -146.247273 
L 1083.059334 -149.541818 
L 1082.89798 -152.836364 
L 1082.740469 -156.130909 
L 1082.590584 -159.425455 
L 1082.450627 -162.72 
L 1082.321213 -166.014545 
L 1082.201289 -169.309091 
L 1082.088343 -172.603636 
L 1081.978713 -175.898182 
L 1081.867922 -179.192727 
L 1081.750957 -182.487273 
L 1081.622504 -185.781818 
L 1081.477148 -189.076364 
L 1081.309594 -192.370909 
L 1081.114983 -195.665455 
L 1080.889307 -198.96 
L 1080.629911 -202.254545 
L 1080.335973 -205.549091 
L 1080.008855 -208.843636 
L 1079.652175 -212.138182 
L 1079.271514 -215.432727 
L 1078.873747 -218.727273 
L 1078.466085 -222.021818 
L 1078.054993 -225.316364 
L 1077.645209 -228.610909 
L 1077.239072 -231.905455 
L 1076.836295 -235.2 
L 1076.434231 -238.494545 
L 1076.028541 -241.789091 
L 1075.614116 -245.083636 
L 1075.186022 -248.378182 
L 1074.740293 -251.672727 
L 1074.274432 -254.967273 
L 1073.787595 -258.261818 
L 1073.280494 -261.556364 
L 1072.755137 -264.850909 
L 1072.214503 -268.145455 
L 1071.662228 -271.44 
L 1071.102293 -274.734545 
L 1070.538671 -278.029091 
L 1069.974803 -281.323636 
L 1069.412844 -284.618182 
L 1068.852619 -287.912727 
L 1068.290382 -291.207273 
L 1067.717548 -294.501818 
L 1067.11966 -297.796364 
L 1066.475905 -301.090909 
L 1065.759423 -304.385455 
L 1064.938585 -307.68 
L 1063.979238 -310.974545 
L 1062.847746 -314.269091 
L 1061.51448 -317.563636 
L 1059.957324 -320.858182 
L 1058.164688 -324.152727 
L 1056.137613 -327.447273 
L 1053.890723 -330.741818 
L 1051.451981 -334.036364 
L 1048.861549 -337.330909 
L 1046.170212 -340.625455 
L 1043.437981 -343.92 
L 1040.733374 -347.214545 
L 1038.133549 -350.509091 
L 1035.725007 -353.803636 
L 1033.604077 -357.098182 
L 1031.876012 -360.392727 
L 1030.651529 -363.687273 
L 1030.04 -366.981818 
L 1030.139308 -370.276364 
L 1031.023397 -373.570909 
L 1032.729503 -376.865455 
L 1035.247606 -380.16 
L 1133.952394 -380.16 
L 1133.952394 -380.16 
L 1136.470497 -376.865455 
L 1138.176603 -373.570909 
L 1139.060692 -370.276364 
L 1139.16 -366.981818 
L 1138.548471 -363.687273 
L 1137.323988 -360.392727 
L 1135.595923 -357.098182 
L 1133.474993 -353.803636 
L 1131.066451 -350.509091 
L 1128.466626 -347.214545 
L 1125.762019 -343.92 
L 1123.029788 -340.625455 
L 1120.338451 -337.330909 
L 1117.748019 -334.036364 
L 1115.309277 -330.741818 
L 1113.062387 -327.447273 
L 1111.035312 -324.152727 
L 1109.242676 -320.858182 
L 1107.68552 -317.563636 
L 1106.352254 -314.269091 
L 1105.220762 -310.974545 
L 1104.261415 -307.68 
L 1103.440577 -304.385455 
L 1102.724095 -301.090909 
L 1102.08034 -297.796364 
L 1101.482452 -294.501818 
L 1100.909618 -291.207273 
L 1100.347381 -287.912727 
L 1099.787156 -284.618182 
L 1099.225197 -281.323636 
L 1098.661329 -278.029091 
L 1098.097707 -274.734545 
L 1097.537772 -271.44 
L 1096.985497 -268.145455 
L 1096.444863 -264.850909 
L 1095.919506 -261.556364 
L 1095.412405 -258.261818 
L 1094.925568 -254.967273 
L 1094.459707 -251.672727 
L 1094.013978 -248.378182 
L 1093.585884 -245.083636 
L 1093.171459 -241.789091 
L 1092.765769 -238.494545 
L 1092.363705 -235.2 
L 1091.960928 -231.905455 
L 1091.554791 -228.610909 
L 1091.145007 -225.316364 
L 1090.733915 -222.021818 
L 1090.326253 -218.727273 
L 1089.928486 -215.432727 
L 1089.547825 -212.138182 
L 1089.191145 -208.843636 
L 1088.864027 -205.549091 
L 1088.570089 -202.254545 
L 1088.310693 -198.96 
L 1088.085017 -195.665455 
L 1087.890406 -192.370909 
L 1087.722852 -189.076364 
L 1087.577496 -185.781818 
L 1087.449043 -182.487273 
L 1087.332078 -179.192727 
L 1087.221287 -175.898182 
L 1087.111657 -172.603636 
L 1086.998711 -169.309091 
L 1086.878787 -166.014545 
L 1086.749373 -162.72 
L 1086.609416 -159.425455 
L 1086.459531 -156.130909 
L 1086.30202 -152.836364 
L 1086.140666 -149.541818 
L 1085.980283 -146.247273 
L 1085.826088 -142.952727 
L 1085.682993 -139.658182 
L 1085.554951 -136.363636 
L 1085.444449 -133.069091 
L 1085.352267 -129.774545 
L 1085.277514 -126.48 
L 1085.217939 -123.185455 
L 1085.170446 -119.890909 
L 1085.131715 -116.596364 
L 1085.098824 -113.301818 
L 1085.069766 -110.007273 
L 1085.043783 -106.712727 
L 1085.021484 -103.418182 
L 1085.004733 -100.123636 
L 1084.996329 -96.829091 
L 1084.999528 -93.534545 
L 1085.01747 -90.24 
L 1085.052578 -86.945455 
L 1085.105993 -83.650909 
L 1085.177138 -80.356364 
L 1085.263455 -77.061818 
L 1085.360391 -73.767273 
L 1085.461646 -70.472727 
L 1085.559692 -67.178182 
L 1085.64652 -63.883636 
L 1085.714515 -60.589091 
L 1085.757344 -57.294545 
L 1085.770722 -54 
z
" style="stroke: #7f7f7f; stroke-width: 3"/>
    </defs>
    <g clip-path="url(#pb5c8b4bbcf)">
     <use xlink:href="#ma8505ead97" x="0" y="432" style="fill: #d3d3d3; stroke: #7f7f7f; stroke-width: 3"/>
    </g>
   </g>
   <g id="PolyCollection_8">
    <defs>
     <path id="mcdb38db11b" d="M 1227.064506 -54 
L 1214.935494 -54 
L 1214.953364 -57.294545 
L 1215.036275 -60.589091 
L 1215.18096 -63.883636 
L 1215.382139 -67.178182 
L 1215.632802 -70.472727 
L 1215.924576 -73.767273 
L 1216.248147 -77.061818 
L 1216.593705 -80.356364 
L 1216.951381 -83.650909 
L 1217.311655 -86.945455 
L 1217.665699 -90.24 
L 1218.005655 -93.534545 
L 1218.324823 -96.829091 
L 1218.617767 -100.123636 
L 1218.880346 -103.418182 
L 1219.109667 -106.712727 
L 1219.30399 -110.007273 
L 1219.46259 -113.301818 
L 1219.585596 -116.596364 
L 1219.673819 -119.890909 
L 1219.728586 -123.185455 
L 1219.75159 -126.48 
L 1219.744753 -129.774545 
L 1219.710118 -133.069091 
L 1219.64977 -136.363636 
L 1219.565774 -139.658182 
L 1219.460139 -142.952727 
L 1219.334798 -146.247273 
L 1219.191607 -149.541818 
L 1219.032349 -152.836364 
L 1218.858747 -156.130909 
L 1218.672476 -159.425455 
L 1218.475181 -162.72 
L 1218.268485 -166.014545 
L 1218.053993 -169.309091 
L 1217.833285 -172.603636 
L 1217.607909 -175.898182 
L 1217.379352 -179.192727 
L 1217.14901 -182.487273 
L 1216.918143 -185.781818 
L 1216.687829 -189.076364 
L 1216.458913 -192.370909 
L 1216.231951 -195.665455 
L 1216.007168 -198.96 
L 1215.784416 -202.254545 
L 1215.563158 -205.549091 
L 1215.342461 -208.843636 
L 1215.121015 -212.138182 
L 1214.897173 -215.432727 
L 1214.669017 -218.727273 
L 1214.434433 -222.021818 
L 1214.191212 -225.316364 
L 1213.93714 -228.610909 
L 1213.670101 -231.905455 
L 1213.388148 -235.2 
L 1213.089572 -238.494545 
L 1212.77292 -241.789091 
L 1212.436998 -245.083636 
L 1212.080818 -248.378182 
L 1211.703521 -251.672727 
L 1211.304264 -254.967273 
L 1210.882084 -258.261818 
L 1210.435756 -261.556364 
L 1209.963641 -264.850909 
L 1209.463568 -268.145455 
L 1208.932735 -271.44 
L 1208.367661 -274.734545 
L 1207.764193 -278.029091 
L 1207.117581 -281.323636 
L 1206.42262 -284.618182 
L 1205.673863 -287.912727 
L 1204.865897 -291.207273 
L 1203.993683 -294.501818 
L 1203.052935 -297.796364 
L 1202.04053 -301.090909 
L 1200.954939 -304.385455 
L 1199.796639 -307.68 
L 1198.568504 -310.974545 
L 1197.276147 -314.269091 
L 1195.928189 -317.563636 
L 1194.536443 -320.858182 
L 1193.115988 -324.152727 
L 1191.685121 -327.447273 
L 1190.26518 -330.741818 
L 1188.880219 -334.036364 
L 1187.556538 -337.330909 
L 1186.322073 -340.625455 
L 1185.205648 -343.92 
L 1184.236112 -347.214545 
L 1183.441382 -350.509091 
L 1182.847419 -353.803636 
L 1182.477199 -357.098182 
L 1182.349698 -360.392727 
L 1182.47897 -363.687273 
L 1182.873358 -366.981818 
L 1183.534895 -370.276364 
L 1184.458942 -373.570909 
L 1185.634102 -376.865455 
L 1187.042425 -380.16 
L 1254.957575 -380.16 
L 1254.957575 -380.16 
L 1256.365898 -376.865455 
L 1257.541058 -373.570909 
L 1258.465105 -370.276364 
L 1259.126642 -366.981818 
L 1259.52103 -363.687273 
L 1259.650302 -360.392727 
L 1259.522801 -357.098182 
L 1259.152581 -353.803636 
L 1258.558618 -350.509091 
L 1257.763888 -347.214545 
L 1256.794352 -343.92 
L 1255.677927 -340.625455 
L 1254.443462 -337.330909 
L 1253.119781 -334.036364 
L 1251.73482 -330.741818 
L 1250.314879 -327.447273 
L 1248.884012 -324.152727 
L 1247.463557 -320.858182 
L 1246.071811 -317.563636 
L 1244.723853 -314.269091 
L 1243.431496 -310.974545 
L 1242.203361 -307.68 
L 1241.045061 -304.385455 
L 1239.95947 -301.090909 
L 1238.947065 -297.796364 
L 1238.006317 -294.501818 
L 1237.134103 -291.207273 
L 1236.326137 -287.912727 
L 1235.57738 -284.618182 
L 1234.882419 -281.323636 
L 1234.235807 -278.029091 
L 1233.632339 -274.734545 
L 1233.067265 -271.44 
L 1232.536432 -268.145455 
L 1232.036359 -264.850909 
L 1231.564244 -261.556364 
L 1231.117916 -258.261818 
L 1230.695736 -254.967273 
L 1230.296479 -251.672727 
L 1229.919182 -248.378182 
L 1229.563002 -245.083636 
L 1229.22708 -241.789091 
L 1228.910428 -238.494545 
L 1228.611852 -235.2 
L 1228.329899 -231.905455 
L 1228.06286 -228.610909 
L 1227.808788 -225.316364 
L 1227.565567 -222.021818 
L 1227.330983 -218.727273 
L 1227.102827 -215.432727 
L 1226.878985 -212.138182 
L 1226.657539 -208.843636 
L 1226.436842 -205.549091 
L 1226.215584 -202.254545 
L 1225.992832 -198.96 
L 1225.768049 -195.665455 
L 1225.541087 -192.370909 
L 1225.312171 -189.076364 
L 1225.081857 -185.781818 
L 1224.85099 -182.487273 
L 1224.620648 -179.192727 
L 1224.392091 -175.898182 
L 1224.166715 -172.603636 
L 1223.946007 -169.309091 
L 1223.731515 -166.014545 
L 1223.524819 -162.72 
L 1223.327524 -159.425455 
L 1223.141253 -156.130909 
L 1222.967651 -152.836364 
L 1222.808393 -149.541818 
L 1222.665202 -146.247273 
L 1222.539861 -142.952727 
L 1222.434226 -139.658182 
L 1222.35023 -136.363636 
L 1222.289882 -133.069091 
L 1222.255247 -129.774545 
L 1222.24841 -126.48 
L 1222.271414 -123.185455 
L 1222.326181 -119.890909 
L 1222.414404 -116.596364 
L 1222.53741 -113.301818 
L 1222.69601 -110.007273 
L 1222.890333 -106.712727 
L 1223.119654 -103.418182 
L 1223.382233 -100.123636 
L 1223.675177 -96.829091 
L 1223.994345 -93.534545 
L 1224.334301 -90.24 
L 1224.688345 -86.945455 
L 1225.048619 -83.650909 
L 1225.406295 -80.356364 
L 1225.751853 -77.061818 
L 1226.075424 -73.767273 
L 1226.367198 -70.472727 
L 1226.617861 -67.178182 
L 1226.81904 -63.883636 
L 1226.963725 -60.589091 
L 1227.046636 -57.294545 
L 1227.064506 -54 
z
" style="stroke: #7f7f7f; stroke-width: 3"/>
    </defs>
    <g clip-path="url(#pb5c8b4bbcf)">
     <use xlink:href="#mcdb38db11b" x="0" y="432" style="fill: #d3d3d3; stroke: #7f7f7f; stroke-width: 3"/>
    </g>
   </g>
   <g id="PolyCollection_9">
    <defs>
     <path id="m8664def99f" d="M 1362.27986 -54 
L 1352.52014 -54 
L 1352.526391 -57.294545 
L 1352.589494 -60.589091 
L 1352.706143 -63.883636 
L 1352.871092 -67.178182 
L 1353.077489 -70.472727 
L 1353.317291 -73.767273 
L 1353.581738 -77.061818 
L 1353.861822 -80.356364 
L 1354.148739 -83.650909 
L 1354.434281 -86.945455 
L 1354.711136 -90.24 
L 1354.973108 -93.534545 
L 1355.21522 -96.829091 
L 1355.433741 -100.123636 
L 1355.626123 -103.418182 
L 1355.790884 -106.712727 
L 1355.927455 -110.007273 
L 1356.036007 -113.301818 
L 1356.117282 -116.596364 
L 1356.172441 -119.890909 
L 1356.202937 -123.185455 
L 1356.210416 -126.48 
L 1356.196646 -129.774545 
L 1356.163469 -133.069091 
L 1356.112769 -136.363636 
L 1356.046445 -139.658182 
L 1355.966392 -142.952727 
L 1355.874467 -146.247273 
L 1355.772464 -149.541818 
L 1355.662065 -152.836364 
L 1355.544802 -156.130909 
L 1355.42201 -159.425455 
L 1355.294787 -162.72 
L 1355.163972 -166.014545 
L 1355.030128 -169.309091 
L 1354.893548 -172.603636 
L 1354.754282 -175.898182 
L 1354.612169 -179.192727 
L 1354.466894 -182.487273 
L 1354.318036 -185.781818 
L 1354.165123 -189.076364 
L 1354.007675 -192.370909 
L 1353.845231 -195.665455 
L 1353.677361 -198.96 
L 1353.503656 -202.254545 
L 1353.323703 -205.549091 
L 1353.137048 -208.843636 
L 1352.943145 -212.138182 
L 1352.741323 -215.432727 
L 1352.530744 -218.727273 
L 1352.310393 -222.021818 
L 1352.079082 -225.316364 
L 1351.835487 -228.610909 
L 1351.578198 -231.905455 
L 1351.305803 -235.2 
L 1351.016973 -238.494545 
L 1350.710565 -241.789091 
L 1350.3857 -245.083636 
L 1350.041834 -248.378182 
L 1349.678797 -251.672727 
L 1349.296782 -254.967273 
L 1348.896297 -258.261818 
L 1348.478058 -261.556364 
L 1348.042837 -264.850909 
L 1347.591263 -268.145455 
L 1347.123584 -271.44 
L 1346.639415 -274.734545 
L 1346.137476 -278.029091 
L 1345.615345 -281.323636 
L 1345.069252 -284.618182 
L 1344.49393 -287.912727 
L 1343.882537 -291.207273 
L 1343.226691 -294.501818 
L 1342.516606 -297.796364 
L 1341.74136 -301.090909 
L 1340.889295 -304.385455 
L 1339.948555 -307.68 
L 1338.907751 -310.974545 
L 1337.756748 -314.269091 
L 1336.48755 -317.563636 
L 1335.09525 -320.858182 
L 1333.579008 -324.152727 
L 1331.94301 -327.447273 
L 1330.197331 -330.741818 
L 1328.358637 -334.036364 
L 1326.450661 -337.330909 
L 1324.504343 -340.625455 
L 1322.557598 -343.92 
L 1320.654629 -347.214545 
L 1318.844761 -350.509091 
L 1317.180807 -353.803636 
L 1315.716991 -357.098182 
L 1314.506535 -360.392727 
L 1313.599011 -363.687273 
L 1313.037657 -366.981818 
L 1312.856813 -370.276364 
L 1313.079703 -373.570909 
L 1313.716726 -376.865455 
L 1314.764436 -380.16 
L 1400.035564 -380.16 
L 1400.035564 -380.16 
L 1401.083274 -376.865455 
L 1401.720297 -373.570909 
L 1401.943187 -370.276364 
L 1401.762343 -366.981818 
L 1401.200989 -363.687273 
L 1400.293465 -360.392727 
L 1399.083009 -357.098182 
L 1397.619193 -353.803636 
L 1395.955239 -350.509091 
L 1394.145371 -347.214545 
L 1392.242402 -343.92 
L 1390.295657 -340.625455 
L 1388.349339 -337.330909 
L 1386.441363 -334.036364 
L 1384.602669 -330.741818 
L 1382.85699 -327.447273 
L 1381.220992 -324.152727 
L 1379.70475 -320.858182 
L 1378.31245 -317.563636 
L 1377.043252 -314.269091 
L 1375.892249 -310.974545 
L 1374.851445 -307.68 
L 1373.910705 -304.385455 
L 1373.05864 -301.090909 
L 1372.283394 -297.796364 
L 1371.573309 -294.501818 
L 1370.917463 -291.207273 
L 1370.30607 -287.912727 
L 1369.730748 -284.618182 
L 1369.184655 -281.323636 
L 1368.662524 -278.029091 
L 1368.160585 -274.734545 
L 1367.676416 -271.44 
L 1367.208737 -268.145455 
L 1366.757163 -264.850909 
L 1366.321942 -261.556364 
L 1365.903703 -258.261818 
L 1365.503218 -254.967273 
L 1365.121203 -251.672727 
L 1364.758166 -248.378182 
L 1364.4143 -245.083636 
L 1364.089435 -241.789091 
L 1363.783027 -238.494545 
L 1363.494197 -235.2 
L 1363.221802 -231.905455 
L 1362.964513 -228.610909 
L 1362.720918 -225.316364 
L 1362.489607 -222.021818 
L 1362.269256 -218.727273 
L 1362.058677 -215.432727 
L 1361.856855 -212.138182 
L 1361.662952 -208.843636 
L 1361.476297 -205.549091 
L 1361.296344 -202.254545 
L 1361.122639 -198.96 
L 1360.954769 -195.665455 
L 1360.792325 -192.370909 
L 1360.634877 -189.076364 
L 1360.481964 -185.781818 
L 1360.333106 -182.487273 
L 1360.187831 -179.192727 
L 1360.045718 -175.898182 
L 1359.906452 -172.603636 
L 1359.769872 -169.309091 
L 1359.636028 -166.014545 
L 1359.505213 -162.72 
L 1359.37799 -159.425455 
L 1359.255198 -156.130909 
L 1359.137935 -152.836364 
L 1359.027536 -149.541818 
L 1358.925533 -146.247273 
L 1358.833608 -142.952727 
L 1358.753555 -139.658182 
L 1358.687231 -136.363636 
L 1358.636531 -133.069091 
L 1358.603354 -129.774545 
L 1358.589584 -126.48 
L 1358.597063 -123.185455 
L 1358.627559 -119.890909 
L 1358.682718 -116.596364 
L 1358.763993 -113.301818 
L 1358.872545 -110.007273 
L 1359.009116 -106.712727 
L 1359.173877 -103.418182 
L 1359.366259 -100.123636 
L 1359.58478 -96.829091 
L 1359.826892 -93.534545 
L 1360.088864 -90.24 
L 1360.365719 -86.945455 
L 1360.651261 -83.650909 
L 1360.938178 -80.356364 
L 1361.218262 -77.061818 
L 1361.482709 -73.767273 
L 1361.722511 -70.472727 
L 1361.928908 -67.178182 
L 1362.093857 -63.883636 
L 1362.210506 -60.589091 
L 1362.273609 -57.294545 
L 1362.27986 -54 
z
" style="stroke: #7f7f7f; stroke-width: 3"/>
    </defs>
    <g clip-path="url(#pb5c8b4bbcf)">
     <use xlink:href="#m8664def99f" x="0" y="432" style="fill: #d3d3d3; stroke: #7f7f7f; stroke-width: 3"/>
    </g>
   </g>
   <g id="PathCollection_1">
    <defs>
     <path id="C0_0_29ec09eb78" d="M 0 3.383948 
C 0.897434 3.383948 1.758231 3.027394 2.392813 2.392813 
C 3.027394 1.758231 3.383948 0.897434 3.383948 -0 
C 3.383948 -0.897434 3.027394 -1.758231 2.392813 -2.392813 
C 1.758231 -3.027394 0.897434 -3.383948 0 -3.383948 
C -0.897434 -3.383948 -1.758231 -3.027394 -2.392813 -2.392813 
C -3.027394 -1.758231 -3.383948 -0.897434 -3.383948 0 
C -3.383948 0.897434 -3.027394 1.758231 -2.392813 2.392813 
C -1.758231 3.027394 -0.897434 3.383948 0 3.383948 
z
"/>
    </defs>
    <g clip-path="url(#pb5c8b4bbcf)">
     <use xlink:href="#C0_0_29ec09eb78" x="266.2" y="128.09478" style="fill: #808080; stroke: #808080; stroke-width: 2.025"/>
    </g>
    <g clip-path="url(#pb5c8b4bbcf)">
     <use xlink:href="#C0_0_29ec09eb78" x="402.6" y="133.493085" style="fill: #808080; stroke: #808080; stroke-width: 2.025"/>
    </g>
    <g clip-path="url(#pb5c8b4bbcf)">
     <use xlink:href="#C0_0_29ec09eb78" x="539" y="133.957327" style="fill: #808080; stroke: #808080; stroke-width: 2.025"/>
    </g>
    <g clip-path="url(#pb5c8b4bbcf)">
     <use xlink:href="#C0_0_29ec09eb78" x="675.4" y="130.945704" style="fill: #808080; stroke: #808080; stroke-width: 2.025"/>
    </g>
    <g clip-path="url(#pb5c8b4bbcf)">
     <use xlink:href="#C0_0_29ec09eb78" x="811.8" y="111.263019" style="fill: #808080; stroke: #808080; stroke-width: 2.025"/>
    </g>
    <g clip-path="url(#pb5c8b4bbcf)">
     <use xlink:href="#C0_0_29ec09eb78" x="948.2" y="110.730926" style="fill: #808080; stroke: #808080; stroke-width: 2.025"/>
    </g>
    <g clip-path="url(#pb5c8b4bbcf)">
     <use xlink:href="#C0_0_29ec09eb78" x="1084.6" y="100.500929" style="fill: #808080; stroke: #808080; stroke-width: 2.025"/>
    </g>
    <g clip-path="url(#pb5c8b4bbcf)">
     <use xlink:href="#C0_0_29ec09eb78" x="1221" y="125.078395" style="fill: #808080; stroke: #808080; stroke-width: 2.025"/>
    </g>
    <g clip-path="url(#pb5c8b4bbcf)">
     <use xlink:href="#C0_0_29ec09eb78" x="1357.4" y="110.379768" style="fill: #808080; stroke: #808080; stroke-width: 2.025"/>
    </g>
   </g>
   <g id="patch_3">
    <path d="M 198 378 
L 1425.6 378 
" style="fill: none; stroke: #cccccc; stroke-width: 1.25; stroke-linejoin: miter; stroke-linecap: square"/>
   </g>
  </g>
  <g id="text_17">
   <!-- SRtrain -->
   <g style="fill: #262626" transform="translate(754.282969 22.317187)scale(0.18 -0.18)">
    <defs>
     <path id="DejaVuSans-Bold-53" d="M 3834 4519 
L 3834 3531 
Q 3450 3703 3084 3790 
Q 2719 3878 2394 3878 
Q 1963 3878 1756 3759 
Q 1550 3641 1550 3391 
Q 1550 3203 1689 3098 
Q 1828 2994 2194 2919 
L 2706 2816 
Q 3484 2659 3812 2340 
Q 4141 2022 4141 1434 
Q 4141 663 3683 286 
Q 3225 -91 2284 -91 
Q 1841 -91 1394 -6 
Q 947 78 500 244 
L 500 1259 
Q 947 1022 1364 901 
Q 1781 781 2169 781 
Q 2563 781 2772 912 
Q 2981 1044 2981 1288 
Q 2981 1506 2839 1625 
Q 2697 1744 2272 1838 
L 1806 1941 
Q 1106 2091 782 2419 
Q 459 2747 459 3303 
Q 459 4000 909 4375 
Q 1359 4750 2203 4750 
Q 2588 4750 2994 4692 
Q 3400 4634 3834 4519 
z
" transform="scale(0.015625)"/>
     <path id="DejaVuSans-Bold-52" d="M 2297 2597 
Q 2675 2597 2839 2737 
Q 3003 2878 3003 3200 
Q 3003 3519 2839 3656 
Q 2675 3794 2297 3794 
L 1791 3794 
L 1791 2597 
L 2297 2597 
z
M 1791 1766 
L 1791 0 
L 588 0 
L 588 4666 
L 2425 4666 
Q 3347 4666 3776 4356 
Q 4206 4047 4206 3378 
Q 4206 2916 3982 2619 
Q 3759 2322 3309 2181 
Q 3556 2125 3751 1926 
Q 3947 1728 4147 1325 
L 4800 0 
L 3519 0 
L 2950 1159 
Q 2778 1509 2601 1637 
Q 2425 1766 2131 1766 
L 1791 1766 
z
" transform="scale(0.015625)"/>
     <path id="DejaVuSans-Bold-74" d="M 1759 4494 
L 1759 3500 
L 2913 3500 
L 2913 2700 
L 1759 2700 
L 1759 1216 
Q 1759 972 1856 886 
Q 1953 800 2241 800 
L 2816 800 
L 2816 0 
L 1856 0 
Q 1194 0 917 276 
Q 641 553 641 1216 
L 641 2700 
L 84 2700 
L 84 3500 
L 641 3500 
L 641 4494 
L 1759 4494 
z
" transform="scale(0.015625)"/>
     <path id="DejaVuSans-Bold-72" d="M 3138 2547 
Q 2991 2616 2845 2648 
Q 2700 2681 2553 2681 
Q 2122 2681 1889 2404 
Q 1656 2128 1656 1613 
L 1656 0 
L 538 0 
L 538 3500 
L 1656 3500 
L 1656 2925 
Q 1872 3269 2151 3426 
Q 2431 3584 2822 3584 
Q 2878 3584 2943 3579 
Q 3009 3575 3134 3559 
L 3138 2547 
z
" transform="scale(0.015625)"/>
     <path id="DejaVuSans-Bold-61" d="M 2106 1575 
Q 1756 1575 1579 1456 
Q 1403 1338 1403 1106 
Q 1403 894 1545 773 
Q 1688 653 1941 653 
Q 2256 653 2472 879 
Q 2688 1106 2688 1447 
L 2688 1575 
L 2106 1575 
z
M 3816 1997 
L 3816 0 
L 2688 0 
L 2688 519 
Q 2463 200 2181 54 
Q 1900 -91 1497 -91 
Q 953 -91 614 226 
Q 275 544 275 1050 
Q 275 1666 698 1953 
Q 1122 2241 2028 2241 
L 2688 2241 
L 2688 2328 
Q 2688 2594 2478 2717 
Q 2269 2841 1825 2841 
Q 1466 2841 1156 2769 
Q 847 2697 581 2553 
L 581 3406 
Q 941 3494 1303 3539 
Q 1666 3584 2028 3584 
Q 2975 3584 3395 3211 
Q 3816 2838 3816 1997 
z
" transform="scale(0.015625)"/>
     <path id="DejaVuSans-Bold-69" d="M 538 3500 
L 1656 3500 
L 1656 0 
L 538 0 
L 538 3500 
z
M 538 4863 
L 1656 4863 
L 1656 3950 
L 538 3950 
L 538 4863 
z
" transform="scale(0.015625)"/>
     <path id="DejaVuSans-Bold-6e" d="M 4056 2131 
L 4056 0 
L 2931 0 
L 2931 347 
L 2931 1631 
Q 2931 2084 2911 2256 
Q 2891 2428 2841 2509 
Q 2775 2619 2662 2680 
Q 2550 2741 2406 2741 
Q 2056 2741 1856 2470 
Q 1656 2200 1656 1722 
L 1656 0 
L 538 0 
L 538 3500 
L 1656 3500 
L 1656 2988 
Q 1909 3294 2193 3439 
Q 2478 3584 2822 3584 
Q 3428 3584 3742 3212 
Q 4056 2841 4056 2131 
z
" transform="scale(0.015625)"/>
    </defs>
    <use xlink:href="#DejaVuSans-Bold-53"/>
    <use xlink:href="#DejaVuSans-Bold-52" x="72.021484"/>
    <use xlink:href="#DejaVuSans-Bold-74" x="149.023438"/>
    <use xlink:href="#DejaVuSans-Bold-72" x="196.826172"/>
    <use xlink:href="#DejaVuSans-Bold-61" x="246.142578"/>
    <use xlink:href="#DejaVuSans-Bold-69" x="313.623047"/>
    <use xlink:href="#DejaVuSans-Bold-6e" x="347.900391"/>
   </g>
  </g>
 </g>
 <defs>
  <clipPath id="pb5c8b4bbcf">
   <rect x="198" y="51.84" width="1227.6" height="326.16"/>
  </clipPath>
 </defs>
</svg>
