<?xml version="1.0" encoding="utf-8" standalone="no"?>
<!DOCTYPE svg PUBLIC "-//W3C//DTD SVG 1.1//EN"
  "http://www.w3.org/Graphics/SVG/1.1/DTD/svg11.dtd">
<svg xmlns:xlink="http://www.w3.org/1999/xlink" width="1584pt" height="432pt" viewBox="0 0 1584 432" xmlns="http://www.w3.org/2000/svg" version="1.1">
 <metadata>
  <rdf:RDF xmlns:dc="http://purl.org/dc/elements/1.1/" xmlns:cc="http://creativecommons.org/ns#" xmlns:rdf="http://www.w3.org/1999/02/22-rdf-syntax-ns#">
   <cc:Work>
    <dc:type rdf:resource="http://purl.org/dc/dcmitype/StillImage"/>
    <dc:date>2023-09-06T14:17:54.424199</dc:date>
    <dc:format>image/svg+xml</dc:format>
    <dc:creator>
     <cc:Agent>
      <dc:title>Matplotlib v3.5.1, https://matplotlib.org/</dc:title>
     </cc:Agent>
    </dc:creator>
   </cc:Work>
  </rdf:RDF>
 </metadata>
 <defs>
  <style type="text/css">*{stroke-linejoin: round; stroke-linecap: butt}</style>
 </defs>
 <g id="figure_1">
  <g id="patch_1">
   <path d="M 0 432 
L 1584 432 
L 1584 0 
L 0 0 
z
" style="fill: #ffffff"/>
  </g>
  <g id="axes_1">
   <g id="patch_2">
    <path d="M 198 378 
L 1425.6 378 
L 1425.6 51.84 
L 198 51.84 
z
" style="fill: #ffffff"/>
   </g>
   <g id="matplotlib.axis_1">
    <g id="xtick_1">
     <g id="text_1">
      <!-- RNAfold -->
      <g style="fill: #262626" transform="translate(218.093906 401.177188)scale(0.18 -0.18)">
       <defs>
        <path id="DejaVuSans-52" d="M 2841 2188 
Q 3044 2119 3236 1894 
Q 3428 1669 3622 1275 
L 4263 0 
L 3584 0 
L 2988 1197 
Q 2756 1666 2539 1819 
Q 2322 1972 1947 1972 
L 1259 1972 
L 1259 0 
L 628 0 
L 628 4666 
L 2053 4666 
Q 2853 4666 3247 4331 
Q 3641 3997 3641 3322 
Q 3641 2881 3436 2590 
Q 3231 2300 2841 2188 
z
M 1259 4147 
L 1259 2491 
L 2053 2491 
Q 2509 2491 2742 2702 
Q 2975 2913 2975 3322 
Q 2975 3731 2742 3939 
Q 2509 4147 2053 4147 
L 1259 4147 
z
" transform="scale(0.015625)"/>
        <path id="DejaVuSans-4e" d="M 628 4666 
L 1478 4666 
L 3547 763 
L 3547 4666 
L 4159 4666 
L 4159 0 
L 3309 0 
L 1241 3903 
L 1241 0 
L 628 0 
L 628 4666 
z
" transform="scale(0.015625)"/>
        <path id="DejaVuSans-41" d="M 2188 4044 
L 1331 1722 
L 3047 1722 
L 2188 4044 
z
M 1831 4666 
L 2547 4666 
L 4325 0 
L 3669 0 
L 3244 1197 
L 1141 1197 
L 716 0 
L 50 0 
L 1831 4666 
z
" transform="scale(0.015625)"/>
        <path id="DejaVuSans-66" d="M 2375 4863 
L 2375 4384 
L 1825 4384 
Q 1516 4384 1395 4259 
Q 1275 4134 1275 3809 
L 1275 3500 
L 2222 3500 
L 2222 3053 
L 1275 3053 
L 1275 0 
L 697 0 
L 697 3053 
L 147 3053 
L 147 3500 
L 697 3500 
L 697 3744 
Q 697 4328 969 4595 
Q 1241 4863 1831 4863 
L 2375 4863 
z
" transform="scale(0.015625)"/>
        <path id="DejaVuSans-6f" d="M 1959 3097 
Q 1497 3097 1228 2736 
Q 959 2375 959 1747 
Q 959 1119 1226 758 
Q 1494 397 1959 397 
Q 2419 397 2687 759 
Q 2956 1122 2956 1747 
Q 2956 2369 2687 2733 
Q 2419 3097 1959 3097 
z
M 1959 3584 
Q 2709 3584 3137 3096 
Q 3566 2609 3566 1747 
Q 3566 888 3137 398 
Q 2709 -91 1959 -91 
Q 1206 -91 779 398 
Q 353 888 353 1747 
Q 353 2609 779 3096 
Q 1206 3584 1959 3584 
z
" transform="scale(0.015625)"/>
        <path id="DejaVuSans-6c" d="M 603 4863 
L 1178 4863 
L 1178 0 
L 603 0 
L 603 4863 
z
" transform="scale(0.015625)"/>
        <path id="DejaVuSans-64" d="M 2906 2969 
L 2906 4863 
L 3481 4863 
L 3481 0 
L 2906 0 
L 2906 525 
Q 2725 213 2448 61 
Q 2172 -91 1784 -91 
Q 1150 -91 751 415 
Q 353 922 353 1747 
Q 353 2572 751 3078 
Q 1150 3584 1784 3584 
Q 2172 3584 2448 3432 
Q 2725 3281 2906 2969 
z
M 947 1747 
Q 947 1113 1208 752 
Q 1469 391 1925 391 
Q 2381 391 2643 752 
Q 2906 1113 2906 1747 
Q 2906 2381 2643 2742 
Q 2381 3103 1925 3103 
Q 1469 3103 1208 2742 
Q 947 2381 947 1747 
z
" transform="scale(0.015625)"/>
       </defs>
       <use xlink:href="#DejaVuSans-52"/>
       <use xlink:href="#DejaVuSans-4e" x="69.482422"/>
       <use xlink:href="#DejaVuSans-41" x="144.287109"/>
       <use xlink:href="#DejaVuSans-66" x="209.070312"/>
       <use xlink:href="#DejaVuSans-6f" x="244.275391"/>
       <use xlink:href="#DejaVuSans-6c" x="305.457031"/>
       <use xlink:href="#DejaVuSans-64" x="333.240234"/>
      </g>
     </g>
    </g>
    <g id="xtick_2">
     <g id="text_2">
      <!-- IPknot -->
      <g style="fill: #262626" transform="translate(337.367813 401.177188)scale(0.18 -0.18)">
       <defs>
        <path id="DejaVuSans-49" d="M 628 4666 
L 1259 4666 
L 1259 0 
L 628 0 
L 628 4666 
z
" transform="scale(0.015625)"/>
        <path id="DejaVuSans-50" d="M 1259 4147 
L 1259 2394 
L 2053 2394 
Q 2494 2394 2734 2622 
Q 2975 2850 2975 3272 
Q 2975 3691 2734 3919 
Q 2494 4147 2053 4147 
L 1259 4147 
z
M 628 4666 
L 2053 4666 
Q 2838 4666 3239 4311 
Q 3641 3956 3641 3272 
Q 3641 2581 3239 2228 
Q 2838 1875 2053 1875 
L 1259 1875 
L 1259 0 
L 628 0 
L 628 4666 
z
" transform="scale(0.015625)"/>
        <path id="DejaVuSans-6b" d="M 581 4863 
L 1159 4863 
L 1159 1991 
L 2875 3500 
L 3609 3500 
L 1753 1863 
L 3688 0 
L 2938 0 
L 1159 1709 
L 1159 0 
L 581 0 
L 581 4863 
z
" transform="scale(0.015625)"/>
        <path id="DejaVuSans-6e" d="M 3513 2113 
L 3513 0 
L 2938 0 
L 2938 2094 
Q 2938 2591 2744 2837 
Q 2550 3084 2163 3084 
Q 1697 3084 1428 2787 
Q 1159 2491 1159 1978 
L 1159 0 
L 581 0 
L 581 3500 
L 1159 3500 
L 1159 2956 
Q 1366 3272 1645 3428 
Q 1925 3584 2291 3584 
Q 2894 3584 3203 3211 
Q 3513 2838 3513 2113 
z
" transform="scale(0.015625)"/>
        <path id="DejaVuSans-74" d="M 1172 4494 
L 1172 3500 
L 2356 3500 
L 2356 3053 
L 1172 3053 
L 1172 1153 
Q 1172 725 1289 603 
Q 1406 481 1766 481 
L 2356 481 
L 2356 0 
L 1766 0 
Q 1100 0 847 248 
Q 594 497 594 1153 
L 594 3053 
L 172 3053 
L 172 3500 
L 594 3500 
L 594 4494 
L 1172 4494 
z
" transform="scale(0.015625)"/>
       </defs>
       <use xlink:href="#DejaVuSans-49"/>
       <use xlink:href="#DejaVuSans-50" x="29.492188"/>
       <use xlink:href="#DejaVuSans-6b" x="89.794922"/>
       <use xlink:href="#DejaVuSans-6e" x="147.705078"/>
       <use xlink:href="#DejaVuSans-6f" x="211.083984"/>
       <use xlink:href="#DejaVuSans-74" x="272.265625"/>
      </g>
     </g>
    </g>
    <g id="xtick_3">
     <g id="text_3">
      <!-- ShapeKnots -->
      <g style="fill: #262626" transform="translate(423.486562 401.177188)scale(0.18 -0.18)">
       <defs>
        <path id="DejaVuSans-53" d="M 3425 4513 
L 3425 3897 
Q 3066 4069 2747 4153 
Q 2428 4238 2131 4238 
Q 1616 4238 1336 4038 
Q 1056 3838 1056 3469 
Q 1056 3159 1242 3001 
Q 1428 2844 1947 2747 
L 2328 2669 
Q 3034 2534 3370 2195 
Q 3706 1856 3706 1288 
Q 3706 609 3251 259 
Q 2797 -91 1919 -91 
Q 1588 -91 1214 -16 
Q 841 59 441 206 
L 441 856 
Q 825 641 1194 531 
Q 1563 422 1919 422 
Q 2459 422 2753 634 
Q 3047 847 3047 1241 
Q 3047 1584 2836 1778 
Q 2625 1972 2144 2069 
L 1759 2144 
Q 1053 2284 737 2584 
Q 422 2884 422 3419 
Q 422 4038 858 4394 
Q 1294 4750 2059 4750 
Q 2388 4750 2728 4690 
Q 3069 4631 3425 4513 
z
" transform="scale(0.015625)"/>
        <path id="DejaVuSans-68" d="M 3513 2113 
L 3513 0 
L 2938 0 
L 2938 2094 
Q 2938 2591 2744 2837 
Q 2550 3084 2163 3084 
Q 1697 3084 1428 2787 
Q 1159 2491 1159 1978 
L 1159 0 
L 581 0 
L 581 4863 
L 1159 4863 
L 1159 2956 
Q 1366 3272 1645 3428 
Q 1925 3584 2291 3584 
Q 2894 3584 3203 3211 
Q 3513 2838 3513 2113 
z
" transform="scale(0.015625)"/>
        <path id="DejaVuSans-61" d="M 2194 1759 
Q 1497 1759 1228 1600 
Q 959 1441 959 1056 
Q 959 750 1161 570 
Q 1363 391 1709 391 
Q 2188 391 2477 730 
Q 2766 1069 2766 1631 
L 2766 1759 
L 2194 1759 
z
M 3341 1997 
L 3341 0 
L 2766 0 
L 2766 531 
Q 2569 213 2275 61 
Q 1981 -91 1556 -91 
Q 1019 -91 701 211 
Q 384 513 384 1019 
Q 384 1609 779 1909 
Q 1175 2209 1959 2209 
L 2766 2209 
L 2766 2266 
Q 2766 2663 2505 2880 
Q 2244 3097 1772 3097 
Q 1472 3097 1187 3025 
Q 903 2953 641 2809 
L 641 3341 
Q 956 3463 1253 3523 
Q 1550 3584 1831 3584 
Q 2591 3584 2966 3190 
Q 3341 2797 3341 1997 
z
" transform="scale(0.015625)"/>
        <path id="DejaVuSans-70" d="M 1159 525 
L 1159 -1331 
L 581 -1331 
L 581 3500 
L 1159 3500 
L 1159 2969 
Q 1341 3281 1617 3432 
Q 1894 3584 2278 3584 
Q 2916 3584 3314 3078 
Q 3713 2572 3713 1747 
Q 3713 922 3314 415 
Q 2916 -91 2278 -91 
Q 1894 -91 1617 61 
Q 1341 213 1159 525 
z
M 3116 1747 
Q 3116 2381 2855 2742 
Q 2594 3103 2138 3103 
Q 1681 3103 1420 2742 
Q 1159 2381 1159 1747 
Q 1159 1113 1420 752 
Q 1681 391 2138 391 
Q 2594 391 2855 752 
Q 3116 1113 3116 1747 
z
" transform="scale(0.015625)"/>
        <path id="DejaVuSans-65" d="M 3597 1894 
L 3597 1613 
L 953 1613 
Q 991 1019 1311 708 
Q 1631 397 2203 397 
Q 2534 397 2845 478 
Q 3156 559 3463 722 
L 3463 178 
Q 3153 47 2828 -22 
Q 2503 -91 2169 -91 
Q 1331 -91 842 396 
Q 353 884 353 1716 
Q 353 2575 817 3079 
Q 1281 3584 2069 3584 
Q 2775 3584 3186 3129 
Q 3597 2675 3597 1894 
z
M 3022 2063 
Q 3016 2534 2758 2815 
Q 2500 3097 2075 3097 
Q 1594 3097 1305 2825 
Q 1016 2553 972 2059 
L 3022 2063 
z
" transform="scale(0.015625)"/>
        <path id="DejaVuSans-4b" d="M 628 4666 
L 1259 4666 
L 1259 2694 
L 3353 4666 
L 4166 4666 
L 1850 2491 
L 4331 0 
L 3500 0 
L 1259 2247 
L 1259 0 
L 628 0 
L 628 4666 
z
" transform="scale(0.015625)"/>
        <path id="DejaVuSans-73" d="M 2834 3397 
L 2834 2853 
Q 2591 2978 2328 3040 
Q 2066 3103 1784 3103 
Q 1356 3103 1142 2972 
Q 928 2841 928 2578 
Q 928 2378 1081 2264 
Q 1234 2150 1697 2047 
L 1894 2003 
Q 2506 1872 2764 1633 
Q 3022 1394 3022 966 
Q 3022 478 2636 193 
Q 2250 -91 1575 -91 
Q 1294 -91 989 -36 
Q 684 19 347 128 
L 347 722 
Q 666 556 975 473 
Q 1284 391 1588 391 
Q 1994 391 2212 530 
Q 2431 669 2431 922 
Q 2431 1156 2273 1281 
Q 2116 1406 1581 1522 
L 1381 1569 
Q 847 1681 609 1914 
Q 372 2147 372 2553 
Q 372 3047 722 3315 
Q 1072 3584 1716 3584 
Q 2034 3584 2315 3537 
Q 2597 3491 2834 3397 
z
" transform="scale(0.015625)"/>
       </defs>
       <use xlink:href="#DejaVuSans-53"/>
       <use xlink:href="#DejaVuSans-68" x="63.476562"/>
       <use xlink:href="#DejaVuSans-61" x="126.855469"/>
       <use xlink:href="#DejaVuSans-70" x="188.134766"/>
       <use xlink:href="#DejaVuSans-65" x="251.611328"/>
       <use xlink:href="#DejaVuSans-4b" x="313.134766"/>
       <use xlink:href="#DejaVuSans-6e" x="378.710938"/>
       <use xlink:href="#DejaVuSans-6f" x="442.089844"/>
       <use xlink:href="#DejaVuSans-74" x="503.271484"/>
       <use xlink:href="#DejaVuSans-73" x="542.480469"/>
      </g>
      <!-- top-1 -->
      <g style="fill: #262626" transform="translate(453.277969 421.33325)scale(0.18 -0.18)">
       <defs>
        <path id="DejaVuSans-2d" d="M 313 2009 
L 1997 2009 
L 1997 1497 
L 313 1497 
L 313 2009 
z
" transform="scale(0.015625)"/>
        <path id="DejaVuSans-31" d="M 794 531 
L 1825 531 
L 1825 4091 
L 703 3866 
L 703 4441 
L 1819 4666 
L 2450 4666 
L 2450 531 
L 3481 531 
L 3481 0 
L 794 0 
L 794 531 
z
" transform="scale(0.015625)"/>
       </defs>
       <use xlink:href="#DejaVuSans-74"/>
       <use xlink:href="#DejaVuSans-6f" x="39.208984"/>
       <use xlink:href="#DejaVuSans-70" x="100.390625"/>
       <use xlink:href="#DejaVuSans-2d" x="163.867188"/>
       <use xlink:href="#DejaVuSans-31" x="199.951172"/>
      </g>
     </g>
    </g>
    <g id="xtick_4">
     <g id="text_4">
      <!-- SQUARNA -->
      <g style="fill: #262626" transform="translate(543.915 401.177188)scale(0.18 -0.18)">
       <defs>
        <path id="DejaVuSans-51" d="M 2522 4238 
Q 1834 4238 1429 3725 
Q 1025 3213 1025 2328 
Q 1025 1447 1429 934 
Q 1834 422 2522 422 
Q 3209 422 3611 934 
Q 4013 1447 4013 2328 
Q 4013 3213 3611 3725 
Q 3209 4238 2522 4238 
z
M 3406 84 
L 4238 -825 
L 3475 -825 
L 2784 -78 
Q 2681 -84 2626 -87 
Q 2572 -91 2522 -91 
Q 1538 -91 948 567 
Q 359 1225 359 2328 
Q 359 3434 948 4092 
Q 1538 4750 2522 4750 
Q 3503 4750 4090 4092 
Q 4678 3434 4678 2328 
Q 4678 1516 4351 937 
Q 4025 359 3406 84 
z
" transform="scale(0.015625)"/>
        <path id="DejaVuSans-55" d="M 556 4666 
L 1191 4666 
L 1191 1831 
Q 1191 1081 1462 751 
Q 1734 422 2344 422 
Q 2950 422 3222 751 
Q 3494 1081 3494 1831 
L 3494 4666 
L 4128 4666 
L 4128 1753 
Q 4128 841 3676 375 
Q 3225 -91 2344 -91 
Q 1459 -91 1007 375 
Q 556 841 556 1753 
L 556 4666 
z
" transform="scale(0.015625)"/>
       </defs>
       <use xlink:href="#DejaVuSans-53"/>
       <use xlink:href="#DejaVuSans-51" x="63.476562"/>
       <use xlink:href="#DejaVuSans-55" x="142.1875"/>
       <use xlink:href="#DejaVuSans-41" x="215.380859"/>
       <use xlink:href="#DejaVuSans-52" x="283.789062"/>
       <use xlink:href="#DejaVuSans-4e" x="353.271484"/>
       <use xlink:href="#DejaVuSans-41" x="428.076172"/>
      </g>
      <!-- default -->
      <g style="fill: #262626" transform="translate(556.932656 421.33325)scale(0.18 -0.18)">
       <defs>
        <path id="DejaVuSans-75" d="M 544 1381 
L 544 3500 
L 1119 3500 
L 1119 1403 
Q 1119 906 1312 657 
Q 1506 409 1894 409 
Q 2359 409 2629 706 
Q 2900 1003 2900 1516 
L 2900 3500 
L 3475 3500 
L 3475 0 
L 2900 0 
L 2900 538 
Q 2691 219 2414 64 
Q 2138 -91 1772 -91 
Q 1169 -91 856 284 
Q 544 659 544 1381 
z
M 1991 3584 
L 1991 3584 
z
" transform="scale(0.015625)"/>
       </defs>
       <use xlink:href="#DejaVuSans-64"/>
       <use xlink:href="#DejaVuSans-65" x="63.476562"/>
       <use xlink:href="#DejaVuSans-66" x="125"/>
       <use xlink:href="#DejaVuSans-61" x="160.205078"/>
       <use xlink:href="#DejaVuSans-75" x="221.484375"/>
       <use xlink:href="#DejaVuSans-6c" x="284.863281"/>
       <use xlink:href="#DejaVuSans-74" x="312.646484"/>
      </g>
      <!-- top-1 -->
      <g style="fill: #262626" transform="translate(564.877969 441.489312)scale(0.18 -0.18)">
       <use xlink:href="#DejaVuSans-74"/>
       <use xlink:href="#DejaVuSans-6f" x="39.208984"/>
       <use xlink:href="#DejaVuSans-70" x="100.390625"/>
       <use xlink:href="#DejaVuSans-2d" x="163.867188"/>
       <use xlink:href="#DejaVuSans-31" x="199.951172"/>
      </g>
     </g>
    </g>
    <g id="xtick_5">
     <g id="text_5">
      <!-- SQUARNA -->
      <g style="fill: #262626" transform="translate(655.515 401.177188)scale(0.18 -0.18)">
       <use xlink:href="#DejaVuSans-53"/>
       <use xlink:href="#DejaVuSans-51" x="63.476562"/>
       <use xlink:href="#DejaVuSans-55" x="142.1875"/>
       <use xlink:href="#DejaVuSans-41" x="215.380859"/>
       <use xlink:href="#DejaVuSans-52" x="283.789062"/>
       <use xlink:href="#DejaVuSans-4e" x="353.271484"/>
       <use xlink:href="#DejaVuSans-41" x="428.076172"/>
      </g>
      <!-- alternative -->
      <g style="fill: #262626" transform="translate(651.463594 421.33325)scale(0.18 -0.18)">
       <defs>
        <path id="DejaVuSans-72" d="M 2631 2963 
Q 2534 3019 2420 3045 
Q 2306 3072 2169 3072 
Q 1681 3072 1420 2755 
Q 1159 2438 1159 1844 
L 1159 0 
L 581 0 
L 581 3500 
L 1159 3500 
L 1159 2956 
Q 1341 3275 1631 3429 
Q 1922 3584 2338 3584 
Q 2397 3584 2469 3576 
Q 2541 3569 2628 3553 
L 2631 2963 
z
" transform="scale(0.015625)"/>
        <path id="DejaVuSans-69" d="M 603 3500 
L 1178 3500 
L 1178 0 
L 603 0 
L 603 3500 
z
M 603 4863 
L 1178 4863 
L 1178 4134 
L 603 4134 
L 603 4863 
z
" transform="scale(0.015625)"/>
        <path id="DejaVuSans-76" d="M 191 3500 
L 800 3500 
L 1894 563 
L 2988 3500 
L 3597 3500 
L 2284 0 
L 1503 0 
L 191 3500 
z
" transform="scale(0.015625)"/>
       </defs>
       <use xlink:href="#DejaVuSans-61"/>
       <use xlink:href="#DejaVuSans-6c" x="61.279297"/>
       <use xlink:href="#DejaVuSans-74" x="89.0625"/>
       <use xlink:href="#DejaVuSans-65" x="128.271484"/>
       <use xlink:href="#DejaVuSans-72" x="189.794922"/>
       <use xlink:href="#DejaVuSans-6e" x="229.158203"/>
       <use xlink:href="#DejaVuSans-61" x="292.537109"/>
       <use xlink:href="#DejaVuSans-74" x="353.816406"/>
       <use xlink:href="#DejaVuSans-69" x="393.025391"/>
       <use xlink:href="#DejaVuSans-76" x="420.808594"/>
       <use xlink:href="#DejaVuSans-65" x="479.988281"/>
      </g>
      <!-- top-1 -->
      <g style="fill: #262626" transform="translate(676.477969 441.489312)scale(0.18 -0.18)">
       <use xlink:href="#DejaVuSans-74"/>
       <use xlink:href="#DejaVuSans-6f" x="39.208984"/>
       <use xlink:href="#DejaVuSans-70" x="100.390625"/>
       <use xlink:href="#DejaVuSans-2d" x="163.867188"/>
       <use xlink:href="#DejaVuSans-31" x="199.951172"/>
      </g>
     </g>
    </g>
    <g id="xtick_6">
     <g id="text_6">
      <!-- RNAsubopt -->
      <g style="fill: #262626" transform="translate(761.802187 401.177188)scale(0.18 -0.18)">
       <defs>
        <path id="DejaVuSans-62" d="M 3116 1747 
Q 3116 2381 2855 2742 
Q 2594 3103 2138 3103 
Q 1681 3103 1420 2742 
Q 1159 2381 1159 1747 
Q 1159 1113 1420 752 
Q 1681 391 2138 391 
Q 2594 391 2855 752 
Q 3116 1113 3116 1747 
z
M 1159 2969 
Q 1341 3281 1617 3432 
Q 1894 3584 2278 3584 
Q 2916 3584 3314 3078 
Q 3713 2572 3713 1747 
Q 3713 922 3314 415 
Q 2916 -91 2278 -91 
Q 1894 -91 1617 61 
Q 1341 213 1159 525 
L 1159 0 
L 581 0 
L 581 4863 
L 1159 4863 
L 1159 2969 
z
" transform="scale(0.015625)"/>
       </defs>
       <use xlink:href="#DejaVuSans-52"/>
       <use xlink:href="#DejaVuSans-4e" x="69.482422"/>
       <use xlink:href="#DejaVuSans-41" x="144.287109"/>
       <use xlink:href="#DejaVuSans-73" x="212.695312"/>
       <use xlink:href="#DejaVuSans-75" x="264.794922"/>
       <use xlink:href="#DejaVuSans-62" x="328.173828"/>
       <use xlink:href="#DejaVuSans-6f" x="391.650391"/>
       <use xlink:href="#DejaVuSans-70" x="452.832031"/>
       <use xlink:href="#DejaVuSans-74" x="516.308594"/>
      </g>
      <!-- top-5 -->
      <g style="fill: #262626" transform="translate(788.077969 421.33325)scale(0.18 -0.18)">
       <defs>
        <path id="DejaVuSans-35" d="M 691 4666 
L 3169 4666 
L 3169 4134 
L 1269 4134 
L 1269 2991 
Q 1406 3038 1543 3061 
Q 1681 3084 1819 3084 
Q 2600 3084 3056 2656 
Q 3513 2228 3513 1497 
Q 3513 744 3044 326 
Q 2575 -91 1722 -91 
Q 1428 -91 1123 -41 
Q 819 9 494 109 
L 494 744 
Q 775 591 1075 516 
Q 1375 441 1709 441 
Q 2250 441 2565 725 
Q 2881 1009 2881 1497 
Q 2881 1984 2565 2268 
Q 2250 2553 1709 2553 
Q 1456 2553 1204 2497 
Q 953 2441 691 2322 
L 691 4666 
z
" transform="scale(0.015625)"/>
       </defs>
       <use xlink:href="#DejaVuSans-74"/>
       <use xlink:href="#DejaVuSans-6f" x="39.208984"/>
       <use xlink:href="#DejaVuSans-70" x="100.390625"/>
       <use xlink:href="#DejaVuSans-2d" x="163.867188"/>
       <use xlink:href="#DejaVuSans-35" x="199.951172"/>
      </g>
     </g>
    </g>
    <g id="xtick_7">
     <g id="text_7">
      <!-- ShapeKnots -->
      <g style="fill: #262626" transform="translate(869.886563 401.177188)scale(0.18 -0.18)">
       <use xlink:href="#DejaVuSans-53"/>
       <use xlink:href="#DejaVuSans-68" x="63.476562"/>
       <use xlink:href="#DejaVuSans-61" x="126.855469"/>
       <use xlink:href="#DejaVuSans-70" x="188.134766"/>
       <use xlink:href="#DejaVuSans-65" x="251.611328"/>
       <use xlink:href="#DejaVuSans-4b" x="313.134766"/>
       <use xlink:href="#DejaVuSans-6e" x="378.710938"/>
       <use xlink:href="#DejaVuSans-6f" x="442.089844"/>
       <use xlink:href="#DejaVuSans-74" x="503.271484"/>
       <use xlink:href="#DejaVuSans-73" x="542.480469"/>
      </g>
      <!-- top-5 -->
      <g style="fill: #262626" transform="translate(899.677969 421.33325)scale(0.18 -0.18)">
       <use xlink:href="#DejaVuSans-74"/>
       <use xlink:href="#DejaVuSans-6f" x="39.208984"/>
       <use xlink:href="#DejaVuSans-70" x="100.390625"/>
       <use xlink:href="#DejaVuSans-2d" x="163.867188"/>
       <use xlink:href="#DejaVuSans-35" x="199.951172"/>
      </g>
     </g>
    </g>
    <g id="xtick_8">
     <g id="text_8">
      <!-- MXfold2 -->
      <g style="fill: #262626" transform="translate(998.454375 401.177188)scale(0.18 -0.18)">
       <defs>
        <path id="DejaVuSans-4d" d="M 628 4666 
L 1569 4666 
L 2759 1491 
L 3956 4666 
L 4897 4666 
L 4897 0 
L 4281 0 
L 4281 4097 
L 3078 897 
L 2444 897 
L 1241 4097 
L 1241 0 
L 628 0 
L 628 4666 
z
" transform="scale(0.015625)"/>
        <path id="DejaVuSans-58" d="M 403 4666 
L 1081 4666 
L 2241 2931 
L 3406 4666 
L 4084 4666 
L 2584 2425 
L 4184 0 
L 3506 0 
L 2194 1984 
L 872 0 
L 191 0 
L 1856 2491 
L 403 4666 
z
" transform="scale(0.015625)"/>
        <path id="DejaVuSans-32" d="M 1228 531 
L 3431 531 
L 3431 0 
L 469 0 
L 469 531 
Q 828 903 1448 1529 
Q 2069 2156 2228 2338 
Q 2531 2678 2651 2914 
Q 2772 3150 2772 3378 
Q 2772 3750 2511 3984 
Q 2250 4219 1831 4219 
Q 1534 4219 1204 4116 
Q 875 4013 500 3803 
L 500 4441 
Q 881 4594 1212 4672 
Q 1544 4750 1819 4750 
Q 2544 4750 2975 4387 
Q 3406 4025 3406 3419 
Q 3406 3131 3298 2873 
Q 3191 2616 2906 2266 
Q 2828 2175 2409 1742 
Q 1991 1309 1228 531 
z
" transform="scale(0.015625)"/>
       </defs>
       <use xlink:href="#DejaVuSans-4d"/>
       <use xlink:href="#DejaVuSans-58" x="86.279297"/>
       <use xlink:href="#DejaVuSans-66" x="154.785156"/>
       <use xlink:href="#DejaVuSans-6f" x="189.990234"/>
       <use xlink:href="#DejaVuSans-6c" x="251.171875"/>
       <use xlink:href="#DejaVuSans-64" x="278.955078"/>
       <use xlink:href="#DejaVuSans-32" x="342.431641"/>
      </g>
     </g>
    </g>
    <g id="xtick_9">
     <g id="text_9">
      <!-- SPOT-RNA -->
      <g style="fill: #262626" transform="translate(1101.308906 401.177188)scale(0.18 -0.18)">
       <defs>
        <path id="DejaVuSans-4f" d="M 2522 4238 
Q 1834 4238 1429 3725 
Q 1025 3213 1025 2328 
Q 1025 1447 1429 934 
Q 1834 422 2522 422 
Q 3209 422 3611 934 
Q 4013 1447 4013 2328 
Q 4013 3213 3611 3725 
Q 3209 4238 2522 4238 
z
M 2522 4750 
Q 3503 4750 4090 4092 
Q 4678 3434 4678 2328 
Q 4678 1225 4090 567 
Q 3503 -91 2522 -91 
Q 1538 -91 948 565 
Q 359 1222 359 2328 
Q 359 3434 948 4092 
Q 1538 4750 2522 4750 
z
" transform="scale(0.015625)"/>
        <path id="DejaVuSans-54" d="M -19 4666 
L 3928 4666 
L 3928 4134 
L 2272 4134 
L 2272 0 
L 1638 0 
L 1638 4134 
L -19 4134 
L -19 4666 
z
" transform="scale(0.015625)"/>
       </defs>
       <use xlink:href="#DejaVuSans-53"/>
       <use xlink:href="#DejaVuSans-50" x="63.476562"/>
       <use xlink:href="#DejaVuSans-4f" x="123.779297"/>
       <use xlink:href="#DejaVuSans-54" x="202.490234"/>
       <use xlink:href="#DejaVuSans-2d" x="254.449219"/>
       <use xlink:href="#DejaVuSans-52" x="290.533203"/>
       <use xlink:href="#DejaVuSans-4e" x="360.015625"/>
       <use xlink:href="#DejaVuSans-41" x="434.820312"/>
      </g>
     </g>
    </g>
    <g id="xtick_10">
     <g id="text_10">
      <!-- SQUARNA -->
      <g style="fill: #262626" transform="translate(1213.515 401.177188)scale(0.18 -0.18)">
       <use xlink:href="#DejaVuSans-53"/>
       <use xlink:href="#DejaVuSans-51" x="63.476562"/>
       <use xlink:href="#DejaVuSans-55" x="142.1875"/>
       <use xlink:href="#DejaVuSans-41" x="215.380859"/>
       <use xlink:href="#DejaVuSans-52" x="283.789062"/>
       <use xlink:href="#DejaVuSans-4e" x="353.271484"/>
       <use xlink:href="#DejaVuSans-41" x="428.076172"/>
      </g>
      <!-- default -->
      <g style="fill: #262626" transform="translate(1226.532656 421.33325)scale(0.18 -0.18)">
       <use xlink:href="#DejaVuSans-64"/>
       <use xlink:href="#DejaVuSans-65" x="63.476562"/>
       <use xlink:href="#DejaVuSans-66" x="125"/>
       <use xlink:href="#DejaVuSans-61" x="160.205078"/>
       <use xlink:href="#DejaVuSans-75" x="221.484375"/>
       <use xlink:href="#DejaVuSans-6c" x="284.863281"/>
       <use xlink:href="#DejaVuSans-74" x="312.646484"/>
      </g>
      <!-- top-5 -->
      <g style="fill: #262626" transform="translate(1234.477969 441.489312)scale(0.18 -0.18)">
       <use xlink:href="#DejaVuSans-74"/>
       <use xlink:href="#DejaVuSans-6f" x="39.208984"/>
       <use xlink:href="#DejaVuSans-70" x="100.390625"/>
       <use xlink:href="#DejaVuSans-2d" x="163.867188"/>
       <use xlink:href="#DejaVuSans-35" x="199.951172"/>
      </g>
     </g>
    </g>
    <g id="xtick_11">
     <g id="text_11">
      <!-- SQUARNA -->
      <g style="fill: #262626" transform="translate(1325.115 401.177188)scale(0.18 -0.18)">
       <use xlink:href="#DejaVuSans-53"/>
       <use xlink:href="#DejaVuSans-51" x="63.476562"/>
       <use xlink:href="#DejaVuSans-55" x="142.1875"/>
       <use xlink:href="#DejaVuSans-41" x="215.380859"/>
       <use xlink:href="#DejaVuSans-52" x="283.789062"/>
       <use xlink:href="#DejaVuSans-4e" x="353.271484"/>
       <use xlink:href="#DejaVuSans-41" x="428.076172"/>
      </g>
      <!-- alternative -->
      <g style="fill: #262626" transform="translate(1321.063594 421.33325)scale(0.18 -0.18)">
       <use xlink:href="#DejaVuSans-61"/>
       <use xlink:href="#DejaVuSans-6c" x="61.279297"/>
       <use xlink:href="#DejaVuSans-74" x="89.0625"/>
       <use xlink:href="#DejaVuSans-65" x="128.271484"/>
       <use xlink:href="#DejaVuSans-72" x="189.794922"/>
       <use xlink:href="#DejaVuSans-6e" x="229.158203"/>
       <use xlink:href="#DejaVuSans-61" x="292.537109"/>
       <use xlink:href="#DejaVuSans-74" x="353.816406"/>
       <use xlink:href="#DejaVuSans-69" x="393.025391"/>
       <use xlink:href="#DejaVuSans-76" x="420.808594"/>
       <use xlink:href="#DejaVuSans-65" x="479.988281"/>
      </g>
      <!-- top-5 -->
      <g style="fill: #262626" transform="translate(1346.077969 441.489312)scale(0.18 -0.18)">
       <use xlink:href="#DejaVuSans-74"/>
       <use xlink:href="#DejaVuSans-6f" x="39.208984"/>
       <use xlink:href="#DejaVuSans-70" x="100.390625"/>
       <use xlink:href="#DejaVuSans-2d" x="163.867188"/>
       <use xlink:href="#DejaVuSans-35" x="199.951172"/>
      </g>
     </g>
    </g>
   </g>
   <g id="matplotlib.axis_2">
    <g id="ytick_1">
     <g id="line2d_1">
      <path d="M 198 312.768 
L 1425.6 312.768 
" clip-path="url(#p4035be07c5)" style="fill: none; stroke: #cccccc; stroke-linecap: round"/>
     </g>
     <g id="text_12">
      <!-- 0.6 -->
      <g style="fill: #262626" transform="translate(166.235625 318.086906)scale(0.14 -0.14)">
       <defs>
        <path id="DejaVuSans-30" d="M 2034 4250 
Q 1547 4250 1301 3770 
Q 1056 3291 1056 2328 
Q 1056 1369 1301 889 
Q 1547 409 2034 409 
Q 2525 409 2770 889 
Q 3016 1369 3016 2328 
Q 3016 3291 2770 3770 
Q 2525 4250 2034 4250 
z
M 2034 4750 
Q 2819 4750 3233 4129 
Q 3647 3509 3647 2328 
Q 3647 1150 3233 529 
Q 2819 -91 2034 -91 
Q 1250 -91 836 529 
Q 422 1150 422 2328 
Q 422 3509 836 4129 
Q 1250 4750 2034 4750 
z
" transform="scale(0.015625)"/>
        <path id="DejaVuSans-2e" d="M 684 794 
L 1344 794 
L 1344 0 
L 684 0 
L 684 794 
z
" transform="scale(0.015625)"/>
        <path id="DejaVuSans-36" d="M 2113 2584 
Q 1688 2584 1439 2293 
Q 1191 2003 1191 1497 
Q 1191 994 1439 701 
Q 1688 409 2113 409 
Q 2538 409 2786 701 
Q 3034 994 3034 1497 
Q 3034 2003 2786 2293 
Q 2538 2584 2113 2584 
z
M 3366 4563 
L 3366 3988 
Q 3128 4100 2886 4159 
Q 2644 4219 2406 4219 
Q 1781 4219 1451 3797 
Q 1122 3375 1075 2522 
Q 1259 2794 1537 2939 
Q 1816 3084 2150 3084 
Q 2853 3084 3261 2657 
Q 3669 2231 3669 1497 
Q 3669 778 3244 343 
Q 2819 -91 2113 -91 
Q 1303 -91 875 529 
Q 447 1150 447 2328 
Q 447 3434 972 4092 
Q 1497 4750 2381 4750 
Q 2619 4750 2861 4703 
Q 3103 4656 3366 4563 
z
" transform="scale(0.015625)"/>
       </defs>
       <use xlink:href="#DejaVuSans-30"/>
       <use xlink:href="#DejaVuSans-2e" x="63.623047"/>
       <use xlink:href="#DejaVuSans-36" x="95.410156"/>
      </g>
     </g>
    </g>
    <g id="ytick_2">
     <g id="line2d_2">
      <path d="M 198 182.304 
L 1425.6 182.304 
" clip-path="url(#p4035be07c5)" style="fill: none; stroke: #cccccc; stroke-linecap: round"/>
     </g>
     <g id="text_13">
      <!-- 0.8 -->
      <g style="fill: #262626" transform="translate(166.235625 187.622906)scale(0.14 -0.14)">
       <defs>
        <path id="DejaVuSans-38" d="M 2034 2216 
Q 1584 2216 1326 1975 
Q 1069 1734 1069 1313 
Q 1069 891 1326 650 
Q 1584 409 2034 409 
Q 2484 409 2743 651 
Q 3003 894 3003 1313 
Q 3003 1734 2745 1975 
Q 2488 2216 2034 2216 
z
M 1403 2484 
Q 997 2584 770 2862 
Q 544 3141 544 3541 
Q 544 4100 942 4425 
Q 1341 4750 2034 4750 
Q 2731 4750 3128 4425 
Q 3525 4100 3525 3541 
Q 3525 3141 3298 2862 
Q 3072 2584 2669 2484 
Q 3125 2378 3379 2068 
Q 3634 1759 3634 1313 
Q 3634 634 3220 271 
Q 2806 -91 2034 -91 
Q 1263 -91 848 271 
Q 434 634 434 1313 
Q 434 1759 690 2068 
Q 947 2378 1403 2484 
z
M 1172 3481 
Q 1172 3119 1398 2916 
Q 1625 2713 2034 2713 
Q 2441 2713 2670 2916 
Q 2900 3119 2900 3481 
Q 2900 3844 2670 4047 
Q 2441 4250 2034 4250 
Q 1625 4250 1398 4047 
Q 1172 3844 1172 3481 
z
" transform="scale(0.015625)"/>
       </defs>
       <use xlink:href="#DejaVuSans-30"/>
       <use xlink:href="#DejaVuSans-2e" x="63.623047"/>
       <use xlink:href="#DejaVuSans-38" x="95.410156"/>
      </g>
     </g>
    </g>
    <g id="ytick_3">
     <g id="line2d_3">
      <path d="M 198 51.84 
L 1425.6 51.84 
" clip-path="url(#p4035be07c5)" style="fill: none; stroke: #cccccc; stroke-linecap: round"/>
     </g>
     <g id="text_14">
      <!-- 1.0 -->
      <g style="fill: #262626" transform="translate(166.235625 57.158906)scale(0.14 -0.14)">
       <use xlink:href="#DejaVuSans-31"/>
       <use xlink:href="#DejaVuSans-2e" x="63.623047"/>
       <use xlink:href="#DejaVuSans-30" x="95.410156"/>
      </g>
     </g>
    </g>
    <g id="text_15">
     <!-- F-score -->
     <g style="fill: #262626" transform="translate(158.07625 251.145)rotate(-90)scale(0.2 -0.2)">
      <defs>
       <path id="DejaVuSans-46" d="M 628 4666 
L 3309 4666 
L 3309 4134 
L 1259 4134 
L 1259 2759 
L 3109 2759 
L 3109 2228 
L 1259 2228 
L 1259 0 
L 628 0 
L 628 4666 
z
" transform="scale(0.015625)"/>
       <path id="DejaVuSans-63" d="M 3122 3366 
L 3122 2828 
Q 2878 2963 2633 3030 
Q 2388 3097 2138 3097 
Q 1578 3097 1268 2742 
Q 959 2388 959 1747 
Q 959 1106 1268 751 
Q 1578 397 2138 397 
Q 2388 397 2633 464 
Q 2878 531 3122 666 
L 3122 134 
Q 2881 22 2623 -34 
Q 2366 -91 2075 -91 
Q 1284 -91 818 406 
Q 353 903 353 1747 
Q 353 2603 823 3093 
Q 1294 3584 2113 3584 
Q 2378 3584 2631 3529 
Q 2884 3475 3122 3366 
z
" transform="scale(0.015625)"/>
      </defs>
      <use xlink:href="#DejaVuSans-46"/>
      <use xlink:href="#DejaVuSans-2d" x="57.519531"/>
      <use xlink:href="#DejaVuSans-73" x="93.603516"/>
      <use xlink:href="#DejaVuSans-63" x="145.703125"/>
      <use xlink:href="#DejaVuSans-6f" x="200.683594"/>
      <use xlink:href="#DejaVuSans-72" x="261.865234"/>
      <use xlink:href="#DejaVuSans-65" x="300.728516"/>
     </g>
    </g>
   </g>
   <g id="PolyCollection_1">
    <path d="M 259.315457 704.16 
L 248.284543 704.16 
L 248.274408 697.570909 
L 248.311207 690.981818 
L 248.392804 684.392727 
L 248.515749 677.803636 
L 248.675432 671.214545 
L 248.866287 664.625455 
L 249.082036 658.036364 
L 249.315948 651.447273 
L 249.561117 644.858182 
L 249.810723 638.269091 
L 250.058276 631.68 
L 250.29783 625.090909 
L 250.524145 618.501818 
L 250.73282 611.912727 
L 250.920362 605.323636 
L 251.084216 598.734545 
L 251.222751 592.145455 
L 251.335203 585.556364 
L 251.421594 578.967273 
L 251.482621 572.378182 
L 251.519539 565.789091 
L 251.534025 559.2 
L 251.528055 552.610909 
L 251.503778 546.021818 
L 251.463403 539.432727 
L 251.409106 532.843636 
L 251.342944 526.254545 
L 251.266796 519.665455 
L 251.182318 513.076364 
L 251.090918 506.487273 
L 250.993744 499.898182 
L 250.891687 493.309091 
L 250.785401 486.72 
L 250.675322 480.130909 
L 250.561704 473.541818 
L 250.444648 466.952727 
L 250.324144 460.363636 
L 250.200098 453.774545 
L 250.072368 447.185455 
L 249.940789 440.596364 
L 249.805189 434.007273 
L 249.665407 427.418182 
L 249.521298 420.829091 
L 249.372732 414.24 
L 249.219592 407.650909 
L 249.061759 401.061818 
L 248.899105 394.472727 
L 248.731475 387.883636 
L 248.55867 381.294545 
L 248.38043 374.705455 
L 248.196424 368.116364 
L 248.006233 361.527273 
L 247.809338 354.938182 
L 247.605113 348.349091 
L 247.392815 341.76 
L 247.171578 335.170909 
L 246.940405 328.581818 
L 246.698162 321.992727 
L 246.44357 315.403636 
L 246.175197 308.814545 
L 245.89145 302.225455 
L 245.590569 295.636364 
L 245.270624 289.047273 
L 244.929511 282.458182 
L 244.564964 275.869091 
L 244.174566 269.28 
L 243.755785 262.690909 
L 243.306008 256.101818 
L 242.82261 249.512727 
L 242.303024 242.923636 
L 241.744847 236.334545 
L 241.14595 229.745455 
L 240.504618 223.156364 
L 239.819698 216.567273 
L 239.090765 209.978182 
L 238.31829 203.389091 
L 237.503817 196.8 
L 236.650132 190.210909 
L 235.761413 183.621818 
L 234.84337 177.032727 
L 233.903342 170.443636 
L 232.95036 163.854545 
L 231.995149 157.265455 
L 231.050079 150.676364 
L 230.129037 144.087273 
L 229.247226 137.498182 
L 228.420881 130.909091 
L 227.666911 124.32 
L 227.00246 117.730909 
L 226.444407 111.141818 
L 226.008815 104.552727 
L 225.710354 97.963636 
L 225.561717 91.374545 
L 225.573069 84.785455 
L 225.75154 78.196364 
L 226.100821 71.607273 
L 226.620855 65.018182 
L 227.307686 58.429091 
L 228.153443 51.84 
L 279.446557 51.84 
L 279.446557 51.84 
L 280.292314 58.429091 
L 280.979145 65.018182 
L 281.499179 71.607273 
L 281.84846 78.196364 
L 282.026931 84.785455 
L 282.038283 91.374545 
L 281.889646 97.963636 
L 281.591185 104.552727 
L 281.155593 111.141818 
L 280.59754 117.730909 
L 279.933089 124.32 
L 279.179119 130.909091 
L 278.352774 137.498182 
L 277.470963 144.087273 
L 276.549921 150.676364 
L 275.604851 157.265455 
L 274.64964 163.854545 
L 273.696658 170.443636 
L 272.75663 177.032727 
L 271.838587 183.621818 
L 270.949868 190.210909 
L 270.096183 196.8 
L 269.28171 203.389091 
L 268.509235 209.978182 
L 267.780302 216.567273 
L 267.095382 223.156364 
L 266.45405 229.745455 
L 265.855153 236.334545 
L 265.296976 242.923636 
L 264.77739 249.512727 
L 264.293992 256.101818 
L 263.844215 262.690909 
L 263.425434 269.28 
L 263.035036 275.869091 
L 262.670489 282.458182 
L 262.329376 289.047273 
L 262.009431 295.636364 
L 261.70855 302.225455 
L 261.424803 308.814545 
L 261.15643 315.403636 
L 260.901838 321.992727 
L 260.659595 328.581818 
L 260.428422 335.170909 
L 260.207185 341.76 
L 259.994887 348.349091 
L 259.790662 354.938182 
L 259.593767 361.527273 
L 259.403576 368.116364 
L 259.21957 374.705455 
L 259.04133 381.294545 
L 258.868525 387.883636 
L 258.700895 394.472727 
L 258.538241 401.061818 
L 258.380408 407.650909 
L 258.227268 414.24 
L 258.078702 420.829091 
L 257.934593 427.418182 
L 257.794811 434.007273 
L 257.659211 440.596364 
L 257.527632 447.185455 
L 257.399902 453.774545 
L 257.275856 460.363636 
L 257.155352 466.952727 
L 257.038296 473.541818 
L 256.924678 480.130909 
L 256.814599 486.72 
L 256.708313 493.309091 
L 256.606256 499.898182 
L 256.509082 506.487273 
L 256.417682 513.076364 
L 256.333204 519.665455 
L 256.257056 526.254545 
L 256.190894 532.843636 
L 256.136597 539.432727 
L 256.096222 546.021818 
L 256.071945 552.610909 
L 256.065975 559.2 
L 256.080461 565.789091 
L 256.117379 572.378182 
L 256.178406 578.967273 
L 256.264797 585.556364 
L 256.377249 592.145455 
L 256.515784 598.734545 
L 256.679638 605.323636 
L 256.86718 611.912727 
L 257.075855 618.501818 
L 257.30217 625.090909 
L 257.541724 631.68 
L 257.789277 638.269091 
L 258.038883 644.858182 
L 258.284052 651.447273 
L 258.517964 658.036364 
L 258.733713 664.625455 
L 258.924568 671.214545 
L 259.084251 677.803636 
L 259.207196 684.392727 
L 259.288793 690.981818 
L 259.325592 697.570909 
L 259.315457 704.16 
z
" clip-path="url(#p4035be07c5)" style="fill: #d3d3d3; stroke: #7f7f7f; stroke-width: 3"/>
   </g>
   <g id="PolyCollection_2">
    <path d="M 369.293601 704.16 
L 361.506399 704.16 
L 361.491142 697.570909 
L 361.517387 690.981818 
L 361.582231 684.392727 
L 361.68125 677.803636 
L 361.808788 671.214545 
L 361.958315 664.625455 
L 362.122829 658.036364 
L 362.295269 651.447273 
L 362.468905 644.858182 
L 362.637681 638.269091 
L 362.796481 631.68 
L 362.941312 625.090909 
L 363.069391 618.501818 
L 363.179141 611.912727 
L 363.270106 605.323636 
L 363.342796 598.734545 
L 363.39848 592.145455 
L 363.438955 585.556364 
L 363.466297 578.967273 
L 363.482625 572.378182 
L 363.489885 565.789091 
L 363.489669 559.2 
L 363.483075 552.610909 
L 363.470614 546.021818 
L 363.452167 539.432727 
L 363.42699 532.843636 
L 363.393754 526.254545 
L 363.350641 519.665455 
L 363.295449 513.076364 
L 363.225743 506.487273 
L 363.139006 499.898182 
L 363.032812 493.309091 
L 362.904981 486.72 
L 362.753743 480.130909 
L 362.577871 473.541818 
L 362.376791 466.952727 
L 362.150664 460.363636 
L 361.900425 453.774545 
L 361.627782 447.185455 
L 361.335175 440.596364 
L 361.025689 434.007273 
L 360.70293 427.418182 
L 360.370864 420.829091 
L 360.033634 414.24 
L 359.695353 407.650909 
L 359.359893 401.061818 
L 359.030676 394.472727 
L 358.710479 387.883636 
L 358.401262 381.294545 
L 358.104041 374.705455 
L 357.818792 368.116364 
L 357.544413 361.527273 
L 357.27874 354.938182 
L 357.01862 348.349091 
L 356.760032 341.76 
L 356.498265 335.170909 
L 356.228133 328.581818 
L 355.944227 321.992727 
L 355.641175 315.403636 
L 355.313916 308.814545 
L 354.957961 302.225455 
L 354.569619 295.636364 
L 354.146186 289.047273 
L 353.686085 282.458182 
L 353.188926 275.869091 
L 352.655512 269.28 
L 352.087763 262.690909 
L 351.488585 256.101818 
L 350.86167 249.512727 
L 350.211265 242.923636 
L 349.541913 236.334545 
L 348.858191 229.745455 
L 348.164469 223.156364 
L 347.464708 216.567273 
L 346.762319 209.978182 
L 346.06009 203.389091 
L 345.360212 196.8 
L 344.664374 190.210909 
L 343.973962 183.621818 
L 343.29033 177.032727 
L 342.61513 170.443636 
L 341.950689 163.854545 
L 341.300396 157.265455 
L 340.669081 150.676364 
L 340.063324 144.087273 
L 339.491699 137.498182 
L 338.964875 130.909091 
L 338.495577 124.32 
L 338.098363 117.730909 
L 337.789212 111.141818 
L 337.584925 104.552727 
L 337.502355 97.963636 
L 337.557498 91.374545 
L 337.764505 84.785455 
L 338.134674 78.196364 
L 338.675508 71.607273 
L 339.389907 65.018182 
L 340.27558 58.429091 
L 341.324735 51.84 
L 389.475265 51.84 
L 389.475265 51.84 
L 390.52442 58.429091 
L 391.410093 65.018182 
L 392.124492 71.607273 
L 392.665326 78.196364 
L 393.035495 84.785455 
L 393.242502 91.374545 
L 393.297645 97.963636 
L 393.215075 104.552727 
L 393.010788 111.141818 
L 392.701637 117.730909 
L 392.304423 124.32 
L 391.835125 130.909091 
L 391.308301 137.498182 
L 390.736676 144.087273 
L 390.130919 150.676364 
L 389.499604 157.265455 
L 388.849311 163.854545 
L 388.18487 170.443636 
L 387.50967 177.032727 
L 386.826038 183.621818 
L 386.135626 190.210909 
L 385.439788 196.8 
L 384.73991 203.389091 
L 384.037681 209.978182 
L 383.335292 216.567273 
L 382.635531 223.156364 
L 381.941809 229.745455 
L 381.258087 236.334545 
L 380.588735 242.923636 
L 379.93833 249.512727 
L 379.311415 256.101818 
L 378.712237 262.690909 
L 378.144488 269.28 
L 377.611074 275.869091 
L 377.113915 282.458182 
L 376.653814 289.047273 
L 376.230381 295.636364 
L 375.842039 302.225455 
L 375.486084 308.814545 
L 375.158825 315.403636 
L 374.855773 321.992727 
L 374.571867 328.581818 
L 374.301735 335.170909 
L 374.039968 341.76 
L 373.78138 348.349091 
L 373.52126 354.938182 
L 373.255587 361.527273 
L 372.981208 368.116364 
L 372.695959 374.705455 
L 372.398738 381.294545 
L 372.089521 387.883636 
L 371.769324 394.472727 
L 371.440107 401.061818 
L 371.104647 407.650909 
L 370.766366 414.24 
L 370.429136 420.829091 
L 370.09707 427.418182 
L 369.774311 434.007273 
L 369.464825 440.596364 
L 369.172218 447.185455 
L 368.899575 453.774545 
L 368.649336 460.363636 
L 368.423209 466.952727 
L 368.222129 473.541818 
L 368.046257 480.130909 
L 367.895019 486.72 
L 367.767188 493.309091 
L 367.660994 499.898182 
L 367.574257 506.487273 
L 367.504551 513.076364 
L 367.449359 519.665455 
L 367.406246 526.254545 
L 367.37301 532.843636 
L 367.347833 539.432727 
L 367.329386 546.021818 
L 367.316925 552.610909 
L 367.310331 559.2 
L 367.310115 565.789091 
L 367.317375 572.378182 
L 367.333703 578.967273 
L 367.361045 585.556364 
L 367.40152 592.145455 
L 367.457204 598.734545 
L 367.529894 605.323636 
L 367.620859 611.912727 
L 367.730609 618.501818 
L 367.858688 625.090909 
L 368.003519 631.68 
L 368.162319 638.269091 
L 368.331095 644.858182 
L 368.504731 651.447273 
L 368.677171 658.036364 
L 368.841685 664.625455 
L 368.991212 671.214545 
L 369.11875 677.803636 
L 369.217769 684.392727 
L 369.282613 690.981818 
L 369.308858 697.570909 
L 369.293601 704.16 
z
" clip-path="url(#p4035be07c5)" style="fill: #d3d3d3; stroke: #7f7f7f; stroke-width: 3"/>
   </g>
   <g id="PolyCollection_3">
    <path d="M 482.259075 704.16 
L 471.740925 704.16 
L 471.73054 697.570909 
L 471.76716 690.981818 
L 471.848628 684.392727 
L 471.971429 677.803636 
L 472.130862 671.214545 
L 472.321255 664.625455 
L 472.536233 658.036364 
L 472.768995 651.447273 
L 473.012602 644.858182 
L 473.260253 638.269091 
L 473.505526 631.68 
L 473.742592 625.090909 
L 473.966366 618.501818 
L 474.17262 611.912727 
L 474.358031 605.323636 
L 474.520188 598.734545 
L 474.657543 592.145455 
L 474.769341 585.556364 
L 474.855505 578.967273 
L 474.916518 572.378182 
L 474.953289 565.789091 
L 474.967027 559.2 
L 474.959119 552.610909 
L 474.931025 546.021818 
L 474.884201 539.432727 
L 474.820033 532.843636 
L 474.739804 526.254545 
L 474.644676 519.665455 
L 474.535701 513.076364 
L 474.41384 506.487273 
L 474.279997 499.898182 
L 474.135061 493.309091 
L 473.979947 486.72 
L 473.815634 480.130909 
L 473.643196 473.541818 
L 473.463816 466.952727 
L 473.278794 460.363636 
L 473.08953 453.774545 
L 472.897495 447.185455 
L 472.704193 440.596364 
L 472.511098 434.007273 
L 472.319599 427.418182 
L 472.130928 420.829091 
L 471.946099 414.24 
L 471.765851 407.650909 
L 471.590597 401.061818 
L 471.420394 394.472727 
L 471.254932 387.883636 
L 471.093527 381.294545 
L 470.935154 374.705455 
L 470.778471 368.116364 
L 470.621878 361.527273 
L 470.463566 354.938182 
L 470.301581 348.349091 
L 470.13388 341.76 
L 469.958377 335.170909 
L 469.772989 328.581818 
L 469.575652 321.992727 
L 469.364334 315.403636 
L 469.13702 308.814545 
L 468.891696 302.225455 
L 468.626307 295.636364 
L 468.338721 289.047273 
L 468.026685 282.458182 
L 467.68779 275.869091 
L 467.319448 269.28 
L 466.918893 262.690909 
L 466.483198 256.101818 
L 466.009329 249.512727 
L 465.494235 242.923636 
L 464.934961 236.334545 
L 464.328808 229.745455 
L 463.673511 223.156364 
L 462.967452 216.567273 
L 462.209887 209.978182 
L 461.401176 203.389091 
L 460.543022 196.8 
L 459.638688 190.210909 
L 458.693187 183.621818 
L 457.713437 177.032727 
L 456.708352 170.443636 
L 455.688883 163.854545 
L 454.667965 157.265455 
L 453.660395 150.676364 
L 452.682609 144.087273 
L 451.752371 137.498182 
L 450.888375 130.909091 
L 450.109755 124.32 
L 449.435537 117.730909 
L 448.884026 111.141818 
L 448.47217 104.552727 
L 448.214912 97.963636 
L 448.124579 91.374545 
L 448.210315 84.785455 
L 448.477611 78.196364 
L 448.927953 71.607273 
L 449.558608 65.018182 
L 450.362575 58.429091 
L 451.32871 51.84 
L 502.67129 51.84 
L 502.67129 51.84 
L 503.637425 58.429091 
L 504.441392 65.018182 
L 505.072047 71.607273 
L 505.522389 78.196364 
L 505.789685 84.785455 
L 505.875421 91.374545 
L 505.785088 97.963636 
L 505.52783 104.552727 
L 505.115974 111.141818 
L 504.564463 117.730909 
L 503.890245 124.32 
L 503.111625 130.909091 
L 502.247629 137.498182 
L 501.317391 144.087273 
L 500.339605 150.676364 
L 499.332035 157.265455 
L 498.311117 163.854545 
L 497.291648 170.443636 
L 496.286563 177.032727 
L 495.306813 183.621818 
L 494.361312 190.210909 
L 493.456978 196.8 
L 492.598824 203.389091 
L 491.790113 209.978182 
L 491.032548 216.567273 
L 490.326489 223.156364 
L 489.671192 229.745455 
L 489.065039 236.334545 
L 488.505765 242.923636 
L 487.990671 249.512727 
L 487.516802 256.101818 
L 487.081107 262.690909 
L 486.680552 269.28 
L 486.31221 275.869091 
L 485.973315 282.458182 
L 485.661279 289.047273 
L 485.373693 295.636364 
L 485.108304 302.225455 
L 484.86298 308.814545 
L 484.635666 315.403636 
L 484.424348 321.992727 
L 484.227011 328.581818 
L 484.041623 335.170909 
L 483.86612 341.76 
L 483.698419 348.349091 
L 483.536434 354.938182 
L 483.378122 361.527273 
L 483.221529 368.116364 
L 483.064846 374.705455 
L 482.906473 381.294545 
L 482.745068 387.883636 
L 482.579606 394.472727 
L 482.409403 401.061818 
L 482.234149 407.650909 
L 482.053901 414.24 
L 481.869072 420.829091 
L 481.680401 427.418182 
L 481.488902 434.007273 
L 481.295807 440.596364 
L 481.102505 447.185455 
L 480.91047 453.774545 
L 480.721206 460.363636 
L 480.536184 466.952727 
L 480.356804 473.541818 
L 480.184366 480.130909 
L 480.020053 486.72 
L 479.864939 493.309091 
L 479.720003 499.898182 
L 479.58616 506.487273 
L 479.464299 513.076364 
L 479.355324 519.665455 
L 479.260196 526.254545 
L 479.179967 532.843636 
L 479.115799 539.432727 
L 479.068975 546.021818 
L 479.040881 552.610909 
L 479.032973 559.2 
L 479.046711 565.789091 
L 479.083482 572.378182 
L 479.144495 578.967273 
L 479.230659 585.556364 
L 479.342457 592.145455 
L 479.479812 598.734545 
L 479.641969 605.323636 
L 479.82738 611.912727 
L 480.033634 618.501818 
L 480.257408 625.090909 
L 480.494474 631.68 
L 480.739747 638.269091 
L 480.987398 644.858182 
L 481.231005 651.447273 
L 481.463767 658.036364 
L 481.678745 664.625455 
L 481.869138 671.214545 
L 482.028571 677.803636 
L 482.151372 684.392727 
L 482.23284 690.981818 
L 482.26946 697.570909 
L 482.259075 704.16 
z
" clip-path="url(#p4035be07c5)" style="fill: #d3d3d3; stroke: #7f7f7f; stroke-width: 3"/>
   </g>
   <g id="PolyCollection_4">
    <path d="M 591.994626 704.16 
L 585.205374 704.16 
L 585.193822 697.570909 
L 585.219725 690.981818 
L 585.280247 684.392727 
L 585.371102 677.803636 
L 585.486826 671.214545 
L 585.621134 664.625455 
L 585.767303 658.036364 
L 585.918578 651.447273 
L 586.068544 644.858182 
L 586.211457 638.269091 
L 586.34249 631.68 
L 586.457901 625.090909 
L 586.5551 618.501818 
L 586.632637 611.912727 
L 586.690099 605.323636 
L 586.727961 598.734545 
L 586.747377 592.145455 
L 586.749966 585.556364 
L 586.737589 578.967273 
L 586.712145 572.378182 
L 586.675392 565.789091 
L 586.628816 559.2 
L 586.573528 552.610909 
L 586.510223 546.021818 
L 586.439159 539.432727 
L 586.360188 532.843636 
L 586.2728 526.254545 
L 586.176194 519.665455 
L 586.069355 513.076364 
L 585.951141 506.487273 
L 585.820366 499.898182 
L 585.675869 493.309091 
L 585.51659 486.72 
L 585.341622 480.130909 
L 585.150261 473.541818 
L 584.942037 466.952727 
L 584.716753 460.363636 
L 584.474495 453.774545 
L 584.215656 447.185455 
L 583.940941 440.596364 
L 583.651376 434.007273 
L 583.348305 427.418182 
L 583.033381 420.829091 
L 582.708556 414.24 
L 582.37605 407.650909 
L 582.038318 401.061818 
L 581.697991 394.472727 
L 581.357817 387.883636 
L 581.020578 381.294545 
L 580.688997 374.705455 
L 580.365636 368.116364 
L 580.052784 361.527273 
L 579.752348 354.938182 
L 579.465747 348.349091 
L 579.193812 341.76 
L 578.936707 335.170909 
L 578.693871 328.581818 
L 578.463986 321.992727 
L 578.244976 315.403636 
L 578.034036 308.814545 
L 577.827695 302.225455 
L 577.621903 295.636364 
L 577.412149 289.047273 
L 577.193582 282.458182 
L 576.961153 275.869091 
L 576.709752 269.28 
L 576.434333 262.690909 
L 576.130032 256.101818 
L 575.79226 249.512727 
L 575.416781 242.923636 
L 574.999775 236.334545 
L 574.537881 229.745455 
L 574.028251 223.156364 
L 573.468596 216.567273 
L 572.857261 209.978182 
L 572.193315 203.389091 
L 571.476686 196.8 
L 570.708319 190.210909 
L 569.890384 183.621818 
L 569.026508 177.032727 
L 568.122024 170.443636 
L 567.184232 163.854545 
L 566.222638 157.265455 
L 565.24915 150.676364 
L 564.278201 144.087273 
L 563.326769 137.498182 
L 562.414258 130.909091 
L 561.562219 124.32 
L 560.793887 117.730909 
L 560.133526 111.141818 
L 559.605586 104.552727 
L 559.233704 97.963636 
L 559.039575 91.374545 
L 559.041781 84.785455 
L 559.254629 78.196364 
L 559.687102 71.607273 
L 560.342014 65.018182 
L 561.215434 58.429091 
L 562.296477 51.84 
L 614.903523 51.84 
L 614.903523 51.84 
L 615.984566 58.429091 
L 616.857986 65.018182 
L 617.512898 71.607273 
L 617.945371 78.196364 
L 618.158219 84.785455 
L 618.160425 91.374545 
L 617.966296 97.963636 
L 617.594414 104.552727 
L 617.066474 111.141818 
L 616.406113 117.730909 
L 615.637781 124.32 
L 614.785742 130.909091 
L 613.873231 137.498182 
L 612.921799 144.087273 
L 611.95085 150.676364 
L 610.977362 157.265455 
L 610.015768 163.854545 
L 609.077976 170.443636 
L 608.173492 177.032727 
L 607.309616 183.621818 
L 606.491681 190.210909 
L 605.723314 196.8 
L 605.006685 203.389091 
L 604.342739 209.978182 
L 603.731404 216.567273 
L 603.171749 223.156364 
L 602.662119 229.745455 
L 602.200225 236.334545 
L 601.783219 242.923636 
L 601.40774 249.512727 
L 601.069968 256.101818 
L 600.765667 262.690909 
L 600.490248 269.28 
L 600.238847 275.869091 
L 600.006418 282.458182 
L 599.787851 289.047273 
L 599.578097 295.636364 
L 599.372305 302.225455 
L 599.165964 308.814545 
L 598.955024 315.403636 
L 598.736014 321.992727 
L 598.506129 328.581818 
L 598.263293 335.170909 
L 598.006188 341.76 
L 597.734253 348.349091 
L 597.447652 354.938182 
L 597.147216 361.527273 
L 596.834364 368.116364 
L 596.511003 374.705455 
L 596.179422 381.294545 
L 595.842183 387.883636 
L 595.502009 394.472727 
L 595.161682 401.061818 
L 594.82395 407.650909 
L 594.491444 414.24 
L 594.166619 420.829091 
L 593.851695 427.418182 
L 593.548624 434.007273 
L 593.259059 440.596364 
L 592.984344 447.185455 
L 592.725505 453.774545 
L 592.483247 460.363636 
L 592.257963 466.952727 
L 592.049739 473.541818 
L 591.858378 480.130909 
L 591.68341 486.72 
L 591.524131 493.309091 
L 591.379634 499.898182 
L 591.248859 506.487273 
L 591.130645 513.076364 
L 591.023806 519.665455 
L 590.9272 526.254545 
L 590.839812 532.843636 
L 590.760841 539.432727 
L 590.689777 546.021818 
L 590.626472 552.610909 
L 590.571184 559.2 
L 590.524608 565.789091 
L 590.487855 572.378182 
L 590.462411 578.967273 
L 590.450034 585.556364 
L 590.452623 592.145455 
L 590.472039 598.734545 
L 590.509901 605.323636 
L 590.567363 611.912727 
L 590.6449 618.501818 
L 590.742099 625.090909 
L 590.85751 631.68 
L 590.988543 638.269091 
L 591.131456 644.858182 
L 591.281422 651.447273 
L 591.432697 658.036364 
L 591.578866 664.625455 
L 591.713174 671.214545 
L 591.828898 677.803636 
L 591.919753 684.392727 
L 591.980275 690.981818 
L 592.006178 697.570909 
L 591.994626 704.16 
z
" clip-path="url(#p4035be07c5)" style="fill: #d3d3d3; stroke: #7f7f7f; stroke-width: 3"/>
   </g>
   <g id="PolyCollection_5">
    <path d="M 704.573466 704.16 
L 695.826534 704.16 
L 695.774722 697.570909 
L 695.756699 690.981818 
L 695.770655 684.392727 
L 695.813747 677.803636 
L 695.882252 671.214545 
L 695.971783 664.625455 
L 696.077509 658.036364 
L 696.194401 651.447273 
L 696.317467 644.858182 
L 696.441967 638.269091 
L 696.563598 631.68 
L 696.678633 625.090909 
L 696.784019 618.501818 
L 696.877417 611.912727 
L 696.957206 605.323636 
L 697.022441 598.734545 
L 697.07277 592.145455 
L 697.10834 585.556364 
L 697.129676 578.967273 
L 697.137559 572.378182 
L 697.132904 565.789091 
L 697.116657 559.2 
L 697.089697 552.610909 
L 697.052767 546.021818 
L 697.006429 539.432727 
L 696.951036 532.843636 
L 696.886734 526.254545 
L 696.813476 519.665455 
L 696.731063 513.076364 
L 696.639182 506.487273 
L 696.537465 499.898182 
L 696.425538 493.309091 
L 696.303074 486.72 
L 696.169838 480.130909 
L 696.025718 473.541818 
L 695.870755 466.952727 
L 695.705152 460.363636 
L 695.529278 453.774545 
L 695.343664 447.185455 
L 695.148986 440.596364 
L 694.946056 434.007273 
L 694.735798 427.418182 
L 694.519233 420.829091 
L 694.297465 414.24 
L 694.071661 407.650909 
L 693.84304 401.061818 
L 693.612859 394.472727 
L 693.382389 387.883636 
L 693.152899 381.294545 
L 692.925621 374.705455 
L 692.701713 368.116364 
L 692.482217 361.527273 
L 692.267999 354.938182 
L 692.059696 348.349091 
L 691.857648 341.76 
L 691.66184 335.170909 
L 691.471845 328.581818 
L 691.286775 321.992727 
L 691.105242 315.403636 
L 690.925343 308.814545 
L 690.744647 302.225455 
L 690.560216 295.636364 
L 690.368631 289.047273 
L 690.166042 282.458182 
L 689.94823 275.869091 
L 689.710685 269.28 
L 689.448696 262.690909 
L 689.157451 256.101818 
L 688.832148 249.512727 
L 688.468116 242.923636 
L 688.060951 236.334545 
L 687.606654 229.745455 
L 687.101788 223.156364 
L 686.543649 216.567273 
L 685.930435 209.978182 
L 685.261436 203.389091 
L 684.537223 196.8 
L 683.759833 190.210909 
L 682.932949 183.621818 
L 682.062058 177.032727 
L 681.154579 170.443636 
L 680.219949 163.854545 
L 679.26965 157.265455 
L 678.317167 150.676364 
L 677.377865 144.087273 
L 676.468773 137.498182 
L 675.608267 130.909091 
L 674.815658 124.32 
L 674.11068 117.730909 
L 673.512893 111.141818 
L 673.041024 104.552727 
L 672.712258 97.963636 
L 672.541532 91.374545 
L 672.54085 84.785455 
L 672.718665 78.196364 
L 673.079375 71.607273 
L 673.622957 65.018182 
L 674.344781 58.429091 
L 675.235618 51.84 
L 725.164382 51.84 
L 725.164382 51.84 
L 726.055219 58.429091 
L 726.777043 65.018182 
L 727.320625 71.607273 
L 727.681335 78.196364 
L 727.85915 84.785455 
L 727.858468 91.374545 
L 727.687742 97.963636 
L 727.358976 104.552727 
L 726.887107 111.141818 
L 726.28932 117.730909 
L 725.584342 124.32 
L 724.791733 130.909091 
L 723.931227 137.498182 
L 723.022135 144.087273 
L 722.082833 150.676364 
L 721.13035 157.265455 
L 720.180051 163.854545 
L 719.245421 170.443636 
L 718.337942 177.032727 
L 717.467051 183.621818 
L 716.640167 190.210909 
L 715.862777 196.8 
L 715.138564 203.389091 
L 714.469565 209.978182 
L 713.856351 216.567273 
L 713.298212 223.156364 
L 712.793346 229.745455 
L 712.339049 236.334545 
L 711.931884 242.923636 
L 711.567852 249.512727 
L 711.242549 256.101818 
L 710.951304 262.690909 
L 710.689315 269.28 
L 710.45177 275.869091 
L 710.233958 282.458182 
L 710.031369 289.047273 
L 709.839784 295.636364 
L 709.655353 302.225455 
L 709.474657 308.814545 
L 709.294758 315.403636 
L 709.113225 321.992727 
L 708.928155 328.581818 
L 708.73816 335.170909 
L 708.542352 341.76 
L 708.340304 348.349091 
L 708.132001 354.938182 
L 707.917783 361.527273 
L 707.698287 368.116364 
L 707.474379 374.705455 
L 707.247101 381.294545 
L 707.017611 387.883636 
L 706.787141 394.472727 
L 706.55696 401.061818 
L 706.328339 407.650909 
L 706.102535 414.24 
L 705.880767 420.829091 
L 705.664202 427.418182 
L 705.453944 434.007273 
L 705.251014 440.596364 
L 705.056336 447.185455 
L 704.870722 453.774545 
L 704.694848 460.363636 
L 704.529245 466.952727 
L 704.374282 473.541818 
L 704.230162 480.130909 
L 704.096926 486.72 
L 703.974462 493.309091 
L 703.862535 499.898182 
L 703.760818 506.487273 
L 703.668937 513.076364 
L 703.586524 519.665455 
L 703.513266 526.254545 
L 703.448964 532.843636 
L 703.393571 539.432727 
L 703.347233 546.021818 
L 703.310303 552.610909 
L 703.283343 559.2 
L 703.267096 565.789091 
L 703.262441 572.378182 
L 703.270324 578.967273 
L 703.29166 585.556364 
L 703.32723 592.145455 
L 703.377559 598.734545 
L 703.442794 605.323636 
L 703.522583 611.912727 
L 703.615981 618.501818 
L 703.721367 625.090909 
L 703.836402 631.68 
L 703.958033 638.269091 
L 704.082533 644.858182 
L 704.205599 651.447273 
L 704.322491 658.036364 
L 704.428217 664.625455 
L 704.517748 671.214545 
L 704.586253 677.803636 
L 704.629345 684.392727 
L 704.643301 690.981818 
L 704.625278 697.570909 
L 704.573466 704.16 
z
" clip-path="url(#p4035be07c5)" style="fill: #d3d3d3; stroke: #7f7f7f; stroke-width: 3"/>
   </g>
   <g id="PolyCollection_6">
    <path d="M 815.792613 704.16 
L 807.807387 704.16 
L 807.812502 697.570909 
L 807.864132 690.981818 
L 807.959572 684.392727 
L 808.09453 677.803636 
L 808.2634 671.214545 
L 808.459602 664.625455 
L 808.675968 658.036364 
L 808.905127 651.447273 
L 809.139878 644.858182 
L 809.373502 638.269091 
L 809.60002 631.68 
L 809.814361 625.090909 
L 810.012453 618.501818 
L 810.191243 611.912727 
L 810.348646 605.323636 
L 810.483451 598.734545 
L 810.595191 592.145455 
L 810.684006 585.556364 
L 810.750504 578.967273 
L 810.795633 572.378182 
L 810.820585 565.789091 
L 810.826704 559.2 
L 810.815437 552.610909 
L 810.788293 546.021818 
L 810.746811 539.432727 
L 810.692546 532.843636 
L 810.627048 526.254545 
L 810.551837 519.665455 
L 810.468379 513.076364 
L 810.378053 506.487273 
L 810.282111 499.898182 
L 810.181644 493.309091 
L 810.077553 486.72 
L 809.970523 480.130909 
L 809.861014 473.541818 
L 809.749267 466.952727 
L 809.635321 460.363636 
L 809.519048 453.774545 
L 809.400186 447.185455 
L 809.278393 440.596364 
L 809.153283 434.007273 
L 809.024461 427.418182 
L 808.891553 420.829091 
L 808.754204 414.24 
L 808.612082 407.650909 
L 808.464848 401.061818 
L 808.31213 394.472727 
L 808.153483 387.883636 
L 807.988355 381.294545 
L 807.816063 374.705455 
L 807.635776 368.116364 
L 807.446522 361.527273 
L 807.247217 354.938182 
L 807.036708 348.349091 
L 806.813838 341.76 
L 806.577524 335.170909 
L 806.326826 328.581818 
L 806.061027 321.992727 
L 805.779683 315.403636 
L 805.482652 308.814545 
L 805.170094 302.225455 
L 804.842425 295.636364 
L 804.500229 289.047273 
L 804.14414 282.458182 
L 803.77467 275.869091 
L 803.392024 269.28 
L 802.995885 262.690909 
L 802.585208 256.101818 
L 802.158009 249.512727 
L 801.711206 242.923636 
L 801.240488 236.334545 
L 800.740258 229.745455 
L 800.203657 223.156364 
L 799.622678 216.567273 
L 798.988385 209.978182 
L 798.291241 203.389091 
L 797.521545 196.8 
L 796.669978 190.210909 
L 795.728248 183.621818 
L 794.689814 177.032727 
L 793.550659 170.443636 
L 792.310097 163.854545 
L 790.971554 157.265455 
L 789.543271 150.676364 
L 788.038885 144.087273 
L 786.477813 137.498182 
L 784.885372 130.909091 
L 783.292581 124.32 
L 781.735606 117.730909 
L 780.254804 111.141818 
L 778.893387 104.552727 
L 777.69572 97.963636 
L 776.705347 91.374545 
L 775.962828 84.785455 
L 775.503538 78.196364 
L 775.355574 71.607273 
L 775.537938 65.018182 
L 776.05914 58.429091 
L 776.916357 51.84 
L 846.683643 51.84 
L 846.683643 51.84 
L 847.54086 58.429091 
L 848.062062 65.018182 
L 848.244426 71.607273 
L 848.096462 78.196364 
L 847.637172 84.785455 
L 846.894653 91.374545 
L 845.90428 97.963636 
L 844.706613 104.552727 
L 843.345196 111.141818 
L 841.864394 117.730909 
L 840.307419 124.32 
L 838.714628 130.909091 
L 837.122187 137.498182 
L 835.561115 144.087273 
L 834.056729 150.676364 
L 832.628446 157.265455 
L 831.289903 163.854545 
L 830.049341 170.443636 
L 828.910186 177.032727 
L 827.871752 183.621818 
L 826.930022 190.210909 
L 826.078455 196.8 
L 825.308759 203.389091 
L 824.611615 209.978182 
L 823.977322 216.567273 
L 823.396343 223.156364 
L 822.859742 229.745455 
L 822.359512 236.334545 
L 821.888794 242.923636 
L 821.441991 249.512727 
L 821.014792 256.101818 
L 820.604115 262.690909 
L 820.207976 269.28 
L 819.82533 275.869091 
L 819.45586 282.458182 
L 819.099771 289.047273 
L 818.757575 295.636364 
L 818.429906 302.225455 
L 818.117348 308.814545 
L 817.820317 315.403636 
L 817.538973 321.992727 
L 817.273174 328.581818 
L 817.022476 335.170909 
L 816.786162 341.76 
L 816.563292 348.349091 
L 816.352783 354.938182 
L 816.153478 361.527273 
L 815.964224 368.116364 
L 815.783937 374.705455 
L 815.611645 381.294545 
L 815.446517 387.883636 
L 815.28787 394.472727 
L 815.135152 401.061818 
L 814.987918 407.650909 
L 814.845796 414.24 
L 814.708447 420.829091 
L 814.575539 427.418182 
L 814.446717 434.007273 
L 814.321607 440.596364 
L 814.199814 447.185455 
L 814.080952 453.774545 
L 813.964679 460.363636 
L 813.850733 466.952727 
L 813.738986 473.541818 
L 813.629477 480.130909 
L 813.522447 486.72 
L 813.418356 493.309091 
L 813.317889 499.898182 
L 813.221947 506.487273 
L 813.131621 513.076364 
L 813.048163 519.665455 
L 812.972952 526.254545 
L 812.907454 532.843636 
L 812.853189 539.432727 
L 812.811707 546.021818 
L 812.784563 552.610909 
L 812.773296 559.2 
L 812.779415 565.789091 
L 812.804367 572.378182 
L 812.849496 578.967273 
L 812.915994 585.556364 
L 813.004809 592.145455 
L 813.116549 598.734545 
L 813.251354 605.323636 
L 813.408757 611.912727 
L 813.587547 618.501818 
L 813.785639 625.090909 
L 813.99998 631.68 
L 814.226498 638.269091 
L 814.460122 644.858182 
L 814.694873 651.447273 
L 814.924032 658.036364 
L 815.140398 664.625455 
L 815.3366 671.214545 
L 815.50547 677.803636 
L 815.640428 684.392727 
L 815.735868 690.981818 
L 815.787498 697.570909 
L 815.792613 704.16 
z
" clip-path="url(#p4035be07c5)" style="fill: #d3d3d3; stroke: #7f7f7f; stroke-width: 3"/>
   </g>
   <g id="PolyCollection_7">
    <path d="M 928.361869 704.16 
L 918.438131 704.16 
L 918.452752 697.570909 
L 918.520588 690.981818 
L 918.638967 684.392727 
L 918.803568 677.803636 
L 919.008656 671.214545 
L 919.24738 664.625455 
L 919.512121 658.036364 
L 919.79485 651.447273 
L 920.087494 644.858182 
L 920.382263 638.269091 
L 920.671935 631.68 
L 920.950081 625.090909 
L 921.211219 618.501818 
L 921.4509 611.912727 
L 921.665738 605.323636 
L 921.853364 598.734545 
L 922.012355 592.145455 
L 922.142119 585.556364 
L 922.24276 578.967273 
L 922.314942 572.378182 
L 922.359752 565.789091 
L 922.378574 559.2 
L 922.372979 552.610909 
L 922.344642 546.021818 
L 922.295267 539.432727 
L 922.226543 532.843636 
L 922.140114 526.254545 
L 922.037562 519.665455 
L 921.920406 513.076364 
L 921.790104 506.487273 
L 921.648066 499.898182 
L 921.495662 493.309091 
L 921.334239 486.72 
L 921.165124 480.130909 
L 920.98963 473.541818 
L 920.809051 466.952727 
L 920.624653 460.363636 
L 920.437652 453.774545 
L 920.24919 447.185455 
L 920.060299 440.596364 
L 919.87186 434.007273 
L 919.684565 427.418182 
L 919.498869 420.829091 
L 919.314955 414.24 
L 919.132704 407.650909 
L 918.951675 401.061818 
L 918.771105 394.472727 
L 918.589921 387.883636 
L 918.406778 381.294545 
L 918.220104 374.705455 
L 918.028173 368.116364 
L 917.829173 361.527273 
L 917.621297 354.938182 
L 917.40281 348.349091 
L 917.172121 341.76 
L 916.927831 335.170909 
L 916.668753 328.581818 
L 916.393908 321.992727 
L 916.102487 315.403636 
L 915.79379 308.814545 
L 915.467125 302.225455 
L 915.121705 295.636364 
L 914.756527 289.047273 
L 914.370252 282.458182 
L 913.961101 275.869091 
L 913.526784 269.28 
L 913.06445 262.690909 
L 912.570703 256.101818 
L 912.041657 249.512727 
L 911.473053 242.923636 
L 910.860433 236.334545 
L 910.199371 229.745455 
L 909.485741 223.156364 
L 908.716037 216.567273 
L 907.887706 209.978182 
L 906.999496 203.389091 
L 906.051796 196.8 
L 905.046958 190.210909 
L 903.989575 183.621818 
L 902.8867 177.032727 
L 901.747999 170.443636 
L 900.585808 163.854545 
L 899.415099 157.265455 
L 898.253329 150.676364 
L 897.120179 144.087273 
L 896.037167 137.498182 
L 895.02715 130.909091 
L 894.113712 124.32 
L 893.320455 117.730909 
L 892.670221 111.141818 
L 892.184252 104.552727 
L 891.881345 97.963636 
L 891.777026 91.374545 
L 891.882794 84.785455 
L 892.205475 78.196364 
L 892.746732 71.607273 
L 893.502771 65.018182 
L 894.464266 58.429091 
L 895.61653 51.84 
L 951.18347 51.84 
L 951.18347 51.84 
L 952.335734 58.429091 
L 953.297229 65.018182 
L 954.053268 71.607273 
L 954.594525 78.196364 
L 954.917206 84.785455 
L 955.022974 91.374545 
L 954.918655 97.963636 
L 954.615748 104.552727 
L 954.129779 111.141818 
L 953.479545 117.730909 
L 952.686288 124.32 
L 951.77285 130.909091 
L 950.762833 137.498182 
L 949.679821 144.087273 
L 948.546671 150.676364 
L 947.384901 157.265455 
L 946.214192 163.854545 
L 945.052001 170.443636 
L 943.9133 177.032727 
L 942.810425 183.621818 
L 941.753042 190.210909 
L 940.748204 196.8 
L 939.800504 203.389091 
L 938.912294 209.978182 
L 938.083963 216.567273 
L 937.314259 223.156364 
L 936.600629 229.745455 
L 935.939567 236.334545 
L 935.326947 242.923636 
L 934.758343 249.512727 
L 934.229297 256.101818 
L 933.73555 262.690909 
L 933.273216 269.28 
L 932.838899 275.869091 
L 932.429748 282.458182 
L 932.043473 289.047273 
L 931.678295 295.636364 
L 931.332875 302.225455 
L 931.00621 308.814545 
L 930.697513 315.403636 
L 930.406092 321.992727 
L 930.131247 328.581818 
L 929.872169 335.170909 
L 929.627879 341.76 
L 929.39719 348.349091 
L 929.178703 354.938182 
L 928.970827 361.527273 
L 928.771827 368.116364 
L 928.579896 374.705455 
L 928.393222 381.294545 
L 928.210079 387.883636 
L 928.028895 394.472727 
L 927.848325 401.061818 
L 927.667296 407.650909 
L 927.485045 414.24 
L 927.301131 420.829091 
L 927.115435 427.418182 
L 926.92814 434.007273 
L 926.739701 440.596364 
L 926.55081 447.185455 
L 926.362348 453.774545 
L 926.175347 460.363636 
L 925.990949 466.952727 
L 925.81037 473.541818 
L 925.634876 480.130909 
L 925.465761 486.72 
L 925.304338 493.309091 
L 925.151934 499.898182 
L 925.009896 506.487273 
L 924.879594 513.076364 
L 924.762438 519.665455 
L 924.659886 526.254545 
L 924.573457 532.843636 
L 924.504733 539.432727 
L 924.455358 546.021818 
L 924.427021 552.610909 
L 924.421426 559.2 
L 924.440248 565.789091 
L 924.485058 572.378182 
L 924.55724 578.967273 
L 924.657881 585.556364 
L 924.787645 592.145455 
L 924.946636 598.734545 
L 925.134262 605.323636 
L 925.3491 611.912727 
L 925.588781 618.501818 
L 925.849919 625.090909 
L 926.128065 631.68 
L 926.417737 638.269091 
L 926.712506 644.858182 
L 927.00515 651.447273 
L 927.287879 658.036364 
L 927.55262 664.625455 
L 927.791344 671.214545 
L 927.996432 677.803636 
L 928.161033 684.392727 
L 928.279412 690.981818 
L 928.347248 697.570909 
L 928.361869 704.16 
z
" clip-path="url(#p4035be07c5)" style="fill: #d3d3d3; stroke: #7f7f7f; stroke-width: 3"/>
   </g>
   <g id="PolyCollection_8">
    <path d="M 1038.199283 704.16 
L 1031.800717 704.16 
L 1031.820777 697.570909 
L 1031.89007 690.981818 
L 1032.004655 684.392727 
L 1032.158467 677.803636 
L 1032.343785 671.214545 
L 1032.55182 664.625455 
L 1032.773348 658.036364 
L 1032.999331 651.447273 
L 1033.221461 644.858182 
L 1033.432598 638.269091 
L 1033.627052 631.68 
L 1033.800715 625.090909 
L 1033.951053 618.501818 
L 1034.076959 611.912727 
L 1034.178532 605.323636 
L 1034.256787 598.734545 
L 1034.313356 592.145455 
L 1034.350197 585.556364 
L 1034.369343 578.967273 
L 1034.372708 572.378182 
L 1034.361949 565.789091 
L 1034.338395 559.2 
L 1034.303026 552.610909 
L 1034.2565 546.021818 
L 1034.199211 539.432727 
L 1034.131372 532.843636 
L 1034.053102 526.254545 
L 1033.964514 519.665455 
L 1033.865798 513.076364 
L 1033.757282 506.487273 
L 1033.639482 499.898182 
L 1033.513118 493.309091 
L 1033.379116 486.72 
L 1033.238574 480.130909 
L 1033.092708 473.541818 
L 1032.942773 466.952727 
L 1032.789971 460.363636 
L 1032.635341 453.774545 
L 1032.479659 447.185455 
L 1032.323342 440.596364 
L 1032.166378 434.007273 
L 1032.00829 427.418182 
L 1031.84814 420.829091 
L 1031.684579 414.24 
L 1031.515944 407.650909 
L 1031.34039 401.061818 
L 1031.156052 394.472727 
L 1030.961215 387.883636 
L 1030.754473 381.294545 
L 1030.53486 374.705455 
L 1030.301939 368.116364 
L 1030.05582 361.527273 
L 1029.797121 354.938182 
L 1029.526852 348.349091 
L 1029.246237 341.76 
L 1028.956498 335.170909 
L 1028.658604 328.581818 
L 1028.353017 321.992727 
L 1028.039471 315.403636 
L 1027.716791 308.814545 
L 1027.382787 302.225455 
L 1027.034239 295.636364 
L 1026.666959 289.047273 
L 1026.27596 282.458182 
L 1025.855687 275.869091 
L 1025.40031 269.28 
L 1024.904037 262.690909 
L 1024.361431 256.101818 
L 1023.767682 249.512727 
L 1023.118826 242.923636 
L 1022.411878 236.334545 
L 1021.64488 229.745455 
L 1020.81687 223.156364 
L 1019.927781 216.567273 
L 1018.978302 209.978182 
L 1017.969722 203.389091 
L 1016.903814 196.8 
L 1015.782771 190.210909 
L 1014.609243 183.621818 
L 1013.386495 177.032727 
L 1012.118692 170.443636 
L 1010.811338 163.854545 
L 1009.471826 157.265455 
L 1008.110088 150.676364 
L 1006.739287 144.087273 
L 1005.376465 137.498182 
L 1004.043078 130.909091 
L 1002.765283 124.32 
L 1001.573885 117.730909 
L 1000.503838 111.141818 
L 999.593234 104.552727 
L 998.88175 97.963636 
L 998.408598 91.374545 
L 998.210077 84.785455 
L 998.316919 78.196364 
L 998.751649 71.607273 
L 999.52623 65.018182 
L 1000.640266 58.429091 
L 1002.080001 51.84 
L 1067.919999 51.84 
L 1067.919999 51.84 
L 1069.359734 58.429091 
L 1070.47377 65.018182 
L 1071.248351 71.607273 
L 1071.683081 78.196364 
L 1071.789923 84.785455 
L 1071.591402 91.374545 
L 1071.11825 97.963636 
L 1070.406766 104.552727 
L 1069.496162 111.141818 
L 1068.426115 117.730909 
L 1067.234717 124.32 
L 1065.956922 130.909091 
L 1064.623535 137.498182 
L 1063.260713 144.087273 
L 1061.889912 150.676364 
L 1060.528174 157.265455 
L 1059.188662 163.854545 
L 1057.881308 170.443636 
L 1056.613505 177.032727 
L 1055.390757 183.621818 
L 1054.217229 190.210909 
L 1053.096186 196.8 
L 1052.030278 203.389091 
L 1051.021698 209.978182 
L 1050.072219 216.567273 
L 1049.18313 223.156364 
L 1048.35512 229.745455 
L 1047.588122 236.334545 
L 1046.881174 242.923636 
L 1046.232318 249.512727 
L 1045.638569 256.101818 
L 1045.095963 262.690909 
L 1044.59969 269.28 
L 1044.144313 275.869091 
L 1043.72404 282.458182 
L 1043.333041 289.047273 
L 1042.965761 295.636364 
L 1042.617213 302.225455 
L 1042.283209 308.814545 
L 1041.960529 315.403636 
L 1041.646983 321.992727 
L 1041.341396 328.581818 
L 1041.043502 335.170909 
L 1040.753763 341.76 
L 1040.473148 348.349091 
L 1040.202879 354.938182 
L 1039.94418 361.527273 
L 1039.698061 368.116364 
L 1039.46514 374.705455 
L 1039.245527 381.294545 
L 1039.038785 387.883636 
L 1038.843948 394.472727 
L 1038.65961 401.061818 
L 1038.484056 407.650909 
L 1038.315421 414.24 
L 1038.15186 420.829091 
L 1037.99171 427.418182 
L 1037.833622 434.007273 
L 1037.676658 440.596364 
L 1037.520341 447.185455 
L 1037.364659 453.774545 
L 1037.210029 460.363636 
L 1037.057227 466.952727 
L 1036.907292 473.541818 
L 1036.761426 480.130909 
L 1036.620884 486.72 
L 1036.486882 493.309091 
L 1036.360518 499.898182 
L 1036.242718 506.487273 
L 1036.134202 513.076364 
L 1036.035486 519.665455 
L 1035.946898 526.254545 
L 1035.868628 532.843636 
L 1035.800789 539.432727 
L 1035.7435 546.021818 
L 1035.696974 552.610909 
L 1035.661605 559.2 
L 1035.638051 565.789091 
L 1035.627292 572.378182 
L 1035.630657 578.967273 
L 1035.649803 585.556364 
L 1035.686644 592.145455 
L 1035.743213 598.734545 
L 1035.821468 605.323636 
L 1035.923041 611.912727 
L 1036.048947 618.501818 
L 1036.199285 625.090909 
L 1036.372948 631.68 
L 1036.567402 638.269091 
L 1036.778539 644.858182 
L 1037.000669 651.447273 
L 1037.226652 658.036364 
L 1037.44818 664.625455 
L 1037.656215 671.214545 
L 1037.841533 677.803636 
L 1037.995345 684.392727 
L 1038.10993 690.981818 
L 1038.179223 697.570909 
L 1038.199283 704.16 
z
" clip-path="url(#p4035be07c5)" style="fill: #d3d3d3; stroke: #7f7f7f; stroke-width: 3"/>
   </g>
   <g id="PolyCollection_9">
    <path d="M 1149.522 704.16 
L 1143.678 704.16 
L 1143.686351 697.570909 
L 1143.734991 690.981818 
L 1143.820053 684.392727 
L 1143.935844 677.803636 
L 1144.075255 671.214545 
L 1144.230268 664.625455 
L 1144.392524 658.036364 
L 1144.553882 651.447273 
L 1144.706928 644.858182 
L 1144.845396 638.269091 
L 1144.964465 631.68 
L 1145.06092 625.090909 
L 1145.13318 618.501818 
L 1145.181201 611.912727 
L 1145.206269 605.323636 
L 1145.210731 598.734545 
L 1145.197675 592.145455 
L 1145.170599 585.556364 
L 1145.133099 578.967273 
L 1145.088588 572.378182 
L 1145.04008 565.789091 
L 1144.99003 559.2 
L 1144.940249 552.610909 
L 1144.891878 546.021818 
L 1144.845427 539.432727 
L 1144.800856 532.843636 
L 1144.757689 526.254545 
L 1144.715145 519.665455 
L 1144.672266 513.076364 
L 1144.628034 506.487273 
L 1144.58146 499.898182 
L 1144.531637 493.309091 
L 1144.477764 486.72 
L 1144.419133 480.130909 
L 1144.355093 473.541818 
L 1144.285 466.952727 
L 1144.208172 460.363636 
L 1144.123851 453.774545 
L 1144.031201 447.185455 
L 1143.929327 440.596364 
L 1143.817343 434.007273 
L 1143.694453 427.418182 
L 1143.560064 420.829091 
L 1143.413893 414.24 
L 1143.256059 407.650909 
L 1143.087149 401.061818 
L 1142.908224 394.472727 
L 1142.720783 387.883636 
L 1142.526653 381.294545 
L 1142.327836 374.705455 
L 1142.126307 368.116364 
L 1141.923796 361.527273 
L 1141.721559 354.938182 
L 1141.520167 348.349091 
L 1141.319338 341.76 
L 1141.117815 335.170909 
L 1140.913307 328.581818 
L 1140.702498 321.992727 
L 1140.481123 315.403636 
L 1140.244099 308.814545 
L 1139.985711 302.225455 
L 1139.699829 295.636364 
L 1139.380152 289.047273 
L 1139.020455 282.458182 
L 1138.614826 275.869091 
L 1138.157876 269.28 
L 1137.644916 262.690909 
L 1137.072076 256.101818 
L 1136.436375 249.512727 
L 1135.735728 242.923636 
L 1134.968903 236.334545 
L 1134.135433 229.745455 
L 1133.235499 223.156364 
L 1132.269803 216.567273 
L 1131.239468 209.978182 
L 1130.145968 203.389091 
L 1128.99113 196.8 
L 1127.777227 190.210909 
L 1126.507167 183.621818 
L 1125.1848 177.032727 
L 1123.815329 170.443636 
L 1122.405823 163.854545 
L 1120.965792 157.265455 
L 1119.507787 150.676364 
L 1118.047969 144.087273 
L 1116.606566 137.498182 
L 1115.208145 130.909091 
L 1113.881604 124.32 
L 1112.659811 117.730909 
L 1111.578823 111.141818 
L 1110.676654 104.552727 
L 1109.991616 97.963636 
L 1109.560285 91.374545 
L 1109.415213 84.785455 
L 1109.582568 78.196364 
L 1110.079895 71.607273 
L 1110.914224 65.018182 
L 1112.080747 58.429091 
L 1113.56222 51.84 
L 1179.63778 51.84 
L 1179.63778 51.84 
L 1181.119253 58.429091 
L 1182.285776 65.018182 
L 1183.120105 71.607273 
L 1183.617432 78.196364 
L 1183.784787 84.785455 
L 1183.639715 91.374545 
L 1183.208384 97.963636 
L 1182.523346 104.552727 
L 1181.621177 111.141818 
L 1180.540189 117.730909 
L 1179.318396 124.32 
L 1177.991855 130.909091 
L 1176.593434 137.498182 
L 1175.152031 144.087273 
L 1173.692213 150.676364 
L 1172.234208 157.265455 
L 1170.794177 163.854545 
L 1169.384671 170.443636 
L 1168.0152 177.032727 
L 1166.692833 183.621818 
L 1165.422773 190.210909 
L 1164.20887 196.8 
L 1163.054032 203.389091 
L 1161.960532 209.978182 
L 1160.930197 216.567273 
L 1159.964501 223.156364 
L 1159.064567 229.745455 
L 1158.231097 236.334545 
L 1157.464272 242.923636 
L 1156.763625 249.512727 
L 1156.127924 256.101818 
L 1155.555084 262.690909 
L 1155.042124 269.28 
L 1154.585174 275.869091 
L 1154.179545 282.458182 
L 1153.819848 289.047273 
L 1153.500171 295.636364 
L 1153.214289 302.225455 
L 1152.955901 308.814545 
L 1152.718877 315.403636 
L 1152.497502 321.992727 
L 1152.286693 328.581818 
L 1152.082185 335.170909 
L 1151.880662 341.76 
L 1151.679833 348.349091 
L 1151.478441 354.938182 
L 1151.276204 361.527273 
L 1151.073693 368.116364 
L 1150.872164 374.705455 
L 1150.673347 381.294545 
L 1150.479217 387.883636 
L 1150.291776 394.472727 
L 1150.112851 401.061818 
L 1149.943941 407.650909 
L 1149.786107 414.24 
L 1149.639936 420.829091 
L 1149.505547 427.418182 
L 1149.382657 434.007273 
L 1149.270673 440.596364 
L 1149.168799 447.185455 
L 1149.076149 453.774545 
L 1148.991828 460.363636 
L 1148.915 466.952727 
L 1148.844907 473.541818 
L 1148.780867 480.130909 
L 1148.722236 486.72 
L 1148.668363 493.309091 
L 1148.61854 499.898182 
L 1148.571966 506.487273 
L 1148.527734 513.076364 
L 1148.484855 519.665455 
L 1148.442311 526.254545 
L 1148.399144 532.843636 
L 1148.354573 539.432727 
L 1148.308122 546.021818 
L 1148.259751 552.610909 
L 1148.20997 559.2 
L 1148.15992 565.789091 
L 1148.111412 572.378182 
L 1148.066901 578.967273 
L 1148.029401 585.556364 
L 1148.002325 592.145455 
L 1147.989269 598.734545 
L 1147.993731 605.323636 
L 1148.018799 611.912727 
L 1148.06682 618.501818 
L 1148.13908 625.090909 
L 1148.235535 631.68 
L 1148.354604 638.269091 
L 1148.493072 644.858182 
L 1148.646118 651.447273 
L 1148.807476 658.036364 
L 1148.969732 664.625455 
L 1149.124745 671.214545 
L 1149.264156 677.803636 
L 1149.379947 684.392727 
L 1149.465009 690.981818 
L 1149.513649 697.570909 
L 1149.522 704.16 
z
" clip-path="url(#p4035be07c5)" style="fill: #d3d3d3; stroke: #7f7f7f; stroke-width: 3"/>
   </g>
   <g id="PolyCollection_10">
    <path d="M 1259.157864 704.16 
L 1257.242136 704.16 
L 1257.253082 697.570909 
L 1257.288124 690.981818 
L 1257.343756 684.392727 
L 1257.414798 677.803636 
L 1257.495017 671.214545 
L 1257.577862 664.625455 
L 1257.657173 658.036364 
L 1257.727797 651.447273 
L 1257.786006 644.858182 
L 1257.829709 638.269091 
L 1257.858433 631.68 
L 1257.873114 625.090909 
L 1257.875731 618.501818 
L 1257.868854 611.912727 
L 1257.855149 605.323636 
L 1257.836905 598.734545 
L 1257.815646 592.145455 
L 1257.791871 585.556364 
L 1257.764961 578.967273 
L 1257.733272 572.378182 
L 1257.694413 565.789091 
L 1257.64567 559.2 
L 1257.584509 552.610909 
L 1257.509087 546.021818 
L 1257.418677 539.432727 
L 1257.313915 532.843636 
L 1257.196837 526.254545 
L 1257.070677 519.665455 
L 1256.939455 513.076364 
L 1256.807438 506.487273 
L 1256.678566 499.898182 
L 1256.555932 493.309091 
L 1256.441422 486.72 
L 1256.335538 480.130909 
L 1256.237419 473.541818 
L 1256.145008 466.952727 
L 1256.055311 460.363636 
L 1255.964663 453.774545 
L 1255.868965 447.185455 
L 1255.763867 440.596364 
L 1255.644939 434.007273 
L 1255.507849 427.418182 
L 1255.348622 420.829091 
L 1255.163979 414.24 
L 1254.951745 407.650909 
L 1254.71125 401.061818 
L 1254.443609 394.472727 
L 1254.15178 387.883636 
L 1253.84033 381.294545 
L 1253.514884 374.705455 
L 1253.181342 368.116364 
L 1252.844994 361.527273 
L 1252.509716 354.938182 
L 1252.177422 348.349091 
L 1251.847878 341.76 
L 1251.518916 335.170909 
L 1251.186988 328.581818 
L 1250.847913 321.992727 
L 1250.497654 315.403636 
L 1250.132967 308.814545 
L 1249.751808 302.225455 
L 1249.353487 295.636364 
L 1248.938586 289.047273 
L 1248.508749 282.458182 
L 1248.066412 275.869091 
L 1247.61455 269.28 
L 1247.156422 262.690909 
L 1246.695276 256.101818 
L 1246.23393 249.512727 
L 1245.774145 242.923636 
L 1245.315779 236.334545 
L 1244.855767 229.745455 
L 1244.387084 223.156364 
L 1243.897904 216.567273 
L 1243.371195 209.978182 
L 1242.784983 203.389091 
L 1242.113388 196.8 
L 1241.328468 190.210909 
L 1240.402701 183.621818 
L 1239.311847 177.032727 
L 1238.037811 170.443636 
L 1236.571108 163.854545 
L 1234.912593 157.265455 
L 1233.074228 150.676364 
L 1231.078894 144.087273 
L 1228.959449 137.498182 
L 1226.757446 130.909091 
L 1224.521985 124.32 
L 1222.309125 117.730909 
L 1220.181995 111.141818 
L 1218.211369 104.552727 
L 1216.476063 97.963636 
L 1215.062192 91.374545 
L 1214.060342 84.785455 
L 1213.56 78.196364 
L 1213.641252 71.607273 
L 1214.364598 65.018182 
L 1215.760502 58.429091 
L 1217.820768 51.84 
L 1298.579232 51.84 
L 1298.579232 51.84 
L 1300.639498 58.429091 
L 1302.035402 65.018182 
L 1302.758748 71.607273 
L 1302.84 78.196364 
L 1302.339658 84.785455 
L 1301.337808 91.374545 
L 1299.923937 97.963636 
L 1298.188631 104.552727 
L 1296.218005 111.141818 
L 1294.090875 117.730909 
L 1291.878015 124.32 
L 1289.642554 130.909091 
L 1287.440551 137.498182 
L 1285.321106 144.087273 
L 1283.325772 150.676364 
L 1281.487407 157.265455 
L 1279.828892 163.854545 
L 1278.362189 170.443636 
L 1277.088153 177.032727 
L 1275.997299 183.621818 
L 1275.071532 190.210909 
L 1274.286612 196.8 
L 1273.615017 203.389091 
L 1273.028805 209.978182 
L 1272.502096 216.567273 
L 1272.012916 223.156364 
L 1271.544233 229.745455 
L 1271.084221 236.334545 
L 1270.625855 242.923636 
L 1270.16607 249.512727 
L 1269.704724 256.101818 
L 1269.243578 262.690909 
L 1268.78545 269.28 
L 1268.333588 275.869091 
L 1267.891251 282.458182 
L 1267.461414 289.047273 
L 1267.046513 295.636364 
L 1266.648192 302.225455 
L 1266.267033 308.814545 
L 1265.902346 315.403636 
L 1265.552087 321.992727 
L 1265.213012 328.581818 
L 1264.881084 335.170909 
L 1264.552122 341.76 
L 1264.222578 348.349091 
L 1263.890284 354.938182 
L 1263.555006 361.527273 
L 1263.218658 368.116364 
L 1262.885116 374.705455 
L 1262.55967 381.294545 
L 1262.24822 387.883636 
L 1261.956391 394.472727 
L 1261.68875 401.061818 
L 1261.448255 407.650909 
L 1261.236021 414.24 
L 1261.051378 420.829091 
L 1260.892151 427.418182 
L 1260.755061 434.007273 
L 1260.636133 440.596364 
L 1260.531035 447.185455 
L 1260.435337 453.774545 
L 1260.344689 460.363636 
L 1260.254992 466.952727 
L 1260.162581 473.541818 
L 1260.064462 480.130909 
L 1259.958578 486.72 
L 1259.844068 493.309091 
L 1259.721434 499.898182 
L 1259.592562 506.487273 
L 1259.460545 513.076364 
L 1259.329323 519.665455 
L 1259.203163 526.254545 
L 1259.086085 532.843636 
L 1258.981323 539.432727 
L 1258.890913 546.021818 
L 1258.815491 552.610909 
L 1258.75433 559.2 
L 1258.705587 565.789091 
L 1258.666728 572.378182 
L 1258.635039 578.967273 
L 1258.608129 585.556364 
L 1258.584354 592.145455 
L 1258.563095 598.734545 
L 1258.544851 605.323636 
L 1258.531146 611.912727 
L 1258.524269 618.501818 
L 1258.526886 625.090909 
L 1258.541567 631.68 
L 1258.570291 638.269091 
L 1258.613994 644.858182 
L 1258.672203 651.447273 
L 1258.742827 658.036364 
L 1258.822138 664.625455 
L 1258.904983 671.214545 
L 1258.985202 677.803636 
L 1259.056244 684.392727 
L 1259.111876 690.981818 
L 1259.146918 697.570909 
L 1259.157864 704.16 
z
" clip-path="url(#p4035be07c5)" style="fill: #d3d3d3; stroke: #7f7f7f; stroke-width: 3"/>
   </g>
   <g id="PolyCollection_11">
    <path d="M 1371.996742 704.16 
L 1367.603258 704.16 
L 1367.581323 697.570909 
L 1367.588677 690.981818 
L 1367.622952 684.392727 
L 1367.680463 677.803636 
L 1367.756545 671.214545 
L 1367.845936 664.625455 
L 1367.943188 658.036364 
L 1368.043032 651.447273 
L 1368.140688 644.858182 
L 1368.232083 638.269091 
L 1368.313963 631.68 
L 1368.383924 625.090909 
L 1368.440361 618.501818 
L 1368.482363 611.912727 
L 1368.509589 605.323636 
L 1368.522134 598.734545 
L 1368.520417 592.145455 
L 1368.505091 585.556364 
L 1368.476991 578.967273 
L 1368.437092 572.378182 
L 1368.386503 565.789091 
L 1368.326455 559.2 
L 1368.258286 552.610909 
L 1368.183412 546.021818 
L 1368.103289 539.432727 
L 1368.019339 532.843636 
L 1367.932875 526.254545 
L 1367.84501 519.665455 
L 1367.756567 513.076364 
L 1367.668002 506.487273 
L 1367.579343 499.898182 
L 1367.490157 493.309091 
L 1367.399547 486.72 
L 1367.306178 480.130909 
L 1367.20833 473.541818 
L 1367.10398 466.952727 
L 1366.990888 460.363636 
L 1366.866715 453.774545 
L 1366.729134 447.185455 
L 1366.575955 440.596364 
L 1366.405254 434.007273 
L 1366.2155 427.418182 
L 1366.005686 420.829091 
L 1365.775443 414.24 
L 1365.525138 407.650909 
L 1365.255938 401.061818 
L 1364.969825 394.472727 
L 1364.669546 387.883636 
L 1364.358503 381.294545 
L 1364.040568 374.705455 
L 1363.719839 368.116364 
L 1363.400356 361.527273 
L 1363.085805 354.938182 
L 1362.779232 348.349091 
L 1362.482806 341.76 
L 1362.197645 335.170909 
L 1361.923731 328.581818 
L 1361.659907 321.992727 
L 1361.403953 315.403636 
L 1361.152721 308.814545 
L 1360.902304 302.225455 
L 1360.648224 295.636364 
L 1360.385602 289.047273 
L 1360.1093 282.458182 
L 1359.81403 275.869091 
L 1359.49442 269.28 
L 1359.145044 262.690909 
L 1358.760428 256.101818 
L 1358.335031 249.512727 
L 1357.863232 242.923636 
L 1357.33932 236.334545 
L 1356.757515 229.745455 
L 1356.112027 223.156364 
L 1355.397175 216.567273 
L 1354.607579 209.978182 
L 1353.738427 203.389091 
L 1352.785836 196.8 
L 1351.747274 190.210909 
L 1350.62206 183.621818 
L 1349.411889 177.032727 
L 1348.121368 170.443636 
L 1346.758525 163.854545 
L 1345.335262 157.265455 
L 1343.867715 150.676364 
L 1342.376503 144.087273 
L 1340.886824 137.498182 
L 1339.428373 130.909091 
L 1338.03504 124.32 
L 1336.744335 117.730909 
L 1335.596494 111.141818 
L 1334.633223 104.552727 
L 1333.896063 97.963636 
L 1333.424395 91.374545 
L 1333.253154 84.785455 
L 1333.410408 78.196364 
L 1333.914973 71.607273 
L 1334.774323 65.018182 
L 1335.983041 58.429091 
L 1337.522041 51.84 
L 1402.077959 51.84 
L 1402.077959 51.84 
L 1403.616959 58.429091 
L 1404.825677 65.018182 
L 1405.685027 71.607273 
L 1406.189592 78.196364 
L 1406.346846 84.785455 
L 1406.175605 91.374545 
L 1405.703937 97.963636 
L 1404.966777 104.552727 
L 1404.003506 111.141818 
L 1402.855665 117.730909 
L 1401.56496 124.32 
L 1400.171627 130.909091 
L 1398.713176 137.498182 
L 1397.223497 144.087273 
L 1395.732285 150.676364 
L 1394.264738 157.265455 
L 1392.841475 163.854545 
L 1391.478632 170.443636 
L 1390.188111 177.032727 
L 1388.97794 183.621818 
L 1387.852726 190.210909 
L 1386.814164 196.8 
L 1385.861573 203.389091 
L 1384.992421 209.978182 
L 1384.202825 216.567273 
L 1383.487973 223.156364 
L 1382.842485 229.745455 
L 1382.26068 236.334545 
L 1381.736768 242.923636 
L 1381.264969 249.512727 
L 1380.839572 256.101818 
L 1380.454956 262.690909 
L 1380.10558 269.28 
L 1379.78597 275.869091 
L 1379.4907 282.458182 
L 1379.214398 289.047273 
L 1378.951776 295.636364 
L 1378.697696 302.225455 
L 1378.447279 308.814545 
L 1378.196047 315.403636 
L 1377.940093 321.992727 
L 1377.676269 328.581818 
L 1377.402355 335.170909 
L 1377.117194 341.76 
L 1376.820768 348.349091 
L 1376.514195 354.938182 
L 1376.199644 361.527273 
L 1375.880161 368.116364 
L 1375.559432 374.705455 
L 1375.241497 381.294545 
L 1374.930454 387.883636 
L 1374.630175 394.472727 
L 1374.344062 401.061818 
L 1374.074862 407.650909 
L 1373.824557 414.24 
L 1373.594314 420.829091 
L 1373.3845 427.418182 
L 1373.194746 434.007273 
L 1373.024045 440.596364 
L 1372.870866 447.185455 
L 1372.733285 453.774545 
L 1372.609112 460.363636 
L 1372.49602 466.952727 
L 1372.39167 473.541818 
L 1372.293822 480.130909 
L 1372.200453 486.72 
L 1372.109843 493.309091 
L 1372.020657 499.898182 
L 1371.931998 506.487273 
L 1371.843433 513.076364 
L 1371.75499 519.665455 
L 1371.667125 526.254545 
L 1371.580661 532.843636 
L 1371.496711 539.432727 
L 1371.416588 546.021818 
L 1371.341714 552.610909 
L 1371.273545 559.2 
L 1371.213497 565.789091 
L 1371.162908 572.378182 
L 1371.123009 578.967273 
L 1371.094909 585.556364 
L 1371.079583 592.145455 
L 1371.077866 598.734545 
L 1371.090411 605.323636 
L 1371.117637 611.912727 
L 1371.159639 618.501818 
L 1371.216076 625.090909 
L 1371.286037 631.68 
L 1371.367917 638.269091 
L 1371.459312 644.858182 
L 1371.556968 651.447273 
L 1371.656812 658.036364 
L 1371.754064 664.625455 
L 1371.843455 671.214545 
L 1371.919537 677.803636 
L 1371.977048 684.392727 
L 1372.011323 690.981818 
L 1372.018677 697.570909 
L 1371.996742 704.16 
z
" clip-path="url(#p4035be07c5)" style="fill: #d3d3d3; stroke: #7f7f7f; stroke-width: 3"/>
   </g>
   <g id="line2d_4">
    <path d="M 253.8 433 
L 253.8 51.84 
" clip-path="url(#p4035be07c5)" style="fill: none; stroke: #7f7f7f; stroke-width: 3; stroke-linecap: round"/>
   </g>
   <g id="line2d_5">
    <path d="M 253.8 276.40116 
L 253.8 51.84 
" clip-path="url(#p4035be07c5)" style="fill: none; stroke: #7f7f7f; stroke-width: 9; stroke-linecap: round"/>
   </g>
   <g id="line2d_6">
    <path d="M 365.4 433 
L 365.4 51.84 
" clip-path="url(#p4035be07c5)" style="fill: none; stroke: #7f7f7f; stroke-width: 3; stroke-linecap: round"/>
   </g>
   <g id="line2d_7">
    <path d="M 365.4 269.06256 
L 365.4 72.225 
" clip-path="url(#p4035be07c5)" style="fill: none; stroke: #7f7f7f; stroke-width: 9; stroke-linecap: round"/>
   </g>
   <g id="line2d_8">
    <path d="M 477 433 
L 477 51.84 
" clip-path="url(#p4035be07c5)" style="fill: none; stroke: #7f7f7f; stroke-width: 3; stroke-linecap: round"/>
   </g>
   <g id="line2d_9">
    <path d="M 477 286.02288 
L 477 64.56024 
" clip-path="url(#p4035be07c5)" style="fill: none; stroke: #7f7f7f; stroke-width: 9; stroke-linecap: round"/>
   </g>
   <g id="line2d_10">
    <path d="M 588.6 433 
L 588.6 51.84 
" clip-path="url(#p4035be07c5)" style="fill: none; stroke: #7f7f7f; stroke-width: 3; stroke-linecap: round"/>
   </g>
   <g id="line2d_11">
    <path d="M 588.6 290.58912 
L 588.6 54.93852 
" clip-path="url(#p4035be07c5)" style="fill: none; stroke: #7f7f7f; stroke-width: 9; stroke-linecap: round"/>
   </g>
   <g id="line2d_12">
    <path d="M 700.2 433 
L 700.2 51.84 
" clip-path="url(#p4035be07c5)" style="fill: none; stroke: #7f7f7f; stroke-width: 3; stroke-linecap: round"/>
   </g>
   <g id="line2d_13">
    <path d="M 700.2 312.768 
L 700.2 51.84 
" clip-path="url(#p4035be07c5)" style="fill: none; stroke: #7f7f7f; stroke-width: 9; stroke-linecap: round"/>
   </g>
   <g id="line2d_14">
    <path d="M 811.8 433 
L 811.8 51.84 
" clip-path="url(#p4035be07c5)" style="fill: none; stroke: #7f7f7f; stroke-width: 3; stroke-linecap: round"/>
   </g>
   <g id="line2d_15">
    <path d="M 811.8 213.77844 
L 811.8 51.84 
" clip-path="url(#p4035be07c5)" style="fill: none; stroke: #7f7f7f; stroke-width: 9; stroke-linecap: round"/>
   </g>
   <g id="line2d_16">
    <path d="M 923.4 433 
L 923.4 51.84 
" clip-path="url(#p4035be07c5)" style="fill: none; stroke: #7f7f7f; stroke-width: 3; stroke-linecap: round"/>
   </g>
   <g id="line2d_17">
    <path d="M 923.4 249.00372 
L 923.4 54.93852 
" clip-path="url(#p4035be07c5)" style="fill: none; stroke: #7f7f7f; stroke-width: 9; stroke-linecap: round"/>
   </g>
   <g id="line2d_18">
    <path d="M 1035 429.53328 
L 1035 51.84 
" clip-path="url(#p4035be07c5)" style="fill: none; stroke: #7f7f7f; stroke-width: 3; stroke-linecap: round"/>
   </g>
   <g id="line2d_19">
    <path d="M 1035 204.48288 
L 1035 51.84 
" clip-path="url(#p4035be07c5)" style="fill: none; stroke: #7f7f7f; stroke-width: 9; stroke-linecap: round"/>
   </g>
   <g id="line2d_20">
    <path d="M 1146.6 430.83792 
L 1146.6 51.84 
" clip-path="url(#p4035be07c5)" style="fill: none; stroke: #7f7f7f; stroke-width: 3; stroke-linecap: round"/>
   </g>
   <g id="line2d_21">
    <path d="M 1146.6 207.41832 
L 1146.6 51.84 
" clip-path="url(#p4035be07c5)" style="fill: none; stroke: #7f7f7f; stroke-width: 9; stroke-linecap: round"/>
   </g>
   <g id="line2d_22">
    <path d="M 1258.2 433 
L 1258.2 51.84 
" clip-path="url(#p4035be07c5)" style="fill: none; stroke: #7f7f7f; stroke-width: 3; stroke-linecap: round"/>
   </g>
   <g id="line2d_23">
    <path d="M 1258.2 207.41832 
L 1258.2 51.84 
" clip-path="url(#p4035be07c5)" style="fill: none; stroke: #7f7f7f; stroke-width: 9; stroke-linecap: round"/>
   </g>
   <g id="line2d_24">
    <path d="M 1369.8 433 
L 1369.8 51.84 
" clip-path="url(#p4035be07c5)" style="fill: none; stroke: #7f7f7f; stroke-width: 3; stroke-linecap: round"/>
   </g>
   <g id="line2d_25">
    <path d="M 1369.8 214.92 
L 1369.8 51.84 
" clip-path="url(#p4035be07c5)" style="fill: none; stroke: #7f7f7f; stroke-width: 9; stroke-linecap: round"/>
   </g>
   <g id="patch_3">
    <path d="M 198 378 
L 1425.6 378 
" style="fill: none; stroke: #cccccc; stroke-width: 1.25; stroke-linejoin: miter; stroke-linecap: square"/>
   </g>
   <g id="PathCollection_1">
    <defs>
     <path id="m273e1ef3ba" d="M 0 3 
C 0.795609 3 1.55874 2.683901 2.12132 2.12132 
C 2.683901 1.55874 3 0.795609 3 0 
C 3 -0.795609 2.683901 -1.55874 2.12132 -2.12132 
C 1.55874 -2.683901 0.795609 -3 0 -3 
C -0.795609 -3 -1.55874 -2.683901 -2.12132 -2.12132 
C -2.683901 -1.55874 -3 -0.795609 -3 0 
C -3 0.795609 -2.683901 1.55874 -2.12132 2.12132 
C -1.55874 2.683901 -0.795609 3 0 3 
z
" style="stroke: #7f7f7f"/>
    </defs>
    <g clip-path="url(#p4035be07c5)">
     <use xlink:href="#m273e1ef3ba" x="253.8" y="124.24752" style="fill: #ffffff; stroke: #7f7f7f"/>
    </g>
   </g>
   <g id="PathCollection_2">
    <g clip-path="url(#p4035be07c5)">
     <use xlink:href="#m273e1ef3ba" x="365.4" y="154.90656" style="fill: #ffffff; stroke: #7f7f7f"/>
    </g>
   </g>
   <g id="PathCollection_3">
    <g clip-path="url(#p4035be07c5)">
     <use xlink:href="#m273e1ef3ba" x="477" y="124.24752" style="fill: #ffffff; stroke: #7f7f7f"/>
    </g>
   </g>
   <g id="PathCollection_4">
    <g clip-path="url(#p4035be07c5)">
     <use xlink:href="#m273e1ef3ba" x="588.6" y="142.83864" style="fill: #ffffff; stroke: #7f7f7f"/>
    </g>
   </g>
   <g id="PathCollection_5">
    <g clip-path="url(#p4035be07c5)">
     <use xlink:href="#m273e1ef3ba" x="700.2" y="137.62008" style="fill: #ffffff; stroke: #7f7f7f"/>
    </g>
   </g>
   <g id="PathCollection_6">
    <g clip-path="url(#p4035be07c5)">
     <use xlink:href="#m273e1ef3ba" x="811.8" y="88.36992" style="fill: #ffffff; stroke: #7f7f7f"/>
    </g>
   </g>
   <g id="PathCollection_7">
    <g clip-path="url(#p4035be07c5)">
     <use xlink:href="#m273e1ef3ba" x="923.4" y="124.24752" style="fill: #ffffff; stroke: #7f7f7f"/>
    </g>
   </g>
   <g id="PathCollection_8">
    <g clip-path="url(#p4035be07c5)">
     <use xlink:href="#m273e1ef3ba" x="1035" y="115.4412" style="fill: #ffffff; stroke: #7f7f7f"/>
    </g>
   </g>
   <g id="PathCollection_9">
    <g clip-path="url(#p4035be07c5)">
     <use xlink:href="#m273e1ef3ba" x="1146.6" y="114.13656" style="fill: #ffffff; stroke: #7f7f7f"/>
    </g>
   </g>
   <g id="PathCollection_10">
    <g clip-path="url(#p4035be07c5)">
     <use xlink:href="#m273e1ef3ba" x="1258.2" y="111.20112" style="fill: #ffffff; stroke: #7f7f7f"/>
    </g>
   </g>
   <g id="PathCollection_11">
    <g clip-path="url(#p4035be07c5)">
     <use xlink:href="#m273e1ef3ba" x="1369.8" y="116.74584" style="fill: #ffffff; stroke: #7f7f7f"/>
    </g>
   </g>
  </g>
  <g id="text_16">
   <!-- SRtrain -->
   <g style="fill: #262626" transform="translate(754.282969 22.317187)scale(0.18 -0.18)">
    <defs>
     <path id="DejaVuSans-Bold-53" d="M 3834 4519 
L 3834 3531 
Q 3450 3703 3084 3790 
Q 2719 3878 2394 3878 
Q 1963 3878 1756 3759 
Q 1550 3641 1550 3391 
Q 1550 3203 1689 3098 
Q 1828 2994 2194 2919 
L 2706 2816 
Q 3484 2659 3812 2340 
Q 4141 2022 4141 1434 
Q 4141 663 3683 286 
Q 3225 -91 2284 -91 
Q 1841 -91 1394 -6 
Q 947 78 500 244 
L 500 1259 
Q 947 1022 1364 901 
Q 1781 781 2169 781 
Q 2563 781 2772 912 
Q 2981 1044 2981 1288 
Q 2981 1506 2839 1625 
Q 2697 1744 2272 1838 
L 1806 1941 
Q 1106 2091 782 2419 
Q 459 2747 459 3303 
Q 459 4000 909 4375 
Q 1359 4750 2203 4750 
Q 2588 4750 2994 4692 
Q 3400 4634 3834 4519 
z
" transform="scale(0.015625)"/>
     <path id="DejaVuSans-Bold-52" d="M 2297 2597 
Q 2675 2597 2839 2737 
Q 3003 2878 3003 3200 
Q 3003 3519 2839 3656 
Q 2675 3794 2297 3794 
L 1791 3794 
L 1791 2597 
L 2297 2597 
z
M 1791 1766 
L 1791 0 
L 588 0 
L 588 4666 
L 2425 4666 
Q 3347 4666 3776 4356 
Q 4206 4047 4206 3378 
Q 4206 2916 3982 2619 
Q 3759 2322 3309 2181 
Q 3556 2125 3751 1926 
Q 3947 1728 4147 1325 
L 4800 0 
L 3519 0 
L 2950 1159 
Q 2778 1509 2601 1637 
Q 2425 1766 2131 1766 
L 1791 1766 
z
" transform="scale(0.015625)"/>
     <path id="DejaVuSans-Bold-74" d="M 1759 4494 
L 1759 3500 
L 2913 3500 
L 2913 2700 
L 1759 2700 
L 1759 1216 
Q 1759 972 1856 886 
Q 1953 800 2241 800 
L 2816 800 
L 2816 0 
L 1856 0 
Q 1194 0 917 276 
Q 641 553 641 1216 
L 641 2700 
L 84 2700 
L 84 3500 
L 641 3500 
L 641 4494 
L 1759 4494 
z
" transform="scale(0.015625)"/>
     <path id="DejaVuSans-Bold-72" d="M 3138 2547 
Q 2991 2616 2845 2648 
Q 2700 2681 2553 2681 
Q 2122 2681 1889 2404 
Q 1656 2128 1656 1613 
L 1656 0 
L 538 0 
L 538 3500 
L 1656 3500 
L 1656 2925 
Q 1872 3269 2151 3426 
Q 2431 3584 2822 3584 
Q 2878 3584 2943 3579 
Q 3009 3575 3134 3559 
L 3138 2547 
z
" transform="scale(0.015625)"/>
     <path id="DejaVuSans-Bold-61" d="M 2106 1575 
Q 1756 1575 1579 1456 
Q 1403 1338 1403 1106 
Q 1403 894 1545 773 
Q 1688 653 1941 653 
Q 2256 653 2472 879 
Q 2688 1106 2688 1447 
L 2688 1575 
L 2106 1575 
z
M 3816 1997 
L 3816 0 
L 2688 0 
L 2688 519 
Q 2463 200 2181 54 
Q 1900 -91 1497 -91 
Q 953 -91 614 226 
Q 275 544 275 1050 
Q 275 1666 698 1953 
Q 1122 2241 2028 2241 
L 2688 2241 
L 2688 2328 
Q 2688 2594 2478 2717 
Q 2269 2841 1825 2841 
Q 1466 2841 1156 2769 
Q 847 2697 581 2553 
L 581 3406 
Q 941 3494 1303 3539 
Q 1666 3584 2028 3584 
Q 2975 3584 3395 3211 
Q 3816 2838 3816 1997 
z
" transform="scale(0.015625)"/>
     <path id="DejaVuSans-Bold-69" d="M 538 3500 
L 1656 3500 
L 1656 0 
L 538 0 
L 538 3500 
z
M 538 4863 
L 1656 4863 
L 1656 3950 
L 538 3950 
L 538 4863 
z
" transform="scale(0.015625)"/>
     <path id="DejaVuSans-Bold-6e" d="M 4056 2131 
L 4056 0 
L 2931 0 
L 2931 347 
L 2931 1631 
Q 2931 2084 2911 2256 
Q 2891 2428 2841 2509 
Q 2775 2619 2662 2680 
Q 2550 2741 2406 2741 
Q 2056 2741 1856 2470 
Q 1656 2200 1656 1722 
L 1656 0 
L 538 0 
L 538 3500 
L 1656 3500 
L 1656 2988 
Q 1909 3294 2193 3439 
Q 2478 3584 2822 3584 
Q 3428 3584 3742 3212 
Q 4056 2841 4056 2131 
z
" transform="scale(0.015625)"/>
    </defs>
    <use xlink:href="#DejaVuSans-Bold-53"/>
    <use xlink:href="#DejaVuSans-Bold-52" x="72.021484"/>
    <use xlink:href="#DejaVuSans-Bold-74" x="149.023438"/>
    <use xlink:href="#DejaVuSans-Bold-72" x="196.826172"/>
    <use xlink:href="#DejaVuSans-Bold-61" x="246.142578"/>
    <use xlink:href="#DejaVuSans-Bold-69" x="313.623047"/>
    <use xlink:href="#DejaVuSans-Bold-6e" x="347.900391"/>
   </g>
  </g>
 </g>
 <defs>
  <clipPath id="p4035be07c5">
   <rect x="198" y="51.84" width="1227.6" height="326.16"/>
  </clipPath>
 </defs>
</svg>
