<?xml version="1.0" encoding="utf-8" standalone="no"?>
<!DOCTYPE svg PUBLIC "-//W3C//DTD SVG 1.1//EN"
  "http://www.w3.org/Graphics/SVG/1.1/DTD/svg11.dtd">
<svg xmlns:xlink="http://www.w3.org/1999/xlink" width="1584pt" height="432pt" viewBox="0 0 1584 432" xmlns="http://www.w3.org/2000/svg" version="1.1">
 <metadata>
  <rdf:RDF xmlns:dc="http://purl.org/dc/elements/1.1/" xmlns:cc="http://creativecommons.org/ns#" xmlns:rdf="http://www.w3.org/1999/02/22-rdf-syntax-ns#">
   <cc:Work>
    <dc:type rdf:resource="http://purl.org/dc/dcmitype/StillImage"/>
    <dc:date>2024-01-16T16:38:59.716077</dc:date>
    <dc:format>image/svg+xml</dc:format>
    <dc:creator>
     <cc:Agent>
      <dc:title>Matplotlib v3.5.1, https://matplotlib.org/</dc:title>
     </cc:Agent>
    </dc:creator>
   </cc:Work>
  </rdf:RDF>
 </metadata>
 <defs>
  <style type="text/css">*{stroke-linejoin: round; stroke-linecap: butt}</style>
 </defs>
 <g id="figure_1">
  <g id="patch_1">
   <path d="M 0 432 
L 1584 432 
L 1584 0 
L 0 0 
z
" style="fill: #ffffff"/>
  </g>
  <g id="axes_1">
   <g id="patch_2">
    <path d="M 198 378 
L 1425.6 378 
L 1425.6 51.84 
L 198 51.84 
z
" style="fill: #ffffff"/>
   </g>
   <g id="matplotlib.axis_1">
    <g id="xtick_1">
     <g id="text_1">
      <!-- RNAfold -->
      <g style="fill: #262626" transform="translate(230.493906 401.177188)scale(0.18 -0.18)">
       <defs>
        <path id="DejaVuSans-52" d="M 2841 2188 
Q 3044 2119 3236 1894 
Q 3428 1669 3622 1275 
L 4263 0 
L 3584 0 
L 2988 1197 
Q 2756 1666 2539 1819 
Q 2322 1972 1947 1972 
L 1259 1972 
L 1259 0 
L 628 0 
L 628 4666 
L 2053 4666 
Q 2853 4666 3247 4331 
Q 3641 3997 3641 3322 
Q 3641 2881 3436 2590 
Q 3231 2300 2841 2188 
z
M 1259 4147 
L 1259 2491 
L 2053 2491 
Q 2509 2491 2742 2702 
Q 2975 2913 2975 3322 
Q 2975 3731 2742 3939 
Q 2509 4147 2053 4147 
L 1259 4147 
z
" transform="scale(0.015625)"/>
        <path id="DejaVuSans-4e" d="M 628 4666 
L 1478 4666 
L 3547 763 
L 3547 4666 
L 4159 4666 
L 4159 0 
L 3309 0 
L 1241 3903 
L 1241 0 
L 628 0 
L 628 4666 
z
" transform="scale(0.015625)"/>
        <path id="DejaVuSans-41" d="M 2188 4044 
L 1331 1722 
L 3047 1722 
L 2188 4044 
z
M 1831 4666 
L 2547 4666 
L 4325 0 
L 3669 0 
L 3244 1197 
L 1141 1197 
L 716 0 
L 50 0 
L 1831 4666 
z
" transform="scale(0.015625)"/>
        <path id="DejaVuSans-66" d="M 2375 4863 
L 2375 4384 
L 1825 4384 
Q 1516 4384 1395 4259 
Q 1275 4134 1275 3809 
L 1275 3500 
L 2222 3500 
L 2222 3053 
L 1275 3053 
L 1275 0 
L 697 0 
L 697 3053 
L 147 3053 
L 147 3500 
L 697 3500 
L 697 3744 
Q 697 4328 969 4595 
Q 1241 4863 1831 4863 
L 2375 4863 
z
" transform="scale(0.015625)"/>
        <path id="DejaVuSans-6f" d="M 1959 3097 
Q 1497 3097 1228 2736 
Q 959 2375 959 1747 
Q 959 1119 1226 758 
Q 1494 397 1959 397 
Q 2419 397 2687 759 
Q 2956 1122 2956 1747 
Q 2956 2369 2687 2733 
Q 2419 3097 1959 3097 
z
M 1959 3584 
Q 2709 3584 3137 3096 
Q 3566 2609 3566 1747 
Q 3566 888 3137 398 
Q 2709 -91 1959 -91 
Q 1206 -91 779 398 
Q 353 888 353 1747 
Q 353 2609 779 3096 
Q 1206 3584 1959 3584 
z
" transform="scale(0.015625)"/>
        <path id="DejaVuSans-6c" d="M 603 4863 
L 1178 4863 
L 1178 0 
L 603 0 
L 603 4863 
z
" transform="scale(0.015625)"/>
        <path id="DejaVuSans-64" d="M 2906 2969 
L 2906 4863 
L 3481 4863 
L 3481 0 
L 2906 0 
L 2906 525 
Q 2725 213 2448 61 
Q 2172 -91 1784 -91 
Q 1150 -91 751 415 
Q 353 922 353 1747 
Q 353 2572 751 3078 
Q 1150 3584 1784 3584 
Q 2172 3584 2448 3432 
Q 2725 3281 2906 2969 
z
M 947 1747 
Q 947 1113 1208 752 
Q 1469 391 1925 391 
Q 2381 391 2643 752 
Q 2906 1113 2906 1747 
Q 2906 2381 2643 2742 
Q 2381 3103 1925 3103 
Q 1469 3103 1208 2742 
Q 947 2381 947 1747 
z
" transform="scale(0.015625)"/>
       </defs>
       <use xlink:href="#DejaVuSans-52"/>
       <use xlink:href="#DejaVuSans-4e" x="69.482422"/>
       <use xlink:href="#DejaVuSans-41" x="144.287109"/>
       <use xlink:href="#DejaVuSans-66" x="209.070312"/>
       <use xlink:href="#DejaVuSans-6f" x="244.275391"/>
       <use xlink:href="#DejaVuSans-6c" x="305.457031"/>
       <use xlink:href="#DejaVuSans-64" x="333.240234"/>
      </g>
     </g>
    </g>
    <g id="xtick_2">
     <g id="text_2">
      <!-- ShapeKnots -->
      <g style="fill: #262626" transform="translate(349.086563 401.177188)scale(0.18 -0.18)">
       <defs>
        <path id="DejaVuSans-53" d="M 3425 4513 
L 3425 3897 
Q 3066 4069 2747 4153 
Q 2428 4238 2131 4238 
Q 1616 4238 1336 4038 
Q 1056 3838 1056 3469 
Q 1056 3159 1242 3001 
Q 1428 2844 1947 2747 
L 2328 2669 
Q 3034 2534 3370 2195 
Q 3706 1856 3706 1288 
Q 3706 609 3251 259 
Q 2797 -91 1919 -91 
Q 1588 -91 1214 -16 
Q 841 59 441 206 
L 441 856 
Q 825 641 1194 531 
Q 1563 422 1919 422 
Q 2459 422 2753 634 
Q 3047 847 3047 1241 
Q 3047 1584 2836 1778 
Q 2625 1972 2144 2069 
L 1759 2144 
Q 1053 2284 737 2584 
Q 422 2884 422 3419 
Q 422 4038 858 4394 
Q 1294 4750 2059 4750 
Q 2388 4750 2728 4690 
Q 3069 4631 3425 4513 
z
" transform="scale(0.015625)"/>
        <path id="DejaVuSans-68" d="M 3513 2113 
L 3513 0 
L 2938 0 
L 2938 2094 
Q 2938 2591 2744 2837 
Q 2550 3084 2163 3084 
Q 1697 3084 1428 2787 
Q 1159 2491 1159 1978 
L 1159 0 
L 581 0 
L 581 4863 
L 1159 4863 
L 1159 2956 
Q 1366 3272 1645 3428 
Q 1925 3584 2291 3584 
Q 2894 3584 3203 3211 
Q 3513 2838 3513 2113 
z
" transform="scale(0.015625)"/>
        <path id="DejaVuSans-61" d="M 2194 1759 
Q 1497 1759 1228 1600 
Q 959 1441 959 1056 
Q 959 750 1161 570 
Q 1363 391 1709 391 
Q 2188 391 2477 730 
Q 2766 1069 2766 1631 
L 2766 1759 
L 2194 1759 
z
M 3341 1997 
L 3341 0 
L 2766 0 
L 2766 531 
Q 2569 213 2275 61 
Q 1981 -91 1556 -91 
Q 1019 -91 701 211 
Q 384 513 384 1019 
Q 384 1609 779 1909 
Q 1175 2209 1959 2209 
L 2766 2209 
L 2766 2266 
Q 2766 2663 2505 2880 
Q 2244 3097 1772 3097 
Q 1472 3097 1187 3025 
Q 903 2953 641 2809 
L 641 3341 
Q 956 3463 1253 3523 
Q 1550 3584 1831 3584 
Q 2591 3584 2966 3190 
Q 3341 2797 3341 1997 
z
" transform="scale(0.015625)"/>
        <path id="DejaVuSans-70" d="M 1159 525 
L 1159 -1331 
L 581 -1331 
L 581 3500 
L 1159 3500 
L 1159 2969 
Q 1341 3281 1617 3432 
Q 1894 3584 2278 3584 
Q 2916 3584 3314 3078 
Q 3713 2572 3713 1747 
Q 3713 922 3314 415 
Q 2916 -91 2278 -91 
Q 1894 -91 1617 61 
Q 1341 213 1159 525 
z
M 3116 1747 
Q 3116 2381 2855 2742 
Q 2594 3103 2138 3103 
Q 1681 3103 1420 2742 
Q 1159 2381 1159 1747 
Q 1159 1113 1420 752 
Q 1681 391 2138 391 
Q 2594 391 2855 752 
Q 3116 1113 3116 1747 
z
" transform="scale(0.015625)"/>
        <path id="DejaVuSans-65" d="M 3597 1894 
L 3597 1613 
L 953 1613 
Q 991 1019 1311 708 
Q 1631 397 2203 397 
Q 2534 397 2845 478 
Q 3156 559 3463 722 
L 3463 178 
Q 3153 47 2828 -22 
Q 2503 -91 2169 -91 
Q 1331 -91 842 396 
Q 353 884 353 1716 
Q 353 2575 817 3079 
Q 1281 3584 2069 3584 
Q 2775 3584 3186 3129 
Q 3597 2675 3597 1894 
z
M 3022 2063 
Q 3016 2534 2758 2815 
Q 2500 3097 2075 3097 
Q 1594 3097 1305 2825 
Q 1016 2553 972 2059 
L 3022 2063 
z
" transform="scale(0.015625)"/>
        <path id="DejaVuSans-4b" d="M 628 4666 
L 1259 4666 
L 1259 2694 
L 3353 4666 
L 4166 4666 
L 1850 2491 
L 4331 0 
L 3500 0 
L 1259 2247 
L 1259 0 
L 628 0 
L 628 4666 
z
" transform="scale(0.015625)"/>
        <path id="DejaVuSans-6e" d="M 3513 2113 
L 3513 0 
L 2938 0 
L 2938 2094 
Q 2938 2591 2744 2837 
Q 2550 3084 2163 3084 
Q 1697 3084 1428 2787 
Q 1159 2491 1159 1978 
L 1159 0 
L 581 0 
L 581 3500 
L 1159 3500 
L 1159 2956 
Q 1366 3272 1645 3428 
Q 1925 3584 2291 3584 
Q 2894 3584 3203 3211 
Q 3513 2838 3513 2113 
z
" transform="scale(0.015625)"/>
        <path id="DejaVuSans-74" d="M 1172 4494 
L 1172 3500 
L 2356 3500 
L 2356 3053 
L 1172 3053 
L 1172 1153 
Q 1172 725 1289 603 
Q 1406 481 1766 481 
L 2356 481 
L 2356 0 
L 1766 0 
Q 1100 0 847 248 
Q 594 497 594 1153 
L 594 3053 
L 172 3053 
L 172 3500 
L 594 3500 
L 594 4494 
L 1172 4494 
z
" transform="scale(0.015625)"/>
        <path id="DejaVuSans-73" d="M 2834 3397 
L 2834 2853 
Q 2591 2978 2328 3040 
Q 2066 3103 1784 3103 
Q 1356 3103 1142 2972 
Q 928 2841 928 2578 
Q 928 2378 1081 2264 
Q 1234 2150 1697 2047 
L 1894 2003 
Q 2506 1872 2764 1633 
Q 3022 1394 3022 966 
Q 3022 478 2636 193 
Q 2250 -91 1575 -91 
Q 1294 -91 989 -36 
Q 684 19 347 128 
L 347 722 
Q 666 556 975 473 
Q 1284 391 1588 391 
Q 1994 391 2212 530 
Q 2431 669 2431 922 
Q 2431 1156 2273 1281 
Q 2116 1406 1581 1522 
L 1381 1569 
Q 847 1681 609 1914 
Q 372 2147 372 2553 
Q 372 3047 722 3315 
Q 1072 3584 1716 3584 
Q 2034 3584 2315 3537 
Q 2597 3491 2834 3397 
z
" transform="scale(0.015625)"/>
       </defs>
       <use xlink:href="#DejaVuSans-53"/>
       <use xlink:href="#DejaVuSans-68" x="63.476562"/>
       <use xlink:href="#DejaVuSans-61" x="126.855469"/>
       <use xlink:href="#DejaVuSans-70" x="188.134766"/>
       <use xlink:href="#DejaVuSans-65" x="251.611328"/>
       <use xlink:href="#DejaVuSans-4b" x="313.134766"/>
       <use xlink:href="#DejaVuSans-6e" x="378.710938"/>
       <use xlink:href="#DejaVuSans-6f" x="442.089844"/>
       <use xlink:href="#DejaVuSans-74" x="503.271484"/>
       <use xlink:href="#DejaVuSans-73" x="542.480469"/>
      </g>
      <!-- top-1 -->
      <g style="fill: #262626" transform="translate(378.877969 421.33325)scale(0.18 -0.18)">
       <defs>
        <path id="DejaVuSans-2d" d="M 313 2009 
L 1997 2009 
L 1997 1497 
L 313 1497 
L 313 2009 
z
" transform="scale(0.015625)"/>
        <path id="DejaVuSans-31" d="M 794 531 
L 1825 531 
L 1825 4091 
L 703 3866 
L 703 4441 
L 1819 4666 
L 2450 4666 
L 2450 531 
L 3481 531 
L 3481 0 
L 794 0 
L 794 531 
z
" transform="scale(0.015625)"/>
       </defs>
       <use xlink:href="#DejaVuSans-74"/>
       <use xlink:href="#DejaVuSans-6f" x="39.208984"/>
       <use xlink:href="#DejaVuSans-70" x="100.390625"/>
       <use xlink:href="#DejaVuSans-2d" x="163.867188"/>
       <use xlink:href="#DejaVuSans-31" x="199.951172"/>
      </g>
     </g>
    </g>
    <g id="xtick_3">
     <g id="text_3">
      <!-- IPknot -->
      <g style="fill: #262626" transform="translate(510.967812 401.177188)scale(0.18 -0.18)">
       <defs>
        <path id="DejaVuSans-49" d="M 628 4666 
L 1259 4666 
L 1259 0 
L 628 0 
L 628 4666 
z
" transform="scale(0.015625)"/>
        <path id="DejaVuSans-50" d="M 1259 4147 
L 1259 2394 
L 2053 2394 
Q 2494 2394 2734 2622 
Q 2975 2850 2975 3272 
Q 2975 3691 2734 3919 
Q 2494 4147 2053 4147 
L 1259 4147 
z
M 628 4666 
L 2053 4666 
Q 2838 4666 3239 4311 
Q 3641 3956 3641 3272 
Q 3641 2581 3239 2228 
Q 2838 1875 2053 1875 
L 1259 1875 
L 1259 0 
L 628 0 
L 628 4666 
z
" transform="scale(0.015625)"/>
        <path id="DejaVuSans-6b" d="M 581 4863 
L 1159 4863 
L 1159 1991 
L 2875 3500 
L 3609 3500 
L 1753 1863 
L 3688 0 
L 2938 0 
L 1159 1709 
L 1159 0 
L 581 0 
L 581 4863 
z
" transform="scale(0.015625)"/>
       </defs>
       <use xlink:href="#DejaVuSans-49"/>
       <use xlink:href="#DejaVuSans-50" x="29.492188"/>
       <use xlink:href="#DejaVuSans-6b" x="89.794922"/>
       <use xlink:href="#DejaVuSans-6e" x="147.705078"/>
       <use xlink:href="#DejaVuSans-6f" x="211.083984"/>
       <use xlink:href="#DejaVuSans-74" x="272.265625"/>
      </g>
     </g>
    </g>
    <g id="xtick_4">
     <g id="text_4">
      <!-- SQUARNA -->
      <g style="fill: #262626" transform="translate(630.715 401.177188)scale(0.18 -0.18)">
       <defs>
        <path id="DejaVuSans-51" d="M 2522 4238 
Q 1834 4238 1429 3725 
Q 1025 3213 1025 2328 
Q 1025 1447 1429 934 
Q 1834 422 2522 422 
Q 3209 422 3611 934 
Q 4013 1447 4013 2328 
Q 4013 3213 3611 3725 
Q 3209 4238 2522 4238 
z
M 3406 84 
L 4238 -825 
L 3475 -825 
L 2784 -78 
Q 2681 -84 2626 -87 
Q 2572 -91 2522 -91 
Q 1538 -91 948 567 
Q 359 1225 359 2328 
Q 359 3434 948 4092 
Q 1538 4750 2522 4750 
Q 3503 4750 4090 4092 
Q 4678 3434 4678 2328 
Q 4678 1516 4351 937 
Q 4025 359 3406 84 
z
" transform="scale(0.015625)"/>
        <path id="DejaVuSans-55" d="M 556 4666 
L 1191 4666 
L 1191 1831 
Q 1191 1081 1462 751 
Q 1734 422 2344 422 
Q 2950 422 3222 751 
Q 3494 1081 3494 1831 
L 3494 4666 
L 4128 4666 
L 4128 1753 
Q 4128 841 3676 375 
Q 3225 -91 2344 -91 
Q 1459 -91 1007 375 
Q 556 841 556 1753 
L 556 4666 
z
" transform="scale(0.015625)"/>
       </defs>
       <use xlink:href="#DejaVuSans-53"/>
       <use xlink:href="#DejaVuSans-51" x="63.476562"/>
       <use xlink:href="#DejaVuSans-55" x="142.1875"/>
       <use xlink:href="#DejaVuSans-41" x="215.380859"/>
       <use xlink:href="#DejaVuSans-52" x="283.789062"/>
       <use xlink:href="#DejaVuSans-4e" x="353.271484"/>
       <use xlink:href="#DejaVuSans-41" x="428.076172"/>
      </g>
      <!-- top-1 -->
      <g style="fill: #262626" transform="translate(651.677969 421.33325)scale(0.18 -0.18)">
       <use xlink:href="#DejaVuSans-74"/>
       <use xlink:href="#DejaVuSans-6f" x="39.208984"/>
       <use xlink:href="#DejaVuSans-70" x="100.390625"/>
       <use xlink:href="#DejaVuSans-2d" x="163.867188"/>
       <use xlink:href="#DejaVuSans-31" x="199.951172"/>
      </g>
     </g>
    </g>
    <g id="xtick_5">
     <g id="text_5">
      <!-- ShapeKnots -->
      <g style="fill: #262626" transform="translate(758.286562 401.177188)scale(0.18 -0.18)">
       <use xlink:href="#DejaVuSans-53"/>
       <use xlink:href="#DejaVuSans-68" x="63.476562"/>
       <use xlink:href="#DejaVuSans-61" x="126.855469"/>
       <use xlink:href="#DejaVuSans-70" x="188.134766"/>
       <use xlink:href="#DejaVuSans-65" x="251.611328"/>
       <use xlink:href="#DejaVuSans-4b" x="313.134766"/>
       <use xlink:href="#DejaVuSans-6e" x="378.710938"/>
       <use xlink:href="#DejaVuSans-6f" x="442.089844"/>
       <use xlink:href="#DejaVuSans-74" x="503.271484"/>
       <use xlink:href="#DejaVuSans-73" x="542.480469"/>
      </g>
      <!-- top-5 -->
      <g style="fill: #262626" transform="translate(788.077969 421.33325)scale(0.18 -0.18)">
       <defs>
        <path id="DejaVuSans-35" d="M 691 4666 
L 3169 4666 
L 3169 4134 
L 1269 4134 
L 1269 2991 
Q 1406 3038 1543 3061 
Q 1681 3084 1819 3084 
Q 2600 3084 3056 2656 
Q 3513 2228 3513 1497 
Q 3513 744 3044 326 
Q 2575 -91 1722 -91 
Q 1428 -91 1123 -41 
Q 819 9 494 109 
L 494 744 
Q 775 591 1075 516 
Q 1375 441 1709 441 
Q 2250 441 2565 725 
Q 2881 1009 2881 1497 
Q 2881 1984 2565 2268 
Q 2250 2553 1709 2553 
Q 1456 2553 1204 2497 
Q 953 2441 691 2322 
L 691 4666 
z
" transform="scale(0.015625)"/>
       </defs>
       <use xlink:href="#DejaVuSans-74"/>
       <use xlink:href="#DejaVuSans-6f" x="39.208984"/>
       <use xlink:href="#DejaVuSans-70" x="100.390625"/>
       <use xlink:href="#DejaVuSans-2d" x="163.867188"/>
       <use xlink:href="#DejaVuSans-35" x="199.951172"/>
      </g>
     </g>
    </g>
    <g id="xtick_6">
     <g id="text_6">
      <!-- RNAsubopt -->
      <g style="fill: #262626" transform="translate(898.202188 401.177188)scale(0.18 -0.18)">
       <defs>
        <path id="DejaVuSans-75" d="M 544 1381 
L 544 3500 
L 1119 3500 
L 1119 1403 
Q 1119 906 1312 657 
Q 1506 409 1894 409 
Q 2359 409 2629 706 
Q 2900 1003 2900 1516 
L 2900 3500 
L 3475 3500 
L 3475 0 
L 2900 0 
L 2900 538 
Q 2691 219 2414 64 
Q 2138 -91 1772 -91 
Q 1169 -91 856 284 
Q 544 659 544 1381 
z
M 1991 3584 
L 1991 3584 
z
" transform="scale(0.015625)"/>
        <path id="DejaVuSans-62" d="M 3116 1747 
Q 3116 2381 2855 2742 
Q 2594 3103 2138 3103 
Q 1681 3103 1420 2742 
Q 1159 2381 1159 1747 
Q 1159 1113 1420 752 
Q 1681 391 2138 391 
Q 2594 391 2855 752 
Q 3116 1113 3116 1747 
z
M 1159 2969 
Q 1341 3281 1617 3432 
Q 1894 3584 2278 3584 
Q 2916 3584 3314 3078 
Q 3713 2572 3713 1747 
Q 3713 922 3314 415 
Q 2916 -91 2278 -91 
Q 1894 -91 1617 61 
Q 1341 213 1159 525 
L 1159 0 
L 581 0 
L 581 4863 
L 1159 4863 
L 1159 2969 
z
" transform="scale(0.015625)"/>
       </defs>
       <use xlink:href="#DejaVuSans-52"/>
       <use xlink:href="#DejaVuSans-4e" x="69.482422"/>
       <use xlink:href="#DejaVuSans-41" x="144.287109"/>
       <use xlink:href="#DejaVuSans-73" x="212.695312"/>
       <use xlink:href="#DejaVuSans-75" x="264.794922"/>
       <use xlink:href="#DejaVuSans-62" x="328.173828"/>
       <use xlink:href="#DejaVuSans-6f" x="391.650391"/>
       <use xlink:href="#DejaVuSans-70" x="452.832031"/>
       <use xlink:href="#DejaVuSans-74" x="516.308594"/>
      </g>
      <!-- top-5 -->
      <g style="fill: #262626" transform="translate(924.477969 421.33325)scale(0.18 -0.18)">
       <use xlink:href="#DejaVuSans-74"/>
       <use xlink:href="#DejaVuSans-6f" x="39.208984"/>
       <use xlink:href="#DejaVuSans-70" x="100.390625"/>
       <use xlink:href="#DejaVuSans-2d" x="163.867188"/>
       <use xlink:href="#DejaVuSans-35" x="199.951172"/>
      </g>
     </g>
    </g>
    <g id="xtick_7">
     <g id="text_7">
      <!-- SPOT-RNA -->
      <g style="fill: #262626" transform="translate(1039.308906 401.177188)scale(0.18 -0.18)">
       <defs>
        <path id="DejaVuSans-4f" d="M 2522 4238 
Q 1834 4238 1429 3725 
Q 1025 3213 1025 2328 
Q 1025 1447 1429 934 
Q 1834 422 2522 422 
Q 3209 422 3611 934 
Q 4013 1447 4013 2328 
Q 4013 3213 3611 3725 
Q 3209 4238 2522 4238 
z
M 2522 4750 
Q 3503 4750 4090 4092 
Q 4678 3434 4678 2328 
Q 4678 1225 4090 567 
Q 3503 -91 2522 -91 
Q 1538 -91 948 565 
Q 359 1222 359 2328 
Q 359 3434 948 4092 
Q 1538 4750 2522 4750 
z
" transform="scale(0.015625)"/>
        <path id="DejaVuSans-54" d="M -19 4666 
L 3928 4666 
L 3928 4134 
L 2272 4134 
L 2272 0 
L 1638 0 
L 1638 4134 
L -19 4134 
L -19 4666 
z
" transform="scale(0.015625)"/>
       </defs>
       <use xlink:href="#DejaVuSans-53"/>
       <use xlink:href="#DejaVuSans-50" x="63.476562"/>
       <use xlink:href="#DejaVuSans-4f" x="123.779297"/>
       <use xlink:href="#DejaVuSans-54" x="202.490234"/>
       <use xlink:href="#DejaVuSans-2d" x="254.449219"/>
       <use xlink:href="#DejaVuSans-52" x="290.533203"/>
       <use xlink:href="#DejaVuSans-4e" x="360.015625"/>
       <use xlink:href="#DejaVuSans-41" x="434.820312"/>
      </g>
     </g>
    </g>
    <g id="xtick_8">
     <g id="text_8">
      <!-- MXfold2 -->
      <g style="fill: #262626" transform="translate(1184.454375 401.177188)scale(0.18 -0.18)">
       <defs>
        <path id="DejaVuSans-4d" d="M 628 4666 
L 1569 4666 
L 2759 1491 
L 3956 4666 
L 4897 4666 
L 4897 0 
L 4281 0 
L 4281 4097 
L 3078 897 
L 2444 897 
L 1241 4097 
L 1241 0 
L 628 0 
L 628 4666 
z
" transform="scale(0.015625)"/>
        <path id="DejaVuSans-58" d="M 403 4666 
L 1081 4666 
L 2241 2931 
L 3406 4666 
L 4084 4666 
L 2584 2425 
L 4184 0 
L 3506 0 
L 2194 1984 
L 872 0 
L 191 0 
L 1856 2491 
L 403 4666 
z
" transform="scale(0.015625)"/>
        <path id="DejaVuSans-32" d="M 1228 531 
L 3431 531 
L 3431 0 
L 469 0 
L 469 531 
Q 828 903 1448 1529 
Q 2069 2156 2228 2338 
Q 2531 2678 2651 2914 
Q 2772 3150 2772 3378 
Q 2772 3750 2511 3984 
Q 2250 4219 1831 4219 
Q 1534 4219 1204 4116 
Q 875 4013 500 3803 
L 500 4441 
Q 881 4594 1212 4672 
Q 1544 4750 1819 4750 
Q 2544 4750 2975 4387 
Q 3406 4025 3406 3419 
Q 3406 3131 3298 2873 
Q 3191 2616 2906 2266 
Q 2828 2175 2409 1742 
Q 1991 1309 1228 531 
z
" transform="scale(0.015625)"/>
       </defs>
       <use xlink:href="#DejaVuSans-4d"/>
       <use xlink:href="#DejaVuSans-58" x="86.279297"/>
       <use xlink:href="#DejaVuSans-66" x="154.785156"/>
       <use xlink:href="#DejaVuSans-6f" x="189.990234"/>
       <use xlink:href="#DejaVuSans-6c" x="251.171875"/>
       <use xlink:href="#DejaVuSans-64" x="278.955078"/>
       <use xlink:href="#DejaVuSans-32" x="342.431641"/>
      </g>
     </g>
    </g>
    <g id="xtick_9">
     <g id="text_9">
      <!-- SQUARNA -->
      <g style="fill: #262626" transform="translate(1312.715 401.177188)scale(0.18 -0.18)">
       <use xlink:href="#DejaVuSans-53"/>
       <use xlink:href="#DejaVuSans-51" x="63.476562"/>
       <use xlink:href="#DejaVuSans-55" x="142.1875"/>
       <use xlink:href="#DejaVuSans-41" x="215.380859"/>
       <use xlink:href="#DejaVuSans-52" x="283.789062"/>
       <use xlink:href="#DejaVuSans-4e" x="353.271484"/>
       <use xlink:href="#DejaVuSans-41" x="428.076172"/>
      </g>
      <!-- top-5 -->
      <g style="fill: #262626" transform="translate(1333.677969 421.33325)scale(0.18 -0.18)">
       <use xlink:href="#DejaVuSans-74"/>
       <use xlink:href="#DejaVuSans-6f" x="39.208984"/>
       <use xlink:href="#DejaVuSans-70" x="100.390625"/>
       <use xlink:href="#DejaVuSans-2d" x="163.867188"/>
       <use xlink:href="#DejaVuSans-35" x="199.951172"/>
      </g>
     </g>
    </g>
   </g>
   <g id="matplotlib.axis_2">
    <g id="ytick_1">
     <g id="line2d_1">
      <path d="M 198 312.768 
L 1425.6 312.768 
" clip-path="url(#p8f7630f170)" style="fill: none; stroke: #cccccc; stroke-linecap: round"/>
     </g>
     <g id="text_10">
      <!-- 0.6 -->
      <g style="fill: #262626" transform="translate(166.235625 318.086906)scale(0.14 -0.14)">
       <defs>
        <path id="DejaVuSans-30" d="M 2034 4250 
Q 1547 4250 1301 3770 
Q 1056 3291 1056 2328 
Q 1056 1369 1301 889 
Q 1547 409 2034 409 
Q 2525 409 2770 889 
Q 3016 1369 3016 2328 
Q 3016 3291 2770 3770 
Q 2525 4250 2034 4250 
z
M 2034 4750 
Q 2819 4750 3233 4129 
Q 3647 3509 3647 2328 
Q 3647 1150 3233 529 
Q 2819 -91 2034 -91 
Q 1250 -91 836 529 
Q 422 1150 422 2328 
Q 422 3509 836 4129 
Q 1250 4750 2034 4750 
z
" transform="scale(0.015625)"/>
        <path id="DejaVuSans-2e" d="M 684 794 
L 1344 794 
L 1344 0 
L 684 0 
L 684 794 
z
" transform="scale(0.015625)"/>
        <path id="DejaVuSans-36" d="M 2113 2584 
Q 1688 2584 1439 2293 
Q 1191 2003 1191 1497 
Q 1191 994 1439 701 
Q 1688 409 2113 409 
Q 2538 409 2786 701 
Q 3034 994 3034 1497 
Q 3034 2003 2786 2293 
Q 2538 2584 2113 2584 
z
M 3366 4563 
L 3366 3988 
Q 3128 4100 2886 4159 
Q 2644 4219 2406 4219 
Q 1781 4219 1451 3797 
Q 1122 3375 1075 2522 
Q 1259 2794 1537 2939 
Q 1816 3084 2150 3084 
Q 2853 3084 3261 2657 
Q 3669 2231 3669 1497 
Q 3669 778 3244 343 
Q 2819 -91 2113 -91 
Q 1303 -91 875 529 
Q 447 1150 447 2328 
Q 447 3434 972 4092 
Q 1497 4750 2381 4750 
Q 2619 4750 2861 4703 
Q 3103 4656 3366 4563 
z
" transform="scale(0.015625)"/>
       </defs>
       <use xlink:href="#DejaVuSans-30"/>
       <use xlink:href="#DejaVuSans-2e" x="63.623047"/>
       <use xlink:href="#DejaVuSans-36" x="95.410156"/>
      </g>
     </g>
    </g>
    <g id="ytick_2">
     <g id="line2d_2">
      <path d="M 198 182.304 
L 1425.6 182.304 
" clip-path="url(#p8f7630f170)" style="fill: none; stroke: #cccccc; stroke-linecap: round"/>
     </g>
     <g id="text_11">
      <!-- 0.8 -->
      <g style="fill: #262626" transform="translate(166.235625 187.622906)scale(0.14 -0.14)">
       <defs>
        <path id="DejaVuSans-38" d="M 2034 2216 
Q 1584 2216 1326 1975 
Q 1069 1734 1069 1313 
Q 1069 891 1326 650 
Q 1584 409 2034 409 
Q 2484 409 2743 651 
Q 3003 894 3003 1313 
Q 3003 1734 2745 1975 
Q 2488 2216 2034 2216 
z
M 1403 2484 
Q 997 2584 770 2862 
Q 544 3141 544 3541 
Q 544 4100 942 4425 
Q 1341 4750 2034 4750 
Q 2731 4750 3128 4425 
Q 3525 4100 3525 3541 
Q 3525 3141 3298 2862 
Q 3072 2584 2669 2484 
Q 3125 2378 3379 2068 
Q 3634 1759 3634 1313 
Q 3634 634 3220 271 
Q 2806 -91 2034 -91 
Q 1263 -91 848 271 
Q 434 634 434 1313 
Q 434 1759 690 2068 
Q 947 2378 1403 2484 
z
M 1172 3481 
Q 1172 3119 1398 2916 
Q 1625 2713 2034 2713 
Q 2441 2713 2670 2916 
Q 2900 3119 2900 3481 
Q 2900 3844 2670 4047 
Q 2441 4250 2034 4250 
Q 1625 4250 1398 4047 
Q 1172 3844 1172 3481 
z
" transform="scale(0.015625)"/>
       </defs>
       <use xlink:href="#DejaVuSans-30"/>
       <use xlink:href="#DejaVuSans-2e" x="63.623047"/>
       <use xlink:href="#DejaVuSans-38" x="95.410156"/>
      </g>
     </g>
    </g>
    <g id="ytick_3">
     <g id="line2d_3">
      <path d="M 198 51.84 
L 1425.6 51.84 
" clip-path="url(#p8f7630f170)" style="fill: none; stroke: #cccccc; stroke-linecap: round"/>
     </g>
     <g id="text_12">
      <!-- 1.0 -->
      <g style="fill: #262626" transform="translate(166.235625 57.158906)scale(0.14 -0.14)">
       <use xlink:href="#DejaVuSans-31"/>
       <use xlink:href="#DejaVuSans-2e" x="63.623047"/>
       <use xlink:href="#DejaVuSans-30" x="95.410156"/>
      </g>
     </g>
    </g>
    <g id="text_13">
     <!-- F-score -->
     <g style="fill: #262626" transform="translate(158.07625 251.145)rotate(-90)scale(0.2 -0.2)">
      <defs>
       <path id="DejaVuSans-46" d="M 628 4666 
L 3309 4666 
L 3309 4134 
L 1259 4134 
L 1259 2759 
L 3109 2759 
L 3109 2228 
L 1259 2228 
L 1259 0 
L 628 0 
L 628 4666 
z
" transform="scale(0.015625)"/>
       <path id="DejaVuSans-63" d="M 3122 3366 
L 3122 2828 
Q 2878 2963 2633 3030 
Q 2388 3097 2138 3097 
Q 1578 3097 1268 2742 
Q 959 2388 959 1747 
Q 959 1106 1268 751 
Q 1578 397 2138 397 
Q 2388 397 2633 464 
Q 2878 531 3122 666 
L 3122 134 
Q 2881 22 2623 -34 
Q 2366 -91 2075 -91 
Q 1284 -91 818 406 
Q 353 903 353 1747 
Q 353 2603 823 3093 
Q 1294 3584 2113 3584 
Q 2378 3584 2631 3529 
Q 2884 3475 3122 3366 
z
" transform="scale(0.015625)"/>
       <path id="DejaVuSans-72" d="M 2631 2963 
Q 2534 3019 2420 3045 
Q 2306 3072 2169 3072 
Q 1681 3072 1420 2755 
Q 1159 2438 1159 1844 
L 1159 0 
L 581 0 
L 581 3500 
L 1159 3500 
L 1159 2956 
Q 1341 3275 1631 3429 
Q 1922 3584 2338 3584 
Q 2397 3584 2469 3576 
Q 2541 3569 2628 3553 
L 2631 2963 
z
" transform="scale(0.015625)"/>
      </defs>
      <use xlink:href="#DejaVuSans-46"/>
      <use xlink:href="#DejaVuSans-2d" x="57.519531"/>
      <use xlink:href="#DejaVuSans-73" x="93.603516"/>
      <use xlink:href="#DejaVuSans-63" x="145.703125"/>
      <use xlink:href="#DejaVuSans-6f" x="200.683594"/>
      <use xlink:href="#DejaVuSans-72" x="261.865234"/>
      <use xlink:href="#DejaVuSans-65" x="300.728516"/>
     </g>
    </g>
   </g>
   <g id="PolyCollection_1">
    <path d="M 272.941114 704.16 
L 259.458886 704.16 
L 259.446498 697.570909 
L 259.491475 690.981818 
L 259.591205 684.392727 
L 259.741471 677.803636 
L 259.936639 671.214545 
L 260.169907 664.625455 
L 260.433599 658.036364 
L 260.719492 651.447273 
L 261.019142 644.858182 
L 261.324217 638.269091 
L 261.626782 631.68 
L 261.91957 625.090909 
L 262.196177 618.501818 
L 262.451224 611.912727 
L 262.680442 605.323636 
L 262.880709 598.734545 
L 263.050029 592.145455 
L 263.187471 585.556364 
L 263.293059 578.967273 
L 263.367648 572.378182 
L 263.41277 565.789091 
L 263.430475 559.2 
L 263.423178 552.610909 
L 263.393506 546.021818 
L 263.34416 539.432727 
L 263.277796 532.843636 
L 263.196931 526.254545 
L 263.103861 519.665455 
L 263.000611 513.076364 
L 262.8889 506.487273 
L 262.770131 499.898182 
L 262.645395 493.309091 
L 262.51549 486.72 
L 262.38095 480.130909 
L 262.242082 473.541818 
L 262.099015 466.952727 
L 261.951731 460.363636 
L 261.80012 453.774545 
L 261.644006 447.185455 
L 261.483187 440.596364 
L 261.317453 434.007273 
L 261.146609 427.418182 
L 260.970476 420.829091 
L 260.788895 414.24 
L 260.601723 407.650909 
L 260.408816 401.061818 
L 260.210018 394.472727 
L 260.005137 387.883636 
L 259.79393 381.294545 
L 259.576081 374.705455 
L 259.351185 368.116364 
L 259.118729 361.527273 
L 258.878079 354.938182 
L 258.628471 348.349091 
L 258.368996 341.76 
L 258.098595 335.170909 
L 257.816051 328.581818 
L 257.519976 321.992727 
L 257.208808 315.403636 
L 256.880796 308.814545 
L 256.533994 302.225455 
L 256.166251 295.636364 
L 255.775207 289.047273 
L 255.358291 282.458182 
L 254.912733 275.869091 
L 254.435581 269.28 
L 253.923737 262.690909 
L 253.37401 256.101818 
L 252.783189 249.512727 
L 252.148141 242.923636 
L 251.465924 236.334545 
L 250.733939 229.745455 
L 249.950089 223.156364 
L 249.112965 216.567273 
L 248.222046 209.978182 
L 247.277909 203.389091 
L 246.282443 196.8 
L 245.23905 190.210909 
L 244.152838 183.621818 
L 243.030785 177.032727 
L 241.881863 170.443636 
L 240.717106 163.854545 
L 239.549626 157.265455 
L 238.394541 150.676364 
L 237.268823 144.087273 
L 236.191054 137.498182 
L 235.181077 130.909091 
L 234.259558 124.32 
L 233.447451 117.730909 
L 232.765386 111.141818 
L 232.232996 104.552727 
L 231.86821 97.963636 
L 231.686543 91.374545 
L 231.700417 84.785455 
L 231.918549 78.196364 
L 232.345447 71.607273 
L 232.981045 65.018182 
L 233.820505 58.429091 
L 234.854208 51.84 
L 297.545792 51.84 
L 297.545792 51.84 
L 298.579495 58.429091 
L 299.418955 65.018182 
L 300.054553 71.607273 
L 300.481451 78.196364 
L 300.699583 84.785455 
L 300.713457 91.374545 
L 300.53179 97.963636 
L 300.167004 104.552727 
L 299.634614 111.141818 
L 298.952549 117.730909 
L 298.140442 124.32 
L 297.218923 130.909091 
L 296.208946 137.498182 
L 295.131177 144.087273 
L 294.005459 150.676364 
L 292.850374 157.265455 
L 291.682894 163.854545 
L 290.518137 170.443636 
L 289.369215 177.032727 
L 288.247162 183.621818 
L 287.16095 190.210909 
L 286.117557 196.8 
L 285.122091 203.389091 
L 284.177954 209.978182 
L 283.287035 216.567273 
L 282.449911 223.156364 
L 281.666061 229.745455 
L 280.934076 236.334545 
L 280.251859 242.923636 
L 279.616811 249.512727 
L 279.02599 256.101818 
L 278.476263 262.690909 
L 277.964419 269.28 
L 277.487267 275.869091 
L 277.041709 282.458182 
L 276.624793 289.047273 
L 276.233749 295.636364 
L 275.866006 302.225455 
L 275.519204 308.814545 
L 275.191192 315.403636 
L 274.880024 321.992727 
L 274.583949 328.581818 
L 274.301405 335.170909 
L 274.031004 341.76 
L 273.771529 348.349091 
L 273.521921 354.938182 
L 273.281271 361.527273 
L 273.048815 368.116364 
L 272.823919 374.705455 
L 272.60607 381.294545 
L 272.394863 387.883636 
L 272.189982 394.472727 
L 271.991184 401.061818 
L 271.798277 407.650909 
L 271.611105 414.24 
L 271.429524 420.829091 
L 271.253391 427.418182 
L 271.082547 434.007273 
L 270.916813 440.596364 
L 270.755994 447.185455 
L 270.59988 453.774545 
L 270.448269 460.363636 
L 270.300985 466.952727 
L 270.157918 473.541818 
L 270.01905 480.130909 
L 269.88451 486.72 
L 269.754605 493.309091 
L 269.629869 499.898182 
L 269.5111 506.487273 
L 269.399389 513.076364 
L 269.296139 519.665455 
L 269.203069 526.254545 
L 269.122204 532.843636 
L 269.05584 539.432727 
L 269.006494 546.021818 
L 268.976822 552.610909 
L 268.969525 559.2 
L 268.98723 565.789091 
L 269.032352 572.378182 
L 269.106941 578.967273 
L 269.212529 585.556364 
L 269.349971 592.145455 
L 269.519291 598.734545 
L 269.719558 605.323636 
L 269.948776 611.912727 
L 270.203823 618.501818 
L 270.48043 625.090909 
L 270.773218 631.68 
L 271.075783 638.269091 
L 271.380858 644.858182 
L 271.680508 651.447273 
L 271.966401 658.036364 
L 272.230093 664.625455 
L 272.463361 671.214545 
L 272.658529 677.803636 
L 272.808795 684.392727 
L 272.908525 690.981818 
L 272.953502 697.570909 
L 272.941114 704.16 
z
" clip-path="url(#p8f7630f170)" style="fill: #d3d3d3; stroke: #7f7f7f; stroke-width: 3"/>
   </g>
   <g id="PolyCollection_2">
    <path d="M 409.027759 704.16 
L 396.172241 704.16 
L 396.159549 697.570909 
L 396.204306 690.981818 
L 396.303878 684.392727 
L 396.453969 677.803636 
L 396.648831 671.214545 
L 396.881534 664.625455 
L 397.144284 658.036364 
L 397.428771 651.447273 
L 397.726514 644.858182 
L 398.029198 638.269091 
L 398.328977 631.68 
L 398.618724 625.090909 
L 398.892225 618.501818 
L 399.144313 611.912727 
L 399.370927 605.323636 
L 399.569118 598.734545 
L 399.736998 592.145455 
L 399.873639 585.556364 
L 399.978951 578.967273 
L 400.053522 572.378182 
L 400.098465 565.789091 
L 400.115256 559.2 
L 400.105589 552.610909 
L 400.071253 546.021818 
L 400.014024 539.432727 
L 399.935596 532.843636 
L 399.837538 526.254545 
L 399.721271 519.665455 
L 399.588079 513.076364 
L 399.439138 506.487273 
L 399.275552 499.898182 
L 399.098408 493.309091 
L 398.908824 486.72 
L 398.707997 480.130909 
L 398.497239 473.541818 
L 398.277998 466.952727 
L 398.05186 460.363636 
L 397.820536 453.774545 
L 397.585828 447.185455 
L 397.349569 440.596364 
L 397.113564 434.007273 
L 396.879509 427.418182 
L 396.648912 420.829091 
L 396.42301 414.24 
L 396.202707 407.650909 
L 395.988507 401.061818 
L 395.780482 394.472727 
L 395.57825 387.883636 
L 395.380978 381.294545 
L 395.18741 374.705455 
L 394.995909 368.116364 
L 394.804517 361.527273 
L 394.611025 354.938182 
L 394.413044 348.349091 
L 394.208075 341.76 
L 393.993572 335.170909 
L 393.766987 328.581818 
L 393.525797 321.992727 
L 393.267519 315.403636 
L 392.989691 308.814545 
L 392.689851 302.225455 
L 392.365486 295.636364 
L 392.013992 289.047273 
L 391.632615 282.458182 
L 391.218409 275.869091 
L 390.768215 269.28 
L 390.278647 262.690909 
L 389.746131 256.101818 
L 389.166958 249.512727 
L 388.537398 242.923636 
L 387.853841 236.334545 
L 387.112987 229.745455 
L 386.312069 223.156364 
L 385.449109 216.567273 
L 384.523195 209.978182 
L 383.53477 203.389091 
L 382.485915 196.8 
L 381.380618 190.210909 
L 380.225007 183.621818 
L 379.027534 177.032727 
L 377.799097 170.443636 
L 376.553079 163.854545 
L 375.305291 157.265455 
L 374.073816 150.676364 
L 372.878744 144.087273 
L 371.741787 137.498182 
L 370.685791 130.909091 
L 369.734145 124.32 
L 368.910101 117.730909 
L 368.236032 111.141818 
L 367.732652 104.552727 
L 367.418226 97.963636 
L 367.307819 91.374545 
L 367.412607 84.785455 
L 367.739302 78.196364 
L 368.28972 71.607273 
L 369.06052 65.018182 
L 370.043147 58.429091 
L 371.223979 51.84 
L 433.976021 51.84 
L 433.976021 51.84 
L 435.156853 58.429091 
L 436.13948 65.018182 
L 436.91028 71.607273 
L 437.460698 78.196364 
L 437.787393 84.785455 
L 437.892181 91.374545 
L 437.781774 97.963636 
L 437.467348 104.552727 
L 436.963968 111.141818 
L 436.289899 117.730909 
L 435.465855 124.32 
L 434.514209 130.909091 
L 433.458213 137.498182 
L 432.321256 144.087273 
L 431.126184 150.676364 
L 429.894709 157.265455 
L 428.646921 163.854545 
L 427.400903 170.443636 
L 426.172466 177.032727 
L 424.974993 183.621818 
L 423.819382 190.210909 
L 422.714085 196.8 
L 421.66523 203.389091 
L 420.676805 209.978182 
L 419.750891 216.567273 
L 418.887931 223.156364 
L 418.087013 229.745455 
L 417.346159 236.334545 
L 416.662602 242.923636 
L 416.033042 249.512727 
L 415.453869 256.101818 
L 414.921353 262.690909 
L 414.431785 269.28 
L 413.981591 275.869091 
L 413.567385 282.458182 
L 413.186008 289.047273 
L 412.834514 295.636364 
L 412.510149 302.225455 
L 412.210309 308.814545 
L 411.932481 315.403636 
L 411.674203 321.992727 
L 411.433013 328.581818 
L 411.206428 335.170909 
L 410.991925 341.76 
L 410.786956 348.349091 
L 410.588975 354.938182 
L 410.395483 361.527273 
L 410.204091 368.116364 
L 410.01259 374.705455 
L 409.819022 381.294545 
L 409.62175 387.883636 
L 409.419518 394.472727 
L 409.211493 401.061818 
L 408.997293 407.650909 
L 408.77699 414.24 
L 408.551088 420.829091 
L 408.320491 427.418182 
L 408.086436 434.007273 
L 407.850431 440.596364 
L 407.614172 447.185455 
L 407.379464 453.774545 
L 407.14814 460.363636 
L 406.922002 466.952727 
L 406.702761 473.541818 
L 406.492003 480.130909 
L 406.291176 486.72 
L 406.101592 493.309091 
L 405.924448 499.898182 
L 405.760862 506.487273 
L 405.611921 513.076364 
L 405.478729 519.665455 
L 405.362462 526.254545 
L 405.264404 532.843636 
L 405.185976 539.432727 
L 405.128747 546.021818 
L 405.094411 552.610909 
L 405.084744 559.2 
L 405.101535 565.789091 
L 405.146478 572.378182 
L 405.221049 578.967273 
L 405.326361 585.556364 
L 405.463002 592.145455 
L 405.630882 598.734545 
L 405.829073 605.323636 
L 406.055687 611.912727 
L 406.307775 618.501818 
L 406.581276 625.090909 
L 406.871023 631.68 
L 407.170802 638.269091 
L 407.473486 644.858182 
L 407.771229 651.447273 
L 408.055716 658.036364 
L 408.318466 664.625455 
L 408.551169 671.214545 
L 408.746031 677.803636 
L 408.896122 684.392727 
L 408.995694 690.981818 
L 409.040451 697.570909 
L 409.027759 704.16 
z
" clip-path="url(#p8f7630f170)" style="fill: #d3d3d3; stroke: #7f7f7f; stroke-width: 3"/>
   </g>
   <g id="PolyCollection_3">
    <path d="M 543.758845 704.16 
L 534.241155 704.16 
L 534.222506 697.570909 
L 534.254584 690.981818 
L 534.333838 684.392727 
L 534.454861 677.803636 
L 534.610741 671.214545 
L 534.793496 664.625455 
L 534.994568 658.036364 
L 535.205328 651.447273 
L 535.417551 644.858182 
L 535.623832 638.269091 
L 535.817921 631.68 
L 535.994937 625.090909 
L 536.151477 618.501818 
L 536.285617 611.912727 
L 536.396797 605.323636 
L 536.48564 598.734545 
L 536.553698 592.145455 
L 536.603167 585.556364 
L 536.636585 578.967273 
L 536.656541 572.378182 
L 536.665415 565.789091 
L 536.665151 559.2 
L 536.657092 552.610909 
L 536.641862 546.021818 
L 536.619316 539.432727 
L 536.588543 532.843636 
L 536.547922 526.254545 
L 536.495228 519.665455 
L 536.427771 513.076364 
L 536.342574 506.487273 
L 536.236563 499.898182 
L 536.10677 493.309091 
L 535.950532 486.72 
L 535.765686 480.130909 
L 535.550731 473.541818 
L 535.304967 466.952727 
L 535.028589 460.363636 
L 534.722741 453.774545 
L 534.389511 447.185455 
L 534.03188 440.596364 
L 533.65362 434.007273 
L 533.259136 427.418182 
L 532.853278 420.829091 
L 532.441108 414.24 
L 532.027654 407.650909 
L 531.617648 401.061818 
L 531.215271 394.472727 
L 530.823918 387.883636 
L 530.445987 381.294545 
L 530.082717 374.705455 
L 529.734079 368.116364 
L 529.398727 361.527273 
L 529.074016 354.938182 
L 528.756091 348.349091 
L 528.440039 341.76 
L 528.120101 335.170909 
L 527.789941 328.581818 
L 527.442944 321.992727 
L 527.072547 315.403636 
L 526.672564 308.814545 
L 526.237508 302.225455 
L 525.762867 295.636364 
L 525.245339 289.047273 
L 524.682993 282.458182 
L 524.075354 275.869091 
L 523.423403 269.28 
L 522.729489 262.690909 
L 521.99716 256.101818 
L 521.23093 249.512727 
L 520.435991 242.923636 
L 519.617894 236.334545 
L 518.782233 229.745455 
L 517.934351 223.156364 
L 517.079088 216.567273 
L 516.220612 209.978182 
L 515.362333 203.389091 
L 514.506926 196.8 
L 513.656457 190.210909 
L 512.812621 183.621818 
L 511.97707 177.032727 
L 511.151826 170.443636 
L 510.33973 163.854545 
L 509.544929 157.265455 
L 508.773321 150.676364 
L 508.032952 144.087273 
L 507.334299 137.498182 
L 506.690403 130.909091 
L 506.116817 124.32 
L 505.631333 117.730909 
L 505.253481 111.141818 
L 505.003798 104.552727 
L 504.902879 97.963636 
L 504.970275 91.374545 
L 505.223283 84.785455 
L 505.675712 78.196364 
L 506.336732 71.607273 
L 507.209886 65.018182 
L 508.292376 58.429091 
L 509.574676 51.84 
L 568.425324 51.84 
L 568.425324 51.84 
L 569.707624 58.429091 
L 570.790114 65.018182 
L 571.663268 71.607273 
L 572.324288 78.196364 
L 572.776717 84.785455 
L 573.029725 91.374545 
L 573.097121 97.963636 
L 572.996202 104.552727 
L 572.746519 111.141818 
L 572.368667 117.730909 
L 571.883183 124.32 
L 571.309597 130.909091 
L 570.665701 137.498182 
L 569.967048 144.087273 
L 569.226679 150.676364 
L 568.455071 157.265455 
L 567.66027 163.854545 
L 566.848174 170.443636 
L 566.02293 177.032727 
L 565.187379 183.621818 
L 564.343543 190.210909 
L 563.493074 196.8 
L 562.637667 203.389091 
L 561.779388 209.978182 
L 560.920912 216.567273 
L 560.065649 223.156364 
L 559.217767 229.745455 
L 558.382106 236.334545 
L 557.564009 242.923636 
L 556.76907 249.512727 
L 556.00284 256.101818 
L 555.270511 262.690909 
L 554.576597 269.28 
L 553.924646 275.869091 
L 553.317007 282.458182 
L 552.754661 289.047273 
L 552.237133 295.636364 
L 551.762492 302.225455 
L 551.327436 308.814545 
L 550.927453 315.403636 
L 550.557056 321.992727 
L 550.210059 328.581818 
L 549.879899 335.170909 
L 549.559961 341.76 
L 549.243909 348.349091 
L 548.925984 354.938182 
L 548.601273 361.527273 
L 548.265921 368.116364 
L 547.917283 374.705455 
L 547.554013 381.294545 
L 547.176082 387.883636 
L 546.784729 394.472727 
L 546.382352 401.061818 
L 545.972346 407.650909 
L 545.558892 414.24 
L 545.146722 420.829091 
L 544.740864 427.418182 
L 544.34638 434.007273 
L 543.96812 440.596364 
L 543.610489 447.185455 
L 543.277259 453.774545 
L 542.971411 460.363636 
L 542.695033 466.952727 
L 542.449269 473.541818 
L 542.234314 480.130909 
L 542.049468 486.72 
L 541.89323 493.309091 
L 541.763437 499.898182 
L 541.657426 506.487273 
L 541.572229 513.076364 
L 541.504772 519.665455 
L 541.452078 526.254545 
L 541.411457 532.843636 
L 541.380684 539.432727 
L 541.358138 546.021818 
L 541.342908 552.610909 
L 541.334849 559.2 
L 541.334585 565.789091 
L 541.343459 572.378182 
L 541.363415 578.967273 
L 541.396833 585.556364 
L 541.446302 592.145455 
L 541.51436 598.734545 
L 541.603203 605.323636 
L 541.714383 611.912727 
L 541.848523 618.501818 
L 542.005063 625.090909 
L 542.182079 631.68 
L 542.376168 638.269091 
L 542.582449 644.858182 
L 542.794672 651.447273 
L 543.005432 658.036364 
L 543.206504 664.625455 
L 543.389259 671.214545 
L 543.545139 677.803636 
L 543.666162 684.392727 
L 543.745416 690.981818 
L 543.777494 697.570909 
L 543.758845 704.16 
z
" clip-path="url(#p8f7630f170)" style="fill: #d3d3d3; stroke: #7f7f7f; stroke-width: 3"/>
   </g>
   <g id="PolyCollection_4">
    <path d="M 679.548987 704.16 
L 671.251013 704.16 
L 671.236893 697.570909 
L 671.268553 690.981818 
L 671.342525 684.392727 
L 671.453569 677.803636 
L 671.59501 671.214545 
L 671.759164 664.625455 
L 671.937815 658.036364 
L 672.122706 651.447273 
L 672.305999 644.858182 
L 672.48067 638.269091 
L 672.640822 631.68 
L 672.781879 625.090909 
L 672.900678 618.501818 
L 672.995445 611.912727 
L 673.065677 605.323636 
L 673.111952 598.734545 
L 673.135682 592.145455 
L 673.138847 585.556364 
L 673.12372 578.967273 
L 673.092621 572.378182 
L 673.047702 565.789091 
L 672.990775 559.2 
L 672.923201 552.610909 
L 672.845828 546.021818 
L 672.758972 539.432727 
L 672.662453 532.843636 
L 672.555645 526.254545 
L 672.43757 519.665455 
L 672.306989 513.076364 
L 672.162506 506.487273 
L 672.002669 499.898182 
L 671.826062 493.309091 
L 671.631388 486.72 
L 671.417539 480.130909 
L 671.183652 473.541818 
L 670.929157 466.952727 
L 670.653809 460.363636 
L 670.357716 453.774545 
L 670.041357 447.185455 
L 669.705595 440.596364 
L 669.351682 434.007273 
L 668.981261 427.418182 
L 668.596354 420.829091 
L 668.199346 414.24 
L 667.792951 407.650909 
L 667.380166 401.061818 
L 666.964211 394.472727 
L 666.548443 387.883636 
L 666.136262 381.294545 
L 665.730996 374.705455 
L 665.335777 368.116364 
L 664.953402 361.527273 
L 664.586203 354.938182 
L 664.235913 348.349091 
L 663.903548 341.76 
L 663.589308 335.170909 
L 663.292509 328.581818 
L 663.011538 321.992727 
L 662.743859 315.403636 
L 662.486044 308.814545 
L 662.233849 302.225455 
L 661.982326 295.636364 
L 661.72596 289.047273 
L 661.458822 282.458182 
L 661.174743 275.869091 
L 660.867475 269.28 
L 660.530852 262.690909 
L 660.158928 256.101818 
L 659.746096 249.512727 
L 659.287177 242.923636 
L 658.777502 236.334545 
L 658.212966 229.745455 
L 657.590085 223.156364 
L 656.906062 216.567273 
L 656.158875 209.978182 
L 655.347385 203.389091 
L 654.471505 196.8 
L 653.532389 190.210909 
L 652.532692 183.621818 
L 651.476843 177.032727 
L 650.371362 170.443636 
L 649.225172 163.854545 
L 648.049891 157.265455 
L 646.860072 150.676364 
L 645.673357 144.087273 
L 644.510496 137.498182 
L 643.395204 130.909091 
L 642.353823 124.32 
L 641.414751 117.730909 
L 640.607643 111.141818 
L 639.962383 104.552727 
L 639.50786 97.963636 
L 639.270592 91.374545 
L 639.273288 84.785455 
L 639.533435 78.196364 
L 640.062014 71.607273 
L 640.862461 65.018182 
L 641.929975 58.429091 
L 643.25125 51.84 
L 707.54875 51.84 
L 707.54875 51.84 
L 708.870025 58.429091 
L 709.937539 65.018182 
L 710.737986 71.607273 
L 711.266565 78.196364 
L 711.526712 84.785455 
L 711.529408 91.374545 
L 711.29214 97.963636 
L 710.837617 104.552727 
L 710.192357 111.141818 
L 709.385249 117.730909 
L 708.446177 124.32 
L 707.404796 130.909091 
L 706.289504 137.498182 
L 705.126643 144.087273 
L 703.939928 150.676364 
L 702.750109 157.265455 
L 701.574828 163.854545 
L 700.428638 170.443636 
L 699.323157 177.032727 
L 698.267308 183.621818 
L 697.267611 190.210909 
L 696.328495 196.8 
L 695.452615 203.389091 
L 694.641125 209.978182 
L 693.893938 216.567273 
L 693.209915 223.156364 
L 692.587034 229.745455 
L 692.022498 236.334545 
L 691.512823 242.923636 
L 691.053904 249.512727 
L 690.641072 256.101818 
L 690.269148 262.690909 
L 689.932525 269.28 
L 689.625257 275.869091 
L 689.341178 282.458182 
L 689.07404 289.047273 
L 688.817674 295.636364 
L 688.566151 302.225455 
L 688.313956 308.814545 
L 688.056141 315.403636 
L 687.788462 321.992727 
L 687.507491 328.581818 
L 687.210692 335.170909 
L 686.896452 341.76 
L 686.564087 348.349091 
L 686.213797 354.938182 
L 685.846598 361.527273 
L 685.464223 368.116364 
L 685.069004 374.705455 
L 684.663738 381.294545 
L 684.251557 387.883636 
L 683.835789 394.472727 
L 683.419834 401.061818 
L 683.007049 407.650909 
L 682.600654 414.24 
L 682.203646 420.829091 
L 681.818739 427.418182 
L 681.448318 434.007273 
L 681.094405 440.596364 
L 680.758643 447.185455 
L 680.442284 453.774545 
L 680.146191 460.363636 
L 679.870843 466.952727 
L 679.616348 473.541818 
L 679.382461 480.130909 
L 679.168612 486.72 
L 678.973938 493.309091 
L 678.797331 499.898182 
L 678.637494 506.487273 
L 678.493011 513.076364 
L 678.36243 519.665455 
L 678.244355 526.254545 
L 678.137547 532.843636 
L 678.041028 539.432727 
L 677.954172 546.021818 
L 677.876799 552.610909 
L 677.809225 559.2 
L 677.752298 565.789091 
L 677.707379 572.378182 
L 677.67628 578.967273 
L 677.661153 585.556364 
L 677.664318 592.145455 
L 677.688048 598.734545 
L 677.734323 605.323636 
L 677.804555 611.912727 
L 677.899322 618.501818 
L 678.018121 625.090909 
L 678.159178 631.68 
L 678.31933 638.269091 
L 678.494001 644.858182 
L 678.677294 651.447273 
L 678.862185 658.036364 
L 679.040836 664.625455 
L 679.20499 671.214545 
L 679.346431 677.803636 
L 679.457475 684.392727 
L 679.531447 690.981818 
L 679.563107 697.570909 
L 679.548987 704.16 
z
" clip-path="url(#p8f7630f170)" style="fill: #d3d3d3; stroke: #7f7f7f; stroke-width: 3"/>
   </g>
   <g id="PolyCollection_5">
    <path d="M 817.864506 704.16 
L 805.735494 704.16 
L 805.753364 697.570909 
L 805.836275 690.981818 
L 805.98096 684.392727 
L 806.182139 677.803636 
L 806.432802 671.214545 
L 806.724576 664.625455 
L 807.048147 658.036364 
L 807.393705 651.447273 
L 807.751381 644.858182 
L 808.111655 638.269091 
L 808.465699 631.68 
L 808.805655 625.090909 
L 809.124823 618.501818 
L 809.417767 611.912727 
L 809.680346 605.323636 
L 809.909667 598.734545 
L 810.10399 592.145455 
L 810.26259 585.556364 
L 810.385596 578.967273 
L 810.473819 572.378182 
L 810.528586 565.789091 
L 810.55159 559.2 
L 810.544753 552.610909 
L 810.510118 546.021818 
L 810.44977 539.432727 
L 810.365774 532.843636 
L 810.260139 526.254545 
L 810.134798 519.665455 
L 809.991607 513.076364 
L 809.832349 506.487273 
L 809.658747 499.898182 
L 809.472476 493.309091 
L 809.275181 486.72 
L 809.068485 480.130909 
L 808.853993 473.541818 
L 808.633285 466.952727 
L 808.407909 460.363636 
L 808.179352 453.774545 
L 807.94901 447.185455 
L 807.718143 440.596364 
L 807.487829 434.007273 
L 807.258913 427.418182 
L 807.031951 420.829091 
L 806.807168 414.24 
L 806.584416 407.650909 
L 806.363158 401.061818 
L 806.142461 394.472727 
L 805.921015 387.883636 
L 805.697173 381.294545 
L 805.469017 374.705455 
L 805.234433 368.116364 
L 804.991212 361.527273 
L 804.73714 354.938182 
L 804.470101 348.349091 
L 804.188148 341.76 
L 803.889572 335.170909 
L 803.57292 328.581818 
L 803.236998 321.992727 
L 802.880818 315.403636 
L 802.503521 308.814545 
L 802.104264 302.225455 
L 801.682084 295.636364 
L 801.235756 289.047273 
L 800.763641 282.458182 
L 800.263568 275.869091 
L 799.732735 269.28 
L 799.167661 262.690909 
L 798.564193 256.101818 
L 797.917581 249.512727 
L 797.22262 242.923636 
L 796.473863 236.334545 
L 795.665897 229.745455 
L 794.793683 223.156364 
L 793.852935 216.567273 
L 792.84053 209.978182 
L 791.754939 203.389091 
L 790.596639 196.8 
L 789.368504 190.210909 
L 788.076147 183.621818 
L 786.728189 177.032727 
L 785.336443 170.443636 
L 783.915988 163.854545 
L 782.485121 157.265455 
L 781.06518 150.676364 
L 779.680219 144.087273 
L 778.356538 137.498182 
L 777.122073 130.909091 
L 776.005648 124.32 
L 775.036112 117.730909 
L 774.241382 111.141818 
L 773.647419 104.552727 
L 773.277199 97.963636 
L 773.149698 91.374545 
L 773.27897 84.785455 
L 773.673358 78.196364 
L 774.334895 71.607273 
L 775.258942 65.018182 
L 776.434102 58.429091 
L 777.842425 51.84 
L 845.757575 51.84 
L 845.757575 51.84 
L 847.165898 58.429091 
L 848.341058 65.018182 
L 849.265105 71.607273 
L 849.926642 78.196364 
L 850.32103 84.785455 
L 850.450302 91.374545 
L 850.322801 97.963636 
L 849.952581 104.552727 
L 849.358618 111.141818 
L 848.563888 117.730909 
L 847.594352 124.32 
L 846.477927 130.909091 
L 845.243462 137.498182 
L 843.919781 144.087273 
L 842.53482 150.676364 
L 841.114879 157.265455 
L 839.684012 163.854545 
L 838.263557 170.443636 
L 836.871811 177.032727 
L 835.523853 183.621818 
L 834.231496 190.210909 
L 833.003361 196.8 
L 831.845061 203.389091 
L 830.75947 209.978182 
L 829.747065 216.567273 
L 828.806317 223.156364 
L 827.934103 229.745455 
L 827.126137 236.334545 
L 826.37738 242.923636 
L 825.682419 249.512727 
L 825.035807 256.101818 
L 824.432339 262.690909 
L 823.867265 269.28 
L 823.336432 275.869091 
L 822.836359 282.458182 
L 822.364244 289.047273 
L 821.917916 295.636364 
L 821.495736 302.225455 
L 821.096479 308.814545 
L 820.719182 315.403636 
L 820.363002 321.992727 
L 820.02708 328.581818 
L 819.710428 335.170909 
L 819.411852 341.76 
L 819.129899 348.349091 
L 818.86286 354.938182 
L 818.608788 361.527273 
L 818.365567 368.116364 
L 818.130983 374.705455 
L 817.902827 381.294545 
L 817.678985 387.883636 
L 817.457539 394.472727 
L 817.236842 401.061818 
L 817.015584 407.650909 
L 816.792832 414.24 
L 816.568049 420.829091 
L 816.341087 427.418182 
L 816.112171 434.007273 
L 815.881857 440.596364 
L 815.65099 447.185455 
L 815.420648 453.774545 
L 815.192091 460.363636 
L 814.966715 466.952727 
L 814.746007 473.541818 
L 814.531515 480.130909 
L 814.324819 486.72 
L 814.127524 493.309091 
L 813.941253 499.898182 
L 813.767651 506.487273 
L 813.608393 513.076364 
L 813.465202 519.665455 
L 813.339861 526.254545 
L 813.234226 532.843636 
L 813.15023 539.432727 
L 813.089882 546.021818 
L 813.055247 552.610909 
L 813.04841 559.2 
L 813.071414 565.789091 
L 813.126181 572.378182 
L 813.214404 578.967273 
L 813.33741 585.556364 
L 813.49601 592.145455 
L 813.690333 598.734545 
L 813.919654 605.323636 
L 814.182233 611.912727 
L 814.475177 618.501818 
L 814.794345 625.090909 
L 815.134301 631.68 
L 815.488345 638.269091 
L 815.848619 644.858182 
L 816.206295 651.447273 
L 816.551853 658.036364 
L 816.875424 664.625455 
L 817.167198 671.214545 
L 817.417861 677.803636 
L 817.61904 684.392727 
L 817.763725 690.981818 
L 817.846636 697.570909 
L 817.864506 704.16 
z
" clip-path="url(#p8f7630f170)" style="fill: #d3d3d3; stroke: #7f7f7f; stroke-width: 3"/>
   </g>
   <g id="PolyCollection_6">
    <path d="M 953.07986 704.16 
L 943.32014 704.16 
L 943.326391 697.570909 
L 943.389494 690.981818 
L 943.506143 684.392727 
L 943.671092 677.803636 
L 943.877489 671.214545 
L 944.117291 664.625455 
L 944.381738 658.036364 
L 944.661822 651.447273 
L 944.948739 644.858182 
L 945.234281 638.269091 
L 945.511136 631.68 
L 945.773108 625.090909 
L 946.01522 618.501818 
L 946.233741 611.912727 
L 946.426123 605.323636 
L 946.590884 598.734545 
L 946.727455 592.145455 
L 946.836007 585.556364 
L 946.917282 578.967273 
L 946.972441 572.378182 
L 947.002937 565.789091 
L 947.010416 559.2 
L 946.996646 552.610909 
L 946.963469 546.021818 
L 946.912769 539.432727 
L 946.846445 532.843636 
L 946.766392 526.254545 
L 946.674467 519.665455 
L 946.572464 513.076364 
L 946.462065 506.487273 
L 946.344802 499.898182 
L 946.22201 493.309091 
L 946.094787 486.72 
L 945.963972 480.130909 
L 945.830128 473.541818 
L 945.693548 466.952727 
L 945.554282 460.363636 
L 945.412169 453.774545 
L 945.266894 447.185455 
L 945.118036 440.596364 
L 944.965123 434.007273 
L 944.807675 427.418182 
L 944.645231 420.829091 
L 944.477361 414.24 
L 944.303656 407.650909 
L 944.123703 401.061818 
L 943.937048 394.472727 
L 943.743145 387.883636 
L 943.541323 381.294545 
L 943.330744 374.705455 
L 943.110393 368.116364 
L 942.879082 361.527273 
L 942.635487 354.938182 
L 942.378198 348.349091 
L 942.105803 341.76 
L 941.816973 335.170909 
L 941.510565 328.581818 
L 941.1857 321.992727 
L 940.841834 315.403636 
L 940.478797 308.814545 
L 940.096782 302.225455 
L 939.696297 295.636364 
L 939.278058 289.047273 
L 938.842837 282.458182 
L 938.391263 275.869091 
L 937.923584 269.28 
L 937.439415 262.690909 
L 936.937476 256.101818 
L 936.415345 249.512727 
L 935.869252 242.923636 
L 935.29393 236.334545 
L 934.682537 229.745455 
L 934.026691 223.156364 
L 933.316606 216.567273 
L 932.54136 209.978182 
L 931.689295 203.389091 
L 930.748555 196.8 
L 929.707751 190.210909 
L 928.556748 183.621818 
L 927.28755 177.032727 
L 925.89525 170.443636 
L 924.379008 163.854545 
L 922.74301 157.265455 
L 920.997331 150.676364 
L 919.158637 144.087273 
L 917.250661 137.498182 
L 915.304343 130.909091 
L 913.357598 124.32 
L 911.454629 117.730909 
L 909.644761 111.141818 
L 907.980807 104.552727 
L 906.516991 97.963636 
L 905.306535 91.374545 
L 904.399011 84.785455 
L 903.837657 78.196364 
L 903.656813 71.607273 
L 903.879703 65.018182 
L 904.516726 58.429091 
L 905.564436 51.84 
L 990.835564 51.84 
L 990.835564 51.84 
L 991.883274 58.429091 
L 992.520297 65.018182 
L 992.743187 71.607273 
L 992.562343 78.196364 
L 992.000989 84.785455 
L 991.093465 91.374545 
L 989.883009 97.963636 
L 988.419193 104.552727 
L 986.755239 111.141818 
L 984.945371 117.730909 
L 983.042402 124.32 
L 981.095657 130.909091 
L 979.149339 137.498182 
L 977.241363 144.087273 
L 975.402669 150.676364 
L 973.65699 157.265455 
L 972.020992 163.854545 
L 970.50475 170.443636 
L 969.11245 177.032727 
L 967.843252 183.621818 
L 966.692249 190.210909 
L 965.651445 196.8 
L 964.710705 203.389091 
L 963.85864 209.978182 
L 963.083394 216.567273 
L 962.373309 223.156364 
L 961.717463 229.745455 
L 961.10607 236.334545 
L 960.530748 242.923636 
L 959.984655 249.512727 
L 959.462524 256.101818 
L 958.960585 262.690909 
L 958.476416 269.28 
L 958.008737 275.869091 
L 957.557163 282.458182 
L 957.121942 289.047273 
L 956.703703 295.636364 
L 956.303218 302.225455 
L 955.921203 308.814545 
L 955.558166 315.403636 
L 955.2143 321.992727 
L 954.889435 328.581818 
L 954.583027 335.170909 
L 954.294197 341.76 
L 954.021802 348.349091 
L 953.764513 354.938182 
L 953.520918 361.527273 
L 953.289607 368.116364 
L 953.069256 374.705455 
L 952.858677 381.294545 
L 952.656855 387.883636 
L 952.462952 394.472727 
L 952.276297 401.061818 
L 952.096344 407.650909 
L 951.922639 414.24 
L 951.754769 420.829091 
L 951.592325 427.418182 
L 951.434877 434.007273 
L 951.281964 440.596364 
L 951.133106 447.185455 
L 950.987831 453.774545 
L 950.845718 460.363636 
L 950.706452 466.952727 
L 950.569872 473.541818 
L 950.436028 480.130909 
L 950.305213 486.72 
L 950.17799 493.309091 
L 950.055198 499.898182 
L 949.937935 506.487273 
L 949.827536 513.076364 
L 949.725533 519.665455 
L 949.633608 526.254545 
L 949.553555 532.843636 
L 949.487231 539.432727 
L 949.436531 546.021818 
L 949.403354 552.610909 
L 949.389584 559.2 
L 949.397063 565.789091 
L 949.427559 572.378182 
L 949.482718 578.967273 
L 949.563993 585.556364 
L 949.672545 592.145455 
L 949.809116 598.734545 
L 949.973877 605.323636 
L 950.166259 611.912727 
L 950.38478 618.501818 
L 950.626892 625.090909 
L 950.888864 631.68 
L 951.165719 638.269091 
L 951.451261 644.858182 
L 951.738178 651.447273 
L 952.018262 658.036364 
L 952.282709 664.625455 
L 952.522511 671.214545 
L 952.728908 677.803636 
L 952.893857 684.392727 
L 953.010506 690.981818 
L 953.073609 697.570909 
L 953.07986 704.16 
z
" clip-path="url(#p8f7630f170)" style="fill: #d3d3d3; stroke: #7f7f7f; stroke-width: 3"/>
   </g>
   <g id="PolyCollection_7">
    <path d="M 1088.171333 704.16 
L 1081.028667 704.16 
L 1081.038874 697.570909 
L 1081.098322 690.981818 
L 1081.202287 684.392727 
L 1081.34381 677.803636 
L 1081.5142 671.214545 
L 1081.70366 664.625455 
L 1081.901974 658.036364 
L 1082.099189 651.447273 
L 1082.286245 644.858182 
L 1082.455484 638.269091 
L 1082.601012 631.68 
L 1082.718902 625.090909 
L 1082.80722 618.501818 
L 1082.865912 611.912727 
L 1082.896551 605.323636 
L 1082.902004 598.734545 
L 1082.886047 592.145455 
L 1082.852955 585.556364 
L 1082.807121 578.967273 
L 1082.752718 572.378182 
L 1082.693431 565.789091 
L 1082.632259 559.2 
L 1082.571416 552.610909 
L 1082.512296 546.021818 
L 1082.455522 539.432727 
L 1082.401046 532.843636 
L 1082.348287 526.254545 
L 1082.296288 519.665455 
L 1082.243881 513.076364 
L 1082.18982 506.487273 
L 1082.132895 499.898182 
L 1082.072 493.309091 
L 1082.006156 486.72 
L 1081.934496 480.130909 
L 1081.856225 473.541818 
L 1081.770556 466.952727 
L 1081.676655 460.363636 
L 1081.573596 453.774545 
L 1081.460356 447.185455 
L 1081.335844 440.596364 
L 1081.198975 434.007273 
L 1081.048776 427.418182 
L 1080.884523 420.829091 
L 1080.705869 414.24 
L 1080.512961 407.650909 
L 1080.306515 401.061818 
L 1080.08783 394.472727 
L 1079.858735 387.883636 
L 1079.621465 381.294545 
L 1079.378466 374.705455 
L 1079.132153 368.116364 
L 1078.88464 361.527273 
L 1078.637461 354.938182 
L 1078.391315 348.349091 
L 1078.145858 341.76 
L 1077.899552 335.170909 
L 1077.649597 328.581818 
L 1077.391942 321.992727 
L 1077.121373 315.403636 
L 1076.831677 308.814545 
L 1076.515869 302.225455 
L 1076.166457 295.636364 
L 1075.775741 289.047273 
L 1075.336112 282.458182 
L 1074.840343 275.869091 
L 1074.281849 269.28 
L 1073.654898 262.690909 
L 1072.95476 256.101818 
L 1072.177791 249.512727 
L 1071.321445 242.923636 
L 1070.384215 236.334545 
L 1069.36553 229.745455 
L 1068.265609 223.156364 
L 1067.085315 216.567273 
L 1065.826017 209.978182 
L 1064.489516 203.389091 
L 1063.078048 196.8 
L 1061.594389 190.210909 
L 1060.042093 183.621818 
L 1058.425866 177.032727 
L 1056.752068 170.443636 
L 1055.029339 163.854545 
L 1053.269301 157.265455 
L 1051.487296 150.676364 
L 1049.703073 144.087273 
L 1047.941358 137.498182 
L 1046.232177 130.909091 
L 1044.61085 124.32 
L 1043.117547 117.730909 
L 1041.796339 111.141818 
L 1040.693688 104.552727 
L 1039.85642 97.963636 
L 1039.329237 91.374545 
L 1039.151927 84.785455 
L 1039.356472 78.196364 
L 1039.964316 71.607273 
L 1040.984052 65.018182 
L 1042.409802 58.429091 
L 1044.220492 51.84 
L 1124.979508 51.84 
L 1124.979508 51.84 
L 1126.790198 58.429091 
L 1128.215948 65.018182 
L 1129.235684 71.607273 
L 1129.843528 78.196364 
L 1130.048073 84.785455 
L 1129.870763 91.374545 
L 1129.34358 97.963636 
L 1128.506312 104.552727 
L 1127.403661 111.141818 
L 1126.082453 117.730909 
L 1124.58915 124.32 
L 1122.967823 130.909091 
L 1121.258642 137.498182 
L 1119.496927 144.087273 
L 1117.712704 150.676364 
L 1115.930699 157.265455 
L 1114.170661 163.854545 
L 1112.447932 170.443636 
L 1110.774134 177.032727 
L 1109.157907 183.621818 
L 1107.605611 190.210909 
L 1106.121952 196.8 
L 1104.710484 203.389091 
L 1103.373983 209.978182 
L 1102.114685 216.567273 
L 1100.934391 223.156364 
L 1099.83447 229.745455 
L 1098.815785 236.334545 
L 1097.878555 242.923636 
L 1097.022209 249.512727 
L 1096.24524 256.101818 
L 1095.545102 262.690909 
L 1094.918151 269.28 
L 1094.359657 275.869091 
L 1093.863888 282.458182 
L 1093.424259 289.047273 
L 1093.033543 295.636364 
L 1092.684131 302.225455 
L 1092.368323 308.814545 
L 1092.078627 315.403636 
L 1091.808058 321.992727 
L 1091.550403 328.581818 
L 1091.300448 335.170909 
L 1091.054142 341.76 
L 1090.808685 348.349091 
L 1090.562539 354.938182 
L 1090.31536 361.527273 
L 1090.067847 368.116364 
L 1089.821534 374.705455 
L 1089.578535 381.294545 
L 1089.341265 387.883636 
L 1089.11217 394.472727 
L 1088.893485 401.061818 
L 1088.687039 407.650909 
L 1088.494131 414.24 
L 1088.315477 420.829091 
L 1088.151224 427.418182 
L 1088.001025 434.007273 
L 1087.864156 440.596364 
L 1087.739644 447.185455 
L 1087.626404 453.774545 
L 1087.523345 460.363636 
L 1087.429444 466.952727 
L 1087.343775 473.541818 
L 1087.265504 480.130909 
L 1087.193844 486.72 
L 1087.128 493.309091 
L 1087.067105 499.898182 
L 1087.01018 506.487273 
L 1086.956119 513.076364 
L 1086.903712 519.665455 
L 1086.851713 526.254545 
L 1086.798954 532.843636 
L 1086.744478 539.432727 
L 1086.687704 546.021818 
L 1086.628584 552.610909 
L 1086.567741 559.2 
L 1086.506569 565.789091 
L 1086.447282 572.378182 
L 1086.392879 578.967273 
L 1086.347045 585.556364 
L 1086.313953 592.145455 
L 1086.297996 598.734545 
L 1086.303449 605.323636 
L 1086.334088 611.912727 
L 1086.39278 618.501818 
L 1086.481098 625.090909 
L 1086.598988 631.68 
L 1086.744516 638.269091 
L 1086.913755 644.858182 
L 1087.100811 651.447273 
L 1087.298026 658.036364 
L 1087.49634 664.625455 
L 1087.6858 671.214545 
L 1087.85619 677.803636 
L 1087.997713 684.392727 
L 1088.101678 690.981818 
L 1088.161126 697.570909 
L 1088.171333 704.16 
z
" clip-path="url(#p8f7630f170)" style="fill: #d3d3d3; stroke: #7f7f7f; stroke-width: 3"/>
   </g>
   <g id="PolyCollection_8">
    <path d="M 1224.910234 704.16 
L 1217.089766 704.16 
L 1217.114283 697.570909 
L 1217.198974 690.981818 
L 1217.339023 684.392727 
L 1217.527015 677.803636 
L 1217.753515 671.214545 
L 1218.00778 664.625455 
L 1218.278537 658.036364 
L 1218.554738 651.447273 
L 1218.82623 644.858182 
L 1219.084287 638.269091 
L 1219.321952 631.68 
L 1219.534207 625.090909 
L 1219.717953 618.501818 
L 1219.871839 611.912727 
L 1219.995983 605.323636 
L 1220.091629 598.734545 
L 1220.160769 592.145455 
L 1220.205796 585.556364 
L 1220.229197 578.967273 
L 1220.23331 572.378182 
L 1220.22016 565.789091 
L 1220.191372 559.2 
L 1220.148143 552.610909 
L 1220.091278 546.021818 
L 1220.021258 539.432727 
L 1219.938344 532.843636 
L 1219.842681 526.254545 
L 1219.734407 519.665455 
L 1219.613753 513.076364 
L 1219.481123 506.487273 
L 1219.337144 499.898182 
L 1219.182699 493.309091 
L 1219.018919 486.72 
L 1218.847146 480.130909 
L 1218.668865 473.541818 
L 1218.485612 466.952727 
L 1218.298853 460.363636 
L 1218.109861 453.774545 
L 1217.919583 447.185455 
L 1217.728529 440.596364 
L 1217.536684 434.007273 
L 1217.343466 427.418182 
L 1217.147727 420.829091 
L 1216.947819 414.24 
L 1216.741709 407.650909 
L 1216.527143 401.061818 
L 1216.301842 394.472727 
L 1216.063708 387.883636 
L 1215.811022 381.294545 
L 1215.542607 374.705455 
L 1215.257925 368.116364 
L 1214.957114 361.527273 
L 1214.640926 354.938182 
L 1214.310596 348.349091 
L 1213.967623 341.76 
L 1213.613498 335.170909 
L 1213.249405 328.581818 
L 1212.87591 321.992727 
L 1212.492687 315.403636 
L 1212.0983 308.814545 
L 1211.690073 302.225455 
L 1211.264069 295.636364 
L 1210.815172 289.047273 
L 1210.337285 282.458182 
L 1209.823618 275.869091 
L 1209.267045 269.28 
L 1208.660489 262.690909 
L 1207.997304 256.101818 
L 1207.271612 249.512727 
L 1206.478566 242.923636 
L 1205.614517 236.334545 
L 1204.677075 229.745455 
L 1203.665063 223.156364 
L 1202.578399 216.567273 
L 1201.417924 209.978182 
L 1200.185215 203.389091 
L 1198.882439 196.8 
L 1197.512275 190.210909 
L 1196.077964 183.621818 
L 1194.583493 177.032727 
L 1193.033957 170.443636 
L 1191.43608 163.854545 
L 1189.798898 157.265455 
L 1188.134553 150.676364 
L 1186.459128 144.087273 
L 1184.793457 137.498182 
L 1183.163762 130.909091 
L 1181.602013 124.32 
L 1180.145859 117.730909 
L 1178.838024 111.141818 
L 1177.725064 104.552727 
L 1176.855472 97.963636 
L 1176.277175 91.374545 
L 1176.034538 84.785455 
L 1176.165124 78.196364 
L 1176.69646 71.607273 
L 1177.643169 65.018182 
L 1179.00477 58.429091 
L 1180.764446 51.84 
L 1261.235554 51.84 
L 1261.235554 51.84 
L 1262.99523 58.429091 
L 1264.356831 65.018182 
L 1265.30354 71.607273 
L 1265.834876 78.196364 
L 1265.965462 84.785455 
L 1265.722825 91.374545 
L 1265.144528 97.963636 
L 1264.274936 104.552727 
L 1263.161976 111.141818 
L 1261.854141 117.730909 
L 1260.397987 124.32 
L 1258.836238 130.909091 
L 1257.206543 137.498182 
L 1255.540872 144.087273 
L 1253.865447 150.676364 
L 1252.201102 157.265455 
L 1250.56392 163.854545 
L 1248.966043 170.443636 
L 1247.416507 177.032727 
L 1245.922036 183.621818 
L 1244.487725 190.210909 
L 1243.117561 196.8 
L 1241.814785 203.389091 
L 1240.582076 209.978182 
L 1239.421601 216.567273 
L 1238.334937 223.156364 
L 1237.322925 229.745455 
L 1236.385483 236.334545 
L 1235.521434 242.923636 
L 1234.728388 249.512727 
L 1234.002696 256.101818 
L 1233.339511 262.690909 
L 1232.732955 269.28 
L 1232.176382 275.869091 
L 1231.662715 282.458182 
L 1231.184828 289.047273 
L 1230.735931 295.636364 
L 1230.309927 302.225455 
L 1229.9017 308.814545 
L 1229.507313 315.403636 
L 1229.12409 321.992727 
L 1228.750595 328.581818 
L 1228.386502 335.170909 
L 1228.032377 341.76 
L 1227.689404 348.349091 
L 1227.359074 354.938182 
L 1227.042886 361.527273 
L 1226.742075 368.116364 
L 1226.457393 374.705455 
L 1226.188978 381.294545 
L 1225.936292 387.883636 
L 1225.698158 394.472727 
L 1225.472857 401.061818 
L 1225.258291 407.650909 
L 1225.052181 414.24 
L 1224.852273 420.829091 
L 1224.656534 427.418182 
L 1224.463316 434.007273 
L 1224.271471 440.596364 
L 1224.080417 447.185455 
L 1223.890139 453.774545 
L 1223.701147 460.363636 
L 1223.514388 466.952727 
L 1223.331135 473.541818 
L 1223.152854 480.130909 
L 1222.981081 486.72 
L 1222.817301 493.309091 
L 1222.662856 499.898182 
L 1222.518877 506.487273 
L 1222.386247 513.076364 
L 1222.265593 519.665455 
L 1222.157319 526.254545 
L 1222.061656 532.843636 
L 1221.978742 539.432727 
L 1221.908722 546.021818 
L 1221.851857 552.610909 
L 1221.808628 559.2 
L 1221.77984 565.789091 
L 1221.76669 572.378182 
L 1221.770803 578.967273 
L 1221.794204 585.556364 
L 1221.839231 592.145455 
L 1221.908371 598.734545 
L 1222.004017 605.323636 
L 1222.128161 611.912727 
L 1222.282047 618.501818 
L 1222.465793 625.090909 
L 1222.678048 631.68 
L 1222.915713 638.269091 
L 1223.17377 644.858182 
L 1223.445262 651.447273 
L 1223.721463 658.036364 
L 1223.99222 664.625455 
L 1224.246485 671.214545 
L 1224.472985 677.803636 
L 1224.660977 684.392727 
L 1224.801026 690.981818 
L 1224.885717 697.570909 
L 1224.910234 704.16 
z
" clip-path="url(#p8f7630f170)" style="fill: #d3d3d3; stroke: #7f7f7f; stroke-width: 3"/>
   </g>
   <g id="PolyCollection_9">
    <path d="M 1358.570722 704.16 
L 1356.229278 704.16 
L 1356.242656 697.570909 
L 1356.285485 690.981818 
L 1356.35348 684.392727 
L 1356.440308 677.803636 
L 1356.538354 671.214545 
L 1356.639609 664.625455 
L 1356.736545 658.036364 
L 1356.822862 651.447273 
L 1356.894007 644.858182 
L 1356.947422 638.269091 
L 1356.98253 631.68 
L 1357.000472 625.090909 
L 1357.003671 618.501818 
L 1356.995267 611.912727 
L 1356.978516 605.323636 
L 1356.956217 598.734545 
L 1356.930234 592.145455 
L 1356.901176 585.556364 
L 1356.868285 578.967273 
L 1356.829554 572.378182 
L 1356.782061 565.789091 
L 1356.722486 559.2 
L 1356.647733 552.610909 
L 1356.555551 546.021818 
L 1356.445049 539.432727 
L 1356.317007 532.843636 
L 1356.173912 526.254545 
L 1356.019717 519.665455 
L 1355.859334 513.076364 
L 1355.69798 506.487273 
L 1355.540469 499.898182 
L 1355.390584 493.309091 
L 1355.250627 486.72 
L 1355.121213 480.130909 
L 1355.001289 473.541818 
L 1354.888343 466.952727 
L 1354.778713 460.363636 
L 1354.667922 453.774545 
L 1354.550957 447.185455 
L 1354.422504 440.596364 
L 1354.277148 434.007273 
L 1354.109594 427.418182 
L 1353.914983 420.829091 
L 1353.689307 414.24 
L 1353.429911 407.650909 
L 1353.135973 401.061818 
L 1352.808855 394.472727 
L 1352.452175 387.883636 
L 1352.071514 381.294545 
L 1351.673747 374.705455 
L 1351.266085 368.116364 
L 1350.854993 361.527273 
L 1350.445209 354.938182 
L 1350.039072 348.349091 
L 1349.636295 341.76 
L 1349.234231 335.170909 
L 1348.828541 328.581818 
L 1348.414116 321.992727 
L 1347.986022 315.403636 
L 1347.540293 308.814545 
L 1347.074432 302.225455 
L 1346.587595 295.636364 
L 1346.080494 289.047273 
L 1345.555137 282.458182 
L 1345.014503 275.869091 
L 1344.462228 269.28 
L 1343.902293 262.690909 
L 1343.338671 256.101818 
L 1342.774803 249.512727 
L 1342.212844 242.923636 
L 1341.652619 236.334545 
L 1341.090382 229.745455 
L 1340.517548 223.156364 
L 1339.91966 216.567273 
L 1339.275905 209.978182 
L 1338.559423 203.389091 
L 1337.738585 196.8 
L 1336.779238 190.210909 
L 1335.647746 183.621818 
L 1334.31448 177.032727 
L 1332.757324 170.443636 
L 1330.964688 163.854545 
L 1328.937613 157.265455 
L 1326.690723 150.676364 
L 1324.251981 144.087273 
L 1321.661549 137.498182 
L 1318.970212 130.909091 
L 1316.237981 124.32 
L 1313.533374 117.730909 
L 1310.933549 111.141818 
L 1308.525007 104.552727 
L 1306.404077 97.963636 
L 1304.676012 91.374545 
L 1303.451529 84.785455 
L 1302.84 78.196364 
L 1302.939308 71.607273 
L 1303.823397 65.018182 
L 1305.529503 58.429091 
L 1308.047606 51.84 
L 1406.752394 51.84 
L 1406.752394 51.84 
L 1409.270497 58.429091 
L 1410.976603 65.018182 
L 1411.860692 71.607273 
L 1411.96 78.196364 
L 1411.348471 84.785455 
L 1410.123988 91.374545 
L 1408.395923 97.963636 
L 1406.274993 104.552727 
L 1403.866451 111.141818 
L 1401.266626 117.730909 
L 1398.562019 124.32 
L 1395.829788 130.909091 
L 1393.138451 137.498182 
L 1390.548019 144.087273 
L 1388.109277 150.676364 
L 1385.862387 157.265455 
L 1383.835312 163.854545 
L 1382.042676 170.443636 
L 1380.48552 177.032727 
L 1379.152254 183.621818 
L 1378.020762 190.210909 
L 1377.061415 196.8 
L 1376.240577 203.389091 
L 1375.524095 209.978182 
L 1374.88034 216.567273 
L 1374.282452 223.156364 
L 1373.709618 229.745455 
L 1373.147381 236.334545 
L 1372.587156 242.923636 
L 1372.025197 249.512727 
L 1371.461329 256.101818 
L 1370.897707 262.690909 
L 1370.337772 269.28 
L 1369.785497 275.869091 
L 1369.244863 282.458182 
L 1368.719506 289.047273 
L 1368.212405 295.636364 
L 1367.725568 302.225455 
L 1367.259707 308.814545 
L 1366.813978 315.403636 
L 1366.385884 321.992727 
L 1365.971459 328.581818 
L 1365.565769 335.170909 
L 1365.163705 341.76 
L 1364.760928 348.349091 
L 1364.354791 354.938182 
L 1363.945007 361.527273 
L 1363.533915 368.116364 
L 1363.126253 374.705455 
L 1362.728486 381.294545 
L 1362.347825 387.883636 
L 1361.991145 394.472727 
L 1361.664027 401.061818 
L 1361.370089 407.650909 
L 1361.110693 414.24 
L 1360.885017 420.829091 
L 1360.690406 427.418182 
L 1360.522852 434.007273 
L 1360.377496 440.596364 
L 1360.249043 447.185455 
L 1360.132078 453.774545 
L 1360.021287 460.363636 
L 1359.911657 466.952727 
L 1359.798711 473.541818 
L 1359.678787 480.130909 
L 1359.549373 486.72 
L 1359.409416 493.309091 
L 1359.259531 499.898182 
L 1359.10202 506.487273 
L 1358.940666 513.076364 
L 1358.780283 519.665455 
L 1358.626088 526.254545 
L 1358.482993 532.843636 
L 1358.354951 539.432727 
L 1358.244449 546.021818 
L 1358.152267 552.610909 
L 1358.077514 559.2 
L 1358.017939 565.789091 
L 1357.970446 572.378182 
L 1357.931715 578.967273 
L 1357.898824 585.556364 
L 1357.869766 592.145455 
L 1357.843783 598.734545 
L 1357.821484 605.323636 
L 1357.804733 611.912727 
L 1357.796329 618.501818 
L 1357.799528 625.090909 
L 1357.81747 631.68 
L 1357.852578 638.269091 
L 1357.905993 644.858182 
L 1357.977138 651.447273 
L 1358.063455 658.036364 
L 1358.160391 664.625455 
L 1358.261646 671.214545 
L 1358.359692 677.803636 
L 1358.44652 684.392727 
L 1358.514515 690.981818 
L 1358.557344 697.570909 
L 1358.570722 704.16 
z
" clip-path="url(#p8f7630f170)" style="fill: #d3d3d3; stroke: #7f7f7f; stroke-width: 3"/>
   </g>
   <g id="PathCollection_1">
    <defs>
     <path id="C0_0_981e5c678a" d="M 0 3.383948 
C 0.897434 3.383948 1.758231 3.027394 2.392813 2.392813 
C 3.027394 1.758231 3.383948 0.897434 3.383948 -0 
C 3.383948 -0.897434 3.027394 -1.758231 2.392813 -2.392813 
C 1.758231 -3.027394 0.897434 -3.383948 0 -3.383948 
C -0.897434 -3.383948 -1.758231 -3.027394 -2.392813 -2.392813 
C -3.027394 -1.758231 -3.383948 -0.897434 -3.383948 0 
C -3.383948 0.897434 -3.027394 1.758231 -2.392813 2.392813 
C -1.758231 3.027394 -0.897434 3.383948 0 3.383948 
z
"/>
    </defs>
    <g clip-path="url(#p8f7630f170)">
     <use xlink:href="#C0_0_981e5c678a" x="266.2" y="216.074654" style="fill: #808080; stroke: #808080; stroke-width: 2.025"/>
    </g>
    <g clip-path="url(#p8f7630f170)">
     <use xlink:href="#C0_0_981e5c678a" x="402.6" y="215.146169" style="fill: #808080; stroke: #808080; stroke-width: 2.025"/>
    </g>
    <g clip-path="url(#p8f7630f170)">
     <use xlink:href="#C0_0_981e5c678a" x="539" y="210.051407" style="fill: #808080; stroke: #808080; stroke-width: 2.025"/>
    </g>
    <g clip-path="url(#p8f7630f170)">
     <use xlink:href="#C0_0_981e5c678a" x="675.4" y="204.349559" style="fill: #808080; stroke: #808080; stroke-width: 2.025"/>
    </g>
    <g clip-path="url(#p8f7630f170)">
     <use xlink:href="#C0_0_981e5c678a" x="811.8" y="198.316789" style="fill: #808080; stroke: #808080; stroke-width: 2.025"/>
    </g>
    <g clip-path="url(#p8f7630f170)">
     <use xlink:href="#C0_0_981e5c678a" x="948.2" y="168.919536" style="fill: #808080; stroke: #808080; stroke-width: 2.025"/>
    </g>
    <g clip-path="url(#p8f7630f170)">
     <use xlink:href="#C0_0_981e5c678a" x="1084.6" y="170.686038" style="fill: #808080; stroke: #808080; stroke-width: 2.025"/>
    </g>
    <g clip-path="url(#p8f7630f170)">
     <use xlink:href="#C0_0_981e5c678a" x="1221" y="169.621852" style="fill: #808080; stroke: #808080; stroke-width: 2.025"/>
    </g>
    <g clip-path="url(#p8f7630f170)">
     <use xlink:href="#C0_0_981e5c678a" x="1357.4" y="149.161859" style="fill: #808080; stroke: #808080; stroke-width: 2.025"/>
    </g>
   </g>
   <g id="patch_3">
    <path d="M 198 378 
L 1425.6 378 
" style="fill: none; stroke: #cccccc; stroke-width: 1.25; stroke-linejoin: miter; stroke-linecap: square"/>
   </g>
  </g>
  <g id="text_14">
   <!-- SRtrain -->
   <g style="fill: #262626" transform="translate(754.282969 22.317187)scale(0.18 -0.18)">
    <defs>
     <path id="DejaVuSans-Bold-53" d="M 3834 4519 
L 3834 3531 
Q 3450 3703 3084 3790 
Q 2719 3878 2394 3878 
Q 1963 3878 1756 3759 
Q 1550 3641 1550 3391 
Q 1550 3203 1689 3098 
Q 1828 2994 2194 2919 
L 2706 2816 
Q 3484 2659 3812 2340 
Q 4141 2022 4141 1434 
Q 4141 663 3683 286 
Q 3225 -91 2284 -91 
Q 1841 -91 1394 -6 
Q 947 78 500 244 
L 500 1259 
Q 947 1022 1364 901 
Q 1781 781 2169 781 
Q 2563 781 2772 912 
Q 2981 1044 2981 1288 
Q 2981 1506 2839 1625 
Q 2697 1744 2272 1838 
L 1806 1941 
Q 1106 2091 782 2419 
Q 459 2747 459 3303 
Q 459 4000 909 4375 
Q 1359 4750 2203 4750 
Q 2588 4750 2994 4692 
Q 3400 4634 3834 4519 
z
" transform="scale(0.015625)"/>
     <path id="DejaVuSans-Bold-52" d="M 2297 2597 
Q 2675 2597 2839 2737 
Q 3003 2878 3003 3200 
Q 3003 3519 2839 3656 
Q 2675 3794 2297 3794 
L 1791 3794 
L 1791 2597 
L 2297 2597 
z
M 1791 1766 
L 1791 0 
L 588 0 
L 588 4666 
L 2425 4666 
Q 3347 4666 3776 4356 
Q 4206 4047 4206 3378 
Q 4206 2916 3982 2619 
Q 3759 2322 3309 2181 
Q 3556 2125 3751 1926 
Q 3947 1728 4147 1325 
L 4800 0 
L 3519 0 
L 2950 1159 
Q 2778 1509 2601 1637 
Q 2425 1766 2131 1766 
L 1791 1766 
z
" transform="scale(0.015625)"/>
     <path id="DejaVuSans-Bold-74" d="M 1759 4494 
L 1759 3500 
L 2913 3500 
L 2913 2700 
L 1759 2700 
L 1759 1216 
Q 1759 972 1856 886 
Q 1953 800 2241 800 
L 2816 800 
L 2816 0 
L 1856 0 
Q 1194 0 917 276 
Q 641 553 641 1216 
L 641 2700 
L 84 2700 
L 84 3500 
L 641 3500 
L 641 4494 
L 1759 4494 
z
" transform="scale(0.015625)"/>
     <path id="DejaVuSans-Bold-72" d="M 3138 2547 
Q 2991 2616 2845 2648 
Q 2700 2681 2553 2681 
Q 2122 2681 1889 2404 
Q 1656 2128 1656 1613 
L 1656 0 
L 538 0 
L 538 3500 
L 1656 3500 
L 1656 2925 
Q 1872 3269 2151 3426 
Q 2431 3584 2822 3584 
Q 2878 3584 2943 3579 
Q 3009 3575 3134 3559 
L 3138 2547 
z
" transform="scale(0.015625)"/>
     <path id="DejaVuSans-Bold-61" d="M 2106 1575 
Q 1756 1575 1579 1456 
Q 1403 1338 1403 1106 
Q 1403 894 1545 773 
Q 1688 653 1941 653 
Q 2256 653 2472 879 
Q 2688 1106 2688 1447 
L 2688 1575 
L 2106 1575 
z
M 3816 1997 
L 3816 0 
L 2688 0 
L 2688 519 
Q 2463 200 2181 54 
Q 1900 -91 1497 -91 
Q 953 -91 614 226 
Q 275 544 275 1050 
Q 275 1666 698 1953 
Q 1122 2241 2028 2241 
L 2688 2241 
L 2688 2328 
Q 2688 2594 2478 2717 
Q 2269 2841 1825 2841 
Q 1466 2841 1156 2769 
Q 847 2697 581 2553 
L 581 3406 
Q 941 3494 1303 3539 
Q 1666 3584 2028 3584 
Q 2975 3584 3395 3211 
Q 3816 2838 3816 1997 
z
" transform="scale(0.015625)"/>
     <path id="DejaVuSans-Bold-69" d="M 538 3500 
L 1656 3500 
L 1656 0 
L 538 0 
L 538 3500 
z
M 538 4863 
L 1656 4863 
L 1656 3950 
L 538 3950 
L 538 4863 
z
" transform="scale(0.015625)"/>
     <path id="DejaVuSans-Bold-6e" d="M 4056 2131 
L 4056 0 
L 2931 0 
L 2931 347 
L 2931 1631 
Q 2931 2084 2911 2256 
Q 2891 2428 2841 2509 
Q 2775 2619 2662 2680 
Q 2550 2741 2406 2741 
Q 2056 2741 1856 2470 
Q 1656 2200 1656 1722 
L 1656 0 
L 538 0 
L 538 3500 
L 1656 3500 
L 1656 2988 
Q 1909 3294 2193 3439 
Q 2478 3584 2822 3584 
Q 3428 3584 3742 3212 
Q 4056 2841 4056 2131 
z
" transform="scale(0.015625)"/>
    </defs>
    <use xlink:href="#DejaVuSans-Bold-53"/>
    <use xlink:href="#DejaVuSans-Bold-52" x="72.021484"/>
    <use xlink:href="#DejaVuSans-Bold-74" x="149.023438"/>
    <use xlink:href="#DejaVuSans-Bold-72" x="196.826172"/>
    <use xlink:href="#DejaVuSans-Bold-61" x="246.142578"/>
    <use xlink:href="#DejaVuSans-Bold-69" x="313.623047"/>
    <use xlink:href="#DejaVuSans-Bold-6e" x="347.900391"/>
   </g>
  </g>
 </g>
 <defs>
  <clipPath id="p8f7630f170">
   <rect x="198" y="51.84" width="1227.6" height="326.16"/>
  </clipPath>
 </defs>
</svg>
