<?xml version="1.0" encoding="utf-8" standalone="no"?>
<!DOCTYPE svg PUBLIC "-//W3C//DTD SVG 1.1//EN"
  "http://www.w3.org/Graphics/SVG/1.1/DTD/svg11.dtd">
<svg xmlns:xlink="http://www.w3.org/1999/xlink" width="1584pt" height="432pt" viewBox="0 0 1584 432" xmlns="http://www.w3.org/2000/svg" version="1.1">
 <metadata>
  <rdf:RDF xmlns:dc="http://purl.org/dc/elements/1.1/" xmlns:cc="http://creativecommons.org/ns#" xmlns:rdf="http://www.w3.org/1999/02/22-rdf-syntax-ns#">
   <cc:Work>
    <dc:type rdf:resource="http://purl.org/dc/dcmitype/StillImage"/>
    <dc:date>2024-01-16T16:38:59.827988</dc:date>
    <dc:format>image/svg+xml</dc:format>
    <dc:creator>
     <cc:Agent>
      <dc:title>Matplotlib v3.5.1, https://matplotlib.org/</dc:title>
     </cc:Agent>
    </dc:creator>
   </cc:Work>
  </rdf:RDF>
 </metadata>
 <defs>
  <style type="text/css">*{stroke-linejoin: round; stroke-linecap: butt}</style>
 </defs>
 <g id="figure_1">
  <g id="patch_1">
   <path d="M 0 432 
L 1584 432 
L 1584 0 
L 0 0 
z
" style="fill: #ffffff"/>
  </g>
  <g id="axes_1">
   <g id="patch_2">
    <path d="M 198 378 
L 1425.6 378 
L 1425.6 51.84 
L 198 51.84 
z
" style="fill: #ffffff"/>
   </g>
   <g id="matplotlib.axis_1">
    <g id="xtick_1">
     <g id="text_1">
      <!-- RNAfold -->
      <g style="fill: #262626" transform="translate(230.493906 401.177188)scale(0.18 -0.18)">
       <defs>
        <path id="DejaVuSans-52" d="M 2841 2188 
Q 3044 2119 3236 1894 
Q 3428 1669 3622 1275 
L 4263 0 
L 3584 0 
L 2988 1197 
Q 2756 1666 2539 1819 
Q 2322 1972 1947 1972 
L 1259 1972 
L 1259 0 
L 628 0 
L 628 4666 
L 2053 4666 
Q 2853 4666 3247 4331 
Q 3641 3997 3641 3322 
Q 3641 2881 3436 2590 
Q 3231 2300 2841 2188 
z
M 1259 4147 
L 1259 2491 
L 2053 2491 
Q 2509 2491 2742 2702 
Q 2975 2913 2975 3322 
Q 2975 3731 2742 3939 
Q 2509 4147 2053 4147 
L 1259 4147 
z
" transform="scale(0.015625)"/>
        <path id="DejaVuSans-4e" d="M 628 4666 
L 1478 4666 
L 3547 763 
L 3547 4666 
L 4159 4666 
L 4159 0 
L 3309 0 
L 1241 3903 
L 1241 0 
L 628 0 
L 628 4666 
z
" transform="scale(0.015625)"/>
        <path id="DejaVuSans-41" d="M 2188 4044 
L 1331 1722 
L 3047 1722 
L 2188 4044 
z
M 1831 4666 
L 2547 4666 
L 4325 0 
L 3669 0 
L 3244 1197 
L 1141 1197 
L 716 0 
L 50 0 
L 1831 4666 
z
" transform="scale(0.015625)"/>
        <path id="DejaVuSans-66" d="M 2375 4863 
L 2375 4384 
L 1825 4384 
Q 1516 4384 1395 4259 
Q 1275 4134 1275 3809 
L 1275 3500 
L 2222 3500 
L 2222 3053 
L 1275 3053 
L 1275 0 
L 697 0 
L 697 3053 
L 147 3053 
L 147 3500 
L 697 3500 
L 697 3744 
Q 697 4328 969 4595 
Q 1241 4863 1831 4863 
L 2375 4863 
z
" transform="scale(0.015625)"/>
        <path id="DejaVuSans-6f" d="M 1959 3097 
Q 1497 3097 1228 2736 
Q 959 2375 959 1747 
Q 959 1119 1226 758 
Q 1494 397 1959 397 
Q 2419 397 2687 759 
Q 2956 1122 2956 1747 
Q 2956 2369 2687 2733 
Q 2419 3097 1959 3097 
z
M 1959 3584 
Q 2709 3584 3137 3096 
Q 3566 2609 3566 1747 
Q 3566 888 3137 398 
Q 2709 -91 1959 -91 
Q 1206 -91 779 398 
Q 353 888 353 1747 
Q 353 2609 779 3096 
Q 1206 3584 1959 3584 
z
" transform="scale(0.015625)"/>
        <path id="DejaVuSans-6c" d="M 603 4863 
L 1178 4863 
L 1178 0 
L 603 0 
L 603 4863 
z
" transform="scale(0.015625)"/>
        <path id="DejaVuSans-64" d="M 2906 2969 
L 2906 4863 
L 3481 4863 
L 3481 0 
L 2906 0 
L 2906 525 
Q 2725 213 2448 61 
Q 2172 -91 1784 -91 
Q 1150 -91 751 415 
Q 353 922 353 1747 
Q 353 2572 751 3078 
Q 1150 3584 1784 3584 
Q 2172 3584 2448 3432 
Q 2725 3281 2906 2969 
z
M 947 1747 
Q 947 1113 1208 752 
Q 1469 391 1925 391 
Q 2381 391 2643 752 
Q 2906 1113 2906 1747 
Q 2906 2381 2643 2742 
Q 2381 3103 1925 3103 
Q 1469 3103 1208 2742 
Q 947 2381 947 1747 
z
" transform="scale(0.015625)"/>
       </defs>
       <use xlink:href="#DejaVuSans-52"/>
       <use xlink:href="#DejaVuSans-4e" x="69.482422"/>
       <use xlink:href="#DejaVuSans-41" x="144.287109"/>
       <use xlink:href="#DejaVuSans-66" x="209.070312"/>
       <use xlink:href="#DejaVuSans-6f" x="244.275391"/>
       <use xlink:href="#DejaVuSans-6c" x="305.457031"/>
       <use xlink:href="#DejaVuSans-64" x="333.240234"/>
      </g>
     </g>
    </g>
    <g id="xtick_2">
     <g id="text_2">
      <!-- ShapeKnots -->
      <g style="fill: #262626" transform="translate(349.086563 401.177188)scale(0.18 -0.18)">
       <defs>
        <path id="DejaVuSans-53" d="M 3425 4513 
L 3425 3897 
Q 3066 4069 2747 4153 
Q 2428 4238 2131 4238 
Q 1616 4238 1336 4038 
Q 1056 3838 1056 3469 
Q 1056 3159 1242 3001 
Q 1428 2844 1947 2747 
L 2328 2669 
Q 3034 2534 3370 2195 
Q 3706 1856 3706 1288 
Q 3706 609 3251 259 
Q 2797 -91 1919 -91 
Q 1588 -91 1214 -16 
Q 841 59 441 206 
L 441 856 
Q 825 641 1194 531 
Q 1563 422 1919 422 
Q 2459 422 2753 634 
Q 3047 847 3047 1241 
Q 3047 1584 2836 1778 
Q 2625 1972 2144 2069 
L 1759 2144 
Q 1053 2284 737 2584 
Q 422 2884 422 3419 
Q 422 4038 858 4394 
Q 1294 4750 2059 4750 
Q 2388 4750 2728 4690 
Q 3069 4631 3425 4513 
z
" transform="scale(0.015625)"/>
        <path id="DejaVuSans-68" d="M 3513 2113 
L 3513 0 
L 2938 0 
L 2938 2094 
Q 2938 2591 2744 2837 
Q 2550 3084 2163 3084 
Q 1697 3084 1428 2787 
Q 1159 2491 1159 1978 
L 1159 0 
L 581 0 
L 581 4863 
L 1159 4863 
L 1159 2956 
Q 1366 3272 1645 3428 
Q 1925 3584 2291 3584 
Q 2894 3584 3203 3211 
Q 3513 2838 3513 2113 
z
" transform="scale(0.015625)"/>
        <path id="DejaVuSans-61" d="M 2194 1759 
Q 1497 1759 1228 1600 
Q 959 1441 959 1056 
Q 959 750 1161 570 
Q 1363 391 1709 391 
Q 2188 391 2477 730 
Q 2766 1069 2766 1631 
L 2766 1759 
L 2194 1759 
z
M 3341 1997 
L 3341 0 
L 2766 0 
L 2766 531 
Q 2569 213 2275 61 
Q 1981 -91 1556 -91 
Q 1019 -91 701 211 
Q 384 513 384 1019 
Q 384 1609 779 1909 
Q 1175 2209 1959 2209 
L 2766 2209 
L 2766 2266 
Q 2766 2663 2505 2880 
Q 2244 3097 1772 3097 
Q 1472 3097 1187 3025 
Q 903 2953 641 2809 
L 641 3341 
Q 956 3463 1253 3523 
Q 1550 3584 1831 3584 
Q 2591 3584 2966 3190 
Q 3341 2797 3341 1997 
z
" transform="scale(0.015625)"/>
        <path id="DejaVuSans-70" d="M 1159 525 
L 1159 -1331 
L 581 -1331 
L 581 3500 
L 1159 3500 
L 1159 2969 
Q 1341 3281 1617 3432 
Q 1894 3584 2278 3584 
Q 2916 3584 3314 3078 
Q 3713 2572 3713 1747 
Q 3713 922 3314 415 
Q 2916 -91 2278 -91 
Q 1894 -91 1617 61 
Q 1341 213 1159 525 
z
M 3116 1747 
Q 3116 2381 2855 2742 
Q 2594 3103 2138 3103 
Q 1681 3103 1420 2742 
Q 1159 2381 1159 1747 
Q 1159 1113 1420 752 
Q 1681 391 2138 391 
Q 2594 391 2855 752 
Q 3116 1113 3116 1747 
z
" transform="scale(0.015625)"/>
        <path id="DejaVuSans-65" d="M 3597 1894 
L 3597 1613 
L 953 1613 
Q 991 1019 1311 708 
Q 1631 397 2203 397 
Q 2534 397 2845 478 
Q 3156 559 3463 722 
L 3463 178 
Q 3153 47 2828 -22 
Q 2503 -91 2169 -91 
Q 1331 -91 842 396 
Q 353 884 353 1716 
Q 353 2575 817 3079 
Q 1281 3584 2069 3584 
Q 2775 3584 3186 3129 
Q 3597 2675 3597 1894 
z
M 3022 2063 
Q 3016 2534 2758 2815 
Q 2500 3097 2075 3097 
Q 1594 3097 1305 2825 
Q 1016 2553 972 2059 
L 3022 2063 
z
" transform="scale(0.015625)"/>
        <path id="DejaVuSans-4b" d="M 628 4666 
L 1259 4666 
L 1259 2694 
L 3353 4666 
L 4166 4666 
L 1850 2491 
L 4331 0 
L 3500 0 
L 1259 2247 
L 1259 0 
L 628 0 
L 628 4666 
z
" transform="scale(0.015625)"/>
        <path id="DejaVuSans-6e" d="M 3513 2113 
L 3513 0 
L 2938 0 
L 2938 2094 
Q 2938 2591 2744 2837 
Q 2550 3084 2163 3084 
Q 1697 3084 1428 2787 
Q 1159 2491 1159 1978 
L 1159 0 
L 581 0 
L 581 3500 
L 1159 3500 
L 1159 2956 
Q 1366 3272 1645 3428 
Q 1925 3584 2291 3584 
Q 2894 3584 3203 3211 
Q 3513 2838 3513 2113 
z
" transform="scale(0.015625)"/>
        <path id="DejaVuSans-74" d="M 1172 4494 
L 1172 3500 
L 2356 3500 
L 2356 3053 
L 1172 3053 
L 1172 1153 
Q 1172 725 1289 603 
Q 1406 481 1766 481 
L 2356 481 
L 2356 0 
L 1766 0 
Q 1100 0 847 248 
Q 594 497 594 1153 
L 594 3053 
L 172 3053 
L 172 3500 
L 594 3500 
L 594 4494 
L 1172 4494 
z
" transform="scale(0.015625)"/>
        <path id="DejaVuSans-73" d="M 2834 3397 
L 2834 2853 
Q 2591 2978 2328 3040 
Q 2066 3103 1784 3103 
Q 1356 3103 1142 2972 
Q 928 2841 928 2578 
Q 928 2378 1081 2264 
Q 1234 2150 1697 2047 
L 1894 2003 
Q 2506 1872 2764 1633 
Q 3022 1394 3022 966 
Q 3022 478 2636 193 
Q 2250 -91 1575 -91 
Q 1294 -91 989 -36 
Q 684 19 347 128 
L 347 722 
Q 666 556 975 473 
Q 1284 391 1588 391 
Q 1994 391 2212 530 
Q 2431 669 2431 922 
Q 2431 1156 2273 1281 
Q 2116 1406 1581 1522 
L 1381 1569 
Q 847 1681 609 1914 
Q 372 2147 372 2553 
Q 372 3047 722 3315 
Q 1072 3584 1716 3584 
Q 2034 3584 2315 3537 
Q 2597 3491 2834 3397 
z
" transform="scale(0.015625)"/>
       </defs>
       <use xlink:href="#DejaVuSans-53"/>
       <use xlink:href="#DejaVuSans-68" x="63.476562"/>
       <use xlink:href="#DejaVuSans-61" x="126.855469"/>
       <use xlink:href="#DejaVuSans-70" x="188.134766"/>
       <use xlink:href="#DejaVuSans-65" x="251.611328"/>
       <use xlink:href="#DejaVuSans-4b" x="313.134766"/>
       <use xlink:href="#DejaVuSans-6e" x="378.710938"/>
       <use xlink:href="#DejaVuSans-6f" x="442.089844"/>
       <use xlink:href="#DejaVuSans-74" x="503.271484"/>
       <use xlink:href="#DejaVuSans-73" x="542.480469"/>
      </g>
      <!-- top-1 -->
      <g style="fill: #262626" transform="translate(378.877969 421.33325)scale(0.18 -0.18)">
       <defs>
        <path id="DejaVuSans-2d" d="M 313 2009 
L 1997 2009 
L 1997 1497 
L 313 1497 
L 313 2009 
z
" transform="scale(0.015625)"/>
        <path id="DejaVuSans-31" d="M 794 531 
L 1825 531 
L 1825 4091 
L 703 3866 
L 703 4441 
L 1819 4666 
L 2450 4666 
L 2450 531 
L 3481 531 
L 3481 0 
L 794 0 
L 794 531 
z
" transform="scale(0.015625)"/>
       </defs>
       <use xlink:href="#DejaVuSans-74"/>
       <use xlink:href="#DejaVuSans-6f" x="39.208984"/>
       <use xlink:href="#DejaVuSans-70" x="100.390625"/>
       <use xlink:href="#DejaVuSans-2d" x="163.867188"/>
       <use xlink:href="#DejaVuSans-31" x="199.951172"/>
      </g>
     </g>
    </g>
    <g id="xtick_3">
     <g id="text_3">
      <!-- IPknot -->
      <g style="fill: #262626" transform="translate(510.967812 401.177188)scale(0.18 -0.18)">
       <defs>
        <path id="DejaVuSans-49" d="M 628 4666 
L 1259 4666 
L 1259 0 
L 628 0 
L 628 4666 
z
" transform="scale(0.015625)"/>
        <path id="DejaVuSans-50" d="M 1259 4147 
L 1259 2394 
L 2053 2394 
Q 2494 2394 2734 2622 
Q 2975 2850 2975 3272 
Q 2975 3691 2734 3919 
Q 2494 4147 2053 4147 
L 1259 4147 
z
M 628 4666 
L 2053 4666 
Q 2838 4666 3239 4311 
Q 3641 3956 3641 3272 
Q 3641 2581 3239 2228 
Q 2838 1875 2053 1875 
L 1259 1875 
L 1259 0 
L 628 0 
L 628 4666 
z
" transform="scale(0.015625)"/>
        <path id="DejaVuSans-6b" d="M 581 4863 
L 1159 4863 
L 1159 1991 
L 2875 3500 
L 3609 3500 
L 1753 1863 
L 3688 0 
L 2938 0 
L 1159 1709 
L 1159 0 
L 581 0 
L 581 4863 
z
" transform="scale(0.015625)"/>
       </defs>
       <use xlink:href="#DejaVuSans-49"/>
       <use xlink:href="#DejaVuSans-50" x="29.492188"/>
       <use xlink:href="#DejaVuSans-6b" x="89.794922"/>
       <use xlink:href="#DejaVuSans-6e" x="147.705078"/>
       <use xlink:href="#DejaVuSans-6f" x="211.083984"/>
       <use xlink:href="#DejaVuSans-74" x="272.265625"/>
      </g>
     </g>
    </g>
    <g id="xtick_4">
     <g id="text_4">
      <!-- SQUARNA -->
      <g style="fill: #262626" transform="translate(630.715 401.177188)scale(0.18 -0.18)">
       <defs>
        <path id="DejaVuSans-51" d="M 2522 4238 
Q 1834 4238 1429 3725 
Q 1025 3213 1025 2328 
Q 1025 1447 1429 934 
Q 1834 422 2522 422 
Q 3209 422 3611 934 
Q 4013 1447 4013 2328 
Q 4013 3213 3611 3725 
Q 3209 4238 2522 4238 
z
M 3406 84 
L 4238 -825 
L 3475 -825 
L 2784 -78 
Q 2681 -84 2626 -87 
Q 2572 -91 2522 -91 
Q 1538 -91 948 567 
Q 359 1225 359 2328 
Q 359 3434 948 4092 
Q 1538 4750 2522 4750 
Q 3503 4750 4090 4092 
Q 4678 3434 4678 2328 
Q 4678 1516 4351 937 
Q 4025 359 3406 84 
z
" transform="scale(0.015625)"/>
        <path id="DejaVuSans-55" d="M 556 4666 
L 1191 4666 
L 1191 1831 
Q 1191 1081 1462 751 
Q 1734 422 2344 422 
Q 2950 422 3222 751 
Q 3494 1081 3494 1831 
L 3494 4666 
L 4128 4666 
L 4128 1753 
Q 4128 841 3676 375 
Q 3225 -91 2344 -91 
Q 1459 -91 1007 375 
Q 556 841 556 1753 
L 556 4666 
z
" transform="scale(0.015625)"/>
       </defs>
       <use xlink:href="#DejaVuSans-53"/>
       <use xlink:href="#DejaVuSans-51" x="63.476562"/>
       <use xlink:href="#DejaVuSans-55" x="142.1875"/>
       <use xlink:href="#DejaVuSans-41" x="215.380859"/>
       <use xlink:href="#DejaVuSans-52" x="283.789062"/>
       <use xlink:href="#DejaVuSans-4e" x="353.271484"/>
       <use xlink:href="#DejaVuSans-41" x="428.076172"/>
      </g>
      <!-- top-1 -->
      <g style="fill: #262626" transform="translate(651.677969 421.33325)scale(0.18 -0.18)">
       <use xlink:href="#DejaVuSans-74"/>
       <use xlink:href="#DejaVuSans-6f" x="39.208984"/>
       <use xlink:href="#DejaVuSans-70" x="100.390625"/>
       <use xlink:href="#DejaVuSans-2d" x="163.867188"/>
       <use xlink:href="#DejaVuSans-31" x="199.951172"/>
      </g>
     </g>
    </g>
    <g id="xtick_5">
     <g id="text_5">
      <!-- ShapeKnots -->
      <g style="fill: #262626" transform="translate(758.286562 401.177188)scale(0.18 -0.18)">
       <use xlink:href="#DejaVuSans-53"/>
       <use xlink:href="#DejaVuSans-68" x="63.476562"/>
       <use xlink:href="#DejaVuSans-61" x="126.855469"/>
       <use xlink:href="#DejaVuSans-70" x="188.134766"/>
       <use xlink:href="#DejaVuSans-65" x="251.611328"/>
       <use xlink:href="#DejaVuSans-4b" x="313.134766"/>
       <use xlink:href="#DejaVuSans-6e" x="378.710938"/>
       <use xlink:href="#DejaVuSans-6f" x="442.089844"/>
       <use xlink:href="#DejaVuSans-74" x="503.271484"/>
       <use xlink:href="#DejaVuSans-73" x="542.480469"/>
      </g>
      <!-- top-5 -->
      <g style="fill: #262626" transform="translate(788.077969 421.33325)scale(0.18 -0.18)">
       <defs>
        <path id="DejaVuSans-35" d="M 691 4666 
L 3169 4666 
L 3169 4134 
L 1269 4134 
L 1269 2991 
Q 1406 3038 1543 3061 
Q 1681 3084 1819 3084 
Q 2600 3084 3056 2656 
Q 3513 2228 3513 1497 
Q 3513 744 3044 326 
Q 2575 -91 1722 -91 
Q 1428 -91 1123 -41 
Q 819 9 494 109 
L 494 744 
Q 775 591 1075 516 
Q 1375 441 1709 441 
Q 2250 441 2565 725 
Q 2881 1009 2881 1497 
Q 2881 1984 2565 2268 
Q 2250 2553 1709 2553 
Q 1456 2553 1204 2497 
Q 953 2441 691 2322 
L 691 4666 
z
" transform="scale(0.015625)"/>
       </defs>
       <use xlink:href="#DejaVuSans-74"/>
       <use xlink:href="#DejaVuSans-6f" x="39.208984"/>
       <use xlink:href="#DejaVuSans-70" x="100.390625"/>
       <use xlink:href="#DejaVuSans-2d" x="163.867188"/>
       <use xlink:href="#DejaVuSans-35" x="199.951172"/>
      </g>
     </g>
    </g>
    <g id="xtick_6">
     <g id="text_6">
      <!-- RNAsubopt -->
      <g style="fill: #262626" transform="translate(898.202188 401.177188)scale(0.18 -0.18)">
       <defs>
        <path id="DejaVuSans-75" d="M 544 1381 
L 544 3500 
L 1119 3500 
L 1119 1403 
Q 1119 906 1312 657 
Q 1506 409 1894 409 
Q 2359 409 2629 706 
Q 2900 1003 2900 1516 
L 2900 3500 
L 3475 3500 
L 3475 0 
L 2900 0 
L 2900 538 
Q 2691 219 2414 64 
Q 2138 -91 1772 -91 
Q 1169 -91 856 284 
Q 544 659 544 1381 
z
M 1991 3584 
L 1991 3584 
z
" transform="scale(0.015625)"/>
        <path id="DejaVuSans-62" d="M 3116 1747 
Q 3116 2381 2855 2742 
Q 2594 3103 2138 3103 
Q 1681 3103 1420 2742 
Q 1159 2381 1159 1747 
Q 1159 1113 1420 752 
Q 1681 391 2138 391 
Q 2594 391 2855 752 
Q 3116 1113 3116 1747 
z
M 1159 2969 
Q 1341 3281 1617 3432 
Q 1894 3584 2278 3584 
Q 2916 3584 3314 3078 
Q 3713 2572 3713 1747 
Q 3713 922 3314 415 
Q 2916 -91 2278 -91 
Q 1894 -91 1617 61 
Q 1341 213 1159 525 
L 1159 0 
L 581 0 
L 581 4863 
L 1159 4863 
L 1159 2969 
z
" transform="scale(0.015625)"/>
       </defs>
       <use xlink:href="#DejaVuSans-52"/>
       <use xlink:href="#DejaVuSans-4e" x="69.482422"/>
       <use xlink:href="#DejaVuSans-41" x="144.287109"/>
       <use xlink:href="#DejaVuSans-73" x="212.695312"/>
       <use xlink:href="#DejaVuSans-75" x="264.794922"/>
       <use xlink:href="#DejaVuSans-62" x="328.173828"/>
       <use xlink:href="#DejaVuSans-6f" x="391.650391"/>
       <use xlink:href="#DejaVuSans-70" x="452.832031"/>
       <use xlink:href="#DejaVuSans-74" x="516.308594"/>
      </g>
      <!-- top-5 -->
      <g style="fill: #262626" transform="translate(924.477969 421.33325)scale(0.18 -0.18)">
       <use xlink:href="#DejaVuSans-74"/>
       <use xlink:href="#DejaVuSans-6f" x="39.208984"/>
       <use xlink:href="#DejaVuSans-70" x="100.390625"/>
       <use xlink:href="#DejaVuSans-2d" x="163.867188"/>
       <use xlink:href="#DejaVuSans-35" x="199.951172"/>
      </g>
     </g>
    </g>
    <g id="xtick_7">
     <g id="text_7">
      <!-- SPOT-RNA -->
      <g style="fill: #262626" transform="translate(1039.308906 401.177188)scale(0.18 -0.18)">
       <defs>
        <path id="DejaVuSans-4f" d="M 2522 4238 
Q 1834 4238 1429 3725 
Q 1025 3213 1025 2328 
Q 1025 1447 1429 934 
Q 1834 422 2522 422 
Q 3209 422 3611 934 
Q 4013 1447 4013 2328 
Q 4013 3213 3611 3725 
Q 3209 4238 2522 4238 
z
M 2522 4750 
Q 3503 4750 4090 4092 
Q 4678 3434 4678 2328 
Q 4678 1225 4090 567 
Q 3503 -91 2522 -91 
Q 1538 -91 948 565 
Q 359 1222 359 2328 
Q 359 3434 948 4092 
Q 1538 4750 2522 4750 
z
" transform="scale(0.015625)"/>
        <path id="DejaVuSans-54" d="M -19 4666 
L 3928 4666 
L 3928 4134 
L 2272 4134 
L 2272 0 
L 1638 0 
L 1638 4134 
L -19 4134 
L -19 4666 
z
" transform="scale(0.015625)"/>
       </defs>
       <use xlink:href="#DejaVuSans-53"/>
       <use xlink:href="#DejaVuSans-50" x="63.476562"/>
       <use xlink:href="#DejaVuSans-4f" x="123.779297"/>
       <use xlink:href="#DejaVuSans-54" x="202.490234"/>
       <use xlink:href="#DejaVuSans-2d" x="254.449219"/>
       <use xlink:href="#DejaVuSans-52" x="290.533203"/>
       <use xlink:href="#DejaVuSans-4e" x="360.015625"/>
       <use xlink:href="#DejaVuSans-41" x="434.820312"/>
      </g>
     </g>
    </g>
    <g id="xtick_8">
     <g id="text_8">
      <!-- MXfold2 -->
      <g style="fill: #262626" transform="translate(1184.454375 401.177188)scale(0.18 -0.18)">
       <defs>
        <path id="DejaVuSans-4d" d="M 628 4666 
L 1569 4666 
L 2759 1491 
L 3956 4666 
L 4897 4666 
L 4897 0 
L 4281 0 
L 4281 4097 
L 3078 897 
L 2444 897 
L 1241 4097 
L 1241 0 
L 628 0 
L 628 4666 
z
" transform="scale(0.015625)"/>
        <path id="DejaVuSans-58" d="M 403 4666 
L 1081 4666 
L 2241 2931 
L 3406 4666 
L 4084 4666 
L 2584 2425 
L 4184 0 
L 3506 0 
L 2194 1984 
L 872 0 
L 191 0 
L 1856 2491 
L 403 4666 
z
" transform="scale(0.015625)"/>
        <path id="DejaVuSans-32" d="M 1228 531 
L 3431 531 
L 3431 0 
L 469 0 
L 469 531 
Q 828 903 1448 1529 
Q 2069 2156 2228 2338 
Q 2531 2678 2651 2914 
Q 2772 3150 2772 3378 
Q 2772 3750 2511 3984 
Q 2250 4219 1831 4219 
Q 1534 4219 1204 4116 
Q 875 4013 500 3803 
L 500 4441 
Q 881 4594 1212 4672 
Q 1544 4750 1819 4750 
Q 2544 4750 2975 4387 
Q 3406 4025 3406 3419 
Q 3406 3131 3298 2873 
Q 3191 2616 2906 2266 
Q 2828 2175 2409 1742 
Q 1991 1309 1228 531 
z
" transform="scale(0.015625)"/>
       </defs>
       <use xlink:href="#DejaVuSans-4d"/>
       <use xlink:href="#DejaVuSans-58" x="86.279297"/>
       <use xlink:href="#DejaVuSans-66" x="154.785156"/>
       <use xlink:href="#DejaVuSans-6f" x="189.990234"/>
       <use xlink:href="#DejaVuSans-6c" x="251.171875"/>
       <use xlink:href="#DejaVuSans-64" x="278.955078"/>
       <use xlink:href="#DejaVuSans-32" x="342.431641"/>
      </g>
     </g>
    </g>
    <g id="xtick_9">
     <g id="text_9">
      <!-- SQUARNA -->
      <g style="fill: #262626" transform="translate(1312.715 401.177188)scale(0.18 -0.18)">
       <use xlink:href="#DejaVuSans-53"/>
       <use xlink:href="#DejaVuSans-51" x="63.476562"/>
       <use xlink:href="#DejaVuSans-55" x="142.1875"/>
       <use xlink:href="#DejaVuSans-41" x="215.380859"/>
       <use xlink:href="#DejaVuSans-52" x="283.789062"/>
       <use xlink:href="#DejaVuSans-4e" x="353.271484"/>
       <use xlink:href="#DejaVuSans-41" x="428.076172"/>
      </g>
      <!-- top-5 -->
      <g style="fill: #262626" transform="translate(1333.677969 421.33325)scale(0.18 -0.18)">
       <use xlink:href="#DejaVuSans-74"/>
       <use xlink:href="#DejaVuSans-6f" x="39.208984"/>
       <use xlink:href="#DejaVuSans-70" x="100.390625"/>
       <use xlink:href="#DejaVuSans-2d" x="163.867188"/>
       <use xlink:href="#DejaVuSans-35" x="199.951172"/>
      </g>
     </g>
    </g>
   </g>
   <g id="matplotlib.axis_2">
    <g id="ytick_1">
     <g id="line2d_1">
      <path d="M 198 312.768 
L 1425.6 312.768 
" clip-path="url(#p3a96dc9f51)" style="fill: none; stroke: #cccccc; stroke-linecap: round"/>
     </g>
     <g id="text_10">
      <!-- 0.6 -->
      <g style="fill: #262626" transform="translate(166.235625 318.086906)scale(0.14 -0.14)">
       <defs>
        <path id="DejaVuSans-30" d="M 2034 4250 
Q 1547 4250 1301 3770 
Q 1056 3291 1056 2328 
Q 1056 1369 1301 889 
Q 1547 409 2034 409 
Q 2525 409 2770 889 
Q 3016 1369 3016 2328 
Q 3016 3291 2770 3770 
Q 2525 4250 2034 4250 
z
M 2034 4750 
Q 2819 4750 3233 4129 
Q 3647 3509 3647 2328 
Q 3647 1150 3233 529 
Q 2819 -91 2034 -91 
Q 1250 -91 836 529 
Q 422 1150 422 2328 
Q 422 3509 836 4129 
Q 1250 4750 2034 4750 
z
" transform="scale(0.015625)"/>
        <path id="DejaVuSans-2e" d="M 684 794 
L 1344 794 
L 1344 0 
L 684 0 
L 684 794 
z
" transform="scale(0.015625)"/>
        <path id="DejaVuSans-36" d="M 2113 2584 
Q 1688 2584 1439 2293 
Q 1191 2003 1191 1497 
Q 1191 994 1439 701 
Q 1688 409 2113 409 
Q 2538 409 2786 701 
Q 3034 994 3034 1497 
Q 3034 2003 2786 2293 
Q 2538 2584 2113 2584 
z
M 3366 4563 
L 3366 3988 
Q 3128 4100 2886 4159 
Q 2644 4219 2406 4219 
Q 1781 4219 1451 3797 
Q 1122 3375 1075 2522 
Q 1259 2794 1537 2939 
Q 1816 3084 2150 3084 
Q 2853 3084 3261 2657 
Q 3669 2231 3669 1497 
Q 3669 778 3244 343 
Q 2819 -91 2113 -91 
Q 1303 -91 875 529 
Q 447 1150 447 2328 
Q 447 3434 972 4092 
Q 1497 4750 2381 4750 
Q 2619 4750 2861 4703 
Q 3103 4656 3366 4563 
z
" transform="scale(0.015625)"/>
       </defs>
       <use xlink:href="#DejaVuSans-30"/>
       <use xlink:href="#DejaVuSans-2e" x="63.623047"/>
       <use xlink:href="#DejaVuSans-36" x="95.410156"/>
      </g>
     </g>
    </g>
    <g id="ytick_2">
     <g id="line2d_2">
      <path d="M 198 182.304 
L 1425.6 182.304 
" clip-path="url(#p3a96dc9f51)" style="fill: none; stroke: #cccccc; stroke-linecap: round"/>
     </g>
     <g id="text_11">
      <!-- 0.8 -->
      <g style="fill: #262626" transform="translate(166.235625 187.622906)scale(0.14 -0.14)">
       <defs>
        <path id="DejaVuSans-38" d="M 2034 2216 
Q 1584 2216 1326 1975 
Q 1069 1734 1069 1313 
Q 1069 891 1326 650 
Q 1584 409 2034 409 
Q 2484 409 2743 651 
Q 3003 894 3003 1313 
Q 3003 1734 2745 1975 
Q 2488 2216 2034 2216 
z
M 1403 2484 
Q 997 2584 770 2862 
Q 544 3141 544 3541 
Q 544 4100 942 4425 
Q 1341 4750 2034 4750 
Q 2731 4750 3128 4425 
Q 3525 4100 3525 3541 
Q 3525 3141 3298 2862 
Q 3072 2584 2669 2484 
Q 3125 2378 3379 2068 
Q 3634 1759 3634 1313 
Q 3634 634 3220 271 
Q 2806 -91 2034 -91 
Q 1263 -91 848 271 
Q 434 634 434 1313 
Q 434 1759 690 2068 
Q 947 2378 1403 2484 
z
M 1172 3481 
Q 1172 3119 1398 2916 
Q 1625 2713 2034 2713 
Q 2441 2713 2670 2916 
Q 2900 3119 2900 3481 
Q 2900 3844 2670 4047 
Q 2441 4250 2034 4250 
Q 1625 4250 1398 4047 
Q 1172 3844 1172 3481 
z
" transform="scale(0.015625)"/>
       </defs>
       <use xlink:href="#DejaVuSans-30"/>
       <use xlink:href="#DejaVuSans-2e" x="63.623047"/>
       <use xlink:href="#DejaVuSans-38" x="95.410156"/>
      </g>
     </g>
    </g>
    <g id="ytick_3">
     <g id="line2d_3">
      <path d="M 198 51.84 
L 1425.6 51.84 
" clip-path="url(#p3a96dc9f51)" style="fill: none; stroke: #cccccc; stroke-linecap: round"/>
     </g>
     <g id="text_12">
      <!-- 1.0 -->
      <g style="fill: #262626" transform="translate(166.235625 57.158906)scale(0.14 -0.14)">
       <use xlink:href="#DejaVuSans-31"/>
       <use xlink:href="#DejaVuSans-2e" x="63.623047"/>
       <use xlink:href="#DejaVuSans-30" x="95.410156"/>
      </g>
     </g>
    </g>
    <g id="text_13">
     <!-- F-score -->
     <g style="fill: #262626" transform="translate(158.07625 251.145)rotate(-90)scale(0.2 -0.2)">
      <defs>
       <path id="DejaVuSans-46" d="M 628 4666 
L 3309 4666 
L 3309 4134 
L 1259 4134 
L 1259 2759 
L 3109 2759 
L 3109 2228 
L 1259 2228 
L 1259 0 
L 628 0 
L 628 4666 
z
" transform="scale(0.015625)"/>
       <path id="DejaVuSans-63" d="M 3122 3366 
L 3122 2828 
Q 2878 2963 2633 3030 
Q 2388 3097 2138 3097 
Q 1578 3097 1268 2742 
Q 959 2388 959 1747 
Q 959 1106 1268 751 
Q 1578 397 2138 397 
Q 2388 397 2633 464 
Q 2878 531 3122 666 
L 3122 134 
Q 2881 22 2623 -34 
Q 2366 -91 2075 -91 
Q 1284 -91 818 406 
Q 353 903 353 1747 
Q 353 2603 823 3093 
Q 1294 3584 2113 3584 
Q 2378 3584 2631 3529 
Q 2884 3475 3122 3366 
z
" transform="scale(0.015625)"/>
       <path id="DejaVuSans-72" d="M 2631 2963 
Q 2534 3019 2420 3045 
Q 2306 3072 2169 3072 
Q 1681 3072 1420 2755 
Q 1159 2438 1159 1844 
L 1159 0 
L 581 0 
L 581 3500 
L 1159 3500 
L 1159 2956 
Q 1341 3275 1631 3429 
Q 1922 3584 2338 3584 
Q 2397 3584 2469 3576 
Q 2541 3569 2628 3553 
L 2631 2963 
z
" transform="scale(0.015625)"/>
      </defs>
      <use xlink:href="#DejaVuSans-46"/>
      <use xlink:href="#DejaVuSans-2d" x="57.519531"/>
      <use xlink:href="#DejaVuSans-73" x="93.603516"/>
      <use xlink:href="#DejaVuSans-63" x="145.703125"/>
      <use xlink:href="#DejaVuSans-6f" x="200.683594"/>
      <use xlink:href="#DejaVuSans-72" x="261.865234"/>
      <use xlink:href="#DejaVuSans-65" x="300.728516"/>
     </g>
    </g>
   </g>
   <g id="PolyCollection_1">
    <path d="M 270.466412 704.16 
L 261.933588 704.16 
L 261.873673 697.570909 
L 261.832062 690.981818 
L 261.808001 684.392727 
L 261.80031 677.803636 
L 261.807413 671.214545 
L 261.827378 664.625455 
L 261.85796 658.036364 
L 261.89666 651.447273 
L 261.940779 644.858182 
L 261.987483 638.269091 
L 262.033863 631.68 
L 262.076992 625.090909 
L 262.113987 618.501818 
L 262.142057 611.912727 
L 262.158552 605.323636 
L 262.16101 598.734545 
L 262.147186 592.145455 
L 262.115094 585.556364 
L 262.063028 578.967273 
L 261.989586 572.378182 
L 261.893695 565.789091 
L 261.774619 559.2 
L 261.631976 552.610909 
L 261.465744 546.021818 
L 261.276267 539.432727 
L 261.064253 532.843636 
L 260.830772 526.254545 
L 260.577238 519.665455 
L 260.305396 513.076364 
L 260.017296 506.487273 
L 259.715255 499.898182 
L 259.401823 493.309091 
L 259.079726 486.72 
L 258.751814 480.130909 
L 258.420997 473.541818 
L 258.090174 466.952727 
L 257.762169 460.363636 
L 257.439649 453.774545 
L 257.125059 447.185455 
L 256.820549 440.596364 
L 256.52791 434.007273 
L 256.24852 427.418182 
L 255.983293 420.829091 
L 255.732642 414.24 
L 255.496454 407.650909 
L 255.274074 401.061818 
L 255.064306 394.472727 
L 254.865422 387.883636 
L 254.675187 381.294545 
L 254.490894 374.705455 
L 254.309408 368.116364 
L 254.127222 361.527273 
L 253.94052 354.938182 
L 253.745248 348.349091 
L 253.537192 341.76 
L 253.312059 335.170909 
L 253.065565 328.581818 
L 252.793522 321.992727 
L 252.491933 315.403636 
L 252.157081 308.814545 
L 251.78562 302.225455 
L 251.374667 295.636364 
L 250.921886 289.047273 
L 250.425568 282.458182 
L 249.884707 275.869091 
L 249.299062 269.28 
L 248.669214 262.690909 
L 247.996607 256.101818 
L 247.283578 249.512727 
L 246.533373 242.923636 
L 245.750145 236.334545 
L 244.938938 229.745455 
L 244.105655 223.156364 
L 243.257012 216.567273 
L 242.400468 209.978182 
L 241.544154 203.389091 
L 240.696777 196.8 
L 239.867516 190.210909 
L 239.065905 183.621818 
L 238.301706 177.032727 
L 237.584775 170.443636 
L 236.924914 163.854545 
L 236.331723 157.265455 
L 235.814447 150.676364 
L 235.38181 144.087273 
L 235.041864 137.498182 
L 234.801827 130.909091 
L 234.667932 124.32 
L 234.645282 117.730909 
L 234.737719 111.141818 
L 234.947709 104.552727 
L 235.276247 97.963636 
L 235.722789 91.374545 
L 236.28521 84.785455 
L 236.959799 78.196364 
L 237.741283 71.607273 
L 238.622895 65.018182 
L 239.596472 58.429091 
L 240.652595 51.84 
L 291.747405 51.84 
L 291.747405 51.84 
L 292.803528 58.429091 
L 293.777105 65.018182 
L 294.658717 71.607273 
L 295.440201 78.196364 
L 296.11479 84.785455 
L 296.677211 91.374545 
L 297.123753 97.963636 
L 297.452291 104.552727 
L 297.662281 111.141818 
L 297.754718 117.730909 
L 297.732068 124.32 
L 297.598173 130.909091 
L 297.358136 137.498182 
L 297.01819 144.087273 
L 296.585553 150.676364 
L 296.068277 157.265455 
L 295.475086 163.854545 
L 294.815225 170.443636 
L 294.098294 177.032727 
L 293.334095 183.621818 
L 292.532484 190.210909 
L 291.703223 196.8 
L 290.855846 203.389091 
L 289.999532 209.978182 
L 289.142988 216.567273 
L 288.294345 223.156364 
L 287.461062 229.745455 
L 286.649855 236.334545 
L 285.866627 242.923636 
L 285.116422 249.512727 
L 284.403393 256.101818 
L 283.730786 262.690909 
L 283.100938 269.28 
L 282.515293 275.869091 
L 281.974432 282.458182 
L 281.478114 289.047273 
L 281.025333 295.636364 
L 280.61438 302.225455 
L 280.242919 308.814545 
L 279.908067 315.403636 
L 279.606478 321.992727 
L 279.334435 328.581818 
L 279.087941 335.170909 
L 278.862808 341.76 
L 278.654752 348.349091 
L 278.45948 354.938182 
L 278.272778 361.527273 
L 278.090592 368.116364 
L 277.909106 374.705455 
L 277.724813 381.294545 
L 277.534578 387.883636 
L 277.335694 394.472727 
L 277.125926 401.061818 
L 276.903546 407.650909 
L 276.667358 414.24 
L 276.416707 420.829091 
L 276.15148 427.418182 
L 275.87209 434.007273 
L 275.579451 440.596364 
L 275.274941 447.185455 
L 274.960351 453.774545 
L 274.637831 460.363636 
L 274.309826 466.952727 
L 273.979003 473.541818 
L 273.648186 480.130909 
L 273.320274 486.72 
L 272.998177 493.309091 
L 272.684745 499.898182 
L 272.382704 506.487273 
L 272.094604 513.076364 
L 271.822762 519.665455 
L 271.569228 526.254545 
L 271.335747 532.843636 
L 271.123733 539.432727 
L 270.934256 546.021818 
L 270.768024 552.610909 
L 270.625381 559.2 
L 270.506305 565.789091 
L 270.410414 572.378182 
L 270.336972 578.967273 
L 270.284906 585.556364 
L 270.252814 592.145455 
L 270.23899 598.734545 
L 270.241448 605.323636 
L 270.257943 611.912727 
L 270.286013 618.501818 
L 270.323008 625.090909 
L 270.366137 631.68 
L 270.412517 638.269091 
L 270.459221 644.858182 
L 270.50334 651.447273 
L 270.54204 658.036364 
L 270.572622 664.625455 
L 270.592587 671.214545 
L 270.59969 677.803636 
L 270.591999 684.392727 
L 270.567938 690.981818 
L 270.526327 697.570909 
L 270.466412 704.16 
z
" clip-path="url(#p3a96dc9f51)" style="fill: #d3d3d3; stroke: #7f7f7f; stroke-width: 3"/>
   </g>
   <g id="PolyCollection_2">
    <path d="M 406.057021 704.16 
L 399.142979 704.16 
L 399.06807 697.570909 
L 399.004543 690.981818 
L 398.95147 684.392727 
L 398.90757 677.803636 
L 398.871244 671.214545 
L 398.840619 664.625455 
L 398.8136 658.036364 
L 398.787925 651.447273 
L 398.761227 644.858182 
L 398.731094 638.269091 
L 398.695125 631.68 
L 398.650986 625.090909 
L 398.596452 618.501818 
L 398.529455 611.912727 
L 398.448107 605.323636 
L 398.350729 598.734545 
L 398.235863 592.145455 
L 398.102282 585.556364 
L 397.948992 578.967273 
L 397.775227 572.378182 
L 397.580448 565.789091 
L 397.364337 559.2 
L 397.126791 552.610909 
L 396.867919 546.021818 
L 396.588045 539.432727 
L 396.28771 532.843636 
L 395.967679 526.254545 
L 395.628954 519.665455 
L 395.272784 513.076364 
L 394.900676 506.487273 
L 394.514405 499.898182 
L 394.116022 493.309091 
L 393.707849 486.72 
L 393.29247 480.130909 
L 392.872711 473.541818 
L 392.451604 466.952727 
L 392.032342 460.363636 
L 391.618219 453.774545 
L 391.212554 447.185455 
L 390.818612 440.596364 
L 390.439512 434.007273 
L 390.078125 427.418182 
L 389.73698 420.829091 
L 389.418168 414.24 
L 389.123249 407.650909 
L 388.853178 401.061818 
L 388.608241 394.472727 
L 388.388008 387.883636 
L 388.191316 381.294545 
L 388.016265 374.705455 
L 387.860243 368.116364 
L 387.719976 361.527273 
L 387.591602 354.938182 
L 387.470759 348.349091 
L 387.352698 341.76 
L 387.232406 335.170909 
L 387.104745 328.581818 
L 386.964584 321.992727 
L 386.806944 315.403636 
L 386.627131 308.814545 
L 386.42086 302.225455 
L 386.184372 295.636364 
L 385.914526 289.047273 
L 385.608877 282.458182 
L 385.265734 275.869091 
L 384.884199 269.28 
L 384.464175 262.690909 
L 384.006372 256.101818 
L 383.512283 249.512727 
L 382.984153 242.923636 
L 382.42494 236.334545 
L 381.838263 229.745455 
L 381.228356 223.156364 
L 380.600021 216.567273 
L 379.958577 209.978182 
L 379.309826 203.389091 
L 378.660013 196.8 
L 378.015795 190.210909 
L 377.384215 183.621818 
L 376.772664 177.032727 
L 376.18885 170.443636 
L 375.640748 163.854545 
L 375.136538 157.265455 
L 374.684522 150.676364 
L 374.293027 144.087273 
L 373.970273 137.498182 
L 373.724226 130.909091 
L 373.562424 124.32 
L 373.491787 117.730909 
L 373.518419 111.141818 
L 373.647401 104.552727 
L 373.882593 97.963636 
L 374.22645 91.374545 
L 374.679866 84.785455 
L 375.242052 78.196364 
L 375.910459 71.607273 
L 376.680752 65.018182 
L 377.546842 58.429091 
L 378.500969 51.84 
L 426.699031 51.84 
L 426.699031 51.84 
L 427.653158 58.429091 
L 428.519248 65.018182 
L 429.289541 71.607273 
L 429.957948 78.196364 
L 430.520134 84.785455 
L 430.97355 91.374545 
L 431.317407 97.963636 
L 431.552599 104.552727 
L 431.681581 111.141818 
L 431.708213 117.730909 
L 431.637576 124.32 
L 431.475774 130.909091 
L 431.229727 137.498182 
L 430.906973 144.087273 
L 430.515478 150.676364 
L 430.063462 157.265455 
L 429.559252 163.854545 
L 429.01115 170.443636 
L 428.427336 177.032727 
L 427.815785 183.621818 
L 427.184205 190.210909 
L 426.539987 196.8 
L 425.890174 203.389091 
L 425.241423 209.978182 
L 424.599979 216.567273 
L 423.971644 223.156364 
L 423.361737 229.745455 
L 422.77506 236.334545 
L 422.215847 242.923636 
L 421.687717 249.512727 
L 421.193628 256.101818 
L 420.735825 262.690909 
L 420.315801 269.28 
L 419.934266 275.869091 
L 419.591123 282.458182 
L 419.285474 289.047273 
L 419.015628 295.636364 
L 418.77914 302.225455 
L 418.572869 308.814545 
L 418.393056 315.403636 
L 418.235416 321.992727 
L 418.095255 328.581818 
L 417.967594 335.170909 
L 417.847302 341.76 
L 417.729241 348.349091 
L 417.608398 354.938182 
L 417.480024 361.527273 
L 417.339757 368.116364 
L 417.183735 374.705455 
L 417.008684 381.294545 
L 416.811992 387.883636 
L 416.591759 394.472727 
L 416.346822 401.061818 
L 416.076751 407.650909 
L 415.781832 414.24 
L 415.46302 420.829091 
L 415.121875 427.418182 
L 414.760488 434.007273 
L 414.381388 440.596364 
L 413.987446 447.185455 
L 413.581781 453.774545 
L 413.167658 460.363636 
L 412.748396 466.952727 
L 412.327289 473.541818 
L 411.90753 480.130909 
L 411.492151 486.72 
L 411.083978 493.309091 
L 410.685595 499.898182 
L 410.299324 506.487273 
L 409.927216 513.076364 
L 409.571046 519.665455 
L 409.232321 526.254545 
L 408.91229 532.843636 
L 408.611955 539.432727 
L 408.332081 546.021818 
L 408.073209 552.610909 
L 407.835663 559.2 
L 407.619552 565.789091 
L 407.424773 572.378182 
L 407.251008 578.967273 
L 407.097718 585.556364 
L 406.964137 592.145455 
L 406.849271 598.734545 
L 406.751893 605.323636 
L 406.670545 611.912727 
L 406.603548 618.501818 
L 406.549014 625.090909 
L 406.504875 631.68 
L 406.468906 638.269091 
L 406.438773 644.858182 
L 406.412075 651.447273 
L 406.3864 658.036364 
L 406.359381 664.625455 
L 406.328756 671.214545 
L 406.29243 677.803636 
L 406.24853 684.392727 
L 406.195457 690.981818 
L 406.13193 697.570909 
L 406.057021 704.16 
z
" clip-path="url(#p3a96dc9f51)" style="fill: #d3d3d3; stroke: #7f7f7f; stroke-width: 3"/>
   </g>
   <g id="PolyCollection_3">
    <path d="M 541.421149 704.16 
L 536.578851 704.16 
L 536.410409 697.570909 
L 536.244483 690.981818 
L 536.082925 684.392727 
L 535.927718 677.803636 
L 535.780946 671.214545 
L 535.644755 664.625455 
L 535.521299 658.036364 
L 535.412662 651.447273 
L 535.320774 644.858182 
L 535.247311 638.269091 
L 535.193595 631.68 
L 535.160486 625.090909 
L 535.148295 618.501818 
L 535.156702 611.912727 
L 535.184708 605.323636 
L 535.23061 598.734545 
L 535.292012 592.145455 
L 535.365878 585.556364 
L 535.44861 578.967273 
L 535.536171 572.378182 
L 535.624223 565.789091 
L 535.708288 559.2 
L 535.783918 552.610909 
L 535.846858 546.021818 
L 535.893191 539.432727 
L 535.919464 532.843636 
L 535.922776 526.254545 
L 535.900818 519.665455 
L 535.851883 513.076364 
L 535.774812 506.487273 
L 535.668917 499.898182 
L 535.533853 493.309091 
L 535.369477 486.72 
L 535.175689 480.130909 
L 534.952273 473.541818 
L 534.698761 466.952727 
L 534.414313 460.363636 
L 534.097653 453.774545 
L 533.747046 447.185455 
L 533.360326 440.596364 
L 532.934994 434.007273 
L 532.468355 427.418182 
L 531.957709 420.829091 
L 531.400573 414.24 
L 530.79492 407.650909 
L 530.139423 401.061818 
L 529.433687 394.472727 
L 528.678438 387.883636 
L 527.875678 381.294545 
L 527.028775 374.705455 
L 526.142481 368.116364 
L 525.222883 361.527273 
L 524.277286 354.938182 
L 523.314014 348.349091 
L 522.342169 341.76 
L 521.371332 335.170909 
L 520.411224 328.581818 
L 519.471362 321.992727 
L 518.560696 315.403636 
L 517.687259 308.814545 
L 516.857851 302.225455 
L 516.077752 295.636364 
L 515.350491 289.047273 
L 514.677681 282.458182 
L 514.058925 275.869091 
L 513.491813 269.28 
L 512.971999 262.690909 
L 512.493385 256.101818 
L 512.048387 249.512727 
L 511.628308 242.923636 
L 511.223784 236.334545 
L 510.825301 229.745455 
L 510.423767 223.156364 
L 510.011108 216.567273 
L 509.580855 209.978182 
L 509.128703 203.389091 
L 508.652992 196.8 
L 508.15509 190.210909 
L 507.639637 183.621818 
L 507.114637 177.032727 
L 506.591371 170.443636 
L 506.084131 163.854545 
L 505.609779 157.265455 
L 505.187137 150.676364 
L 504.836251 144.087273 
L 504.577545 137.498182 
L 504.430918 130.909091 
L 504.414835 124.32 
L 504.545449 117.730909 
L 504.835804 111.141818 
L 505.295179 104.552727 
L 505.928577 97.963636 
L 506.736415 91.374545 
L 507.714415 84.785455 
L 508.853699 78.196364 
L 510.141089 71.607273 
L 511.559582 65.018182 
L 513.088983 58.429091 
L 514.706647 51.84 
L 563.293353 51.84 
L 563.293353 51.84 
L 564.911017 58.429091 
L 566.440418 65.018182 
L 567.858911 71.607273 
L 569.146301 78.196364 
L 570.285585 84.785455 
L 571.263585 91.374545 
L 572.071423 97.963636 
L 572.704821 104.552727 
L 573.164196 111.141818 
L 573.454551 117.730909 
L 573.585165 124.32 
L 573.569082 130.909091 
L 573.422455 137.498182 
L 573.163749 144.087273 
L 572.812863 150.676364 
L 572.390221 157.265455 
L 571.915869 163.854545 
L 571.408629 170.443636 
L 570.885363 177.032727 
L 570.360363 183.621818 
L 569.84491 190.210909 
L 569.347008 196.8 
L 568.871297 203.389091 
L 568.419145 209.978182 
L 567.988892 216.567273 
L 567.576233 223.156364 
L 567.174699 229.745455 
L 566.776216 236.334545 
L 566.371692 242.923636 
L 565.951613 249.512727 
L 565.506615 256.101818 
L 565.028001 262.690909 
L 564.508187 269.28 
L 563.941075 275.869091 
L 563.322319 282.458182 
L 562.649509 289.047273 
L 561.922248 295.636364 
L 561.142149 302.225455 
L 560.312741 308.814545 
L 559.439304 315.403636 
L 558.528638 321.992727 
L 557.588776 328.581818 
L 556.628668 335.170909 
L 555.657831 341.76 
L 554.685986 348.349091 
L 553.722714 354.938182 
L 552.777117 361.527273 
L 551.857519 368.116364 
L 550.971225 374.705455 
L 550.124322 381.294545 
L 549.321562 387.883636 
L 548.566313 394.472727 
L 547.860577 401.061818 
L 547.20508 407.650909 
L 546.599427 414.24 
L 546.042291 420.829091 
L 545.531645 427.418182 
L 545.065006 434.007273 
L 544.639674 440.596364 
L 544.252954 447.185455 
L 543.902347 453.774545 
L 543.585687 460.363636 
L 543.301239 466.952727 
L 543.047727 473.541818 
L 542.824311 480.130909 
L 542.630523 486.72 
L 542.466147 493.309091 
L 542.331083 499.898182 
L 542.225188 506.487273 
L 542.148117 513.076364 
L 542.099182 519.665455 
L 542.077224 526.254545 
L 542.080536 532.843636 
L 542.106809 539.432727 
L 542.153142 546.021818 
L 542.216082 552.610909 
L 542.291712 559.2 
L 542.375777 565.789091 
L 542.463829 572.378182 
L 542.55139 578.967273 
L 542.634122 585.556364 
L 542.707988 592.145455 
L 542.76939 598.734545 
L 542.815292 605.323636 
L 542.843298 611.912727 
L 542.851705 618.501818 
L 542.839514 625.090909 
L 542.806405 631.68 
L 542.752689 638.269091 
L 542.679226 644.858182 
L 542.587338 651.447273 
L 542.478701 658.036364 
L 542.355245 664.625455 
L 542.219054 671.214545 
L 542.072282 677.803636 
L 541.917075 684.392727 
L 541.755517 690.981818 
L 541.589591 697.570909 
L 541.421149 704.16 
z
" clip-path="url(#p3a96dc9f51)" style="fill: #d3d3d3; stroke: #7f7f7f; stroke-width: 3"/>
   </g>
   <g id="PolyCollection_4">
    <path d="M 679.014155 704.16 
L 671.785845 704.16 
L 671.678121 697.570909 
L 671.576875 690.981818 
L 671.480928 684.392727 
L 671.388841 677.803636 
L 671.298974 671.214545 
L 671.209555 664.625455 
L 671.118759 658.036364 
L 671.024793 651.447273 
L 670.925977 644.858182 
L 670.82083 638.269091 
L 670.70814 631.68 
L 670.587032 625.090909 
L 670.457015 618.501818 
L 670.318014 611.912727 
L 670.170388 605.323636 
L 670.01492 598.734545 
L 669.852793 592.145455 
L 669.68554 585.556364 
L 669.514986 578.967273 
L 669.343164 572.378182 
L 669.172227 565.789091 
L 669.004347 559.2 
L 668.841614 552.610909 
L 668.685934 546.021818 
L 668.538934 539.432727 
L 668.401879 532.843636 
L 668.275597 526.254545 
L 668.160431 519.665455 
L 668.056204 513.076364 
L 667.962203 506.487273 
L 667.877197 499.898182 
L 667.799456 493.309091 
L 667.72681 486.72 
L 667.656706 480.130909 
L 667.586292 473.541818 
L 667.512498 466.952727 
L 667.43213 460.363636 
L 667.341957 453.774545 
L 667.238803 447.185455 
L 667.119622 440.596364 
L 666.98157 434.007273 
L 666.822061 427.418182 
L 666.638809 420.829091 
L 666.429864 414.24 
L 666.193623 407.650909 
L 665.928838 401.061818 
L 665.634613 394.472727 
L 665.310394 387.883636 
L 664.95595 381.294545 
L 664.571356 374.705455 
L 664.156976 368.116364 
L 663.713443 361.527273 
L 663.241646 354.938182 
L 662.742717 348.349091 
L 662.218021 341.76 
L 661.669148 335.170909 
L 661.097906 328.581818 
L 660.506311 321.992727 
L 659.896575 315.403636 
L 659.271093 308.814545 
L 658.632415 302.225455 
L 657.983221 295.636364 
L 657.326284 289.047273 
L 656.664433 282.458182 
L 656.0005 275.869091 
L 655.337282 269.28 
L 654.67749 262.690909 
L 654.023709 256.101818 
L 653.378371 249.512727 
L 652.743729 242.923636 
L 652.121858 236.334545 
L 651.51467 229.745455 
L 650.923941 223.156364 
L 650.351373 216.567273 
L 649.798654 209.978182 
L 649.267551 203.389091 
L 648.760001 196.8 
L 648.278207 190.210909 
L 647.824737 183.621818 
L 647.402605 177.032727 
L 647.015338 170.443636 
L 646.667011 163.854545 
L 646.362258 157.265455 
L 646.106237 150.676364 
L 645.904556 144.087273 
L 645.763165 137.498182 
L 645.688198 130.909091 
L 645.685785 124.32 
L 645.761836 117.730909 
L 645.921806 111.141818 
L 646.17045 104.552727 
L 646.511581 97.963636 
L 646.947848 91.374545 
L 647.480537 84.785455 
L 648.109411 78.196364 
L 648.832605 71.607273 
L 649.646566 65.018182 
L 650.546062 58.429091 
L 651.524243 51.84 
L 699.275757 51.84 
L 699.275757 51.84 
L 700.253938 58.429091 
L 701.153434 65.018182 
L 701.967395 71.607273 
L 702.690589 78.196364 
L 703.319463 84.785455 
L 703.852152 91.374545 
L 704.288419 97.963636 
L 704.62955 104.552727 
L 704.878194 111.141818 
L 705.038164 117.730909 
L 705.114215 124.32 
L 705.111802 130.909091 
L 705.036835 137.498182 
L 704.895444 144.087273 
L 704.693763 150.676364 
L 704.437742 157.265455 
L 704.132989 163.854545 
L 703.784662 170.443636 
L 703.397395 177.032727 
L 702.975263 183.621818 
L 702.521793 190.210909 
L 702.039999 196.8 
L 701.532449 203.389091 
L 701.001346 209.978182 
L 700.448627 216.567273 
L 699.876059 223.156364 
L 699.28533 229.745455 
L 698.678142 236.334545 
L 698.056271 242.923636 
L 697.421629 249.512727 
L 696.776291 256.101818 
L 696.12251 262.690909 
L 695.462718 269.28 
L 694.7995 275.869091 
L 694.135567 282.458182 
L 693.473716 289.047273 
L 692.816779 295.636364 
L 692.167585 302.225455 
L 691.528907 308.814545 
L 690.903425 315.403636 
L 690.293689 321.992727 
L 689.702094 328.581818 
L 689.130852 335.170909 
L 688.581979 341.76 
L 688.057283 348.349091 
L 687.558354 354.938182 
L 687.086557 361.527273 
L 686.643024 368.116364 
L 686.228644 374.705455 
L 685.84405 381.294545 
L 685.489606 387.883636 
L 685.165387 394.472727 
L 684.871162 401.061818 
L 684.606377 407.650909 
L 684.370136 414.24 
L 684.161191 420.829091 
L 683.977939 427.418182 
L 683.81843 434.007273 
L 683.680378 440.596364 
L 683.561197 447.185455 
L 683.458043 453.774545 
L 683.36787 460.363636 
L 683.287502 466.952727 
L 683.213708 473.541818 
L 683.143294 480.130909 
L 683.07319 486.72 
L 683.000544 493.309091 
L 682.922803 499.898182 
L 682.837797 506.487273 
L 682.743796 513.076364 
L 682.639569 519.665455 
L 682.524403 526.254545 
L 682.398121 532.843636 
L 682.261066 539.432727 
L 682.114066 546.021818 
L 681.958386 552.610909 
L 681.795653 559.2 
L 681.627773 565.789091 
L 681.456836 572.378182 
L 681.285014 578.967273 
L 681.11446 585.556364 
L 680.947207 592.145455 
L 680.78508 598.734545 
L 680.629612 605.323636 
L 680.481986 611.912727 
L 680.342985 618.501818 
L 680.212968 625.090909 
L 680.09186 631.68 
L 679.97917 638.269091 
L 679.874023 644.858182 
L 679.775207 651.447273 
L 679.681241 658.036364 
L 679.590445 664.625455 
L 679.501026 671.214545 
L 679.411159 677.803636 
L 679.319072 684.392727 
L 679.223125 690.981818 
L 679.121879 697.570909 
L 679.014155 704.16 
z
" clip-path="url(#p3a96dc9f51)" style="fill: #d3d3d3; stroke: #7f7f7f; stroke-width: 3"/>
   </g>
   <g id="PolyCollection_5">
    <path d="M 813.333445 704.16 
L 810.266555 704.16 
L 810.210995 697.570909 
L 810.161713 690.981818 
L 810.118393 684.392727 
L 810.080526 677.803636 
L 810.047452 671.214545 
L 810.018402 664.625455 
L 809.992535 658.036364 
L 809.968974 651.447273 
L 809.94683 644.858182 
L 809.925213 638.269091 
L 809.903235 631.68 
L 809.880004 625.090909 
L 809.854614 618.501818 
L 809.826127 611.912727 
L 809.793563 605.323636 
L 809.755889 598.734545 
L 809.712018 592.145455 
L 809.660816 585.556364 
L 809.601108 578.967273 
L 809.531702 572.378182 
L 809.4514 565.789091 
L 809.359015 559.2 
L 809.253383 552.610909 
L 809.133365 546.021818 
L 808.997841 539.432727 
L 808.845702 532.843636 
L 808.675838 526.254545 
L 808.487126 519.665455 
L 808.278435 513.076364 
L 808.048641 506.487273 
L 807.796666 499.898182 
L 807.521546 493.309091 
L 807.222518 486.72 
L 806.899141 480.130909 
L 806.551425 473.541818 
L 806.17997 466.952727 
L 805.786096 460.363636 
L 805.371952 453.774545 
L 804.940583 447.185455 
L 804.495942 440.596364 
L 804.042846 434.007273 
L 803.586851 427.418182 
L 803.134059 420.829091 
L 802.690857 414.24 
L 802.263605 407.650909 
L 801.858277 401.061818 
L 801.480092 394.472727 
L 801.133148 387.883636 
L 800.820086 381.294545 
L 800.541809 374.705455 
L 800.297274 368.116364 
L 800.083369 361.527273 
L 799.894897 354.938182 
L 799.724655 348.349091 
L 799.563624 341.76 
L 799.401245 335.170909 
L 799.225784 328.581818 
L 799.024768 321.992727 
L 798.785462 315.403636 
L 798.495382 308.814545 
L 798.142809 302.225455 
L 797.717285 295.636364 
L 797.210072 289.047273 
L 796.614545 282.458182 
L 795.926502 275.869091 
L 795.144375 269.28 
L 794.26933 262.690909 
L 793.305242 256.101818 
L 792.258557 249.512727 
L 791.138035 242.923636 
L 789.954399 236.334545 
L 788.719911 229.745455 
L 787.447893 223.156364 
L 786.152251 216.567273 
L 784.847012 209.978182 
L 783.545929 203.389091 
L 782.262173 196.8 
L 781.008148 190.210909 
L 779.795422 183.621818 
L 778.6348 177.032727 
L 777.536495 170.443636 
L 776.510402 163.854545 
L 775.566409 157.265455 
L 774.714712 150.676364 
L 773.966083 144.087273 
L 773.332043 137.498182 
L 772.824885 130.909091 
L 772.457544 124.32 
L 772.243273 117.730909 
L 772.195146 111.141818 
L 772.325406 104.552727 
L 772.644704 97.963636 
L 773.161284 91.374545 
L 773.880178 84.785455 
L 774.802483 78.196364 
L 775.924791 71.607273 
L 777.238827 65.018182 
L 778.73133 58.429091 
L 780.384216 51.84 
L 843.215784 51.84 
L 843.215784 51.84 
L 844.86867 58.429091 
L 846.361173 65.018182 
L 847.675209 71.607273 
L 848.797517 78.196364 
L 849.719822 84.785455 
L 850.438716 91.374545 
L 850.955296 97.963636 
L 851.274594 104.552727 
L 851.404854 111.141818 
L 851.356727 117.730909 
L 851.142456 124.32 
L 850.775115 130.909091 
L 850.267957 137.498182 
L 849.633917 144.087273 
L 848.885288 150.676364 
L 848.033591 157.265455 
L 847.089598 163.854545 
L 846.063505 170.443636 
L 844.9652 177.032727 
L 843.804578 183.621818 
L 842.591852 190.210909 
L 841.337827 196.8 
L 840.054071 203.389091 
L 838.752988 209.978182 
L 837.447749 216.567273 
L 836.152107 223.156364 
L 834.880089 229.745455 
L 833.645601 236.334545 
L 832.461965 242.923636 
L 831.341443 249.512727 
L 830.294758 256.101818 
L 829.33067 262.690909 
L 828.455625 269.28 
L 827.673498 275.869091 
L 826.985455 282.458182 
L 826.389928 289.047273 
L 825.882715 295.636364 
L 825.457191 302.225455 
L 825.104618 308.814545 
L 824.814538 315.403636 
L 824.575232 321.992727 
L 824.374216 328.581818 
L 824.198755 335.170909 
L 824.036376 341.76 
L 823.875345 348.349091 
L 823.705103 354.938182 
L 823.516631 361.527273 
L 823.302726 368.116364 
L 823.058191 374.705455 
L 822.779914 381.294545 
L 822.466852 387.883636 
L 822.119908 394.472727 
L 821.741723 401.061818 
L 821.336395 407.650909 
L 820.909143 414.24 
L 820.465941 420.829091 
L 820.013149 427.418182 
L 819.557154 434.007273 
L 819.104058 440.596364 
L 818.659417 447.185455 
L 818.228048 453.774545 
L 817.813904 460.363636 
L 817.42003 466.952727 
L 817.048575 473.541818 
L 816.700859 480.130909 
L 816.377482 486.72 
L 816.078454 493.309091 
L 815.803334 499.898182 
L 815.551359 506.487273 
L 815.321565 513.076364 
L 815.112874 519.665455 
L 814.924162 526.254545 
L 814.754298 532.843636 
L 814.602159 539.432727 
L 814.466635 546.021818 
L 814.346617 552.610909 
L 814.240985 559.2 
L 814.1486 565.789091 
L 814.068298 572.378182 
L 813.998892 578.967273 
L 813.939184 585.556364 
L 813.887982 592.145455 
L 813.844111 598.734545 
L 813.806437 605.323636 
L 813.773873 611.912727 
L 813.745386 618.501818 
L 813.719996 625.090909 
L 813.696765 631.68 
L 813.674787 638.269091 
L 813.65317 644.858182 
L 813.631026 651.447273 
L 813.607465 658.036364 
L 813.581598 664.625455 
L 813.552548 671.214545 
L 813.519474 677.803636 
L 813.481607 684.392727 
L 813.438287 690.981818 
L 813.389005 697.570909 
L 813.333445 704.16 
z
" clip-path="url(#p3a96dc9f51)" style="fill: #d3d3d3; stroke: #7f7f7f; stroke-width: 3"/>
   </g>
   <g id="PolyCollection_6">
    <path d="M 950.060968 704.16 
L 946.339032 704.16 
L 946.224518 697.570909 
L 946.109789 690.981818 
L 945.995194 684.392727 
L 945.881126 677.803636 
L 945.76803 671.214545 
L 945.656413 664.625455 
L 945.546842 658.036364 
L 945.439932 651.447273 
L 945.336321 644.858182 
L 945.236636 638.269091 
L 945.141445 631.68 
L 945.051204 625.090909 
L 944.966201 618.501818 
L 944.886492 611.912727 
L 944.811844 605.323636 
L 944.741691 598.734545 
L 944.675092 592.145455 
L 944.610709 585.556364 
L 944.546807 578.967273 
L 944.481271 572.378182 
L 944.411644 565.789091 
L 944.335191 559.2 
L 944.248984 552.610909 
L 944.150002 546.021818 
L 944.035252 539.432727 
L 943.901899 532.843636 
L 943.747403 526.254545 
L 943.569664 519.665455 
L 943.367155 513.076364 
L 943.139047 506.487273 
L 942.885323 499.898182 
L 942.606855 493.309091 
L 942.305464 486.72 
L 941.983937 480.130909 
L 941.646 473.541818 
L 941.296249 466.952727 
L 940.940035 460.363636 
L 940.583301 453.774545 
L 940.232373 447.185455 
L 939.893716 440.596364 
L 939.573656 434.007273 
L 939.27809 427.418182 
L 939.012183 420.829091 
L 938.780074 414.24 
L 938.584612 407.650909 
L 938.427127 401.061818 
L 938.307252 394.472727 
L 938.222819 387.883636 
L 938.169825 381.294545 
L 938.142476 374.705455 
L 938.133321 368.116364 
L 938.133456 361.527273 
L 938.132806 354.938182 
L 938.120455 348.349091 
L 938.085027 341.76 
L 938.015088 335.170909 
L 937.899554 328.581818 
L 937.728077 321.992727 
L 937.491403 315.403636 
L 937.181683 308.814545 
L 936.792706 302.225455 
L 936.320071 295.636364 
L 935.761277 289.047273 
L 935.115732 282.458182 
L 934.38469 275.869091 
L 933.571121 269.28 
L 932.679532 262.690909 
L 931.71574 256.101818 
L 930.686631 249.512727 
L 929.599911 242.923636 
L 928.463866 236.334545 
L 927.287154 229.745455 
L 926.078628 223.156364 
L 924.847215 216.567273 
L 923.601846 209.978182 
L 922.351441 203.389091 
L 921.104952 196.8 
L 919.871442 190.210909 
L 918.660209 183.621818 
L 917.480922 177.032727 
L 916.343756 170.443636 
L 915.259517 163.854545 
L 914.23972 157.265455 
L 913.296616 150.676364 
L 912.443144 144.087273 
L 911.692799 137.498182 
L 911.059409 130.909091 
L 910.556819 124.32 
L 910.198492 117.730909 
L 909.997046 111.141818 
L 909.96373 104.552727 
L 910.107895 97.963636 
L 910.436458 91.374545 
L 910.953422 84.785455 
L 911.659469 78.196364 
L 912.551657 71.607273 
L 913.623256 65.018182 
L 914.863729 58.429091 
L 916.258873 51.84 
L 980.141127 51.84 
L 980.141127 51.84 
L 981.536271 58.429091 
L 982.776744 65.018182 
L 983.848343 71.607273 
L 984.740531 78.196364 
L 985.446578 84.785455 
L 985.963542 91.374545 
L 986.292105 97.963636 
L 986.43627 104.552727 
L 986.402954 111.141818 
L 986.201508 117.730909 
L 985.843181 124.32 
L 985.340591 130.909091 
L 984.707201 137.498182 
L 983.956856 144.087273 
L 983.103384 150.676364 
L 982.16028 157.265455 
L 981.140483 163.854545 
L 980.056244 170.443636 
L 978.919078 177.032727 
L 977.739791 183.621818 
L 976.528558 190.210909 
L 975.295048 196.8 
L 974.048559 203.389091 
L 972.798154 209.978182 
L 971.552785 216.567273 
L 970.321372 223.156364 
L 969.112846 229.745455 
L 967.936134 236.334545 
L 966.800089 242.923636 
L 965.713369 249.512727 
L 964.68426 256.101818 
L 963.720468 262.690909 
L 962.828879 269.28 
L 962.01531 275.869091 
L 961.284268 282.458182 
L 960.638723 289.047273 
L 960.079929 295.636364 
L 959.607294 302.225455 
L 959.218317 308.814545 
L 958.908597 315.403636 
L 958.671923 321.992727 
L 958.500446 328.581818 
L 958.384912 335.170909 
L 958.314973 341.76 
L 958.279545 348.349091 
L 958.267194 354.938182 
L 958.266544 361.527273 
L 958.266679 368.116364 
L 958.257524 374.705455 
L 958.230175 381.294545 
L 958.177181 387.883636 
L 958.092748 394.472727 
L 957.972873 401.061818 
L 957.815388 407.650909 
L 957.619926 414.24 
L 957.387817 420.829091 
L 957.12191 427.418182 
L 956.826344 434.007273 
L 956.506284 440.596364 
L 956.167627 447.185455 
L 955.816699 453.774545 
L 955.459965 460.363636 
L 955.103751 466.952727 
L 954.754 473.541818 
L 954.416063 480.130909 
L 954.094536 486.72 
L 953.793145 493.309091 
L 953.514677 499.898182 
L 953.260953 506.487273 
L 953.032845 513.076364 
L 952.830336 519.665455 
L 952.652597 526.254545 
L 952.498101 532.843636 
L 952.364748 539.432727 
L 952.249998 546.021818 
L 952.151016 552.610909 
L 952.064809 559.2 
L 951.988356 565.789091 
L 951.918729 572.378182 
L 951.853193 578.967273 
L 951.789291 585.556364 
L 951.724908 592.145455 
L 951.658309 598.734545 
L 951.588156 605.323636 
L 951.513508 611.912727 
L 951.433799 618.501818 
L 951.348796 625.090909 
L 951.258555 631.68 
L 951.163364 638.269091 
L 951.063679 644.858182 
L 950.960068 651.447273 
L 950.853158 658.036364 
L 950.743587 664.625455 
L 950.63197 671.214545 
L 950.518874 677.803636 
L 950.404806 684.392727 
L 950.290211 690.981818 
L 950.175482 697.570909 
L 950.060968 704.16 
z
" clip-path="url(#p3a96dc9f51)" style="fill: #d3d3d3; stroke: #7f7f7f; stroke-width: 3"/>
   </g>
   <g id="PolyCollection_7">
    <defs>
     <path id="mb0d779c086" d="M 1089.038145 34.71552 
L 1080.161855 34.71552 
L 1079.814314 30.524858 
L 1079.460451 26.334196 
L 1079.102561 22.143535 
L 1078.743201 17.952873 
L 1078.385166 13.762211 
L 1078.031467 9.571549 
L 1077.685277 5.380887 
L 1077.349879 1.190225 
L 1077.028586 -3.000436 
L 1076.724658 -7.191098 
L 1076.441208 -11.38176 
L 1076.181095 -15.572422 
L 1075.946826 -19.763084 
L 1075.740457 -23.953745 
L 1075.563499 -28.144407 
L 1075.416845 -32.335069 
L 1075.30071 -36.525731 
L 1075.214593 -40.716393 
L 1075.157258 -44.907055 
L 1075.126751 -49.097716 
L 1075.120423 -53.288378 
L 1075.134992 -57.47904 
L 1075.166606 -61.669702 
L 1075.210936 -65.860364 
L 1075.263265 -70.051025 
L 1075.318591 -74.241687 
L 1075.371721 -78.432349 
L 1075.417365 -82.623011 
L 1075.450219 -86.813673 
L 1075.465037 -91.004335 
L 1075.456691 -95.194996 
L 1075.420218 -99.385658 
L 1075.350859 -103.57632 
L 1075.244085 -107.766982 
L 1075.095629 -111.957644 
L 1074.901509 -116.148305 
L 1074.658064 -120.338967 
L 1074.361989 -124.529629 
L 1074.01039 -128.720291 
L 1073.600844 -132.910953 
L 1073.131472 -137.101615 
L 1072.601018 -141.292276 
L 1072.008931 -145.482938 
L 1071.355441 -149.6736 
L 1070.641629 -153.864262 
L 1069.869469 -158.054924 
L 1069.041845 -162.245585 
L 1068.162533 -166.436247 
L 1067.236137 -170.626909 
L 1066.267988 -174.817571 
L 1065.263986 -179.008233 
L 1064.23041 -183.198895 
L 1063.173686 -187.389556 
L 1062.100132 -191.580218 
L 1061.015685 -195.77088 
L 1059.925638 -199.961542 
L 1058.834385 -204.152204 
L 1057.745208 -208.342865 
L 1056.660113 -212.533527 
L 1055.579733 -216.724189 
L 1054.503307 -220.914851 
L 1053.42875 -225.105513 
L 1052.352808 -229.296175 
L 1051.271301 -233.486836 
L 1050.17946 -237.677498 
L 1049.072318 -241.86816 
L 1047.945169 -246.058822 
L 1046.794057 -250.249484 
L 1045.616276 -254.440145 
L 1044.41085 -258.630807 
L 1043.178981 -262.821469 
L 1041.924413 -267.012131 
L 1040.653719 -271.202793 
L 1039.37646 -275.393455 
L 1038.105221 -279.584116 
L 1036.855502 -283.774778 
L 1035.64547 -287.96544 
L 1034.495561 -292.156102 
L 1033.427966 -296.346764 
L 1032.465989 -300.537425 
L 1031.633336 -304.728087 
L 1030.953328 -308.918749 
L 1030.44811 -313.109411 
L 1030.137849 -317.300073 
L 1030.04 -321.490735 
L 1030.168631 -325.681396 
L 1030.533871 -329.872058 
L 1031.141484 -334.06272 
L 1031.992594 -338.253382 
L 1033.083573 -342.444044 
L 1034.406089 -346.634705 
L 1035.947318 -350.825367 
L 1037.690298 -355.016029 
L 1039.614415 -359.206691 
L 1041.695995 -363.397353 
L 1043.90897 -367.588015 
L 1046.225605 -371.778676 
L 1048.61724 -375.969338 
L 1051.055021 -380.16 
L 1118.144979 -380.16 
L 1118.144979 -380.16 
L 1120.58276 -375.969338 
L 1122.974395 -371.778676 
L 1125.29103 -367.588015 
L 1127.504005 -363.397353 
L 1129.585585 -359.206691 
L 1131.509702 -355.016029 
L 1133.252682 -350.825367 
L 1134.793911 -346.634705 
L 1136.116427 -342.444044 
L 1137.207406 -338.253382 
L 1138.058516 -334.06272 
L 1138.666129 -329.872058 
L 1139.031369 -325.681396 
L 1139.16 -321.490735 
L 1139.062151 -317.300073 
L 1138.75189 -313.109411 
L 1138.246672 -308.918749 
L 1137.566664 -304.728087 
L 1136.734011 -300.537425 
L 1135.772034 -296.346764 
L 1134.704439 -292.156102 
L 1133.55453 -287.96544 
L 1132.344498 -283.774778 
L 1131.094779 -279.584116 
L 1129.82354 -275.393455 
L 1128.546281 -271.202793 
L 1127.275587 -267.012131 
L 1126.021019 -262.821469 
L 1124.78915 -258.630807 
L 1123.583724 -254.440145 
L 1122.405943 -250.249484 
L 1121.254831 -246.058822 
L 1120.127682 -241.86816 
L 1119.02054 -237.677498 
L 1117.928699 -233.486836 
L 1116.847192 -229.296175 
L 1115.77125 -225.105513 
L 1114.696693 -220.914851 
L 1113.620267 -216.724189 
L 1112.539887 -212.533527 
L 1111.454792 -208.342865 
L 1110.365615 -204.152204 
L 1109.274362 -199.961542 
L 1108.184315 -195.77088 
L 1107.099868 -191.580218 
L 1106.026314 -187.389556 
L 1104.96959 -183.198895 
L 1103.936014 -179.008233 
L 1102.932012 -174.817571 
L 1101.963863 -170.626909 
L 1101.037467 -166.436247 
L 1100.158155 -162.245585 
L 1099.330531 -158.054924 
L 1098.558371 -153.864262 
L 1097.844559 -149.6736 
L 1097.191069 -145.482938 
L 1096.598982 -141.292276 
L 1096.068528 -137.101615 
L 1095.599156 -132.910953 
L 1095.18961 -128.720291 
L 1094.838011 -124.529629 
L 1094.541936 -120.338967 
L 1094.298491 -116.148305 
L 1094.104371 -111.957644 
L 1093.955915 -107.766982 
L 1093.849141 -103.57632 
L 1093.779782 -99.385658 
L 1093.743309 -95.194996 
L 1093.734963 -91.004335 
L 1093.749781 -86.813673 
L 1093.782635 -82.623011 
L 1093.828279 -78.432349 
L 1093.881409 -74.241687 
L 1093.936735 -70.051025 
L 1093.989064 -65.860364 
L 1094.033394 -61.669702 
L 1094.065008 -57.47904 
L 1094.079577 -53.288378 
L 1094.073249 -49.097716 
L 1094.042742 -44.907055 
L 1093.985407 -40.716393 
L 1093.89929 -36.525731 
L 1093.783155 -32.335069 
L 1093.636501 -28.144407 
L 1093.459543 -23.953745 
L 1093.253174 -19.763084 
L 1093.018905 -15.572422 
L 1092.758792 -11.38176 
L 1092.475342 -7.191098 
L 1092.171414 -3.000436 
L 1091.850121 1.190225 
L 1091.514723 5.380887 
L 1091.168533 9.571549 
L 1090.814834 13.762211 
L 1090.456799 17.952873 
L 1090.097439 22.143535 
L 1089.739549 26.334196 
L 1089.385686 30.524858 
L 1089.038145 34.71552 
z
" style="stroke: #7f7f7f; stroke-width: 3"/>
    </defs>
    <g clip-path="url(#p3a96dc9f51)">
     <use xlink:href="#mb0d779c086" x="0" y="432" style="fill: #d3d3d3; stroke: #7f7f7f; stroke-width: 3"/>
    </g>
   </g>
   <g id="PolyCollection_8">
    <path d="M 1222.289562 704.16 
L 1219.710438 704.16 
L 1219.717817 697.570909 
L 1219.740884 690.981818 
L 1219.778562 684.392727 
L 1219.829168 677.803636 
L 1219.890493 671.214545 
L 1219.959893 664.625455 
L 1220.034401 658.036364 
L 1220.110841 651.447273 
L 1220.185937 644.858182 
L 1220.256402 638.269091 
L 1220.319022 631.68 
L 1220.370703 625.090909 
L 1220.408507 618.501818 
L 1220.429673 611.912727 
L 1220.431617 605.323636 
L 1220.41193 598.734545 
L 1220.368384 592.145455 
L 1220.298931 585.556364 
L 1220.20173 578.967273 
L 1220.075177 572.378182 
L 1219.917958 565.789091 
L 1219.72911 559.2 
L 1219.508103 552.610909 
L 1219.254908 546.021818 
L 1218.97008 539.432727 
L 1218.654818 532.843636 
L 1218.31101 526.254545 
L 1217.941258 519.665455 
L 1217.548862 513.076364 
L 1217.137784 506.487273 
L 1216.712568 499.898182 
L 1216.278234 493.309091 
L 1215.840142 486.72 
L 1215.403828 480.130909 
L 1214.974829 473.541818 
L 1214.558494 466.952727 
L 1214.159792 460.363636 
L 1213.783131 453.774545 
L 1213.432182 447.185455 
L 1213.109732 440.596364 
L 1212.817552 434.007273 
L 1212.556306 427.418182 
L 1212.32548 420.829091 
L 1212.123359 414.24 
L 1211.947029 407.650909 
L 1211.792423 401.061818 
L 1211.654397 394.472727 
L 1211.526838 387.883636 
L 1211.402803 381.294545 
L 1211.27468 374.705455 
L 1211.134372 368.116364 
L 1210.973493 361.527273 
L 1210.783575 354.938182 
L 1210.556268 348.349091 
L 1210.283541 341.76 
L 1209.957874 335.170909 
L 1209.572423 328.581818 
L 1209.121174 321.992727 
L 1208.599068 315.403636 
L 1208.002103 308.814545 
L 1207.327424 302.225455 
L 1206.573385 295.636364 
L 1205.739601 289.047273 
L 1204.826987 282.458182 
L 1203.837797 275.869091 
L 1202.775638 269.28 
L 1201.645482 262.690909 
L 1200.453656 256.101818 
L 1199.207801 249.512727 
L 1197.9168 242.923636 
L 1196.590656 236.334545 
L 1195.240327 229.745455 
L 1193.877515 223.156364 
L 1192.514411 216.567273 
L 1191.163424 209.978182 
L 1189.836905 203.389091 
L 1188.546898 196.8 
L 1187.304944 190.210909 
L 1186.121965 183.621818 
L 1185.008245 177.032727 
L 1183.973513 170.443636 
L 1183.02713 163.854545 
L 1182.178345 157.265455 
L 1181.436593 150.676364 
L 1180.811782 144.087273 
L 1180.314519 137.498182 
L 1179.956211 130.909091 
L 1179.749002 124.32 
L 1179.705506 117.730909 
L 1179.838329 111.141818 
L 1180.159385 104.552727 
L 1180.679053 97.963636 
L 1181.405233 91.374545 
L 1182.342373 84.785455 
L 1183.490575 78.196364 
L 1184.844863 71.607273 
L 1186.394696 65.018182 
L 1188.123799 58.429091 
L 1190.010344 51.84 
L 1251.989656 51.84 
L 1251.989656 51.84 
L 1253.876201 58.429091 
L 1255.605304 65.018182 
L 1257.155137 71.607273 
L 1258.509425 78.196364 
L 1259.657627 84.785455 
L 1260.594767 91.374545 
L 1261.320947 97.963636 
L 1261.840615 104.552727 
L 1262.161671 111.141818 
L 1262.294494 117.730909 
L 1262.250998 124.32 
L 1262.043789 130.909091 
L 1261.685481 137.498182 
L 1261.188218 144.087273 
L 1260.563407 150.676364 
L 1259.821655 157.265455 
L 1258.97287 163.854545 
L 1258.026487 170.443636 
L 1256.991755 177.032727 
L 1255.878035 183.621818 
L 1254.695056 190.210909 
L 1253.453102 196.8 
L 1252.163095 203.389091 
L 1250.836576 209.978182 
L 1249.485589 216.567273 
L 1248.122485 223.156364 
L 1246.759673 229.745455 
L 1245.409344 236.334545 
L 1244.0832 242.923636 
L 1242.792199 249.512727 
L 1241.546344 256.101818 
L 1240.354518 262.690909 
L 1239.224362 269.28 
L 1238.162203 275.869091 
L 1237.173013 282.458182 
L 1236.260399 289.047273 
L 1235.426615 295.636364 
L 1234.672576 302.225455 
L 1233.997897 308.814545 
L 1233.400932 315.403636 
L 1232.878826 321.992727 
L 1232.427577 328.581818 
L 1232.042126 335.170909 
L 1231.716459 341.76 
L 1231.443732 348.349091 
L 1231.216425 354.938182 
L 1231.026507 361.527273 
L 1230.865628 368.116364 
L 1230.72532 374.705455 
L 1230.597197 381.294545 
L 1230.473162 387.883636 
L 1230.345603 394.472727 
L 1230.207577 401.061818 
L 1230.052971 407.650909 
L 1229.876641 414.24 
L 1229.67452 420.829091 
L 1229.443694 427.418182 
L 1229.182448 434.007273 
L 1228.890268 440.596364 
L 1228.567818 447.185455 
L 1228.216869 453.774545 
L 1227.840208 460.363636 
L 1227.441506 466.952727 
L 1227.025171 473.541818 
L 1226.596172 480.130909 
L 1226.159858 486.72 
L 1225.721766 493.309091 
L 1225.287432 499.898182 
L 1224.862216 506.487273 
L 1224.451138 513.076364 
L 1224.058742 519.665455 
L 1223.68899 526.254545 
L 1223.345182 532.843636 
L 1223.02992 539.432727 
L 1222.745092 546.021818 
L 1222.491897 552.610909 
L 1222.27089 559.2 
L 1222.082042 565.789091 
L 1221.924823 572.378182 
L 1221.79827 578.967273 
L 1221.701069 585.556364 
L 1221.631616 592.145455 
L 1221.58807 598.734545 
L 1221.568383 605.323636 
L 1221.570327 611.912727 
L 1221.591493 618.501818 
L 1221.629297 625.090909 
L 1221.680978 631.68 
L 1221.743598 638.269091 
L 1221.814063 644.858182 
L 1221.889159 651.447273 
L 1221.965599 658.036364 
L 1222.040107 664.625455 
L 1222.109507 671.214545 
L 1222.170832 677.803636 
L 1222.221438 684.392727 
L 1222.259116 690.981818 
L 1222.282183 697.570909 
L 1222.289562 704.16 
z
" clip-path="url(#p3a96dc9f51)" style="fill: #d3d3d3; stroke: #7f7f7f; stroke-width: 3"/>
   </g>
   <g id="PolyCollection_9">
    <path d="M 1361.518919 528.0336 
L 1353.281081 528.0336 
L 1353.086694 523.223564 
L 1352.90216 518.413527 
L 1352.728141 513.603491 
L 1352.56494 508.793455 
L 1352.412484 503.983418 
L 1352.270324 499.173382 
L 1352.137652 494.363345 
L 1352.01332 489.553309 
L 1351.89588 484.743273 
L 1351.783629 479.933236 
L 1351.674667 475.1232 
L 1351.566957 470.313164 
L 1351.458393 465.503127 
L 1351.346872 460.693091 
L 1351.230366 455.883055 
L 1351.106988 451.073018 
L 1350.975062 446.262982 
L 1350.833179 441.452945 
L 1350.68025 436.642909 
L 1350.515544 431.832873 
L 1350.338713 427.022836 
L 1350.149807 422.2128 
L 1349.949263 417.402764 
L 1349.737888 412.592727 
L 1349.51681 407.782691 
L 1349.287426 402.972655 
L 1349.051319 398.162618 
L 1348.810172 393.352582 
L 1348.565659 388.542545 
L 1348.319338 383.732509 
L 1348.072535 378.922473 
L 1347.82623 374.112436 
L 1347.580956 369.3024 
L 1347.336708 364.492364 
L 1347.092877 359.682327 
L 1346.848203 354.872291 
L 1346.600774 350.062255 
L 1346.348039 345.252218 
L 1346.086878 340.442182 
L 1345.813693 335.632145 
L 1345.524542 330.822109 
L 1345.2153 326.012073 
L 1344.881839 321.202036 
L 1344.520232 316.392 
L 1344.126951 311.581964 
L 1343.69907 306.771927 
L 1343.234438 301.961891 
L 1342.731835 297.151855 
L 1342.191083 292.341818 
L 1341.613106 287.531782 
L 1340.999946 282.721745 
L 1340.35471 277.911709 
L 1339.681465 273.101673 
L 1338.985078 268.291636 
L 1338.271 263.4816 
L 1337.545017 258.671564 
L 1336.812972 253.861527 
L 1336.080467 249.051491 
L 1335.352575 244.241455 
L 1334.633564 239.431418 
L 1333.926662 234.621382 
L 1333.233863 229.811345 
L 1332.555802 225.001309 
L 1331.891692 220.191273 
L 1331.239353 215.381236 
L 1330.5953 210.5712 
L 1329.95493 205.761164 
L 1329.312769 200.951127 
L 1328.66278 196.141091 
L 1327.998731 191.331055 
L 1327.31459 186.521018 
L 1326.604935 181.710982 
L 1325.86537 176.900945 
L 1325.092912 172.090909 
L 1324.286345 167.280873 
L 1323.446517 162.470836 
L 1322.576564 157.6608 
L 1321.682054 152.850764 
L 1320.77104 148.040727 
L 1319.854017 143.230691 
L 1318.943774 138.420655 
L 1318.055162 133.610618 
L 1317.204761 128.800582 
L 1316.41047 123.990545 
L 1315.691032 119.180509 
L 1315.065494 114.370473 
L 1314.552652 109.560436 
L 1314.170454 104.7504 
L 1313.935433 99.940364 
L 1313.862147 95.130327 
L 1313.962673 90.320291 
L 1314.246167 85.510255 
L 1314.718506 80.700218 
L 1315.382025 75.890182 
L 1316.235369 71.080145 
L 1317.273454 66.270109 
L 1318.487556 61.460073 
L 1319.865506 56.650036 
L 1321.392001 51.84 
L 1393.407999 51.84 
L 1393.407999 51.84 
L 1394.934494 56.650036 
L 1396.312444 61.460073 
L 1397.526546 66.270109 
L 1398.564631 71.080145 
L 1399.417975 75.890182 
L 1400.081494 80.700218 
L 1400.553833 85.510255 
L 1400.837327 90.320291 
L 1400.937853 95.130327 
L 1400.864567 99.940364 
L 1400.629546 104.7504 
L 1400.247348 109.560436 
L 1399.734506 114.370473 
L 1399.108968 119.180509 
L 1398.38953 123.990545 
L 1397.595239 128.800582 
L 1396.744838 133.610618 
L 1395.856226 138.420655 
L 1394.945983 143.230691 
L 1394.02896 148.040727 
L 1393.117946 152.850764 
L 1392.223436 157.6608 
L 1391.353483 162.470836 
L 1390.513655 167.280873 
L 1389.707088 172.090909 
L 1388.93463 176.900945 
L 1388.195065 181.710982 
L 1387.48541 186.521018 
L 1386.801269 191.331055 
L 1386.13722 196.141091 
L 1385.487231 200.951127 
L 1384.84507 205.761164 
L 1384.2047 210.5712 
L 1383.560647 215.381236 
L 1382.908308 220.191273 
L 1382.244198 225.001309 
L 1381.566137 229.811345 
L 1380.873338 234.621382 
L 1380.166436 239.431418 
L 1379.447425 244.241455 
L 1378.719533 249.051491 
L 1377.987028 253.861527 
L 1377.254983 258.671564 
L 1376.529 263.4816 
L 1375.814922 268.291636 
L 1375.118535 273.101673 
L 1374.44529 277.911709 
L 1373.800054 282.721745 
L 1373.186894 287.531782 
L 1372.608917 292.341818 
L 1372.068165 297.151855 
L 1371.565562 301.961891 
L 1371.10093 306.771927 
L 1370.673049 311.581964 
L 1370.279768 316.392 
L 1369.918161 321.202036 
L 1369.5847 326.012073 
L 1369.275458 330.822109 
L 1368.986307 335.632145 
L 1368.713122 340.442182 
L 1368.451961 345.252218 
L 1368.199226 350.062255 
L 1367.951797 354.872291 
L 1367.707123 359.682327 
L 1367.463292 364.492364 
L 1367.219044 369.3024 
L 1366.97377 374.112436 
L 1366.727465 378.922473 
L 1366.480662 383.732509 
L 1366.234341 388.542545 
L 1365.989828 393.352582 
L 1365.748681 398.162618 
L 1365.512574 402.972655 
L 1365.28319 407.782691 
L 1365.062112 412.592727 
L 1364.850737 417.402764 
L 1364.650193 422.2128 
L 1364.461287 427.022836 
L 1364.284456 431.832873 
L 1364.11975 436.642909 
L 1363.966821 441.452945 
L 1363.824938 446.262982 
L 1363.693012 451.073018 
L 1363.569634 455.883055 
L 1363.453128 460.693091 
L 1363.341607 465.503127 
L 1363.233043 470.313164 
L 1363.125333 475.1232 
L 1363.016371 479.933236 
L 1362.90412 484.743273 
L 1362.78668 489.553309 
L 1362.662348 494.363345 
L 1362.529676 499.173382 
L 1362.387516 503.983418 
L 1362.23506 508.793455 
L 1362.071859 513.603491 
L 1361.89784 518.413527 
L 1361.713306 523.223564 
L 1361.518919 528.0336 
z
" clip-path="url(#p3a96dc9f51)" style="fill: #d3d3d3; stroke: #7f7f7f; stroke-width: 3"/>
   </g>
   <g id="PathCollection_1">
    <defs>
     <path id="C0_0_e6cdfde92c" d="M 0 3.383948 
C 0.897434 3.383948 1.758231 3.027394 2.392813 2.392813 
C 3.027394 1.758231 3.383948 0.897434 3.383948 -0 
C 3.383948 -0.897434 3.027394 -1.758231 2.392813 -2.392813 
C 1.758231 -3.027394 0.897434 -3.383948 0 -3.383948 
C -0.897434 -3.383948 -1.758231 -3.027394 -2.392813 -2.392813 
C -3.027394 -1.758231 -3.383948 -0.897434 -3.383948 0 
C -3.383948 0.897434 -3.027394 1.758231 -2.392813 2.392813 
C -1.758231 3.027394 -0.897434 3.383948 0 3.383948 
z
"/>
    </defs>
    <g clip-path="url(#p3a96dc9f51)">
     <use xlink:href="#C0_0_e6cdfde92c" x="266.2" y="231.291128" style="fill: #808080; stroke: #808080; stroke-width: 2.025"/>
    </g>
    <g clip-path="url(#p3a96dc9f51)">
     <use xlink:href="#C0_0_e6cdfde92c" x="402.6" y="240.381523" style="fill: #808080; stroke: #808080; stroke-width: 2.025"/>
    </g>
    <g clip-path="url(#p3a96dc9f51)">
     <use xlink:href="#C0_0_e6cdfde92c" x="539" y="220.05439" style="fill: #808080; stroke: #808080; stroke-width: 2.025"/>
    </g>
    <g clip-path="url(#p3a96dc9f51)">
     <use xlink:href="#C0_0_e6cdfde92c" x="675.4" y="237.088359" style="fill: #808080; stroke: #808080; stroke-width: 2.025"/>
    </g>
    <g clip-path="url(#p3a96dc9f51)">
     <use xlink:href="#C0_0_e6cdfde92c" x="811.8" y="191.815246" style="fill: #808080; stroke: #808080; stroke-width: 2.025"/>
    </g>
    <g clip-path="url(#p3a96dc9f51)">
     <use xlink:href="#C0_0_e6cdfde92c" x="948.2" y="195.26623" style="fill: #808080; stroke: #808080; stroke-width: 2.025"/>
    </g>
    <g clip-path="url(#p3a96dc9f51)">
     <use xlink:href="#C0_0_e6cdfde92c" x="1084.6" y="169.99409" style="fill: #808080; stroke: #808080; stroke-width: 2.025"/>
    </g>
    <g clip-path="url(#p3a96dc9f51)">
     <use xlink:href="#C0_0_e6cdfde92c" x="1221" y="187.469954" style="fill: #808080; stroke: #808080; stroke-width: 2.025"/>
    </g>
    <g clip-path="url(#p3a96dc9f51)">
     <use xlink:href="#C0_0_e6cdfde92c" x="1357.4" y="178.074441" style="fill: #808080; stroke: #808080; stroke-width: 2.025"/>
    </g>
   </g>
   <g id="patch_3">
    <path d="M 198 378 
L 1425.6 378 
" style="fill: none; stroke: #cccccc; stroke-width: 1.25; stroke-linejoin: miter; stroke-linecap: square"/>
   </g>
  </g>
  <g id="text_14">
   <!-- TS1reducedWC -->
   <g style="fill: #262626" transform="translate(715.311563 22.317187)scale(0.18 -0.18)">
    <defs>
     <path id="DejaVuSans-Bold-54" d="M 31 4666 
L 4331 4666 
L 4331 3756 
L 2784 3756 
L 2784 0 
L 1581 0 
L 1581 3756 
L 31 3756 
L 31 4666 
z
" transform="scale(0.015625)"/>
     <path id="DejaVuSans-Bold-53" d="M 3834 4519 
L 3834 3531 
Q 3450 3703 3084 3790 
Q 2719 3878 2394 3878 
Q 1963 3878 1756 3759 
Q 1550 3641 1550 3391 
Q 1550 3203 1689 3098 
Q 1828 2994 2194 2919 
L 2706 2816 
Q 3484 2659 3812 2340 
Q 4141 2022 4141 1434 
Q 4141 663 3683 286 
Q 3225 -91 2284 -91 
Q 1841 -91 1394 -6 
Q 947 78 500 244 
L 500 1259 
Q 947 1022 1364 901 
Q 1781 781 2169 781 
Q 2563 781 2772 912 
Q 2981 1044 2981 1288 
Q 2981 1506 2839 1625 
Q 2697 1744 2272 1838 
L 1806 1941 
Q 1106 2091 782 2419 
Q 459 2747 459 3303 
Q 459 4000 909 4375 
Q 1359 4750 2203 4750 
Q 2588 4750 2994 4692 
Q 3400 4634 3834 4519 
z
" transform="scale(0.015625)"/>
     <path id="DejaVuSans-Bold-31" d="M 750 831 
L 1813 831 
L 1813 3847 
L 722 3622 
L 722 4441 
L 1806 4666 
L 2950 4666 
L 2950 831 
L 4013 831 
L 4013 0 
L 750 0 
L 750 831 
z
" transform="scale(0.015625)"/>
     <path id="DejaVuSans-Bold-72" d="M 3138 2547 
Q 2991 2616 2845 2648 
Q 2700 2681 2553 2681 
Q 2122 2681 1889 2404 
Q 1656 2128 1656 1613 
L 1656 0 
L 538 0 
L 538 3500 
L 1656 3500 
L 1656 2925 
Q 1872 3269 2151 3426 
Q 2431 3584 2822 3584 
Q 2878 3584 2943 3579 
Q 3009 3575 3134 3559 
L 3138 2547 
z
" transform="scale(0.015625)"/>
     <path id="DejaVuSans-Bold-65" d="M 4031 1759 
L 4031 1441 
L 1416 1441 
Q 1456 1047 1700 850 
Q 1944 653 2381 653 
Q 2734 653 3104 758 
Q 3475 863 3866 1075 
L 3866 213 
Q 3469 63 3072 -14 
Q 2675 -91 2278 -91 
Q 1328 -91 801 392 
Q 275 875 275 1747 
Q 275 2603 792 3093 
Q 1309 3584 2216 3584 
Q 3041 3584 3536 3087 
Q 4031 2591 4031 1759 
z
M 2881 2131 
Q 2881 2450 2695 2645 
Q 2509 2841 2209 2841 
Q 1884 2841 1681 2658 
Q 1478 2475 1428 2131 
L 2881 2131 
z
" transform="scale(0.015625)"/>
     <path id="DejaVuSans-Bold-64" d="M 2919 2988 
L 2919 4863 
L 4044 4863 
L 4044 0 
L 2919 0 
L 2919 506 
Q 2688 197 2409 53 
Q 2131 -91 1766 -91 
Q 1119 -91 703 423 
Q 288 938 288 1747 
Q 288 2556 703 3070 
Q 1119 3584 1766 3584 
Q 2128 3584 2408 3439 
Q 2688 3294 2919 2988 
z
M 2181 722 
Q 2541 722 2730 984 
Q 2919 1247 2919 1747 
Q 2919 2247 2730 2509 
Q 2541 2772 2181 2772 
Q 1825 2772 1636 2509 
Q 1447 2247 1447 1747 
Q 1447 1247 1636 984 
Q 1825 722 2181 722 
z
" transform="scale(0.015625)"/>
     <path id="DejaVuSans-Bold-75" d="M 500 1363 
L 500 3500 
L 1625 3500 
L 1625 3150 
Q 1625 2866 1622 2436 
Q 1619 2006 1619 1863 
Q 1619 1441 1641 1255 
Q 1663 1069 1716 984 
Q 1784 875 1895 815 
Q 2006 756 2150 756 
Q 2500 756 2700 1025 
Q 2900 1294 2900 1772 
L 2900 3500 
L 4019 3500 
L 4019 0 
L 2900 0 
L 2900 506 
Q 2647 200 2364 54 
Q 2081 -91 1741 -91 
Q 1134 -91 817 281 
Q 500 653 500 1363 
z
" transform="scale(0.015625)"/>
     <path id="DejaVuSans-Bold-63" d="M 3366 3391 
L 3366 2478 
Q 3138 2634 2908 2709 
Q 2678 2784 2431 2784 
Q 1963 2784 1702 2511 
Q 1441 2238 1441 1747 
Q 1441 1256 1702 982 
Q 1963 709 2431 709 
Q 2694 709 2930 787 
Q 3166 866 3366 1019 
L 3366 103 
Q 3103 6 2833 -42 
Q 2563 -91 2291 -91 
Q 1344 -91 809 395 
Q 275 881 275 1747 
Q 275 2613 809 3098 
Q 1344 3584 2291 3584 
Q 2566 3584 2833 3536 
Q 3100 3488 3366 3391 
z
" transform="scale(0.015625)"/>
     <path id="DejaVuSans-Bold-57" d="M 191 4666 
L 1344 4666 
L 2150 1275 
L 2950 4666 
L 4109 4666 
L 4909 1275 
L 5716 4666 
L 6859 4666 
L 5759 0 
L 4372 0 
L 3525 3547 
L 2688 0 
L 1300 0 
L 191 4666 
z
" transform="scale(0.015625)"/>
     <path id="DejaVuSans-Bold-43" d="M 4288 256 
Q 3956 84 3597 -3 
Q 3238 -91 2847 -91 
Q 1681 -91 1000 561 
Q 319 1213 319 2328 
Q 319 3447 1000 4098 
Q 1681 4750 2847 4750 
Q 3238 4750 3597 4662 
Q 3956 4575 4288 4403 
L 4288 3438 
Q 3953 3666 3628 3772 
Q 3303 3878 2944 3878 
Q 2300 3878 1931 3465 
Q 1563 3053 1563 2328 
Q 1563 1606 1931 1193 
Q 2300 781 2944 781 
Q 3303 781 3628 887 
Q 3953 994 4288 1222 
L 4288 256 
z
" transform="scale(0.015625)"/>
    </defs>
    <use xlink:href="#DejaVuSans-Bold-54"/>
    <use xlink:href="#DejaVuSans-Bold-53" x="68.212891"/>
    <use xlink:href="#DejaVuSans-Bold-31" x="140.234375"/>
    <use xlink:href="#DejaVuSans-Bold-72" x="209.814453"/>
    <use xlink:href="#DejaVuSans-Bold-65" x="259.130859"/>
    <use xlink:href="#DejaVuSans-Bold-64" x="326.953125"/>
    <use xlink:href="#DejaVuSans-Bold-75" x="398.535156"/>
    <use xlink:href="#DejaVuSans-Bold-63" x="469.726562"/>
    <use xlink:href="#DejaVuSans-Bold-65" x="529.003906"/>
    <use xlink:href="#DejaVuSans-Bold-64" x="596.826172"/>
    <use xlink:href="#DejaVuSans-Bold-57" x="668.408203"/>
    <use xlink:href="#DejaVuSans-Bold-43" x="778.710938"/>
   </g>
  </g>
 </g>
 <defs>
  <clipPath id="p3a96dc9f51">
   <rect x="198" y="51.84" width="1227.6" height="326.16"/>
  </clipPath>
 </defs>
</svg>
