<?xml version="1.0" encoding="utf-8" standalone="no"?>
<!DOCTYPE svg PUBLIC "-//W3C//DTD SVG 1.1//EN"
  "http://www.w3.org/Graphics/SVG/1.1/DTD/svg11.dtd">
<svg xmlns:xlink="http://www.w3.org/1999/xlink" width="1584pt" height="432pt" viewBox="0 0 1584 432" xmlns="http://www.w3.org/2000/svg" version="1.1">
 <metadata>
  <rdf:RDF xmlns:dc="http://purl.org/dc/elements/1.1/" xmlns:cc="http://creativecommons.org/ns#" xmlns:rdf="http://www.w3.org/1999/02/22-rdf-syntax-ns#">
   <cc:Work>
    <dc:type rdf:resource="http://purl.org/dc/dcmitype/StillImage"/>
    <dc:date>2023-09-06T14:17:54.724882</dc:date>
    <dc:format>image/svg+xml</dc:format>
    <dc:creator>
     <cc:Agent>
      <dc:title>Matplotlib v3.5.1, https://matplotlib.org/</dc:title>
     </cc:Agent>
    </dc:creator>
   </cc:Work>
  </rdf:RDF>
 </metadata>
 <defs>
  <style type="text/css">*{stroke-linejoin: round; stroke-linecap: butt}</style>
 </defs>
 <g id="figure_1">
  <g id="patch_1">
   <path d="M 0 432 
L 1584 432 
L 1584 0 
L 0 0 
z
" style="fill: #ffffff"/>
  </g>
  <g id="axes_1">
   <g id="patch_2">
    <path d="M 198 378 
L 1425.6 378 
L 1425.6 51.84 
L 198 51.84 
z
" style="fill: #ffffff"/>
   </g>
   <g id="matplotlib.axis_1">
    <g id="xtick_1">
     <g id="text_1">
      <!-- RNAfold -->
      <g style="fill: #262626" transform="translate(218.093906 401.177188)scale(0.18 -0.18)">
       <defs>
        <path id="DejaVuSans-52" d="M 2841 2188 
Q 3044 2119 3236 1894 
Q 3428 1669 3622 1275 
L 4263 0 
L 3584 0 
L 2988 1197 
Q 2756 1666 2539 1819 
Q 2322 1972 1947 1972 
L 1259 1972 
L 1259 0 
L 628 0 
L 628 4666 
L 2053 4666 
Q 2853 4666 3247 4331 
Q 3641 3997 3641 3322 
Q 3641 2881 3436 2590 
Q 3231 2300 2841 2188 
z
M 1259 4147 
L 1259 2491 
L 2053 2491 
Q 2509 2491 2742 2702 
Q 2975 2913 2975 3322 
Q 2975 3731 2742 3939 
Q 2509 4147 2053 4147 
L 1259 4147 
z
" transform="scale(0.015625)"/>
        <path id="DejaVuSans-4e" d="M 628 4666 
L 1478 4666 
L 3547 763 
L 3547 4666 
L 4159 4666 
L 4159 0 
L 3309 0 
L 1241 3903 
L 1241 0 
L 628 0 
L 628 4666 
z
" transform="scale(0.015625)"/>
        <path id="DejaVuSans-41" d="M 2188 4044 
L 1331 1722 
L 3047 1722 
L 2188 4044 
z
M 1831 4666 
L 2547 4666 
L 4325 0 
L 3669 0 
L 3244 1197 
L 1141 1197 
L 716 0 
L 50 0 
L 1831 4666 
z
" transform="scale(0.015625)"/>
        <path id="DejaVuSans-66" d="M 2375 4863 
L 2375 4384 
L 1825 4384 
Q 1516 4384 1395 4259 
Q 1275 4134 1275 3809 
L 1275 3500 
L 2222 3500 
L 2222 3053 
L 1275 3053 
L 1275 0 
L 697 0 
L 697 3053 
L 147 3053 
L 147 3500 
L 697 3500 
L 697 3744 
Q 697 4328 969 4595 
Q 1241 4863 1831 4863 
L 2375 4863 
z
" transform="scale(0.015625)"/>
        <path id="DejaVuSans-6f" d="M 1959 3097 
Q 1497 3097 1228 2736 
Q 959 2375 959 1747 
Q 959 1119 1226 758 
Q 1494 397 1959 397 
Q 2419 397 2687 759 
Q 2956 1122 2956 1747 
Q 2956 2369 2687 2733 
Q 2419 3097 1959 3097 
z
M 1959 3584 
Q 2709 3584 3137 3096 
Q 3566 2609 3566 1747 
Q 3566 888 3137 398 
Q 2709 -91 1959 -91 
Q 1206 -91 779 398 
Q 353 888 353 1747 
Q 353 2609 779 3096 
Q 1206 3584 1959 3584 
z
" transform="scale(0.015625)"/>
        <path id="DejaVuSans-6c" d="M 603 4863 
L 1178 4863 
L 1178 0 
L 603 0 
L 603 4863 
z
" transform="scale(0.015625)"/>
        <path id="DejaVuSans-64" d="M 2906 2969 
L 2906 4863 
L 3481 4863 
L 3481 0 
L 2906 0 
L 2906 525 
Q 2725 213 2448 61 
Q 2172 -91 1784 -91 
Q 1150 -91 751 415 
Q 353 922 353 1747 
Q 353 2572 751 3078 
Q 1150 3584 1784 3584 
Q 2172 3584 2448 3432 
Q 2725 3281 2906 2969 
z
M 947 1747 
Q 947 1113 1208 752 
Q 1469 391 1925 391 
Q 2381 391 2643 752 
Q 2906 1113 2906 1747 
Q 2906 2381 2643 2742 
Q 2381 3103 1925 3103 
Q 1469 3103 1208 2742 
Q 947 2381 947 1747 
z
" transform="scale(0.015625)"/>
       </defs>
       <use xlink:href="#DejaVuSans-52"/>
       <use xlink:href="#DejaVuSans-4e" x="69.482422"/>
       <use xlink:href="#DejaVuSans-41" x="144.287109"/>
       <use xlink:href="#DejaVuSans-66" x="209.070312"/>
       <use xlink:href="#DejaVuSans-6f" x="244.275391"/>
       <use xlink:href="#DejaVuSans-6c" x="305.457031"/>
       <use xlink:href="#DejaVuSans-64" x="333.240234"/>
      </g>
     </g>
    </g>
    <g id="xtick_2">
     <g id="text_2">
      <!-- IPknot -->
      <g style="fill: #262626" transform="translate(337.367813 401.177188)scale(0.18 -0.18)">
       <defs>
        <path id="DejaVuSans-49" d="M 628 4666 
L 1259 4666 
L 1259 0 
L 628 0 
L 628 4666 
z
" transform="scale(0.015625)"/>
        <path id="DejaVuSans-50" d="M 1259 4147 
L 1259 2394 
L 2053 2394 
Q 2494 2394 2734 2622 
Q 2975 2850 2975 3272 
Q 2975 3691 2734 3919 
Q 2494 4147 2053 4147 
L 1259 4147 
z
M 628 4666 
L 2053 4666 
Q 2838 4666 3239 4311 
Q 3641 3956 3641 3272 
Q 3641 2581 3239 2228 
Q 2838 1875 2053 1875 
L 1259 1875 
L 1259 0 
L 628 0 
L 628 4666 
z
" transform="scale(0.015625)"/>
        <path id="DejaVuSans-6b" d="M 581 4863 
L 1159 4863 
L 1159 1991 
L 2875 3500 
L 3609 3500 
L 1753 1863 
L 3688 0 
L 2938 0 
L 1159 1709 
L 1159 0 
L 581 0 
L 581 4863 
z
" transform="scale(0.015625)"/>
        <path id="DejaVuSans-6e" d="M 3513 2113 
L 3513 0 
L 2938 0 
L 2938 2094 
Q 2938 2591 2744 2837 
Q 2550 3084 2163 3084 
Q 1697 3084 1428 2787 
Q 1159 2491 1159 1978 
L 1159 0 
L 581 0 
L 581 3500 
L 1159 3500 
L 1159 2956 
Q 1366 3272 1645 3428 
Q 1925 3584 2291 3584 
Q 2894 3584 3203 3211 
Q 3513 2838 3513 2113 
z
" transform="scale(0.015625)"/>
        <path id="DejaVuSans-74" d="M 1172 4494 
L 1172 3500 
L 2356 3500 
L 2356 3053 
L 1172 3053 
L 1172 1153 
Q 1172 725 1289 603 
Q 1406 481 1766 481 
L 2356 481 
L 2356 0 
L 1766 0 
Q 1100 0 847 248 
Q 594 497 594 1153 
L 594 3053 
L 172 3053 
L 172 3500 
L 594 3500 
L 594 4494 
L 1172 4494 
z
" transform="scale(0.015625)"/>
       </defs>
       <use xlink:href="#DejaVuSans-49"/>
       <use xlink:href="#DejaVuSans-50" x="29.492188"/>
       <use xlink:href="#DejaVuSans-6b" x="89.794922"/>
       <use xlink:href="#DejaVuSans-6e" x="147.705078"/>
       <use xlink:href="#DejaVuSans-6f" x="211.083984"/>
       <use xlink:href="#DejaVuSans-74" x="272.265625"/>
      </g>
     </g>
    </g>
    <g id="xtick_3">
     <g id="text_3">
      <!-- ShapeKnots -->
      <g style="fill: #262626" transform="translate(423.486562 401.177188)scale(0.18 -0.18)">
       <defs>
        <path id="DejaVuSans-53" d="M 3425 4513 
L 3425 3897 
Q 3066 4069 2747 4153 
Q 2428 4238 2131 4238 
Q 1616 4238 1336 4038 
Q 1056 3838 1056 3469 
Q 1056 3159 1242 3001 
Q 1428 2844 1947 2747 
L 2328 2669 
Q 3034 2534 3370 2195 
Q 3706 1856 3706 1288 
Q 3706 609 3251 259 
Q 2797 -91 1919 -91 
Q 1588 -91 1214 -16 
Q 841 59 441 206 
L 441 856 
Q 825 641 1194 531 
Q 1563 422 1919 422 
Q 2459 422 2753 634 
Q 3047 847 3047 1241 
Q 3047 1584 2836 1778 
Q 2625 1972 2144 2069 
L 1759 2144 
Q 1053 2284 737 2584 
Q 422 2884 422 3419 
Q 422 4038 858 4394 
Q 1294 4750 2059 4750 
Q 2388 4750 2728 4690 
Q 3069 4631 3425 4513 
z
" transform="scale(0.015625)"/>
        <path id="DejaVuSans-68" d="M 3513 2113 
L 3513 0 
L 2938 0 
L 2938 2094 
Q 2938 2591 2744 2837 
Q 2550 3084 2163 3084 
Q 1697 3084 1428 2787 
Q 1159 2491 1159 1978 
L 1159 0 
L 581 0 
L 581 4863 
L 1159 4863 
L 1159 2956 
Q 1366 3272 1645 3428 
Q 1925 3584 2291 3584 
Q 2894 3584 3203 3211 
Q 3513 2838 3513 2113 
z
" transform="scale(0.015625)"/>
        <path id="DejaVuSans-61" d="M 2194 1759 
Q 1497 1759 1228 1600 
Q 959 1441 959 1056 
Q 959 750 1161 570 
Q 1363 391 1709 391 
Q 2188 391 2477 730 
Q 2766 1069 2766 1631 
L 2766 1759 
L 2194 1759 
z
M 3341 1997 
L 3341 0 
L 2766 0 
L 2766 531 
Q 2569 213 2275 61 
Q 1981 -91 1556 -91 
Q 1019 -91 701 211 
Q 384 513 384 1019 
Q 384 1609 779 1909 
Q 1175 2209 1959 2209 
L 2766 2209 
L 2766 2266 
Q 2766 2663 2505 2880 
Q 2244 3097 1772 3097 
Q 1472 3097 1187 3025 
Q 903 2953 641 2809 
L 641 3341 
Q 956 3463 1253 3523 
Q 1550 3584 1831 3584 
Q 2591 3584 2966 3190 
Q 3341 2797 3341 1997 
z
" transform="scale(0.015625)"/>
        <path id="DejaVuSans-70" d="M 1159 525 
L 1159 -1331 
L 581 -1331 
L 581 3500 
L 1159 3500 
L 1159 2969 
Q 1341 3281 1617 3432 
Q 1894 3584 2278 3584 
Q 2916 3584 3314 3078 
Q 3713 2572 3713 1747 
Q 3713 922 3314 415 
Q 2916 -91 2278 -91 
Q 1894 -91 1617 61 
Q 1341 213 1159 525 
z
M 3116 1747 
Q 3116 2381 2855 2742 
Q 2594 3103 2138 3103 
Q 1681 3103 1420 2742 
Q 1159 2381 1159 1747 
Q 1159 1113 1420 752 
Q 1681 391 2138 391 
Q 2594 391 2855 752 
Q 3116 1113 3116 1747 
z
" transform="scale(0.015625)"/>
        <path id="DejaVuSans-65" d="M 3597 1894 
L 3597 1613 
L 953 1613 
Q 991 1019 1311 708 
Q 1631 397 2203 397 
Q 2534 397 2845 478 
Q 3156 559 3463 722 
L 3463 178 
Q 3153 47 2828 -22 
Q 2503 -91 2169 -91 
Q 1331 -91 842 396 
Q 353 884 353 1716 
Q 353 2575 817 3079 
Q 1281 3584 2069 3584 
Q 2775 3584 3186 3129 
Q 3597 2675 3597 1894 
z
M 3022 2063 
Q 3016 2534 2758 2815 
Q 2500 3097 2075 3097 
Q 1594 3097 1305 2825 
Q 1016 2553 972 2059 
L 3022 2063 
z
" transform="scale(0.015625)"/>
        <path id="DejaVuSans-4b" d="M 628 4666 
L 1259 4666 
L 1259 2694 
L 3353 4666 
L 4166 4666 
L 1850 2491 
L 4331 0 
L 3500 0 
L 1259 2247 
L 1259 0 
L 628 0 
L 628 4666 
z
" transform="scale(0.015625)"/>
        <path id="DejaVuSans-73" d="M 2834 3397 
L 2834 2853 
Q 2591 2978 2328 3040 
Q 2066 3103 1784 3103 
Q 1356 3103 1142 2972 
Q 928 2841 928 2578 
Q 928 2378 1081 2264 
Q 1234 2150 1697 2047 
L 1894 2003 
Q 2506 1872 2764 1633 
Q 3022 1394 3022 966 
Q 3022 478 2636 193 
Q 2250 -91 1575 -91 
Q 1294 -91 989 -36 
Q 684 19 347 128 
L 347 722 
Q 666 556 975 473 
Q 1284 391 1588 391 
Q 1994 391 2212 530 
Q 2431 669 2431 922 
Q 2431 1156 2273 1281 
Q 2116 1406 1581 1522 
L 1381 1569 
Q 847 1681 609 1914 
Q 372 2147 372 2553 
Q 372 3047 722 3315 
Q 1072 3584 1716 3584 
Q 2034 3584 2315 3537 
Q 2597 3491 2834 3397 
z
" transform="scale(0.015625)"/>
       </defs>
       <use xlink:href="#DejaVuSans-53"/>
       <use xlink:href="#DejaVuSans-68" x="63.476562"/>
       <use xlink:href="#DejaVuSans-61" x="126.855469"/>
       <use xlink:href="#DejaVuSans-70" x="188.134766"/>
       <use xlink:href="#DejaVuSans-65" x="251.611328"/>
       <use xlink:href="#DejaVuSans-4b" x="313.134766"/>
       <use xlink:href="#DejaVuSans-6e" x="378.710938"/>
       <use xlink:href="#DejaVuSans-6f" x="442.089844"/>
       <use xlink:href="#DejaVuSans-74" x="503.271484"/>
       <use xlink:href="#DejaVuSans-73" x="542.480469"/>
      </g>
      <!-- top-1 -->
      <g style="fill: #262626" transform="translate(453.277969 421.33325)scale(0.18 -0.18)">
       <defs>
        <path id="DejaVuSans-2d" d="M 313 2009 
L 1997 2009 
L 1997 1497 
L 313 1497 
L 313 2009 
z
" transform="scale(0.015625)"/>
        <path id="DejaVuSans-31" d="M 794 531 
L 1825 531 
L 1825 4091 
L 703 3866 
L 703 4441 
L 1819 4666 
L 2450 4666 
L 2450 531 
L 3481 531 
L 3481 0 
L 794 0 
L 794 531 
z
" transform="scale(0.015625)"/>
       </defs>
       <use xlink:href="#DejaVuSans-74"/>
       <use xlink:href="#DejaVuSans-6f" x="39.208984"/>
       <use xlink:href="#DejaVuSans-70" x="100.390625"/>
       <use xlink:href="#DejaVuSans-2d" x="163.867188"/>
       <use xlink:href="#DejaVuSans-31" x="199.951172"/>
      </g>
     </g>
    </g>
    <g id="xtick_4">
     <g id="text_4">
      <!-- SQUARNA -->
      <g style="fill: #262626" transform="translate(543.915 401.177188)scale(0.18 -0.18)">
       <defs>
        <path id="DejaVuSans-51" d="M 2522 4238 
Q 1834 4238 1429 3725 
Q 1025 3213 1025 2328 
Q 1025 1447 1429 934 
Q 1834 422 2522 422 
Q 3209 422 3611 934 
Q 4013 1447 4013 2328 
Q 4013 3213 3611 3725 
Q 3209 4238 2522 4238 
z
M 3406 84 
L 4238 -825 
L 3475 -825 
L 2784 -78 
Q 2681 -84 2626 -87 
Q 2572 -91 2522 -91 
Q 1538 -91 948 567 
Q 359 1225 359 2328 
Q 359 3434 948 4092 
Q 1538 4750 2522 4750 
Q 3503 4750 4090 4092 
Q 4678 3434 4678 2328 
Q 4678 1516 4351 937 
Q 4025 359 3406 84 
z
" transform="scale(0.015625)"/>
        <path id="DejaVuSans-55" d="M 556 4666 
L 1191 4666 
L 1191 1831 
Q 1191 1081 1462 751 
Q 1734 422 2344 422 
Q 2950 422 3222 751 
Q 3494 1081 3494 1831 
L 3494 4666 
L 4128 4666 
L 4128 1753 
Q 4128 841 3676 375 
Q 3225 -91 2344 -91 
Q 1459 -91 1007 375 
Q 556 841 556 1753 
L 556 4666 
z
" transform="scale(0.015625)"/>
       </defs>
       <use xlink:href="#DejaVuSans-53"/>
       <use xlink:href="#DejaVuSans-51" x="63.476562"/>
       <use xlink:href="#DejaVuSans-55" x="142.1875"/>
       <use xlink:href="#DejaVuSans-41" x="215.380859"/>
       <use xlink:href="#DejaVuSans-52" x="283.789062"/>
       <use xlink:href="#DejaVuSans-4e" x="353.271484"/>
       <use xlink:href="#DejaVuSans-41" x="428.076172"/>
      </g>
      <!-- default -->
      <g style="fill: #262626" transform="translate(556.932656 421.33325)scale(0.18 -0.18)">
       <defs>
        <path id="DejaVuSans-75" d="M 544 1381 
L 544 3500 
L 1119 3500 
L 1119 1403 
Q 1119 906 1312 657 
Q 1506 409 1894 409 
Q 2359 409 2629 706 
Q 2900 1003 2900 1516 
L 2900 3500 
L 3475 3500 
L 3475 0 
L 2900 0 
L 2900 538 
Q 2691 219 2414 64 
Q 2138 -91 1772 -91 
Q 1169 -91 856 284 
Q 544 659 544 1381 
z
M 1991 3584 
L 1991 3584 
z
" transform="scale(0.015625)"/>
       </defs>
       <use xlink:href="#DejaVuSans-64"/>
       <use xlink:href="#DejaVuSans-65" x="63.476562"/>
       <use xlink:href="#DejaVuSans-66" x="125"/>
       <use xlink:href="#DejaVuSans-61" x="160.205078"/>
       <use xlink:href="#DejaVuSans-75" x="221.484375"/>
       <use xlink:href="#DejaVuSans-6c" x="284.863281"/>
       <use xlink:href="#DejaVuSans-74" x="312.646484"/>
      </g>
      <!-- top-1 -->
      <g style="fill: #262626" transform="translate(564.877969 441.489312)scale(0.18 -0.18)">
       <use xlink:href="#DejaVuSans-74"/>
       <use xlink:href="#DejaVuSans-6f" x="39.208984"/>
       <use xlink:href="#DejaVuSans-70" x="100.390625"/>
       <use xlink:href="#DejaVuSans-2d" x="163.867188"/>
       <use xlink:href="#DejaVuSans-31" x="199.951172"/>
      </g>
     </g>
    </g>
    <g id="xtick_5">
     <g id="text_5">
      <!-- SQUARNA -->
      <g style="fill: #262626" transform="translate(655.515 401.177188)scale(0.18 -0.18)">
       <use xlink:href="#DejaVuSans-53"/>
       <use xlink:href="#DejaVuSans-51" x="63.476562"/>
       <use xlink:href="#DejaVuSans-55" x="142.1875"/>
       <use xlink:href="#DejaVuSans-41" x="215.380859"/>
       <use xlink:href="#DejaVuSans-52" x="283.789062"/>
       <use xlink:href="#DejaVuSans-4e" x="353.271484"/>
       <use xlink:href="#DejaVuSans-41" x="428.076172"/>
      </g>
      <!-- alternative -->
      <g style="fill: #262626" transform="translate(651.463594 421.33325)scale(0.18 -0.18)">
       <defs>
        <path id="DejaVuSans-72" d="M 2631 2963 
Q 2534 3019 2420 3045 
Q 2306 3072 2169 3072 
Q 1681 3072 1420 2755 
Q 1159 2438 1159 1844 
L 1159 0 
L 581 0 
L 581 3500 
L 1159 3500 
L 1159 2956 
Q 1341 3275 1631 3429 
Q 1922 3584 2338 3584 
Q 2397 3584 2469 3576 
Q 2541 3569 2628 3553 
L 2631 2963 
z
" transform="scale(0.015625)"/>
        <path id="DejaVuSans-69" d="M 603 3500 
L 1178 3500 
L 1178 0 
L 603 0 
L 603 3500 
z
M 603 4863 
L 1178 4863 
L 1178 4134 
L 603 4134 
L 603 4863 
z
" transform="scale(0.015625)"/>
        <path id="DejaVuSans-76" d="M 191 3500 
L 800 3500 
L 1894 563 
L 2988 3500 
L 3597 3500 
L 2284 0 
L 1503 0 
L 191 3500 
z
" transform="scale(0.015625)"/>
       </defs>
       <use xlink:href="#DejaVuSans-61"/>
       <use xlink:href="#DejaVuSans-6c" x="61.279297"/>
       <use xlink:href="#DejaVuSans-74" x="89.0625"/>
       <use xlink:href="#DejaVuSans-65" x="128.271484"/>
       <use xlink:href="#DejaVuSans-72" x="189.794922"/>
       <use xlink:href="#DejaVuSans-6e" x="229.158203"/>
       <use xlink:href="#DejaVuSans-61" x="292.537109"/>
       <use xlink:href="#DejaVuSans-74" x="353.816406"/>
       <use xlink:href="#DejaVuSans-69" x="393.025391"/>
       <use xlink:href="#DejaVuSans-76" x="420.808594"/>
       <use xlink:href="#DejaVuSans-65" x="479.988281"/>
      </g>
      <!-- top-1 -->
      <g style="fill: #262626" transform="translate(676.477969 441.489312)scale(0.18 -0.18)">
       <use xlink:href="#DejaVuSans-74"/>
       <use xlink:href="#DejaVuSans-6f" x="39.208984"/>
       <use xlink:href="#DejaVuSans-70" x="100.390625"/>
       <use xlink:href="#DejaVuSans-2d" x="163.867188"/>
       <use xlink:href="#DejaVuSans-31" x="199.951172"/>
      </g>
     </g>
    </g>
    <g id="xtick_6">
     <g id="text_6">
      <!-- RNAsubopt -->
      <g style="fill: #262626" transform="translate(761.802187 401.177188)scale(0.18 -0.18)">
       <defs>
        <path id="DejaVuSans-62" d="M 3116 1747 
Q 3116 2381 2855 2742 
Q 2594 3103 2138 3103 
Q 1681 3103 1420 2742 
Q 1159 2381 1159 1747 
Q 1159 1113 1420 752 
Q 1681 391 2138 391 
Q 2594 391 2855 752 
Q 3116 1113 3116 1747 
z
M 1159 2969 
Q 1341 3281 1617 3432 
Q 1894 3584 2278 3584 
Q 2916 3584 3314 3078 
Q 3713 2572 3713 1747 
Q 3713 922 3314 415 
Q 2916 -91 2278 -91 
Q 1894 -91 1617 61 
Q 1341 213 1159 525 
L 1159 0 
L 581 0 
L 581 4863 
L 1159 4863 
L 1159 2969 
z
" transform="scale(0.015625)"/>
       </defs>
       <use xlink:href="#DejaVuSans-52"/>
       <use xlink:href="#DejaVuSans-4e" x="69.482422"/>
       <use xlink:href="#DejaVuSans-41" x="144.287109"/>
       <use xlink:href="#DejaVuSans-73" x="212.695312"/>
       <use xlink:href="#DejaVuSans-75" x="264.794922"/>
       <use xlink:href="#DejaVuSans-62" x="328.173828"/>
       <use xlink:href="#DejaVuSans-6f" x="391.650391"/>
       <use xlink:href="#DejaVuSans-70" x="452.832031"/>
       <use xlink:href="#DejaVuSans-74" x="516.308594"/>
      </g>
      <!-- top-5 -->
      <g style="fill: #262626" transform="translate(788.077969 421.33325)scale(0.18 -0.18)">
       <defs>
        <path id="DejaVuSans-35" d="M 691 4666 
L 3169 4666 
L 3169 4134 
L 1269 4134 
L 1269 2991 
Q 1406 3038 1543 3061 
Q 1681 3084 1819 3084 
Q 2600 3084 3056 2656 
Q 3513 2228 3513 1497 
Q 3513 744 3044 326 
Q 2575 -91 1722 -91 
Q 1428 -91 1123 -41 
Q 819 9 494 109 
L 494 744 
Q 775 591 1075 516 
Q 1375 441 1709 441 
Q 2250 441 2565 725 
Q 2881 1009 2881 1497 
Q 2881 1984 2565 2268 
Q 2250 2553 1709 2553 
Q 1456 2553 1204 2497 
Q 953 2441 691 2322 
L 691 4666 
z
" transform="scale(0.015625)"/>
       </defs>
       <use xlink:href="#DejaVuSans-74"/>
       <use xlink:href="#DejaVuSans-6f" x="39.208984"/>
       <use xlink:href="#DejaVuSans-70" x="100.390625"/>
       <use xlink:href="#DejaVuSans-2d" x="163.867188"/>
       <use xlink:href="#DejaVuSans-35" x="199.951172"/>
      </g>
     </g>
    </g>
    <g id="xtick_7">
     <g id="text_7">
      <!-- ShapeKnots -->
      <g style="fill: #262626" transform="translate(869.886563 401.177188)scale(0.18 -0.18)">
       <use xlink:href="#DejaVuSans-53"/>
       <use xlink:href="#DejaVuSans-68" x="63.476562"/>
       <use xlink:href="#DejaVuSans-61" x="126.855469"/>
       <use xlink:href="#DejaVuSans-70" x="188.134766"/>
       <use xlink:href="#DejaVuSans-65" x="251.611328"/>
       <use xlink:href="#DejaVuSans-4b" x="313.134766"/>
       <use xlink:href="#DejaVuSans-6e" x="378.710938"/>
       <use xlink:href="#DejaVuSans-6f" x="442.089844"/>
       <use xlink:href="#DejaVuSans-74" x="503.271484"/>
       <use xlink:href="#DejaVuSans-73" x="542.480469"/>
      </g>
      <!-- top-5 -->
      <g style="fill: #262626" transform="translate(899.677969 421.33325)scale(0.18 -0.18)">
       <use xlink:href="#DejaVuSans-74"/>
       <use xlink:href="#DejaVuSans-6f" x="39.208984"/>
       <use xlink:href="#DejaVuSans-70" x="100.390625"/>
       <use xlink:href="#DejaVuSans-2d" x="163.867188"/>
       <use xlink:href="#DejaVuSans-35" x="199.951172"/>
      </g>
     </g>
    </g>
    <g id="xtick_8">
     <g id="text_8">
      <!-- MXfold2 -->
      <g style="fill: #262626" transform="translate(998.454375 401.177188)scale(0.18 -0.18)">
       <defs>
        <path id="DejaVuSans-4d" d="M 628 4666 
L 1569 4666 
L 2759 1491 
L 3956 4666 
L 4897 4666 
L 4897 0 
L 4281 0 
L 4281 4097 
L 3078 897 
L 2444 897 
L 1241 4097 
L 1241 0 
L 628 0 
L 628 4666 
z
" transform="scale(0.015625)"/>
        <path id="DejaVuSans-58" d="M 403 4666 
L 1081 4666 
L 2241 2931 
L 3406 4666 
L 4084 4666 
L 2584 2425 
L 4184 0 
L 3506 0 
L 2194 1984 
L 872 0 
L 191 0 
L 1856 2491 
L 403 4666 
z
" transform="scale(0.015625)"/>
        <path id="DejaVuSans-32" d="M 1228 531 
L 3431 531 
L 3431 0 
L 469 0 
L 469 531 
Q 828 903 1448 1529 
Q 2069 2156 2228 2338 
Q 2531 2678 2651 2914 
Q 2772 3150 2772 3378 
Q 2772 3750 2511 3984 
Q 2250 4219 1831 4219 
Q 1534 4219 1204 4116 
Q 875 4013 500 3803 
L 500 4441 
Q 881 4594 1212 4672 
Q 1544 4750 1819 4750 
Q 2544 4750 2975 4387 
Q 3406 4025 3406 3419 
Q 3406 3131 3298 2873 
Q 3191 2616 2906 2266 
Q 2828 2175 2409 1742 
Q 1991 1309 1228 531 
z
" transform="scale(0.015625)"/>
       </defs>
       <use xlink:href="#DejaVuSans-4d"/>
       <use xlink:href="#DejaVuSans-58" x="86.279297"/>
       <use xlink:href="#DejaVuSans-66" x="154.785156"/>
       <use xlink:href="#DejaVuSans-6f" x="189.990234"/>
       <use xlink:href="#DejaVuSans-6c" x="251.171875"/>
       <use xlink:href="#DejaVuSans-64" x="278.955078"/>
       <use xlink:href="#DejaVuSans-32" x="342.431641"/>
      </g>
     </g>
    </g>
    <g id="xtick_9">
     <g id="text_9">
      <!-- SPOT-RNA -->
      <g style="fill: #262626" transform="translate(1101.308906 401.177188)scale(0.18 -0.18)">
       <defs>
        <path id="DejaVuSans-4f" d="M 2522 4238 
Q 1834 4238 1429 3725 
Q 1025 3213 1025 2328 
Q 1025 1447 1429 934 
Q 1834 422 2522 422 
Q 3209 422 3611 934 
Q 4013 1447 4013 2328 
Q 4013 3213 3611 3725 
Q 3209 4238 2522 4238 
z
M 2522 4750 
Q 3503 4750 4090 4092 
Q 4678 3434 4678 2328 
Q 4678 1225 4090 567 
Q 3503 -91 2522 -91 
Q 1538 -91 948 565 
Q 359 1222 359 2328 
Q 359 3434 948 4092 
Q 1538 4750 2522 4750 
z
" transform="scale(0.015625)"/>
        <path id="DejaVuSans-54" d="M -19 4666 
L 3928 4666 
L 3928 4134 
L 2272 4134 
L 2272 0 
L 1638 0 
L 1638 4134 
L -19 4134 
L -19 4666 
z
" transform="scale(0.015625)"/>
       </defs>
       <use xlink:href="#DejaVuSans-53"/>
       <use xlink:href="#DejaVuSans-50" x="63.476562"/>
       <use xlink:href="#DejaVuSans-4f" x="123.779297"/>
       <use xlink:href="#DejaVuSans-54" x="202.490234"/>
       <use xlink:href="#DejaVuSans-2d" x="254.449219"/>
       <use xlink:href="#DejaVuSans-52" x="290.533203"/>
       <use xlink:href="#DejaVuSans-4e" x="360.015625"/>
       <use xlink:href="#DejaVuSans-41" x="434.820312"/>
      </g>
     </g>
    </g>
    <g id="xtick_10">
     <g id="text_10">
      <!-- SQUARNA -->
      <g style="fill: #262626" transform="translate(1213.515 401.177188)scale(0.18 -0.18)">
       <use xlink:href="#DejaVuSans-53"/>
       <use xlink:href="#DejaVuSans-51" x="63.476562"/>
       <use xlink:href="#DejaVuSans-55" x="142.1875"/>
       <use xlink:href="#DejaVuSans-41" x="215.380859"/>
       <use xlink:href="#DejaVuSans-52" x="283.789062"/>
       <use xlink:href="#DejaVuSans-4e" x="353.271484"/>
       <use xlink:href="#DejaVuSans-41" x="428.076172"/>
      </g>
      <!-- default -->
      <g style="fill: #262626" transform="translate(1226.532656 421.33325)scale(0.18 -0.18)">
       <use xlink:href="#DejaVuSans-64"/>
       <use xlink:href="#DejaVuSans-65" x="63.476562"/>
       <use xlink:href="#DejaVuSans-66" x="125"/>
       <use xlink:href="#DejaVuSans-61" x="160.205078"/>
       <use xlink:href="#DejaVuSans-75" x="221.484375"/>
       <use xlink:href="#DejaVuSans-6c" x="284.863281"/>
       <use xlink:href="#DejaVuSans-74" x="312.646484"/>
      </g>
      <!-- top-5 -->
      <g style="fill: #262626" transform="translate(1234.477969 441.489312)scale(0.18 -0.18)">
       <use xlink:href="#DejaVuSans-74"/>
       <use xlink:href="#DejaVuSans-6f" x="39.208984"/>
       <use xlink:href="#DejaVuSans-70" x="100.390625"/>
       <use xlink:href="#DejaVuSans-2d" x="163.867188"/>
       <use xlink:href="#DejaVuSans-35" x="199.951172"/>
      </g>
     </g>
    </g>
    <g id="xtick_11">
     <g id="text_11">
      <!-- SQUARNA -->
      <g style="fill: #262626" transform="translate(1325.115 401.177188)scale(0.18 -0.18)">
       <use xlink:href="#DejaVuSans-53"/>
       <use xlink:href="#DejaVuSans-51" x="63.476562"/>
       <use xlink:href="#DejaVuSans-55" x="142.1875"/>
       <use xlink:href="#DejaVuSans-41" x="215.380859"/>
       <use xlink:href="#DejaVuSans-52" x="283.789062"/>
       <use xlink:href="#DejaVuSans-4e" x="353.271484"/>
       <use xlink:href="#DejaVuSans-41" x="428.076172"/>
      </g>
      <!-- alternative -->
      <g style="fill: #262626" transform="translate(1321.063594 421.33325)scale(0.18 -0.18)">
       <use xlink:href="#DejaVuSans-61"/>
       <use xlink:href="#DejaVuSans-6c" x="61.279297"/>
       <use xlink:href="#DejaVuSans-74" x="89.0625"/>
       <use xlink:href="#DejaVuSans-65" x="128.271484"/>
       <use xlink:href="#DejaVuSans-72" x="189.794922"/>
       <use xlink:href="#DejaVuSans-6e" x="229.158203"/>
       <use xlink:href="#DejaVuSans-61" x="292.537109"/>
       <use xlink:href="#DejaVuSans-74" x="353.816406"/>
       <use xlink:href="#DejaVuSans-69" x="393.025391"/>
       <use xlink:href="#DejaVuSans-76" x="420.808594"/>
       <use xlink:href="#DejaVuSans-65" x="479.988281"/>
      </g>
      <!-- top-5 -->
      <g style="fill: #262626" transform="translate(1346.077969 441.489312)scale(0.18 -0.18)">
       <use xlink:href="#DejaVuSans-74"/>
       <use xlink:href="#DejaVuSans-6f" x="39.208984"/>
       <use xlink:href="#DejaVuSans-70" x="100.390625"/>
       <use xlink:href="#DejaVuSans-2d" x="163.867188"/>
       <use xlink:href="#DejaVuSans-35" x="199.951172"/>
      </g>
     </g>
    </g>
   </g>
   <g id="matplotlib.axis_2">
    <g id="ytick_1">
     <g id="line2d_1">
      <path d="M 198 312.768 
L 1425.6 312.768 
" clip-path="url(#p914bcbe9ed)" style="fill: none; stroke: #cccccc; stroke-linecap: round"/>
     </g>
     <g id="text_12">
      <!-- 0.6 -->
      <g style="fill: #262626" transform="translate(166.235625 318.086906)scale(0.14 -0.14)">
       <defs>
        <path id="DejaVuSans-30" d="M 2034 4250 
Q 1547 4250 1301 3770 
Q 1056 3291 1056 2328 
Q 1056 1369 1301 889 
Q 1547 409 2034 409 
Q 2525 409 2770 889 
Q 3016 1369 3016 2328 
Q 3016 3291 2770 3770 
Q 2525 4250 2034 4250 
z
M 2034 4750 
Q 2819 4750 3233 4129 
Q 3647 3509 3647 2328 
Q 3647 1150 3233 529 
Q 2819 -91 2034 -91 
Q 1250 -91 836 529 
Q 422 1150 422 2328 
Q 422 3509 836 4129 
Q 1250 4750 2034 4750 
z
" transform="scale(0.015625)"/>
        <path id="DejaVuSans-2e" d="M 684 794 
L 1344 794 
L 1344 0 
L 684 0 
L 684 794 
z
" transform="scale(0.015625)"/>
        <path id="DejaVuSans-36" d="M 2113 2584 
Q 1688 2584 1439 2293 
Q 1191 2003 1191 1497 
Q 1191 994 1439 701 
Q 1688 409 2113 409 
Q 2538 409 2786 701 
Q 3034 994 3034 1497 
Q 3034 2003 2786 2293 
Q 2538 2584 2113 2584 
z
M 3366 4563 
L 3366 3988 
Q 3128 4100 2886 4159 
Q 2644 4219 2406 4219 
Q 1781 4219 1451 3797 
Q 1122 3375 1075 2522 
Q 1259 2794 1537 2939 
Q 1816 3084 2150 3084 
Q 2853 3084 3261 2657 
Q 3669 2231 3669 1497 
Q 3669 778 3244 343 
Q 2819 -91 2113 -91 
Q 1303 -91 875 529 
Q 447 1150 447 2328 
Q 447 3434 972 4092 
Q 1497 4750 2381 4750 
Q 2619 4750 2861 4703 
Q 3103 4656 3366 4563 
z
" transform="scale(0.015625)"/>
       </defs>
       <use xlink:href="#DejaVuSans-30"/>
       <use xlink:href="#DejaVuSans-2e" x="63.623047"/>
       <use xlink:href="#DejaVuSans-36" x="95.410156"/>
      </g>
     </g>
    </g>
    <g id="ytick_2">
     <g id="line2d_2">
      <path d="M 198 182.304 
L 1425.6 182.304 
" clip-path="url(#p914bcbe9ed)" style="fill: none; stroke: #cccccc; stroke-linecap: round"/>
     </g>
     <g id="text_13">
      <!-- 0.8 -->
      <g style="fill: #262626" transform="translate(166.235625 187.622906)scale(0.14 -0.14)">
       <defs>
        <path id="DejaVuSans-38" d="M 2034 2216 
Q 1584 2216 1326 1975 
Q 1069 1734 1069 1313 
Q 1069 891 1326 650 
Q 1584 409 2034 409 
Q 2484 409 2743 651 
Q 3003 894 3003 1313 
Q 3003 1734 2745 1975 
Q 2488 2216 2034 2216 
z
M 1403 2484 
Q 997 2584 770 2862 
Q 544 3141 544 3541 
Q 544 4100 942 4425 
Q 1341 4750 2034 4750 
Q 2731 4750 3128 4425 
Q 3525 4100 3525 3541 
Q 3525 3141 3298 2862 
Q 3072 2584 2669 2484 
Q 3125 2378 3379 2068 
Q 3634 1759 3634 1313 
Q 3634 634 3220 271 
Q 2806 -91 2034 -91 
Q 1263 -91 848 271 
Q 434 634 434 1313 
Q 434 1759 690 2068 
Q 947 2378 1403 2484 
z
M 1172 3481 
Q 1172 3119 1398 2916 
Q 1625 2713 2034 2713 
Q 2441 2713 2670 2916 
Q 2900 3119 2900 3481 
Q 2900 3844 2670 4047 
Q 2441 4250 2034 4250 
Q 1625 4250 1398 4047 
Q 1172 3844 1172 3481 
z
" transform="scale(0.015625)"/>
       </defs>
       <use xlink:href="#DejaVuSans-30"/>
       <use xlink:href="#DejaVuSans-2e" x="63.623047"/>
       <use xlink:href="#DejaVuSans-38" x="95.410156"/>
      </g>
     </g>
    </g>
    <g id="ytick_3">
     <g id="line2d_3">
      <path d="M 198 51.84 
L 1425.6 51.84 
" clip-path="url(#p914bcbe9ed)" style="fill: none; stroke: #cccccc; stroke-linecap: round"/>
     </g>
     <g id="text_14">
      <!-- 1.0 -->
      <g style="fill: #262626" transform="translate(166.235625 57.158906)scale(0.14 -0.14)">
       <use xlink:href="#DejaVuSans-31"/>
       <use xlink:href="#DejaVuSans-2e" x="63.623047"/>
       <use xlink:href="#DejaVuSans-30" x="95.410156"/>
      </g>
     </g>
    </g>
    <g id="text_15">
     <!-- F-score -->
     <g style="fill: #262626" transform="translate(158.07625 251.145)rotate(-90)scale(0.2 -0.2)">
      <defs>
       <path id="DejaVuSans-46" d="M 628 4666 
L 3309 4666 
L 3309 4134 
L 1259 4134 
L 1259 2759 
L 3109 2759 
L 3109 2228 
L 1259 2228 
L 1259 0 
L 628 0 
L 628 4666 
z
" transform="scale(0.015625)"/>
       <path id="DejaVuSans-63" d="M 3122 3366 
L 3122 2828 
Q 2878 2963 2633 3030 
Q 2388 3097 2138 3097 
Q 1578 3097 1268 2742 
Q 959 2388 959 1747 
Q 959 1106 1268 751 
Q 1578 397 2138 397 
Q 2388 397 2633 464 
Q 2878 531 3122 666 
L 3122 134 
Q 2881 22 2623 -34 
Q 2366 -91 2075 -91 
Q 1284 -91 818 406 
Q 353 903 353 1747 
Q 353 2603 823 3093 
Q 1294 3584 2113 3584 
Q 2378 3584 2631 3529 
Q 2884 3475 3122 3366 
z
" transform="scale(0.015625)"/>
      </defs>
      <use xlink:href="#DejaVuSans-46"/>
      <use xlink:href="#DejaVuSans-2d" x="57.519531"/>
      <use xlink:href="#DejaVuSans-73" x="93.603516"/>
      <use xlink:href="#DejaVuSans-63" x="145.703125"/>
      <use xlink:href="#DejaVuSans-6f" x="200.683594"/>
      <use xlink:href="#DejaVuSans-72" x="261.865234"/>
      <use xlink:href="#DejaVuSans-65" x="300.728516"/>
     </g>
    </g>
   </g>
   <g id="PolyCollection_1">
    <path d="M 257.290701 704.16 
L 250.309299 704.16 
L 250.260278 697.570909 
L 250.226233 690.981818 
L 250.206546 684.392727 
L 250.200254 677.803636 
L 250.206065 671.214545 
L 250.2224 664.625455 
L 250.247422 658.036364 
L 250.279085 651.447273 
L 250.315183 644.858182 
L 250.353395 638.269091 
L 250.391342 631.68 
L 250.42663 625.090909 
L 250.456899 618.501818 
L 250.479865 611.912727 
L 250.493361 605.323636 
L 250.495371 598.734545 
L 250.484061 592.145455 
L 250.457804 585.556364 
L 250.415204 578.967273 
L 250.355116 572.378182 
L 250.27666 565.789091 
L 250.179234 559.2 
L 250.062526 552.610909 
L 249.926518 546.021818 
L 249.771491 539.432727 
L 249.598026 532.843636 
L 249.406995 526.254545 
L 249.199558 519.665455 
L 248.977142 513.076364 
L 248.741424 506.487273 
L 248.4943 499.898182 
L 248.237855 493.309091 
L 247.974322 486.72 
L 247.70603 480.130909 
L 247.435361 473.541818 
L 247.164688 466.952727 
L 246.89632 460.363636 
L 246.63244 453.774545 
L 246.375048 447.185455 
L 246.125903 440.596364 
L 245.886472 434.007273 
L 245.65788 427.418182 
L 245.440876 420.829091 
L 245.235798 414.24 
L 245.042554 407.650909 
L 244.860606 401.061818 
L 244.688978 394.472727 
L 244.526254 387.883636 
L 244.370608 381.294545 
L 244.219823 374.705455 
L 244.071334 368.116364 
L 243.922273 361.527273 
L 243.769517 354.938182 
L 243.609749 348.349091 
L 243.439521 341.76 
L 243.255321 335.170909 
L 243.053644 328.581818 
L 242.831064 321.992727 
L 242.584309 315.403636 
L 242.310339 308.814545 
L 242.006416 302.225455 
L 241.670182 295.636364 
L 241.299725 289.047273 
L 240.893647 282.458182 
L 240.451124 275.869091 
L 239.97196 269.28 
L 239.45663 262.690909 
L 238.906315 256.101818 
L 238.322927 249.512727 
L 237.709123 242.923636 
L 237.0683 236.334545 
L 236.404585 229.745455 
L 235.722809 223.156364 
L 235.028464 216.567273 
L 234.327656 209.978182 
L 233.627035 203.389091 
L 232.933727 196.8 
L 232.255241 190.210909 
L 231.599377 183.621818 
L 230.974123 177.032727 
L 230.387543 170.443636 
L 229.847657 163.854545 
L 229.362319 157.265455 
L 228.939093 150.676364 
L 228.585117 144.087273 
L 228.30698 137.498182 
L 228.110586 130.909091 
L 228.001035 124.32 
L 227.982503 117.730909 
L 228.058134 111.141818 
L 228.229943 104.552727 
L 228.498748 97.963636 
L 228.8641 91.374545 
L 229.324263 84.785455 
L 229.876199 78.196364 
L 230.515595 71.607273 
L 231.236914 65.018182 
L 232.033477 58.429091 
L 232.897578 51.84 
L 274.702422 51.84 
L 274.702422 51.84 
L 275.566523 58.429091 
L 276.363086 65.018182 
L 277.084405 71.607273 
L 277.723801 78.196364 
L 278.275737 84.785455 
L 278.7359 91.374545 
L 279.101252 97.963636 
L 279.370057 104.552727 
L 279.541866 111.141818 
L 279.617497 117.730909 
L 279.598965 124.32 
L 279.489414 130.909091 
L 279.29302 137.498182 
L 279.014883 144.087273 
L 278.660907 150.676364 
L 278.237681 157.265455 
L 277.752343 163.854545 
L 277.212457 170.443636 
L 276.625877 177.032727 
L 276.000623 183.621818 
L 275.344759 190.210909 
L 274.666273 196.8 
L 273.972965 203.389091 
L 273.272344 209.978182 
L 272.571536 216.567273 
L 271.877191 223.156364 
L 271.195415 229.745455 
L 270.5317 236.334545 
L 269.890877 242.923636 
L 269.277073 249.512727 
L 268.693685 256.101818 
L 268.14337 262.690909 
L 267.62804 269.28 
L 267.148876 275.869091 
L 266.706353 282.458182 
L 266.300275 289.047273 
L 265.929818 295.636364 
L 265.593584 302.225455 
L 265.289661 308.814545 
L 265.015691 315.403636 
L 264.768936 321.992727 
L 264.546356 328.581818 
L 264.344679 335.170909 
L 264.160479 341.76 
L 263.990251 348.349091 
L 263.830483 354.938182 
L 263.677727 361.527273 
L 263.528666 368.116364 
L 263.380177 374.705455 
L 263.229392 381.294545 
L 263.073746 387.883636 
L 262.911022 394.472727 
L 262.739394 401.061818 
L 262.557446 407.650909 
L 262.364202 414.24 
L 262.159124 420.829091 
L 261.94212 427.418182 
L 261.713528 434.007273 
L 261.474097 440.596364 
L 261.224952 447.185455 
L 260.96756 453.774545 
L 260.70368 460.363636 
L 260.435312 466.952727 
L 260.164639 473.541818 
L 259.89397 480.130909 
L 259.625678 486.72 
L 259.362145 493.309091 
L 259.1057 499.898182 
L 258.858576 506.487273 
L 258.622858 513.076364 
L 258.400442 519.665455 
L 258.193005 526.254545 
L 258.001974 532.843636 
L 257.828509 539.432727 
L 257.673482 546.021818 
L 257.537474 552.610909 
L 257.420766 559.2 
L 257.32334 565.789091 
L 257.244884 572.378182 
L 257.184796 578.967273 
L 257.142196 585.556364 
L 257.115939 592.145455 
L 257.104629 598.734545 
L 257.106639 605.323636 
L 257.120135 611.912727 
L 257.143101 618.501818 
L 257.17337 625.090909 
L 257.208658 631.68 
L 257.246605 638.269091 
L 257.284817 644.858182 
L 257.320915 651.447273 
L 257.352578 658.036364 
L 257.3776 664.625455 
L 257.393935 671.214545 
L 257.399746 677.803636 
L 257.393454 684.392727 
L 257.373767 690.981818 
L 257.339722 697.570909 
L 257.290701 704.16 
z
" clip-path="url(#p914bcbe9ed)" style="fill: #d3d3d3; stroke: #7f7f7f; stroke-width: 3"/>
   </g>
   <g id="PolyCollection_2">
    <path d="M 367.38094 704.16 
L 363.41906 704.16 
L 363.281244 697.570909 
L 363.145486 690.981818 
L 363.013302 684.392727 
L 362.886315 677.803636 
L 362.766228 671.214545 
L 362.6548 664.625455 
L 362.55379 658.036364 
L 362.464905 651.447273 
L 362.389724 644.858182 
L 362.329618 638.269091 
L 362.285669 631.68 
L 362.25858 625.090909 
L 362.248605 618.501818 
L 362.255484 611.912727 
L 362.278397 605.323636 
L 362.315953 598.734545 
L 362.366192 592.145455 
L 362.426627 585.556364 
L 362.494317 578.967273 
L 362.565958 572.378182 
L 362.638 565.789091 
L 362.706781 559.2 
L 362.768661 552.610909 
L 362.820157 546.021818 
L 362.858065 539.432727 
L 362.879562 532.843636 
L 362.882271 526.254545 
L 362.864306 519.665455 
L 362.824268 513.076364 
L 362.76121 506.487273 
L 362.674568 499.898182 
L 362.564061 493.309091 
L 362.429572 486.72 
L 362.271018 480.130909 
L 362.088224 473.541818 
L 361.880804 466.952727 
L 361.648074 460.363636 
L 361.388989 453.774545 
L 361.102128 447.185455 
L 360.785721 440.596364 
L 360.437722 434.007273 
L 360.055927 427.418182 
L 359.638126 420.829091 
L 359.182287 414.24 
L 358.686753 407.650909 
L 358.150437 401.061818 
L 357.573016 394.472727 
L 356.955085 387.883636 
L 356.298282 381.294545 
L 355.605362 374.705455 
L 354.880212 368.116364 
L 354.127814 361.527273 
L 353.354143 354.938182 
L 352.566011 348.349091 
L 351.770866 341.76 
L 350.976544 335.170909 
L 350.191002 328.581818 
L 349.422024 321.992727 
L 348.676933 315.403636 
L 347.962303 308.814545 
L 347.283696 302.225455 
L 346.645434 295.636364 
L 346.050402 289.047273 
L 345.499921 282.458182 
L 344.993666 275.869091 
L 344.529665 269.28 
L 344.104363 262.690909 
L 343.712769 256.101818 
L 343.34868 249.512727 
L 343.00498 242.923636 
L 342.674005 236.334545 
L 342.347973 229.745455 
L 342.019446 223.156364 
L 341.681816 216.567273 
L 341.329791 209.978182 
L 340.959848 203.389091 
L 340.57063 196.8 
L 340.163255 190.210909 
L 339.741521 183.621818 
L 339.311975 177.032727 
L 338.883849 170.443636 
L 338.468835 163.854545 
L 338.080728 157.265455 
L 337.734931 150.676364 
L 337.447842 144.087273 
L 337.236173 137.498182 
L 337.116206 130.909091 
L 337.103047 124.32 
L 337.209912 117.730909 
L 337.447476 111.141818 
L 337.823328 104.552727 
L 338.341563 97.963636 
L 339.002521 91.374545 
L 339.802703 84.785455 
L 340.734845 78.196364 
L 341.788164 71.607273 
L 342.948749 65.018182 
L 344.200077 58.429091 
L 345.52362 51.84 
L 385.27638 51.84 
L 385.27638 51.84 
L 386.599923 58.429091 
L 387.851251 65.018182 
L 389.011836 71.607273 
L 390.065155 78.196364 
L 390.997297 84.785455 
L 391.797479 91.374545 
L 392.458437 97.963636 
L 392.976672 104.552727 
L 393.352524 111.141818 
L 393.590088 117.730909 
L 393.696953 124.32 
L 393.683794 130.909091 
L 393.563827 137.498182 
L 393.352158 144.087273 
L 393.065069 150.676364 
L 392.719272 157.265455 
L 392.331165 163.854545 
L 391.916151 170.443636 
L 391.488025 177.032727 
L 391.058479 183.621818 
L 390.636745 190.210909 
L 390.22937 196.8 
L 389.840152 203.389091 
L 389.470209 209.978182 
L 389.118184 216.567273 
L 388.780554 223.156364 
L 388.452027 229.745455 
L 388.125995 236.334545 
L 387.79502 242.923636 
L 387.45132 249.512727 
L 387.087231 256.101818 
L 386.695637 262.690909 
L 386.270335 269.28 
L 385.806334 275.869091 
L 385.300079 282.458182 
L 384.749598 289.047273 
L 384.154566 295.636364 
L 383.516304 302.225455 
L 382.837697 308.814545 
L 382.123067 315.403636 
L 381.377976 321.992727 
L 380.608998 328.581818 
L 379.823456 335.170909 
L 379.029134 341.76 
L 378.233989 348.349091 
L 377.445857 354.938182 
L 376.672186 361.527273 
L 375.919788 368.116364 
L 375.194638 374.705455 
L 374.501718 381.294545 
L 373.844915 387.883636 
L 373.226984 394.472727 
L 372.649563 401.061818 
L 372.113247 407.650909 
L 371.617713 414.24 
L 371.161874 420.829091 
L 370.744073 427.418182 
L 370.362278 434.007273 
L 370.014279 440.596364 
L 369.697872 447.185455 
L 369.411011 453.774545 
L 369.151926 460.363636 
L 368.919196 466.952727 
L 368.711776 473.541818 
L 368.528982 480.130909 
L 368.370428 486.72 
L 368.235939 493.309091 
L 368.125432 499.898182 
L 368.03879 506.487273 
L 367.975732 513.076364 
L 367.935694 519.665455 
L 367.917729 526.254545 
L 367.920438 532.843636 
L 367.941935 539.432727 
L 367.979843 546.021818 
L 368.031339 552.610909 
L 368.093219 559.2 
L 368.162 565.789091 
L 368.234042 572.378182 
L 368.305683 578.967273 
L 368.373373 585.556364 
L 368.433808 592.145455 
L 368.484047 598.734545 
L 368.521603 605.323636 
L 368.544516 611.912727 
L 368.551395 618.501818 
L 368.54142 625.090909 
L 368.514331 631.68 
L 368.470382 638.269091 
L 368.410276 644.858182 
L 368.335095 651.447273 
L 368.24621 658.036364 
L 368.1452 664.625455 
L 368.033772 671.214545 
L 367.913685 677.803636 
L 367.786698 684.392727 
L 367.654514 690.981818 
L 367.518756 697.570909 
L 367.38094 704.16 
z
" clip-path="url(#p914bcbe9ed)" style="fill: #d3d3d3; stroke: #7f7f7f; stroke-width: 3"/>
   </g>
   <g id="PolyCollection_3">
    <path d="M 479.828472 704.16 
L 474.171528 704.16 
L 474.110239 697.570909 
L 474.058262 690.981818 
L 474.014839 684.392727 
L 473.978921 677.803636 
L 473.949199 671.214545 
L 473.924143 664.625455 
L 473.902036 658.036364 
L 473.881029 651.447273 
L 473.859186 644.858182 
L 473.834532 638.269091 
L 473.805103 631.68 
L 473.768988 625.090909 
L 473.72437 618.501818 
L 473.669554 611.912727 
L 473.602996 605.323636 
L 473.523323 598.734545 
L 473.429342 592.145455 
L 473.320049 585.556364 
L 473.19463 578.967273 
L 473.052458 572.378182 
L 472.893094 565.789091 
L 472.716276 559.2 
L 472.52192 552.610909 
L 472.310116 546.021818 
L 472.081128 539.432727 
L 471.835399 532.843636 
L 471.573556 526.254545 
L 471.296417 519.665455 
L 471.005005 513.076364 
L 470.700553 506.487273 
L 470.384513 499.898182 
L 470.058563 493.309091 
L 469.724603 486.72 
L 469.384748 480.130909 
L 469.041309 473.541818 
L 468.696767 466.952727 
L 468.353735 460.363636 
L 468.014906 453.774545 
L 467.682998 447.185455 
L 467.360683 440.596364 
L 467.05051 434.007273 
L 466.754829 427.418182 
L 466.475711 420.829091 
L 466.214865 414.24 
L 465.973568 407.650909 
L 465.752601 401.061818 
L 465.552197 394.472727 
L 465.372007 387.883636 
L 465.211077 381.294545 
L 465.067853 374.705455 
L 464.940198 368.116364 
L 464.825435 361.527273 
L 464.720402 354.938182 
L 464.62153 348.349091 
L 464.524934 341.76 
L 464.426514 335.170909 
L 464.322064 328.581818 
L 464.207387 321.992727 
L 464.078409 315.403636 
L 463.931289 308.814545 
L 463.762522 302.225455 
L 463.569032 295.636364 
L 463.348248 289.047273 
L 463.098172 282.458182 
L 462.817419 275.869091 
L 462.505254 269.28 
L 462.161598 262.690909 
L 461.787032 256.101818 
L 461.382777 249.512727 
L 460.950671 242.923636 
L 460.493133 236.334545 
L 460.013124 229.745455 
L 459.51411 223.156364 
L 459.000017 216.567273 
L 458.475199 209.978182 
L 457.944403 203.389091 
L 457.412738 196.8 
L 456.885651 190.210909 
L 456.368903 183.621818 
L 455.868543 177.032727 
L 455.390878 170.443636 
L 454.94243 163.854545 
L 454.529894 157.265455 
L 454.160063 150.676364 
L 453.839749 144.087273 
L 453.575678 137.498182 
L 453.374367 130.909091 
L 453.241983 124.32 
L 453.184189 117.730909 
L 453.205979 111.141818 
L 453.31151 104.552727 
L 453.50394 97.963636 
L 453.785277 91.374545 
L 454.156254 84.785455 
L 454.616225 78.196364 
L 455.163103 71.607273 
L 455.793343 65.018182 
L 456.501961 58.429091 
L 457.282611 51.84 
L 496.717389 51.84 
L 496.717389 51.84 
L 497.498039 58.429091 
L 498.206657 65.018182 
L 498.836897 71.607273 
L 499.383775 78.196364 
L 499.843746 84.785455 
L 500.214723 91.374545 
L 500.49606 97.963636 
L 500.68849 104.552727 
L 500.794021 111.141818 
L 500.815811 117.730909 
L 500.758017 124.32 
L 500.625633 130.909091 
L 500.424322 137.498182 
L 500.160251 144.087273 
L 499.839937 150.676364 
L 499.470106 157.265455 
L 499.05757 163.854545 
L 498.609122 170.443636 
L 498.131457 177.032727 
L 497.631097 183.621818 
L 497.114349 190.210909 
L 496.587262 196.8 
L 496.055597 203.389091 
L 495.524801 209.978182 
L 494.999983 216.567273 
L 494.48589 223.156364 
L 493.986876 229.745455 
L 493.506867 236.334545 
L 493.049329 242.923636 
L 492.617223 249.512727 
L 492.212968 256.101818 
L 491.838402 262.690909 
L 491.494746 269.28 
L 491.182581 275.869091 
L 490.901828 282.458182 
L 490.651752 289.047273 
L 490.430968 295.636364 
L 490.237478 302.225455 
L 490.068711 308.814545 
L 489.921591 315.403636 
L 489.792613 321.992727 
L 489.677936 328.581818 
L 489.573486 335.170909 
L 489.475066 341.76 
L 489.37847 348.349091 
L 489.279598 354.938182 
L 489.174565 361.527273 
L 489.059802 368.116364 
L 488.932147 374.705455 
L 488.788923 381.294545 
L 488.627993 387.883636 
L 488.447803 394.472727 
L 488.247399 401.061818 
L 488.026432 407.650909 
L 487.785135 414.24 
L 487.524289 420.829091 
L 487.245171 427.418182 
L 486.94949 434.007273 
L 486.639317 440.596364 
L 486.317002 447.185455 
L 485.985094 453.774545 
L 485.646265 460.363636 
L 485.303233 466.952727 
L 484.958691 473.541818 
L 484.615252 480.130909 
L 484.275397 486.72 
L 483.941437 493.309091 
L 483.615487 499.898182 
L 483.299447 506.487273 
L 482.994995 513.076364 
L 482.703583 519.665455 
L 482.426444 526.254545 
L 482.164601 532.843636 
L 481.918872 539.432727 
L 481.689884 546.021818 
L 481.47808 552.610909 
L 481.283724 559.2 
L 481.106906 565.789091 
L 480.947542 572.378182 
L 480.80537 578.967273 
L 480.679951 585.556364 
L 480.570658 592.145455 
L 480.476677 598.734545 
L 480.397004 605.323636 
L 480.330446 611.912727 
L 480.27563 618.501818 
L 480.231012 625.090909 
L 480.194897 631.68 
L 480.165468 638.269091 
L 480.140814 644.858182 
L 480.118971 651.447273 
L 480.097964 658.036364 
L 480.075857 664.625455 
L 480.050801 671.214545 
L 480.021079 677.803636 
L 479.985161 684.392727 
L 479.941738 690.981818 
L 479.889761 697.570909 
L 479.828472 704.16 
z
" clip-path="url(#p914bcbe9ed)" style="fill: #d3d3d3; stroke: #7f7f7f; stroke-width: 3"/>
   </g>
   <g id="PolyCollection_4">
    <path d="M 591.557036 704.16 
L 585.642964 704.16 
L 585.554827 697.570909 
L 585.471989 690.981818 
L 585.393486 684.392727 
L 585.318143 677.803636 
L 585.244615 671.214545 
L 585.171454 664.625455 
L 585.097167 658.036364 
L 585.020285 651.447273 
L 584.939436 644.858182 
L 584.853406 638.269091 
L 584.761206 631.68 
L 584.662117 625.090909 
L 584.555739 618.501818 
L 584.442012 611.912727 
L 584.321227 605.323636 
L 584.194026 598.734545 
L 584.061376 592.145455 
L 583.924533 585.556364 
L 583.784988 578.967273 
L 583.644407 572.378182 
L 583.504549 565.789091 
L 583.367193 559.2 
L 583.234048 552.610909 
L 583.106673 546.021818 
L 582.986401 539.432727 
L 582.874264 532.843636 
L 582.770943 526.254545 
L 582.676716 519.665455 
L 582.591439 513.076364 
L 582.51453 506.487273 
L 582.444979 499.898182 
L 582.381373 493.309091 
L 582.321935 486.72 
L 582.264578 480.130909 
L 582.206966 473.541818 
L 582.146589 466.952727 
L 582.080833 460.363636 
L 582.007056 453.774545 
L 581.922657 447.185455 
L 581.825145 440.596364 
L 581.712194 434.007273 
L 581.581686 427.418182 
L 581.431753 420.829091 
L 581.260798 414.24 
L 581.06751 407.650909 
L 580.850867 401.061818 
L 580.610138 394.472727 
L 580.344868 387.883636 
L 580.054868 381.294545 
L 579.740201 374.705455 
L 579.401162 368.116364 
L 579.038272 361.527273 
L 578.652256 354.938182 
L 578.244042 348.349091 
L 577.814745 341.76 
L 577.365667 335.170909 
L 576.898287 328.581818 
L 576.414254 321.992727 
L 575.91538 315.403636 
L 575.403622 308.814545 
L 574.881067 302.225455 
L 574.349908 295.636364 
L 573.812414 289.047273 
L 573.2709 282.458182 
L 572.727682 275.869091 
L 572.185049 269.28 
L 571.645219 262.690909 
L 571.110307 256.101818 
L 570.582303 249.512727 
L 570.063051 242.923636 
L 569.554248 236.334545 
L 569.057457 229.745455 
L 568.574134 223.156364 
L 568.105669 216.567273 
L 567.653444 209.978182 
L 567.218905 203.389091 
L 566.803637 196.8 
L 566.409442 190.210909 
L 566.038421 183.621818 
L 565.693041 177.032727 
L 565.376186 170.443636 
L 565.091191 163.854545 
L 564.841848 157.265455 
L 564.632375 150.676364 
L 564.467364 144.087273 
L 564.351681 137.498182 
L 564.290344 130.909091 
L 564.28837 124.32 
L 564.350593 117.730909 
L 564.481478 111.141818 
L 564.684914 104.552727 
L 564.964021 97.963636 
L 565.320967 91.374545 
L 565.756803 84.785455 
L 566.271336 78.196364 
L 566.86304 71.607273 
L 567.529009 65.018182 
L 568.264959 58.429091 
L 569.06529 51.84 
L 608.13471 51.84 
L 608.13471 51.84 
L 608.935041 58.429091 
L 609.670991 65.018182 
L 610.33696 71.607273 
L 610.928664 78.196364 
L 611.443197 84.785455 
L 611.879033 91.374545 
L 612.235979 97.963636 
L 612.515086 104.552727 
L 612.718522 111.141818 
L 612.849407 117.730909 
L 612.91163 124.32 
L 612.909656 130.909091 
L 612.848319 137.498182 
L 612.732636 144.087273 
L 612.567625 150.676364 
L 612.358152 157.265455 
L 612.108809 163.854545 
L 611.823814 170.443636 
L 611.506959 177.032727 
L 611.161579 183.621818 
L 610.790558 190.210909 
L 610.396363 196.8 
L 609.981095 203.389091 
L 609.546556 209.978182 
L 609.094331 216.567273 
L 608.625866 223.156364 
L 608.142543 229.745455 
L 607.645752 236.334545 
L 607.136949 242.923636 
L 606.617697 249.512727 
L 606.089693 256.101818 
L 605.554781 262.690909 
L 605.014951 269.28 
L 604.472318 275.869091 
L 603.9291 282.458182 
L 603.387586 289.047273 
L 602.850092 295.636364 
L 602.318933 302.225455 
L 601.796378 308.814545 
L 601.28462 315.403636 
L 600.785746 321.992727 
L 600.301713 328.581818 
L 599.834333 335.170909 
L 599.385255 341.76 
L 598.955958 348.349091 
L 598.547744 354.938182 
L 598.161728 361.527273 
L 597.798838 368.116364 
L 597.459799 374.705455 
L 597.145132 381.294545 
L 596.855132 387.883636 
L 596.589862 394.472727 
L 596.349133 401.061818 
L 596.13249 407.650909 
L 595.939202 414.24 
L 595.768247 420.829091 
L 595.618314 427.418182 
L 595.487806 434.007273 
L 595.374855 440.596364 
L 595.277343 447.185455 
L 595.192944 453.774545 
L 595.119167 460.363636 
L 595.053411 466.952727 
L 594.993034 473.541818 
L 594.935422 480.130909 
L 594.878065 486.72 
L 594.818627 493.309091 
L 594.755021 499.898182 
L 594.68547 506.487273 
L 594.608561 513.076364 
L 594.523284 519.665455 
L 594.429057 526.254545 
L 594.325736 532.843636 
L 594.213599 539.432727 
L 594.093327 546.021818 
L 593.965952 552.610909 
L 593.832807 559.2 
L 593.695451 565.789091 
L 593.555593 572.378182 
L 593.415012 578.967273 
L 593.275467 585.556364 
L 593.138624 592.145455 
L 593.005974 598.734545 
L 592.878773 605.323636 
L 592.757988 611.912727 
L 592.644261 618.501818 
L 592.537883 625.090909 
L 592.438794 631.68 
L 592.346594 638.269091 
L 592.260564 644.858182 
L 592.179715 651.447273 
L 592.102833 658.036364 
L 592.028546 664.625455 
L 591.955385 671.214545 
L 591.881857 677.803636 
L 591.806514 684.392727 
L 591.728011 690.981818 
L 591.645173 697.570909 
L 591.557036 704.16 
z
" clip-path="url(#p914bcbe9ed)" style="fill: #d3d3d3; stroke: #7f7f7f; stroke-width: 3"/>
   </g>
   <g id="PolyCollection_5">
    <path d="M 703.691008 704.16 
L 696.708992 704.16 
L 696.64839 697.570909 
L 696.599901 690.981818 
L 696.562635 684.392727 
L 696.535407 677.803636 
L 696.516777 671.214545 
L 696.505098 664.625455 
L 696.49858 658.036364 
L 696.495347 651.447273 
L 696.4935 644.858182 
L 696.491179 638.269091 
L 696.486616 631.68 
L 696.478187 625.090909 
L 696.46445 618.501818 
L 696.444175 611.912727 
L 696.416363 605.323636 
L 696.380252 598.734545 
L 696.33531 592.145455 
L 696.281227 585.556364 
L 696.217888 578.967273 
L 696.145345 572.378182 
L 696.063784 565.789091 
L 695.973486 559.2 
L 695.874799 552.610909 
L 695.768098 546.021818 
L 695.653758 539.432727 
L 695.532131 532.843636 
L 695.403528 526.254545 
L 695.268205 519.665455 
L 695.126364 513.076364 
L 694.978148 506.487273 
L 694.823652 499.898182 
L 694.66293 493.309091 
L 694.496007 486.72 
L 694.322893 480.130909 
L 694.143592 473.541818 
L 693.958112 466.952727 
L 693.766467 460.363636 
L 693.568686 453.774545 
L 693.364801 447.185455 
L 693.154844 440.596364 
L 692.938834 434.007273 
L 692.716765 427.418182 
L 692.488589 420.829091 
L 692.254197 414.24 
L 692.01341 407.650909 
L 691.765964 401.061818 
L 691.5115 394.472727 
L 691.249567 387.883636 
L 690.97962 381.294545 
L 690.701029 374.705455 
L 690.413096 368.116364 
L 690.115074 361.527273 
L 689.806189 354.938182 
L 689.485668 348.349091 
L 689.152769 341.76 
L 688.806807 335.170909 
L 688.447184 328.581818 
L 688.073412 321.992727 
L 687.685133 315.403636 
L 687.282138 308.814545 
L 686.864378 302.225455 
L 686.431973 295.636364 
L 685.985216 289.047273 
L 685.524575 282.458182 
L 685.050694 275.869091 
L 684.564393 269.28 
L 684.066673 262.690909 
L 683.558718 256.101818 
L 683.041909 249.512727 
L 682.517836 242.923636 
L 681.988319 236.334545 
L 681.455435 229.745455 
L 680.921543 223.156364 
L 680.389319 216.567273 
L 679.861785 209.978182 
L 679.342337 203.389091 
L 678.83477 196.8 
L 678.343287 190.210909 
L 677.8725 183.621818 
L 677.427416 177.032727 
L 677.013399 170.443636 
L 676.636121 163.854545 
L 676.301477 157.265455 
L 676.015496 150.676364 
L 675.784216 144.087273 
L 675.613551 137.498182 
L 675.50914 130.909091 
L 675.476186 124.32 
L 675.519294 117.730909 
L 675.642306 111.141818 
L 675.848153 104.552727 
L 676.138716 97.963636 
L 676.51471 91.374545 
L 676.975602 84.785455 
L 677.519557 78.196364 
L 678.143421 71.607273 
L 678.842744 65.018182 
L 679.611844 58.429091 
L 680.443905 51.84 
L 719.956095 51.84 
L 719.956095 51.84 
L 720.788156 58.429091 
L 721.557256 65.018182 
L 722.256579 71.607273 
L 722.880443 78.196364 
L 723.424398 84.785455 
L 723.88529 91.374545 
L 724.261284 97.963636 
L 724.551847 104.552727 
L 724.757694 111.141818 
L 724.880706 117.730909 
L 724.923814 124.32 
L 724.89086 130.909091 
L 724.786449 137.498182 
L 724.615784 144.087273 
L 724.384504 150.676364 
L 724.098523 157.265455 
L 723.763879 163.854545 
L 723.386601 170.443636 
L 722.972584 177.032727 
L 722.5275 183.621818 
L 722.056713 190.210909 
L 721.56523 196.8 
L 721.057663 203.389091 
L 720.538215 209.978182 
L 720.010681 216.567273 
L 719.478457 223.156364 
L 718.944565 229.745455 
L 718.411681 236.334545 
L 717.882164 242.923636 
L 717.358091 249.512727 
L 716.841282 256.101818 
L 716.333327 262.690909 
L 715.835607 269.28 
L 715.349306 275.869091 
L 714.875425 282.458182 
L 714.414784 289.047273 
L 713.968027 295.636364 
L 713.535622 302.225455 
L 713.117862 308.814545 
L 712.714867 315.403636 
L 712.326588 321.992727 
L 711.952816 328.581818 
L 711.593193 335.170909 
L 711.247231 341.76 
L 710.914332 348.349091 
L 710.593811 354.938182 
L 710.284926 361.527273 
L 709.986904 368.116364 
L 709.698971 374.705455 
L 709.42038 381.294545 
L 709.150433 387.883636 
L 708.8885 394.472727 
L 708.634036 401.061818 
L 708.38659 407.650909 
L 708.145803 414.24 
L 707.911411 420.829091 
L 707.683235 427.418182 
L 707.461166 434.007273 
L 707.245156 440.596364 
L 707.035199 447.185455 
L 706.831314 453.774545 
L 706.633533 460.363636 
L 706.441888 466.952727 
L 706.256408 473.541818 
L 706.077107 480.130909 
L 705.903993 486.72 
L 705.73707 493.309091 
L 705.576348 499.898182 
L 705.421852 506.487273 
L 705.273636 513.076364 
L 705.131795 519.665455 
L 704.996472 526.254545 
L 704.867869 532.843636 
L 704.746242 539.432727 
L 704.631902 546.021818 
L 704.525201 552.610909 
L 704.426514 559.2 
L 704.336216 565.789091 
L 704.254655 572.378182 
L 704.182112 578.967273 
L 704.118773 585.556364 
L 704.06469 592.145455 
L 704.019748 598.734545 
L 703.983637 605.323636 
L 703.955825 611.912727 
L 703.93555 618.501818 
L 703.921813 625.090909 
L 703.913384 631.68 
L 703.908821 638.269091 
L 703.9065 644.858182 
L 703.904653 651.447273 
L 703.90142 658.036364 
L 703.894902 664.625455 
L 703.883223 671.214545 
L 703.864593 677.803636 
L 703.837365 684.392727 
L 703.800099 690.981818 
L 703.75161 697.570909 
L 703.691008 704.16 
z
" clip-path="url(#p914bcbe9ed)" style="fill: #d3d3d3; stroke: #7f7f7f; stroke-width: 3"/>
   </g>
   <g id="PolyCollection_6">
    <path d="M 813.32261 704.16 
L 810.27739 704.16 
L 810.183697 697.570909 
L 810.089827 690.981818 
L 809.996068 684.392727 
L 809.90274 677.803636 
L 809.810206 671.214545 
L 809.718883 664.625455 
L 809.629234 658.036364 
L 809.541763 651.447273 
L 809.45699 644.858182 
L 809.37543 638.269091 
L 809.297546 631.68 
L 809.223713 625.090909 
L 809.154165 618.501818 
L 809.088948 611.912727 
L 809.027872 605.323636 
L 808.970475 598.734545 
L 808.915984 592.145455 
L 808.863308 585.556364 
L 808.811024 578.967273 
L 808.757404 572.378182 
L 808.700436 565.789091 
L 808.637883 559.2 
L 808.567351 552.610909 
L 808.486365 546.021818 
L 808.392479 539.432727 
L 808.283372 532.843636 
L 808.156966 526.254545 
L 808.011544 519.665455 
L 807.845854 513.076364 
L 807.659221 506.487273 
L 807.451628 499.898182 
L 807.22379 493.309091 
L 806.977198 486.72 
L 806.714131 480.130909 
L 806.437636 473.541818 
L 806.151476 466.952727 
L 805.860029 460.363636 
L 805.568156 453.774545 
L 805.281033 447.185455 
L 805.003949 440.596364 
L 804.742082 434.007273 
L 804.500256 427.418182 
L 804.282695 420.829091 
L 804.092788 414.24 
L 803.932865 407.650909 
L 803.804013 401.061818 
L 803.705933 394.472727 
L 803.636852 387.883636 
L 803.593493 381.294545 
L 803.571116 374.705455 
L 803.563626 368.116364 
L 803.563737 361.527273 
L 803.563205 354.938182 
L 803.553099 348.349091 
L 803.524113 341.76 
L 803.46689 335.170909 
L 803.372362 328.581818 
L 803.232063 321.992727 
L 803.038421 315.403636 
L 802.785014 308.814545 
L 802.466759 302.225455 
L 802.080058 295.636364 
L 801.622863 289.047273 
L 801.09469 282.458182 
L 800.496564 275.869091 
L 799.830918 269.28 
L 799.101436 262.690909 
L 798.312878 256.101818 
L 797.47088 249.512727 
L 796.581745 242.923636 
L 795.652254 236.334545 
L 794.68949 229.745455 
L 793.700696 223.156364 
L 792.693176 216.567273 
L 791.674238 209.978182 
L 790.651179 203.389091 
L 789.631324 196.8 
L 788.622089 190.210909 
L 787.63108 183.621818 
L 786.666209 177.032727 
L 785.7358 170.443636 
L 784.848696 163.854545 
L 784.014316 157.265455 
L 783.242686 150.676364 
L 782.54439 144.087273 
L 781.930472 137.498182 
L 781.412244 130.909091 
L 781.001033 124.32 
L 780.707857 117.730909 
L 780.543037 111.141818 
L 780.515779 104.552727 
L 780.633732 97.963636 
L 780.902556 91.374545 
L 781.325527 84.785455 
L 781.903202 78.196364 
L 782.633174 71.607273 
L 783.509937 65.018182 
L 784.524869 58.429091 
L 785.666351 51.84 
L 837.933649 51.84 
L 837.933649 51.84 
L 839.075131 58.429091 
L 840.090063 65.018182 
L 840.966826 71.607273 
L 841.696798 78.196364 
L 842.274473 84.785455 
L 842.697444 91.374545 
L 842.966268 97.963636 
L 843.084221 104.552727 
L 843.056963 111.141818 
L 842.892143 117.730909 
L 842.598967 124.32 
L 842.187756 130.909091 
L 841.669528 137.498182 
L 841.05561 144.087273 
L 840.357314 150.676364 
L 839.585684 157.265455 
L 838.751304 163.854545 
L 837.8642 170.443636 
L 836.933791 177.032727 
L 835.96892 183.621818 
L 834.977911 190.210909 
L 833.968676 196.8 
L 832.948821 203.389091 
L 831.925762 209.978182 
L 830.906824 216.567273 
L 829.899304 223.156364 
L 828.91051 229.745455 
L 827.947746 236.334545 
L 827.018255 242.923636 
L 826.12912 249.512727 
L 825.287122 256.101818 
L 824.498564 262.690909 
L 823.769082 269.28 
L 823.103436 275.869091 
L 822.50531 282.458182 
L 821.977137 289.047273 
L 821.519942 295.636364 
L 821.133241 302.225455 
L 820.814986 308.814545 
L 820.561579 315.403636 
L 820.367937 321.992727 
L 820.227638 328.581818 
L 820.13311 335.170909 
L 820.075887 341.76 
L 820.046901 348.349091 
L 820.036795 354.938182 
L 820.036263 361.527273 
L 820.036374 368.116364 
L 820.028884 374.705455 
L 820.006507 381.294545 
L 819.963148 387.883636 
L 819.894067 394.472727 
L 819.795987 401.061818 
L 819.667135 407.650909 
L 819.507212 414.24 
L 819.317305 420.829091 
L 819.099744 427.418182 
L 818.857918 434.007273 
L 818.596051 440.596364 
L 818.318967 447.185455 
L 818.031844 453.774545 
L 817.739971 460.363636 
L 817.448524 466.952727 
L 817.162364 473.541818 
L 816.885869 480.130909 
L 816.622802 486.72 
L 816.37621 493.309091 
L 816.148372 499.898182 
L 815.940779 506.487273 
L 815.754146 513.076364 
L 815.588456 519.665455 
L 815.443034 526.254545 
L 815.316628 532.843636 
L 815.207521 539.432727 
L 815.113635 546.021818 
L 815.032649 552.610909 
L 814.962117 559.2 
L 814.899564 565.789091 
L 814.842596 572.378182 
L 814.788976 578.967273 
L 814.736692 585.556364 
L 814.684016 592.145455 
L 814.629525 598.734545 
L 814.572128 605.323636 
L 814.511052 611.912727 
L 814.445835 618.501818 
L 814.376287 625.090909 
L 814.302454 631.68 
L 814.22457 638.269091 
L 814.14301 644.858182 
L 814.058237 651.447273 
L 813.970766 658.036364 
L 813.881117 664.625455 
L 813.789794 671.214545 
L 813.69726 677.803636 
L 813.603932 684.392727 
L 813.510173 690.981818 
L 813.416303 697.570909 
L 813.32261 704.16 
z
" clip-path="url(#p914bcbe9ed)" style="fill: #d3d3d3; stroke: #7f7f7f; stroke-width: 3"/>
   </g>
   <g id="PolyCollection_7">
    <path d="M 924.654637 704.16 
L 922.145363 704.16 
L 922.099905 697.570909 
L 922.059583 690.981818 
L 922.024139 684.392727 
L 921.993157 677.803636 
L 921.966097 671.214545 
L 921.942329 664.625455 
L 921.921165 658.036364 
L 921.901888 651.447273 
L 921.88377 644.858182 
L 921.866083 638.269091 
L 921.848101 631.68 
L 921.829094 625.090909 
L 921.80832 618.501818 
L 921.785013 611.912727 
L 921.75837 605.323636 
L 921.727546 598.734545 
L 921.691651 592.145455 
L 921.649758 585.556364 
L 921.600907 578.967273 
L 921.54412 572.378182 
L 921.478418 565.789091 
L 921.40283 559.2 
L 921.316404 552.610909 
L 921.218208 546.021818 
L 921.107324 539.432727 
L 920.982847 532.843636 
L 920.843867 526.254545 
L 920.689466 519.665455 
L 920.518719 513.076364 
L 920.330706 506.487273 
L 920.124545 499.898182 
L 919.899446 493.309091 
L 919.654787 486.72 
L 919.390206 480.130909 
L 919.105711 473.541818 
L 918.801793 466.952727 
L 918.479533 460.363636 
L 918.140688 453.774545 
L 917.78775 447.185455 
L 917.423953 440.596364 
L 917.053238 434.007273 
L 916.680151 427.418182 
L 916.309684 420.829091 
L 915.947065 414.24 
L 915.597495 407.650909 
L 915.265863 401.061818 
L 914.956439 394.472727 
L 914.672575 387.883636 
L 914.416434 381.294545 
L 914.188753 374.705455 
L 913.988679 368.116364 
L 913.813665 361.527273 
L 913.659461 354.938182 
L 913.520173 348.349091 
L 913.38842 341.76 
L 913.255564 335.170909 
L 913.112005 328.581818 
L 912.947537 321.992727 
L 912.751742 315.403636 
L 912.514404 308.814545 
L 912.225935 302.225455 
L 911.877779 295.636364 
L 911.462787 289.047273 
L 910.975537 282.458182 
L 910.412593 275.869091 
L 909.772671 269.28 
L 909.056725 262.690909 
L 908.267925 256.101818 
L 907.411546 249.512727 
L 906.494756 242.923636 
L 905.526327 236.334545 
L 904.516291 229.745455 
L 903.475549 223.156364 
L 902.415478 216.567273 
L 901.347555 209.978182 
L 900.283033 203.389091 
L 899.232687 196.8 
L 898.206666 190.210909 
L 897.214437 183.621818 
L 896.264836 177.032727 
L 895.366223 170.443636 
L 894.526693 163.854545 
L 893.754334 157.265455 
L 893.057491 150.676364 
L 892.444977 144.087273 
L 891.926217 137.498182 
L 891.511269 130.909091 
L 891.210718 124.32 
L 891.035405 117.730909 
L 890.996028 111.141818 
L 891.102605 104.552727 
L 891.363849 97.963636 
L 891.786505 91.374545 
L 892.374691 84.785455 
L 893.129304 78.196364 
L 894.047556 71.607273 
L 895.122676 65.018182 
L 896.343815 58.429091 
L 897.696177 51.84 
L 949.103823 51.84 
L 949.103823 51.84 
L 950.456185 58.429091 
L 951.677324 65.018182 
L 952.752444 71.607273 
L 953.670696 78.196364 
L 954.425309 84.785455 
L 955.013495 91.374545 
L 955.436151 97.963636 
L 955.697395 104.552727 
L 955.803972 111.141818 
L 955.764595 117.730909 
L 955.589282 124.32 
L 955.288731 130.909091 
L 954.873783 137.498182 
L 954.355023 144.087273 
L 953.742509 150.676364 
L 953.045666 157.265455 
L 952.273307 163.854545 
L 951.433777 170.443636 
L 950.535164 177.032727 
L 949.585563 183.621818 
L 948.593334 190.210909 
L 947.567313 196.8 
L 946.516967 203.389091 
L 945.452445 209.978182 
L 944.384522 216.567273 
L 943.324451 223.156364 
L 942.283709 229.745455 
L 941.273673 236.334545 
L 940.305244 242.923636 
L 939.388454 249.512727 
L 938.532075 256.101818 
L 937.743275 262.690909 
L 937.027329 269.28 
L 936.387407 275.869091 
L 935.824463 282.458182 
L 935.337213 289.047273 
L 934.922221 295.636364 
L 934.574065 302.225455 
L 934.285596 308.814545 
L 934.048258 315.403636 
L 933.852463 321.992727 
L 933.687995 328.581818 
L 933.544436 335.170909 
L 933.41158 341.76 
L 933.279827 348.349091 
L 933.140539 354.938182 
L 932.986335 361.527273 
L 932.811321 368.116364 
L 932.611247 374.705455 
L 932.383566 381.294545 
L 932.127425 387.883636 
L 931.843561 394.472727 
L 931.534137 401.061818 
L 931.202505 407.650909 
L 930.852935 414.24 
L 930.490316 420.829091 
L 930.119849 427.418182 
L 929.746762 434.007273 
L 929.376047 440.596364 
L 929.01225 447.185455 
L 928.659312 453.774545 
L 928.320467 460.363636 
L 927.998207 466.952727 
L 927.694289 473.541818 
L 927.409794 480.130909 
L 927.145213 486.72 
L 926.900554 493.309091 
L 926.675455 499.898182 
L 926.469294 506.487273 
L 926.281281 513.076364 
L 926.110534 519.665455 
L 925.956133 526.254545 
L 925.817153 532.843636 
L 925.692676 539.432727 
L 925.581792 546.021818 
L 925.483596 552.610909 
L 925.39717 559.2 
L 925.321582 565.789091 
L 925.25588 572.378182 
L 925.199093 578.967273 
L 925.150242 585.556364 
L 925.108349 592.145455 
L 925.072454 598.734545 
L 925.04163 605.323636 
L 925.014987 611.912727 
L 924.99168 618.501818 
L 924.970906 625.090909 
L 924.951899 631.68 
L 924.933917 638.269091 
L 924.91623 644.858182 
L 924.898112 651.447273 
L 924.878835 658.036364 
L 924.857671 664.625455 
L 924.833903 671.214545 
L 924.806843 677.803636 
L 924.775861 684.392727 
L 924.740417 690.981818 
L 924.700095 697.570909 
L 924.654637 704.16 
z
" clip-path="url(#p914bcbe9ed)" style="fill: #d3d3d3; stroke: #7f7f7f; stroke-width: 3"/>
   </g>
   <g id="PolyCollection_8">
    <path d="M 1036.055096 704.16 
L 1033.944904 704.16 
L 1033.950941 697.570909 
L 1033.969814 690.981818 
L 1034.000641 684.392727 
L 1034.042047 677.803636 
L 1034.092222 671.214545 
L 1034.149003 664.625455 
L 1034.209964 658.036364 
L 1034.272506 651.447273 
L 1034.333948 644.858182 
L 1034.391602 638.269091 
L 1034.442836 631.68 
L 1034.48512 625.090909 
L 1034.516051 618.501818 
L 1034.533369 611.912727 
L 1034.534959 605.323636 
L 1034.518852 598.734545 
L 1034.483223 592.145455 
L 1034.426398 585.556364 
L 1034.34687 578.967273 
L 1034.243327 572.378182 
L 1034.114693 565.789091 
L 1033.960181 559.2 
L 1033.779357 552.610909 
L 1033.572197 546.021818 
L 1033.339156 539.432727 
L 1033.081214 532.843636 
L 1032.799918 526.254545 
L 1032.497393 519.665455 
L 1032.176342 513.076364 
L 1031.840005 506.487273 
L 1031.492101 499.898182 
L 1031.136737 493.309091 
L 1030.778298 486.72 
L 1030.421314 480.130909 
L 1030.070315 473.541818 
L 1029.729677 466.952727 
L 1029.403466 460.363636 
L 1029.095289 453.774545 
L 1028.808149 447.185455 
L 1028.544326 440.596364 
L 1028.30527 434.007273 
L 1028.091523 427.418182 
L 1027.902666 420.829091 
L 1027.737293 414.24 
L 1027.593024 407.650909 
L 1027.466528 401.061818 
L 1027.353598 394.472727 
L 1027.249231 387.883636 
L 1027.147748 381.294545 
L 1027.04292 374.705455 
L 1026.928122 368.116364 
L 1026.796495 361.527273 
L 1026.641107 354.938182 
L 1026.455128 348.349091 
L 1026.231988 341.76 
L 1025.965533 335.170909 
L 1025.650165 328.581818 
L 1025.280961 321.992727 
L 1024.853783 315.403636 
L 1024.365357 308.814545 
L 1023.813347 302.225455 
L 1023.196406 295.636364 
L 1022.514219 289.047273 
L 1021.767535 282.458182 
L 1020.958198 275.869091 
L 1020.089158 269.28 
L 1019.164485 262.690909 
L 1018.189355 256.101818 
L 1017.170019 249.512727 
L 1016.113745 242.923636 
L 1015.028718 236.334545 
L 1013.923904 229.745455 
L 1012.808876 223.156364 
L 1011.693609 216.567273 
L 1010.588256 209.978182 
L 1009.502922 203.389091 
L 1008.447462 196.8 
L 1007.431318 190.210909 
L 1006.463426 183.621818 
L 1005.5522 177.032727 
L 1004.705602 170.443636 
L 1003.931288 163.854545 
L 1003.236828 157.265455 
L 1002.62994 150.676364 
L 1002.11873 144.087273 
L 1001.711879 137.498182 
L 1001.418718 130.909091 
L 1001.249183 124.32 
L 1001.213596 117.730909 
L 1001.322269 111.141818 
L 1001.584951 104.552727 
L 1002.010135 97.963636 
L 1002.604282 91.374545 
L 1003.371033 84.785455 
L 1004.310471 78.196364 
L 1005.418524 71.607273 
L 1006.68657 65.018182 
L 1008.10129 58.429091 
L 1009.644827 51.84 
L 1060.355173 51.84 
L 1060.355173 51.84 
L 1061.89871 58.429091 
L 1063.31343 65.018182 
L 1064.581476 71.607273 
L 1065.689529 78.196364 
L 1066.628967 84.785455 
L 1067.395718 91.374545 
L 1067.989865 97.963636 
L 1068.415049 104.552727 
L 1068.677731 111.141818 
L 1068.786404 117.730909 
L 1068.750817 124.32 
L 1068.581282 130.909091 
L 1068.288121 137.498182 
L 1067.88127 144.087273 
L 1067.37006 150.676364 
L 1066.763172 157.265455 
L 1066.068712 163.854545 
L 1065.294398 170.443636 
L 1064.4478 177.032727 
L 1063.536574 183.621818 
L 1062.568682 190.210909 
L 1061.552538 196.8 
L 1060.497078 203.389091 
L 1059.411744 209.978182 
L 1058.306391 216.567273 
L 1057.191124 223.156364 
L 1056.076096 229.745455 
L 1054.971282 236.334545 
L 1053.886255 242.923636 
L 1052.829981 249.512727 
L 1051.810645 256.101818 
L 1050.835515 262.690909 
L 1049.910842 269.28 
L 1049.041802 275.869091 
L 1048.232465 282.458182 
L 1047.485781 289.047273 
L 1046.803594 295.636364 
L 1046.186653 302.225455 
L 1045.634643 308.814545 
L 1045.146217 315.403636 
L 1044.719039 321.992727 
L 1044.349835 328.581818 
L 1044.034467 335.170909 
L 1043.768012 341.76 
L 1043.544872 348.349091 
L 1043.358893 354.938182 
L 1043.203505 361.527273 
L 1043.071878 368.116364 
L 1042.95708 374.705455 
L 1042.852252 381.294545 
L 1042.750769 387.883636 
L 1042.646402 394.472727 
L 1042.533472 401.061818 
L 1042.406976 407.650909 
L 1042.262707 414.24 
L 1042.097334 420.829091 
L 1041.908477 427.418182 
L 1041.69473 434.007273 
L 1041.455674 440.596364 
L 1041.191851 447.185455 
L 1040.904711 453.774545 
L 1040.596534 460.363636 
L 1040.270323 466.952727 
L 1039.929685 473.541818 
L 1039.578686 480.130909 
L 1039.221702 486.72 
L 1038.863263 493.309091 
L 1038.507899 499.898182 
L 1038.159995 506.487273 
L 1037.823658 513.076364 
L 1037.502607 519.665455 
L 1037.200082 526.254545 
L 1036.918786 532.843636 
L 1036.660844 539.432727 
L 1036.427803 546.021818 
L 1036.220643 552.610909 
L 1036.039819 559.2 
L 1035.885307 565.789091 
L 1035.756673 572.378182 
L 1035.65313 578.967273 
L 1035.573602 585.556364 
L 1035.516777 592.145455 
L 1035.481148 598.734545 
L 1035.465041 605.323636 
L 1035.466631 611.912727 
L 1035.483949 618.501818 
L 1035.51488 625.090909 
L 1035.557164 631.68 
L 1035.608398 638.269091 
L 1035.666052 644.858182 
L 1035.727494 651.447273 
L 1035.790036 658.036364 
L 1035.850997 664.625455 
L 1035.907778 671.214545 
L 1035.957953 677.803636 
L 1035.999359 684.392727 
L 1036.030186 690.981818 
L 1036.049059 697.570909 
L 1036.055096 704.16 
z
" clip-path="url(#p914bcbe9ed)" style="fill: #d3d3d3; stroke: #7f7f7f; stroke-width: 3"/>
   </g>
   <g id="PolyCollection_9">
    <defs>
     <path id="ma9d5762d55" d="M 1150.23121 34.71552 
L 1142.96879 34.71552 
L 1142.684439 30.524858 
L 1142.394914 26.334196 
L 1142.102096 22.143535 
L 1141.808073 17.952873 
L 1141.515136 13.762211 
L 1141.225746 9.571549 
L 1140.942499 5.380887 
L 1140.668083 1.190225 
L 1140.405206 -3.000436 
L 1140.156538 -7.191098 
L 1139.924624 -11.38176 
L 1139.711805 -15.572422 
L 1139.52013 -19.763084 
L 1139.351283 -23.953745 
L 1139.206499 -28.144407 
L 1139.08651 -32.335069 
L 1138.99149 -36.525731 
L 1138.92103 -40.716393 
L 1138.87412 -44.907055 
L 1138.84916 -49.097716 
L 1138.843983 -53.288378 
L 1138.855902 -57.47904 
L 1138.881769 -61.669702 
L 1138.918038 -65.860364 
L 1138.960853 -70.051025 
L 1139.00612 -74.241687 
L 1139.04959 -78.432349 
L 1139.086935 -82.623011 
L 1139.113815 -86.813673 
L 1139.125939 -91.004335 
L 1139.119111 -95.194996 
L 1139.08927 -99.385658 
L 1139.032521 -103.57632 
L 1138.94516 -107.766982 
L 1138.823696 -111.957644 
L 1138.664871 -116.148305 
L 1138.465688 -120.338967 
L 1138.223445 -124.529629 
L 1137.935773 -128.720291 
L 1137.600691 -132.910953 
L 1137.216659 -137.101615 
L 1136.782651 -141.292276 
L 1136.298216 -145.482938 
L 1135.763543 -149.6736 
L 1135.179515 -153.864262 
L 1134.547747 -158.054924 
L 1133.8706 -162.245585 
L 1133.151163 -166.436247 
L 1132.393203 -170.626909 
L 1131.601081 -174.817571 
L 1130.779625 -179.008233 
L 1129.933972 -183.198895 
L 1129.069379 -187.389556 
L 1128.191017 -191.580218 
L 1127.303742 -195.77088 
L 1126.411886 -199.961542 
L 1125.519043 -204.152204 
L 1124.627898 -208.342865 
L 1123.740093 -212.533527 
L 1122.856145 -216.724189 
L 1121.975433 -220.914851 
L 1121.09625 -225.105513 
L 1120.215933 -229.296175 
L 1119.331065 -233.486836 
L 1118.43774 -237.677498 
L 1117.531896 -241.86816 
L 1116.609683 -246.058822 
L 1115.667865 -250.249484 
L 1114.704226 -254.440145 
L 1113.717968 -258.630807 
L 1112.710075 -262.821469 
L 1111.683611 -267.012131 
L 1110.643952 -271.202793 
L 1109.598922 -275.393455 
L 1108.558817 -279.584116 
L 1107.53632 -283.774778 
L 1106.546293 -287.96544 
L 1105.605459 -292.156102 
L 1104.731972 -296.346764 
L 1103.9449 -300.537425 
L 1103.263638 -304.728087 
L 1102.707269 -308.918749 
L 1102.293908 -313.109411 
L 1102.040059 -317.300073 
L 1101.96 -321.490735 
L 1102.065243 -325.681396 
L 1102.364076 -329.872058 
L 1102.861214 -334.06272 
L 1103.557577 -338.253382 
L 1104.450196 -342.444044 
L 1105.532255 -346.634705 
L 1106.79326 -350.825367 
L 1108.219335 -355.016029 
L 1109.793613 -359.206691 
L 1111.496723 -363.397353 
L 1113.307339 -367.588015 
L 1115.202768 -371.778676 
L 1117.15956 -375.969338 
L 1119.154108 -380.16 
L 1174.045892 -380.16 
L 1174.045892 -380.16 
L 1176.04044 -375.969338 
L 1177.997232 -371.778676 
L 1179.892661 -367.588015 
L 1181.703277 -363.397353 
L 1183.406387 -359.206691 
L 1184.980665 -355.016029 
L 1186.40674 -350.825367 
L 1187.667745 -346.634705 
L 1188.749804 -342.444044 
L 1189.642423 -338.253382 
L 1190.338786 -334.06272 
L 1190.835924 -329.872058 
L 1191.134757 -325.681396 
L 1191.24 -321.490735 
L 1191.159941 -317.300073 
L 1190.906092 -313.109411 
L 1190.492731 -308.918749 
L 1189.936362 -304.728087 
L 1189.2551 -300.537425 
L 1188.468028 -296.346764 
L 1187.594541 -292.156102 
L 1186.653707 -287.96544 
L 1185.66368 -283.774778 
L 1184.641183 -279.584116 
L 1183.601078 -275.393455 
L 1182.556048 -271.202793 
L 1181.516389 -267.012131 
L 1180.489925 -262.821469 
L 1179.482032 -258.630807 
L 1178.495774 -254.440145 
L 1177.532135 -250.249484 
L 1176.590317 -246.058822 
L 1175.668104 -241.86816 
L 1174.76226 -237.677498 
L 1173.868935 -233.486836 
L 1172.984067 -229.296175 
L 1172.10375 -225.105513 
L 1171.224567 -220.914851 
L 1170.343855 -216.724189 
L 1169.459907 -212.533527 
L 1168.572102 -208.342865 
L 1167.680957 -204.152204 
L 1166.788114 -199.961542 
L 1165.896258 -195.77088 
L 1165.008983 -191.580218 
L 1164.130621 -187.389556 
L 1163.266028 -183.198895 
L 1162.420375 -179.008233 
L 1161.598919 -174.817571 
L 1160.806797 -170.626909 
L 1160.048837 -166.436247 
L 1159.3294 -162.245585 
L 1158.652253 -158.054924 
L 1158.020485 -153.864262 
L 1157.436457 -149.6736 
L 1156.901784 -145.482938 
L 1156.417349 -141.292276 
L 1155.983341 -137.101615 
L 1155.599309 -132.910953 
L 1155.264227 -128.720291 
L 1154.976555 -124.529629 
L 1154.734312 -120.338967 
L 1154.535129 -116.148305 
L 1154.376304 -111.957644 
L 1154.25484 -107.766982 
L 1154.167479 -103.57632 
L 1154.11073 -99.385658 
L 1154.080889 -95.194996 
L 1154.074061 -91.004335 
L 1154.086185 -86.813673 
L 1154.113065 -82.623011 
L 1154.15041 -78.432349 
L 1154.19388 -74.241687 
L 1154.239147 -70.051025 
L 1154.281962 -65.860364 
L 1154.318231 -61.669702 
L 1154.344098 -57.47904 
L 1154.356017 -53.288378 
L 1154.35084 -49.097716 
L 1154.32588 -44.907055 
L 1154.27897 -40.716393 
L 1154.20851 -36.525731 
L 1154.11349 -32.335069 
L 1153.993501 -28.144407 
L 1153.848717 -23.953745 
L 1153.67987 -19.763084 
L 1153.488195 -15.572422 
L 1153.275376 -11.38176 
L 1153.043462 -7.191098 
L 1152.794794 -3.000436 
L 1152.531917 1.190225 
L 1152.257501 5.380887 
L 1151.974254 9.571549 
L 1151.684864 13.762211 
L 1151.391927 17.952873 
L 1151.097904 22.143535 
L 1150.805086 26.334196 
L 1150.515561 30.524858 
L 1150.23121 34.71552 
z
" style="stroke: #7f7f7f; stroke-width: 3"/>
    </defs>
    <g clip-path="url(#p914bcbe9ed)">
     <use xlink:href="#ma9d5762d55" x="0" y="432" style="fill: #d3d3d3; stroke: #7f7f7f; stroke-width: 3"/>
    </g>
   </g>
   <g id="PolyCollection_10">
    <path d="M 1261.570025 528.0336 
L 1254.829975 528.0336 
L 1254.670931 523.223564 
L 1254.519949 518.413527 
L 1254.37757 513.603491 
L 1254.244042 508.793455 
L 1254.119305 503.983418 
L 1254.002993 499.173382 
L 1253.894443 494.363345 
L 1253.792716 489.553309 
L 1253.696629 484.743273 
L 1253.604788 479.933236 
L 1253.515637 475.1232 
L 1253.42751 470.313164 
L 1253.338685 465.503127 
L 1253.247441 460.693091 
L 1253.152117 455.883055 
L 1253.051172 451.073018 
L 1252.943232 446.262982 
L 1252.827146 441.452945 
L 1252.702023 436.642909 
L 1252.567263 431.832873 
L 1252.422584 427.022836 
L 1252.268024 422.2128 
L 1252.103943 417.402764 
L 1251.930999 412.592727 
L 1251.750117 407.782691 
L 1251.562439 402.972655 
L 1251.369261 398.162618 
L 1251.171959 393.352582 
L 1250.971903 388.542545 
L 1250.770368 383.732509 
L 1250.568438 378.922473 
L 1250.366915 374.112436 
L 1250.166237 369.3024 
L 1249.966398 364.492364 
L 1249.766899 359.682327 
L 1249.566712 354.872291 
L 1249.364269 350.062255 
L 1249.157487 345.252218 
L 1248.943809 340.442182 
L 1248.720294 335.632145 
L 1248.483716 330.822109 
L 1248.2307 326.012073 
L 1247.957868 321.202036 
L 1247.662008 316.392 
L 1247.340233 311.581964 
L 1246.990148 306.771927 
L 1246.609995 301.961891 
L 1246.198774 297.151855 
L 1245.756341 292.341818 
L 1245.28345 287.531782 
L 1244.781774 282.721745 
L 1244.253853 277.911709 
L 1243.703017 273.101673 
L 1243.133245 268.291636 
L 1242.549 263.4816 
L 1241.955014 258.671564 
L 1241.356068 253.861527 
L 1240.756746 249.051491 
L 1240.161197 244.241455 
L 1239.572916 239.431418 
L 1238.994541 234.621382 
L 1238.427706 229.811345 
L 1237.872929 225.001309 
L 1237.329567 220.191273 
L 1236.795834 215.381236 
L 1236.268882 210.5712 
L 1235.744943 205.761164 
L 1235.219538 200.951127 
L 1234.687729 196.141091 
L 1234.144416 191.331055 
L 1233.584665 186.521018 
L 1233.004038 181.710982 
L 1232.398939 176.900945 
L 1231.766928 172.090909 
L 1231.10701 167.280873 
L 1230.419878 162.470836 
L 1229.708098 157.6608 
L 1228.976226 152.850764 
L 1228.230851 148.040727 
L 1227.480559 143.230691 
L 1226.735815 138.420655 
L 1226.008769 133.610618 
L 1225.312986 128.800582 
L 1224.663112 123.990545 
L 1224.07448 119.180509 
L 1223.562677 114.370473 
L 1223.143079 109.560436 
L 1222.830371 104.7504 
L 1222.638082 99.940364 
L 1222.57812 95.130327 
L 1222.660369 90.320291 
L 1222.892318 85.510255 
L 1223.278777 80.700218 
L 1223.821657 75.890182 
L 1224.519847 71.080145 
L 1225.36919 66.270109 
L 1226.362546 61.460073 
L 1227.489959 56.650036 
L 1228.73891 51.84 
L 1287.66109 51.84 
L 1287.66109 51.84 
L 1288.910041 56.650036 
L 1290.037454 61.460073 
L 1291.03081 66.270109 
L 1291.880153 71.080145 
L 1292.578343 75.890182 
L 1293.121223 80.700218 
L 1293.507682 85.510255 
L 1293.739631 90.320291 
L 1293.82188 95.130327 
L 1293.761918 99.940364 
L 1293.569629 104.7504 
L 1293.256921 109.560436 
L 1292.837323 114.370473 
L 1292.32552 119.180509 
L 1291.736888 123.990545 
L 1291.087014 128.800582 
L 1290.391231 133.610618 
L 1289.664185 138.420655 
L 1288.919441 143.230691 
L 1288.169149 148.040727 
L 1287.423774 152.850764 
L 1286.691902 157.6608 
L 1285.980122 162.470836 
L 1285.29299 167.280873 
L 1284.633072 172.090909 
L 1284.001061 176.900945 
L 1283.395962 181.710982 
L 1282.815335 186.521018 
L 1282.255584 191.331055 
L 1281.712271 196.141091 
L 1281.180462 200.951127 
L 1280.655057 205.761164 
L 1280.131118 210.5712 
L 1279.604166 215.381236 
L 1279.070433 220.191273 
L 1278.527071 225.001309 
L 1277.972294 229.811345 
L 1277.405459 234.621382 
L 1276.827084 239.431418 
L 1276.238803 244.241455 
L 1275.643254 249.051491 
L 1275.043932 253.861527 
L 1274.444986 258.671564 
L 1273.851 263.4816 
L 1273.266755 268.291636 
L 1272.696983 273.101673 
L 1272.146147 277.911709 
L 1271.618226 282.721745 
L 1271.11655 287.531782 
L 1270.643659 292.341818 
L 1270.201226 297.151855 
L 1269.790005 301.961891 
L 1269.409852 306.771927 
L 1269.059767 311.581964 
L 1268.737992 316.392 
L 1268.442132 321.202036 
L 1268.1693 326.012073 
L 1267.916284 330.822109 
L 1267.679706 335.632145 
L 1267.456191 340.442182 
L 1267.242513 345.252218 
L 1267.035731 350.062255 
L 1266.833288 354.872291 
L 1266.633101 359.682327 
L 1266.433602 364.492364 
L 1266.233763 369.3024 
L 1266.033085 374.112436 
L 1265.831562 378.922473 
L 1265.629632 383.732509 
L 1265.428097 388.542545 
L 1265.228041 393.352582 
L 1265.030739 398.162618 
L 1264.837561 402.972655 
L 1264.649883 407.782691 
L 1264.469001 412.592727 
L 1264.296057 417.402764 
L 1264.131976 422.2128 
L 1263.977416 427.022836 
L 1263.832737 431.832873 
L 1263.697977 436.642909 
L 1263.572854 441.452945 
L 1263.456768 446.262982 
L 1263.348828 451.073018 
L 1263.247883 455.883055 
L 1263.152559 460.693091 
L 1263.061315 465.503127 
L 1262.97249 470.313164 
L 1262.884363 475.1232 
L 1262.795212 479.933236 
L 1262.703371 484.743273 
L 1262.607284 489.553309 
L 1262.505557 494.363345 
L 1262.397007 499.173382 
L 1262.280695 503.983418 
L 1262.155958 508.793455 
L 1262.02243 513.603491 
L 1261.880051 518.413527 
L 1261.729069 523.223564 
L 1261.570025 528.0336 
z
" clip-path="url(#p914bcbe9ed)" style="fill: #d3d3d3; stroke: #7f7f7f; stroke-width: 3"/>
   </g>
   <g id="PolyCollection_11">
    <path d="M 1370.83136 704.16 
L 1368.76864 704.16 
L 1368.770205 697.570909 
L 1368.782123 690.981818 
L 1368.803291 684.392727 
L 1368.832127 677.803636 
L 1368.866618 671.214545 
L 1368.904398 664.625455 
L 1368.942832 658.036364 
L 1368.979116 651.447273 
L 1369.010383 644.858182 
L 1369.033807 638.269091 
L 1369.046701 631.68 
L 1369.046614 625.090909 
L 1369.03141 618.501818 
L 1368.999334 611.912727 
L 1368.949065 605.323636 
L 1368.879753 598.734545 
L 1368.791027 592.145455 
L 1368.683 585.556364 
L 1368.556239 578.967273 
L 1368.411724 572.378182 
L 1368.250783 565.789091 
L 1368.075018 559.2 
L 1367.886208 552.610909 
L 1367.686215 546.021818 
L 1367.476883 539.432727 
L 1367.259946 532.843636 
L 1367.036947 526.254545 
L 1366.809177 519.665455 
L 1366.577647 513.076364 
L 1366.343071 506.487273 
L 1366.1059 499.898182 
L 1365.866357 493.309091 
L 1365.624512 486.72 
L 1365.380355 480.130909 
L 1365.133875 473.541818 
L 1364.885128 466.952727 
L 1364.63429 460.363636 
L 1364.381672 453.774545 
L 1364.12772 447.185455 
L 1363.872967 440.596364 
L 1363.617968 434.007273 
L 1363.363203 427.418182 
L 1363.108975 420.829091 
L 1362.855302 414.24 
L 1362.601828 407.650909 
L 1362.347752 401.061818 
L 1362.091798 394.472727 
L 1361.832214 387.883636 
L 1361.566826 381.294545 
L 1361.293125 374.705455 
L 1361.008384 368.116364 
L 1360.709807 361.527273 
L 1360.394678 354.938182 
L 1360.060509 348.349091 
L 1359.705175 341.76 
L 1359.327014 335.170909 
L 1358.924883 328.581818 
L 1358.49818 321.992727 
L 1358.046812 315.403636 
L 1357.571116 308.814545 
L 1357.071755 302.225455 
L 1356.549578 295.636364 
L 1356.005466 289.047273 
L 1355.440184 282.458182 
L 1354.854242 275.869091 
L 1354.247793 269.28 
L 1353.620557 262.690909 
L 1352.971806 256.101818 
L 1352.300398 249.512727 
L 1351.60487 242.923636 
L 1350.883582 236.334545 
L 1350.134912 229.745455 
L 1349.357499 223.156364 
L 1348.550505 216.567273 
L 1347.713908 209.978182 
L 1346.848791 203.389091 
L 1345.957629 196.8 
L 1345.04455 190.210909 
L 1344.11556 183.621818 
L 1343.178716 177.032727 
L 1342.244239 170.443636 
L 1341.324543 163.854545 
L 1340.434173 157.265455 
L 1339.589644 150.676364 
L 1338.809161 144.087273 
L 1338.112221 137.498182 
L 1337.519092 130.909091 
L 1337.050174 124.32 
L 1336.725267 117.730909 
L 1336.562755 111.141818 
L 1336.578754 104.552727 
L 1336.786261 97.963636 
L 1337.194361 91.374545 
L 1337.80754 84.785455 
L 1338.625168 78.196364 
L 1339.641191 71.607273 
L 1340.844069 65.018182 
L 1342.216986 58.429091 
L 1343.738333 51.84 
L 1395.861667 51.84 
L 1395.861667 51.84 
L 1397.383014 58.429091 
L 1398.755931 65.018182 
L 1399.958809 71.607273 
L 1400.974832 78.196364 
L 1401.79246 84.785455 
L 1402.405639 91.374545 
L 1402.813739 97.963636 
L 1403.021246 104.552727 
L 1403.037245 111.141818 
L 1402.874733 117.730909 
L 1402.549826 124.32 
L 1402.080908 130.909091 
L 1401.487779 137.498182 
L 1400.790839 144.087273 
L 1400.010356 150.676364 
L 1399.165827 157.265455 
L 1398.275457 163.854545 
L 1397.355761 170.443636 
L 1396.421284 177.032727 
L 1395.48444 183.621818 
L 1394.55545 190.210909 
L 1393.642371 196.8 
L 1392.751209 203.389091 
L 1391.886092 209.978182 
L 1391.049495 216.567273 
L 1390.242501 223.156364 
L 1389.465088 229.745455 
L 1388.716418 236.334545 
L 1387.99513 242.923636 
L 1387.299602 249.512727 
L 1386.628194 256.101818 
L 1385.979443 262.690909 
L 1385.352207 269.28 
L 1384.745758 275.869091 
L 1384.159816 282.458182 
L 1383.594534 289.047273 
L 1383.050422 295.636364 
L 1382.528245 302.225455 
L 1382.028884 308.814545 
L 1381.553188 315.403636 
L 1381.10182 321.992727 
L 1380.675117 328.581818 
L 1380.272986 335.170909 
L 1379.894825 341.76 
L 1379.539491 348.349091 
L 1379.205322 354.938182 
L 1378.890193 361.527273 
L 1378.591616 368.116364 
L 1378.306875 374.705455 
L 1378.033174 381.294545 
L 1377.767786 387.883636 
L 1377.508202 394.472727 
L 1377.252248 401.061818 
L 1376.998172 407.650909 
L 1376.744698 414.24 
L 1376.491025 420.829091 
L 1376.236797 427.418182 
L 1375.982032 434.007273 
L 1375.727033 440.596364 
L 1375.47228 447.185455 
L 1375.218328 453.774545 
L 1374.96571 460.363636 
L 1374.714872 466.952727 
L 1374.466125 473.541818 
L 1374.219645 480.130909 
L 1373.975488 486.72 
L 1373.733643 493.309091 
L 1373.4941 499.898182 
L 1373.256929 506.487273 
L 1373.022353 513.076364 
L 1372.790823 519.665455 
L 1372.563053 526.254545 
L 1372.340054 532.843636 
L 1372.123117 539.432727 
L 1371.913785 546.021818 
L 1371.713792 552.610909 
L 1371.524982 559.2 
L 1371.349217 565.789091 
L 1371.188276 572.378182 
L 1371.043761 578.967273 
L 1370.917 585.556364 
L 1370.808973 592.145455 
L 1370.720247 598.734545 
L 1370.650935 605.323636 
L 1370.600666 611.912727 
L 1370.56859 618.501818 
L 1370.553386 625.090909 
L 1370.553299 631.68 
L 1370.566193 638.269091 
L 1370.589617 644.858182 
L 1370.620884 651.447273 
L 1370.657168 658.036364 
L 1370.695602 664.625455 
L 1370.733382 671.214545 
L 1370.767873 677.803636 
L 1370.796709 684.392727 
L 1370.817877 690.981818 
L 1370.829795 697.570909 
L 1370.83136 704.16 
z
" clip-path="url(#p914bcbe9ed)" style="fill: #d3d3d3; stroke: #7f7f7f; stroke-width: 3"/>
   </g>
   <g id="line2d_4">
    <path d="M 253.8 433 
L 253.8 51.84 
" clip-path="url(#p914bcbe9ed)" style="fill: none; stroke: #7f7f7f; stroke-width: 3; stroke-linecap: round"/>
   </g>
   <g id="line2d_5">
    <path d="M 253.8 313.74648 
L 253.8 90.32688 
" clip-path="url(#p914bcbe9ed)" style="fill: none; stroke: #7f7f7f; stroke-width: 9; stroke-linecap: round"/>
   </g>
   <g id="line2d_6">
    <path d="M 365.4 433 
L 365.4 51.84 
" clip-path="url(#p914bcbe9ed)" style="fill: none; stroke: #7f7f7f; stroke-width: 3; stroke-linecap: round"/>
   </g>
   <g id="line2d_7">
    <path d="M 365.4 290.09988 
L 365.4 115.27812 
" clip-path="url(#p914bcbe9ed)" style="fill: none; stroke: #7f7f7f; stroke-width: 9; stroke-linecap: round"/>
   </g>
   <g id="line2d_8">
    <path d="M 477 433 
L 477 51.84 
" clip-path="url(#p914bcbe9ed)" style="fill: none; stroke: #7f7f7f; stroke-width: 3; stroke-linecap: round"/>
   </g>
   <g id="line2d_9">
    <path d="M 477 374.08608 
L 477 87.39144 
" clip-path="url(#p914bcbe9ed)" style="fill: none; stroke: #7f7f7f; stroke-width: 9; stroke-linecap: round"/>
   </g>
   <g id="line2d_10">
    <path d="M 588.6 433 
L 588.6 51.84 
" clip-path="url(#p914bcbe9ed)" style="fill: none; stroke: #7f7f7f; stroke-width: 3; stroke-linecap: round"/>
   </g>
   <g id="line2d_11">
    <path d="M 588.6 308.36484 
L 588.6 92.28384 
" clip-path="url(#p914bcbe9ed)" style="fill: none; stroke: #7f7f7f; stroke-width: 9; stroke-linecap: round"/>
   </g>
   <g id="line2d_12">
    <path d="M 700.2 433 
L 700.2 51.84 
" clip-path="url(#p914bcbe9ed)" style="fill: none; stroke: #7f7f7f; stroke-width: 3; stroke-linecap: round"/>
   </g>
   <g id="line2d_13">
    <path d="M 700.2 316.68192 
L 700.2 92.28384 
" clip-path="url(#p914bcbe9ed)" style="fill: none; stroke: #7f7f7f; stroke-width: 9; stroke-linecap: round"/>
   </g>
   <g id="line2d_14">
    <path d="M 811.8 433 
L 811.8 51.84 
" clip-path="url(#p914bcbe9ed)" style="fill: none; stroke: #7f7f7f; stroke-width: 3; stroke-linecap: round"/>
   </g>
   <g id="line2d_15">
    <path d="M 811.8 238.5666 
L 811.8 78.25896 
" clip-path="url(#p914bcbe9ed)" style="fill: none; stroke: #7f7f7f; stroke-width: 9; stroke-linecap: round"/>
   </g>
   <g id="line2d_16">
    <path d="M 923.4 399.52656 
L 923.4 51.84 
" clip-path="url(#p914bcbe9ed)" style="fill: none; stroke: #7f7f7f; stroke-width: 3; stroke-linecap: round"/>
   </g>
   <g id="line2d_17">
    <path d="M 923.4 234.65268 
L 923.4 80.21592 
" clip-path="url(#p914bcbe9ed)" style="fill: none; stroke: #7f7f7f; stroke-width: 9; stroke-linecap: round"/>
   </g>
   <g id="line2d_18">
    <path d="M 1035 433 
L 1035 51.84 
" clip-path="url(#p914bcbe9ed)" style="fill: none; stroke: #7f7f7f; stroke-width: 3; stroke-linecap: round"/>
   </g>
   <g id="line2d_19">
    <path d="M 1035 238.5666 
L 1035 88.85916 
" clip-path="url(#p914bcbe9ed)" style="fill: none; stroke: #7f7f7f; stroke-width: 9; stroke-linecap: round"/>
   </g>
   <g id="line2d_20">
    <path d="M 1146.6 378 
L 1146.6 51.84 
" clip-path="url(#p914bcbe9ed)" style="fill: none; stroke: #7f7f7f; stroke-width: 3; stroke-linecap: round"/>
   </g>
   <g id="line2d_21">
    <path d="M 1146.6 216.38772 
L 1146.6 93.58848 
" clip-path="url(#p914bcbe9ed)" style="fill: none; stroke: #7f7f7f; stroke-width: 9; stroke-linecap: round"/>
   </g>
   <g id="line2d_22">
    <path d="M 1258.2 433 
L 1258.2 51.84 
" clip-path="url(#p914bcbe9ed)" style="fill: none; stroke: #7f7f7f; stroke-width: 3; stroke-linecap: round"/>
   </g>
   <g id="line2d_23">
    <path d="M 1258.2 231.88032 
L 1258.2 75.32352 
" clip-path="url(#p914bcbe9ed)" style="fill: none; stroke: #7f7f7f; stroke-width: 9; stroke-linecap: round"/>
   </g>
   <g id="line2d_24">
    <path d="M 1369.8 433 
L 1369.8 51.84 
" clip-path="url(#p914bcbe9ed)" style="fill: none; stroke: #7f7f7f; stroke-width: 3; stroke-linecap: round"/>
   </g>
   <g id="line2d_25">
    <path d="M 1369.8 254.38536 
L 1369.8 79.88976 
" clip-path="url(#p914bcbe9ed)" style="fill: none; stroke: #7f7f7f; stroke-width: 9; stroke-linecap: round"/>
   </g>
   <g id="patch_3">
    <path d="M 198 378 
L 1425.6 378 
" style="fill: none; stroke: #cccccc; stroke-width: 1.25; stroke-linejoin: miter; stroke-linecap: square"/>
   </g>
   <g id="PathCollection_1">
    <defs>
     <path id="mec2a0893f7" d="M 0 3 
C 0.795609 3 1.55874 2.683901 2.12132 2.12132 
C 2.683901 1.55874 3 0.795609 3 0 
C 3 -0.795609 2.683901 -1.55874 2.12132 -2.12132 
C 1.55874 -2.683901 0.795609 -3 0 -3 
C -0.795609 -3 -1.55874 -2.683901 -2.12132 -2.12132 
C -2.683901 -1.55874 -3 -0.795609 -3 0 
C -3 0.795609 -2.683901 1.55874 -2.12132 2.12132 
C -1.55874 2.683901 -0.795609 3 0 3 
z
" style="stroke: #7f7f7f"/>
    </defs>
    <g clip-path="url(#p914bcbe9ed)">
     <use xlink:href="#mec2a0893f7" x="253.8" y="169.2576" style="fill: #ffffff; stroke: #7f7f7f"/>
    </g>
   </g>
   <g id="PathCollection_2">
    <g clip-path="url(#p914bcbe9ed)">
     <use xlink:href="#mec2a0893f7" x="365.4" y="182.304" style="fill: #ffffff; stroke: #7f7f7f"/>
    </g>
   </g>
   <g id="PathCollection_3">
    <g clip-path="url(#p914bcbe9ed)">
     <use xlink:href="#mec2a0893f7" x="477" y="188.50104" style="fill: #ffffff; stroke: #7f7f7f"/>
    </g>
   </g>
   <g id="PathCollection_4">
    <g clip-path="url(#p914bcbe9ed)">
     <use xlink:href="#mec2a0893f7" x="588.6" y="196.65504" style="fill: #ffffff; stroke: #7f7f7f"/>
    </g>
   </g>
   <g id="PathCollection_5">
    <g clip-path="url(#p914bcbe9ed)">
     <use xlink:href="#mec2a0893f7" x="700.2" y="182.304" style="fill: #ffffff; stroke: #7f7f7f"/>
    </g>
   </g>
   <g id="PathCollection_6">
    <g clip-path="url(#p914bcbe9ed)">
     <use xlink:href="#mec2a0893f7" x="811.8" y="144.14328" style="fill: #ffffff; stroke: #7f7f7f"/>
    </g>
   </g>
   <g id="PathCollection_7">
    <g clip-path="url(#p914bcbe9ed)">
     <use xlink:href="#mec2a0893f7" x="923.4" y="155.88504" style="fill: #ffffff; stroke: #7f7f7f"/>
    </g>
   </g>
   <g id="PathCollection_8">
    <g clip-path="url(#p914bcbe9ed)">
     <use xlink:href="#mec2a0893f7" x="1035" y="156.86352" style="fill: #ffffff; stroke: #7f7f7f"/>
    </g>
   </g>
   <g id="PathCollection_9">
    <g clip-path="url(#p914bcbe9ed)">
     <use xlink:href="#mec2a0893f7" x="1146.6" y="128.81376" style="fill: #ffffff; stroke: #7f7f7f"/>
    </g>
   </g>
   <g id="PathCollection_10">
    <g clip-path="url(#p914bcbe9ed)">
     <use xlink:href="#mec2a0893f7" x="1258.2" y="124.24752" style="fill: #ffffff; stroke: #7f7f7f"/>
    </g>
   </g>
   <g id="PathCollection_11">
    <g clip-path="url(#p914bcbe9ed)">
     <use xlink:href="#mec2a0893f7" x="1369.8" y="151.64496" style="fill: #ffffff; stroke: #7f7f7f"/>
    </g>
   </g>
  </g>
  <g id="text_16">
   <!-- TS1reducedWC -->
   <g style="fill: #262626" transform="translate(715.311563 22.317187)scale(0.18 -0.18)">
    <defs>
     <path id="DejaVuSans-Bold-54" d="M 31 4666 
L 4331 4666 
L 4331 3756 
L 2784 3756 
L 2784 0 
L 1581 0 
L 1581 3756 
L 31 3756 
L 31 4666 
z
" transform="scale(0.015625)"/>
     <path id="DejaVuSans-Bold-53" d="M 3834 4519 
L 3834 3531 
Q 3450 3703 3084 3790 
Q 2719 3878 2394 3878 
Q 1963 3878 1756 3759 
Q 1550 3641 1550 3391 
Q 1550 3203 1689 3098 
Q 1828 2994 2194 2919 
L 2706 2816 
Q 3484 2659 3812 2340 
Q 4141 2022 4141 1434 
Q 4141 663 3683 286 
Q 3225 -91 2284 -91 
Q 1841 -91 1394 -6 
Q 947 78 500 244 
L 500 1259 
Q 947 1022 1364 901 
Q 1781 781 2169 781 
Q 2563 781 2772 912 
Q 2981 1044 2981 1288 
Q 2981 1506 2839 1625 
Q 2697 1744 2272 1838 
L 1806 1941 
Q 1106 2091 782 2419 
Q 459 2747 459 3303 
Q 459 4000 909 4375 
Q 1359 4750 2203 4750 
Q 2588 4750 2994 4692 
Q 3400 4634 3834 4519 
z
" transform="scale(0.015625)"/>
     <path id="DejaVuSans-Bold-31" d="M 750 831 
L 1813 831 
L 1813 3847 
L 722 3622 
L 722 4441 
L 1806 4666 
L 2950 4666 
L 2950 831 
L 4013 831 
L 4013 0 
L 750 0 
L 750 831 
z
" transform="scale(0.015625)"/>
     <path id="DejaVuSans-Bold-72" d="M 3138 2547 
Q 2991 2616 2845 2648 
Q 2700 2681 2553 2681 
Q 2122 2681 1889 2404 
Q 1656 2128 1656 1613 
L 1656 0 
L 538 0 
L 538 3500 
L 1656 3500 
L 1656 2925 
Q 1872 3269 2151 3426 
Q 2431 3584 2822 3584 
Q 2878 3584 2943 3579 
Q 3009 3575 3134 3559 
L 3138 2547 
z
" transform="scale(0.015625)"/>
     <path id="DejaVuSans-Bold-65" d="M 4031 1759 
L 4031 1441 
L 1416 1441 
Q 1456 1047 1700 850 
Q 1944 653 2381 653 
Q 2734 653 3104 758 
Q 3475 863 3866 1075 
L 3866 213 
Q 3469 63 3072 -14 
Q 2675 -91 2278 -91 
Q 1328 -91 801 392 
Q 275 875 275 1747 
Q 275 2603 792 3093 
Q 1309 3584 2216 3584 
Q 3041 3584 3536 3087 
Q 4031 2591 4031 1759 
z
M 2881 2131 
Q 2881 2450 2695 2645 
Q 2509 2841 2209 2841 
Q 1884 2841 1681 2658 
Q 1478 2475 1428 2131 
L 2881 2131 
z
" transform="scale(0.015625)"/>
     <path id="DejaVuSans-Bold-64" d="M 2919 2988 
L 2919 4863 
L 4044 4863 
L 4044 0 
L 2919 0 
L 2919 506 
Q 2688 197 2409 53 
Q 2131 -91 1766 -91 
Q 1119 -91 703 423 
Q 288 938 288 1747 
Q 288 2556 703 3070 
Q 1119 3584 1766 3584 
Q 2128 3584 2408 3439 
Q 2688 3294 2919 2988 
z
M 2181 722 
Q 2541 722 2730 984 
Q 2919 1247 2919 1747 
Q 2919 2247 2730 2509 
Q 2541 2772 2181 2772 
Q 1825 2772 1636 2509 
Q 1447 2247 1447 1747 
Q 1447 1247 1636 984 
Q 1825 722 2181 722 
z
" transform="scale(0.015625)"/>
     <path id="DejaVuSans-Bold-75" d="M 500 1363 
L 500 3500 
L 1625 3500 
L 1625 3150 
Q 1625 2866 1622 2436 
Q 1619 2006 1619 1863 
Q 1619 1441 1641 1255 
Q 1663 1069 1716 984 
Q 1784 875 1895 815 
Q 2006 756 2150 756 
Q 2500 756 2700 1025 
Q 2900 1294 2900 1772 
L 2900 3500 
L 4019 3500 
L 4019 0 
L 2900 0 
L 2900 506 
Q 2647 200 2364 54 
Q 2081 -91 1741 -91 
Q 1134 -91 817 281 
Q 500 653 500 1363 
z
" transform="scale(0.015625)"/>
     <path id="DejaVuSans-Bold-63" d="M 3366 3391 
L 3366 2478 
Q 3138 2634 2908 2709 
Q 2678 2784 2431 2784 
Q 1963 2784 1702 2511 
Q 1441 2238 1441 1747 
Q 1441 1256 1702 982 
Q 1963 709 2431 709 
Q 2694 709 2930 787 
Q 3166 866 3366 1019 
L 3366 103 
Q 3103 6 2833 -42 
Q 2563 -91 2291 -91 
Q 1344 -91 809 395 
Q 275 881 275 1747 
Q 275 2613 809 3098 
Q 1344 3584 2291 3584 
Q 2566 3584 2833 3536 
Q 3100 3488 3366 3391 
z
" transform="scale(0.015625)"/>
     <path id="DejaVuSans-Bold-57" d="M 191 4666 
L 1344 4666 
L 2150 1275 
L 2950 4666 
L 4109 4666 
L 4909 1275 
L 5716 4666 
L 6859 4666 
L 5759 0 
L 4372 0 
L 3525 3547 
L 2688 0 
L 1300 0 
L 191 4666 
z
" transform="scale(0.015625)"/>
     <path id="DejaVuSans-Bold-43" d="M 4288 256 
Q 3956 84 3597 -3 
Q 3238 -91 2847 -91 
Q 1681 -91 1000 561 
Q 319 1213 319 2328 
Q 319 3447 1000 4098 
Q 1681 4750 2847 4750 
Q 3238 4750 3597 4662 
Q 3956 4575 4288 4403 
L 4288 3438 
Q 3953 3666 3628 3772 
Q 3303 3878 2944 3878 
Q 2300 3878 1931 3465 
Q 1563 3053 1563 2328 
Q 1563 1606 1931 1193 
Q 2300 781 2944 781 
Q 3303 781 3628 887 
Q 3953 994 4288 1222 
L 4288 256 
z
" transform="scale(0.015625)"/>
    </defs>
    <use xlink:href="#DejaVuSans-Bold-54"/>
    <use xlink:href="#DejaVuSans-Bold-53" x="68.212891"/>
    <use xlink:href="#DejaVuSans-Bold-31" x="140.234375"/>
    <use xlink:href="#DejaVuSans-Bold-72" x="209.814453"/>
    <use xlink:href="#DejaVuSans-Bold-65" x="259.130859"/>
    <use xlink:href="#DejaVuSans-Bold-64" x="326.953125"/>
    <use xlink:href="#DejaVuSans-Bold-75" x="398.535156"/>
    <use xlink:href="#DejaVuSans-Bold-63" x="469.726562"/>
    <use xlink:href="#DejaVuSans-Bold-65" x="529.003906"/>
    <use xlink:href="#DejaVuSans-Bold-64" x="596.826172"/>
    <use xlink:href="#DejaVuSans-Bold-57" x="668.408203"/>
    <use xlink:href="#DejaVuSans-Bold-43" x="778.710938"/>
   </g>
  </g>
 </g>
 <defs>
  <clipPath id="p914bcbe9ed">
   <rect x="198" y="51.84" width="1227.6" height="326.16"/>
  </clipPath>
 </defs>
</svg>
