<?xml version="1.0" encoding="utf-8" standalone="no"?>
<!DOCTYPE svg PUBLIC "-//W3C//DTD SVG 1.1//EN"
  "http://www.w3.org/Graphics/SVG/1.1/DTD/svg11.dtd">
<svg xmlns:xlink="http://www.w3.org/1999/xlink" width="1296pt" height="432pt" viewBox="0 0 1296 432" xmlns="http://www.w3.org/2000/svg" version="1.1">
 <metadata>
  <rdf:RDF xmlns:dc="http://purl.org/dc/elements/1.1/" xmlns:cc="http://creativecommons.org/ns#" xmlns:rdf="http://www.w3.org/1999/02/22-rdf-syntax-ns#">
   <cc:Work>
    <dc:type rdf:resource="http://purl.org/dc/dcmitype/StillImage"/>
    <dc:date>2023-08-24T14:16:15.550073</dc:date>
    <dc:format>image/svg+xml</dc:format>
    <dc:creator>
     <cc:Agent>
      <dc:title>Matplotlib v3.5.1, https://matplotlib.org/</dc:title>
     </cc:Agent>
    </dc:creator>
   </cc:Work>
  </rdf:RDF>
 </metadata>
 <defs>
  <style type="text/css">*{stroke-linejoin: round; stroke-linecap: butt}</style>
 </defs>
 <g id="figure_1">
  <g id="patch_1">
   <path d="M 0 432 
L 1296 432 
L 1296 0 
L 0 0 
z
" style="fill: #ffffff"/>
  </g>
  <g id="axes_1">
   <g id="patch_2">
    <path d="M 162 378 
L 1166.4 378 
L 1166.4 51.84 
L 162 51.84 
z
" style="fill: #ffffff"/>
   </g>
   <g id="matplotlib.axis_1">
    <g id="xtick_1">
     <g id="text_1">
      <!-- RNAfold -->
      <g style="fill: #262626" transform="translate(182.093906 401.177188)scale(0.18 -0.18)">
       <defs>
        <path id="DejaVuSans-52" d="M 2841 2188 
Q 3044 2119 3236 1894 
Q 3428 1669 3622 1275 
L 4263 0 
L 3584 0 
L 2988 1197 
Q 2756 1666 2539 1819 
Q 2322 1972 1947 1972 
L 1259 1972 
L 1259 0 
L 628 0 
L 628 4666 
L 2053 4666 
Q 2853 4666 3247 4331 
Q 3641 3997 3641 3322 
Q 3641 2881 3436 2590 
Q 3231 2300 2841 2188 
z
M 1259 4147 
L 1259 2491 
L 2053 2491 
Q 2509 2491 2742 2702 
Q 2975 2913 2975 3322 
Q 2975 3731 2742 3939 
Q 2509 4147 2053 4147 
L 1259 4147 
z
" transform="scale(0.015625)"/>
        <path id="DejaVuSans-4e" d="M 628 4666 
L 1478 4666 
L 3547 763 
L 3547 4666 
L 4159 4666 
L 4159 0 
L 3309 0 
L 1241 3903 
L 1241 0 
L 628 0 
L 628 4666 
z
" transform="scale(0.015625)"/>
        <path id="DejaVuSans-41" d="M 2188 4044 
L 1331 1722 
L 3047 1722 
L 2188 4044 
z
M 1831 4666 
L 2547 4666 
L 4325 0 
L 3669 0 
L 3244 1197 
L 1141 1197 
L 716 0 
L 50 0 
L 1831 4666 
z
" transform="scale(0.015625)"/>
        <path id="DejaVuSans-66" d="M 2375 4863 
L 2375 4384 
L 1825 4384 
Q 1516 4384 1395 4259 
Q 1275 4134 1275 3809 
L 1275 3500 
L 2222 3500 
L 2222 3053 
L 1275 3053 
L 1275 0 
L 697 0 
L 697 3053 
L 147 3053 
L 147 3500 
L 697 3500 
L 697 3744 
Q 697 4328 969 4595 
Q 1241 4863 1831 4863 
L 2375 4863 
z
" transform="scale(0.015625)"/>
        <path id="DejaVuSans-6f" d="M 1959 3097 
Q 1497 3097 1228 2736 
Q 959 2375 959 1747 
Q 959 1119 1226 758 
Q 1494 397 1959 397 
Q 2419 397 2687 759 
Q 2956 1122 2956 1747 
Q 2956 2369 2687 2733 
Q 2419 3097 1959 3097 
z
M 1959 3584 
Q 2709 3584 3137 3096 
Q 3566 2609 3566 1747 
Q 3566 888 3137 398 
Q 2709 -91 1959 -91 
Q 1206 -91 779 398 
Q 353 888 353 1747 
Q 353 2609 779 3096 
Q 1206 3584 1959 3584 
z
" transform="scale(0.015625)"/>
        <path id="DejaVuSans-6c" d="M 603 4863 
L 1178 4863 
L 1178 0 
L 603 0 
L 603 4863 
z
" transform="scale(0.015625)"/>
        <path id="DejaVuSans-64" d="M 2906 2969 
L 2906 4863 
L 3481 4863 
L 3481 0 
L 2906 0 
L 2906 525 
Q 2725 213 2448 61 
Q 2172 -91 1784 -91 
Q 1150 -91 751 415 
Q 353 922 353 1747 
Q 353 2572 751 3078 
Q 1150 3584 1784 3584 
Q 2172 3584 2448 3432 
Q 2725 3281 2906 2969 
z
M 947 1747 
Q 947 1113 1208 752 
Q 1469 391 1925 391 
Q 2381 391 2643 752 
Q 2906 1113 2906 1747 
Q 2906 2381 2643 2742 
Q 2381 3103 1925 3103 
Q 1469 3103 1208 2742 
Q 947 2381 947 1747 
z
" transform="scale(0.015625)"/>
       </defs>
       <use xlink:href="#DejaVuSans-52"/>
       <use xlink:href="#DejaVuSans-4e" x="69.482422"/>
       <use xlink:href="#DejaVuSans-41" x="144.287109"/>
       <use xlink:href="#DejaVuSans-66" x="209.070312"/>
       <use xlink:href="#DejaVuSans-6f" x="244.275391"/>
       <use xlink:href="#DejaVuSans-6c" x="305.457031"/>
       <use xlink:href="#DejaVuSans-64" x="333.240234"/>
      </g>
     </g>
    </g>
    <g id="xtick_2">
     <g id="text_2">
      <!-- IPknot -->
      <g style="fill: #262626" transform="translate(301.367813 401.177188)scale(0.18 -0.18)">
       <defs>
        <path id="DejaVuSans-49" d="M 628 4666 
L 1259 4666 
L 1259 0 
L 628 0 
L 628 4666 
z
" transform="scale(0.015625)"/>
        <path id="DejaVuSans-50" d="M 1259 4147 
L 1259 2394 
L 2053 2394 
Q 2494 2394 2734 2622 
Q 2975 2850 2975 3272 
Q 2975 3691 2734 3919 
Q 2494 4147 2053 4147 
L 1259 4147 
z
M 628 4666 
L 2053 4666 
Q 2838 4666 3239 4311 
Q 3641 3956 3641 3272 
Q 3641 2581 3239 2228 
Q 2838 1875 2053 1875 
L 1259 1875 
L 1259 0 
L 628 0 
L 628 4666 
z
" transform="scale(0.015625)"/>
        <path id="DejaVuSans-6b" d="M 581 4863 
L 1159 4863 
L 1159 1991 
L 2875 3500 
L 3609 3500 
L 1753 1863 
L 3688 0 
L 2938 0 
L 1159 1709 
L 1159 0 
L 581 0 
L 581 4863 
z
" transform="scale(0.015625)"/>
        <path id="DejaVuSans-6e" d="M 3513 2113 
L 3513 0 
L 2938 0 
L 2938 2094 
Q 2938 2591 2744 2837 
Q 2550 3084 2163 3084 
Q 1697 3084 1428 2787 
Q 1159 2491 1159 1978 
L 1159 0 
L 581 0 
L 581 3500 
L 1159 3500 
L 1159 2956 
Q 1366 3272 1645 3428 
Q 1925 3584 2291 3584 
Q 2894 3584 3203 3211 
Q 3513 2838 3513 2113 
z
" transform="scale(0.015625)"/>
        <path id="DejaVuSans-74" d="M 1172 4494 
L 1172 3500 
L 2356 3500 
L 2356 3053 
L 1172 3053 
L 1172 1153 
Q 1172 725 1289 603 
Q 1406 481 1766 481 
L 2356 481 
L 2356 0 
L 1766 0 
Q 1100 0 847 248 
Q 594 497 594 1153 
L 594 3053 
L 172 3053 
L 172 3500 
L 594 3500 
L 594 4494 
L 1172 4494 
z
" transform="scale(0.015625)"/>
       </defs>
       <use xlink:href="#DejaVuSans-49"/>
       <use xlink:href="#DejaVuSans-50" x="29.492188"/>
       <use xlink:href="#DejaVuSans-6b" x="89.794922"/>
       <use xlink:href="#DejaVuSans-6e" x="147.705078"/>
       <use xlink:href="#DejaVuSans-6f" x="211.083984"/>
       <use xlink:href="#DejaVuSans-74" x="272.265625"/>
      </g>
     </g>
    </g>
    <g id="xtick_3">
     <g id="text_3">
      <!-- ShapeKnots -->
      <g style="fill: #262626" transform="translate(387.486562 401.177188)scale(0.18 -0.18)">
       <defs>
        <path id="DejaVuSans-53" d="M 3425 4513 
L 3425 3897 
Q 3066 4069 2747 4153 
Q 2428 4238 2131 4238 
Q 1616 4238 1336 4038 
Q 1056 3838 1056 3469 
Q 1056 3159 1242 3001 
Q 1428 2844 1947 2747 
L 2328 2669 
Q 3034 2534 3370 2195 
Q 3706 1856 3706 1288 
Q 3706 609 3251 259 
Q 2797 -91 1919 -91 
Q 1588 -91 1214 -16 
Q 841 59 441 206 
L 441 856 
Q 825 641 1194 531 
Q 1563 422 1919 422 
Q 2459 422 2753 634 
Q 3047 847 3047 1241 
Q 3047 1584 2836 1778 
Q 2625 1972 2144 2069 
L 1759 2144 
Q 1053 2284 737 2584 
Q 422 2884 422 3419 
Q 422 4038 858 4394 
Q 1294 4750 2059 4750 
Q 2388 4750 2728 4690 
Q 3069 4631 3425 4513 
z
" transform="scale(0.015625)"/>
        <path id="DejaVuSans-68" d="M 3513 2113 
L 3513 0 
L 2938 0 
L 2938 2094 
Q 2938 2591 2744 2837 
Q 2550 3084 2163 3084 
Q 1697 3084 1428 2787 
Q 1159 2491 1159 1978 
L 1159 0 
L 581 0 
L 581 4863 
L 1159 4863 
L 1159 2956 
Q 1366 3272 1645 3428 
Q 1925 3584 2291 3584 
Q 2894 3584 3203 3211 
Q 3513 2838 3513 2113 
z
" transform="scale(0.015625)"/>
        <path id="DejaVuSans-61" d="M 2194 1759 
Q 1497 1759 1228 1600 
Q 959 1441 959 1056 
Q 959 750 1161 570 
Q 1363 391 1709 391 
Q 2188 391 2477 730 
Q 2766 1069 2766 1631 
L 2766 1759 
L 2194 1759 
z
M 3341 1997 
L 3341 0 
L 2766 0 
L 2766 531 
Q 2569 213 2275 61 
Q 1981 -91 1556 -91 
Q 1019 -91 701 211 
Q 384 513 384 1019 
Q 384 1609 779 1909 
Q 1175 2209 1959 2209 
L 2766 2209 
L 2766 2266 
Q 2766 2663 2505 2880 
Q 2244 3097 1772 3097 
Q 1472 3097 1187 3025 
Q 903 2953 641 2809 
L 641 3341 
Q 956 3463 1253 3523 
Q 1550 3584 1831 3584 
Q 2591 3584 2966 3190 
Q 3341 2797 3341 1997 
z
" transform="scale(0.015625)"/>
        <path id="DejaVuSans-70" d="M 1159 525 
L 1159 -1331 
L 581 -1331 
L 581 3500 
L 1159 3500 
L 1159 2969 
Q 1341 3281 1617 3432 
Q 1894 3584 2278 3584 
Q 2916 3584 3314 3078 
Q 3713 2572 3713 1747 
Q 3713 922 3314 415 
Q 2916 -91 2278 -91 
Q 1894 -91 1617 61 
Q 1341 213 1159 525 
z
M 3116 1747 
Q 3116 2381 2855 2742 
Q 2594 3103 2138 3103 
Q 1681 3103 1420 2742 
Q 1159 2381 1159 1747 
Q 1159 1113 1420 752 
Q 1681 391 2138 391 
Q 2594 391 2855 752 
Q 3116 1113 3116 1747 
z
" transform="scale(0.015625)"/>
        <path id="DejaVuSans-65" d="M 3597 1894 
L 3597 1613 
L 953 1613 
Q 991 1019 1311 708 
Q 1631 397 2203 397 
Q 2534 397 2845 478 
Q 3156 559 3463 722 
L 3463 178 
Q 3153 47 2828 -22 
Q 2503 -91 2169 -91 
Q 1331 -91 842 396 
Q 353 884 353 1716 
Q 353 2575 817 3079 
Q 1281 3584 2069 3584 
Q 2775 3584 3186 3129 
Q 3597 2675 3597 1894 
z
M 3022 2063 
Q 3016 2534 2758 2815 
Q 2500 3097 2075 3097 
Q 1594 3097 1305 2825 
Q 1016 2553 972 2059 
L 3022 2063 
z
" transform="scale(0.015625)"/>
        <path id="DejaVuSans-4b" d="M 628 4666 
L 1259 4666 
L 1259 2694 
L 3353 4666 
L 4166 4666 
L 1850 2491 
L 4331 0 
L 3500 0 
L 1259 2247 
L 1259 0 
L 628 0 
L 628 4666 
z
" transform="scale(0.015625)"/>
        <path id="DejaVuSans-73" d="M 2834 3397 
L 2834 2853 
Q 2591 2978 2328 3040 
Q 2066 3103 1784 3103 
Q 1356 3103 1142 2972 
Q 928 2841 928 2578 
Q 928 2378 1081 2264 
Q 1234 2150 1697 2047 
L 1894 2003 
Q 2506 1872 2764 1633 
Q 3022 1394 3022 966 
Q 3022 478 2636 193 
Q 2250 -91 1575 -91 
Q 1294 -91 989 -36 
Q 684 19 347 128 
L 347 722 
Q 666 556 975 473 
Q 1284 391 1588 391 
Q 1994 391 2212 530 
Q 2431 669 2431 922 
Q 2431 1156 2273 1281 
Q 2116 1406 1581 1522 
L 1381 1569 
Q 847 1681 609 1914 
Q 372 2147 372 2553 
Q 372 3047 722 3315 
Q 1072 3584 1716 3584 
Q 2034 3584 2315 3537 
Q 2597 3491 2834 3397 
z
" transform="scale(0.015625)"/>
       </defs>
       <use xlink:href="#DejaVuSans-53"/>
       <use xlink:href="#DejaVuSans-68" x="63.476562"/>
       <use xlink:href="#DejaVuSans-61" x="126.855469"/>
       <use xlink:href="#DejaVuSans-70" x="188.134766"/>
       <use xlink:href="#DejaVuSans-65" x="251.611328"/>
       <use xlink:href="#DejaVuSans-4b" x="313.134766"/>
       <use xlink:href="#DejaVuSans-6e" x="378.710938"/>
       <use xlink:href="#DejaVuSans-6f" x="442.089844"/>
       <use xlink:href="#DejaVuSans-74" x="503.271484"/>
       <use xlink:href="#DejaVuSans-73" x="542.480469"/>
      </g>
     </g>
    </g>
    <g id="xtick_4">
     <g id="text_4">
      <!-- SQUARNA -->
      <g style="fill: #262626" transform="translate(507.915 401.177188)scale(0.18 -0.18)">
       <defs>
        <path id="DejaVuSans-51" d="M 2522 4238 
Q 1834 4238 1429 3725 
Q 1025 3213 1025 2328 
Q 1025 1447 1429 934 
Q 1834 422 2522 422 
Q 3209 422 3611 934 
Q 4013 1447 4013 2328 
Q 4013 3213 3611 3725 
Q 3209 4238 2522 4238 
z
M 3406 84 
L 4238 -825 
L 3475 -825 
L 2784 -78 
Q 2681 -84 2626 -87 
Q 2572 -91 2522 -91 
Q 1538 -91 948 567 
Q 359 1225 359 2328 
Q 359 3434 948 4092 
Q 1538 4750 2522 4750 
Q 3503 4750 4090 4092 
Q 4678 3434 4678 2328 
Q 4678 1516 4351 937 
Q 4025 359 3406 84 
z
" transform="scale(0.015625)"/>
        <path id="DejaVuSans-55" d="M 556 4666 
L 1191 4666 
L 1191 1831 
Q 1191 1081 1462 751 
Q 1734 422 2344 422 
Q 2950 422 3222 751 
Q 3494 1081 3494 1831 
L 3494 4666 
L 4128 4666 
L 4128 1753 
Q 4128 841 3676 375 
Q 3225 -91 2344 -91 
Q 1459 -91 1007 375 
Q 556 841 556 1753 
L 556 4666 
z
" transform="scale(0.015625)"/>
       </defs>
       <use xlink:href="#DejaVuSans-53"/>
       <use xlink:href="#DejaVuSans-51" x="63.476562"/>
       <use xlink:href="#DejaVuSans-55" x="142.1875"/>
       <use xlink:href="#DejaVuSans-41" x="215.380859"/>
       <use xlink:href="#DejaVuSans-52" x="283.789062"/>
       <use xlink:href="#DejaVuSans-4e" x="353.271484"/>
       <use xlink:href="#DejaVuSans-41" x="428.076172"/>
      </g>
      <!-- default -->
      <g style="fill: #262626" transform="translate(520.932656 421.33325)scale(0.18 -0.18)">
       <defs>
        <path id="DejaVuSans-75" d="M 544 1381 
L 544 3500 
L 1119 3500 
L 1119 1403 
Q 1119 906 1312 657 
Q 1506 409 1894 409 
Q 2359 409 2629 706 
Q 2900 1003 2900 1516 
L 2900 3500 
L 3475 3500 
L 3475 0 
L 2900 0 
L 2900 538 
Q 2691 219 2414 64 
Q 2138 -91 1772 -91 
Q 1169 -91 856 284 
Q 544 659 544 1381 
z
M 1991 3584 
L 1991 3584 
z
" transform="scale(0.015625)"/>
       </defs>
       <use xlink:href="#DejaVuSans-64"/>
       <use xlink:href="#DejaVuSans-65" x="63.476562"/>
       <use xlink:href="#DejaVuSans-66" x="125"/>
       <use xlink:href="#DejaVuSans-61" x="160.205078"/>
       <use xlink:href="#DejaVuSans-75" x="221.484375"/>
       <use xlink:href="#DejaVuSans-6c" x="284.863281"/>
       <use xlink:href="#DejaVuSans-74" x="312.646484"/>
      </g>
      <!-- top-1 -->
      <g style="fill: #262626" transform="translate(528.877969 441.489312)scale(0.18 -0.18)">
       <defs>
        <path id="DejaVuSans-2d" d="M 313 2009 
L 1997 2009 
L 1997 1497 
L 313 1497 
L 313 2009 
z
" transform="scale(0.015625)"/>
        <path id="DejaVuSans-31" d="M 794 531 
L 1825 531 
L 1825 4091 
L 703 3866 
L 703 4441 
L 1819 4666 
L 2450 4666 
L 2450 531 
L 3481 531 
L 3481 0 
L 794 0 
L 794 531 
z
" transform="scale(0.015625)"/>
       </defs>
       <use xlink:href="#DejaVuSans-74"/>
       <use xlink:href="#DejaVuSans-6f" x="39.208984"/>
       <use xlink:href="#DejaVuSans-70" x="100.390625"/>
       <use xlink:href="#DejaVuSans-2d" x="163.867188"/>
       <use xlink:href="#DejaVuSans-31" x="199.951172"/>
      </g>
     </g>
    </g>
    <g id="xtick_5">
     <g id="text_5">
      <!-- SQUARNA -->
      <g style="fill: #262626" transform="translate(619.515 401.177188)scale(0.18 -0.18)">
       <use xlink:href="#DejaVuSans-53"/>
       <use xlink:href="#DejaVuSans-51" x="63.476562"/>
       <use xlink:href="#DejaVuSans-55" x="142.1875"/>
       <use xlink:href="#DejaVuSans-41" x="215.380859"/>
       <use xlink:href="#DejaVuSans-52" x="283.789062"/>
       <use xlink:href="#DejaVuSans-4e" x="353.271484"/>
       <use xlink:href="#DejaVuSans-41" x="428.076172"/>
      </g>
      <!-- alternative -->
      <g style="fill: #262626" transform="translate(615.463594 421.33325)scale(0.18 -0.18)">
       <defs>
        <path id="DejaVuSans-72" d="M 2631 2963 
Q 2534 3019 2420 3045 
Q 2306 3072 2169 3072 
Q 1681 3072 1420 2755 
Q 1159 2438 1159 1844 
L 1159 0 
L 581 0 
L 581 3500 
L 1159 3500 
L 1159 2956 
Q 1341 3275 1631 3429 
Q 1922 3584 2338 3584 
Q 2397 3584 2469 3576 
Q 2541 3569 2628 3553 
L 2631 2963 
z
" transform="scale(0.015625)"/>
        <path id="DejaVuSans-69" d="M 603 3500 
L 1178 3500 
L 1178 0 
L 603 0 
L 603 3500 
z
M 603 4863 
L 1178 4863 
L 1178 4134 
L 603 4134 
L 603 4863 
z
" transform="scale(0.015625)"/>
        <path id="DejaVuSans-76" d="M 191 3500 
L 800 3500 
L 1894 563 
L 2988 3500 
L 3597 3500 
L 2284 0 
L 1503 0 
L 191 3500 
z
" transform="scale(0.015625)"/>
       </defs>
       <use xlink:href="#DejaVuSans-61"/>
       <use xlink:href="#DejaVuSans-6c" x="61.279297"/>
       <use xlink:href="#DejaVuSans-74" x="89.0625"/>
       <use xlink:href="#DejaVuSans-65" x="128.271484"/>
       <use xlink:href="#DejaVuSans-72" x="189.794922"/>
       <use xlink:href="#DejaVuSans-6e" x="229.158203"/>
       <use xlink:href="#DejaVuSans-61" x="292.537109"/>
       <use xlink:href="#DejaVuSans-74" x="353.816406"/>
       <use xlink:href="#DejaVuSans-69" x="393.025391"/>
       <use xlink:href="#DejaVuSans-76" x="420.808594"/>
       <use xlink:href="#DejaVuSans-65" x="479.988281"/>
      </g>
      <!-- top-1 -->
      <g style="fill: #262626" transform="translate(640.477969 441.489312)scale(0.18 -0.18)">
       <use xlink:href="#DejaVuSans-74"/>
       <use xlink:href="#DejaVuSans-6f" x="39.208984"/>
       <use xlink:href="#DejaVuSans-70" x="100.390625"/>
       <use xlink:href="#DejaVuSans-2d" x="163.867188"/>
       <use xlink:href="#DejaVuSans-31" x="199.951172"/>
      </g>
     </g>
    </g>
    <g id="xtick_6">
     <g id="text_6">
      <!-- MXfold2 -->
      <g style="fill: #262626" transform="translate(739.254375 401.177188)scale(0.18 -0.18)">
       <defs>
        <path id="DejaVuSans-4d" d="M 628 4666 
L 1569 4666 
L 2759 1491 
L 3956 4666 
L 4897 4666 
L 4897 0 
L 4281 0 
L 4281 4097 
L 3078 897 
L 2444 897 
L 1241 4097 
L 1241 0 
L 628 0 
L 628 4666 
z
" transform="scale(0.015625)"/>
        <path id="DejaVuSans-58" d="M 403 4666 
L 1081 4666 
L 2241 2931 
L 3406 4666 
L 4084 4666 
L 2584 2425 
L 4184 0 
L 3506 0 
L 2194 1984 
L 872 0 
L 191 0 
L 1856 2491 
L 403 4666 
z
" transform="scale(0.015625)"/>
        <path id="DejaVuSans-32" d="M 1228 531 
L 3431 531 
L 3431 0 
L 469 0 
L 469 531 
Q 828 903 1448 1529 
Q 2069 2156 2228 2338 
Q 2531 2678 2651 2914 
Q 2772 3150 2772 3378 
Q 2772 3750 2511 3984 
Q 2250 4219 1831 4219 
Q 1534 4219 1204 4116 
Q 875 4013 500 3803 
L 500 4441 
Q 881 4594 1212 4672 
Q 1544 4750 1819 4750 
Q 2544 4750 2975 4387 
Q 3406 4025 3406 3419 
Q 3406 3131 3298 2873 
Q 3191 2616 2906 2266 
Q 2828 2175 2409 1742 
Q 1991 1309 1228 531 
z
" transform="scale(0.015625)"/>
       </defs>
       <use xlink:href="#DejaVuSans-4d"/>
       <use xlink:href="#DejaVuSans-58" x="86.279297"/>
       <use xlink:href="#DejaVuSans-66" x="154.785156"/>
       <use xlink:href="#DejaVuSans-6f" x="189.990234"/>
       <use xlink:href="#DejaVuSans-6c" x="251.171875"/>
       <use xlink:href="#DejaVuSans-64" x="278.955078"/>
       <use xlink:href="#DejaVuSans-32" x="342.431641"/>
      </g>
     </g>
    </g>
    <g id="xtick_7">
     <g id="text_7">
      <!-- SPOT-RNA -->
      <g style="fill: #262626" transform="translate(842.108906 401.177188)scale(0.18 -0.18)">
       <defs>
        <path id="DejaVuSans-4f" d="M 2522 4238 
Q 1834 4238 1429 3725 
Q 1025 3213 1025 2328 
Q 1025 1447 1429 934 
Q 1834 422 2522 422 
Q 3209 422 3611 934 
Q 4013 1447 4013 2328 
Q 4013 3213 3611 3725 
Q 3209 4238 2522 4238 
z
M 2522 4750 
Q 3503 4750 4090 4092 
Q 4678 3434 4678 2328 
Q 4678 1225 4090 567 
Q 3503 -91 2522 -91 
Q 1538 -91 948 565 
Q 359 1222 359 2328 
Q 359 3434 948 4092 
Q 1538 4750 2522 4750 
z
" transform="scale(0.015625)"/>
        <path id="DejaVuSans-54" d="M -19 4666 
L 3928 4666 
L 3928 4134 
L 2272 4134 
L 2272 0 
L 1638 0 
L 1638 4134 
L -19 4134 
L -19 4666 
z
" transform="scale(0.015625)"/>
       </defs>
       <use xlink:href="#DejaVuSans-53"/>
       <use xlink:href="#DejaVuSans-50" x="63.476562"/>
       <use xlink:href="#DejaVuSans-4f" x="123.779297"/>
       <use xlink:href="#DejaVuSans-54" x="202.490234"/>
       <use xlink:href="#DejaVuSans-2d" x="254.449219"/>
       <use xlink:href="#DejaVuSans-52" x="290.533203"/>
       <use xlink:href="#DejaVuSans-4e" x="360.015625"/>
       <use xlink:href="#DejaVuSans-41" x="434.820312"/>
      </g>
     </g>
    </g>
    <g id="xtick_8">
     <g id="text_8">
      <!-- SQUARNA -->
      <g style="fill: #262626" transform="translate(954.315 401.177188)scale(0.18 -0.18)">
       <use xlink:href="#DejaVuSans-53"/>
       <use xlink:href="#DejaVuSans-51" x="63.476562"/>
       <use xlink:href="#DejaVuSans-55" x="142.1875"/>
       <use xlink:href="#DejaVuSans-41" x="215.380859"/>
       <use xlink:href="#DejaVuSans-52" x="283.789062"/>
       <use xlink:href="#DejaVuSans-4e" x="353.271484"/>
       <use xlink:href="#DejaVuSans-41" x="428.076172"/>
      </g>
      <!-- default -->
      <g style="fill: #262626" transform="translate(967.332656 421.33325)scale(0.18 -0.18)">
       <use xlink:href="#DejaVuSans-64"/>
       <use xlink:href="#DejaVuSans-65" x="63.476562"/>
       <use xlink:href="#DejaVuSans-66" x="125"/>
       <use xlink:href="#DejaVuSans-61" x="160.205078"/>
       <use xlink:href="#DejaVuSans-75" x="221.484375"/>
       <use xlink:href="#DejaVuSans-6c" x="284.863281"/>
       <use xlink:href="#DejaVuSans-74" x="312.646484"/>
      </g>
      <!-- top-5 -->
      <g style="fill: #262626" transform="translate(975.277969 441.489312)scale(0.18 -0.18)">
       <defs>
        <path id="DejaVuSans-35" d="M 691 4666 
L 3169 4666 
L 3169 4134 
L 1269 4134 
L 1269 2991 
Q 1406 3038 1543 3061 
Q 1681 3084 1819 3084 
Q 2600 3084 3056 2656 
Q 3513 2228 3513 1497 
Q 3513 744 3044 326 
Q 2575 -91 1722 -91 
Q 1428 -91 1123 -41 
Q 819 9 494 109 
L 494 744 
Q 775 591 1075 516 
Q 1375 441 1709 441 
Q 2250 441 2565 725 
Q 2881 1009 2881 1497 
Q 2881 1984 2565 2268 
Q 2250 2553 1709 2553 
Q 1456 2553 1204 2497 
Q 953 2441 691 2322 
L 691 4666 
z
" transform="scale(0.015625)"/>
       </defs>
       <use xlink:href="#DejaVuSans-74"/>
       <use xlink:href="#DejaVuSans-6f" x="39.208984"/>
       <use xlink:href="#DejaVuSans-70" x="100.390625"/>
       <use xlink:href="#DejaVuSans-2d" x="163.867188"/>
       <use xlink:href="#DejaVuSans-35" x="199.951172"/>
      </g>
     </g>
    </g>
    <g id="xtick_9">
     <g id="text_9">
      <!-- SQUARNA -->
      <g style="fill: #262626" transform="translate(1065.915 401.177188)scale(0.18 -0.18)">
       <use xlink:href="#DejaVuSans-53"/>
       <use xlink:href="#DejaVuSans-51" x="63.476562"/>
       <use xlink:href="#DejaVuSans-55" x="142.1875"/>
       <use xlink:href="#DejaVuSans-41" x="215.380859"/>
       <use xlink:href="#DejaVuSans-52" x="283.789062"/>
       <use xlink:href="#DejaVuSans-4e" x="353.271484"/>
       <use xlink:href="#DejaVuSans-41" x="428.076172"/>
      </g>
      <!-- alternative -->
      <g style="fill: #262626" transform="translate(1061.863594 421.33325)scale(0.18 -0.18)">
       <use xlink:href="#DejaVuSans-61"/>
       <use xlink:href="#DejaVuSans-6c" x="61.279297"/>
       <use xlink:href="#DejaVuSans-74" x="89.0625"/>
       <use xlink:href="#DejaVuSans-65" x="128.271484"/>
       <use xlink:href="#DejaVuSans-72" x="189.794922"/>
       <use xlink:href="#DejaVuSans-6e" x="229.158203"/>
       <use xlink:href="#DejaVuSans-61" x="292.537109"/>
       <use xlink:href="#DejaVuSans-74" x="353.816406"/>
       <use xlink:href="#DejaVuSans-69" x="393.025391"/>
       <use xlink:href="#DejaVuSans-76" x="420.808594"/>
       <use xlink:href="#DejaVuSans-65" x="479.988281"/>
      </g>
      <!-- top-5 -->
      <g style="fill: #262626" transform="translate(1086.877969 441.489312)scale(0.18 -0.18)">
       <use xlink:href="#DejaVuSans-74"/>
       <use xlink:href="#DejaVuSans-6f" x="39.208984"/>
       <use xlink:href="#DejaVuSans-70" x="100.390625"/>
       <use xlink:href="#DejaVuSans-2d" x="163.867188"/>
       <use xlink:href="#DejaVuSans-35" x="199.951172"/>
      </g>
     </g>
    </g>
   </g>
   <g id="matplotlib.axis_2">
    <g id="ytick_1">
     <g id="line2d_1">
      <path d="M 162 312.768 
L 1166.4 312.768 
" clip-path="url(#p7f04e05e0e)" style="fill: none; stroke: #cccccc; stroke-linecap: round"/>
     </g>
     <g id="text_10">
      <!-- 0.6 -->
      <g style="fill: #262626" transform="translate(130.235625 318.086906)scale(0.14 -0.14)">
       <defs>
        <path id="DejaVuSans-30" d="M 2034 4250 
Q 1547 4250 1301 3770 
Q 1056 3291 1056 2328 
Q 1056 1369 1301 889 
Q 1547 409 2034 409 
Q 2525 409 2770 889 
Q 3016 1369 3016 2328 
Q 3016 3291 2770 3770 
Q 2525 4250 2034 4250 
z
M 2034 4750 
Q 2819 4750 3233 4129 
Q 3647 3509 3647 2328 
Q 3647 1150 3233 529 
Q 2819 -91 2034 -91 
Q 1250 -91 836 529 
Q 422 1150 422 2328 
Q 422 3509 836 4129 
Q 1250 4750 2034 4750 
z
" transform="scale(0.015625)"/>
        <path id="DejaVuSans-2e" d="M 684 794 
L 1344 794 
L 1344 0 
L 684 0 
L 684 794 
z
" transform="scale(0.015625)"/>
        <path id="DejaVuSans-36" d="M 2113 2584 
Q 1688 2584 1439 2293 
Q 1191 2003 1191 1497 
Q 1191 994 1439 701 
Q 1688 409 2113 409 
Q 2538 409 2786 701 
Q 3034 994 3034 1497 
Q 3034 2003 2786 2293 
Q 2538 2584 2113 2584 
z
M 3366 4563 
L 3366 3988 
Q 3128 4100 2886 4159 
Q 2644 4219 2406 4219 
Q 1781 4219 1451 3797 
Q 1122 3375 1075 2522 
Q 1259 2794 1537 2939 
Q 1816 3084 2150 3084 
Q 2853 3084 3261 2657 
Q 3669 2231 3669 1497 
Q 3669 778 3244 343 
Q 2819 -91 2113 -91 
Q 1303 -91 875 529 
Q 447 1150 447 2328 
Q 447 3434 972 4092 
Q 1497 4750 2381 4750 
Q 2619 4750 2861 4703 
Q 3103 4656 3366 4563 
z
" transform="scale(0.015625)"/>
       </defs>
       <use xlink:href="#DejaVuSans-30"/>
       <use xlink:href="#DejaVuSans-2e" x="63.623047"/>
       <use xlink:href="#DejaVuSans-36" x="95.410156"/>
      </g>
     </g>
    </g>
    <g id="ytick_2">
     <g id="line2d_2">
      <path d="M 162 182.304 
L 1166.4 182.304 
" clip-path="url(#p7f04e05e0e)" style="fill: none; stroke: #cccccc; stroke-linecap: round"/>
     </g>
     <g id="text_11">
      <!-- 0.8 -->
      <g style="fill: #262626" transform="translate(130.235625 187.622906)scale(0.14 -0.14)">
       <defs>
        <path id="DejaVuSans-38" d="M 2034 2216 
Q 1584 2216 1326 1975 
Q 1069 1734 1069 1313 
Q 1069 891 1326 650 
Q 1584 409 2034 409 
Q 2484 409 2743 651 
Q 3003 894 3003 1313 
Q 3003 1734 2745 1975 
Q 2488 2216 2034 2216 
z
M 1403 2484 
Q 997 2584 770 2862 
Q 544 3141 544 3541 
Q 544 4100 942 4425 
Q 1341 4750 2034 4750 
Q 2731 4750 3128 4425 
Q 3525 4100 3525 3541 
Q 3525 3141 3298 2862 
Q 3072 2584 2669 2484 
Q 3125 2378 3379 2068 
Q 3634 1759 3634 1313 
Q 3634 634 3220 271 
Q 2806 -91 2034 -91 
Q 1263 -91 848 271 
Q 434 634 434 1313 
Q 434 1759 690 2068 
Q 947 2378 1403 2484 
z
M 1172 3481 
Q 1172 3119 1398 2916 
Q 1625 2713 2034 2713 
Q 2441 2713 2670 2916 
Q 2900 3119 2900 3481 
Q 2900 3844 2670 4047 
Q 2441 4250 2034 4250 
Q 1625 4250 1398 4047 
Q 1172 3844 1172 3481 
z
" transform="scale(0.015625)"/>
       </defs>
       <use xlink:href="#DejaVuSans-30"/>
       <use xlink:href="#DejaVuSans-2e" x="63.623047"/>
       <use xlink:href="#DejaVuSans-38" x="95.410156"/>
      </g>
     </g>
    </g>
    <g id="ytick_3">
     <g id="line2d_3">
      <path d="M 162 51.84 
L 1166.4 51.84 
" clip-path="url(#p7f04e05e0e)" style="fill: none; stroke: #cccccc; stroke-linecap: round"/>
     </g>
     <g id="text_12">
      <!-- 1.0 -->
      <g style="fill: #262626" transform="translate(130.235625 57.158906)scale(0.14 -0.14)">
       <use xlink:href="#DejaVuSans-31"/>
       <use xlink:href="#DejaVuSans-2e" x="63.623047"/>
       <use xlink:href="#DejaVuSans-30" x="95.410156"/>
      </g>
     </g>
    </g>
    <g id="text_13">
     <!-- F-score -->
     <g style="fill: #262626" transform="translate(122.07625 251.145)rotate(-90)scale(0.2 -0.2)">
      <defs>
       <path id="DejaVuSans-46" d="M 628 4666 
L 3309 4666 
L 3309 4134 
L 1259 4134 
L 1259 2759 
L 3109 2759 
L 3109 2228 
L 1259 2228 
L 1259 0 
L 628 0 
L 628 4666 
z
" transform="scale(0.015625)"/>
       <path id="DejaVuSans-63" d="M 3122 3366 
L 3122 2828 
Q 2878 2963 2633 3030 
Q 2388 3097 2138 3097 
Q 1578 3097 1268 2742 
Q 959 2388 959 1747 
Q 959 1106 1268 751 
Q 1578 397 2138 397 
Q 2388 397 2633 464 
Q 2878 531 3122 666 
L 3122 134 
Q 2881 22 2623 -34 
Q 2366 -91 2075 -91 
Q 1284 -91 818 406 
Q 353 903 353 1747 
Q 353 2603 823 3093 
Q 1294 3584 2113 3584 
Q 2378 3584 2631 3529 
Q 2884 3475 3122 3366 
z
" transform="scale(0.015625)"/>
      </defs>
      <use xlink:href="#DejaVuSans-46"/>
      <use xlink:href="#DejaVuSans-2d" x="57.519531"/>
      <use xlink:href="#DejaVuSans-73" x="93.603516"/>
      <use xlink:href="#DejaVuSans-63" x="145.703125"/>
      <use xlink:href="#DejaVuSans-6f" x="200.683594"/>
      <use xlink:href="#DejaVuSans-72" x="261.865234"/>
      <use xlink:href="#DejaVuSans-65" x="300.728516"/>
     </g>
    </g>
   </g>
   <g id="PolyCollection_1">
    <path d="M 221.290701 704.16 
L 214.309299 704.16 
L 214.260278 697.570909 
L 214.226233 690.981818 
L 214.206546 684.392727 
L 214.200254 677.803636 
L 214.206065 671.214545 
L 214.2224 664.625455 
L 214.247422 658.036364 
L 214.279085 651.447273 
L 214.315183 644.858182 
L 214.353395 638.269091 
L 214.391342 631.68 
L 214.42663 625.090909 
L 214.456899 618.501818 
L 214.479865 611.912727 
L 214.493361 605.323636 
L 214.495371 598.734545 
L 214.484061 592.145455 
L 214.457804 585.556364 
L 214.415204 578.967273 
L 214.355116 572.378182 
L 214.27666 565.789091 
L 214.179234 559.2 
L 214.062526 552.610909 
L 213.926518 546.021818 
L 213.771491 539.432727 
L 213.598026 532.843636 
L 213.406995 526.254545 
L 213.199558 519.665455 
L 212.977142 513.076364 
L 212.741424 506.487273 
L 212.4943 499.898182 
L 212.237855 493.309091 
L 211.974322 486.72 
L 211.70603 480.130909 
L 211.435361 473.541818 
L 211.164688 466.952727 
L 210.89632 460.363636 
L 210.63244 453.774545 
L 210.375048 447.185455 
L 210.125903 440.596364 
L 209.886472 434.007273 
L 209.65788 427.418182 
L 209.440876 420.829091 
L 209.235798 414.24 
L 209.042554 407.650909 
L 208.860606 401.061818 
L 208.688978 394.472727 
L 208.526254 387.883636 
L 208.370608 381.294545 
L 208.219823 374.705455 
L 208.071334 368.116364 
L 207.922273 361.527273 
L 207.769517 354.938182 
L 207.609749 348.349091 
L 207.439521 341.76 
L 207.255321 335.170909 
L 207.053644 328.581818 
L 206.831064 321.992727 
L 206.584309 315.403636 
L 206.310339 308.814545 
L 206.006416 302.225455 
L 205.670182 295.636364 
L 205.299725 289.047273 
L 204.893647 282.458182 
L 204.451124 275.869091 
L 203.97196 269.28 
L 203.45663 262.690909 
L 202.906315 256.101818 
L 202.322927 249.512727 
L 201.709123 242.923636 
L 201.0683 236.334545 
L 200.404585 229.745455 
L 199.722809 223.156364 
L 199.028464 216.567273 
L 198.327656 209.978182 
L 197.627035 203.389091 
L 196.933727 196.8 
L 196.255241 190.210909 
L 195.599377 183.621818 
L 194.974123 177.032727 
L 194.387543 170.443636 
L 193.847657 163.854545 
L 193.362319 157.265455 
L 192.939093 150.676364 
L 192.585117 144.087273 
L 192.30698 137.498182 
L 192.110586 130.909091 
L 192.001035 124.32 
L 191.982503 117.730909 
L 192.058134 111.141818 
L 192.229943 104.552727 
L 192.498748 97.963636 
L 192.8641 91.374545 
L 193.324263 84.785455 
L 193.876199 78.196364 
L 194.515595 71.607273 
L 195.236914 65.018182 
L 196.033477 58.429091 
L 196.897578 51.84 
L 238.702422 51.84 
L 238.702422 51.84 
L 239.566523 58.429091 
L 240.363086 65.018182 
L 241.084405 71.607273 
L 241.723801 78.196364 
L 242.275737 84.785455 
L 242.7359 91.374545 
L 243.101252 97.963636 
L 243.370057 104.552727 
L 243.541866 111.141818 
L 243.617497 117.730909 
L 243.598965 124.32 
L 243.489414 130.909091 
L 243.29302 137.498182 
L 243.014883 144.087273 
L 242.660907 150.676364 
L 242.237681 157.265455 
L 241.752343 163.854545 
L 241.212457 170.443636 
L 240.625877 177.032727 
L 240.000623 183.621818 
L 239.344759 190.210909 
L 238.666273 196.8 
L 237.972965 203.389091 
L 237.272344 209.978182 
L 236.571536 216.567273 
L 235.877191 223.156364 
L 235.195415 229.745455 
L 234.5317 236.334545 
L 233.890877 242.923636 
L 233.277073 249.512727 
L 232.693685 256.101818 
L 232.14337 262.690909 
L 231.62804 269.28 
L 231.148876 275.869091 
L 230.706353 282.458182 
L 230.300275 289.047273 
L 229.929818 295.636364 
L 229.593584 302.225455 
L 229.289661 308.814545 
L 229.015691 315.403636 
L 228.768936 321.992727 
L 228.546356 328.581818 
L 228.344679 335.170909 
L 228.160479 341.76 
L 227.990251 348.349091 
L 227.830483 354.938182 
L 227.677727 361.527273 
L 227.528666 368.116364 
L 227.380177 374.705455 
L 227.229392 381.294545 
L 227.073746 387.883636 
L 226.911022 394.472727 
L 226.739394 401.061818 
L 226.557446 407.650909 
L 226.364202 414.24 
L 226.159124 420.829091 
L 225.94212 427.418182 
L 225.713528 434.007273 
L 225.474097 440.596364 
L 225.224952 447.185455 
L 224.96756 453.774545 
L 224.70368 460.363636 
L 224.435312 466.952727 
L 224.164639 473.541818 
L 223.89397 480.130909 
L 223.625678 486.72 
L 223.362145 493.309091 
L 223.1057 499.898182 
L 222.858576 506.487273 
L 222.622858 513.076364 
L 222.400442 519.665455 
L 222.193005 526.254545 
L 222.001974 532.843636 
L 221.828509 539.432727 
L 221.673482 546.021818 
L 221.537474 552.610909 
L 221.420766 559.2 
L 221.32334 565.789091 
L 221.244884 572.378182 
L 221.184796 578.967273 
L 221.142196 585.556364 
L 221.115939 592.145455 
L 221.104629 598.734545 
L 221.106639 605.323636 
L 221.120135 611.912727 
L 221.143101 618.501818 
L 221.17337 625.090909 
L 221.208658 631.68 
L 221.246605 638.269091 
L 221.284817 644.858182 
L 221.320915 651.447273 
L 221.352578 658.036364 
L 221.3776 664.625455 
L 221.393935 671.214545 
L 221.399746 677.803636 
L 221.393454 684.392727 
L 221.373767 690.981818 
L 221.339722 697.570909 
L 221.290701 704.16 
z
" clip-path="url(#p7f04e05e0e)" style="fill: #d3d3d3; stroke: #7f7f7f; stroke-width: 3"/>
   </g>
   <g id="PolyCollection_2">
    <path d="M 331.38094 704.16 
L 327.41906 704.16 
L 327.281244 697.570909 
L 327.145486 690.981818 
L 327.013302 684.392727 
L 326.886315 677.803636 
L 326.766228 671.214545 
L 326.6548 664.625455 
L 326.55379 658.036364 
L 326.464905 651.447273 
L 326.389724 644.858182 
L 326.329618 638.269091 
L 326.285669 631.68 
L 326.25858 625.090909 
L 326.248605 618.501818 
L 326.255484 611.912727 
L 326.278397 605.323636 
L 326.315953 598.734545 
L 326.366192 592.145455 
L 326.426627 585.556364 
L 326.494317 578.967273 
L 326.565958 572.378182 
L 326.638 565.789091 
L 326.706781 559.2 
L 326.768661 552.610909 
L 326.820157 546.021818 
L 326.858065 539.432727 
L 326.879562 532.843636 
L 326.882271 526.254545 
L 326.864306 519.665455 
L 326.824268 513.076364 
L 326.76121 506.487273 
L 326.674568 499.898182 
L 326.564061 493.309091 
L 326.429572 486.72 
L 326.271018 480.130909 
L 326.088224 473.541818 
L 325.880804 466.952727 
L 325.648074 460.363636 
L 325.388989 453.774545 
L 325.102128 447.185455 
L 324.785721 440.596364 
L 324.437722 434.007273 
L 324.055927 427.418182 
L 323.638126 420.829091 
L 323.182287 414.24 
L 322.686753 407.650909 
L 322.150437 401.061818 
L 321.573016 394.472727 
L 320.955085 387.883636 
L 320.298282 381.294545 
L 319.605362 374.705455 
L 318.880212 368.116364 
L 318.127814 361.527273 
L 317.354143 354.938182 
L 316.566011 348.349091 
L 315.770866 341.76 
L 314.976544 335.170909 
L 314.191002 328.581818 
L 313.422024 321.992727 
L 312.676933 315.403636 
L 311.962303 308.814545 
L 311.283696 302.225455 
L 310.645434 295.636364 
L 310.050402 289.047273 
L 309.499921 282.458182 
L 308.993666 275.869091 
L 308.529665 269.28 
L 308.104363 262.690909 
L 307.712769 256.101818 
L 307.34868 249.512727 
L 307.00498 242.923636 
L 306.674005 236.334545 
L 306.347973 229.745455 
L 306.019446 223.156364 
L 305.681816 216.567273 
L 305.329791 209.978182 
L 304.959848 203.389091 
L 304.57063 196.8 
L 304.163255 190.210909 
L 303.741521 183.621818 
L 303.311975 177.032727 
L 302.883849 170.443636 
L 302.468835 163.854545 
L 302.080728 157.265455 
L 301.734931 150.676364 
L 301.447842 144.087273 
L 301.236173 137.498182 
L 301.116206 130.909091 
L 301.103047 124.32 
L 301.209912 117.730909 
L 301.447476 111.141818 
L 301.823328 104.552727 
L 302.341563 97.963636 
L 303.002521 91.374545 
L 303.802703 84.785455 
L 304.734845 78.196364 
L 305.788164 71.607273 
L 306.948749 65.018182 
L 308.200077 58.429091 
L 309.52362 51.84 
L 349.27638 51.84 
L 349.27638 51.84 
L 350.599923 58.429091 
L 351.851251 65.018182 
L 353.011836 71.607273 
L 354.065155 78.196364 
L 354.997297 84.785455 
L 355.797479 91.374545 
L 356.458437 97.963636 
L 356.976672 104.552727 
L 357.352524 111.141818 
L 357.590088 117.730909 
L 357.696953 124.32 
L 357.683794 130.909091 
L 357.563827 137.498182 
L 357.352158 144.087273 
L 357.065069 150.676364 
L 356.719272 157.265455 
L 356.331165 163.854545 
L 355.916151 170.443636 
L 355.488025 177.032727 
L 355.058479 183.621818 
L 354.636745 190.210909 
L 354.22937 196.8 
L 353.840152 203.389091 
L 353.470209 209.978182 
L 353.118184 216.567273 
L 352.780554 223.156364 
L 352.452027 229.745455 
L 352.125995 236.334545 
L 351.79502 242.923636 
L 351.45132 249.512727 
L 351.087231 256.101818 
L 350.695637 262.690909 
L 350.270335 269.28 
L 349.806334 275.869091 
L 349.300079 282.458182 
L 348.749598 289.047273 
L 348.154566 295.636364 
L 347.516304 302.225455 
L 346.837697 308.814545 
L 346.123067 315.403636 
L 345.377976 321.992727 
L 344.608998 328.581818 
L 343.823456 335.170909 
L 343.029134 341.76 
L 342.233989 348.349091 
L 341.445857 354.938182 
L 340.672186 361.527273 
L 339.919788 368.116364 
L 339.194638 374.705455 
L 338.501718 381.294545 
L 337.844915 387.883636 
L 337.226984 394.472727 
L 336.649563 401.061818 
L 336.113247 407.650909 
L 335.617713 414.24 
L 335.161874 420.829091 
L 334.744073 427.418182 
L 334.362278 434.007273 
L 334.014279 440.596364 
L 333.697872 447.185455 
L 333.411011 453.774545 
L 333.151926 460.363636 
L 332.919196 466.952727 
L 332.711776 473.541818 
L 332.528982 480.130909 
L 332.370428 486.72 
L 332.235939 493.309091 
L 332.125432 499.898182 
L 332.03879 506.487273 
L 331.975732 513.076364 
L 331.935694 519.665455 
L 331.917729 526.254545 
L 331.920438 532.843636 
L 331.941935 539.432727 
L 331.979843 546.021818 
L 332.031339 552.610909 
L 332.093219 559.2 
L 332.162 565.789091 
L 332.234042 572.378182 
L 332.305683 578.967273 
L 332.373373 585.556364 
L 332.433808 592.145455 
L 332.484047 598.734545 
L 332.521603 605.323636 
L 332.544516 611.912727 
L 332.551395 618.501818 
L 332.54142 625.090909 
L 332.514331 631.68 
L 332.470382 638.269091 
L 332.410276 644.858182 
L 332.335095 651.447273 
L 332.24621 658.036364 
L 332.1452 664.625455 
L 332.033772 671.214545 
L 331.913685 677.803636 
L 331.786698 684.392727 
L 331.654514 690.981818 
L 331.518756 697.570909 
L 331.38094 704.16 
z
" clip-path="url(#p7f04e05e0e)" style="fill: #d3d3d3; stroke: #7f7f7f; stroke-width: 3"/>
   </g>
   <g id="PolyCollection_3">
    <path d="M 443.828472 704.16 
L 438.171528 704.16 
L 438.110239 697.570909 
L 438.058262 690.981818 
L 438.014839 684.392727 
L 437.978921 677.803636 
L 437.949199 671.214545 
L 437.924143 664.625455 
L 437.902036 658.036364 
L 437.881029 651.447273 
L 437.859186 644.858182 
L 437.834532 638.269091 
L 437.805103 631.68 
L 437.768988 625.090909 
L 437.72437 618.501818 
L 437.669554 611.912727 
L 437.602996 605.323636 
L 437.523323 598.734545 
L 437.429342 592.145455 
L 437.320049 585.556364 
L 437.19463 578.967273 
L 437.052458 572.378182 
L 436.893094 565.789091 
L 436.716276 559.2 
L 436.52192 552.610909 
L 436.310116 546.021818 
L 436.081128 539.432727 
L 435.835399 532.843636 
L 435.573556 526.254545 
L 435.296417 519.665455 
L 435.005005 513.076364 
L 434.700553 506.487273 
L 434.384513 499.898182 
L 434.058563 493.309091 
L 433.724603 486.72 
L 433.384748 480.130909 
L 433.041309 473.541818 
L 432.696767 466.952727 
L 432.353735 460.363636 
L 432.014906 453.774545 
L 431.682998 447.185455 
L 431.360683 440.596364 
L 431.05051 434.007273 
L 430.754829 427.418182 
L 430.475711 420.829091 
L 430.214865 414.24 
L 429.973568 407.650909 
L 429.752601 401.061818 
L 429.552197 394.472727 
L 429.372007 387.883636 
L 429.211077 381.294545 
L 429.067853 374.705455 
L 428.940198 368.116364 
L 428.825435 361.527273 
L 428.720402 354.938182 
L 428.62153 348.349091 
L 428.524934 341.76 
L 428.426514 335.170909 
L 428.322064 328.581818 
L 428.207387 321.992727 
L 428.078409 315.403636 
L 427.931289 308.814545 
L 427.762522 302.225455 
L 427.569032 295.636364 
L 427.348248 289.047273 
L 427.098172 282.458182 
L 426.817419 275.869091 
L 426.505254 269.28 
L 426.161598 262.690909 
L 425.787032 256.101818 
L 425.382777 249.512727 
L 424.950671 242.923636 
L 424.493133 236.334545 
L 424.013124 229.745455 
L 423.51411 223.156364 
L 423.000017 216.567273 
L 422.475199 209.978182 
L 421.944403 203.389091 
L 421.412738 196.8 
L 420.885651 190.210909 
L 420.368903 183.621818 
L 419.868543 177.032727 
L 419.390878 170.443636 
L 418.94243 163.854545 
L 418.529894 157.265455 
L 418.160063 150.676364 
L 417.839749 144.087273 
L 417.575678 137.498182 
L 417.374367 130.909091 
L 417.241983 124.32 
L 417.184189 117.730909 
L 417.205979 111.141818 
L 417.31151 104.552727 
L 417.50394 97.963636 
L 417.785277 91.374545 
L 418.156254 84.785455 
L 418.616225 78.196364 
L 419.163103 71.607273 
L 419.793343 65.018182 
L 420.501961 58.429091 
L 421.282611 51.84 
L 460.717389 51.84 
L 460.717389 51.84 
L 461.498039 58.429091 
L 462.206657 65.018182 
L 462.836897 71.607273 
L 463.383775 78.196364 
L 463.843746 84.785455 
L 464.214723 91.374545 
L 464.49606 97.963636 
L 464.68849 104.552727 
L 464.794021 111.141818 
L 464.815811 117.730909 
L 464.758017 124.32 
L 464.625633 130.909091 
L 464.424322 137.498182 
L 464.160251 144.087273 
L 463.839937 150.676364 
L 463.470106 157.265455 
L 463.05757 163.854545 
L 462.609122 170.443636 
L 462.131457 177.032727 
L 461.631097 183.621818 
L 461.114349 190.210909 
L 460.587262 196.8 
L 460.055597 203.389091 
L 459.524801 209.978182 
L 458.999983 216.567273 
L 458.48589 223.156364 
L 457.986876 229.745455 
L 457.506867 236.334545 
L 457.049329 242.923636 
L 456.617223 249.512727 
L 456.212968 256.101818 
L 455.838402 262.690909 
L 455.494746 269.28 
L 455.182581 275.869091 
L 454.901828 282.458182 
L 454.651752 289.047273 
L 454.430968 295.636364 
L 454.237478 302.225455 
L 454.068711 308.814545 
L 453.921591 315.403636 
L 453.792613 321.992727 
L 453.677936 328.581818 
L 453.573486 335.170909 
L 453.475066 341.76 
L 453.37847 348.349091 
L 453.279598 354.938182 
L 453.174565 361.527273 
L 453.059802 368.116364 
L 452.932147 374.705455 
L 452.788923 381.294545 
L 452.627993 387.883636 
L 452.447803 394.472727 
L 452.247399 401.061818 
L 452.026432 407.650909 
L 451.785135 414.24 
L 451.524289 420.829091 
L 451.245171 427.418182 
L 450.94949 434.007273 
L 450.639317 440.596364 
L 450.317002 447.185455 
L 449.985094 453.774545 
L 449.646265 460.363636 
L 449.303233 466.952727 
L 448.958691 473.541818 
L 448.615252 480.130909 
L 448.275397 486.72 
L 447.941437 493.309091 
L 447.615487 499.898182 
L 447.299447 506.487273 
L 446.994995 513.076364 
L 446.703583 519.665455 
L 446.426444 526.254545 
L 446.164601 532.843636 
L 445.918872 539.432727 
L 445.689884 546.021818 
L 445.47808 552.610909 
L 445.283724 559.2 
L 445.106906 565.789091 
L 444.947542 572.378182 
L 444.80537 578.967273 
L 444.679951 585.556364 
L 444.570658 592.145455 
L 444.476677 598.734545 
L 444.397004 605.323636 
L 444.330446 611.912727 
L 444.27563 618.501818 
L 444.231012 625.090909 
L 444.194897 631.68 
L 444.165468 638.269091 
L 444.140814 644.858182 
L 444.118971 651.447273 
L 444.097964 658.036364 
L 444.075857 664.625455 
L 444.050801 671.214545 
L 444.021079 677.803636 
L 443.985161 684.392727 
L 443.941738 690.981818 
L 443.889761 697.570909 
L 443.828472 704.16 
z
" clip-path="url(#p7f04e05e0e)" style="fill: #d3d3d3; stroke: #7f7f7f; stroke-width: 3"/>
   </g>
   <g id="PolyCollection_4">
    <path d="M 555.557036 704.16 
L 549.642964 704.16 
L 549.554827 697.570909 
L 549.471989 690.981818 
L 549.393486 684.392727 
L 549.318143 677.803636 
L 549.244615 671.214545 
L 549.171454 664.625455 
L 549.097167 658.036364 
L 549.020285 651.447273 
L 548.939436 644.858182 
L 548.853406 638.269091 
L 548.761206 631.68 
L 548.662117 625.090909 
L 548.555739 618.501818 
L 548.442012 611.912727 
L 548.321227 605.323636 
L 548.194026 598.734545 
L 548.061376 592.145455 
L 547.924533 585.556364 
L 547.784988 578.967273 
L 547.644407 572.378182 
L 547.504549 565.789091 
L 547.367193 559.2 
L 547.234048 552.610909 
L 547.106673 546.021818 
L 546.986401 539.432727 
L 546.874264 532.843636 
L 546.770943 526.254545 
L 546.676716 519.665455 
L 546.591439 513.076364 
L 546.51453 506.487273 
L 546.444979 499.898182 
L 546.381373 493.309091 
L 546.321935 486.72 
L 546.264578 480.130909 
L 546.206966 473.541818 
L 546.146589 466.952727 
L 546.080833 460.363636 
L 546.007056 453.774545 
L 545.922657 447.185455 
L 545.825145 440.596364 
L 545.712194 434.007273 
L 545.581686 427.418182 
L 545.431753 420.829091 
L 545.260798 414.24 
L 545.06751 407.650909 
L 544.850867 401.061818 
L 544.610138 394.472727 
L 544.344868 387.883636 
L 544.054868 381.294545 
L 543.740201 374.705455 
L 543.401162 368.116364 
L 543.038272 361.527273 
L 542.652256 354.938182 
L 542.244042 348.349091 
L 541.814745 341.76 
L 541.365667 335.170909 
L 540.898287 328.581818 
L 540.414254 321.992727 
L 539.91538 315.403636 
L 539.403622 308.814545 
L 538.881067 302.225455 
L 538.349908 295.636364 
L 537.812414 289.047273 
L 537.2709 282.458182 
L 536.727682 275.869091 
L 536.185049 269.28 
L 535.645219 262.690909 
L 535.110307 256.101818 
L 534.582303 249.512727 
L 534.063051 242.923636 
L 533.554248 236.334545 
L 533.057457 229.745455 
L 532.574134 223.156364 
L 532.105669 216.567273 
L 531.653444 209.978182 
L 531.218905 203.389091 
L 530.803637 196.8 
L 530.409442 190.210909 
L 530.038421 183.621818 
L 529.693041 177.032727 
L 529.376186 170.443636 
L 529.091191 163.854545 
L 528.841848 157.265455 
L 528.632375 150.676364 
L 528.467364 144.087273 
L 528.351681 137.498182 
L 528.290344 130.909091 
L 528.28837 124.32 
L 528.350593 117.730909 
L 528.481478 111.141818 
L 528.684914 104.552727 
L 528.964021 97.963636 
L 529.320967 91.374545 
L 529.756803 84.785455 
L 530.271336 78.196364 
L 530.86304 71.607273 
L 531.529009 65.018182 
L 532.264959 58.429091 
L 533.06529 51.84 
L 572.13471 51.84 
L 572.13471 51.84 
L 572.935041 58.429091 
L 573.670991 65.018182 
L 574.33696 71.607273 
L 574.928664 78.196364 
L 575.443197 84.785455 
L 575.879033 91.374545 
L 576.235979 97.963636 
L 576.515086 104.552727 
L 576.718522 111.141818 
L 576.849407 117.730909 
L 576.91163 124.32 
L 576.909656 130.909091 
L 576.848319 137.498182 
L 576.732636 144.087273 
L 576.567625 150.676364 
L 576.358152 157.265455 
L 576.108809 163.854545 
L 575.823814 170.443636 
L 575.506959 177.032727 
L 575.161579 183.621818 
L 574.790558 190.210909 
L 574.396363 196.8 
L 573.981095 203.389091 
L 573.546556 209.978182 
L 573.094331 216.567273 
L 572.625866 223.156364 
L 572.142543 229.745455 
L 571.645752 236.334545 
L 571.136949 242.923636 
L 570.617697 249.512727 
L 570.089693 256.101818 
L 569.554781 262.690909 
L 569.014951 269.28 
L 568.472318 275.869091 
L 567.9291 282.458182 
L 567.387586 289.047273 
L 566.850092 295.636364 
L 566.318933 302.225455 
L 565.796378 308.814545 
L 565.28462 315.403636 
L 564.785746 321.992727 
L 564.301713 328.581818 
L 563.834333 335.170909 
L 563.385255 341.76 
L 562.955958 348.349091 
L 562.547744 354.938182 
L 562.161728 361.527273 
L 561.798838 368.116364 
L 561.459799 374.705455 
L 561.145132 381.294545 
L 560.855132 387.883636 
L 560.589862 394.472727 
L 560.349133 401.061818 
L 560.13249 407.650909 
L 559.939202 414.24 
L 559.768247 420.829091 
L 559.618314 427.418182 
L 559.487806 434.007273 
L 559.374855 440.596364 
L 559.277343 447.185455 
L 559.192944 453.774545 
L 559.119167 460.363636 
L 559.053411 466.952727 
L 558.993034 473.541818 
L 558.935422 480.130909 
L 558.878065 486.72 
L 558.818627 493.309091 
L 558.755021 499.898182 
L 558.68547 506.487273 
L 558.608561 513.076364 
L 558.523284 519.665455 
L 558.429057 526.254545 
L 558.325736 532.843636 
L 558.213599 539.432727 
L 558.093327 546.021818 
L 557.965952 552.610909 
L 557.832807 559.2 
L 557.695451 565.789091 
L 557.555593 572.378182 
L 557.415012 578.967273 
L 557.275467 585.556364 
L 557.138624 592.145455 
L 557.005974 598.734545 
L 556.878773 605.323636 
L 556.757988 611.912727 
L 556.644261 618.501818 
L 556.537883 625.090909 
L 556.438794 631.68 
L 556.346594 638.269091 
L 556.260564 644.858182 
L 556.179715 651.447273 
L 556.102833 658.036364 
L 556.028546 664.625455 
L 555.955385 671.214545 
L 555.881857 677.803636 
L 555.806514 684.392727 
L 555.728011 690.981818 
L 555.645173 697.570909 
L 555.557036 704.16 
z
" clip-path="url(#p7f04e05e0e)" style="fill: #d3d3d3; stroke: #7f7f7f; stroke-width: 3"/>
   </g>
   <g id="PolyCollection_5">
    <path d="M 667.691008 704.16 
L 660.708992 704.16 
L 660.64839 697.570909 
L 660.599901 690.981818 
L 660.562635 684.392727 
L 660.535407 677.803636 
L 660.516777 671.214545 
L 660.505098 664.625455 
L 660.49858 658.036364 
L 660.495347 651.447273 
L 660.4935 644.858182 
L 660.491179 638.269091 
L 660.486616 631.68 
L 660.478187 625.090909 
L 660.46445 618.501818 
L 660.444175 611.912727 
L 660.416363 605.323636 
L 660.380252 598.734545 
L 660.33531 592.145455 
L 660.281227 585.556364 
L 660.217888 578.967273 
L 660.145345 572.378182 
L 660.063784 565.789091 
L 659.973486 559.2 
L 659.874799 552.610909 
L 659.768098 546.021818 
L 659.653758 539.432727 
L 659.532131 532.843636 
L 659.403528 526.254545 
L 659.268205 519.665455 
L 659.126364 513.076364 
L 658.978148 506.487273 
L 658.823652 499.898182 
L 658.66293 493.309091 
L 658.496007 486.72 
L 658.322893 480.130909 
L 658.143592 473.541818 
L 657.958112 466.952727 
L 657.766467 460.363636 
L 657.568686 453.774545 
L 657.364801 447.185455 
L 657.154844 440.596364 
L 656.938834 434.007273 
L 656.716765 427.418182 
L 656.488589 420.829091 
L 656.254197 414.24 
L 656.01341 407.650909 
L 655.765964 401.061818 
L 655.5115 394.472727 
L 655.249567 387.883636 
L 654.97962 381.294545 
L 654.701029 374.705455 
L 654.413096 368.116364 
L 654.115074 361.527273 
L 653.806189 354.938182 
L 653.485668 348.349091 
L 653.152769 341.76 
L 652.806807 335.170909 
L 652.447184 328.581818 
L 652.073412 321.992727 
L 651.685133 315.403636 
L 651.282138 308.814545 
L 650.864378 302.225455 
L 650.431973 295.636364 
L 649.985216 289.047273 
L 649.524575 282.458182 
L 649.050694 275.869091 
L 648.564393 269.28 
L 648.066673 262.690909 
L 647.558718 256.101818 
L 647.041909 249.512727 
L 646.517836 242.923636 
L 645.988319 236.334545 
L 645.455435 229.745455 
L 644.921543 223.156364 
L 644.389319 216.567273 
L 643.861785 209.978182 
L 643.342337 203.389091 
L 642.83477 196.8 
L 642.343287 190.210909 
L 641.8725 183.621818 
L 641.427416 177.032727 
L 641.013399 170.443636 
L 640.636121 163.854545 
L 640.301477 157.265455 
L 640.015496 150.676364 
L 639.784216 144.087273 
L 639.613551 137.498182 
L 639.50914 130.909091 
L 639.476186 124.32 
L 639.519294 117.730909 
L 639.642306 111.141818 
L 639.848153 104.552727 
L 640.138716 97.963636 
L 640.51471 91.374545 
L 640.975602 84.785455 
L 641.519557 78.196364 
L 642.143421 71.607273 
L 642.842744 65.018182 
L 643.611844 58.429091 
L 644.443905 51.84 
L 683.956095 51.84 
L 683.956095 51.84 
L 684.788156 58.429091 
L 685.557256 65.018182 
L 686.256579 71.607273 
L 686.880443 78.196364 
L 687.424398 84.785455 
L 687.88529 91.374545 
L 688.261284 97.963636 
L 688.551847 104.552727 
L 688.757694 111.141818 
L 688.880706 117.730909 
L 688.923814 124.32 
L 688.89086 130.909091 
L 688.786449 137.498182 
L 688.615784 144.087273 
L 688.384504 150.676364 
L 688.098523 157.265455 
L 687.763879 163.854545 
L 687.386601 170.443636 
L 686.972584 177.032727 
L 686.5275 183.621818 
L 686.056713 190.210909 
L 685.56523 196.8 
L 685.057663 203.389091 
L 684.538215 209.978182 
L 684.010681 216.567273 
L 683.478457 223.156364 
L 682.944565 229.745455 
L 682.411681 236.334545 
L 681.882164 242.923636 
L 681.358091 249.512727 
L 680.841282 256.101818 
L 680.333327 262.690909 
L 679.835607 269.28 
L 679.349306 275.869091 
L 678.875425 282.458182 
L 678.414784 289.047273 
L 677.968027 295.636364 
L 677.535622 302.225455 
L 677.117862 308.814545 
L 676.714867 315.403636 
L 676.326588 321.992727 
L 675.952816 328.581818 
L 675.593193 335.170909 
L 675.247231 341.76 
L 674.914332 348.349091 
L 674.593811 354.938182 
L 674.284926 361.527273 
L 673.986904 368.116364 
L 673.698971 374.705455 
L 673.42038 381.294545 
L 673.150433 387.883636 
L 672.8885 394.472727 
L 672.634036 401.061818 
L 672.38659 407.650909 
L 672.145803 414.24 
L 671.911411 420.829091 
L 671.683235 427.418182 
L 671.461166 434.007273 
L 671.245156 440.596364 
L 671.035199 447.185455 
L 670.831314 453.774545 
L 670.633533 460.363636 
L 670.441888 466.952727 
L 670.256408 473.541818 
L 670.077107 480.130909 
L 669.903993 486.72 
L 669.73707 493.309091 
L 669.576348 499.898182 
L 669.421852 506.487273 
L 669.273636 513.076364 
L 669.131795 519.665455 
L 668.996472 526.254545 
L 668.867869 532.843636 
L 668.746242 539.432727 
L 668.631902 546.021818 
L 668.525201 552.610909 
L 668.426514 559.2 
L 668.336216 565.789091 
L 668.254655 572.378182 
L 668.182112 578.967273 
L 668.118773 585.556364 
L 668.06469 592.145455 
L 668.019748 598.734545 
L 667.983637 605.323636 
L 667.955825 611.912727 
L 667.93555 618.501818 
L 667.921813 625.090909 
L 667.913384 631.68 
L 667.908821 638.269091 
L 667.9065 644.858182 
L 667.904653 651.447273 
L 667.90142 658.036364 
L 667.894902 664.625455 
L 667.883223 671.214545 
L 667.864593 677.803636 
L 667.837365 684.392727 
L 667.800099 690.981818 
L 667.75161 697.570909 
L 667.691008 704.16 
z
" clip-path="url(#p7f04e05e0e)" style="fill: #d3d3d3; stroke: #7f7f7f; stroke-width: 3"/>
   </g>
   <g id="PolyCollection_6">
    <path d="M 776.855096 704.16 
L 774.744904 704.16 
L 774.750941 697.570909 
L 774.769814 690.981818 
L 774.800641 684.392727 
L 774.842047 677.803636 
L 774.892222 671.214545 
L 774.949003 664.625455 
L 775.009964 658.036364 
L 775.072506 651.447273 
L 775.133948 644.858182 
L 775.191602 638.269091 
L 775.242836 631.68 
L 775.28512 625.090909 
L 775.316051 618.501818 
L 775.333369 611.912727 
L 775.334959 605.323636 
L 775.318852 598.734545 
L 775.283223 592.145455 
L 775.226398 585.556364 
L 775.14687 578.967273 
L 775.043327 572.378182 
L 774.914693 565.789091 
L 774.760181 559.2 
L 774.579357 552.610909 
L 774.372197 546.021818 
L 774.139156 539.432727 
L 773.881214 532.843636 
L 773.599918 526.254545 
L 773.297393 519.665455 
L 772.976342 513.076364 
L 772.640005 506.487273 
L 772.292101 499.898182 
L 771.936737 493.309091 
L 771.578298 486.72 
L 771.221314 480.130909 
L 770.870315 473.541818 
L 770.529677 466.952727 
L 770.203466 460.363636 
L 769.895289 453.774545 
L 769.608149 447.185455 
L 769.344326 440.596364 
L 769.10527 434.007273 
L 768.891523 427.418182 
L 768.702666 420.829091 
L 768.537293 414.24 
L 768.393024 407.650909 
L 768.266528 401.061818 
L 768.153598 394.472727 
L 768.049231 387.883636 
L 767.947748 381.294545 
L 767.84292 374.705455 
L 767.728122 368.116364 
L 767.596495 361.527273 
L 767.441107 354.938182 
L 767.255128 348.349091 
L 767.031988 341.76 
L 766.765533 335.170909 
L 766.450165 328.581818 
L 766.080961 321.992727 
L 765.653783 315.403636 
L 765.165357 308.814545 
L 764.613347 302.225455 
L 763.996406 295.636364 
L 763.314219 289.047273 
L 762.567535 282.458182 
L 761.758198 275.869091 
L 760.889158 269.28 
L 759.964485 262.690909 
L 758.989355 256.101818 
L 757.970019 249.512727 
L 756.913745 242.923636 
L 755.828718 236.334545 
L 754.723904 229.745455 
L 753.608876 223.156364 
L 752.493609 216.567273 
L 751.388256 209.978182 
L 750.302922 203.389091 
L 749.247462 196.8 
L 748.231318 190.210909 
L 747.263426 183.621818 
L 746.3522 177.032727 
L 745.505602 170.443636 
L 744.731288 163.854545 
L 744.036828 157.265455 
L 743.42994 150.676364 
L 742.91873 144.087273 
L 742.511879 137.498182 
L 742.218718 130.909091 
L 742.049183 124.32 
L 742.013596 117.730909 
L 742.122269 111.141818 
L 742.384951 104.552727 
L 742.810135 97.963636 
L 743.404282 91.374545 
L 744.171033 84.785455 
L 745.110471 78.196364 
L 746.218524 71.607273 
L 747.48657 65.018182 
L 748.90129 58.429091 
L 750.444827 51.84 
L 801.155173 51.84 
L 801.155173 51.84 
L 802.69871 58.429091 
L 804.11343 65.018182 
L 805.381476 71.607273 
L 806.489529 78.196364 
L 807.428967 84.785455 
L 808.195718 91.374545 
L 808.789865 97.963636 
L 809.215049 104.552727 
L 809.477731 111.141818 
L 809.586404 117.730909 
L 809.550817 124.32 
L 809.381282 130.909091 
L 809.088121 137.498182 
L 808.68127 144.087273 
L 808.17006 150.676364 
L 807.563172 157.265455 
L 806.868712 163.854545 
L 806.094398 170.443636 
L 805.2478 177.032727 
L 804.336574 183.621818 
L 803.368682 190.210909 
L 802.352538 196.8 
L 801.297078 203.389091 
L 800.211744 209.978182 
L 799.106391 216.567273 
L 797.991124 223.156364 
L 796.876096 229.745455 
L 795.771282 236.334545 
L 794.686255 242.923636 
L 793.629981 249.512727 
L 792.610645 256.101818 
L 791.635515 262.690909 
L 790.710842 269.28 
L 789.841802 275.869091 
L 789.032465 282.458182 
L 788.285781 289.047273 
L 787.603594 295.636364 
L 786.986653 302.225455 
L 786.434643 308.814545 
L 785.946217 315.403636 
L 785.519039 321.992727 
L 785.149835 328.581818 
L 784.834467 335.170909 
L 784.568012 341.76 
L 784.344872 348.349091 
L 784.158893 354.938182 
L 784.003505 361.527273 
L 783.871878 368.116364 
L 783.75708 374.705455 
L 783.652252 381.294545 
L 783.550769 387.883636 
L 783.446402 394.472727 
L 783.333472 401.061818 
L 783.206976 407.650909 
L 783.062707 414.24 
L 782.897334 420.829091 
L 782.708477 427.418182 
L 782.49473 434.007273 
L 782.255674 440.596364 
L 781.991851 447.185455 
L 781.704711 453.774545 
L 781.396534 460.363636 
L 781.070323 466.952727 
L 780.729685 473.541818 
L 780.378686 480.130909 
L 780.021702 486.72 
L 779.663263 493.309091 
L 779.307899 499.898182 
L 778.959995 506.487273 
L 778.623658 513.076364 
L 778.302607 519.665455 
L 778.000082 526.254545 
L 777.718786 532.843636 
L 777.460844 539.432727 
L 777.227803 546.021818 
L 777.020643 552.610909 
L 776.839819 559.2 
L 776.685307 565.789091 
L 776.556673 572.378182 
L 776.45313 578.967273 
L 776.373602 585.556364 
L 776.316777 592.145455 
L 776.281148 598.734545 
L 776.265041 605.323636 
L 776.266631 611.912727 
L 776.283949 618.501818 
L 776.31488 625.090909 
L 776.357164 631.68 
L 776.408398 638.269091 
L 776.466052 644.858182 
L 776.527494 651.447273 
L 776.590036 658.036364 
L 776.650997 664.625455 
L 776.707778 671.214545 
L 776.757953 677.803636 
L 776.799359 684.392727 
L 776.830186 690.981818 
L 776.849059 697.570909 
L 776.855096 704.16 
z
" clip-path="url(#p7f04e05e0e)" style="fill: #d3d3d3; stroke: #7f7f7f; stroke-width: 3"/>
   </g>
   <g id="PolyCollection_7">
    <defs>
     <path id="m911b799203" d="M 891.03121 34.71552 
L 883.76879 34.71552 
L 883.484439 30.524858 
L 883.194914 26.334196 
L 882.902096 22.143535 
L 882.608073 17.952873 
L 882.315136 13.762211 
L 882.025746 9.571549 
L 881.742499 5.380887 
L 881.468083 1.190225 
L 881.205206 -3.000436 
L 880.956538 -7.191098 
L 880.724624 -11.38176 
L 880.511805 -15.572422 
L 880.32013 -19.763084 
L 880.151283 -23.953745 
L 880.006499 -28.144407 
L 879.88651 -32.335069 
L 879.79149 -36.525731 
L 879.72103 -40.716393 
L 879.67412 -44.907055 
L 879.64916 -49.097716 
L 879.643983 -53.288378 
L 879.655902 -57.47904 
L 879.681769 -61.669702 
L 879.718038 -65.860364 
L 879.760853 -70.051025 
L 879.80612 -74.241687 
L 879.84959 -78.432349 
L 879.886935 -82.623011 
L 879.913815 -86.813673 
L 879.925939 -91.004335 
L 879.919111 -95.194996 
L 879.88927 -99.385658 
L 879.832521 -103.57632 
L 879.74516 -107.766982 
L 879.623696 -111.957644 
L 879.464871 -116.148305 
L 879.265688 -120.338967 
L 879.023445 -124.529629 
L 878.735773 -128.720291 
L 878.400691 -132.910953 
L 878.016659 -137.101615 
L 877.582651 -141.292276 
L 877.098216 -145.482938 
L 876.563543 -149.6736 
L 875.979515 -153.864262 
L 875.347747 -158.054924 
L 874.6706 -162.245585 
L 873.951163 -166.436247 
L 873.193203 -170.626909 
L 872.401081 -174.817571 
L 871.579625 -179.008233 
L 870.733972 -183.198895 
L 869.869379 -187.389556 
L 868.991017 -191.580218 
L 868.103742 -195.77088 
L 867.211886 -199.961542 
L 866.319043 -204.152204 
L 865.427898 -208.342865 
L 864.540093 -212.533527 
L 863.656145 -216.724189 
L 862.775433 -220.914851 
L 861.89625 -225.105513 
L 861.015933 -229.296175 
L 860.131065 -233.486836 
L 859.23774 -237.677498 
L 858.331896 -241.86816 
L 857.409683 -246.058822 
L 856.467865 -250.249484 
L 855.504226 -254.440145 
L 854.517968 -258.630807 
L 853.510075 -262.821469 
L 852.483611 -267.012131 
L 851.443952 -271.202793 
L 850.398922 -275.393455 
L 849.358817 -279.584116 
L 848.33632 -283.774778 
L 847.346293 -287.96544 
L 846.405459 -292.156102 
L 845.531972 -296.346764 
L 844.7449 -300.537425 
L 844.063638 -304.728087 
L 843.507269 -308.918749 
L 843.093908 -313.109411 
L 842.840059 -317.300073 
L 842.76 -321.490735 
L 842.865243 -325.681396 
L 843.164076 -329.872058 
L 843.661214 -334.06272 
L 844.357577 -338.253382 
L 845.250196 -342.444044 
L 846.332255 -346.634705 
L 847.59326 -350.825367 
L 849.019335 -355.016029 
L 850.593613 -359.206691 
L 852.296723 -363.397353 
L 854.107339 -367.588015 
L 856.002768 -371.778676 
L 857.95956 -375.969338 
L 859.954108 -380.16 
L 914.845892 -380.16 
L 914.845892 -380.16 
L 916.84044 -375.969338 
L 918.797232 -371.778676 
L 920.692661 -367.588015 
L 922.503277 -363.397353 
L 924.206387 -359.206691 
L 925.780665 -355.016029 
L 927.20674 -350.825367 
L 928.467745 -346.634705 
L 929.549804 -342.444044 
L 930.442423 -338.253382 
L 931.138786 -334.06272 
L 931.635924 -329.872058 
L 931.934757 -325.681396 
L 932.04 -321.490735 
L 931.959941 -317.300073 
L 931.706092 -313.109411 
L 931.292731 -308.918749 
L 930.736362 -304.728087 
L 930.0551 -300.537425 
L 929.268028 -296.346764 
L 928.394541 -292.156102 
L 927.453707 -287.96544 
L 926.46368 -283.774778 
L 925.441183 -279.584116 
L 924.401078 -275.393455 
L 923.356048 -271.202793 
L 922.316389 -267.012131 
L 921.289925 -262.821469 
L 920.282032 -258.630807 
L 919.295774 -254.440145 
L 918.332135 -250.249484 
L 917.390317 -246.058822 
L 916.468104 -241.86816 
L 915.56226 -237.677498 
L 914.668935 -233.486836 
L 913.784067 -229.296175 
L 912.90375 -225.105513 
L 912.024567 -220.914851 
L 911.143855 -216.724189 
L 910.259907 -212.533527 
L 909.372102 -208.342865 
L 908.480957 -204.152204 
L 907.588114 -199.961542 
L 906.696258 -195.77088 
L 905.808983 -191.580218 
L 904.930621 -187.389556 
L 904.066028 -183.198895 
L 903.220375 -179.008233 
L 902.398919 -174.817571 
L 901.606797 -170.626909 
L 900.848837 -166.436247 
L 900.1294 -162.245585 
L 899.452253 -158.054924 
L 898.820485 -153.864262 
L 898.236457 -149.6736 
L 897.701784 -145.482938 
L 897.217349 -141.292276 
L 896.783341 -137.101615 
L 896.399309 -132.910953 
L 896.064227 -128.720291 
L 895.776555 -124.529629 
L 895.534312 -120.338967 
L 895.335129 -116.148305 
L 895.176304 -111.957644 
L 895.05484 -107.766982 
L 894.967479 -103.57632 
L 894.91073 -99.385658 
L 894.880889 -95.194996 
L 894.874061 -91.004335 
L 894.886185 -86.813673 
L 894.913065 -82.623011 
L 894.95041 -78.432349 
L 894.99388 -74.241687 
L 895.039147 -70.051025 
L 895.081962 -65.860364 
L 895.118231 -61.669702 
L 895.144098 -57.47904 
L 895.156017 -53.288378 
L 895.15084 -49.097716 
L 895.12588 -44.907055 
L 895.07897 -40.716393 
L 895.00851 -36.525731 
L 894.91349 -32.335069 
L 894.793501 -28.144407 
L 894.648717 -23.953745 
L 894.47987 -19.763084 
L 894.288195 -15.572422 
L 894.075376 -11.38176 
L 893.843462 -7.191098 
L 893.594794 -3.000436 
L 893.331917 1.190225 
L 893.057501 5.380887 
L 892.774254 9.571549 
L 892.484864 13.762211 
L 892.191927 17.952873 
L 891.897904 22.143535 
L 891.605086 26.334196 
L 891.315561 30.524858 
L 891.03121 34.71552 
z
" style="stroke: #7f7f7f; stroke-width: 3"/>
    </defs>
    <g clip-path="url(#p7f04e05e0e)">
     <use xlink:href="#m911b799203" x="0" y="432" style="fill: #d3d3d3; stroke: #7f7f7f; stroke-width: 3"/>
    </g>
   </g>
   <g id="PolyCollection_8">
    <path d="M 1002.370025 528.0336 
L 995.629975 528.0336 
L 995.470931 523.223564 
L 995.319949 518.413527 
L 995.17757 513.603491 
L 995.044042 508.793455 
L 994.919305 503.983418 
L 994.802993 499.173382 
L 994.694443 494.363345 
L 994.592716 489.553309 
L 994.496629 484.743273 
L 994.404788 479.933236 
L 994.315637 475.1232 
L 994.22751 470.313164 
L 994.138685 465.503127 
L 994.047441 460.693091 
L 993.952117 455.883055 
L 993.851172 451.073018 
L 993.743232 446.262982 
L 993.627146 441.452945 
L 993.502023 436.642909 
L 993.367263 431.832873 
L 993.222584 427.022836 
L 993.068024 422.2128 
L 992.903943 417.402764 
L 992.730999 412.592727 
L 992.550117 407.782691 
L 992.362439 402.972655 
L 992.169261 398.162618 
L 991.971959 393.352582 
L 991.771903 388.542545 
L 991.570368 383.732509 
L 991.368438 378.922473 
L 991.166915 374.112436 
L 990.966237 369.3024 
L 990.766398 364.492364 
L 990.566899 359.682327 
L 990.366712 354.872291 
L 990.164269 350.062255 
L 989.957487 345.252218 
L 989.743809 340.442182 
L 989.520294 335.632145 
L 989.283716 330.822109 
L 989.0307 326.012073 
L 988.757868 321.202036 
L 988.462008 316.392 
L 988.140233 311.581964 
L 987.790148 306.771927 
L 987.409995 301.961891 
L 986.998774 297.151855 
L 986.556341 292.341818 
L 986.08345 287.531782 
L 985.581774 282.721745 
L 985.053853 277.911709 
L 984.503017 273.101673 
L 983.933245 268.291636 
L 983.349 263.4816 
L 982.755014 258.671564 
L 982.156068 253.861527 
L 981.556746 249.051491 
L 980.961197 244.241455 
L 980.372916 239.431418 
L 979.794541 234.621382 
L 979.227706 229.811345 
L 978.672929 225.001309 
L 978.129567 220.191273 
L 977.595834 215.381236 
L 977.068882 210.5712 
L 976.544943 205.761164 
L 976.019538 200.951127 
L 975.487729 196.141091 
L 974.944416 191.331055 
L 974.384665 186.521018 
L 973.804038 181.710982 
L 973.198939 176.900945 
L 972.566928 172.090909 
L 971.90701 167.280873 
L 971.219878 162.470836 
L 970.508098 157.6608 
L 969.776226 152.850764 
L 969.030851 148.040727 
L 968.280559 143.230691 
L 967.535815 138.420655 
L 966.808769 133.610618 
L 966.112986 128.800582 
L 965.463112 123.990545 
L 964.87448 119.180509 
L 964.362677 114.370473 
L 963.943079 109.560436 
L 963.630371 104.7504 
L 963.438082 99.940364 
L 963.37812 95.130327 
L 963.460369 90.320291 
L 963.692318 85.510255 
L 964.078777 80.700218 
L 964.621657 75.890182 
L 965.319847 71.080145 
L 966.16919 66.270109 
L 967.162546 61.460073 
L 968.289959 56.650036 
L 969.53891 51.84 
L 1028.46109 51.84 
L 1028.46109 51.84 
L 1029.710041 56.650036 
L 1030.837454 61.460073 
L 1031.83081 66.270109 
L 1032.680153 71.080145 
L 1033.378343 75.890182 
L 1033.921223 80.700218 
L 1034.307682 85.510255 
L 1034.539631 90.320291 
L 1034.62188 95.130327 
L 1034.561918 99.940364 
L 1034.369629 104.7504 
L 1034.056921 109.560436 
L 1033.637323 114.370473 
L 1033.12552 119.180509 
L 1032.536888 123.990545 
L 1031.887014 128.800582 
L 1031.191231 133.610618 
L 1030.464185 138.420655 
L 1029.719441 143.230691 
L 1028.969149 148.040727 
L 1028.223774 152.850764 
L 1027.491902 157.6608 
L 1026.780122 162.470836 
L 1026.09299 167.280873 
L 1025.433072 172.090909 
L 1024.801061 176.900945 
L 1024.195962 181.710982 
L 1023.615335 186.521018 
L 1023.055584 191.331055 
L 1022.512271 196.141091 
L 1021.980462 200.951127 
L 1021.455057 205.761164 
L 1020.931118 210.5712 
L 1020.404166 215.381236 
L 1019.870433 220.191273 
L 1019.327071 225.001309 
L 1018.772294 229.811345 
L 1018.205459 234.621382 
L 1017.627084 239.431418 
L 1017.038803 244.241455 
L 1016.443254 249.051491 
L 1015.843932 253.861527 
L 1015.244986 258.671564 
L 1014.651 263.4816 
L 1014.066755 268.291636 
L 1013.496983 273.101673 
L 1012.946147 277.911709 
L 1012.418226 282.721745 
L 1011.91655 287.531782 
L 1011.443659 292.341818 
L 1011.001226 297.151855 
L 1010.590005 301.961891 
L 1010.209852 306.771927 
L 1009.859767 311.581964 
L 1009.537992 316.392 
L 1009.242132 321.202036 
L 1008.9693 326.012073 
L 1008.716284 330.822109 
L 1008.479706 335.632145 
L 1008.256191 340.442182 
L 1008.042513 345.252218 
L 1007.835731 350.062255 
L 1007.633288 354.872291 
L 1007.433101 359.682327 
L 1007.233602 364.492364 
L 1007.033763 369.3024 
L 1006.833085 374.112436 
L 1006.631562 378.922473 
L 1006.429632 383.732509 
L 1006.228097 388.542545 
L 1006.028041 393.352582 
L 1005.830739 398.162618 
L 1005.637561 402.972655 
L 1005.449883 407.782691 
L 1005.269001 412.592727 
L 1005.096057 417.402764 
L 1004.931976 422.2128 
L 1004.777416 427.022836 
L 1004.632737 431.832873 
L 1004.497977 436.642909 
L 1004.372854 441.452945 
L 1004.256768 446.262982 
L 1004.148828 451.073018 
L 1004.047883 455.883055 
L 1003.952559 460.693091 
L 1003.861315 465.503127 
L 1003.77249 470.313164 
L 1003.684363 475.1232 
L 1003.595212 479.933236 
L 1003.503371 484.743273 
L 1003.407284 489.553309 
L 1003.305557 494.363345 
L 1003.197007 499.173382 
L 1003.080695 503.983418 
L 1002.955958 508.793455 
L 1002.82243 513.603491 
L 1002.680051 518.413527 
L 1002.529069 523.223564 
L 1002.370025 528.0336 
z
" clip-path="url(#p7f04e05e0e)" style="fill: #d3d3d3; stroke: #7f7f7f; stroke-width: 3"/>
   </g>
   <g id="PolyCollection_9">
    <path d="M 1111.63136 704.16 
L 1109.56864 704.16 
L 1109.570205 697.570909 
L 1109.582123 690.981818 
L 1109.603291 684.392727 
L 1109.632127 677.803636 
L 1109.666618 671.214545 
L 1109.704398 664.625455 
L 1109.742832 658.036364 
L 1109.779116 651.447273 
L 1109.810383 644.858182 
L 1109.833807 638.269091 
L 1109.846701 631.68 
L 1109.846614 625.090909 
L 1109.83141 618.501818 
L 1109.799334 611.912727 
L 1109.749065 605.323636 
L 1109.679753 598.734545 
L 1109.591027 592.145455 
L 1109.483 585.556364 
L 1109.356239 578.967273 
L 1109.211724 572.378182 
L 1109.050783 565.789091 
L 1108.875018 559.2 
L 1108.686208 552.610909 
L 1108.486215 546.021818 
L 1108.276883 539.432727 
L 1108.059946 532.843636 
L 1107.836947 526.254545 
L 1107.609177 519.665455 
L 1107.377647 513.076364 
L 1107.143071 506.487273 
L 1106.9059 499.898182 
L 1106.666357 493.309091 
L 1106.424512 486.72 
L 1106.180355 480.130909 
L 1105.933875 473.541818 
L 1105.685128 466.952727 
L 1105.43429 460.363636 
L 1105.181672 453.774545 
L 1104.92772 447.185455 
L 1104.672967 440.596364 
L 1104.417968 434.007273 
L 1104.163203 427.418182 
L 1103.908975 420.829091 
L 1103.655302 414.24 
L 1103.401828 407.650909 
L 1103.147752 401.061818 
L 1102.891798 394.472727 
L 1102.632214 387.883636 
L 1102.366826 381.294545 
L 1102.093125 374.705455 
L 1101.808384 368.116364 
L 1101.509807 361.527273 
L 1101.194678 354.938182 
L 1100.860509 348.349091 
L 1100.505175 341.76 
L 1100.127014 335.170909 
L 1099.724883 328.581818 
L 1099.29818 321.992727 
L 1098.846812 315.403636 
L 1098.371116 308.814545 
L 1097.871755 302.225455 
L 1097.349578 295.636364 
L 1096.805466 289.047273 
L 1096.240184 282.458182 
L 1095.654242 275.869091 
L 1095.047793 269.28 
L 1094.420557 262.690909 
L 1093.771806 256.101818 
L 1093.100398 249.512727 
L 1092.40487 242.923636 
L 1091.683582 236.334545 
L 1090.934912 229.745455 
L 1090.157499 223.156364 
L 1089.350505 216.567273 
L 1088.513908 209.978182 
L 1087.648791 203.389091 
L 1086.757629 196.8 
L 1085.84455 190.210909 
L 1084.91556 183.621818 
L 1083.978716 177.032727 
L 1083.044239 170.443636 
L 1082.124543 163.854545 
L 1081.234173 157.265455 
L 1080.389644 150.676364 
L 1079.609161 144.087273 
L 1078.912221 137.498182 
L 1078.319092 130.909091 
L 1077.850174 124.32 
L 1077.525267 117.730909 
L 1077.362755 111.141818 
L 1077.378754 104.552727 
L 1077.586261 97.963636 
L 1077.994361 91.374545 
L 1078.60754 84.785455 
L 1079.425168 78.196364 
L 1080.441191 71.607273 
L 1081.644069 65.018182 
L 1083.016986 58.429091 
L 1084.538333 51.84 
L 1136.661667 51.84 
L 1136.661667 51.84 
L 1138.183014 58.429091 
L 1139.555931 65.018182 
L 1140.758809 71.607273 
L 1141.774832 78.196364 
L 1142.59246 84.785455 
L 1143.205639 91.374545 
L 1143.613739 97.963636 
L 1143.821246 104.552727 
L 1143.837245 111.141818 
L 1143.674733 117.730909 
L 1143.349826 124.32 
L 1142.880908 130.909091 
L 1142.287779 137.498182 
L 1141.590839 144.087273 
L 1140.810356 150.676364 
L 1139.965827 157.265455 
L 1139.075457 163.854545 
L 1138.155761 170.443636 
L 1137.221284 177.032727 
L 1136.28444 183.621818 
L 1135.35545 190.210909 
L 1134.442371 196.8 
L 1133.551209 203.389091 
L 1132.686092 209.978182 
L 1131.849495 216.567273 
L 1131.042501 223.156364 
L 1130.265088 229.745455 
L 1129.516418 236.334545 
L 1128.79513 242.923636 
L 1128.099602 249.512727 
L 1127.428194 256.101818 
L 1126.779443 262.690909 
L 1126.152207 269.28 
L 1125.545758 275.869091 
L 1124.959816 282.458182 
L 1124.394534 289.047273 
L 1123.850422 295.636364 
L 1123.328245 302.225455 
L 1122.828884 308.814545 
L 1122.353188 315.403636 
L 1121.90182 321.992727 
L 1121.475117 328.581818 
L 1121.072986 335.170909 
L 1120.694825 341.76 
L 1120.339491 348.349091 
L 1120.005322 354.938182 
L 1119.690193 361.527273 
L 1119.391616 368.116364 
L 1119.106875 374.705455 
L 1118.833174 381.294545 
L 1118.567786 387.883636 
L 1118.308202 394.472727 
L 1118.052248 401.061818 
L 1117.798172 407.650909 
L 1117.544698 414.24 
L 1117.291025 420.829091 
L 1117.036797 427.418182 
L 1116.782032 434.007273 
L 1116.527033 440.596364 
L 1116.27228 447.185455 
L 1116.018328 453.774545 
L 1115.76571 460.363636 
L 1115.514872 466.952727 
L 1115.266125 473.541818 
L 1115.019645 480.130909 
L 1114.775488 486.72 
L 1114.533643 493.309091 
L 1114.2941 499.898182 
L 1114.056929 506.487273 
L 1113.822353 513.076364 
L 1113.590823 519.665455 
L 1113.363053 526.254545 
L 1113.140054 532.843636 
L 1112.923117 539.432727 
L 1112.713785 546.021818 
L 1112.513792 552.610909 
L 1112.324982 559.2 
L 1112.149217 565.789091 
L 1111.988276 572.378182 
L 1111.843761 578.967273 
L 1111.717 585.556364 
L 1111.608973 592.145455 
L 1111.520247 598.734545 
L 1111.450935 605.323636 
L 1111.400666 611.912727 
L 1111.36859 618.501818 
L 1111.353386 625.090909 
L 1111.353299 631.68 
L 1111.366193 638.269091 
L 1111.389617 644.858182 
L 1111.420884 651.447273 
L 1111.457168 658.036364 
L 1111.495602 664.625455 
L 1111.533382 671.214545 
L 1111.567873 677.803636 
L 1111.596709 684.392727 
L 1111.617877 690.981818 
L 1111.629795 697.570909 
L 1111.63136 704.16 
z
" clip-path="url(#p7f04e05e0e)" style="fill: #d3d3d3; stroke: #7f7f7f; stroke-width: 3"/>
   </g>
   <g id="line2d_4">
    <path d="M 217.8 433 
L 217.8 51.84 
" clip-path="url(#p7f04e05e0e)" style="fill: none; stroke: #7f7f7f; stroke-width: 3; stroke-linecap: round"/>
   </g>
   <g id="line2d_5">
    <path d="M 217.8 313.74648 
L 217.8 90.32688 
" clip-path="url(#p7f04e05e0e)" style="fill: none; stroke: #7f7f7f; stroke-width: 9; stroke-linecap: round"/>
   </g>
   <g id="line2d_6">
    <path d="M 329.4 433 
L 329.4 51.84 
" clip-path="url(#p7f04e05e0e)" style="fill: none; stroke: #7f7f7f; stroke-width: 3; stroke-linecap: round"/>
   </g>
   <g id="line2d_7">
    <path d="M 329.4 290.09988 
L 329.4 115.27812 
" clip-path="url(#p7f04e05e0e)" style="fill: none; stroke: #7f7f7f; stroke-width: 9; stroke-linecap: round"/>
   </g>
   <g id="line2d_8">
    <path d="M 441 433 
L 441 51.84 
" clip-path="url(#p7f04e05e0e)" style="fill: none; stroke: #7f7f7f; stroke-width: 3; stroke-linecap: round"/>
   </g>
   <g id="line2d_9">
    <path d="M 441 374.08608 
L 441 87.39144 
" clip-path="url(#p7f04e05e0e)" style="fill: none; stroke: #7f7f7f; stroke-width: 9; stroke-linecap: round"/>
   </g>
   <g id="line2d_10">
    <path d="M 552.6 433 
L 552.6 51.84 
" clip-path="url(#p7f04e05e0e)" style="fill: none; stroke: #7f7f7f; stroke-width: 3; stroke-linecap: round"/>
   </g>
   <g id="line2d_11">
    <path d="M 552.6 308.36484 
L 552.6 92.28384 
" clip-path="url(#p7f04e05e0e)" style="fill: none; stroke: #7f7f7f; stroke-width: 9; stroke-linecap: round"/>
   </g>
   <g id="line2d_12">
    <path d="M 664.2 433 
L 664.2 51.84 
" clip-path="url(#p7f04e05e0e)" style="fill: none; stroke: #7f7f7f; stroke-width: 3; stroke-linecap: round"/>
   </g>
   <g id="line2d_13">
    <path d="M 664.2 316.68192 
L 664.2 92.28384 
" clip-path="url(#p7f04e05e0e)" style="fill: none; stroke: #7f7f7f; stroke-width: 9; stroke-linecap: round"/>
   </g>
   <g id="line2d_14">
    <path d="M 775.8 433 
L 775.8 51.84 
" clip-path="url(#p7f04e05e0e)" style="fill: none; stroke: #7f7f7f; stroke-width: 3; stroke-linecap: round"/>
   </g>
   <g id="line2d_15">
    <path d="M 775.8 238.5666 
L 775.8 88.85916 
" clip-path="url(#p7f04e05e0e)" style="fill: none; stroke: #7f7f7f; stroke-width: 9; stroke-linecap: round"/>
   </g>
   <g id="line2d_16">
    <path d="M 887.4 378 
L 887.4 51.84 
" clip-path="url(#p7f04e05e0e)" style="fill: none; stroke: #7f7f7f; stroke-width: 3; stroke-linecap: round"/>
   </g>
   <g id="line2d_17">
    <path d="M 887.4 216.38772 
L 887.4 93.58848 
" clip-path="url(#p7f04e05e0e)" style="fill: none; stroke: #7f7f7f; stroke-width: 9; stroke-linecap: round"/>
   </g>
   <g id="line2d_18">
    <path d="M 999 433 
L 999 51.84 
" clip-path="url(#p7f04e05e0e)" style="fill: none; stroke: #7f7f7f; stroke-width: 3; stroke-linecap: round"/>
   </g>
   <g id="line2d_19">
    <path d="M 999 231.88032 
L 999 75.32352 
" clip-path="url(#p7f04e05e0e)" style="fill: none; stroke: #7f7f7f; stroke-width: 9; stroke-linecap: round"/>
   </g>
   <g id="line2d_20">
    <path d="M 1110.6 433 
L 1110.6 51.84 
" clip-path="url(#p7f04e05e0e)" style="fill: none; stroke: #7f7f7f; stroke-width: 3; stroke-linecap: round"/>
   </g>
   <g id="line2d_21">
    <path d="M 1110.6 254.38536 
L 1110.6 79.88976 
" clip-path="url(#p7f04e05e0e)" style="fill: none; stroke: #7f7f7f; stroke-width: 9; stroke-linecap: round"/>
   </g>
   <g id="patch_3">
    <path d="M 162 378 
L 1166.4 378 
" style="fill: none; stroke: #cccccc; stroke-width: 1.25; stroke-linejoin: miter; stroke-linecap: square"/>
   </g>
   <g id="PathCollection_1">
    <defs>
     <path id="m94410f62b5" d="M 0 3 
C 0.795609 3 1.55874 2.683901 2.12132 2.12132 
C 2.683901 1.55874 3 0.795609 3 0 
C 3 -0.795609 2.683901 -1.55874 2.12132 -2.12132 
C 1.55874 -2.683901 0.795609 -3 0 -3 
C -0.795609 -3 -1.55874 -2.683901 -2.12132 -2.12132 
C -2.683901 -1.55874 -3 -0.795609 -3 0 
C -3 0.795609 -2.683901 1.55874 -2.12132 2.12132 
C -1.55874 2.683901 -0.795609 3 0 3 
z
" style="stroke: #7f7f7f"/>
    </defs>
    <g clip-path="url(#p7f04e05e0e)">
     <use xlink:href="#m94410f62b5" x="217.8" y="169.2576" style="fill: #ffffff; stroke: #7f7f7f"/>
    </g>
   </g>
   <g id="PathCollection_2">
    <g clip-path="url(#p7f04e05e0e)">
     <use xlink:href="#m94410f62b5" x="329.4" y="182.304" style="fill: #ffffff; stroke: #7f7f7f"/>
    </g>
   </g>
   <g id="PathCollection_3">
    <g clip-path="url(#p7f04e05e0e)">
     <use xlink:href="#m94410f62b5" x="441" y="188.50104" style="fill: #ffffff; stroke: #7f7f7f"/>
    </g>
   </g>
   <g id="PathCollection_4">
    <g clip-path="url(#p7f04e05e0e)">
     <use xlink:href="#m94410f62b5" x="552.6" y="196.65504" style="fill: #ffffff; stroke: #7f7f7f"/>
    </g>
   </g>
   <g id="PathCollection_5">
    <g clip-path="url(#p7f04e05e0e)">
     <use xlink:href="#m94410f62b5" x="664.2" y="182.304" style="fill: #ffffff; stroke: #7f7f7f"/>
    </g>
   </g>
   <g id="PathCollection_6">
    <g clip-path="url(#p7f04e05e0e)">
     <use xlink:href="#m94410f62b5" x="775.8" y="156.86352" style="fill: #ffffff; stroke: #7f7f7f"/>
    </g>
   </g>
   <g id="PathCollection_7">
    <g clip-path="url(#p7f04e05e0e)">
     <use xlink:href="#m94410f62b5" x="887.4" y="128.81376" style="fill: #ffffff; stroke: #7f7f7f"/>
    </g>
   </g>
   <g id="PathCollection_8">
    <g clip-path="url(#p7f04e05e0e)">
     <use xlink:href="#m94410f62b5" x="999" y="124.24752" style="fill: #ffffff; stroke: #7f7f7f"/>
    </g>
   </g>
   <g id="PathCollection_9">
    <g clip-path="url(#p7f04e05e0e)">
     <use xlink:href="#m94410f62b5" x="1110.6" y="151.64496" style="fill: #ffffff; stroke: #7f7f7f"/>
    </g>
   </g>
  </g>
  <g id="text_14">
   <!-- TS1reducedWC -->
   <g style="fill: #262626" transform="translate(571.311563 22.317187)scale(0.18 -0.18)">
    <defs>
     <path id="DejaVuSans-Bold-54" d="M 31 4666 
L 4331 4666 
L 4331 3756 
L 2784 3756 
L 2784 0 
L 1581 0 
L 1581 3756 
L 31 3756 
L 31 4666 
z
" transform="scale(0.015625)"/>
     <path id="DejaVuSans-Bold-53" d="M 3834 4519 
L 3834 3531 
Q 3450 3703 3084 3790 
Q 2719 3878 2394 3878 
Q 1963 3878 1756 3759 
Q 1550 3641 1550 3391 
Q 1550 3203 1689 3098 
Q 1828 2994 2194 2919 
L 2706 2816 
Q 3484 2659 3812 2340 
Q 4141 2022 4141 1434 
Q 4141 663 3683 286 
Q 3225 -91 2284 -91 
Q 1841 -91 1394 -6 
Q 947 78 500 244 
L 500 1259 
Q 947 1022 1364 901 
Q 1781 781 2169 781 
Q 2563 781 2772 912 
Q 2981 1044 2981 1288 
Q 2981 1506 2839 1625 
Q 2697 1744 2272 1838 
L 1806 1941 
Q 1106 2091 782 2419 
Q 459 2747 459 3303 
Q 459 4000 909 4375 
Q 1359 4750 2203 4750 
Q 2588 4750 2994 4692 
Q 3400 4634 3834 4519 
z
" transform="scale(0.015625)"/>
     <path id="DejaVuSans-Bold-31" d="M 750 831 
L 1813 831 
L 1813 3847 
L 722 3622 
L 722 4441 
L 1806 4666 
L 2950 4666 
L 2950 831 
L 4013 831 
L 4013 0 
L 750 0 
L 750 831 
z
" transform="scale(0.015625)"/>
     <path id="DejaVuSans-Bold-72" d="M 3138 2547 
Q 2991 2616 2845 2648 
Q 2700 2681 2553 2681 
Q 2122 2681 1889 2404 
Q 1656 2128 1656 1613 
L 1656 0 
L 538 0 
L 538 3500 
L 1656 3500 
L 1656 2925 
Q 1872 3269 2151 3426 
Q 2431 3584 2822 3584 
Q 2878 3584 2943 3579 
Q 3009 3575 3134 3559 
L 3138 2547 
z
" transform="scale(0.015625)"/>
     <path id="DejaVuSans-Bold-65" d="M 4031 1759 
L 4031 1441 
L 1416 1441 
Q 1456 1047 1700 850 
Q 1944 653 2381 653 
Q 2734 653 3104 758 
Q 3475 863 3866 1075 
L 3866 213 
Q 3469 63 3072 -14 
Q 2675 -91 2278 -91 
Q 1328 -91 801 392 
Q 275 875 275 1747 
Q 275 2603 792 3093 
Q 1309 3584 2216 3584 
Q 3041 3584 3536 3087 
Q 4031 2591 4031 1759 
z
M 2881 2131 
Q 2881 2450 2695 2645 
Q 2509 2841 2209 2841 
Q 1884 2841 1681 2658 
Q 1478 2475 1428 2131 
L 2881 2131 
z
" transform="scale(0.015625)"/>
     <path id="DejaVuSans-Bold-64" d="M 2919 2988 
L 2919 4863 
L 4044 4863 
L 4044 0 
L 2919 0 
L 2919 506 
Q 2688 197 2409 53 
Q 2131 -91 1766 -91 
Q 1119 -91 703 423 
Q 288 938 288 1747 
Q 288 2556 703 3070 
Q 1119 3584 1766 3584 
Q 2128 3584 2408 3439 
Q 2688 3294 2919 2988 
z
M 2181 722 
Q 2541 722 2730 984 
Q 2919 1247 2919 1747 
Q 2919 2247 2730 2509 
Q 2541 2772 2181 2772 
Q 1825 2772 1636 2509 
Q 1447 2247 1447 1747 
Q 1447 1247 1636 984 
Q 1825 722 2181 722 
z
" transform="scale(0.015625)"/>
     <path id="DejaVuSans-Bold-75" d="M 500 1363 
L 500 3500 
L 1625 3500 
L 1625 3150 
Q 1625 2866 1622 2436 
Q 1619 2006 1619 1863 
Q 1619 1441 1641 1255 
Q 1663 1069 1716 984 
Q 1784 875 1895 815 
Q 2006 756 2150 756 
Q 2500 756 2700 1025 
Q 2900 1294 2900 1772 
L 2900 3500 
L 4019 3500 
L 4019 0 
L 2900 0 
L 2900 506 
Q 2647 200 2364 54 
Q 2081 -91 1741 -91 
Q 1134 -91 817 281 
Q 500 653 500 1363 
z
" transform="scale(0.015625)"/>
     <path id="DejaVuSans-Bold-63" d="M 3366 3391 
L 3366 2478 
Q 3138 2634 2908 2709 
Q 2678 2784 2431 2784 
Q 1963 2784 1702 2511 
Q 1441 2238 1441 1747 
Q 1441 1256 1702 982 
Q 1963 709 2431 709 
Q 2694 709 2930 787 
Q 3166 866 3366 1019 
L 3366 103 
Q 3103 6 2833 -42 
Q 2563 -91 2291 -91 
Q 1344 -91 809 395 
Q 275 881 275 1747 
Q 275 2613 809 3098 
Q 1344 3584 2291 3584 
Q 2566 3584 2833 3536 
Q 3100 3488 3366 3391 
z
" transform="scale(0.015625)"/>
     <path id="DejaVuSans-Bold-57" d="M 191 4666 
L 1344 4666 
L 2150 1275 
L 2950 4666 
L 4109 4666 
L 4909 1275 
L 5716 4666 
L 6859 4666 
L 5759 0 
L 4372 0 
L 3525 3547 
L 2688 0 
L 1300 0 
L 191 4666 
z
" transform="scale(0.015625)"/>
     <path id="DejaVuSans-Bold-43" d="M 4288 256 
Q 3956 84 3597 -3 
Q 3238 -91 2847 -91 
Q 1681 -91 1000 561 
Q 319 1213 319 2328 
Q 319 3447 1000 4098 
Q 1681 4750 2847 4750 
Q 3238 4750 3597 4662 
Q 3956 4575 4288 4403 
L 4288 3438 
Q 3953 3666 3628 3772 
Q 3303 3878 2944 3878 
Q 2300 3878 1931 3465 
Q 1563 3053 1563 2328 
Q 1563 1606 1931 1193 
Q 2300 781 2944 781 
Q 3303 781 3628 887 
Q 3953 994 4288 1222 
L 4288 256 
z
" transform="scale(0.015625)"/>
    </defs>
    <use xlink:href="#DejaVuSans-Bold-54"/>
    <use xlink:href="#DejaVuSans-Bold-53" x="68.212891"/>
    <use xlink:href="#DejaVuSans-Bold-31" x="140.234375"/>
    <use xlink:href="#DejaVuSans-Bold-72" x="209.814453"/>
    <use xlink:href="#DejaVuSans-Bold-65" x="259.130859"/>
    <use xlink:href="#DejaVuSans-Bold-64" x="326.953125"/>
    <use xlink:href="#DejaVuSans-Bold-75" x="398.535156"/>
    <use xlink:href="#DejaVuSans-Bold-63" x="469.726562"/>
    <use xlink:href="#DejaVuSans-Bold-65" x="529.003906"/>
    <use xlink:href="#DejaVuSans-Bold-64" x="596.826172"/>
    <use xlink:href="#DejaVuSans-Bold-57" x="668.408203"/>
    <use xlink:href="#DejaVuSans-Bold-43" x="778.710938"/>
   </g>
  </g>
 </g>
 <defs>
  <clipPath id="p7f04e05e0e">
   <rect x="162" y="51.84" width="1004.4" height="326.16"/>
  </clipPath>
 </defs>
</svg>
