<?xml version="1.0" encoding="utf-8" standalone="no"?>
<!DOCTYPE svg PUBLIC "-//W3C//DTD SVG 1.1//EN"
  "http://www.w3.org/Graphics/SVG/1.1/DTD/svg11.dtd">
<svg xmlns:xlink="http://www.w3.org/1999/xlink" width="864pt" height="432pt" viewBox="0 0 864 432" xmlns="http://www.w3.org/2000/svg" version="1.1">
 <metadata>
  <rdf:RDF xmlns:dc="http://purl.org/dc/elements/1.1/" xmlns:cc="http://creativecommons.org/ns#" xmlns:rdf="http://www.w3.org/1999/02/22-rdf-syntax-ns#">
   <cc:Work>
    <dc:type rdf:resource="http://purl.org/dc/dcmitype/StillImage"/>
    <dc:date>2023-08-08T12:02:04.348669</dc:date>
    <dc:format>image/svg+xml</dc:format>
    <dc:creator>
     <cc:Agent>
      <dc:title>Matplotlib v3.5.1, https://matplotlib.org/</dc:title>
     </cc:Agent>
    </dc:creator>
   </cc:Work>
  </rdf:RDF>
 </metadata>
 <defs>
  <style type="text/css">*{stroke-linejoin: round; stroke-linecap: butt}</style>
 </defs>
 <g id="figure_1">
  <g id="patch_1">
   <path d="M 0 432 
L 864 432 
L 864 0 
L 0 0 
L 0 432 
z
" style="fill: none"/>
  </g>
  <g id="axes_1">
   <g id="patch_2">
    <path d="M 0 432 
L 864 432 
L 864 0 
L 0 0 
z
" style="fill: #ffffff"/>
   </g>
   <g id="patch_3">
    <path d="M 22.023529 432 
L 28.8 432 
L 28.8 -437.184 
L 22.023529 -437.184 
z
" clip-path="url(#pe1aa96a862)" style="fill: #1f77b4"/>
   </g>
   <g id="patch_4">
    <path d="M 30.494118 432 
L 37.270588 432 
L 37.270588 -17.28 
L 30.494118 -17.28 
z
" clip-path="url(#pe1aa96a862)" style="fill: #1f77b4"/>
   </g>
   <g id="patch_5">
    <path d="M 38.964706 432 
L 45.741176 432 
L 45.741176 125.28 
L 38.964706 125.28 
z
" clip-path="url(#pe1aa96a862)" style="fill: #1f77b4"/>
   </g>
   <g id="patch_6">
    <path d="M 47.435294 432 
L 54.211765 432 
L 54.211765 187.488 
L 47.435294 187.488 
z
" clip-path="url(#pe1aa96a862)" style="fill: #1f77b4"/>
   </g>
   <g id="patch_7">
    <path d="M 55.905882 432 
L 62.682353 432 
L 62.682353 267.84 
L 55.905882 267.84 
z
" clip-path="url(#pe1aa96a862)" style="fill: #1f77b4"/>
   </g>
   <g id="patch_8">
    <path d="M 64.376471 432 
L 71.152941 432 
L 71.152941 321.408 
L 64.376471 321.408 
z
" clip-path="url(#pe1aa96a862)" style="fill: #1f77b4"/>
   </g>
   <g id="patch_9">
    <path d="M 72.847059 432 
L 79.623529 432 
L 79.623529 336.096 
L 72.847059 336.096 
z
" clip-path="url(#pe1aa96a862)" style="fill: #1f77b4"/>
   </g>
   <g id="patch_10">
    <path d="M 81.317647 432 
L 88.094118 432 
L 88.094118 361.152 
L 81.317647 361.152 
z
" clip-path="url(#pe1aa96a862)" style="fill: #1f77b4"/>
   </g>
   <g id="patch_11">
    <path d="M 89.788235 432 
L 96.564706 432 
L 96.564706 356.832 
L 89.788235 356.832 
z
" clip-path="url(#pe1aa96a862)" style="fill: #1f77b4"/>
   </g>
   <g id="patch_12">
    <path d="M 98.258824 432 
L 105.035294 432 
L 105.035294 374.112 
L 98.258824 374.112 
z
" clip-path="url(#pe1aa96a862)" style="fill: #1f77b4"/>
   </g>
   <g id="patch_13">
    <path d="M 106.729412 432 
L 113.505882 432 
L 113.505882 378.432 
L 106.729412 378.432 
z
" clip-path="url(#pe1aa96a862)" style="fill: #1f77b4"/>
   </g>
   <g id="patch_14">
    <path d="M 115.2 432 
L 121.976471 432 
L 121.976471 373.248 
L 115.2 373.248 
z
" clip-path="url(#pe1aa96a862)" style="fill: #1f77b4"/>
   </g>
   <g id="patch_15">
    <path d="M 123.670588 432 
L 130.447059 432 
L 130.447059 379.296 
L 123.670588 379.296 
z
" clip-path="url(#pe1aa96a862)" style="fill: #1f77b4"/>
   </g>
   <g id="patch_16">
    <path d="M 132.141176 432 
L 138.917647 432 
L 138.917647 388.8 
L 132.141176 388.8 
z
" clip-path="url(#pe1aa96a862)" style="fill: #1f77b4"/>
   </g>
   <g id="patch_17">
    <path d="M 140.611765 432 
L 147.388235 432 
L 147.388235 376.704 
L 140.611765 376.704 
z
" clip-path="url(#pe1aa96a862)" style="fill: #1f77b4"/>
   </g>
   <g id="patch_18">
    <path d="M 149.082353 432 
L 155.858824 432 
L 155.858824 395.712 
L 149.082353 395.712 
z
" clip-path="url(#pe1aa96a862)" style="fill: #1f77b4"/>
   </g>
   <g id="patch_19">
    <path d="M 157.552941 432 
L 164.329412 432 
L 164.329412 387.072 
L 157.552941 387.072 
z
" clip-path="url(#pe1aa96a862)" style="fill: #1f77b4"/>
   </g>
   <g id="patch_20">
    <path d="M 166.023529 432 
L 172.8 432 
L 172.8 394.848 
L 166.023529 394.848 
z
" clip-path="url(#pe1aa96a862)" style="fill: #1f77b4"/>
   </g>
   <g id="patch_21">
    <path d="M 174.494118 432 
L 181.270588 432 
L 181.270588 397.44 
L 174.494118 397.44 
z
" clip-path="url(#pe1aa96a862)" style="fill: #1f77b4"/>
   </g>
   <g id="patch_22">
    <path d="M 182.964706 432 
L 189.741176 432 
L 189.741176 395.712 
L 182.964706 395.712 
z
" clip-path="url(#pe1aa96a862)" style="fill: #1f77b4"/>
   </g>
   <g id="patch_23">
    <path d="M 191.435294 432 
L 198.211765 432 
L 198.211765 404.352 
L 191.435294 404.352 
z
" clip-path="url(#pe1aa96a862)" style="fill: #1f77b4"/>
   </g>
   <g id="patch_24">
    <path d="M 199.905882 432 
L 206.682353 432 
L 206.682353 404.352 
L 199.905882 404.352 
z
" clip-path="url(#pe1aa96a862)" style="fill: #1f77b4"/>
   </g>
   <g id="patch_25">
    <path d="M 208.376471 432 
L 215.152941 432 
L 215.152941 401.76 
L 208.376471 401.76 
z
" clip-path="url(#pe1aa96a862)" style="fill: #1f77b4"/>
   </g>
   <g id="patch_26">
    <path d="M 216.847059 432 
L 223.623529 432 
L 223.623529 405.216 
L 216.847059 405.216 
z
" clip-path="url(#pe1aa96a862)" style="fill: #1f77b4"/>
   </g>
   <g id="patch_27">
    <path d="M 225.317647 432 
L 232.094118 432 
L 232.094118 402.624 
L 225.317647 402.624 
z
" clip-path="url(#pe1aa96a862)" style="fill: #1f77b4"/>
   </g>
   <g id="patch_28">
    <path d="M 233.788235 432 
L 240.564706 432 
L 240.564706 415.584 
L 233.788235 415.584 
z
" clip-path="url(#pe1aa96a862)" style="fill: #1f77b4"/>
   </g>
   <g id="patch_29">
    <path d="M 242.258824 432 
L 249.035294 432 
L 249.035294 406.08 
L 242.258824 406.08 
z
" clip-path="url(#pe1aa96a862)" style="fill: #1f77b4"/>
   </g>
   <g id="patch_30">
    <path d="M 250.729412 432 
L 257.505882 432 
L 257.505882 408.672 
L 250.729412 408.672 
z
" clip-path="url(#pe1aa96a862)" style="fill: #1f77b4"/>
   </g>
   <g id="patch_31">
    <path d="M 259.2 432 
L 265.976471 432 
L 265.976471 418.176 
L 259.2 418.176 
z
" clip-path="url(#pe1aa96a862)" style="fill: #1f77b4"/>
   </g>
   <g id="patch_32">
    <path d="M 267.670588 432 
L 274.447059 432 
L 274.447059 418.176 
L 267.670588 418.176 
z
" clip-path="url(#pe1aa96a862)" style="fill: #1f77b4"/>
   </g>
   <g id="patch_33">
    <path d="M 276.141176 432 
L 282.917647 432 
L 282.917647 420.768 
L 276.141176 420.768 
z
" clip-path="url(#pe1aa96a862)" style="fill: #1f77b4"/>
   </g>
   <g id="patch_34">
    <path d="M 284.611765 432 
L 291.388235 432 
L 291.388235 419.04 
L 284.611765 419.04 
z
" clip-path="url(#pe1aa96a862)" style="fill: #1f77b4"/>
   </g>
   <g id="patch_35">
    <path d="M 293.082353 432 
L 299.858824 432 
L 299.858824 424.224 
L 293.082353 424.224 
z
" clip-path="url(#pe1aa96a862)" style="fill: #1f77b4"/>
   </g>
   <g id="patch_36">
    <path d="M 301.552941 432 
L 308.329412 432 
L 308.329412 421.632 
L 301.552941 421.632 
z
" clip-path="url(#pe1aa96a862)" style="fill: #1f77b4"/>
   </g>
   <g id="patch_37">
    <path d="M 310.023529 432 
L 316.8 432 
L 316.8 421.632 
L 310.023529 421.632 
z
" clip-path="url(#pe1aa96a862)" style="fill: #1f77b4"/>
   </g>
   <g id="patch_38">
    <path d="M 318.494118 432 
L 325.270588 432 
L 325.270588 423.36 
L 318.494118 423.36 
z
" clip-path="url(#pe1aa96a862)" style="fill: #1f77b4"/>
   </g>
   <g id="patch_39">
    <path d="M 326.964706 432 
L 333.741176 432 
L 333.741176 424.224 
L 326.964706 424.224 
z
" clip-path="url(#pe1aa96a862)" style="fill: #1f77b4"/>
   </g>
   <g id="patch_40">
    <path d="M 335.435294 432 
L 342.211765 432 
L 342.211765 423.36 
L 335.435294 423.36 
z
" clip-path="url(#pe1aa96a862)" style="fill: #1f77b4"/>
   </g>
   <g id="patch_41">
    <path d="M 343.905882 432 
L 350.682353 432 
L 350.682353 427.68 
L 343.905882 427.68 
z
" clip-path="url(#pe1aa96a862)" style="fill: #1f77b4"/>
   </g>
   <g id="patch_42">
    <path d="M 352.376471 432 
L 359.152941 432 
L 359.152941 427.68 
L 352.376471 427.68 
z
" clip-path="url(#pe1aa96a862)" style="fill: #1f77b4"/>
   </g>
   <g id="patch_43">
    <path d="M 360.847059 432 
L 367.623529 432 
L 367.623529 425.952 
L 360.847059 425.952 
z
" clip-path="url(#pe1aa96a862)" style="fill: #1f77b4"/>
   </g>
   <g id="patch_44">
    <path d="M 369.317647 432 
L 376.094118 432 
L 376.094118 425.088 
L 369.317647 425.088 
z
" clip-path="url(#pe1aa96a862)" style="fill: #1f77b4"/>
   </g>
   <g id="patch_45">
    <path d="M 377.788235 432 
L 384.564706 432 
L 384.564706 424.224 
L 377.788235 424.224 
z
" clip-path="url(#pe1aa96a862)" style="fill: #1f77b4"/>
   </g>
   <g id="patch_46">
    <path d="M 386.258824 432 
L 393.035294 432 
L 393.035294 427.68 
L 386.258824 427.68 
z
" clip-path="url(#pe1aa96a862)" style="fill: #1f77b4"/>
   </g>
   <g id="patch_47">
    <path d="M 394.729412 432 
L 401.505882 432 
L 401.505882 424.224 
L 394.729412 424.224 
z
" clip-path="url(#pe1aa96a862)" style="fill: #1f77b4"/>
   </g>
   <g id="patch_48">
    <path d="M 403.2 432 
L 409.976471 432 
L 409.976471 427.68 
L 403.2 427.68 
z
" clip-path="url(#pe1aa96a862)" style="fill: #1f77b4"/>
   </g>
   <g id="patch_49">
    <path d="M 411.670588 432 
L 418.447059 432 
L 418.447059 422.496 
L 411.670588 422.496 
z
" clip-path="url(#pe1aa96a862)" style="fill: #1f77b4"/>
   </g>
   <g id="patch_50">
    <path d="M 420.141176 432 
L 426.917647 432 
L 426.917647 425.088 
L 420.141176 425.088 
z
" clip-path="url(#pe1aa96a862)" style="fill: #1f77b4"/>
   </g>
   <g id="patch_51">
    <path d="M 428.611765 432 
L 435.388235 432 
L 435.388235 426.816 
L 428.611765 426.816 
z
" clip-path="url(#pe1aa96a862)" style="fill: #1f77b4"/>
   </g>
   <g id="patch_52">
    <path d="M 437.082353 432 
L 443.858824 432 
L 443.858824 431.136 
L 437.082353 431.136 
z
" clip-path="url(#pe1aa96a862)" style="fill: #1f77b4"/>
   </g>
   <g id="patch_53">
    <path d="M 445.552941 432 
L 452.329412 432 
L 452.329412 423.36 
L 445.552941 423.36 
z
" clip-path="url(#pe1aa96a862)" style="fill: #1f77b4"/>
   </g>
   <g id="patch_54">
    <path d="M 454.023529 432 
L 460.8 432 
L 460.8 426.816 
L 454.023529 426.816 
z
" clip-path="url(#pe1aa96a862)" style="fill: #1f77b4"/>
   </g>
   <g id="patch_55">
    <path d="M 462.494118 432 
L 469.270588 432 
L 469.270588 424.224 
L 462.494118 424.224 
z
" clip-path="url(#pe1aa96a862)" style="fill: #1f77b4"/>
   </g>
   <g id="patch_56">
    <path d="M 470.964706 432 
L 477.741176 432 
L 477.741176 430.272 
L 470.964706 430.272 
z
" clip-path="url(#pe1aa96a862)" style="fill: #1f77b4"/>
   </g>
   <g id="patch_57">
    <path d="M 479.435294 432 
L 486.211765 432 
L 486.211765 425.952 
L 479.435294 425.952 
z
" clip-path="url(#pe1aa96a862)" style="fill: #1f77b4"/>
   </g>
   <g id="patch_58">
    <path d="M 487.905882 432 
L 494.682353 432 
L 494.682353 425.952 
L 487.905882 425.952 
z
" clip-path="url(#pe1aa96a862)" style="fill: #1f77b4"/>
   </g>
   <g id="patch_59">
    <path d="M 496.376471 432 
L 503.152941 432 
L 503.152941 431.136 
L 496.376471 431.136 
z
" clip-path="url(#pe1aa96a862)" style="fill: #1f77b4"/>
   </g>
   <g id="patch_60">
    <path d="M 504.847059 432 
L 511.623529 432 
L 511.623529 426.816 
L 504.847059 426.816 
z
" clip-path="url(#pe1aa96a862)" style="fill: #1f77b4"/>
   </g>
   <g id="patch_61">
    <path d="M 513.317647 432 
L 520.094118 432 
L 520.094118 429.408 
L 513.317647 429.408 
z
" clip-path="url(#pe1aa96a862)" style="fill: #1f77b4"/>
   </g>
   <g id="patch_62">
    <path d="M 521.788235 432 
L 528.564706 432 
L 528.564706 426.816 
L 521.788235 426.816 
z
" clip-path="url(#pe1aa96a862)" style="fill: #1f77b4"/>
   </g>
   <g id="patch_63">
    <path d="M 530.258824 432 
L 537.035294 432 
L 537.035294 427.68 
L 530.258824 427.68 
z
" clip-path="url(#pe1aa96a862)" style="fill: #1f77b4"/>
   </g>
   <g id="patch_64">
    <path d="M 538.729412 432 
L 545.505882 432 
L 545.505882 427.68 
L 538.729412 427.68 
z
" clip-path="url(#pe1aa96a862)" style="fill: #1f77b4"/>
   </g>
   <g id="patch_65">
    <path d="M 547.2 432 
L 553.976471 432 
L 553.976471 429.408 
L 547.2 429.408 
z
" clip-path="url(#pe1aa96a862)" style="fill: #1f77b4"/>
   </g>
   <g id="patch_66">
    <path d="M 555.670588 432 
L 562.447059 432 
L 562.447059 430.272 
L 555.670588 430.272 
z
" clip-path="url(#pe1aa96a862)" style="fill: #1f77b4"/>
   </g>
   <g id="patch_67">
    <path d="M 564.141176 432 
L 570.917647 432 
L 570.917647 427.68 
L 564.141176 427.68 
z
" clip-path="url(#pe1aa96a862)" style="fill: #1f77b4"/>
   </g>
   <g id="patch_68">
    <path d="M 572.611765 432 
L 579.388235 432 
L 579.388235 431.136 
L 572.611765 431.136 
z
" clip-path="url(#pe1aa96a862)" style="fill: #1f77b4"/>
   </g>
   <g id="patch_69">
    <path d="M 589.552941 432 
L 596.329412 432 
L 596.329412 430.272 
L 589.552941 430.272 
z
" clip-path="url(#pe1aa96a862)" style="fill: #1f77b4"/>
   </g>
   <g id="patch_70">
    <path d="M 598.023529 432 
L 604.8 432 
L 604.8 428.544 
L 598.023529 428.544 
z
" clip-path="url(#pe1aa96a862)" style="fill: #1f77b4"/>
   </g>
   <g id="patch_71">
    <path d="M 606.494118 432 
L 613.270588 432 
L 613.270588 430.272 
L 606.494118 430.272 
z
" clip-path="url(#pe1aa96a862)" style="fill: #1f77b4"/>
   </g>
   <g id="patch_72">
    <path d="M 614.964706 432 
L 621.741176 432 
L 621.741176 425.952 
L 614.964706 425.952 
z
" clip-path="url(#pe1aa96a862)" style="fill: #1f77b4"/>
   </g>
   <g id="patch_73">
    <path d="M 623.435294 432 
L 630.211765 432 
L 630.211765 428.544 
L 623.435294 428.544 
z
" clip-path="url(#pe1aa96a862)" style="fill: #1f77b4"/>
   </g>
   <g id="patch_74">
    <path d="M 631.905882 432 
L 638.682353 432 
L 638.682353 428.544 
L 631.905882 428.544 
z
" clip-path="url(#pe1aa96a862)" style="fill: #1f77b4"/>
   </g>
   <g id="patch_75">
    <path d="M 640.376471 432 
L 647.152941 432 
L 647.152941 431.136 
L 640.376471 431.136 
z
" clip-path="url(#pe1aa96a862)" style="fill: #1f77b4"/>
   </g>
   <g id="patch_76">
    <path d="M 648.847059 432 
L 655.623529 432 
L 655.623529 429.408 
L 648.847059 429.408 
z
" clip-path="url(#pe1aa96a862)" style="fill: #1f77b4"/>
   </g>
   <g id="patch_77">
    <path d="M 657.317647 432 
L 664.094118 432 
L 664.094118 429.408 
L 657.317647 429.408 
z
" clip-path="url(#pe1aa96a862)" style="fill: #1f77b4"/>
   </g>
   <g id="patch_78">
    <path d="M 665.788235 432 
L 672.564706 432 
L 672.564706 428.544 
L 665.788235 428.544 
z
" clip-path="url(#pe1aa96a862)" style="fill: #1f77b4"/>
   </g>
   <g id="patch_79">
    <path d="M 674.258824 432 
L 681.035294 432 
L 681.035294 430.272 
L 674.258824 430.272 
z
" clip-path="url(#pe1aa96a862)" style="fill: #1f77b4"/>
   </g>
   <g id="patch_80">
    <path d="M 682.729412 432 
L 689.505882 432 
L 689.505882 431.136 
L 682.729412 431.136 
z
" clip-path="url(#pe1aa96a862)" style="fill: #1f77b4"/>
   </g>
   <g id="patch_81">
    <path d="M 691.2 432 
L 697.976471 432 
L 697.976471 431.136 
L 691.2 431.136 
z
" clip-path="url(#pe1aa96a862)" style="fill: #1f77b4"/>
   </g>
   <g id="patch_82">
    <path d="M 699.670588 432 
L 706.447059 432 
L 706.447059 429.408 
L 699.670588 429.408 
z
" clip-path="url(#pe1aa96a862)" style="fill: #1f77b4"/>
   </g>
   <g id="patch_83">
    <path d="M 708.141176 432 
L 714.917647 432 
L 714.917647 430.272 
L 708.141176 430.272 
z
" clip-path="url(#pe1aa96a862)" style="fill: #1f77b4"/>
   </g>
   <g id="patch_84">
    <path d="M 716.611765 432 
L 723.388235 432 
L 723.388235 429.408 
L 716.611765 429.408 
z
" clip-path="url(#pe1aa96a862)" style="fill: #1f77b4"/>
   </g>
   <g id="patch_85">
    <path d="M 725.082353 432 
L 731.858824 432 
L 731.858824 428.544 
L 725.082353 428.544 
z
" clip-path="url(#pe1aa96a862)" style="fill: #1f77b4"/>
   </g>
   <g id="patch_86">
    <path d="M 733.552941 432 
L 740.329412 432 
L 740.329412 428.544 
L 733.552941 428.544 
z
" clip-path="url(#pe1aa96a862)" style="fill: #1f77b4"/>
   </g>
   <g id="patch_87">
    <path d="M 742.023529 432 
L 748.8 432 
L 748.8 428.544 
L 742.023529 428.544 
z
" clip-path="url(#pe1aa96a862)" style="fill: #1f77b4"/>
   </g>
   <g id="patch_88">
    <path d="M 750.494118 432 
L 757.270588 432 
L 757.270588 430.272 
L 750.494118 430.272 
z
" clip-path="url(#pe1aa96a862)" style="fill: #1f77b4"/>
   </g>
   <g id="patch_89">
    <path d="M 758.964706 432 
L 765.741176 432 
L 765.741176 431.136 
L 758.964706 431.136 
z
" clip-path="url(#pe1aa96a862)" style="fill: #1f77b4"/>
   </g>
   <g id="patch_90">
    <path d="M 767.435294 432 
L 774.211765 432 
L 774.211765 429.408 
L 767.435294 429.408 
z
" clip-path="url(#pe1aa96a862)" style="fill: #1f77b4"/>
   </g>
   <g id="patch_91">
    <path d="M 775.905882 432 
L 782.682353 432 
L 782.682353 428.544 
L 775.905882 428.544 
z
" clip-path="url(#pe1aa96a862)" style="fill: #1f77b4"/>
   </g>
   <g id="patch_92">
    <path d="M 784.376471 432 
L 791.152941 432 
L 791.152941 428.544 
L 784.376471 428.544 
z
" clip-path="url(#pe1aa96a862)" style="fill: #1f77b4"/>
   </g>
   <g id="patch_93">
    <path d="M 792.847059 432 
L 799.623529 432 
L 799.623529 431.136 
L 792.847059 431.136 
z
" clip-path="url(#pe1aa96a862)" style="fill: #1f77b4"/>
   </g>
   <g id="patch_94">
    <path d="M 801.317647 432 
L 808.094118 432 
L 808.094118 431.136 
L 801.317647 431.136 
z
" clip-path="url(#pe1aa96a862)" style="fill: #1f77b4"/>
   </g>
   <g id="patch_95">
    <path d="M 809.788235 432 
L 816.564706 432 
L 816.564706 431.136 
L 809.788235 431.136 
z
" clip-path="url(#pe1aa96a862)" style="fill: #1f77b4"/>
   </g>
   <g id="patch_96">
    <path d="M 826.729412 432 
L 833.505882 432 
L 833.505882 431.136 
L 826.729412 431.136 
z
" clip-path="url(#pe1aa96a862)" style="fill: #1f77b4"/>
   </g>
   <g id="patch_97">
    <path d="M 835.2 432 
L 841.976471 432 
L 841.976471 431.136 
L 835.2 431.136 
z
" clip-path="url(#pe1aa96a862)" style="fill: #1f77b4"/>
   </g>
   <g id="patch_98">
    <path d="M 843.670588 432 
L 850.447059 432 
L 850.447059 431.136 
L 843.670588 431.136 
z
" clip-path="url(#pe1aa96a862)" style="fill: #1f77b4"/>
   </g>
   <g id="patch_99">
    <path d="M 852.141176 432 
L 858.917647 432 
L 858.917647 428.544 
L 852.141176 428.544 
z
" clip-path="url(#pe1aa96a862)" style="fill: #1f77b4"/>
   </g>
   <g id="patch_100">
    <path d="M 860.611765 432 
L 867.388235 432 
L 867.388235 431.136 
L 860.611765 431.136 
z
" clip-path="url(#pe1aa96a862)" style="fill: #1f77b4"/>
   </g>
   <g id="patch_101">
    <path d="M 869.082353 432 
L 875.858824 432 
L 875.858824 430.272 
L 869.082353 430.272 
z
" clip-path="url(#pe1aa96a862)" style="fill: #1f77b4"/>
   </g>
   <g id="patch_102">
    <path d="M 886.023529 432 
L 892.8 432 
L 892.8 429.408 
L 886.023529 429.408 
z
" clip-path="url(#pe1aa96a862)" style="fill: #1f77b4"/>
   </g>
   <g id="patch_103">
    <path d="M 902.964706 432 
L 909.741176 432 
L 909.741176 431.136 
L 902.964706 431.136 
z
" clip-path="url(#pe1aa96a862)" style="fill: #1f77b4"/>
   </g>
   <g id="patch_104">
    <path d="M 919.905882 432 
L 926.682353 432 
L 926.682353 429.408 
L 919.905882 429.408 
z
" clip-path="url(#pe1aa96a862)" style="fill: #1f77b4"/>
   </g>
   <g id="patch_105">
    <path d="M 928.376471 432 
L 935.152941 432 
L 935.152941 431.136 
L 928.376471 431.136 
z
" clip-path="url(#pe1aa96a862)" style="fill: #1f77b4"/>
   </g>
   <g id="patch_106">
    <path d="M 936.847059 432 
L 943.623529 432 
L 943.623529 431.136 
L 936.847059 431.136 
z
" clip-path="url(#pe1aa96a862)" style="fill: #1f77b4"/>
   </g>
   <g id="patch_107">
    <path d="M 945.317647 432 
L 952.094118 432 
L 952.094118 430.272 
L 945.317647 430.272 
z
" clip-path="url(#pe1aa96a862)" style="fill: #1f77b4"/>
   </g>
   <g id="patch_108">
    <path d="M 953.788235 432 
L 960.564706 432 
L 960.564706 430.272 
L 953.788235 430.272 
z
" clip-path="url(#pe1aa96a862)" style="fill: #1f77b4"/>
   </g>
   <g id="patch_109">
    <path d="M 962.258824 432 
L 969.035294 432 
L 969.035294 430.272 
L 962.258824 430.272 
z
" clip-path="url(#pe1aa96a862)" style="fill: #1f77b4"/>
   </g>
   <g id="patch_110">
    <path d="M 970.729412 432 
L 977.505882 432 
L 977.505882 431.136 
L 970.729412 431.136 
z
" clip-path="url(#pe1aa96a862)" style="fill: #1f77b4"/>
   </g>
   <g id="patch_111">
    <path d="M 979.2 432 
L 985.976471 432 
L 985.976471 431.136 
L 979.2 431.136 
z
" clip-path="url(#pe1aa96a862)" style="fill: #1f77b4"/>
   </g>
   <g id="patch_112">
    <path d="M 987.670588 432 
L 994.447059 432 
L 994.447059 431.136 
L 987.670588 431.136 
z
" clip-path="url(#pe1aa96a862)" style="fill: #1f77b4"/>
   </g>
   <g id="patch_113">
    <path d="M 996.141176 432 
L 1002.917647 432 
L 1002.917647 431.136 
L 996.141176 431.136 
z
" clip-path="url(#pe1aa96a862)" style="fill: #1f77b4"/>
   </g>
   <g id="patch_114">
    <path d="M 1004.611765 432 
L 1011.388235 432 
L 1011.388235 430.272 
L 1004.611765 430.272 
z
" clip-path="url(#pe1aa96a862)" style="fill: #1f77b4"/>
   </g>
   <g id="patch_115">
    <path d="M 1021.552941 432 
L 1028.329412 432 
L 1028.329412 431.136 
L 1021.552941 431.136 
z
" clip-path="url(#pe1aa96a862)" style="fill: #1f77b4"/>
   </g>
   <g id="patch_116">
    <path d="M 1030.023529 432 
L 1036.8 432 
L 1036.8 431.136 
L 1030.023529 431.136 
z
" clip-path="url(#pe1aa96a862)" style="fill: #1f77b4"/>
   </g>
   <g id="patch_117">
    <path d="M 1046.964706 432 
L 1053.741176 432 
L 1053.741176 431.136 
L 1046.964706 431.136 
z
" clip-path="url(#pe1aa96a862)" style="fill: #1f77b4"/>
   </g>
   <g id="patch_118">
    <path d="M 1072.376471 432 
L 1079.152941 432 
L 1079.152941 429.408 
L 1072.376471 429.408 
z
" clip-path="url(#pe1aa96a862)" style="fill: #1f77b4"/>
   </g>
   <g id="patch_119">
    <path d="M 1089.317647 432 
L 1096.094118 432 
L 1096.094118 431.136 
L 1089.317647 431.136 
z
" clip-path="url(#pe1aa96a862)" style="fill: #1f77b4"/>
   </g>
   <g id="patch_120">
    <path d="M 1097.788235 432 
L 1104.564706 432 
L 1104.564706 430.272 
L 1097.788235 430.272 
z
" clip-path="url(#pe1aa96a862)" style="fill: #1f77b4"/>
   </g>
   <g id="patch_121">
    <path d="M 1106.258824 432 
L 1113.035294 432 
L 1113.035294 430.272 
L 1106.258824 430.272 
z
" clip-path="url(#pe1aa96a862)" style="fill: #1f77b4"/>
   </g>
   <g id="patch_122">
    <path d="M 1131.670588 432 
L 1138.447059 432 
L 1138.447059 431.136 
L 1131.670588 431.136 
z
" clip-path="url(#pe1aa96a862)" style="fill: #1f77b4"/>
   </g>
   <g id="patch_123">
    <path d="M 1148.611765 432 
L 1155.388235 432 
L 1155.388235 431.136 
L 1148.611765 431.136 
z
" clip-path="url(#pe1aa96a862)" style="fill: #1f77b4"/>
   </g>
   <g id="patch_124">
    <path d="M 1157.082353 432 
L 1163.858824 432 
L 1163.858824 431.136 
L 1157.082353 431.136 
z
" clip-path="url(#pe1aa96a862)" style="fill: #1f77b4"/>
   </g>
   <g id="patch_125">
    <path d="M 1174.023529 432 
L 1180.8 432 
L 1180.8 431.136 
L 1174.023529 431.136 
z
" clip-path="url(#pe1aa96a862)" style="fill: #1f77b4"/>
   </g>
   <g id="patch_126">
    <path d="M 1182.494118 432 
L 1189.270588 432 
L 1189.270588 429.408 
L 1182.494118 429.408 
z
" clip-path="url(#pe1aa96a862)" style="fill: #1f77b4"/>
   </g>
   <g id="patch_127">
    <path d="M 1190.964706 432 
L 1197.741176 432 
L 1197.741176 431.136 
L 1190.964706 431.136 
z
" clip-path="url(#pe1aa96a862)" style="fill: #1f77b4"/>
   </g>
   <g id="patch_128">
    <path d="M 1199.435294 432 
L 1206.211765 432 
L 1206.211765 431.136 
L 1199.435294 431.136 
z
" clip-path="url(#pe1aa96a862)" style="fill: #1f77b4"/>
   </g>
   <g id="patch_129">
    <path d="M 1216.376471 432 
L 1223.152941 432 
L 1223.152941 431.136 
L 1216.376471 431.136 
z
" clip-path="url(#pe1aa96a862)" style="fill: #1f77b4"/>
   </g>
   <g id="patch_130">
    <path d="M 1224.847059 432 
L 1231.623529 432 
L 1231.623529 431.136 
L 1224.847059 431.136 
z
" clip-path="url(#pe1aa96a862)" style="fill: #1f77b4"/>
   </g>
   <g id="patch_131">
    <path d="M 1233.317647 432 
L 1240.094118 432 
L 1240.094118 430.272 
L 1233.317647 430.272 
z
" clip-path="url(#pe1aa96a862)" style="fill: #1f77b4"/>
   </g>
   <g id="patch_132">
    <path d="M 1241.788235 432 
L 1248.564706 432 
L 1248.564706 429.408 
L 1241.788235 429.408 
z
" clip-path="url(#pe1aa96a862)" style="fill: #1f77b4"/>
   </g>
   <g id="patch_133">
    <path d="M 1258.729412 432 
L 1265.505882 432 
L 1265.505882 430.272 
L 1258.729412 430.272 
z
" clip-path="url(#pe1aa96a862)" style="fill: #1f77b4"/>
   </g>
   <g id="patch_134">
    <path d="M 1267.2 432 
L 1273.976471 432 
L 1273.976471 431.136 
L 1267.2 431.136 
z
" clip-path="url(#pe1aa96a862)" style="fill: #1f77b4"/>
   </g>
   <g id="patch_135">
    <path d="M 1275.670588 432 
L 1282.447059 432 
L 1282.447059 431.136 
L 1275.670588 431.136 
z
" clip-path="url(#pe1aa96a862)" style="fill: #1f77b4"/>
   </g>
   <g id="patch_136">
    <path d="M 1284.141176 432 
L 1290.917647 432 
L 1290.917647 431.136 
L 1284.141176 431.136 
z
" clip-path="url(#pe1aa96a862)" style="fill: #1f77b4"/>
   </g>
   <g id="patch_137">
    <path d="M 1292.611765 432 
L 1299.388235 432 
L 1299.388235 431.136 
L 1292.611765 431.136 
z
" clip-path="url(#pe1aa96a862)" style="fill: #1f77b4"/>
   </g>
   <g id="patch_138">
    <path d="M 1309.552941 432 
L 1316.329412 432 
L 1316.329412 431.136 
L 1309.552941 431.136 
z
" clip-path="url(#pe1aa96a862)" style="fill: #1f77b4"/>
   </g>
   <g id="patch_139">
    <path d="M 1318.023529 432 
L 1324.8 432 
L 1324.8 429.408 
L 1318.023529 429.408 
z
" clip-path="url(#pe1aa96a862)" style="fill: #1f77b4"/>
   </g>
   <g id="patch_140">
    <path d="M 1334.964706 432 
L 1341.741176 432 
L 1341.741176 431.136 
L 1334.964706 431.136 
z
" clip-path="url(#pe1aa96a862)" style="fill: #1f77b4"/>
   </g>
   <g id="patch_141">
    <path d="M 1351.905882 432 
L 1358.682353 432 
L 1358.682353 431.136 
L 1351.905882 431.136 
z
" clip-path="url(#pe1aa96a862)" style="fill: #1f77b4"/>
   </g>
   <g id="patch_142">
    <path d="M 1360.376471 432 
L 1367.152941 432 
L 1367.152941 430.272 
L 1360.376471 430.272 
z
" clip-path="url(#pe1aa96a862)" style="fill: #1f77b4"/>
   </g>
   <g id="patch_143">
    <path d="M 1385.788235 432 
L 1392.564706 432 
L 1392.564706 431.136 
L 1385.788235 431.136 
z
" clip-path="url(#pe1aa96a862)" style="fill: #1f77b4"/>
   </g>
   <g id="patch_144">
    <path d="M 1394.258824 432 
L 1401.035294 432 
L 1401.035294 431.136 
L 1394.258824 431.136 
z
" clip-path="url(#pe1aa96a862)" style="fill: #1f77b4"/>
   </g>
   <g id="patch_145">
    <path d="M 1402.729412 432 
L 1409.505882 432 
L 1409.505882 431.136 
L 1402.729412 431.136 
z
" clip-path="url(#pe1aa96a862)" style="fill: #1f77b4"/>
   </g>
   <g id="patch_146">
    <path d="M 1419.670588 432 
L 1426.447059 432 
L 1426.447059 431.136 
L 1419.670588 431.136 
z
" clip-path="url(#pe1aa96a862)" style="fill: #1f77b4"/>
   </g>
   <g id="patch_147">
    <path d="M 1445.082353 432 
L 1451.858824 432 
L 1451.858824 431.136 
L 1445.082353 431.136 
z
" clip-path="url(#pe1aa96a862)" style="fill: #1f77b4"/>
   </g>
   <g id="patch_148">
    <path d="M 1462.023529 432 
L 1468.8 432 
L 1468.8 431.136 
L 1462.023529 431.136 
z
" clip-path="url(#pe1aa96a862)" style="fill: #1f77b4"/>
   </g>
   <g id="patch_149">
    <path d="M 1478.964706 432 
L 1485.741176 432 
L 1485.741176 431.136 
L 1478.964706 431.136 
z
" clip-path="url(#pe1aa96a862)" style="fill: #1f77b4"/>
   </g>
   <g id="patch_150">
    <path d="M 1495.905882 432 
L 1502.682353 432 
L 1502.682353 431.136 
L 1495.905882 431.136 
z
" clip-path="url(#pe1aa96a862)" style="fill: #1f77b4"/>
   </g>
   <g id="patch_151">
    <path d="M 1504.376471 432 
L 1511.152941 432 
L 1511.152941 431.136 
L 1504.376471 431.136 
z
" clip-path="url(#pe1aa96a862)" style="fill: #1f77b4"/>
   </g>
   <g id="patch_152">
    <path d="M 1529.788235 432 
L 1536.564706 432 
L 1536.564706 431.136 
L 1529.788235 431.136 
z
" clip-path="url(#pe1aa96a862)" style="fill: #1f77b4"/>
   </g>
   <g id="patch_153">
    <path d="M 1546.729412 432 
L 1553.505882 432 
L 1553.505882 431.136 
L 1546.729412 431.136 
z
" clip-path="url(#pe1aa96a862)" style="fill: #1f77b4"/>
   </g>
   <g id="patch_154">
    <path d="M 1572.141176 432 
L 1578.917647 432 
L 1578.917647 431.136 
L 1572.141176 431.136 
z
" clip-path="url(#pe1aa96a862)" style="fill: #1f77b4"/>
   </g>
   <g id="patch_155">
    <path d="M 1597.552941 432 
L 1604.329412 432 
L 1604.329412 431.136 
L 1597.552941 431.136 
z
" clip-path="url(#pe1aa96a862)" style="fill: #1f77b4"/>
   </g>
   <g id="patch_156">
    <path d="M 1648.376471 432 
L 1655.152941 432 
L 1655.152941 431.136 
L 1648.376471 431.136 
z
" clip-path="url(#pe1aa96a862)" style="fill: #1f77b4"/>
   </g>
   <g id="patch_157">
    <path d="M 1656.847059 432 
L 1663.623529 432 
L 1663.623529 431.136 
L 1656.847059 431.136 
z
" clip-path="url(#pe1aa96a862)" style="fill: #1f77b4"/>
   </g>
   <g id="patch_158">
    <path d="M 1690.729412 432 
L 1697.505882 432 
L 1697.505882 431.136 
L 1690.729412 431.136 
z
" clip-path="url(#pe1aa96a862)" style="fill: #1f77b4"/>
   </g>
   <g id="patch_159">
    <path d="M 1699.2 432 
L 1705.976471 432 
L 1705.976471 431.136 
L 1699.2 431.136 
z
" clip-path="url(#pe1aa96a862)" style="fill: #1f77b4"/>
   </g>
   <g id="patch_160">
    <path d="M 1707.670588 432 
L 1714.447059 432 
L 1714.447059 431.136 
L 1707.670588 431.136 
z
" clip-path="url(#pe1aa96a862)" style="fill: #1f77b4"/>
   </g>
   <g id="patch_161">
    <path d="M 1724.611765 432 
L 1731.388235 432 
L 1731.388235 431.136 
L 1724.611765 431.136 
z
" clip-path="url(#pe1aa96a862)" style="fill: #1f77b4"/>
   </g>
   <g id="patch_162">
    <path d="M 1766.964706 432 
L 1773.741176 432 
L 1773.741176 431.136 
L 1766.964706 431.136 
z
" clip-path="url(#pe1aa96a862)" style="fill: #1f77b4"/>
   </g>
   <g id="patch_163">
    <path d="M 1775.435294 432 
L 1782.211765 432 
L 1782.211765 431.136 
L 1775.435294 431.136 
z
" clip-path="url(#pe1aa96a862)" style="fill: #1f77b4"/>
   </g>
   <g id="patch_164">
    <path d="M 1783.905882 432 
L 1790.682353 432 
L 1790.682353 429.408 
L 1783.905882 429.408 
z
" clip-path="url(#pe1aa96a862)" style="fill: #1f77b4"/>
   </g>
   <g id="patch_165">
    <path d="M 1826.258824 432 
L 1833.035294 432 
L 1833.035294 431.136 
L 1826.258824 431.136 
z
" clip-path="url(#pe1aa96a862)" style="fill: #1f77b4"/>
   </g>
   <g id="patch_166">
    <path d="M 1902.494118 432 
L 1909.270588 432 
L 1909.270588 431.136 
L 1902.494118 431.136 
z
" clip-path="url(#pe1aa96a862)" style="fill: #1f77b4"/>
   </g>
   <g id="patch_167">
    <path d="M 1910.964706 432 
L 1917.741176 432 
L 1917.741176 431.136 
L 1910.964706 431.136 
z
" clip-path="url(#pe1aa96a862)" style="fill: #1f77b4"/>
   </g>
   <g id="patch_168">
    <path d="M 1944.847059 432 
L 1951.623529 432 
L 1951.623529 431.136 
L 1944.847059 431.136 
z
" clip-path="url(#pe1aa96a862)" style="fill: #1f77b4"/>
   </g>
   <g id="patch_169">
    <path d="M 1961.788235 432 
L 1968.564706 432 
L 1968.564706 431.136 
L 1961.788235 431.136 
z
" clip-path="url(#pe1aa96a862)" style="fill: #1f77b4"/>
   </g>
   <g id="patch_170">
    <path d="M 1978.729412 432 
L 1985.505882 432 
L 1985.505882 431.136 
L 1978.729412 431.136 
z
" clip-path="url(#pe1aa96a862)" style="fill: #1f77b4"/>
   </g>
   <g id="patch_171">
    <path d="M 2004.141176 432 
L 2010.917647 432 
L 2010.917647 431.136 
L 2004.141176 431.136 
z
" clip-path="url(#pe1aa96a862)" style="fill: #1f77b4"/>
   </g>
   <g id="patch_172">
    <path d="M 2012.611765 432 
L 2019.388235 432 
L 2019.388235 430.272 
L 2012.611765 430.272 
z
" clip-path="url(#pe1aa96a862)" style="fill: #1f77b4"/>
   </g>
   <g id="patch_173">
    <path d="M 2071.905882 432 
L 2078.682353 432 
L 2078.682353 431.136 
L 2071.905882 431.136 
z
" clip-path="url(#pe1aa96a862)" style="fill: #1f77b4"/>
   </g>
   <g id="patch_174">
    <path d="M 2105.788235 432 
L 2112.564706 432 
L 2112.564706 431.136 
L 2105.788235 431.136 
z
" clip-path="url(#pe1aa96a862)" style="fill: #1f77b4"/>
   </g>
   <g id="patch_175">
    <path d="M 2173.552941 432 
L 2180.329412 432 
L 2180.329412 431.136 
L 2173.552941 431.136 
z
" clip-path="url(#pe1aa96a862)" style="fill: #1f77b4"/>
   </g>
   <g id="patch_176">
    <path d="M 2198.964706 432 
L 2205.741176 432 
L 2205.741176 431.136 
L 2198.964706 431.136 
z
" clip-path="url(#pe1aa96a862)" style="fill: #1f77b4"/>
   </g>
   <g id="patch_177">
    <path d="M 2207.435294 432 
L 2214.211765 432 
L 2214.211765 431.136 
L 2207.435294 431.136 
z
" clip-path="url(#pe1aa96a862)" style="fill: #1f77b4"/>
   </g>
   <g id="patch_178">
    <path d="M 2215.905882 432 
L 2222.682353 432 
L 2222.682353 430.272 
L 2215.905882 430.272 
z
" clip-path="url(#pe1aa96a862)" style="fill: #1f77b4"/>
   </g>
   <g id="patch_179">
    <path d="M 2249.788235 432 
L 2256.564706 432 
L 2256.564706 431.136 
L 2249.788235 431.136 
z
" clip-path="url(#pe1aa96a862)" style="fill: #1f77b4"/>
   </g>
   <g id="patch_180">
    <path d="M 2317.552941 432 
L 2324.329412 432 
L 2324.329412 431.136 
L 2317.552941 431.136 
z
" clip-path="url(#pe1aa96a862)" style="fill: #1f77b4"/>
   </g>
   <g id="patch_181">
    <path d="M 2385.317647 432 
L 2392.094118 432 
L 2392.094118 431.136 
L 2385.317647 431.136 
z
" clip-path="url(#pe1aa96a862)" style="fill: #1f77b4"/>
   </g>
   <g id="patch_182">
    <path d="M 2453.082353 432 
L 2459.858824 432 
L 2459.858824 431.136 
L 2453.082353 431.136 
z
" clip-path="url(#pe1aa96a862)" style="fill: #1f77b4"/>
   </g>
   <g id="patch_183">
    <path d="M 2461.552941 432 
L 2468.329412 432 
L 2468.329412 431.136 
L 2461.552941 431.136 
z
" clip-path="url(#pe1aa96a862)" style="fill: #1f77b4"/>
   </g>
   <g id="patch_184">
    <path d="M 2614.023529 432 
L 2620.8 432 
L 2620.8 430.272 
L 2614.023529 430.272 
z
" clip-path="url(#pe1aa96a862)" style="fill: #1f77b4"/>
   </g>
   <g id="patch_185">
    <path d="M 2656.376471 432 
L 2663.152941 432 
L 2663.152941 431.136 
L 2656.376471 431.136 
z
" clip-path="url(#pe1aa96a862)" style="fill: #1f77b4"/>
   </g>
   <g id="patch_186">
    <path d="M 2681.788235 432 
L 2688.564706 432 
L 2688.564706 431.136 
L 2681.788235 431.136 
z
" clip-path="url(#pe1aa96a862)" style="fill: #1f77b4"/>
   </g>
   <g id="patch_187">
    <path d="M 2715.670588 432 
L 2722.447059 432 
L 2722.447059 431.136 
L 2715.670588 431.136 
z
" clip-path="url(#pe1aa96a862)" style="fill: #1f77b4"/>
   </g>
   <g id="patch_188">
    <path d="M 2724.141176 432 
L 2730.917647 432 
L 2730.917647 431.136 
L 2724.141176 431.136 
z
" clip-path="url(#pe1aa96a862)" style="fill: #1f77b4"/>
   </g>
   <g id="patch_189">
    <path d="M 2732.611765 432 
L 2739.388235 432 
L 2739.388235 431.136 
L 2732.611765 431.136 
z
" clip-path="url(#pe1aa96a862)" style="fill: #1f77b4"/>
   </g>
   <g id="patch_190">
    <path d="M 2868.141176 432 
L 2874.917647 432 
L 2874.917647 431.136 
L 2868.141176 431.136 
z
" clip-path="url(#pe1aa96a862)" style="fill: #1f77b4"/>
   </g>
   <g id="patch_191">
    <path d="M 3122.258824 432 
L 3129.035294 432 
L 3129.035294 431.136 
L 3122.258824 431.136 
z
" clip-path="url(#pe1aa96a862)" style="fill: #1f77b4"/>
   </g>
   <g id="patch_192">
    <path d="M 3139.2 432 
L 3145.976471 432 
L 3145.976471 431.136 
L 3139.2 431.136 
z
" clip-path="url(#pe1aa96a862)" style="fill: #1f77b4"/>
   </g>
   <g id="patch_193">
    <path d="M 3215.435294 432 
L 3222.211765 432 
L 3222.211765 431.136 
L 3215.435294 431.136 
z
" clip-path="url(#pe1aa96a862)" style="fill: #1f77b4"/>
   </g>
   <g id="patch_194">
    <path d="M 3232.376471 432 
L 3239.152941 432 
L 3239.152941 431.136 
L 3232.376471 431.136 
z
" clip-path="url(#pe1aa96a862)" style="fill: #1f77b4"/>
   </g>
   <g id="patch_195">
    <path d="M 3249.317647 432 
L 3256.094118 432 
L 3256.094118 431.136 
L 3249.317647 431.136 
z
" clip-path="url(#pe1aa96a862)" style="fill: #1f77b4"/>
   </g>
   <g id="patch_196">
    <path d="M 3444.141176 432 
L 3450.917647 432 
L 3450.917647 431.136 
L 3444.141176 431.136 
z
" clip-path="url(#pe1aa96a862)" style="fill: #1f77b4"/>
   </g>
   <g id="patch_197">
    <path d="M 3461.082353 432 
L 3467.858824 432 
L 3467.858824 431.136 
L 3461.082353 431.136 
z
" clip-path="url(#pe1aa96a862)" style="fill: #1f77b4"/>
   </g>
   <g id="patch_198">
    <path d="M 3478.023529 432 
L 3484.8 432 
L 3484.8 431.136 
L 3478.023529 431.136 
z
" clip-path="url(#pe1aa96a862)" style="fill: #1f77b4"/>
   </g>
   <g id="patch_199">
    <path d="M 3537.317647 432 
L 3544.094118 432 
L 3544.094118 431.136 
L 3537.317647 431.136 
z
" clip-path="url(#pe1aa96a862)" style="fill: #1f77b4"/>
   </g>
   <g id="patch_200">
    <path d="M 3672.847059 432 
L 3679.623529 432 
L 3679.623529 431.136 
L 3672.847059 431.136 
z
" clip-path="url(#pe1aa96a862)" style="fill: #1f77b4"/>
   </g>
   <g id="patch_201">
    <path d="M 3799.905882 432 
L 3806.682353 432 
L 3806.682353 431.136 
L 3799.905882 431.136 
z
" clip-path="url(#pe1aa96a862)" style="fill: #1f77b4"/>
   </g>
   <g id="patch_202">
    <path d="M 3833.788235 432 
L 3840.564706 432 
L 3840.564706 431.136 
L 3833.788235 431.136 
z
" clip-path="url(#pe1aa96a862)" style="fill: #1f77b4"/>
   </g>
   <g id="patch_203">
    <path d="M 3867.670588 432 
L 3874.447059 432 
L 3874.447059 431.136 
L 3867.670588 431.136 
z
" clip-path="url(#pe1aa96a862)" style="fill: #1f77b4"/>
   </g>
   <g id="patch_204">
    <path d="M 3876.141176 432 
L 3882.917647 432 
L 3882.917647 431.136 
L 3876.141176 431.136 
z
" clip-path="url(#pe1aa96a862)" style="fill: #1f77b4"/>
   </g>
   <g id="patch_205">
    <path d="M 3884.611765 432 
L 3891.388235 432 
L 3891.388235 431.136 
L 3884.611765 431.136 
z
" clip-path="url(#pe1aa96a862)" style="fill: #1f77b4"/>
   </g>
   <g id="patch_206">
    <path d="M 3901.552941 432 
L 3908.329412 432 
L 3908.329412 431.136 
L 3901.552941 431.136 
z
" clip-path="url(#pe1aa96a862)" style="fill: #1f77b4"/>
   </g>
   <g id="patch_207">
    <path d="M 3935.435294 432 
L 3942.211765 432 
L 3942.211765 431.136 
L 3935.435294 431.136 
z
" clip-path="url(#pe1aa96a862)" style="fill: #1f77b4"/>
   </g>
   <g id="patch_208">
    <path d="M 4003.2 432 
L 4009.976471 432 
L 4009.976471 431.136 
L 4003.2 431.136 
z
" clip-path="url(#pe1aa96a862)" style="fill: #1f77b4"/>
   </g>
   <g id="patch_209">
    <path d="M 4045.552941 432 
L 4052.329412 432 
L 4052.329412 431.136 
L 4045.552941 431.136 
z
" clip-path="url(#pe1aa96a862)" style="fill: #1f77b4"/>
   </g>
   <g id="patch_210">
    <path d="M 4079.435294 432 
L 4086.211765 432 
L 4086.211765 431.136 
L 4079.435294 431.136 
z
" clip-path="url(#pe1aa96a862)" style="fill: #1f77b4"/>
   </g>
   <g id="patch_211">
    <path d="M 4138.729412 432 
L 4145.505882 432 
L 4145.505882 431.136 
L 4138.729412 431.136 
z
" clip-path="url(#pe1aa96a862)" style="fill: #1f77b4"/>
   </g>
   <g id="patch_212">
    <path d="M 4172.611765 432 
L 4179.388235 432 
L 4179.388235 431.136 
L 4172.611765 431.136 
z
" clip-path="url(#pe1aa96a862)" style="fill: #1f77b4"/>
   </g>
   <g id="patch_213">
    <path d="M 4570.729412 432 
L 4577.505882 432 
L 4577.505882 431.136 
L 4570.729412 431.136 
z
" clip-path="url(#pe1aa96a862)" style="fill: #1f77b4"/>
   </g>
   <g id="patch_214">
    <path d="M 5324.611765 432 
L 5331.388235 432 
L 5331.388235 431.136 
L 5324.611765 431.136 
z
" clip-path="url(#pe1aa96a862)" style="fill: #1f77b4"/>
   </g>
   <g id="patch_215">
    <path d="M 6036.141176 432 
L 6042.917647 432 
L 6042.917647 431.136 
L 6036.141176 431.136 
z
" clip-path="url(#pe1aa96a862)" style="fill: #1f77b4"/>
   </g>
   <g id="patch_216">
    <path d="M 6214.023529 432 
L 6220.8 432 
L 6220.8 431.136 
L 6214.023529 431.136 
z
" clip-path="url(#pe1aa96a862)" style="fill: #1f77b4"/>
   </g>
   <g id="patch_217">
    <path d="M 7925.082353 432 
L 7931.858824 432 
L 7931.858824 431.136 
L 7925.082353 431.136 
z
" clip-path="url(#pe1aa96a862)" style="fill: #1f77b4"/>
   </g>
   <g id="patch_218">
    <path d="M 7967.435294 432 
L 7974.211765 432 
L 7974.211765 431.136 
L 7967.435294 431.136 
z
" clip-path="url(#pe1aa96a862)" style="fill: #1f77b4"/>
   </g>
   <g id="patch_219">
    <path d="M 8086.023529 432 
L 8092.8 432 
L 8092.8 431.136 
L 8086.023529 431.136 
z
" clip-path="url(#pe1aa96a862)" style="fill: #1f77b4"/>
   </g>
   <g id="patch_220">
    <path d="M 8230.023529 432 
L 8236.8 432 
L 8236.8 431.136 
L 8230.023529 431.136 
z
" clip-path="url(#pe1aa96a862)" style="fill: #1f77b4"/>
   </g>
   <g id="patch_221">
    <path d="M 9178.729412 432 
L 9185.505882 432 
L 9185.505882 431.136 
L 9178.729412 431.136 
z
" clip-path="url(#pe1aa96a862)" style="fill: #1f77b4"/>
   </g>
   <g id="patch_222">
    <path d="M 10423.905882 432 
L 10430.682353 432 
L 10430.682353 431.136 
L 10423.905882 431.136 
z
" clip-path="url(#pe1aa96a862)" style="fill: #1f77b4"/>
   </g>
   <g id="patch_223">
    <path d="M 12033.317647 432 
L 12040.094118 432 
L 12040.094118 431.136 
L 12033.317647 431.136 
z
" clip-path="url(#pe1aa96a862)" style="fill: #1f77b4"/>
   </g>
   <g id="patch_224">
    <path d="M 12084.141176 432 
L 12090.917647 432 
L 12090.917647 431.136 
L 12084.141176 431.136 
z
" clip-path="url(#pe1aa96a862)" style="fill: #1f77b4"/>
   </g>
   <g id="patch_225">
    <path d="M 13066.729412 432 
L 13073.505882 432 
L 13073.505882 431.136 
L 13066.729412 431.136 
z
" clip-path="url(#pe1aa96a862)" style="fill: #1f77b4"/>
   </g>
   <g id="patch_226">
    <path d="M 13668.141176 432 
L 13674.917647 432 
L 13674.917647 431.136 
L 13668.141176 431.136 
z
" clip-path="url(#pe1aa96a862)" style="fill: #1f77b4"/>
   </g>
   <g id="matplotlib.axis_1">
    <g id="xtick_1">
     <g id="line2d_1">
      <defs>
       <path id="ma3a117ee19" d="M 0 0 
L 0 3.5 
" style="stroke: #000000; stroke-width: 0.8"/>
      </defs>
      <g>
       <use xlink:href="#ma3a117ee19" x="8.470588" y="432" style="stroke: #000000; stroke-width: 0.8"/>
      </g>
     </g>
     <g id="text_1">
      <!-- 0 -->
      <g transform="translate(2.744338 452.677188)scale(0.18 -0.18)">
       <defs>
        <path id="DejaVuSans-30" d="M 2034 4250 
Q 1547 4250 1301 3770 
Q 1056 3291 1056 2328 
Q 1056 1369 1301 889 
Q 1547 409 2034 409 
Q 2525 409 2770 889 
Q 3016 1369 3016 2328 
Q 3016 3291 2770 3770 
Q 2525 4250 2034 4250 
z
M 2034 4750 
Q 2819 4750 3233 4129 
Q 3647 3509 3647 2328 
Q 3647 1150 3233 529 
Q 2819 -91 2034 -91 
Q 1250 -91 836 529 
Q 422 1150 422 2328 
Q 422 3509 836 4129 
Q 1250 4750 2034 4750 
z
" transform="scale(0.015625)"/>
       </defs>
       <use xlink:href="#DejaVuSans-30"/>
      </g>
     </g>
    </g>
    <g id="xtick_2">
     <g id="line2d_2">
      <g>
       <use xlink:href="#ma3a117ee19" x="177.882353" y="432" style="stroke: #000000; stroke-width: 0.8"/>
      </g>
     </g>
     <g id="text_2">
      <!-- 20 -->
      <g transform="translate(166.429853 452.677188)scale(0.18 -0.18)">
       <defs>
        <path id="DejaVuSans-32" d="M 1228 531 
L 3431 531 
L 3431 0 
L 469 0 
L 469 531 
Q 828 903 1448 1529 
Q 2069 2156 2228 2338 
Q 2531 2678 2651 2914 
Q 2772 3150 2772 3378 
Q 2772 3750 2511 3984 
Q 2250 4219 1831 4219 
Q 1534 4219 1204 4116 
Q 875 4013 500 3803 
L 500 4441 
Q 881 4594 1212 4672 
Q 1544 4750 1819 4750 
Q 2544 4750 2975 4387 
Q 3406 4025 3406 3419 
Q 3406 3131 3298 2873 
Q 3191 2616 2906 2266 
Q 2828 2175 2409 1742 
Q 1991 1309 1228 531 
z
" transform="scale(0.015625)"/>
       </defs>
       <use xlink:href="#DejaVuSans-32"/>
       <use xlink:href="#DejaVuSans-30" x="63.623047"/>
      </g>
     </g>
    </g>
    <g id="xtick_3">
     <g id="line2d_3">
      <g>
       <use xlink:href="#ma3a117ee19" x="347.294118" y="432" style="stroke: #000000; stroke-width: 0.8"/>
      </g>
     </g>
     <g id="text_3">
      <!-- 40 -->
      <g transform="translate(335.841618 452.677188)scale(0.18 -0.18)">
       <defs>
        <path id="DejaVuSans-34" d="M 2419 4116 
L 825 1625 
L 2419 1625 
L 2419 4116 
z
M 2253 4666 
L 3047 4666 
L 3047 1625 
L 3713 1625 
L 3713 1100 
L 3047 1100 
L 3047 0 
L 2419 0 
L 2419 1100 
L 313 1100 
L 313 1709 
L 2253 4666 
z
" transform="scale(0.015625)"/>
       </defs>
       <use xlink:href="#DejaVuSans-34"/>
       <use xlink:href="#DejaVuSans-30" x="63.623047"/>
      </g>
     </g>
    </g>
    <g id="xtick_4">
     <g id="line2d_4">
      <g>
       <use xlink:href="#ma3a117ee19" x="516.705882" y="432" style="stroke: #000000; stroke-width: 0.8"/>
      </g>
     </g>
     <g id="text_4">
      <!-- 60 -->
      <g transform="translate(505.253382 452.677188)scale(0.18 -0.18)">
       <defs>
        <path id="DejaVuSans-36" d="M 2113 2584 
Q 1688 2584 1439 2293 
Q 1191 2003 1191 1497 
Q 1191 994 1439 701 
Q 1688 409 2113 409 
Q 2538 409 2786 701 
Q 3034 994 3034 1497 
Q 3034 2003 2786 2293 
Q 2538 2584 2113 2584 
z
M 3366 4563 
L 3366 3988 
Q 3128 4100 2886 4159 
Q 2644 4219 2406 4219 
Q 1781 4219 1451 3797 
Q 1122 3375 1075 2522 
Q 1259 2794 1537 2939 
Q 1816 3084 2150 3084 
Q 2853 3084 3261 2657 
Q 3669 2231 3669 1497 
Q 3669 778 3244 343 
Q 2819 -91 2113 -91 
Q 1303 -91 875 529 
Q 447 1150 447 2328 
Q 447 3434 972 4092 
Q 1497 4750 2381 4750 
Q 2619 4750 2861 4703 
Q 3103 4656 3366 4563 
z
" transform="scale(0.015625)"/>
       </defs>
       <use xlink:href="#DejaVuSans-36"/>
       <use xlink:href="#DejaVuSans-30" x="63.623047"/>
      </g>
     </g>
    </g>
    <g id="xtick_5">
     <g id="line2d_5">
      <g>
       <use xlink:href="#ma3a117ee19" x="686.117647" y="432" style="stroke: #000000; stroke-width: 0.8"/>
      </g>
     </g>
     <g id="text_5">
      <!-- 80 -->
      <g transform="translate(674.665147 452.677188)scale(0.18 -0.18)">
       <defs>
        <path id="DejaVuSans-38" d="M 2034 2216 
Q 1584 2216 1326 1975 
Q 1069 1734 1069 1313 
Q 1069 891 1326 650 
Q 1584 409 2034 409 
Q 2484 409 2743 651 
Q 3003 894 3003 1313 
Q 3003 1734 2745 1975 
Q 2488 2216 2034 2216 
z
M 1403 2484 
Q 997 2584 770 2862 
Q 544 3141 544 3541 
Q 544 4100 942 4425 
Q 1341 4750 2034 4750 
Q 2731 4750 3128 4425 
Q 3525 4100 3525 3541 
Q 3525 3141 3298 2862 
Q 3072 2584 2669 2484 
Q 3125 2378 3379 2068 
Q 3634 1759 3634 1313 
Q 3634 634 3220 271 
Q 2806 -91 2034 -91 
Q 1263 -91 848 271 
Q 434 634 434 1313 
Q 434 1759 690 2068 
Q 947 2378 1403 2484 
z
M 1172 3481 
Q 1172 3119 1398 2916 
Q 1625 2713 2034 2713 
Q 2441 2713 2670 2916 
Q 2900 3119 2900 3481 
Q 2900 3844 2670 4047 
Q 2441 4250 2034 4250 
Q 1625 4250 1398 4047 
Q 1172 3844 1172 3481 
z
" transform="scale(0.015625)"/>
       </defs>
       <use xlink:href="#DejaVuSans-38"/>
       <use xlink:href="#DejaVuSans-30" x="63.623047"/>
      </g>
     </g>
    </g>
    <g id="xtick_6">
     <g id="line2d_6">
      <g>
       <use xlink:href="#ma3a117ee19" x="855.529412" y="432" style="stroke: #000000; stroke-width: 0.8"/>
      </g>
     </g>
     <g id="text_6">
      <!-- 100 -->
      <g transform="translate(838.350662 452.677188)scale(0.18 -0.18)">
       <defs>
        <path id="DejaVuSans-31" d="M 794 531 
L 1825 531 
L 1825 4091 
L 703 3866 
L 703 4441 
L 1819 4666 
L 2450 4666 
L 2450 531 
L 3481 531 
L 3481 0 
L 794 0 
L 794 531 
z
" transform="scale(0.015625)"/>
       </defs>
       <use xlink:href="#DejaVuSans-31"/>
       <use xlink:href="#DejaVuSans-30" x="63.623047"/>
       <use xlink:href="#DejaVuSans-30" x="127.246094"/>
      </g>
     </g>
    </g>
    <g id="text_7">
     <!-- Alignment depth -->
     <g transform="translate(340.127656 477.137187)scale(0.22 -0.22)">
      <defs>
       <path id="DejaVuSans-41" d="M 2188 4044 
L 1331 1722 
L 3047 1722 
L 2188 4044 
z
M 1831 4666 
L 2547 4666 
L 4325 0 
L 3669 0 
L 3244 1197 
L 1141 1197 
L 716 0 
L 50 0 
L 1831 4666 
z
" transform="scale(0.015625)"/>
       <path id="DejaVuSans-6c" d="M 603 4863 
L 1178 4863 
L 1178 0 
L 603 0 
L 603 4863 
z
" transform="scale(0.015625)"/>
       <path id="DejaVuSans-69" d="M 603 3500 
L 1178 3500 
L 1178 0 
L 603 0 
L 603 3500 
z
M 603 4863 
L 1178 4863 
L 1178 4134 
L 603 4134 
L 603 4863 
z
" transform="scale(0.015625)"/>
       <path id="DejaVuSans-67" d="M 2906 1791 
Q 2906 2416 2648 2759 
Q 2391 3103 1925 3103 
Q 1463 3103 1205 2759 
Q 947 2416 947 1791 
Q 947 1169 1205 825 
Q 1463 481 1925 481 
Q 2391 481 2648 825 
Q 2906 1169 2906 1791 
z
M 3481 434 
Q 3481 -459 3084 -895 
Q 2688 -1331 1869 -1331 
Q 1566 -1331 1297 -1286 
Q 1028 -1241 775 -1147 
L 775 -588 
Q 1028 -725 1275 -790 
Q 1522 -856 1778 -856 
Q 2344 -856 2625 -561 
Q 2906 -266 2906 331 
L 2906 616 
Q 2728 306 2450 153 
Q 2172 0 1784 0 
Q 1141 0 747 490 
Q 353 981 353 1791 
Q 353 2603 747 3093 
Q 1141 3584 1784 3584 
Q 2172 3584 2450 3431 
Q 2728 3278 2906 2969 
L 2906 3500 
L 3481 3500 
L 3481 434 
z
" transform="scale(0.015625)"/>
       <path id="DejaVuSans-6e" d="M 3513 2113 
L 3513 0 
L 2938 0 
L 2938 2094 
Q 2938 2591 2744 2837 
Q 2550 3084 2163 3084 
Q 1697 3084 1428 2787 
Q 1159 2491 1159 1978 
L 1159 0 
L 581 0 
L 581 3500 
L 1159 3500 
L 1159 2956 
Q 1366 3272 1645 3428 
Q 1925 3584 2291 3584 
Q 2894 3584 3203 3211 
Q 3513 2838 3513 2113 
z
" transform="scale(0.015625)"/>
       <path id="DejaVuSans-6d" d="M 3328 2828 
Q 3544 3216 3844 3400 
Q 4144 3584 4550 3584 
Q 5097 3584 5394 3201 
Q 5691 2819 5691 2113 
L 5691 0 
L 5113 0 
L 5113 2094 
Q 5113 2597 4934 2840 
Q 4756 3084 4391 3084 
Q 3944 3084 3684 2787 
Q 3425 2491 3425 1978 
L 3425 0 
L 2847 0 
L 2847 2094 
Q 2847 2600 2669 2842 
Q 2491 3084 2119 3084 
Q 1678 3084 1418 2786 
Q 1159 2488 1159 1978 
L 1159 0 
L 581 0 
L 581 3500 
L 1159 3500 
L 1159 2956 
Q 1356 3278 1631 3431 
Q 1906 3584 2284 3584 
Q 2666 3584 2933 3390 
Q 3200 3197 3328 2828 
z
" transform="scale(0.015625)"/>
       <path id="DejaVuSans-65" d="M 3597 1894 
L 3597 1613 
L 953 1613 
Q 991 1019 1311 708 
Q 1631 397 2203 397 
Q 2534 397 2845 478 
Q 3156 559 3463 722 
L 3463 178 
Q 3153 47 2828 -22 
Q 2503 -91 2169 -91 
Q 1331 -91 842 396 
Q 353 884 353 1716 
Q 353 2575 817 3079 
Q 1281 3584 2069 3584 
Q 2775 3584 3186 3129 
Q 3597 2675 3597 1894 
z
M 3022 2063 
Q 3016 2534 2758 2815 
Q 2500 3097 2075 3097 
Q 1594 3097 1305 2825 
Q 1016 2553 972 2059 
L 3022 2063 
z
" transform="scale(0.015625)"/>
       <path id="DejaVuSans-74" d="M 1172 4494 
L 1172 3500 
L 2356 3500 
L 2356 3053 
L 1172 3053 
L 1172 1153 
Q 1172 725 1289 603 
Q 1406 481 1766 481 
L 2356 481 
L 2356 0 
L 1766 0 
Q 1100 0 847 248 
Q 594 497 594 1153 
L 594 3053 
L 172 3053 
L 172 3500 
L 594 3500 
L 594 4494 
L 1172 4494 
z
" transform="scale(0.015625)"/>
       <path id="DejaVuSans-20" transform="scale(0.015625)"/>
       <path id="DejaVuSans-64" d="M 2906 2969 
L 2906 4863 
L 3481 4863 
L 3481 0 
L 2906 0 
L 2906 525 
Q 2725 213 2448 61 
Q 2172 -91 1784 -91 
Q 1150 -91 751 415 
Q 353 922 353 1747 
Q 353 2572 751 3078 
Q 1150 3584 1784 3584 
Q 2172 3584 2448 3432 
Q 2725 3281 2906 2969 
z
M 947 1747 
Q 947 1113 1208 752 
Q 1469 391 1925 391 
Q 2381 391 2643 752 
Q 2906 1113 2906 1747 
Q 2906 2381 2643 2742 
Q 2381 3103 1925 3103 
Q 1469 3103 1208 2742 
Q 947 2381 947 1747 
z
" transform="scale(0.015625)"/>
       <path id="DejaVuSans-70" d="M 1159 525 
L 1159 -1331 
L 581 -1331 
L 581 3500 
L 1159 3500 
L 1159 2969 
Q 1341 3281 1617 3432 
Q 1894 3584 2278 3584 
Q 2916 3584 3314 3078 
Q 3713 2572 3713 1747 
Q 3713 922 3314 415 
Q 2916 -91 2278 -91 
Q 1894 -91 1617 61 
Q 1341 213 1159 525 
z
M 3116 1747 
Q 3116 2381 2855 2742 
Q 2594 3103 2138 3103 
Q 1681 3103 1420 2742 
Q 1159 2381 1159 1747 
Q 1159 1113 1420 752 
Q 1681 391 2138 391 
Q 2594 391 2855 752 
Q 3116 1113 3116 1747 
z
" transform="scale(0.015625)"/>
       <path id="DejaVuSans-68" d="M 3513 2113 
L 3513 0 
L 2938 0 
L 2938 2094 
Q 2938 2591 2744 2837 
Q 2550 3084 2163 3084 
Q 1697 3084 1428 2787 
Q 1159 2491 1159 1978 
L 1159 0 
L 581 0 
L 581 4863 
L 1159 4863 
L 1159 2956 
Q 1366 3272 1645 3428 
Q 1925 3584 2291 3584 
Q 2894 3584 3203 3211 
Q 3513 2838 3513 2113 
z
" transform="scale(0.015625)"/>
      </defs>
      <use xlink:href="#DejaVuSans-41"/>
      <use xlink:href="#DejaVuSans-6c" x="68.408203"/>
      <use xlink:href="#DejaVuSans-69" x="96.191406"/>
      <use xlink:href="#DejaVuSans-67" x="123.974609"/>
      <use xlink:href="#DejaVuSans-6e" x="187.451172"/>
      <use xlink:href="#DejaVuSans-6d" x="250.830078"/>
      <use xlink:href="#DejaVuSans-65" x="348.242188"/>
      <use xlink:href="#DejaVuSans-6e" x="409.765625"/>
      <use xlink:href="#DejaVuSans-74" x="473.144531"/>
      <use xlink:href="#DejaVuSans-20" x="512.353516"/>
      <use xlink:href="#DejaVuSans-64" x="544.140625"/>
      <use xlink:href="#DejaVuSans-65" x="607.617188"/>
      <use xlink:href="#DejaVuSans-70" x="669.140625"/>
      <use xlink:href="#DejaVuSans-74" x="732.617188"/>
      <use xlink:href="#DejaVuSans-68" x="771.826172"/>
     </g>
    </g>
   </g>
   <g id="matplotlib.axis_2">
    <g id="ytick_1">
     <g id="line2d_7">
      <defs>
       <path id="mb4f20018b6" d="M 0 0 
L -3.5 0 
" style="stroke: #000000; stroke-width: 0.8"/>
      </defs>
      <g>
       <use xlink:href="#mb4f20018b6" x="0" y="432" style="stroke: #000000; stroke-width: 0.8"/>
      </g>
     </g>
     <g id="text_8">
      <!-- 0 -->
      <g transform="translate(-18.4525 438.838594)scale(0.18 -0.18)">
       <use xlink:href="#DejaVuSans-30"/>
      </g>
     </g>
    </g>
    <g id="ytick_2">
     <g id="line2d_8">
      <g>
       <use xlink:href="#mb4f20018b6" x="0" y="345.6" style="stroke: #000000; stroke-width: 0.8"/>
      </g>
     </g>
     <g id="text_9">
      <!-- 100 -->
      <g transform="translate(-41.3575 352.438594)scale(0.18 -0.18)">
       <use xlink:href="#DejaVuSans-31"/>
       <use xlink:href="#DejaVuSans-30" x="63.623047"/>
       <use xlink:href="#DejaVuSans-30" x="127.246094"/>
      </g>
     </g>
    </g>
    <g id="ytick_3">
     <g id="line2d_9">
      <g>
       <use xlink:href="#mb4f20018b6" x="0" y="259.2" style="stroke: #000000; stroke-width: 0.8"/>
      </g>
     </g>
     <g id="text_10">
      <!-- 200 -->
      <g transform="translate(-41.3575 266.038594)scale(0.18 -0.18)">
       <use xlink:href="#DejaVuSans-32"/>
       <use xlink:href="#DejaVuSans-30" x="63.623047"/>
       <use xlink:href="#DejaVuSans-30" x="127.246094"/>
      </g>
     </g>
    </g>
    <g id="ytick_4">
     <g id="line2d_10">
      <g>
       <use xlink:href="#mb4f20018b6" x="0" y="172.8" style="stroke: #000000; stroke-width: 0.8"/>
      </g>
     </g>
     <g id="text_11">
      <!-- 300 -->
      <g transform="translate(-41.3575 179.638594)scale(0.18 -0.18)">
       <defs>
        <path id="DejaVuSans-33" d="M 2597 2516 
Q 3050 2419 3304 2112 
Q 3559 1806 3559 1356 
Q 3559 666 3084 287 
Q 2609 -91 1734 -91 
Q 1441 -91 1130 -33 
Q 819 25 488 141 
L 488 750 
Q 750 597 1062 519 
Q 1375 441 1716 441 
Q 2309 441 2620 675 
Q 2931 909 2931 1356 
Q 2931 1769 2642 2001 
Q 2353 2234 1838 2234 
L 1294 2234 
L 1294 2753 
L 1863 2753 
Q 2328 2753 2575 2939 
Q 2822 3125 2822 3475 
Q 2822 3834 2567 4026 
Q 2313 4219 1838 4219 
Q 1578 4219 1281 4162 
Q 984 4106 628 3988 
L 628 4550 
Q 988 4650 1302 4700 
Q 1616 4750 1894 4750 
Q 2613 4750 3031 4423 
Q 3450 4097 3450 3541 
Q 3450 3153 3228 2886 
Q 3006 2619 2597 2516 
z
" transform="scale(0.015625)"/>
       </defs>
       <use xlink:href="#DejaVuSans-33"/>
       <use xlink:href="#DejaVuSans-30" x="63.623047"/>
       <use xlink:href="#DejaVuSans-30" x="127.246094"/>
      </g>
     </g>
    </g>
    <g id="ytick_5">
     <g id="line2d_11">
      <g>
       <use xlink:href="#mb4f20018b6" x="0" y="86.4" style="stroke: #000000; stroke-width: 0.8"/>
      </g>
     </g>
     <g id="text_12">
      <!-- 400 -->
      <g transform="translate(-41.3575 93.238594)scale(0.18 -0.18)">
       <use xlink:href="#DejaVuSans-34"/>
       <use xlink:href="#DejaVuSans-30" x="63.623047"/>
       <use xlink:href="#DejaVuSans-30" x="127.246094"/>
      </g>
     </g>
    </g>
    <g id="ytick_6">
     <g id="line2d_12">
      <g>
       <use xlink:href="#mb4f20018b6" x="0" y="0" style="stroke: #000000; stroke-width: 0.8"/>
      </g>
     </g>
     <g id="text_13">
      <!-- 500 -->
      <g transform="translate(-41.3575 6.838594)scale(0.18 -0.18)">
       <defs>
        <path id="DejaVuSans-35" d="M 691 4666 
L 3169 4666 
L 3169 4134 
L 1269 4134 
L 1269 2991 
Q 1406 3038 1543 3061 
Q 1681 3084 1819 3084 
Q 2600 3084 3056 2656 
Q 3513 2228 3513 1497 
Q 3513 744 3044 326 
Q 2575 -91 1722 -91 
Q 1428 -91 1123 -41 
Q 819 9 494 109 
L 494 744 
Q 775 591 1075 516 
Q 1375 441 1709 441 
Q 2250 441 2565 725 
Q 2881 1009 2881 1497 
Q 2881 1984 2565 2268 
Q 2250 2553 1709 2553 
Q 1456 2553 1204 2497 
Q 953 2441 691 2322 
L 691 4666 
z
" transform="scale(0.015625)"/>
       </defs>
       <use xlink:href="#DejaVuSans-35"/>
       <use xlink:href="#DejaVuSans-30" x="63.623047"/>
       <use xlink:href="#DejaVuSans-30" x="127.246094"/>
      </g>
     </g>
    </g>
    <g id="text_14">
     <!-- Number of alignments -->
     <g transform="translate(-49.932813 339.088281)rotate(-90)scale(0.22 -0.22)">
      <defs>
       <path id="DejaVuSans-4e" d="M 628 4666 
L 1478 4666 
L 3547 763 
L 3547 4666 
L 4159 4666 
L 4159 0 
L 3309 0 
L 1241 3903 
L 1241 0 
L 628 0 
L 628 4666 
z
" transform="scale(0.015625)"/>
       <path id="DejaVuSans-75" d="M 544 1381 
L 544 3500 
L 1119 3500 
L 1119 1403 
Q 1119 906 1312 657 
Q 1506 409 1894 409 
Q 2359 409 2629 706 
Q 2900 1003 2900 1516 
L 2900 3500 
L 3475 3500 
L 3475 0 
L 2900 0 
L 2900 538 
Q 2691 219 2414 64 
Q 2138 -91 1772 -91 
Q 1169 -91 856 284 
Q 544 659 544 1381 
z
M 1991 3584 
L 1991 3584 
z
" transform="scale(0.015625)"/>
       <path id="DejaVuSans-62" d="M 3116 1747 
Q 3116 2381 2855 2742 
Q 2594 3103 2138 3103 
Q 1681 3103 1420 2742 
Q 1159 2381 1159 1747 
Q 1159 1113 1420 752 
Q 1681 391 2138 391 
Q 2594 391 2855 752 
Q 3116 1113 3116 1747 
z
M 1159 2969 
Q 1341 3281 1617 3432 
Q 1894 3584 2278 3584 
Q 2916 3584 3314 3078 
Q 3713 2572 3713 1747 
Q 3713 922 3314 415 
Q 2916 -91 2278 -91 
Q 1894 -91 1617 61 
Q 1341 213 1159 525 
L 1159 0 
L 581 0 
L 581 4863 
L 1159 4863 
L 1159 2969 
z
" transform="scale(0.015625)"/>
       <path id="DejaVuSans-72" d="M 2631 2963 
Q 2534 3019 2420 3045 
Q 2306 3072 2169 3072 
Q 1681 3072 1420 2755 
Q 1159 2438 1159 1844 
L 1159 0 
L 581 0 
L 581 3500 
L 1159 3500 
L 1159 2956 
Q 1341 3275 1631 3429 
Q 1922 3584 2338 3584 
Q 2397 3584 2469 3576 
Q 2541 3569 2628 3553 
L 2631 2963 
z
" transform="scale(0.015625)"/>
       <path id="DejaVuSans-6f" d="M 1959 3097 
Q 1497 3097 1228 2736 
Q 959 2375 959 1747 
Q 959 1119 1226 758 
Q 1494 397 1959 397 
Q 2419 397 2687 759 
Q 2956 1122 2956 1747 
Q 2956 2369 2687 2733 
Q 2419 3097 1959 3097 
z
M 1959 3584 
Q 2709 3584 3137 3096 
Q 3566 2609 3566 1747 
Q 3566 888 3137 398 
Q 2709 -91 1959 -91 
Q 1206 -91 779 398 
Q 353 888 353 1747 
Q 353 2609 779 3096 
Q 1206 3584 1959 3584 
z
" transform="scale(0.015625)"/>
       <path id="DejaVuSans-66" d="M 2375 4863 
L 2375 4384 
L 1825 4384 
Q 1516 4384 1395 4259 
Q 1275 4134 1275 3809 
L 1275 3500 
L 2222 3500 
L 2222 3053 
L 1275 3053 
L 1275 0 
L 697 0 
L 697 3053 
L 147 3053 
L 147 3500 
L 697 3500 
L 697 3744 
Q 697 4328 969 4595 
Q 1241 4863 1831 4863 
L 2375 4863 
z
" transform="scale(0.015625)"/>
       <path id="DejaVuSans-61" d="M 2194 1759 
Q 1497 1759 1228 1600 
Q 959 1441 959 1056 
Q 959 750 1161 570 
Q 1363 391 1709 391 
Q 2188 391 2477 730 
Q 2766 1069 2766 1631 
L 2766 1759 
L 2194 1759 
z
M 3341 1997 
L 3341 0 
L 2766 0 
L 2766 531 
Q 2569 213 2275 61 
Q 1981 -91 1556 -91 
Q 1019 -91 701 211 
Q 384 513 384 1019 
Q 384 1609 779 1909 
Q 1175 2209 1959 2209 
L 2766 2209 
L 2766 2266 
Q 2766 2663 2505 2880 
Q 2244 3097 1772 3097 
Q 1472 3097 1187 3025 
Q 903 2953 641 2809 
L 641 3341 
Q 956 3463 1253 3523 
Q 1550 3584 1831 3584 
Q 2591 3584 2966 3190 
Q 3341 2797 3341 1997 
z
" transform="scale(0.015625)"/>
       <path id="DejaVuSans-73" d="M 2834 3397 
L 2834 2853 
Q 2591 2978 2328 3040 
Q 2066 3103 1784 3103 
Q 1356 3103 1142 2972 
Q 928 2841 928 2578 
Q 928 2378 1081 2264 
Q 1234 2150 1697 2047 
L 1894 2003 
Q 2506 1872 2764 1633 
Q 3022 1394 3022 966 
Q 3022 478 2636 193 
Q 2250 -91 1575 -91 
Q 1294 -91 989 -36 
Q 684 19 347 128 
L 347 722 
Q 666 556 975 473 
Q 1284 391 1588 391 
Q 1994 391 2212 530 
Q 2431 669 2431 922 
Q 2431 1156 2273 1281 
Q 2116 1406 1581 1522 
L 1381 1569 
Q 847 1681 609 1914 
Q 372 2147 372 2553 
Q 372 3047 722 3315 
Q 1072 3584 1716 3584 
Q 2034 3584 2315 3537 
Q 2597 3491 2834 3397 
z
" transform="scale(0.015625)"/>
      </defs>
      <use xlink:href="#DejaVuSans-4e"/>
      <use xlink:href="#DejaVuSans-75" x="74.804688"/>
      <use xlink:href="#DejaVuSans-6d" x="138.183594"/>
      <use xlink:href="#DejaVuSans-62" x="235.595703"/>
      <use xlink:href="#DejaVuSans-65" x="299.072266"/>
      <use xlink:href="#DejaVuSans-72" x="360.595703"/>
      <use xlink:href="#DejaVuSans-20" x="401.708984"/>
      <use xlink:href="#DejaVuSans-6f" x="433.496094"/>
      <use xlink:href="#DejaVuSans-66" x="494.677734"/>
      <use xlink:href="#DejaVuSans-20" x="529.882812"/>
      <use xlink:href="#DejaVuSans-61" x="561.669922"/>
      <use xlink:href="#DejaVuSans-6c" x="622.949219"/>
      <use xlink:href="#DejaVuSans-69" x="650.732422"/>
      <use xlink:href="#DejaVuSans-67" x="678.515625"/>
      <use xlink:href="#DejaVuSans-6e" x="741.992188"/>
      <use xlink:href="#DejaVuSans-6d" x="805.371094"/>
      <use xlink:href="#DejaVuSans-65" x="902.783203"/>
      <use xlink:href="#DejaVuSans-6e" x="964.306641"/>
      <use xlink:href="#DejaVuSans-74" x="1027.685547"/>
      <use xlink:href="#DejaVuSans-73" x="1066.894531"/>
     </g>
    </g>
   </g>
   <g id="patch_227">
    <path d="M 0 432 
L 0 0 
" style="fill: none; stroke: #000000; stroke-width: 0.8; stroke-linejoin: miter; stroke-linecap: square"/>
   </g>
   <g id="patch_228">
    <path d="M 864 432 
L 864 0 
" style="fill: none; stroke: #000000; stroke-width: 0.8; stroke-linejoin: miter; stroke-linecap: square"/>
   </g>
   <g id="patch_229">
    <path d="M 0 432 
L 864 432 
" style="fill: none; stroke: #000000; stroke-width: 0.8; stroke-linejoin: miter; stroke-linecap: square"/>
   </g>
   <g id="patch_230">
    <path d="M 0 0 
L 864 0 
" style="fill: none; stroke: #000000; stroke-width: 0.8; stroke-linejoin: miter; stroke-linecap: square"/>
   </g>
   <g id="text_15">
    <!-- 2    Depth &lt; 5   = 45.8% -->
    <g transform="translate(389.647059 157.771375)scale(0.26 -0.26)">
     <defs>
      <path id="DejaVuSans-2264" d="M 4684 3175 
L 1684 2309 
L 4684 1453 
L 4684 897 
L 678 2047 
L 678 2578 
L 4684 3725 
L 4684 3175 
z
M 678 531 
L 4684 531 
L 4684 0 
L 678 0 
L 678 531 
z
" transform="scale(0.015625)"/>
      <path id="DejaVuSans-44" d="M 1259 4147 
L 1259 519 
L 2022 519 
Q 2988 519 3436 956 
Q 3884 1394 3884 2338 
Q 3884 3275 3436 3711 
Q 2988 4147 2022 4147 
L 1259 4147 
z
M 628 4666 
L 1925 4666 
Q 3281 4666 3915 4102 
Q 4550 3538 4550 2338 
Q 4550 1131 3912 565 
Q 3275 0 1925 0 
L 628 0 
L 628 4666 
z
" transform="scale(0.015625)"/>
      <path id="DejaVuSans-3c" d="M 4684 3150 
L 1459 2003 
L 4684 863 
L 4684 294 
L 678 1747 
L 678 2266 
L 4684 3719 
L 4684 3150 
z
" transform="scale(0.015625)"/>
      <path id="DejaVuSans-3d" d="M 678 2906 
L 4684 2906 
L 4684 2381 
L 678 2381 
L 678 2906 
z
M 678 1631 
L 4684 1631 
L 4684 1100 
L 678 1100 
L 678 1631 
z
" transform="scale(0.015625)"/>
      <path id="DejaVuSans-2e" d="M 684 794 
L 1344 794 
L 1344 0 
L 684 0 
L 684 794 
z
" transform="scale(0.015625)"/>
      <path id="DejaVuSans-25" d="M 4653 2053 
Q 4381 2053 4226 1822 
Q 4072 1591 4072 1178 
Q 4072 772 4226 539 
Q 4381 306 4653 306 
Q 4919 306 5073 539 
Q 5228 772 5228 1178 
Q 5228 1588 5073 1820 
Q 4919 2053 4653 2053 
z
M 4653 2450 
Q 5147 2450 5437 2106 
Q 5728 1763 5728 1178 
Q 5728 594 5436 251 
Q 5144 -91 4653 -91 
Q 4153 -91 3862 251 
Q 3572 594 3572 1178 
Q 3572 1766 3864 2108 
Q 4156 2450 4653 2450 
z
M 1428 4353 
Q 1159 4353 1004 4120 
Q 850 3888 850 3481 
Q 850 3069 1003 2837 
Q 1156 2606 1428 2606 
Q 1700 2606 1854 2837 
Q 2009 3069 2009 3481 
Q 2009 3884 1853 4118 
Q 1697 4353 1428 4353 
z
M 4250 4750 
L 4750 4750 
L 1831 -91 
L 1331 -91 
L 4250 4750 
z
M 1428 4750 
Q 1922 4750 2215 4408 
Q 2509 4066 2509 3481 
Q 2509 2891 2217 2550 
Q 1925 2209 1428 2209 
Q 931 2209 642 2551 
Q 353 2894 353 3481 
Q 353 4063 643 4406 
Q 934 4750 1428 4750 
z
" transform="scale(0.015625)"/>
     </defs>
     <use xlink:href="#DejaVuSans-32"/>
     <use xlink:href="#DejaVuSans-20" x="63.623047"/>
     <use xlink:href="#DejaVuSans-20" x="95.410156"/>
     <use xlink:href="#DejaVuSans-20" x="127.197266"/>
     <use xlink:href="#DejaVuSans-2264" x="158.984375"/>
     <use xlink:href="#DejaVuSans-20" x="242.773438"/>
     <use xlink:href="#DejaVuSans-44" x="274.560547"/>
     <use xlink:href="#DejaVuSans-65" x="351.5625"/>
     <use xlink:href="#DejaVuSans-70" x="413.085938"/>
     <use xlink:href="#DejaVuSans-74" x="476.5625"/>
     <use xlink:href="#DejaVuSans-68" x="515.771484"/>
     <use xlink:href="#DejaVuSans-20" x="579.150391"/>
     <use xlink:href="#DejaVuSans-3c" x="610.9375"/>
     <use xlink:href="#DejaVuSans-20" x="694.726562"/>
     <use xlink:href="#DejaVuSans-35" x="726.513672"/>
     <use xlink:href="#DejaVuSans-20" x="790.136719"/>
     <use xlink:href="#DejaVuSans-20" x="821.923828"/>
     <use xlink:href="#DejaVuSans-20" x="853.710938"/>
     <use xlink:href="#DejaVuSans-3d" x="885.498047"/>
     <use xlink:href="#DejaVuSans-20" x="969.287109"/>
     <use xlink:href="#DejaVuSans-34" x="1001.074219"/>
     <use xlink:href="#DejaVuSans-35" x="1064.697266"/>
     <use xlink:href="#DejaVuSans-2e" x="1128.320312"/>
     <use xlink:href="#DejaVuSans-38" x="1160.107422"/>
     <use xlink:href="#DejaVuSans-25" x="1223.730469"/>
    </g>
    <!-- 5    Depth  50 = 46.5% -->
    <g transform="translate(389.647059 186.885688)scale(0.26 -0.26)">
     <use xlink:href="#DejaVuSans-35"/>
     <use xlink:href="#DejaVuSans-20" x="63.623047"/>
     <use xlink:href="#DejaVuSans-20" x="95.410156"/>
     <use xlink:href="#DejaVuSans-20" x="127.197266"/>
     <use xlink:href="#DejaVuSans-2264" x="158.984375"/>
     <use xlink:href="#DejaVuSans-20" x="242.773438"/>
     <use xlink:href="#DejaVuSans-44" x="274.560547"/>
     <use xlink:href="#DejaVuSans-65" x="351.5625"/>
     <use xlink:href="#DejaVuSans-70" x="413.085938"/>
     <use xlink:href="#DejaVuSans-74" x="476.5625"/>
     <use xlink:href="#DejaVuSans-68" x="515.771484"/>
     <use xlink:href="#DejaVuSans-20" x="579.150391"/>
     <use xlink:href="#DejaVuSans-2264" x="610.9375"/>
     <use xlink:href="#DejaVuSans-20" x="694.726562"/>
     <use xlink:href="#DejaVuSans-35" x="726.513672"/>
     <use xlink:href="#DejaVuSans-30" x="790.136719"/>
     <use xlink:href="#DejaVuSans-20" x="853.759766"/>
     <use xlink:href="#DejaVuSans-3d" x="885.546875"/>
     <use xlink:href="#DejaVuSans-20" x="969.335938"/>
     <use xlink:href="#DejaVuSans-34" x="1001.123047"/>
     <use xlink:href="#DejaVuSans-36" x="1064.746094"/>
     <use xlink:href="#DejaVuSans-2e" x="1128.369141"/>
     <use xlink:href="#DejaVuSans-35" x="1160.15625"/>
     <use xlink:href="#DejaVuSans-25" x="1223.779297"/>
    </g>
    <!-- 50 &lt; Depth          = 7.7% -->
    <g transform="translate(389.647059 216)scale(0.26 -0.26)">
     <defs>
      <path id="DejaVuSans-37" d="M 525 4666 
L 3525 4666 
L 3525 4397 
L 1831 0 
L 1172 0 
L 2766 4134 
L 525 4134 
L 525 4666 
z
" transform="scale(0.015625)"/>
     </defs>
     <use xlink:href="#DejaVuSans-35"/>
     <use xlink:href="#DejaVuSans-30" x="63.623047"/>
     <use xlink:href="#DejaVuSans-20" x="127.246094"/>
     <use xlink:href="#DejaVuSans-3c" x="159.033203"/>
     <use xlink:href="#DejaVuSans-20" x="242.822266"/>
     <use xlink:href="#DejaVuSans-44" x="274.609375"/>
     <use xlink:href="#DejaVuSans-65" x="351.611328"/>
     <use xlink:href="#DejaVuSans-70" x="413.134766"/>
     <use xlink:href="#DejaVuSans-74" x="476.611328"/>
     <use xlink:href="#DejaVuSans-68" x="515.820312"/>
     <use xlink:href="#DejaVuSans-20" x="579.199219"/>
     <use xlink:href="#DejaVuSans-20" x="610.986328"/>
     <use xlink:href="#DejaVuSans-20" x="642.773438"/>
     <use xlink:href="#DejaVuSans-20" x="674.560547"/>
     <use xlink:href="#DejaVuSans-20" x="706.347656"/>
     <use xlink:href="#DejaVuSans-20" x="738.134766"/>
     <use xlink:href="#DejaVuSans-20" x="769.921875"/>
     <use xlink:href="#DejaVuSans-20" x="801.708984"/>
     <use xlink:href="#DejaVuSans-20" x="833.496094"/>
     <use xlink:href="#DejaVuSans-20" x="865.283203"/>
     <use xlink:href="#DejaVuSans-3d" x="897.070312"/>
     <use xlink:href="#DejaVuSans-20" x="980.859375"/>
     <use xlink:href="#DejaVuSans-37" x="1012.646484"/>
     <use xlink:href="#DejaVuSans-2e" x="1076.269531"/>
     <use xlink:href="#DejaVuSans-37" x="1108.056641"/>
     <use xlink:href="#DejaVuSans-25" x="1171.679688"/>
    </g>
   </g>
   <g id="text_16">
    <!-- Rfam14.9 alignment depth distribution -->
    <g transform="translate(198.29625 -6)scale(0.24 -0.24)">
     <defs>
      <path id="DejaVuSans-52" d="M 2841 2188 
Q 3044 2119 3236 1894 
Q 3428 1669 3622 1275 
L 4263 0 
L 3584 0 
L 2988 1197 
Q 2756 1666 2539 1819 
Q 2322 1972 1947 1972 
L 1259 1972 
L 1259 0 
L 628 0 
L 628 4666 
L 2053 4666 
Q 2853 4666 3247 4331 
Q 3641 3997 3641 3322 
Q 3641 2881 3436 2590 
Q 3231 2300 2841 2188 
z
M 1259 4147 
L 1259 2491 
L 2053 2491 
Q 2509 2491 2742 2702 
Q 2975 2913 2975 3322 
Q 2975 3731 2742 3939 
Q 2509 4147 2053 4147 
L 1259 4147 
z
" transform="scale(0.015625)"/>
      <path id="DejaVuSans-39" d="M 703 97 
L 703 672 
Q 941 559 1184 500 
Q 1428 441 1663 441 
Q 2288 441 2617 861 
Q 2947 1281 2994 2138 
Q 2813 1869 2534 1725 
Q 2256 1581 1919 1581 
Q 1219 1581 811 2004 
Q 403 2428 403 3163 
Q 403 3881 828 4315 
Q 1253 4750 1959 4750 
Q 2769 4750 3195 4129 
Q 3622 3509 3622 2328 
Q 3622 1225 3098 567 
Q 2575 -91 1691 -91 
Q 1453 -91 1209 -44 
Q 966 3 703 97 
z
M 1959 2075 
Q 2384 2075 2632 2365 
Q 2881 2656 2881 3163 
Q 2881 3666 2632 3958 
Q 2384 4250 1959 4250 
Q 1534 4250 1286 3958 
Q 1038 3666 1038 3163 
Q 1038 2656 1286 2365 
Q 1534 2075 1959 2075 
z
" transform="scale(0.015625)"/>
     </defs>
     <use xlink:href="#DejaVuSans-52"/>
     <use xlink:href="#DejaVuSans-66" x="69.482422"/>
     <use xlink:href="#DejaVuSans-61" x="104.6875"/>
     <use xlink:href="#DejaVuSans-6d" x="165.966797"/>
     <use xlink:href="#DejaVuSans-31" x="263.378906"/>
     <use xlink:href="#DejaVuSans-34" x="327.001953"/>
     <use xlink:href="#DejaVuSans-2e" x="390.625"/>
     <use xlink:href="#DejaVuSans-39" x="422.412109"/>
     <use xlink:href="#DejaVuSans-20" x="486.035156"/>
     <use xlink:href="#DejaVuSans-61" x="517.822266"/>
     <use xlink:href="#DejaVuSans-6c" x="579.101562"/>
     <use xlink:href="#DejaVuSans-69" x="606.884766"/>
     <use xlink:href="#DejaVuSans-67" x="634.667969"/>
     <use xlink:href="#DejaVuSans-6e" x="698.144531"/>
     <use xlink:href="#DejaVuSans-6d" x="761.523438"/>
     <use xlink:href="#DejaVuSans-65" x="858.935547"/>
     <use xlink:href="#DejaVuSans-6e" x="920.458984"/>
     <use xlink:href="#DejaVuSans-74" x="983.837891"/>
     <use xlink:href="#DejaVuSans-20" x="1023.046875"/>
     <use xlink:href="#DejaVuSans-64" x="1054.833984"/>
     <use xlink:href="#DejaVuSans-65" x="1118.310547"/>
     <use xlink:href="#DejaVuSans-70" x="1179.833984"/>
     <use xlink:href="#DejaVuSans-74" x="1243.310547"/>
     <use xlink:href="#DejaVuSans-68" x="1282.519531"/>
     <use xlink:href="#DejaVuSans-20" x="1345.898438"/>
     <use xlink:href="#DejaVuSans-64" x="1377.685547"/>
     <use xlink:href="#DejaVuSans-69" x="1441.162109"/>
     <use xlink:href="#DejaVuSans-73" x="1468.945312"/>
     <use xlink:href="#DejaVuSans-74" x="1521.044922"/>
     <use xlink:href="#DejaVuSans-72" x="1560.253906"/>
     <use xlink:href="#DejaVuSans-69" x="1601.367188"/>
     <use xlink:href="#DejaVuSans-62" x="1629.150391"/>
     <use xlink:href="#DejaVuSans-75" x="1692.626953"/>
     <use xlink:href="#DejaVuSans-74" x="1756.005859"/>
     <use xlink:href="#DejaVuSans-69" x="1795.214844"/>
     <use xlink:href="#DejaVuSans-6f" x="1822.998047"/>
     <use xlink:href="#DejaVuSans-6e" x="1884.179688"/>
    </g>
   </g>
  </g>
 </g>
 <defs>
  <clipPath id="pe1aa96a862">
   <rect x="0" y="0" width="864" height="432"/>
  </clipPath>
 </defs>
</svg>
